<svg width="156" height="125" viewBox="0 0 156 125" fill="none" xmlns="http://www.w3.org/2000/svg">
<g opacity="0.8" clip-path="url(#clip0)">
<path d="M104.1 83.8622C102.842 83.8622 101.822 84.6818 101.822 85.6933V114.38H95.4447C94.1865 114.38 93.167 115.199 93.167 116.211C93.167 117.222 94.1865 118.042 95.4447 118.042H104.1C105.358 118.042 106.378 117.222 106.378 116.211V87.5244H119.284V83.8622H104.1Z" fill="#49C9FF"/>
<path d="M60.5203 114.38H54.1428V85.6933C54.1428 84.6818 53.1233 83.8622 51.8651 83.8622H36.6807V87.5244H49.5875V116.211C49.5875 117.222 50.607 118.042 51.8651 118.042H60.5203C61.7785 118.042 62.798 117.222 62.798 116.211C62.798 115.199 61.7785 114.38 60.5203 114.38Z" fill="#E18F4E"/>
<path d="M87.3965 61.8897L73.7305 72.876H96.5072V61.8897H87.3965Z" fill="#808080"/>
<path d="M87.3965 61.8897H59.457V72.876H87.3965V61.8897Z" fill="#999999"/>
<path d="M18.459 61.8897L27.5697 91.1866L38.958 87.5245V72.876L36.6803 69.2139L18.459 61.8897Z" fill="#B3B3B3"/>
<path d="M9.34863 76.5381C9.34863 82.6057 15.4671 87.5244 23.0147 87.5244L27.57 91.1865V64.3311L9.34863 69.2139V76.5381Z" fill="#CCCCCC"/>
<path d="M30.6068 47.2411H21.4961L27.5699 69.2138H36.6806V52.124C36.6806 49.4272 33.9613 47.2411 30.6068 47.2411Z" fill="#1990C2"/>
<path d="M137.506 69.2139L132.95 87.5244C140.498 87.5244 146.616 82.6057 146.616 76.5381L137.506 69.2139Z" fill="#2DADE3"/>
<path d="M137.505 76.5381V69.2139L116.247 76.5381L117.006 91.1865H126.117L132.95 87.5244C135.466 87.5244 137.505 82.6057 137.505 76.5381Z" fill="#49C9FF"/>
<path d="M140.542 47.2411H131.432L137.505 76.538H146.616V52.124C146.616 49.4272 143.897 47.2411 140.542 47.2411Z" fill="#808080"/>
<path d="M131.432 47.2411H125.358C122.003 47.2411 119.284 49.4272 119.284 52.124V69.2138L117.006 76.538H137.505V52.124C137.505 49.4272 134.786 47.2411 131.432 47.2411Z" fill="#999999"/>
<path d="M27.57 52.124C27.57 49.4272 24.8508 47.2411 21.4962 47.2411H15.4224C12.0679 47.2411 9.34863 49.4272 9.34863 52.124V69.2138H27.57V52.124Z" fill="#2DADE3"/>
<path d="M146.616 87.5244L140.542 91.1865L146.616 94.8486H155.727L151.172 87.5244H146.616Z" fill="#CF301B"/>
<path d="M146.616 87.5244H117.006V94.8486H146.616V87.5244Z" fill="#FF4128"/>
<path d="M27.5699 87.5244L21.4961 91.1865L27.5699 94.8486H38.9582V87.5244H27.5699Z" fill="#CF301B"/>
<path d="M27.57 87.5244H2.51562V94.8486H27.57V87.5244Z" fill="#FF4128"/>
<path d="M23.0137 20.3857V39.917C30.5613 39.917 36.6797 34.9983 36.6797 28.9307C36.6797 27.6462 36.4027 26.4143 35.8989 25.2686L23.0137 20.3857Z" fill="#E18F4E"/>
<path d="M23.0137 17.9443L27.3088 25.2686H35.8989C34.0227 21.002 28.9636 17.9443 23.0137 17.9443Z" fill="#40211D"/>
<path d="M10.1284 25.2686C9.62462 26.4143 9.34766 27.6462 9.34766 28.9307C9.34766 34.9983 15.4661 39.917 23.0137 39.917C25.5295 39.917 27.569 34.9983 27.569 28.9307C27.569 27.6462 27.4767 26.4143 27.3088 25.2686L23.0137 20.3857L10.1284 25.2686Z" fill="#FFA754"/>
<path d="M23.0137 17.9443C17.0638 17.9443 12.0049 21.002 10.1284 25.2686H27.3087C26.6834 21.002 24.9971 17.9443 23.0137 17.9443Z" fill="#60312C"/>
<path d="M27.8107 9.39941C26.957 7.95728 25.1334 6.95801 23.0145 6.95801C20.8957 6.95801 19.072 7.95728 18.2184 9.39941C15.2832 9.39941 12.9038 11.3123 12.9038 13.6719C12.9038 16.0315 15.2832 17.9443 18.2184 17.9443H27.8107C30.7459 17.9443 33.1253 16.0315 33.1253 13.6719C33.1253 11.3123 30.7459 9.39941 27.8107 9.39941Z" fill="#60312C"/>
<path d="M141.15 20.1416H132.95V39.917C140.497 39.917 146.616 34.9976 146.616 28.9307C146.616 25.3369 144.469 22.1436 141.15 20.1416Z" fill="#C27749"/>
<path d="M136.959 23.7158C137.308 25.2686 137.506 27.0435 137.506 28.9307C137.506 34.9976 135.465 39.917 132.95 39.917C125.404 39.917 119.284 34.9976 119.284 28.9307L136.959 23.7158Z" fill="#E18F4E"/>
<path d="M141.15 20.1416C139.923 21.4551 138.517 22.6538 136.959 23.7158L132.95 17.9443C136.024 17.9443 138.866 18.7622 141.15 20.1416Z" fill="#40211D"/>
<path d="M119.284 28.9307C119.284 22.8638 125.404 17.9443 132.95 17.9443C134.681 17.9443 136.191 20.2783 136.959 23.7158C132.194 26.9678 126.023 28.9307 119.284 28.9307Z" fill="#60312C"/>
<path d="M110.173 69.2139L96.5073 72.876L110.173 76.5381H119.284V69.2139H110.173Z" fill="#FFA754"/>
<path d="M110.173 69.2139H36.6807V76.5381H110.173V69.2139Z" fill="#FFCB63"/>
<path d="M114.729 74.0967V116.211C114.729 117.222 115.748 118.042 117.006 118.042C118.264 118.042 119.284 117.222 119.284 116.211V76.5381L114.729 74.0967Z" fill="#FFA754"/>
<path d="M36.6807 76.5381V116.211C36.6807 117.222 37.7001 118.042 38.9583 118.042C40.2165 118.042 41.236 117.222 41.236 116.211V74.0967L36.6807 76.5381Z" fill="#FFCB63"/>
<path d="M151.171 87.5244V116.211C151.171 117.222 152.191 118.042 153.449 118.042C154.707 118.042 155.727 117.222 155.727 116.211V87.5244H151.171Z" fill="#CF301B"/>
<path d="M0.237793 87.5244V116.211C0.237793 117.222 1.25728 118.042 2.51546 118.042C3.77365 118.042 4.79313 117.222 4.79313 116.211V87.5244H0.237793Z" fill="#FF4128"/>
<path d="M62.4943 41.748C59.9785 41.748 57.939 43.3877 57.939 45.4102C57.939 47.4326 59.9785 49.0723 62.4943 49.0723L71.605 56.3965V41.748H62.4943Z" fill="#FF8646"/>
<path d="M93.4706 41.748H84.3599V56.3965L93.4706 49.0723C95.9863 49.0723 98.0259 47.4326 98.0259 45.4102C98.0259 43.3877 95.9863 41.748 93.4706 41.748Z" fill="#FF4128"/>
<path d="M88.9149 45.4102C88.9149 43.3877 86.8753 41.748 84.3596 41.748H70.6935C68.1778 41.748 66.1382 43.3877 66.1382 45.4102C66.1382 47.4326 68.1778 49.0723 70.6935 49.0723L84.3596 56.3965V49.0723C86.8753 49.0723 88.9149 47.4326 88.9149 45.4102Z" fill="#FF6337"/>
<path d="M80.2601 36.2549C79.0019 36.2549 77.9824 35.4354 77.9824 34.4239V12.4512C77.9824 11.4398 79.0019 10.6202 80.2601 10.6202C81.5183 10.6202 82.5378 11.4398 82.5378 12.4512V34.4239C82.5378 35.4354 81.5183 36.2549 80.2601 36.2549Z" fill="#EBEBEB"/>
<path d="M71.1492 17.9444C69.8911 17.9444 68.8716 17.1248 68.8716 16.1133V12.4512C68.8716 11.4398 69.8911 10.6202 71.1492 10.6202C72.4074 10.6202 73.4269 11.4398 73.4269 12.4512V16.1133C73.4269 17.1248 72.4074 17.9444 71.1492 17.9444Z" fill="#EBEBEB"/>
<path d="M71.1492 36.2549C69.8911 36.2549 68.8716 35.4354 68.8716 34.4239V23.4376C68.8716 22.4261 69.8911 21.6065 71.1492 21.6065C72.4074 21.6065 73.4269 22.4261 73.4269 23.4376V34.4239C73.4269 35.4354 72.4074 36.2549 71.1492 36.2549Z" fill="#EBEBEB"/>
<path d="M93.4707 50.9034L87.396 61.8897H96.5088C99.8488 61.8892 102.582 59.6922 102.582 57.0069V50.9034H93.4707Z" fill="#353535"/>
<path d="M53.3833 50.9034V57.0069C53.3833 59.6924 56.1165 61.8897 59.4571 61.8897H87.3974C90.7374 61.8892 93.4703 59.6922 93.4703 57.0069V50.9034H53.3833Z" fill="#4F4F4F"/>
<path d="M107.136 52.7344H48.828C47.5698 52.7344 46.5503 51.9148 46.5503 50.9033C46.5503 49.8918 47.5698 49.0723 48.828 49.0723H107.136C108.395 49.0723 109.414 49.8918 109.414 50.9033C109.414 51.9148 108.395 52.7344 107.136 52.7344Z" fill="#353535"/>
</g>
<defs>
<clipPath id="clip0">
<rect width="155.489" height="125" fill="white" transform="translate(0.237793)"/>
</clipPath>
</defs>
</svg>
