<svg width="35" height="23" viewBox="0 0 35 23" fill="none" xmlns="http://www.w3.org/2000/svg">
<path d="M34.6503 2.33156L32.8969 0.388752C32.6633 0.129312 32.3941 0 32.0899 0C31.7863 0 31.5173 0.129312 31.2837 0.388752L17.5002 15.6616L3.71731 0.38916C3.48355 0.12972 3.21454 0.000408129 2.91064 0.000408129C2.60661 0.000408129 2.3376 0.12972 2.10396 0.38916L0.350824 2.3321C0.116696 2.591 0 2.8891 0 3.22599C0 3.56261 0.117064 3.8607 0.350824 4.1196L16.6935 22.2295C16.9271 22.4885 17.1963 22.618 17.5002 22.618C17.8041 22.618 18.0727 22.4885 18.3062 22.2295L34.6503 4.1196C34.8839 3.86057 35 3.56247 35 3.22599C35 2.8891 34.8839 2.591 34.6503 2.33156Z" fill="#EE4E2F"/>
</svg>
