<svg width="414" height="1791" viewBox="0 0 414 1791" fill="none" xmlns="http://www.w3.org/2000/svg">
<rect width="414" height="1567" fill="#FAFAEF"/>
<ellipse rx="9.99827" ry="6.85648" transform="matrix(-0.00334581 -0.999994 0.999898 -0.014278 316.99 1094.36)" fill="#E9CDB3"/>
<ellipse rx="9.99827" ry="6.85648" transform="matrix(-0.00334581 -0.999994 0.999898 -0.014278 322.836 997.292)" fill="#E9CDB3"/>
<ellipse rx="9.99827" ry="6.85648" transform="matrix(-0.00334581 -0.999994 0.999898 -0.014278 328.682 900.221)" fill="#E9CDB3"/>
<ellipse rx="9.99827" ry="6.85648" transform="matrix(-0.00334581 -0.999994 0.999898 -0.014278 334.527 803.15)" fill="#E9CDB3"/>
<ellipse rx="9.99827" ry="6.85648" transform="matrix(-0.00334581 -0.999994 0.999898 -0.014278 340.373 706.079)" fill="#E9CDB3"/>
<ellipse rx="9.99827" ry="6.85648" transform="matrix(-0.00334581 -0.999994 0.999898 -0.014278 346.219 609.008)" fill="#E9CDB3"/>
<ellipse rx="9.99827" ry="6.85648" transform="matrix(-0.00334581 -0.999994 0.999898 -0.014278 352.065 511.937)" fill="#E9CDB3"/>
<ellipse rx="9.99827" ry="6.85648" transform="matrix(-0.00334581 -0.999994 0.999898 -0.014278 357.91 414.867)" fill="#E9CDB3"/>
<ellipse rx="9.99827" ry="6.85648" transform="matrix(-0.00334581 -0.999994 0.999898 -0.014278 363.756 317.796)" fill="#E9CDB3"/>
<ellipse rx="9.99827" ry="6.85648" transform="matrix(-0.00334581 -0.999994 0.999898 -0.014278 369.602 220.725)" fill="#E9CDB3"/>
<ellipse rx="9.99827" ry="6.85648" transform="matrix(-0.00334581 -0.999994 0.999898 -0.014278 375.447 123.654)" fill="#E9CDB3"/>
<ellipse rx="9.99827" ry="6.85648" transform="matrix(-0.00334581 -0.999994 0.999898 -0.014278 330.575 1056.17)" fill="#E9CDB3"/>
<ellipse rx="9.99827" ry="6.85648" transform="matrix(-0.00334581 -0.999994 0.999898 -0.014278 336.42 959.102)" fill="#E9CDB3"/>
<ellipse rx="9.99827" ry="6.85648" transform="matrix(-0.00334581 -0.999994 0.999898 -0.014278 342.266 862.032)" fill="#E9CDB3"/>
<ellipse rx="9.99827" ry="6.85648" transform="matrix(-0.00334581 -0.999994 0.999898 -0.014278 348.112 764.961)" fill="#D49A52"/>
<ellipse rx="9.99827" ry="6.85648" transform="matrix(-0.00334581 -0.999994 0.999898 -0.014278 353.958 667.89)" fill="#D49A52"/>
<ellipse rx="9.99827" ry="6.85648" transform="matrix(-0.00334581 -0.999994 0.999898 -0.014278 359.803 570.819)" fill="#D49A52"/>
<ellipse rx="9.99827" ry="6.85648" transform="matrix(-0.00334581 -0.999994 0.999898 -0.014278 365.649 473.748)" fill="#D49A52"/>
<ellipse rx="9.99827" ry="6.85648" transform="matrix(-0.00334581 -0.999994 0.999898 -0.014278 371.495 376.678)" fill="#D49A52"/>
<ellipse rx="9.99827" ry="6.85648" transform="matrix(-0.00334581 -0.999994 0.999898 -0.014278 377.34 279.607)" fill="#D49A52"/>
<ellipse rx="9.99827" ry="6.85648" transform="matrix(-0.00334581 -0.999994 0.999898 -0.014278 383.186 182.536)" fill="#D49A52"/>
<ellipse rx="9.99827" ry="6.85648" transform="matrix(-0.00334581 -0.999994 0.999898 -0.014278 389.031 85.4653)" fill="#D49A52"/>
<ellipse rx="9.99827" ry="6.85648" transform="matrix(-0.00334581 -0.999994 0.999898 -0.014278 307.181 1031.51)" fill="#D49A52"/>
<ellipse rx="9.99827" ry="6.85648" transform="matrix(-0.00334581 -0.999994 0.999898 -0.014278 313.027 934.44)" fill="#D49A52"/>
<ellipse rx="9.99827" ry="6.85648" transform="matrix(-0.00334581 -0.999994 0.999898 -0.014278 318.873 837.369)" fill="#D49A52"/>
<ellipse rx="9.99827" ry="6.85648" transform="matrix(-0.00334581 -0.999994 0.999898 -0.014278 306.978 1060.81)" fill="#D49A52"/>
<ellipse rx="9.99827" ry="6.85648" transform="matrix(-0.00334581 -0.999994 0.999898 -0.014278 324.718 740.298)" fill="#D49A52"/>
<ellipse rx="9.99827" ry="6.85648" transform="matrix(-0.00334581 -0.999994 0.999898 -0.014278 330.565 643.227)" fill="#D49A52"/>
<ellipse rx="9.99827" ry="6.85648" transform="matrix(-0.00334581 -0.999994 0.999898 -0.014278 336.41 546.157)" fill="#D49A52"/>
<ellipse rx="9.99827" ry="6.85648" transform="matrix(-0.00334581 -0.999994 0.999898 -0.014278 342.256 449.086)" fill="#D49A52"/>
<ellipse rx="9.99827" ry="6.85648" transform="matrix(-0.00334581 -0.999994 0.999898 -0.014278 348.102 352.015)" fill="#D49A52"/>
<ellipse rx="9.99827" ry="6.85648" transform="matrix(-0.00334581 -0.999994 0.999898 -0.014278 353.947 254.944)" fill="#D49A52"/>
<ellipse rx="9.99827" ry="6.85648" transform="matrix(-0.00334581 -0.999994 0.999898 -0.014278 359.793 157.873)" fill="#E9CDB3"/>
<ellipse rx="9.99827" ry="6.85648" transform="matrix(-0.00334581 -0.999994 0.999898 -0.014278 365.639 60.8027)" fill="#E9CDB3"/>
<ellipse rx="9.99827" ry="6.85648" transform="matrix(-0.00334581 -0.999994 0.999898 -0.014278 344.994 38.1007)" fill="#E9CDB3"/>
<ellipse rx="9.99827" ry="6.85648" transform="matrix(-0.00334581 -0.999994 0.999898 -0.014278 353.146 1090.99)" fill="#E9CDB3"/>
<ellipse rx="9.99827" ry="6.85648" transform="matrix(-0.00334581 -0.999994 0.999898 -0.014278 374.864 1105.54)" fill="#E9CDB3"/>
<ellipse rx="7.54743" ry="9.48752" transform="matrix(-0.820482 -0.562609 0.310092 -0.954122 336.379 167.518)" fill="#E9CDB3"/>
<ellipse rx="7.54743" ry="9.48752" transform="matrix(-0.820482 -0.562609 0.310092 -0.954122 327.825 323.317)" fill="#E9CDB3"/>
<ellipse rx="7.54743" ry="9.48752" transform="matrix(-0.820482 -0.562609 0.310092 -0.954122 319.27 479.117)" fill="#E9CDB3"/>
<ellipse rx="7.54743" ry="9.48752" transform="matrix(-0.820482 -0.562609 0.310092 -0.954122 310.715 634.917)" fill="#E9CDB3"/>
<ellipse rx="7.54743" ry="9.48752" transform="matrix(-0.820482 -0.562609 0.310092 -0.954122 304.248 788.769)" fill="#E9CDB3"/>
<ellipse rx="7.54743" ry="9.48752" transform="matrix(-0.820482 -0.562609 0.310092 -0.954122 306.947 970.856)" fill="#E9CDB3"/>
<ellipse rx="9.99827" ry="6.85648" transform="matrix(-0.00334581 -0.999994 0.999898 -0.014278 355.015 983.834)" fill="#E9CDB3"/>
<ellipse rx="9.99827" ry="6.85648" transform="matrix(-0.00334581 -0.999994 0.999898 -0.014278 360.86 886.763)" fill="#E9CDB3"/>
<ellipse rx="9.99827" ry="6.85648" transform="matrix(-0.00334581 -0.999994 0.999898 -0.014278 366.706 789.692)" fill="#E9CDB3"/>
<ellipse rx="9.99827" ry="6.85648" transform="matrix(-0.00334581 -0.999994 0.999898 -0.014278 372.552 692.621)" fill="#E9CDB3"/>
<ellipse rx="9.99827" ry="6.85648" transform="matrix(-0.00334581 -0.999994 0.999898 -0.014278 378.397 595.551)" fill="#E9CDB3"/>
<ellipse rx="9.99827" ry="6.85648" transform="matrix(-0.00334581 -0.999994 0.999898 -0.014278 384.243 498.48)" fill="#E9CDB3"/>
<ellipse rx="9.99827" ry="6.85648" transform="matrix(-0.00334581 -0.999994 0.999898 -0.014278 390.089 401.409)" fill="#E9CDB3"/>
<ellipse rx="9.99827" ry="6.85648" transform="matrix(-0.00334581 -0.999994 0.999898 -0.014278 395.935 304.338)" fill="#E9CDB3"/>
<ellipse rx="9.99827" ry="6.85648" transform="matrix(-0.00334581 -0.999994 0.999898 -0.014278 401.781 207.267)" fill="#E9CDB3"/>
<ellipse rx="9.99827" ry="6.85648" transform="matrix(-0.00334581 -0.999994 0.999898 -0.014278 407.626 110.197)" fill="#E9CDB3"/>
<ellipse rx="9.99827" ry="6.85648" transform="matrix(-0.00334581 -0.999994 0.999898 -0.014278 362.753 1042.72)" fill="#E9CDB3"/>
<ellipse rx="9.99827" ry="6.85648" transform="matrix(-0.00334581 -0.999994 0.999898 -0.014278 368.599 945.645)" fill="#FFC850"/>
<ellipse rx="9.99827" ry="6.85648" transform="matrix(-0.00334581 -0.999994 0.999898 -0.014278 374.444 848.574)" fill="#FFC850"/>
<ellipse rx="9.99827" ry="6.85648" transform="matrix(-0.00334581 -0.999994 0.999898 -0.014278 380.291 751.503)" fill="#FFC850"/>
<ellipse rx="9.99827" ry="6.85648" transform="matrix(-0.00334581 -0.999994 0.999898 -0.014278 386.136 654.432)" fill="#FFC850"/>
<ellipse rx="9.99827" ry="6.85648" transform="matrix(-0.00334581 -0.999994 0.999898 -0.014278 391.982 557.362)" fill="#FFC850"/>
<ellipse rx="9.99827" ry="6.85648" transform="matrix(-0.00334581 -0.999994 0.999898 -0.014278 397.828 460.291)" fill="#FFC850"/>
<ellipse rx="9.99827" ry="6.85648" transform="matrix(-0.00334581 -0.999994 0.999898 -0.014278 403.673 363.22)" fill="#FFC850"/>
<ellipse rx="9.99827" ry="6.85648" transform="matrix(-0.00334581 -0.999994 0.999898 -0.014278 409.519 266.149)" fill="#FFC850"/>
<ellipse rx="9.99827" ry="6.85648" transform="matrix(-0.00334581 -0.999994 0.999898 -0.014278 415.365 169.078)" fill="#FFC850"/>
<ellipse rx="9.99827" ry="6.85648" transform="matrix(-0.00334581 -0.999994 0.999898 -0.014278 339.36 1018.05)" fill="#FFC850"/>
<ellipse rx="9.99827" ry="6.85648" transform="matrix(-0.00334581 -0.999994 0.999898 -0.014278 345.206 920.982)" fill="#FFC850"/>
<ellipse rx="9.99827" ry="6.85648" transform="matrix(-0.00334581 -0.999994 0.999898 -0.014278 351.051 823.911)" fill="#FFC850"/>
<ellipse rx="9.99827" ry="6.85648" transform="matrix(-0.00334581 -0.999994 0.999898 -0.014278 356.898 726.841)" fill="#FFC850"/>
<ellipse rx="9.99827" ry="6.85648" transform="matrix(-0.00334581 -0.999994 0.999898 -0.014278 362.743 629.77)" fill="#FFC850"/>
<ellipse rx="9.99827" ry="6.85648" transform="matrix(-0.00334581 -0.999994 0.999898 -0.014278 368.589 532.699)" fill="#FFC850"/>
<ellipse rx="9.99827" ry="6.85648" transform="matrix(-0.00334581 -0.999994 0.999898 -0.014278 374.434 435.628)" fill="#FFC850"/>
<ellipse rx="9.99827" ry="6.85648" transform="matrix(-0.00334581 -0.999994 0.999898 -0.014278 380.28 338.557)" fill="#FFC850"/>
<ellipse rx="9.99827" ry="6.85648" transform="matrix(-0.00334581 -0.999994 0.999898 -0.014278 386.126 241.486)" fill="#E9CDB3"/>
<ellipse rx="9.99827" ry="6.85648" transform="matrix(-0.00334581 -0.999994 0.999898 -0.014278 391.971 144.416)" fill="#E9CDB3"/>
<ellipse rx="9.99827" ry="6.85648" transform="matrix(-0.00334581 -0.999994 0.999898 -0.014278 397.817 47.345)" fill="#E9CDB3"/>
<ellipse rx="9.99827" ry="6.85648" transform="matrix(-0.00334581 -0.999994 0.999898 -0.014278 377.172 24.6427)" fill="#E9CDB3"/>
<ellipse rx="9.99827" ry="6.85648" transform="matrix(-0.00334581 -0.999994 0.999898 -0.014278 385.325 1077.53)" fill="#E9CDB3"/>
<ellipse rx="9.99827" ry="6.85648" transform="matrix(-0.00334581 -0.999994 0.999898 -0.014278 407.043 1092.08)" fill="#E9CDB3"/>
<ellipse rx="7.54743" ry="9.48752" transform="matrix(-0.820482 -0.562609 0.310092 -0.954122 342.156 119.452)" fill="#E9CDB3"/>
<ellipse rx="7.54743" ry="9.48752" transform="matrix(-0.820482 -0.562609 0.310092 -0.954122 333.602 275.252)" fill="#E9CDB3"/>
<ellipse rx="7.54743" ry="9.48752" transform="matrix(-0.820482 -0.562609 0.310092 -0.954122 325.047 431.051)" fill="#E9CDB3"/>
<ellipse rx="7.54743" ry="9.48752" transform="matrix(-0.820482 -0.562609 0.310092 -0.954122 316.493 586.851)" fill="#E9CDB3"/>
<ellipse rx="7.54743" ry="9.48752" transform="matrix(-0.820482 -0.562609 0.310092 -0.954122 303.902 721.753)" fill="#E9CDB3"/>
<ellipse rx="7.54743" ry="9.48752" transform="matrix(-0.820482 -0.562609 0.310092 -0.954122 305.869 906.822)" fill="#E9CDB3"/>
<ellipse rx="9.99827" ry="6.85648" transform="matrix(-0.00334581 -0.999994 0.999898 -0.014278 387.193 970.376)" fill="#E9CDB3"/>
<ellipse rx="9.99827" ry="6.85648" transform="matrix(-0.00334581 -0.999994 0.999898 -0.014278 393.039 873.305)" fill="#E9CDB3"/>
<ellipse rx="9.99827" ry="6.85648" transform="matrix(-0.00334581 -0.999994 0.999898 -0.014278 398.884 776.234)" fill="#E9CDB3"/>
<ellipse rx="9.99827" ry="6.85648" transform="matrix(-0.00334581 -0.999994 0.999898 -0.014278 404.73 679.164)" fill="#E9CDB3"/>
<ellipse rx="9.99827" ry="6.85648" transform="matrix(-0.00334581 -0.999994 0.999898 -0.014278 410.576 582.093)" fill="#E9CDB3"/>
<ellipse rx="9.99827" ry="6.85648" transform="matrix(-0.00334581 -0.999994 0.999898 -0.014278 416.421 485.022)" fill="#E9CDB3"/>
<ellipse rx="9.99827" ry="6.85648" transform="matrix(-0.00334581 -0.999994 0.999898 -0.014278 394.932 1029.26)" fill="#D49A52"/>
<ellipse rx="9.99827" ry="6.85648" transform="matrix(-0.00334581 -0.999994 0.999898 -0.014278 400.777 932.187)" fill="#D49A52"/>
<ellipse rx="9.99827" ry="6.85648" transform="matrix(-0.00334581 -0.999994 0.999898 -0.014278 406.624 835.116)" fill="#D49A52"/>
<ellipse rx="9.99827" ry="6.85648" transform="matrix(-0.00334581 -0.999994 0.999898 -0.014278 412.469 738.045)" fill="#D49A52"/>
<ellipse rx="9.99827" ry="6.85648" transform="matrix(-0.00334581 -0.999994 0.999898 -0.014278 418.315 640.975)" fill="#D49A52"/>
<ellipse rx="9.99827" ry="6.85648" transform="matrix(-0.00334581 -0.999994 0.999898 -0.014278 371.539 1004.6)" fill="#D49A52"/>
<ellipse rx="9.99827" ry="6.85648" transform="matrix(-0.00334581 -0.999994 0.999898 -0.014278 377.384 907.524)" fill="#D49A52"/>
<ellipse rx="9.99827" ry="6.85648" transform="matrix(-0.00334581 -0.999994 0.999898 -0.014278 383.23 810.453)" fill="#D49A52"/>
<ellipse rx="9.99827" ry="6.85648" transform="matrix(-0.00334581 -0.999994 0.999898 -0.014278 389.076 713.383)" fill="#D49A52"/>
<ellipse rx="9.99827" ry="6.85648" transform="matrix(-0.00334581 -0.999994 0.999898 -0.014278 394.922 616.312)" fill="#D49A52"/>
<ellipse rx="9.99827" ry="6.85648" transform="matrix(-0.00334581 -0.999994 0.999898 -0.014278 400.767 519.241)" fill="#D49A52"/>
<ellipse rx="9.99827" ry="6.85648" transform="matrix(-0.00334581 -0.999994 0.999898 -0.014278 406.613 422.17)" fill="#D49A52"/>
<ellipse rx="9.99827" ry="6.85648" transform="matrix(-0.00334581 -0.999994 0.999898 -0.014278 412.458 325.099)" fill="#D79000"/>
<ellipse rx="9.99827" ry="6.85648" transform="matrix(-0.00334581 -0.999994 0.999898 -0.014278 418.304 228.029)" fill="#D79000"/>
<ellipse rx="9.99827" ry="6.85648" transform="matrix(-0.00334581 -0.999994 0.999898 -0.014278 417.503 1064.07)" fill="#D79000"/>
<ellipse rx="7.54743" ry="9.48752" transform="matrix(-0.820482 -0.562609 0.310092 -0.954122 347.933 71.3862)" fill="#D79000"/>
<ellipse rx="7.54743" ry="9.48752" transform="matrix(-0.820482 -0.562609 0.310092 -0.954122 339.378 227.186)" fill="#D79000"/>
<ellipse rx="7.54743" ry="9.48752" transform="matrix(-0.820482 -0.562609 0.310092 -0.954122 330.824 382.985)" fill="#D79000"/>
<ellipse rx="7.54743" ry="9.48752" transform="matrix(-0.820482 -0.562609 0.310092 -0.954122 322.27 538.785)" fill="#D79000"/>
<ellipse rx="7.54743" ry="9.48752" transform="matrix(-0.820482 -0.562609 0.310092 -0.954122 325.061 683.286)" fill="#D79000"/>
<ellipse rx="7.54743" ry="9.48752" transform="matrix(-0.820482 -0.562609 0.310092 -0.954122 310.582 867.659)" fill="#D79000"/>
<ellipse rx="9.99827" ry="6.85648" transform="matrix(-0.00334581 -0.999994 0.999898 -0.014278 419.372 956.918)" fill="#D79000"/>
<ellipse rx="9.99827" ry="6.85648" transform="matrix(-0.00334581 -0.999994 0.999898 -0.014278 403.717 991.137)" fill="#E9CDB3"/>
<ellipse rx="9.99827" ry="6.85648" transform="matrix(-0.00334581 -0.999994 0.999898 -0.014278 409.563 894.066)" fill="#E9CDB3"/>
<ellipse rx="9.99827" ry="6.85648" transform="matrix(-0.00334581 -0.999994 0.999898 -0.014278 415.409 796.996)" fill="#E9CDB3"/>
<ellipse rx="9.99827" ry="6.85648" transform="matrix(-0.00334581 -0.999994 0.999898 -0.014278 169.367 1084.36)" fill="#E9CDB3"/>
<ellipse rx="9.99827" ry="6.85648" transform="matrix(-0.00334581 -0.999994 0.999898 -0.014278 175.212 987.291)" fill="#E9CDB3"/>
<ellipse rx="9.99827" ry="6.85648" transform="matrix(-0.00334581 -0.999994 0.999898 -0.014278 181.058 890.221)" fill="#E9CDB3"/>
<ellipse rx="9.99827" ry="6.85648" transform="matrix(-0.00334581 -0.999994 0.999898 -0.014278 186.903 793.15)" fill="#E9CDB3"/>
<ellipse rx="9.99827" ry="6.85648" transform="matrix(-0.00334581 -0.999994 0.999898 -0.014278 192.75 696.079)" fill="#E9CDB3"/>
<ellipse rx="9.99827" ry="6.85648" transform="matrix(-0.00334581 -0.999994 0.999898 -0.014278 198.595 599.008)" fill="#E9CDB3"/>
<ellipse rx="9.99827" ry="6.85648" transform="matrix(-0.00334581 -0.999994 0.999898 -0.014278 204.441 501.937)" fill="#E9CDB3"/>
<ellipse rx="9.99827" ry="6.85648" transform="matrix(-0.00334581 -0.999994 0.999898 -0.014278 210.287 404.867)" fill="#E9CDB3"/>
<ellipse rx="9.99827" ry="6.85648" transform="matrix(-0.00334581 -0.999994 0.999898 -0.014278 216.133 307.796)" fill="#E9CDB3"/>
<ellipse rx="9.99827" ry="6.85648" transform="matrix(-0.00334581 -0.999994 0.999898 -0.014278 221.978 210.725)" fill="#E9CDB3"/>
<ellipse rx="9.99827" ry="6.85648" transform="matrix(-0.00334581 -0.999994 0.999898 -0.014278 227.824 113.654)" fill="#E9CDB3"/>
<ellipse rx="9.99827" ry="6.85648" transform="matrix(-0.00334581 -0.999994 0.999898 -0.014278 182.951 1046.17)" fill="#E9CDB3"/>
<ellipse rx="9.99827" ry="6.85648" transform="matrix(-0.00334581 -0.999994 0.999898 -0.014278 188.796 949.102)" fill="#E9CDB3"/>
<ellipse rx="9.99827" ry="6.85648" transform="matrix(-0.00334581 -0.999994 0.999898 -0.014278 194.643 852.032)" fill="#E9CDB3"/>
<ellipse rx="9.99827" ry="6.85648" transform="matrix(-0.00334581 -0.999994 0.999898 -0.014278 200.488 754.961)" fill="#D49A52"/>
<ellipse rx="9.99827" ry="6.85648" transform="matrix(-0.00334581 -0.999994 0.999898 -0.014278 206.334 657.89)" fill="#D49A52"/>
<ellipse rx="9.99827" ry="6.85648" transform="matrix(-0.00334581 -0.999994 0.999898 -0.014278 212.18 560.819)" fill="#D49A52"/>
<ellipse rx="9.99827" ry="6.85648" transform="matrix(-0.00334581 -0.999994 0.999898 -0.014278 218.025 463.748)" fill="#D49A52"/>
<ellipse rx="9.99827" ry="6.85648" transform="matrix(-0.00334581 -0.999994 0.999898 -0.014278 223.871 366.678)" fill="#D49A52"/>
<ellipse rx="9.99827" ry="6.85648" transform="matrix(-0.00334581 -0.999994 0.999898 -0.014278 229.717 269.607)" fill="#D49A52"/>
<ellipse rx="9.99827" ry="6.85648" transform="matrix(-0.00334581 -0.999994 0.999898 -0.014278 235.562 172.536)" fill="#D49A52"/>
<ellipse rx="9.99827" ry="6.85648" transform="matrix(-0.00334581 -0.999994 0.999898 -0.014278 241.408 75.4652)" fill="#D49A52"/>
<ellipse rx="9.99827" ry="6.85648" transform="matrix(-0.00334581 -0.999994 0.999898 -0.014278 159.558 1021.51)" fill="#D49A52"/>
<ellipse rx="9.99827" ry="6.85648" transform="matrix(-0.00334581 -0.999994 0.999898 -0.014278 165.403 924.44)" fill="#D49A52"/>
<ellipse rx="9.99827" ry="6.85648" transform="matrix(-0.00334581 -0.999994 0.999898 -0.014278 171.25 827.369)" fill="#D49A52"/>
<ellipse rx="9.99827" ry="6.85648" transform="matrix(-0.00334581 -0.999994 0.999898 -0.014278 159.355 1050.81)" fill="#D49A52"/>
<ellipse rx="9.99827" ry="6.85648" transform="matrix(-0.00334581 -0.999994 0.999898 -0.014278 177.095 730.298)" fill="#D49A52"/>
<ellipse rx="9.99827" ry="6.85648" transform="matrix(-0.00334581 -0.999994 0.999898 -0.014278 182.941 633.227)" fill="#D49A52"/>
<ellipse rx="9.99827" ry="6.85648" transform="matrix(-0.00334581 -0.999994 0.999898 -0.014278 188.786 536.156)" fill="#D49A52"/>
<ellipse rx="9.99827" ry="6.85648" transform="matrix(-0.00334581 -0.999994 0.999898 -0.014278 194.632 439.086)" fill="#D49A52"/>
<ellipse rx="9.99827" ry="6.85648" transform="matrix(-0.00334581 -0.999994 0.999898 -0.014278 200.478 342.015)" fill="#D49A52"/>
<ellipse rx="9.99827" ry="6.85648" transform="matrix(-0.00334581 -0.999994 0.999898 -0.014278 206.323 244.944)" fill="#D49A52"/>
<ellipse rx="9.99827" ry="6.85648" transform="matrix(-0.00334581 -0.999994 0.999898 -0.014278 212.169 147.873)" fill="#E9CDB3"/>
<ellipse rx="9.99827" ry="6.85648" transform="matrix(-0.00334581 -0.999994 0.999898 -0.014278 218.015 50.8026)" fill="#E9CDB3"/>
<ellipse rx="9.99827" ry="6.85648" transform="matrix(-0.00334581 -0.999994 0.999898 -0.014278 197.371 28.1005)" fill="#E9CDB3"/>
<ellipse rx="9.99827" ry="6.85648" transform="matrix(-0.00334581 -0.999994 0.999898 -0.014278 205.522 1080.99)" fill="#E9CDB3"/>
<ellipse rx="9.99827" ry="6.85648" transform="matrix(-0.00334581 -0.999994 0.999898 -0.014278 227.241 1095.54)" fill="#E9CDB3"/>
<ellipse rx="7.54743" ry="9.48752" transform="matrix(-0.820482 -0.562609 0.310092 -0.954122 188.755 157.518)" fill="#E9CDB3"/>
<ellipse rx="7.54743" ry="9.48752" transform="matrix(-0.820482 -0.562609 0.310092 -0.954122 180.201 313.317)" fill="#E9CDB3"/>
<ellipse rx="7.54743" ry="9.48752" transform="matrix(-0.820482 -0.562609 0.310092 -0.954122 171.647 469.117)" fill="#E9CDB3"/>
<ellipse rx="7.54743" ry="9.48752" transform="matrix(-0.820482 -0.562609 0.310092 -0.954122 163.092 624.916)" fill="#E9CDB3"/>
<ellipse rx="7.54743" ry="9.48752" transform="matrix(-0.820482 -0.562609 0.310092 -0.954122 156.624 778.769)" fill="#E9CDB3"/>
<ellipse rx="7.54743" ry="9.48752" transform="matrix(-0.820482 -0.562609 0.310092 -0.954122 159.323 960.856)" fill="#E9CDB3"/>
<ellipse rx="9.99827" ry="6.85648" transform="matrix(-0.00334581 -0.999994 0.999898 -0.014278 207.391 973.834)" fill="#E9CDB3"/>
<ellipse rx="9.99827" ry="6.85648" transform="matrix(-0.00334581 -0.999994 0.999898 -0.014278 213.237 876.763)" fill="#E9CDB3"/>
<ellipse rx="9.99827" ry="6.85648" transform="matrix(-0.00334581 -0.999994 0.999898 -0.014278 219.083 779.692)" fill="#E9CDB3"/>
<ellipse rx="9.99827" ry="6.85648" transform="matrix(-0.00334581 -0.999994 0.999898 -0.014278 224.928 682.621)" fill="#E9CDB3"/>
<ellipse rx="9.99827" ry="6.85648" transform="matrix(-0.00334581 -0.999994 0.999898 -0.014278 230.774 585.55)" fill="#E9CDB3"/>
<ellipse rx="9.99827" ry="6.85648" transform="matrix(-0.00334581 -0.999994 0.999898 -0.014278 236.62 488.48)" fill="#E9CDB3"/>
<ellipse rx="9.99827" ry="6.85648" transform="matrix(-0.00334581 -0.999994 0.999898 -0.014278 242.465 391.409)" fill="#E9CDB3"/>
<ellipse rx="9.99827" ry="6.85648" transform="matrix(-0.00334581 -0.999994 0.999898 -0.014278 248.311 294.338)" fill="#E9CDB3"/>
<ellipse rx="9.99827" ry="6.85648" transform="matrix(-0.00334581 -0.999994 0.999898 -0.014278 254.157 197.267)" fill="#E9CDB3"/>
<ellipse rx="9.99827" ry="6.85648" transform="matrix(-0.00334581 -0.999994 0.999898 -0.014278 260.003 100.196)" fill="#E9CDB3"/>
<ellipse rx="9.99827" ry="6.85648" transform="matrix(-0.00334581 -0.999994 0.999898 -0.014278 215.129 1032.72)" fill="#E9CDB3"/>
<ellipse rx="9.99827" ry="6.85648" transform="matrix(-0.00334581 -0.999994 0.999898 -0.014278 220.976 935.645)" fill="#FFC850"/>
<ellipse rx="9.99827" ry="6.85648" transform="matrix(-0.00334581 -0.999994 0.999898 -0.014278 226.821 838.574)" fill="#FFC850"/>
<ellipse rx="9.99827" ry="6.85648" transform="matrix(-0.00334581 -0.999994 0.999898 -0.014278 232.667 741.503)" fill="#FFC850"/>
<ellipse rx="9.99827" ry="6.85648" transform="matrix(-0.00334581 -0.999994 0.999898 -0.014278 238.513 644.432)" fill="#FFC850"/>
<ellipse rx="9.99827" ry="6.85648" transform="matrix(-0.00334581 -0.999994 0.999898 -0.014278 244.358 547.361)" fill="#FFC850"/>
<ellipse rx="9.99827" ry="6.85648" transform="matrix(-0.00334581 -0.999994 0.999898 -0.014278 250.204 450.291)" fill="#FFC850"/>
<ellipse rx="9.99827" ry="6.85648" transform="matrix(-0.00334581 -0.999994 0.999898 -0.014278 256.049 353.22)" fill="#FFC850"/>
<ellipse rx="9.99827" ry="6.85648" transform="matrix(-0.00334581 -0.999994 0.999898 -0.014278 261.896 256.149)" fill="#FFC850"/>
<ellipse rx="9.99827" ry="6.85648" transform="matrix(-0.00334581 -0.999994 0.999898 -0.014278 267.741 159.078)" fill="#FFC850"/>
<ellipse rx="9.99827" ry="6.85648" transform="matrix(-0.00334581 -0.999994 0.999898 -0.014278 273.586 62.0075)" fill="#FFC850"/>
<ellipse rx="9.99827" ry="6.85648" transform="matrix(-0.00334581 -0.999994 0.999898 -0.014278 191.736 1008.05)" fill="#FFC850"/>
<ellipse rx="9.99827" ry="6.85648" transform="matrix(-0.00334581 -0.999994 0.999898 -0.014278 197.582 910.982)" fill="#FFC850"/>
<ellipse rx="9.99827" ry="6.85648" transform="matrix(-0.00334581 -0.999994 0.999898 -0.014278 203.428 813.911)" fill="#FFC850"/>
<ellipse rx="9.99827" ry="6.85648" transform="matrix(-0.00334581 -0.999994 0.999898 -0.014278 209.274 716.84)" fill="#FFC850"/>
<ellipse rx="9.99827" ry="6.85648" transform="matrix(-0.00334581 -0.999994 0.999898 -0.014278 215.119 619.77)" fill="#FFC850"/>
<ellipse rx="9.99827" ry="6.85648" transform="matrix(-0.00334581 -0.999994 0.999898 -0.014278 220.965 522.699)" fill="#FFC850"/>
<ellipse rx="9.99827" ry="6.85648" transform="matrix(-0.00334581 -0.999994 0.999898 -0.014278 226.811 425.628)" fill="#FFC850"/>
<ellipse rx="9.99827" ry="6.85648" transform="matrix(-0.00334581 -0.999994 0.999898 -0.014278 232.657 328.557)" fill="#FFC850"/>
<ellipse rx="9.99827" ry="6.85648" transform="matrix(-0.00334581 -0.999994 0.999898 -0.014278 238.503 231.486)" fill="#E9CDB3"/>
<ellipse rx="9.99827" ry="6.85648" transform="matrix(-0.00334581 -0.999994 0.999898 -0.014278 244.348 134.415)" fill="#E9CDB3"/>
<ellipse rx="9.99827" ry="6.85648" transform="matrix(-0.00334581 -0.999994 0.999898 -0.014278 250.193 37.3449)" fill="#E9CDB3"/>
<ellipse rx="9.99827" ry="6.85648" transform="matrix(-0.00334581 -0.999994 0.999898 -0.014278 229.549 14.6426)" fill="#E9CDB3"/>
<ellipse rx="9.99827" ry="6.85648" transform="matrix(-0.00334581 -0.999994 0.999898 -0.014278 237.701 1067.53)" fill="#E9CDB3"/>
<ellipse rx="9.99827" ry="6.85648" transform="matrix(-0.00334581 -0.999994 0.999898 -0.014278 259.419 1082.08)" fill="#E9CDB3"/>
<ellipse rx="7.54743" ry="9.48752" transform="matrix(-0.820482 -0.562609 0.310092 -0.954122 194.532 109.452)" fill="#E9CDB3"/>
<ellipse rx="7.54743" ry="9.48752" transform="matrix(-0.820482 -0.562609 0.310092 -0.954122 185.978 265.252)" fill="#E9CDB3"/>
<ellipse rx="7.54743" ry="9.48752" transform="matrix(-0.820482 -0.562609 0.310092 -0.954122 177.423 421.051)" fill="#E9CDB3"/>
<ellipse rx="7.54743" ry="9.48752" transform="matrix(-0.820482 -0.562609 0.310092 -0.954122 168.869 576.851)" fill="#E9CDB3"/>
<ellipse rx="7.54743" ry="9.48752" transform="matrix(-0.820482 -0.562609 0.310092 -0.954122 156.279 711.753)" fill="#E9CDB3"/>
<ellipse rx="7.54743" ry="9.48752" transform="matrix(-0.820482 -0.562609 0.310092 -0.954122 158.246 896.821)" fill="#E9CDB3"/>
<ellipse rx="9.99827" ry="6.85648" transform="matrix(-0.00334581 -0.999994 0.999898 -0.014278 239.569 960.376)" fill="#E9CDB3"/>
<ellipse rx="9.99827" ry="6.85648" transform="matrix(-0.00334581 -0.999994 0.999898 -0.014278 245.415 863.305)" fill="#E9CDB3"/>
<ellipse rx="9.99827" ry="6.85648" transform="matrix(-0.00334581 -0.999994 0.999898 -0.014278 251.261 766.234)" fill="#E9CDB3"/>
<ellipse rx="9.99827" ry="6.85648" transform="matrix(-0.00334581 -0.999994 0.999898 -0.014278 257.107 669.164)" fill="#E9CDB3"/>
<ellipse rx="9.99827" ry="6.85648" transform="matrix(-0.00334581 -0.999994 0.999898 -0.014278 262.953 572.093)" fill="#E9CDB3"/>
<ellipse rx="9.99827" ry="6.85648" transform="matrix(-0.00334581 -0.999994 0.999898 -0.014278 268.798 475.022)" fill="#E9CDB3"/>
<ellipse rx="9.99827" ry="6.85648" transform="matrix(-0.00334581 -0.999994 0.999898 -0.014278 274.644 377.951)" fill="#E9CDB3"/>
<ellipse rx="9.99827" ry="6.85648" transform="matrix(-0.00334581 -0.999994 0.999898 -0.014278 280.489 280.88)" fill="#E9CDB3"/>
<ellipse rx="9.99827" ry="6.85648" transform="matrix(-0.00334581 -0.999994 0.999898 -0.014278 286.335 183.809)" fill="#E9CDB3"/>
<ellipse rx="9.99827" ry="6.85648" transform="matrix(-0.00334581 -0.999994 0.999898 -0.014278 292.182 86.7386)" fill="#E9CDB3"/>
<ellipse rx="9.99827" ry="6.85648" transform="matrix(-0.00334581 -0.999994 0.999898 -0.014278 247.309 1019.26)" fill="#D49A52"/>
<ellipse rx="9.99827" ry="6.85648" transform="matrix(-0.00334581 -0.999994 0.999898 -0.014278 253.154 922.187)" fill="#D49A52"/>
<ellipse rx="9.99827" ry="6.85648" transform="matrix(-0.00334581 -0.999994 0.999898 -0.014278 259 825.116)" fill="#D49A52"/>
<ellipse rx="9.99827" ry="6.85648" transform="matrix(-0.00334581 -0.999994 0.999898 -0.014278 264.845 728.045)" fill="#D49A52"/>
<ellipse rx="9.99827" ry="6.85648" transform="matrix(-0.00334581 -0.999994 0.999898 -0.014278 270.691 630.975)" fill="#D49A52"/>
<ellipse rx="9.99827" ry="6.85648" transform="matrix(-0.00334581 -0.999994 0.999898 -0.014278 276.537 533.904)" fill="#D49A52"/>
<ellipse rx="9.99827" ry="6.85648" transform="matrix(-0.00334581 -0.999994 0.999898 -0.014278 282.383 436.833)" fill="#D49A52"/>
<ellipse rx="9.99827" ry="6.85648" transform="matrix(-0.00334581 -0.999994 0.999898 -0.014278 288.229 339.762)" fill="#D49A52"/>
<ellipse rx="9.99827" ry="6.85648" transform="matrix(-0.00334581 -0.999994 0.999898 -0.014278 294.074 242.691)" fill="#D49A52"/>
<ellipse rx="9.99827" ry="6.85648" transform="matrix(-0.00334581 -0.999994 0.999898 -0.014278 299.92 145.62)" fill="#D49A52"/>
<ellipse rx="9.99827" ry="6.85648" transform="matrix(-0.00334581 -0.999994 0.999898 -0.014278 305.766 48.5496)" fill="#D49A52"/>
<ellipse rx="9.99827" ry="6.85648" transform="matrix(-0.00334581 -0.999994 0.999898 -0.014278 223.915 994.595)" fill="#D49A52"/>
<ellipse rx="9.99827" ry="6.85648" transform="matrix(-0.00334581 -0.999994 0.999898 -0.014278 229.761 897.524)" fill="#D49A52"/>
<ellipse rx="9.99827" ry="6.85648" transform="matrix(-0.00334581 -0.999994 0.999898 -0.014278 235.607 800.453)" fill="#D49A52"/>
<ellipse rx="9.99827" ry="6.85648" transform="matrix(-0.00334581 -0.999994 0.999898 -0.014278 241.452 703.383)" fill="#D49A52"/>
<ellipse rx="9.99827" ry="6.85648" transform="matrix(-0.00334581 -0.999994 0.999898 -0.014278 247.298 606.312)" fill="#D49A52"/>
<ellipse rx="9.99827" ry="6.85648" transform="matrix(-0.00334581 -0.999994 0.999898 -0.014278 253.144 509.241)" fill="#D49A52"/>
<ellipse rx="9.99827" ry="6.85648" transform="matrix(-0.00334581 -0.999994 0.999898 -0.014278 258.989 412.17)" fill="#D49A52"/>
<ellipse rx="9.99827" ry="6.85648" transform="matrix(-0.00334581 -0.999994 0.999898 -0.014278 264.835 315.099)" fill="#D79000"/>
<ellipse rx="9.99827" ry="6.85648" transform="matrix(-0.00334581 -0.999994 0.999898 -0.014278 270.681 218.029)" fill="#D79000"/>
<ellipse rx="9.99827" ry="6.85648" transform="matrix(-0.00334581 -0.999994 0.999898 -0.014278 276.526 120.958)" fill="#D79000"/>
<ellipse rx="9.99827" ry="6.85648" transform="matrix(-0.00334581 -0.999994 0.999898 -0.014278 282.372 23.8871)" fill="#D79000"/>
<ellipse rx="9.99827" ry="6.85648" transform="matrix(-0.00334581 -0.999994 0.999898 -0.014278 269.879 1054.07)" fill="#D79000"/>
<ellipse rx="9.99827" ry="6.85648" transform="matrix(-0.00334581 -0.999994 0.999898 -0.014278 291.598 1068.63)" fill="#D79000"/>
<ellipse rx="7.54743" ry="9.48752" transform="matrix(-0.820482 -0.562609 0.310092 -0.954122 200.309 61.3861)" fill="#D79000"/>
<ellipse rx="7.54743" ry="9.48752" transform="matrix(-0.820482 -0.562609 0.310092 -0.954122 191.755 217.186)" fill="#D79000"/>
<ellipse rx="7.54743" ry="9.48752" transform="matrix(-0.820482 -0.562609 0.310092 -0.954122 183.201 372.985)" fill="#D79000"/>
<ellipse rx="7.54743" ry="9.48752" transform="matrix(-0.820482 -0.562609 0.310092 -0.954122 174.646 528.785)" fill="#D79000"/>
<ellipse rx="7.54743" ry="9.48752" transform="matrix(-0.820482 -0.562609 0.310092 -0.954122 177.437 673.285)" fill="#D79000"/>
<ellipse rx="7.54743" ry="9.48752" transform="matrix(-0.820482 -0.562609 0.310092 -0.954122 162.958 857.659)" fill="#D79000"/>
<ellipse rx="9.99827" ry="6.85648" transform="matrix(-0.00334581 -0.999994 0.999898 -0.014278 271.748 946.918)" fill="#D79000"/>
<ellipse rx="9.99827" ry="6.85648" transform="matrix(-0.00334581 -0.999994 0.999898 -0.014278 277.594 849.847)" fill="#D79000"/>
<ellipse rx="9.99827" ry="6.85648" transform="matrix(-0.00334581 -0.999994 0.999898 -0.014278 283.44 752.777)" fill="#D79000"/>
<ellipse rx="9.99827" ry="6.85648" transform="matrix(-0.00334581 -0.999994 0.999898 -0.014278 289.285 655.706)" fill="#D79000"/>
<ellipse rx="9.99827" ry="6.85648" transform="matrix(-0.00334581 -0.999994 0.999898 -0.014278 295.131 558.635)" fill="#D79000"/>
<ellipse rx="9.99827" ry="6.85648" transform="matrix(-0.00334581 -0.999994 0.999898 -0.014278 300.977 461.564)" fill="#D79000"/>
<ellipse rx="9.99827" ry="6.85648" transform="matrix(-0.00334581 -0.999994 0.999898 -0.014278 306.823 364.493)" fill="#D79000"/>
<ellipse rx="9.99827" ry="6.85648" transform="matrix(-0.00334581 -0.999994 0.999898 -0.014278 312.669 267.422)" fill="#D79000"/>
<ellipse rx="9.99827" ry="6.85648" transform="matrix(-0.00334581 -0.999994 0.999898 -0.014278 318.515 170.352)" fill="#D79000"/>
<ellipse rx="9.99827" ry="6.85648" transform="matrix(-0.00334581 -0.999994 0.999898 -0.014278 324.36 73.2808)" fill="#D79000"/>
<ellipse rx="9.99827" ry="6.85648" transform="matrix(-0.00334581 -0.999994 0.999898 -0.014278 279.487 1005.8)" fill="#D79000"/>
<ellipse rx="9.99827" ry="6.85648" transform="matrix(-0.00334581 -0.999994 0.999898 -0.014278 285.333 908.729)" fill="#D79000"/>
<ellipse rx="9.99827" ry="6.85648" transform="matrix(-0.00334581 -0.999994 0.999898 -0.014278 291.178 811.658)" fill="#D79000"/>
<ellipse rx="9.99827" ry="6.85648" transform="matrix(-0.00334581 -0.999994 0.999898 -0.014278 297.024 714.587)" fill="#E9CDB3"/>
<ellipse rx="9.99827" ry="6.85648" transform="matrix(-0.00334581 -0.999994 0.999898 -0.014278 302.87 617.517)" fill="#E9CDB3"/>
<ellipse rx="9.99827" ry="6.85648" transform="matrix(-0.00334581 -0.999994 0.999898 -0.014278 308.715 520.446)" fill="#E9CDB3"/>
<ellipse rx="9.99827" ry="6.85648" transform="matrix(-0.00334581 -0.999994 0.999898 -0.014278 314.562 423.375)" fill="#E9CDB3"/>
<ellipse rx="9.99827" ry="6.85648" transform="matrix(-0.00334581 -0.999994 0.999898 -0.014278 320.407 326.304)" fill="#E9CDB3"/>
<ellipse rx="9.99827" ry="6.85648" transform="matrix(-0.00334581 -0.999994 0.999898 -0.014278 326.253 229.233)" fill="#E9CDB3"/>
<ellipse rx="9.99827" ry="6.85648" transform="matrix(-0.00334581 -0.999994 0.999898 -0.014278 332.099 132.162)" fill="#E9CDB3"/>
<ellipse rx="9.99827" ry="6.85648" transform="matrix(-0.00334581 -0.999994 0.999898 -0.014278 337.944 35.0918)" fill="#E9CDB3"/>
<ellipse rx="9.99827" ry="6.85648" transform="matrix(-0.00334581 -0.999994 0.999898 -0.014278 256.093 981.137)" fill="#E9CDB3"/>
<ellipse rx="9.99827" ry="6.85648" transform="matrix(-0.00334581 -0.999994 0.999898 -0.014278 261.94 884.066)" fill="#E9CDB3"/>
<ellipse rx="9.99827" ry="6.85648" transform="matrix(-0.00334581 -0.999994 0.999898 -0.014278 267.785 786.996)" fill="#E9CDB3"/>
<ellipse rx="9.99827" ry="6.85648" transform="matrix(-0.00334581 -0.999994 0.999898 -0.014278 273.631 689.925)" fill="#E9CDB3"/>
<ellipse rx="9.99827" ry="6.85648" transform="matrix(-0.00334581 -0.999994 0.999898 -0.014278 279.477 592.854)" fill="#E9CDB3"/>
<ellipse rx="9.99827" ry="6.85648" transform="matrix(-0.00334581 -0.999994 0.999898 -0.014278 285.323 495.783)" fill="#E9CDB3"/>
<ellipse rx="9.99827" ry="6.85648" transform="matrix(-0.00334581 -0.999994 0.999898 -0.014278 291.168 398.712)" fill="#E9CDB3"/>
<ellipse rx="9.99827" ry="6.85648" transform="matrix(-0.00334581 -0.999994 0.999898 -0.014278 297.014 301.641)" fill="#E9CDB3"/>
<ellipse rx="9.99827" ry="6.85648" transform="matrix(-0.00334581 -0.999994 0.999898 -0.014278 302.859 204.571)" fill="#E9CDB3"/>
<ellipse rx="9.99827" ry="6.85648" transform="matrix(-0.00334581 -0.999994 0.999898 -0.014278 308.705 107.5)" fill="#E9CDB3"/>
<ellipse rx="9.99827" ry="6.85648" transform="matrix(-0.00334581 -0.999994 0.999898 -0.014278 314.551 10.429)" fill="#E9CDB3"/>
<ellipse rx="9.99827" ry="6.85648" transform="matrix(-0.00334581 -0.999994 0.999898 -0.014278 31.7764 1084.36)" fill="#E9CDB3"/>
<ellipse rx="9.99827" ry="6.85648" transform="matrix(-0.00334581 -0.999994 0.999898 -0.014278 37.6221 987.292)" fill="#E9CDB3"/>
<ellipse rx="9.99827" ry="6.85648" transform="matrix(-0.00334581 -0.999994 0.999898 -0.014278 43.4678 890.221)" fill="#E9CDB3"/>
<ellipse rx="9.99827" ry="6.85648" transform="matrix(-0.00334581 -0.999994 0.999898 -0.014278 49.3131 793.15)" fill="#E9CDB3"/>
<ellipse rx="9.99827" ry="6.85648" transform="matrix(-0.00334581 -0.999994 0.999898 -0.014278 55.1592 696.079)" fill="#E9CDB3"/>
<ellipse rx="9.99827" ry="6.85648" transform="matrix(-0.00334581 -0.999994 0.999898 -0.014278 61.0049 599.008)" fill="#E9CDB3"/>
<ellipse rx="9.99827" ry="6.85648" transform="matrix(-0.00334581 -0.999994 0.999898 -0.014278 66.8507 501.938)" fill="#E9CDB3"/>
<ellipse rx="9.99827" ry="6.85648" transform="matrix(-0.00334581 -0.999994 0.999898 -0.014278 72.6964 404.867)" fill="#E9CDB3"/>
<ellipse rx="9.99827" ry="6.85648" transform="matrix(-0.00334581 -0.999994 0.999898 -0.014278 78.5425 307.796)" fill="#E9CDB3"/>
<ellipse rx="9.99827" ry="6.85648" transform="matrix(-0.00334581 -0.999994 0.999898 -0.014278 84.3878 210.725)" fill="#E9CDB3"/>
<ellipse rx="9.99827" ry="6.85648" transform="matrix(-0.00334581 -0.999994 0.999898 -0.014278 90.2335 113.654)" fill="#E9CDB3"/>
<ellipse rx="9.99827" ry="6.85648" transform="matrix(-0.00334581 -0.999994 0.999898 -0.014278 45.3609 1046.17)" fill="#E9CDB3"/>
<ellipse rx="9.99827" ry="6.85648" transform="matrix(-0.00334581 -0.999994 0.999898 -0.014278 51.2061 949.103)" fill="#E9CDB3"/>
<ellipse rx="9.99827" ry="6.85648" transform="matrix(-0.00334581 -0.999994 0.999898 -0.014278 57.0523 852.032)" fill="#E9CDB3"/>
<ellipse rx="9.99827" ry="6.85648" transform="matrix(-0.00334581 -0.999994 0.999898 -0.014278 62.898 754.961)" fill="#D49A52"/>
<ellipse rx="9.99827" ry="6.85648" transform="matrix(-0.00334581 -0.999994 0.999898 -0.014278 68.7437 657.89)" fill="#D49A52"/>
<ellipse rx="9.99827" ry="6.85648" transform="matrix(-0.00334581 -0.999994 0.999898 -0.014278 74.5894 560.819)" fill="#D49A52"/>
<ellipse rx="9.99827" ry="6.85648" transform="matrix(-0.00334581 -0.999994 0.999898 -0.014278 80.4346 463.748)" fill="#D49A52"/>
<ellipse rx="9.99827" ry="6.85648" transform="matrix(-0.00334581 -0.999994 0.999898 -0.014278 86.2808 366.678)" fill="#D49A52"/>
<ellipse rx="9.99827" ry="6.85648" transform="matrix(-0.00334581 -0.999994 0.999898 -0.014278 92.1265 269.607)" fill="#D49A52"/>
<ellipse rx="9.99827" ry="6.85648" transform="matrix(-0.00334581 -0.999994 0.999898 -0.014278 97.9717 172.536)" fill="#D49A52"/>
<ellipse rx="9.99827" ry="6.85648" transform="matrix(-0.00334581 -0.999994 0.999898 -0.014278 103.818 75.4654)" fill="#D49A52"/>
<ellipse rx="9.99827" ry="6.85648" transform="matrix(-0.00334581 -0.999994 0.999898 -0.014278 21.9674 1021.51)" fill="#D49A52"/>
<ellipse rx="9.99827" ry="6.85648" transform="matrix(-0.00334581 -0.999994 0.999898 -0.014278 27.8131 924.44)" fill="#D49A52"/>
<ellipse rx="9.99827" ry="6.85648" transform="matrix(-0.00334581 -0.999994 0.999898 -0.014278 33.6592 827.369)" fill="#D49A52"/>
<ellipse rx="9.99827" ry="6.85648" transform="matrix(-0.00334581 -0.999994 0.999898 -0.014278 21.7642 1050.81)" fill="#D49A52"/>
<ellipse rx="9.99827" ry="6.85648" transform="matrix(-0.00334581 -0.999994 0.999898 -0.014278 39.5045 730.298)" fill="#D49A52"/>
<ellipse rx="9.99827" ry="6.85648" transform="matrix(-0.00334581 -0.999994 0.999898 -0.014278 45.3507 633.227)" fill="#D49A52"/>
<ellipse rx="9.99827" ry="6.85648" transform="matrix(-0.00334581 -0.999994 0.999898 -0.014278 51.1959 536.157)" fill="#D49A52"/>
<ellipse rx="9.99827" ry="6.85648" transform="matrix(-0.00334581 -0.999994 0.999898 -0.014278 57.0421 439.086)" fill="#D49A52"/>
<ellipse rx="9.99827" ry="6.85648" transform="matrix(-0.00334581 -0.999994 0.999898 -0.014278 62.8878 342.015)" fill="#D49A52"/>
<ellipse rx="9.99827" ry="6.85648" transform="matrix(-0.00334581 -0.999994 0.999898 -0.014278 68.733 244.944)" fill="#D49A52"/>
<ellipse rx="9.99827" ry="6.85648" transform="matrix(-0.00334581 -0.999994 0.999898 -0.014278 74.5792 147.873)" fill="#E9CDB3"/>
<ellipse rx="9.99827" ry="6.85648" transform="matrix(-0.00334581 -0.999994 0.999898 -0.014278 80.4249 50.8028)" fill="#E9CDB3"/>
<ellipse rx="9.99827" ry="6.85648" transform="matrix(-0.00334581 -0.999994 0.999898 -0.014278 20.5049 169.096)" fill="#E9CDB3"/>
<ellipse rx="9.99827" ry="6.85648" transform="matrix(-0.00334581 -0.999994 0.999898 -0.014278 59.7808 28.1008)" fill="#E9CDB3"/>
<ellipse rx="9.99827" ry="6.85648" transform="matrix(-0.00334581 -0.999994 0.999898 -0.014278 16.9215 348.096)" fill="#E9CDB3"/>
<ellipse rx="9.99827" ry="6.85648" transform="matrix(-0.00334581 -0.999994 0.999898 -0.014278 31.254 292.096)" fill="#E9CDB3"/>
<ellipse rx="9.99827" ry="6.85648" transform="matrix(-0.00334581 -0.999994 0.999898 -0.014278 67.9317 1080.99)" fill="#E9CDB3"/>
<ellipse rx="9.99827" ry="6.85648" transform="matrix(-0.00334581 -0.999994 0.999898 -0.014278 89.6505 1095.54)" fill="#E9CDB3"/>
<ellipse rx="7.54743" ry="9.48752" transform="matrix(-0.820482 -0.562609 0.310092 -0.954122 51.165 157.518)" fill="#E9CDB3"/>
<ellipse rx="7.54743" ry="9.48752" transform="matrix(-0.820482 -0.562609 0.310092 -0.954122 42.6108 313.318)" fill="#E9CDB3"/>
<ellipse rx="7.54743" ry="9.48752" transform="matrix(-0.820482 -0.562609 0.310092 -0.954122 34.0566 469.117)" fill="#E9CDB3"/>
<ellipse rx="7.54743" ry="9.48752" transform="matrix(-0.820482 -0.562609 0.310092 -0.954122 25.5024 624.917)" fill="#E9CDB3"/>
<ellipse rx="7.54743" ry="9.48752" transform="matrix(-0.820482 -0.562609 0.310092 -0.954122 19.0336 778.769)" fill="#E9CDB3"/>
<ellipse rx="7.54743" ry="9.48752" transform="matrix(-0.820482 -0.562609 0.310092 -0.954122 21.7329 960.856)" fill="#E9CDB3"/>
<ellipse rx="9.99827" ry="6.85648" transform="matrix(-0.00334581 -0.999994 0.999898 -0.014278 69.8013 973.834)" fill="#E9CDB3"/>
<ellipse rx="9.99827" ry="6.85648" transform="matrix(-0.00334581 -0.999994 0.999898 -0.014278 75.6466 876.763)" fill="#E9CDB3"/>
<ellipse rx="9.99827" ry="6.85648" transform="matrix(-0.00334581 -0.999994 0.999898 -0.014278 81.4923 779.692)" fill="#E9CDB3"/>
<ellipse rx="9.99827" ry="6.85648" transform="matrix(-0.00334581 -0.999994 0.999898 -0.014278 87.338 682.621)" fill="#E9CDB3"/>
<ellipse rx="9.99827" ry="6.85648" transform="matrix(-0.00334581 -0.999994 0.999898 -0.014278 93.1837 585.551)" fill="#E9CDB3"/>
<ellipse rx="9.99827" ry="6.85648" transform="matrix(-0.00334581 -0.999994 0.999898 -0.014278 99.0294 488.48)" fill="#E9CDB3"/>
<ellipse rx="9.99827" ry="6.85648" transform="matrix(-0.00334581 -0.999994 0.999898 -0.014278 104.875 391.409)" fill="#E9CDB3"/>
<ellipse rx="9.99827" ry="6.85648" transform="matrix(-0.00334581 -0.999994 0.999898 -0.014278 110.721 294.338)" fill="#E9CDB3"/>
<ellipse rx="9.99827" ry="6.85648" transform="matrix(-0.00334581 -0.999994 0.999898 -0.014278 116.567 197.267)" fill="#E9CDB3"/>
<ellipse rx="9.99827" ry="6.85648" transform="matrix(-0.00334581 -0.999994 0.999898 -0.014278 122.412 100.197)" fill="#E9CDB3"/>
<ellipse rx="9.99827" ry="6.85648" transform="matrix(-0.00334581 -0.999994 0.999898 -0.014278 26.524 100.65)" fill="#E9CDB3"/>
<ellipse rx="9.99827" ry="6.85648" transform="matrix(-0.00334581 -0.999994 0.999898 -0.014278 77.5396 1032.72)" fill="#E9CDB3"/>
<ellipse rx="9.99827" ry="6.85648" transform="matrix(-0.00334581 -0.999994 0.999898 -0.014278 83.3853 935.645)" fill="#FFC850"/>
<ellipse rx="9.99827" ry="6.85648" transform="matrix(-0.00334581 -0.999994 0.999898 -0.014278 89.2305 838.574)" fill="#FFC850"/>
<ellipse rx="9.99827" ry="6.85648" transform="matrix(-0.00334581 -0.999994 0.999898 -0.014278 95.0767 741.503)" fill="#FFC850"/>
<ellipse rx="9.99827" ry="6.85648" transform="matrix(-0.00334581 -0.999994 0.999898 -0.014278 100.922 644.432)" fill="#FFC850"/>
<ellipse rx="9.99827" ry="6.85648" transform="matrix(-0.00334581 -0.999994 0.999898 -0.014278 106.768 547.362)" fill="#FFC850"/>
<ellipse rx="9.99827" ry="6.85648" transform="matrix(-0.00334581 -0.999994 0.999898 -0.014278 112.614 450.291)" fill="#FFC850"/>
<ellipse rx="9.99827" ry="6.85648" transform="matrix(-0.00334581 -0.999994 0.999898 -0.014278 118.46 353.22)" fill="#FFC850"/>
<ellipse rx="9.99827" ry="6.85648" transform="matrix(-0.00334581 -0.999994 0.999898 -0.014278 124.305 256.149)" fill="#FFC850"/>
<ellipse rx="9.99827" ry="6.85648" transform="matrix(-0.00334581 -0.999994 0.999898 -0.014278 130.151 159.078)" fill="#FFC850"/>
<ellipse rx="9.99827" ry="6.85648" transform="matrix(-0.00334581 -0.999994 0.999898 -0.014278 135.996 62.0077)" fill="#FFC850"/>
<ellipse rx="9.99827" ry="6.85648" transform="matrix(-0.00334581 -0.999994 0.999898 -0.014278 40.109 62.4606)" fill="#FFC850"/>
<ellipse rx="9.99827" ry="6.85648" transform="matrix(-0.00334581 -0.999994 0.999898 -0.014278 54.1461 1008.05)" fill="#FFC850"/>
<ellipse rx="9.99827" ry="6.85648" transform="matrix(-0.00334581 -0.999994 0.999898 -0.014278 59.9918 910.982)" fill="#FFC850"/>
<ellipse rx="9.99827" ry="6.85648" transform="matrix(-0.00334581 -0.999994 0.999898 -0.014278 65.8375 813.911)" fill="#FFC850"/>
<ellipse rx="9.99827" ry="6.85648" transform="matrix(-0.00334581 -0.999994 0.999898 -0.014278 71.6837 716.841)" fill="#FFC850"/>
<ellipse rx="9.99827" ry="6.85648" transform="matrix(-0.00334581 -0.999994 0.999898 -0.014278 77.5289 619.77)" fill="#FFC850"/>
<ellipse rx="9.99827" ry="6.85648" transform="matrix(-0.00334581 -0.999994 0.999898 -0.014278 83.3751 522.699)" fill="#FFC850"/>
<ellipse rx="9.99827" ry="6.85648" transform="matrix(-0.00334581 -0.999994 0.999898 -0.014278 89.2203 425.628)" fill="#FFC850"/>
<ellipse rx="9.99827" ry="6.85648" transform="matrix(-0.00334581 -0.999994 0.999898 -0.014278 95.0665 328.557)" fill="#FFC850"/>
<ellipse rx="9.99827" ry="6.85648" transform="matrix(-0.00334581 -0.999994 0.999898 -0.014278 100.912 231.486)" fill="#E9CDB3"/>
<ellipse rx="9.99827" ry="6.85648" transform="matrix(-0.00334581 -0.999994 0.999898 -0.014278 106.757 134.416)" fill="#E9CDB3"/>
<ellipse rx="9.99827" ry="6.85648" transform="matrix(-0.00334581 -0.999994 0.999898 -0.014278 112.604 37.3451)" fill="#E9CDB3"/>
<ellipse rx="9.99827" ry="6.85648" transform="matrix(-0.00334581 -0.999994 0.999898 -0.014278 16.7159 37.798)" fill="#E9CDB3"/>
<ellipse rx="9.99827" ry="6.85648" transform="matrix(-0.00334581 -0.999994 0.999898 -0.014278 91.9586 14.6427)" fill="#E9CDB3"/>
<ellipse rx="9.99827" ry="6.85648" transform="matrix(-0.00334581 -0.999994 0.999898 -0.014278 24.8048 133.096)" fill="#E9CDB3"/>
<ellipse rx="9.99827" ry="6.85648" transform="matrix(-0.00334581 -0.999994 0.999898 -0.014278 100.111 1067.53)" fill="#E9CDB3"/>
<ellipse rx="9.99827" ry="6.85648" transform="matrix(-0.00334581 -0.999994 0.999898 -0.014278 121.829 1082.08)" fill="#E9CDB3"/>
<ellipse rx="7.54743" ry="9.48752" transform="matrix(-0.820482 -0.562609 0.310092 -0.954122 56.9423 109.452)" fill="#E9CDB3"/>
<ellipse rx="7.54743" ry="9.48752" transform="matrix(-0.820482 -0.562609 0.310092 -0.954122 48.3877 265.252)" fill="#E9CDB3"/>
<ellipse rx="7.54743" ry="9.48752" transform="matrix(-0.820482 -0.562609 0.310092 -0.954122 39.833 421.052)" fill="#E9CDB3"/>
<ellipse rx="7.54743" ry="9.48752" transform="matrix(-0.820482 -0.562609 0.310092 -0.954122 31.2788 576.851)" fill="#E9CDB3"/>
<ellipse rx="7.54743" ry="9.48752" transform="matrix(-0.820482 -0.562609 0.310092 -0.954122 18.6884 711.753)" fill="#E9CDB3"/>
<ellipse rx="7.54743" ry="9.48752" transform="matrix(-0.820482 -0.562609 0.310092 -0.954122 20.6552 896.822)" fill="#E9CDB3"/>
<ellipse rx="9.99827" ry="6.85648" transform="matrix(-0.00334581 -0.999994 0.999898 -0.014278 101.979 960.376)" fill="#E9CDB3"/>
<ellipse rx="9.99827" ry="6.85648" transform="matrix(-0.00334581 -0.999994 0.999898 -0.014278 107.825 863.305)" fill="#E9CDB3"/>
<ellipse rx="9.99827" ry="6.85648" transform="matrix(-0.00334581 -0.999994 0.999898 -0.014278 113.67 766.234)" fill="#E9CDB3"/>
<ellipse rx="9.99827" ry="6.85648" transform="matrix(-0.00334581 -0.999994 0.999898 -0.014278 119.516 669.164)" fill="#E9CDB3"/>
<ellipse rx="9.99827" ry="6.85648" transform="matrix(-0.00334581 -0.999994 0.999898 -0.014278 125.362 572.093)" fill="#E9CDB3"/>
<ellipse rx="9.99827" ry="6.85648" transform="matrix(-0.00334581 -0.999994 0.999898 -0.014278 131.208 475.022)" fill="#E9CDB3"/>
<ellipse rx="9.99827" ry="6.85648" transform="matrix(-0.00334581 -0.999994 0.999898 -0.014278 137.054 377.951)" fill="#E9CDB3"/>
<ellipse rx="9.99827" ry="6.85648" transform="matrix(-0.00334581 -0.999994 0.999898 -0.014278 142.899 280.88)" fill="#E9CDB3"/>
<ellipse rx="9.99827" ry="6.85648" transform="matrix(-0.00334581 -0.999994 0.999898 -0.014278 148.745 183.809)" fill="#E9CDB3"/>
<ellipse rx="9.99827" ry="6.85648" transform="matrix(-0.00334581 -0.999994 0.999898 -0.014278 154.591 86.7388)" fill="#E9CDB3"/>
<ellipse rx="9.99827" ry="6.85648" transform="matrix(-0.00334581 -0.999994 0.999898 -0.014278 109.718 1019.26)" fill="#D49A52"/>
<ellipse rx="9.99827" ry="6.85648" transform="matrix(-0.00334581 -0.999994 0.999898 -0.014278 115.564 922.187)" fill="#D49A52"/>
<ellipse rx="9.99827" ry="6.85648" transform="matrix(-0.00334581 -0.999994 0.999898 -0.014278 121.41 825.116)" fill="#D49A52"/>
<ellipse rx="9.99827" ry="6.85648" transform="matrix(-0.00334581 -0.999994 0.999898 -0.014278 127.255 728.045)" fill="#D49A52"/>
<ellipse rx="9.99827" ry="6.85648" transform="matrix(-0.00334581 -0.999994 0.999898 -0.014278 133.101 630.975)" fill="#D49A52"/>
<ellipse rx="9.99827" ry="6.85648" transform="matrix(-0.00334581 -0.999994 0.999898 -0.014278 138.947 533.904)" fill="#D49A52"/>
<ellipse rx="9.99827" ry="6.85648" transform="matrix(-0.00334581 -0.999994 0.999898 -0.014278 144.793 436.833)" fill="#D49A52"/>
<ellipse rx="9.99827" ry="6.85648" transform="matrix(-0.00334581 -0.999994 0.999898 -0.014278 150.638 339.762)" fill="#D49A52"/>
<ellipse rx="9.99827" ry="6.85648" transform="matrix(-0.00334581 -0.999994 0.999898 -0.014278 156.484 242.691)" fill="#D49A52"/>
<ellipse rx="9.99827" ry="6.85648" transform="matrix(-0.00334581 -0.999994 0.999898 -0.014278 162.33 145.62)" fill="#D49A52"/>
<ellipse rx="9.99827" ry="6.85648" transform="matrix(-0.00334581 -0.999994 0.999898 -0.014278 168.175 48.5499)" fill="#D49A52"/>
<ellipse rx="9.99827" ry="6.85648" transform="matrix(-0.00334581 -0.999994 0.999898 -0.014278 86.3248 994.595)" fill="#D49A52"/>
<ellipse rx="9.99827" ry="6.85648" transform="matrix(-0.00334581 -0.999994 0.999898 -0.014278 92.1705 897.524)" fill="#D49A52"/>
<ellipse rx="9.99827" ry="6.85648" transform="matrix(-0.00334581 -0.999994 0.999898 -0.014278 98.0162 800.454)" fill="#D49A52"/>
<ellipse rx="9.99827" ry="6.85648" transform="matrix(-0.00334581 -0.999994 0.999898 -0.014278 103.862 703.383)" fill="#D49A52"/>
<ellipse rx="9.99827" ry="6.85648" transform="matrix(-0.00334581 -0.999994 0.999898 -0.014278 109.708 606.312)" fill="#D49A52"/>
<ellipse rx="9.99827" ry="6.85648" transform="matrix(-0.00334581 -0.999994 0.999898 -0.014278 115.553 509.241)" fill="#D49A52"/>
<ellipse rx="9.99827" ry="6.85648" transform="matrix(-0.00334581 -0.999994 0.999898 -0.014278 121.399 412.17)" fill="#D49A52"/>
<ellipse rx="9.99827" ry="6.85648" transform="matrix(-0.00334581 -0.999994 0.999898 -0.014278 127.245 315.099)" fill="#D79000"/>
<ellipse rx="9.99827" ry="6.85648" transform="matrix(-0.00334581 -0.999994 0.999898 -0.014278 133.09 218.029)" fill="#D79000"/>
<ellipse rx="9.99827" ry="6.85648" transform="matrix(-0.00334581 -0.999994 0.999898 -0.014278 138.936 120.958)" fill="#D79000"/>
<ellipse rx="9.99827" ry="6.85648" transform="matrix(-0.00334581 -0.999994 0.999898 -0.014278 43.0489 121.411)" fill="#D79000"/>
<ellipse rx="9.99827" ry="6.85648" transform="matrix(-0.00334581 -0.999994 0.999898 -0.014278 144.781 23.8873)" fill="#D79000"/>
<ellipse rx="9.99827" ry="6.85648" transform="matrix(-0.00334581 -0.999994 0.999898 -0.014278 132.29 1054.07)" fill="#D79000"/>
<ellipse rx="9.99827" ry="6.85648" transform="matrix(-0.00334581 -0.999994 0.999898 -0.014278 154.008 1068.63)" fill="#D79000"/>
<ellipse rx="7.54743" ry="9.48752" transform="matrix(-0.820482 -0.562609 0.310092 -0.954122 62.7187 61.3864)" fill="#D79000"/>
<ellipse rx="7.54743" ry="9.48752" transform="matrix(-0.820482 -0.562609 0.310092 -0.954122 24.1836 248.298)" fill="#D79000"/>
<ellipse rx="7.54743" ry="9.48752" transform="matrix(-0.820482 -0.562609 0.310092 -0.954122 38.5156 192.298)" fill="#D79000"/>
<ellipse rx="7.54743" ry="9.48752" transform="matrix(-0.820482 -0.562609 0.310092 -0.954122 54.1645 217.186)" fill="#D79000"/>
<ellipse rx="7.54743" ry="9.48752" transform="matrix(-0.820482 -0.562609 0.310092 -0.954122 45.6103 372.985)" fill="#D79000"/>
<ellipse rx="7.54743" ry="9.48752" transform="matrix(-0.820482 -0.562609 0.310092 -0.954122 37.0561 528.785)" fill="#D79000"/>
<ellipse rx="7.54743" ry="9.48752" transform="matrix(-0.820482 -0.562609 0.310092 -0.954122 39.8466 673.286)" fill="#D79000"/>
<ellipse rx="7.54743" ry="9.48752" transform="matrix(-0.820482 -0.562609 0.310092 -0.954122 25.3681 857.659)" fill="#D79000"/>
<ellipse rx="9.99827" ry="6.85648" transform="matrix(-0.00334581 -0.999994 0.999898 -0.014278 134.158 946.918)" fill="#D79000"/>
<ellipse rx="9.99827" ry="6.85648" transform="matrix(-0.00334581 -0.999994 0.999898 -0.014278 140.003 849.847)" fill="#D79000"/>
<ellipse rx="9.99827" ry="6.85648" transform="matrix(-0.00334581 -0.999994 0.999898 -0.014278 145.85 752.777)" fill="#D79000"/>
<ellipse rx="9.99827" ry="6.85648" transform="matrix(-0.00334581 -0.999994 0.999898 -0.014278 151.695 655.706)" fill="#D79000"/>
<ellipse rx="9.99827" ry="6.85648" transform="matrix(-0.00334581 -0.999994 0.999898 -0.014278 157.541 558.635)" fill="#D79000"/>
<ellipse rx="9.99827" ry="6.85648" transform="matrix(-0.00334581 -0.999994 0.999898 -0.014278 163.387 461.564)" fill="#D79000"/>
<ellipse rx="9.99827" ry="6.85648" transform="matrix(-0.00334581 -0.999994 0.999898 -0.014278 169.232 364.493)" fill="#D79000"/>
<ellipse rx="9.99827" ry="6.85648" transform="matrix(-0.00334581 -0.999994 0.999898 -0.014278 175.078 267.423)" fill="#D79000"/>
<ellipse rx="9.99827" ry="6.85648" transform="matrix(-0.00334581 -0.999994 0.999898 -0.014278 180.924 170.352)" fill="#D79000"/>
<ellipse rx="9.99827" ry="6.85648" transform="matrix(-0.00334581 -0.999994 0.999898 -0.014278 186.77 73.281)" fill="#D79000"/>
<ellipse rx="9.99827" ry="6.85648" transform="matrix(-0.00334581 -0.999994 0.999898 -0.014278 141.897 1005.8)" fill="#D79000"/>
<ellipse rx="9.99827" ry="6.85648" transform="matrix(-0.00334581 -0.999994 0.999898 -0.014278 147.743 908.729)" fill="#D79000"/>
<ellipse rx="9.99827" ry="6.85648" transform="matrix(-0.00334581 -0.999994 0.999898 -0.014278 153.588 811.659)" fill="#D79000"/>
<ellipse rx="9.99827" ry="6.85648" transform="matrix(-0.00334581 -0.999994 0.999898 -0.014278 159.434 714.588)" fill="#E9CDB3"/>
<ellipse rx="9.99827" ry="6.85648" transform="matrix(-0.00334581 -0.999994 0.999898 -0.014278 165.279 617.517)" fill="#E9CDB3"/>
<ellipse rx="9.99827" ry="6.85648" transform="matrix(-0.00334581 -0.999994 0.999898 -0.014278 171.126 520.446)" fill="#E9CDB3"/>
<ellipse rx="9.99827" ry="6.85648" transform="matrix(-0.00334581 -0.999994 0.999898 -0.014278 176.971 423.375)" fill="#E9CDB3"/>
<ellipse rx="9.99827" ry="6.85648" transform="matrix(-0.00334581 -0.999994 0.999898 -0.014278 182.817 326.304)" fill="#E9CDB3"/>
<ellipse rx="9.99827" ry="6.85648" transform="matrix(-0.00334581 -0.999994 0.999898 -0.014278 188.663 229.233)" fill="#E9CDB3"/>
<ellipse rx="9.99827" ry="6.85648" transform="matrix(-0.00334581 -0.999994 0.999898 -0.014278 194.509 132.163)" fill="#E9CDB3"/>
<ellipse rx="9.99827" ry="6.85648" transform="matrix(-0.00334581 -0.999994 0.999898 -0.014278 200.354 35.092)" fill="#E9CDB3"/>
<ellipse rx="9.99827" ry="6.85648" transform="matrix(-0.00334581 -0.999994 0.999898 -0.014278 118.503 981.137)" fill="#E9CDB3"/>
<ellipse rx="9.99827" ry="6.85648" transform="matrix(-0.00334581 -0.999994 0.999898 -0.014278 124.349 884.067)" fill="#E9CDB3"/>
<ellipse rx="9.99827" ry="6.85648" transform="matrix(-0.00334581 -0.999994 0.999898 -0.014278 130.195 786.996)" fill="#E9CDB3"/>
<ellipse rx="9.99827" ry="6.85648" transform="matrix(-0.00334581 -0.999994 0.999898 -0.014278 136.041 689.925)" fill="#E9CDB3"/>
<ellipse rx="9.99827" ry="6.85648" transform="matrix(-0.00334581 -0.999994 0.999898 -0.014278 141.886 592.854)" fill="#E9CDB3"/>
<ellipse rx="9.99827" ry="6.85648" transform="matrix(-0.00334581 -0.999994 0.999898 -0.014278 147.732 495.783)" fill="#E9CDB3"/>
<ellipse rx="9.99827" ry="6.85648" transform="matrix(-0.00334581 -0.999994 0.999898 -0.014278 153.578 398.712)" fill="#E9CDB3"/>
<ellipse rx="9.99827" ry="6.85648" transform="matrix(-0.00334581 -0.999994 0.999898 -0.014278 159.423 301.642)" fill="#E9CDB3"/>
<ellipse rx="9.99827" ry="6.85648" transform="matrix(-0.00334581 -0.999994 0.999898 -0.014278 165.27 204.571)" fill="#E9CDB3"/>
<ellipse rx="9.99827" ry="6.85648" transform="matrix(-0.00334581 -0.999994 0.999898 -0.014278 171.115 107.5)" fill="#E9CDB3"/>
<ellipse rx="9.99827" ry="6.85648" transform="matrix(-0.00334581 -0.999994 0.999898 -0.014278 176.961 10.4292)" fill="#E9CDB3"/>
<ellipse rx="9.99827" ry="6.85648" transform="matrix(-0.00334581 -0.999994 0.999898 -0.014278 343.578 1498.87)" fill="#E9CDB3"/>
<ellipse rx="9.99827" ry="6.85648" transform="matrix(-0.00334581 -0.999994 0.999898 -0.014278 349.423 1401.8)" fill="#E9CDB3"/>
<ellipse rx="9.99827" ry="6.85648" transform="matrix(-0.00334581 -0.999994 0.999898 -0.014278 355.269 1304.72)" fill="#E9CDB3"/>
<ellipse rx="9.99827" ry="6.85648" transform="matrix(-0.00334581 -0.999994 0.999898 -0.014278 361.115 1207.65)" fill="#E9CDB3"/>
<ellipse rx="9.99827" ry="6.85648" transform="matrix(-0.00334581 -0.999994 0.999898 -0.014278 351.316 1557.75)" fill="#D49A52"/>
<ellipse rx="9.99827" ry="6.85648" transform="matrix(-0.00334581 -0.999994 0.999898 -0.014278 357.162 1460.68)" fill="#D49A52"/>
<ellipse rx="9.99827" ry="6.85648" transform="matrix(-0.00334581 -0.999994 0.999898 -0.014278 363.007 1363.61)" fill="#D49A52"/>
<ellipse rx="9.99827" ry="6.85648" transform="matrix(-0.00334581 -0.999994 0.999898 -0.014278 368.853 1266.54)" fill="#D49A52"/>
<ellipse rx="9.99827" ry="6.85648" transform="matrix(-0.00334581 -0.999994 0.999898 -0.014278 374.699 1169.47)" fill="#D49A52"/>
<ellipse rx="9.99827" ry="6.85648" transform="matrix(-0.00334581 -0.999994 0.999898 -0.014278 327.923 1533.09)" fill="#D49A52"/>
<ellipse rx="9.99827" ry="6.85648" transform="matrix(-0.00334581 -0.999994 0.999898 -0.014278 333.769 1436.01)" fill="#D49A52"/>
<ellipse rx="9.99827" ry="6.85648" transform="matrix(-0.00334581 -0.999994 0.999898 -0.014278 339.614 1338.94)" fill="#D49A52"/>
<ellipse rx="9.99827" ry="6.85648" transform="matrix(-0.00334581 -0.999994 0.999898 -0.014278 345.46 1241.87)" fill="#E9CDB3"/>
<ellipse rx="9.99827" ry="6.85648" transform="matrix(-0.00334581 -0.999994 0.999898 -0.014278 351.305 1144.8)" fill="#E9CDB3"/>
<ellipse rx="9.99827" ry="6.85648" transform="matrix(-0.00334581 -0.999994 0.999898 -0.014278 330.662 1122.1)" fill="#E9CDB3"/>
<ellipse rx="7.54743" ry="9.48752" transform="matrix(-0.820482 -0.562609 0.310092 -0.954122 322.046 1251.52)" fill="#E9CDB3"/>
<ellipse rx="7.54743" ry="9.48752" transform="matrix(-0.820482 -0.562609 0.310092 -0.954122 313.491 1407.32)" fill="#E9CDB3"/>
<ellipse rx="7.54743" ry="9.48752" transform="matrix(-0.820482 -0.562609 0.310092 -0.954122 304.937 1563.12)" fill="#E9CDB3"/>
<ellipse rx="9.99827" ry="6.85648" transform="matrix(-0.00334581 -0.999994 0.999898 -0.014278 375.756 1485.41)" fill="#E9CDB3"/>
<ellipse rx="9.99827" ry="6.85648" transform="matrix(-0.00334581 -0.999994 0.999898 -0.014278 381.602 1388.34)" fill="#E9CDB3"/>
<ellipse rx="9.99827" ry="6.85648" transform="matrix(-0.00334581 -0.999994 0.999898 -0.014278 387.447 1291.27)" fill="#E9CDB3"/>
<ellipse rx="9.99827" ry="6.85648" transform="matrix(-0.00334581 -0.999994 0.999898 -0.014278 393.294 1194.2)" fill="#E9CDB3"/>
<ellipse rx="9.99827" ry="6.85648" transform="matrix(-0.00334581 -0.999994 0.999898 -0.014278 383.495 1544.29)" fill="#FFC850"/>
<ellipse rx="9.99827" ry="6.85648" transform="matrix(-0.00334581 -0.999994 0.999898 -0.014278 389.34 1447.22)" fill="#FFC850"/>
<ellipse rx="9.99827" ry="6.85648" transform="matrix(-0.00334581 -0.999994 0.999898 -0.014278 395.186 1350.15)" fill="#FFC850"/>
<ellipse rx="9.99827" ry="6.85648" transform="matrix(-0.00334581 -0.999994 0.999898 -0.014278 401.032 1253.08)" fill="#FFC850"/>
<ellipse rx="9.99827" ry="6.85648" transform="matrix(-0.00334581 -0.999994 0.999898 -0.014278 406.878 1156.01)" fill="#FFC850"/>
<ellipse rx="9.99827" ry="6.85648" transform="matrix(-0.00334581 -0.999994 0.999898 -0.014278 360.102 1519.63)" fill="#FFC850"/>
<ellipse rx="9.99827" ry="6.85648" transform="matrix(-0.00334581 -0.999994 0.999898 -0.014278 365.947 1422.56)" fill="#FFC850"/>
<ellipse rx="9.99827" ry="6.85648" transform="matrix(-0.00334581 -0.999994 0.999898 -0.014278 371.793 1325.49)" fill="#E9CDB3"/>
<ellipse rx="9.99827" ry="6.85648" transform="matrix(-0.00334581 -0.999994 0.999898 -0.014278 377.639 1228.42)" fill="#E9CDB3"/>
<ellipse rx="9.99827" ry="6.85648" transform="matrix(-0.00334581 -0.999994 0.999898 -0.014278 383.484 1131.34)" fill="#E9CDB3"/>
<ellipse rx="9.99827" ry="6.85648" transform="matrix(-0.00334581 -0.999994 0.999898 -0.014278 362.84 1108.64)" fill="#E9CDB3"/>
<ellipse rx="7.54743" ry="9.48752" transform="matrix(-0.820482 -0.562609 0.310092 -0.954122 327.823 1203.45)" fill="#E9CDB3"/>
<ellipse rx="7.54743" ry="9.48752" transform="matrix(-0.820482 -0.562609 0.310092 -0.954122 319.269 1359.25)" fill="#E9CDB3"/>
<ellipse rx="7.54743" ry="9.48752" transform="matrix(-0.820482 -0.562609 0.310092 -0.954122 310.714 1515.05)" fill="#E9CDB3"/>
<ellipse rx="9.99827" ry="6.85648" transform="matrix(-0.00334581 -0.999994 0.999898 -0.014278 402.089 1569.02)" fill="#E9CDB3"/>
<ellipse rx="9.99827" ry="6.85648" transform="matrix(-0.00334581 -0.999994 0.999898 -0.014278 407.935 1471.95)" fill="#E9CDB3"/>
<ellipse rx="9.99827" ry="6.85648" transform="matrix(-0.00334581 -0.999994 0.999898 -0.014278 413.78 1374.88)" fill="#E9CDB3"/>
<ellipse rx="9.99827" ry="6.85648" transform="matrix(-0.00334581 -0.999994 0.999898 -0.014278 419.626 1277.81)" fill="#E9CDB3"/>
<ellipse rx="9.99827" ry="6.85648" transform="matrix(-0.00334581 -0.999994 0.999898 -0.014278 415.673 1530.83)" fill="#D49A52"/>
<ellipse rx="9.99827" ry="6.85648" transform="matrix(-0.00334581 -0.999994 0.999898 -0.014278 392.28 1506.17)" fill="#D49A52"/>
<ellipse rx="9.99827" ry="6.85648" transform="matrix(-0.00334581 -0.999994 0.999898 -0.014278 398.126 1409.1)" fill="#D79000"/>
<ellipse rx="9.99827" ry="6.85648" transform="matrix(-0.00334581 -0.999994 0.999898 -0.014278 403.971 1312.03)" fill="#D79000"/>
<ellipse rx="9.99827" ry="6.85648" transform="matrix(-0.00334581 -0.999994 0.999898 -0.014278 409.817 1214.96)" fill="#D79000"/>
<ellipse rx="9.99827" ry="6.85648" transform="matrix(-0.00334581 -0.999994 0.999898 -0.014278 415.663 1117.89)" fill="#D79000"/>
<ellipse rx="7.54743" ry="9.48752" transform="matrix(-0.820482 -0.562609 0.310092 -0.954122 333.6 1155.39)" fill="#D79000"/>
<ellipse rx="7.54743" ry="9.48752" transform="matrix(-0.820482 -0.562609 0.310092 -0.954122 325.046 1311.19)" fill="#D79000"/>
<ellipse rx="7.54743" ry="9.48752" transform="matrix(-0.820482 -0.562609 0.310092 -0.954122 316.492 1466.99)" fill="#D79000"/>
<ellipse rx="9.99827" ry="6.85648" transform="matrix(-0.00334581 -0.999994 0.999898 -0.014278 40.8887 1780.08)" fill="#E9CDB3"/>
<ellipse rx="9.99827" ry="6.85648" transform="matrix(-0.00334581 -0.999994 0.999898 -0.014278 46.7349 1683.01)" fill="#E9CDB3"/>
<ellipse rx="9.99827" ry="6.85648" transform="matrix(-0.00334581 -0.999994 0.999898 -0.014278 52.5806 1585.94)" fill="#E9CDB3"/>
<ellipse rx="9.99827" ry="6.85648" transform="matrix(-0.00334581 -0.999994 0.999898 -0.014278 58.4258 1488.87)" fill="#E9CDB3"/>
<ellipse rx="9.99827" ry="6.85648" transform="matrix(-0.00334581 -0.999994 0.999898 -0.014278 64.272 1391.8)" fill="#E9CDB3"/>
<ellipse rx="9.99827" ry="6.85648" transform="matrix(-0.00334581 -0.999994 0.999898 -0.014278 70.1173 1294.73)" fill="#E9CDB3"/>
<ellipse rx="9.99827" ry="6.85648" transform="matrix(-0.00334581 -0.999994 0.999898 -0.014278 75.9634 1197.65)" fill="#E9CDB3"/>
<ellipse rx="9.99827" ry="6.85648" transform="matrix(-0.00334581 -0.999994 0.999898 -0.014278 54.4732 1741.89)" fill="#D49A52"/>
<ellipse rx="9.99827" ry="6.85648" transform="matrix(-0.00334581 -0.999994 0.999898 -0.014278 60.3189 1644.82)" fill="#D49A52"/>
<ellipse rx="9.99827" ry="6.85648" transform="matrix(-0.00334581 -0.999994 0.999898 -0.014278 66.1651 1547.75)" fill="#D49A52"/>
<ellipse rx="9.99827" ry="6.85648" transform="matrix(-0.00334581 -0.999994 0.999898 -0.014278 72.0103 1450.68)" fill="#D49A52"/>
<ellipse rx="9.99827" ry="6.85648" transform="matrix(-0.00334581 -0.999994 0.999898 -0.014278 77.8565 1353.61)" fill="#D49A52"/>
<ellipse rx="9.99827" ry="6.85648" transform="matrix(-0.00334581 -0.999994 0.999898 -0.014278 83.7022 1256.54)" fill="#D49A52"/>
<ellipse rx="9.99827" ry="6.85648" transform="matrix(-0.00334581 -0.999994 0.999898 -0.014278 89.5479 1159.47)" fill="#D49A52"/>
<ellipse rx="9.99827" ry="6.85648" transform="matrix(-0.00334581 -0.999994 0.999898 -0.014278 31.0801 1717.23)" fill="#D49A52"/>
<ellipse rx="9.99827" ry="6.85648" transform="matrix(-0.00334581 -0.999994 0.999898 -0.014278 36.9258 1620.16)" fill="#D49A52"/>
<ellipse rx="9.99827" ry="6.85648" transform="matrix(-0.00334581 -0.999994 0.999898 -0.014278 42.7716 1523.09)" fill="#D49A52"/>
<ellipse rx="9.99827" ry="6.85648" transform="matrix(-0.00334581 -0.999994 0.999898 -0.014278 48.6173 1426.01)" fill="#D49A52"/>
<ellipse rx="9.99827" ry="6.85648" transform="matrix(-0.00334581 -0.999994 0.999898 -0.014278 54.4634 1328.94)" fill="#D49A52"/>
<ellipse rx="9.99827" ry="6.85648" transform="matrix(-0.00334581 -0.999994 0.999898 -0.014278 60.3087 1231.87)" fill="#E9CDB3"/>
<ellipse rx="9.99827" ry="6.85648" transform="matrix(-0.00334581 -0.999994 0.999898 -0.014278 66.1549 1134.8)" fill="#E9CDB3"/>
<ellipse rx="9.99827" ry="6.85648" transform="matrix(-0.00334581 -0.999994 0.999898 -0.014278 45.5103 1112.1)" fill="#E9CDB3"/>
<ellipse rx="7.54743" ry="9.48752" transform="matrix(-0.820482 -0.562609 0.310092 -0.954122 36.8945 1241.52)" fill="#E9CDB3"/>
<ellipse rx="7.54743" ry="9.48752" transform="matrix(-0.820482 -0.562609 0.310092 -0.954122 28.3403 1397.32)" fill="#E9CDB3"/>
<ellipse rx="7.54743" ry="9.48752" transform="matrix(-0.820482 -0.562609 0.310092 -0.954122 19.7861 1553.12)" fill="#E9CDB3"/>
<ellipse rx="7.54743" ry="9.48752" transform="matrix(-0.820482 -0.562609 0.310092 -0.954122 11.2319 1708.92)" fill="#E9CDB3"/>
<ellipse rx="9.99827" ry="6.85648" transform="matrix(-0.00334581 -0.999994 0.999898 -0.014278 73.0679 1766.62)" fill="#E9CDB3"/>
<ellipse rx="9.99827" ry="6.85648" transform="matrix(-0.00334581 -0.999994 0.999898 -0.014278 78.9136 1669.55)" fill="#E9CDB3"/>
<ellipse rx="9.99827" ry="6.85648" transform="matrix(-0.00334581 -0.999994 0.999898 -0.014278 84.7593 1572.48)" fill="#E9CDB3"/>
<ellipse rx="9.99827" ry="6.85648" transform="matrix(-0.00334581 -0.999994 0.999898 -0.014278 90.605 1475.41)" fill="#E9CDB3"/>
<ellipse rx="9.99827" ry="6.85648" transform="matrix(-0.00334581 -0.999994 0.999898 -0.014278 96.4503 1378.34)" fill="#E9CDB3"/>
<ellipse rx="9.99827" ry="6.85648" transform="matrix(-0.00334581 -0.999994 0.999898 -0.014278 102.296 1281.27)" fill="#E9CDB3"/>
<ellipse rx="9.99827" ry="6.85648" transform="matrix(-0.00334581 -0.999994 0.999898 -0.014278 108.142 1184.2)" fill="#E9CDB3"/>
<ellipse rx="9.99827" ry="6.85648" transform="matrix(-0.00334581 -0.999994 0.999898 -0.014278 86.6524 1728.43)" fill="#FFC850"/>
<ellipse rx="9.99827" ry="6.85648" transform="matrix(-0.00334581 -0.999994 0.999898 -0.014278 92.4976 1631.36)" fill="#FFC850"/>
<ellipse rx="9.99827" ry="6.85648" transform="matrix(-0.00334581 -0.999994 0.999898 -0.014278 98.3433 1534.29)" fill="#FFC850"/>
<ellipse rx="9.99827" ry="6.85648" transform="matrix(-0.00334581 -0.999994 0.999898 -0.014278 104.19 1437.22)" fill="#FFC850"/>
<ellipse rx="9.99827" ry="6.85648" transform="matrix(-0.00334581 -0.999994 0.999898 -0.014278 110.035 1340.15)" fill="#FFC850"/>
<ellipse rx="9.99827" ry="6.85648" transform="matrix(-0.00334581 -0.999994 0.999898 -0.014278 115.881 1243.08)" fill="#FFC850"/>
<ellipse rx="9.99827" ry="6.85648" transform="matrix(-0.00334581 -0.999994 0.999898 -0.014278 121.727 1146.01)" fill="#FFC850"/>
<ellipse rx="9.99827" ry="6.85648" transform="matrix(-0.00334581 -0.999994 0.999898 -0.014278 63.2589 1703.77)" fill="#FFC850"/>
<ellipse rx="9.99827" ry="6.85648" transform="matrix(-0.00334581 -0.999994 0.999898 -0.014278 69.1046 1606.7)" fill="#FFC850"/>
<ellipse rx="9.99827" ry="6.85648" transform="matrix(-0.00334581 -0.999994 0.999898 -0.014278 74.9503 1509.63)" fill="#FFC850"/>
<ellipse rx="9.99827" ry="6.85648" transform="matrix(-0.00334581 -0.999994 0.999898 -0.014278 80.796 1412.56)" fill="#FFC850"/>
<ellipse rx="9.99827" ry="6.85648" transform="matrix(-0.00334581 -0.999994 0.999898 -0.014278 86.6417 1315.49)" fill="#E9CDB3"/>
<ellipse rx="9.99827" ry="6.85648" transform="matrix(-0.00334581 -0.999994 0.999898 -0.014278 92.4879 1218.42)" fill="#E9CDB3"/>
<ellipse rx="9.99827" ry="6.85648" transform="matrix(-0.00334581 -0.999994 0.999898 -0.014278 98.3331 1121.34)" fill="#E9CDB3"/>
<ellipse rx="9.99827" ry="6.85648" transform="matrix(-0.00334581 -0.999994 0.999898 -0.014278 77.689 1098.64)" fill="#E9CDB3"/>
<ellipse rx="7.54743" ry="9.48752" transform="matrix(-0.820482 -0.562609 0.310092 -0.954122 42.6718 1193.45)" fill="#E9CDB3"/>
<ellipse rx="7.54743" ry="9.48752" transform="matrix(-0.820482 -0.562609 0.310092 -0.954122 34.1176 1349.25)" fill="#E9CDB3"/>
<ellipse rx="7.54743" ry="9.48752" transform="matrix(-0.820482 -0.562609 0.310092 -0.954122 25.5629 1505.05)" fill="#E9CDB3"/>
<ellipse rx="7.54743" ry="9.48752" transform="matrix(-0.820482 -0.562609 0.310092 -0.954122 17.0087 1660.85)" fill="#E9CDB3"/>
<ellipse rx="9.99827" ry="6.85648" transform="matrix(-0.00334581 -0.999994 0.999898 -0.014278 105.246 1753.16)" fill="#E9CDB3"/>
<ellipse rx="9.99827" ry="6.85648" transform="matrix(-0.00334581 -0.999994 0.999898 -0.014278 111.092 1656.09)" fill="#E9CDB3"/>
<ellipse rx="9.99827" ry="6.85648" transform="matrix(-0.00334581 -0.999994 0.999898 -0.014278 116.938 1559.02)" fill="#E9CDB3"/>
<ellipse rx="9.99827" ry="6.85648" transform="matrix(-0.00334581 -0.999994 0.999898 -0.014278 122.783 1461.95)" fill="#E9CDB3"/>
<ellipse rx="9.99827" ry="6.85648" transform="matrix(-0.00334581 -0.999994 0.999898 -0.014278 128.629 1364.88)" fill="#E9CDB3"/>
<ellipse rx="9.99827" ry="6.85648" transform="matrix(-0.00334581 -0.999994 0.999898 -0.014278 134.475 1267.81)" fill="#E9CDB3"/>
<ellipse rx="9.99827" ry="6.85648" transform="matrix(-0.00334581 -0.999994 0.999898 -0.014278 140.321 1170.74)" fill="#E9CDB3"/>
<ellipse rx="9.99827" ry="6.85648" transform="matrix(-0.00334581 -0.999994 0.999898 -0.014278 118.831 1714.97)" fill="#D49A52"/>
<ellipse rx="9.99827" ry="6.85648" transform="matrix(-0.00334581 -0.999994 0.999898 -0.014278 124.677 1617.9)" fill="#D49A52"/>
<ellipse rx="9.99827" ry="6.85648" transform="matrix(-0.00334581 -0.999994 0.999898 -0.014278 130.523 1520.83)" fill="#D49A52"/>
<ellipse rx="9.99827" ry="6.85648" transform="matrix(-0.00334581 -0.999994 0.999898 -0.014278 136.368 1423.76)" fill="#D49A52"/>
<ellipse rx="9.99827" ry="6.85648" transform="matrix(-0.00334581 -0.999994 0.999898 -0.014278 142.214 1326.69)" fill="#D49A52"/>
<ellipse rx="9.99827" ry="6.85648" transform="matrix(-0.00334581 -0.999994 0.999898 -0.014278 148.059 1229.62)" fill="#D49A52"/>
<ellipse rx="9.99827" ry="6.85648" transform="matrix(-0.00334581 -0.999994 0.999898 -0.014278 153.905 1132.55)" fill="#D49A52"/>
<ellipse rx="9.99827" ry="6.85648" transform="matrix(-0.00334581 -0.999994 0.999898 -0.014278 95.4376 1690.31)" fill="#D49A52"/>
<ellipse rx="9.99827" ry="6.85648" transform="matrix(-0.00334581 -0.999994 0.999898 -0.014278 101.283 1593.24)" fill="#D49A52"/>
<ellipse rx="9.99827" ry="6.85648" transform="matrix(-0.00334581 -0.999994 0.999898 -0.014278 107.129 1496.17)" fill="#D49A52"/>
<ellipse rx="9.99827" ry="6.85648" transform="matrix(-0.00334581 -0.999994 0.999898 -0.014278 112.975 1399.1)" fill="#D79000"/>
<ellipse rx="9.99827" ry="6.85648" transform="matrix(-0.00334581 -0.999994 0.999898 -0.014278 118.82 1302.03)" fill="#D79000"/>
<ellipse rx="9.99827" ry="6.85648" transform="matrix(-0.00334581 -0.999994 0.999898 -0.014278 124.666 1204.96)" fill="#D79000"/>
<ellipse rx="9.99827" ry="6.85648" transform="matrix(-0.00334581 -0.999994 0.999898 -0.014278 130.512 1107.89)" fill="#D79000"/>
<ellipse rx="7.54743" ry="9.48752" transform="matrix(-0.820482 -0.562609 0.310092 -0.954122 48.4492 1145.39)" fill="#D79000"/>
<ellipse rx="7.54743" ry="9.48752" transform="matrix(-0.820482 -0.562609 0.310092 -0.954122 39.8945 1301.19)" fill="#D79000"/>
<ellipse rx="7.54743" ry="9.48752" transform="matrix(-0.820482 -0.562609 0.310092 -0.954122 31.3403 1456.99)" fill="#D79000"/>
<ellipse rx="7.54743" ry="9.48752" transform="matrix(-0.820482 -0.562609 0.310092 -0.954122 22.7861 1612.78)" fill="#D79000"/>
<ellipse rx="7.54743" ry="9.48752" transform="matrix(-0.820482 -0.562609 0.310092 -0.954122 25.5766 1757.29)" fill="#D79000"/>
<ellipse rx="9.99827" ry="6.85648" transform="matrix(-0.00334581 -0.999994 0.999898 -0.014278 137.425 1739.71)" fill="#D79000"/>
<ellipse rx="9.99827" ry="6.85648" transform="matrix(-0.00334581 -0.999994 0.999898 -0.014278 143.271 1642.63)" fill="#D79000"/>
<ellipse rx="9.99827" ry="6.85648" transform="matrix(-0.00334581 -0.999994 0.999898 -0.014278 149.116 1545.56)" fill="#D79000"/>
<ellipse rx="9.99827" ry="6.85648" transform="matrix(-0.00334581 -0.999994 0.999898 -0.014278 154.962 1448.49)" fill="#D79000"/>
<ellipse rx="9.99827" ry="6.85648" transform="matrix(-0.00334581 -0.999994 0.999898 -0.014278 160.808 1351.42)" fill="#D79000"/>
<ellipse rx="9.99827" ry="6.85648" transform="matrix(-0.00334581 -0.999994 0.999898 -0.014278 166.654 1254.35)" fill="#D79000"/>
<ellipse rx="9.99827" ry="6.85648" transform="matrix(-0.00334581 -0.999994 0.999898 -0.014278 172.499 1157.28)" fill="#D79000"/>
<ellipse rx="9.99827" ry="6.85648" transform="matrix(-0.00334581 -0.999994 0.999898 -0.014278 151.009 1701.52)" fill="#E9CDB3"/>
<ellipse rx="9.99827" ry="6.85648" transform="matrix(-0.00334581 -0.999994 0.999898 -0.014278 156.855 1604.45)" fill="#E9CDB3"/>
<ellipse rx="9.99827" ry="6.85648" transform="matrix(-0.00334581 -0.999994 0.999898 -0.014278 162.701 1507.37)" fill="#E9CDB3"/>
<ellipse rx="9.99827" ry="6.85648" transform="matrix(-0.00334581 -0.999994 0.999898 -0.014278 168.547 1410.3)" fill="#E9CDB3"/>
<ellipse rx="9.99827" ry="6.85648" transform="matrix(-0.00334581 -0.999994 0.999898 -0.014278 174.392 1313.23)" fill="#E9CDB3"/>
<ellipse rx="9.99827" ry="6.85648" transform="matrix(-0.00334581 -0.999994 0.999898 -0.014278 180.238 1216.16)" fill="#E9CDB3"/>
<ellipse rx="9.99827" ry="6.85648" transform="matrix(-0.00334581 -0.999994 0.999898 -0.014278 186.084 1119.09)" fill="#E9CDB3"/>
<ellipse rx="9.99827" ry="6.85648" transform="matrix(-0.00334581 -0.999994 0.999898 -0.014278 121.771 1773.92)" fill="#E9CDB3"/>
<ellipse rx="9.99827" ry="6.85648" transform="matrix(-0.00334581 -0.999994 0.999898 -0.014278 127.616 1676.85)" fill="#E9CDB3"/>
<ellipse rx="9.99827" ry="6.85648" transform="matrix(-0.00334581 -0.999994 0.999898 -0.014278 133.462 1579.78)" fill="#E9CDB3"/>
<ellipse rx="9.99827" ry="6.85648" transform="matrix(-0.00334581 -0.999994 0.999898 -0.014278 139.307 1482.71)" fill="#E9CDB3"/>
<ellipse rx="9.99827" ry="6.85648" transform="matrix(-0.00334581 -0.999994 0.999898 -0.014278 145.153 1385.64)" fill="#E9CDB3"/>
<ellipse rx="9.99827" ry="6.85648" transform="matrix(-0.00334581 -0.999994 0.999898 -0.014278 150.999 1288.57)" fill="#E9CDB3"/>
<ellipse rx="9.99827" ry="6.85648" transform="matrix(-0.00334581 -0.999994 0.999898 -0.014278 156.845 1191.5)" fill="#E9CDB3"/>
<ellipse rx="9.99827" ry="6.85648" transform="matrix(-0.00334581 -0.999994 0.999898 -0.014278 162.69 1094.43)" fill="#E9CDB3"/>
<ellipse rx="9.99827" ry="6.85648" transform="matrix(-0.00334581 -0.999994 0.999898 -0.014278 196.016 1490.87)" fill="#E9CDB3"/>
<ellipse rx="9.99827" ry="6.85648" transform="matrix(-0.00334581 -0.999994 0.999898 -0.014278 201.862 1393.8)" fill="#E9CDB3"/>
<ellipse rx="9.99827" ry="6.85648" transform="matrix(-0.00334581 -0.999994 0.999898 -0.014278 207.707 1296.73)" fill="#E9CDB3"/>
<ellipse rx="9.99827" ry="6.85648" transform="matrix(-0.00334581 -0.999994 0.999898 -0.014278 213.553 1199.65)" fill="#E9CDB3"/>
<ellipse rx="9.99827" ry="6.85648" transform="matrix(-0.00334581 -0.999994 0.999898 -0.014278 203.754 1549.75)" fill="#D49A52"/>
<ellipse rx="9.99827" ry="6.85648" transform="matrix(-0.00334581 -0.999994 0.999898 -0.014278 209.6 1452.68)" fill="#D49A52"/>
<ellipse rx="9.99827" ry="6.85648" transform="matrix(-0.00334581 -0.999994 0.999898 -0.014278 215.446 1355.61)" fill="#D49A52"/>
<ellipse rx="9.99827" ry="6.85648" transform="matrix(-0.00334581 -0.999994 0.999898 -0.014278 221.292 1258.54)" fill="#D49A52"/>
<ellipse rx="9.99827" ry="6.85648" transform="matrix(-0.00334581 -0.999994 0.999898 -0.014278 227.138 1161.47)" fill="#D49A52"/>
<ellipse rx="9.99827" ry="6.85648" transform="matrix(-0.00334581 -0.999994 0.999898 -0.014278 180.361 1525.09)" fill="#D49A52"/>
<ellipse rx="9.99827" ry="6.85648" transform="matrix(-0.00334581 -0.999994 0.999898 -0.014278 186.207 1428.01)" fill="#D49A52"/>
<ellipse rx="9.99827" ry="6.85648" transform="matrix(-0.00334581 -0.999994 0.999898 -0.014278 192.053 1330.94)" fill="#D49A52"/>
<ellipse rx="9.99827" ry="6.85648" transform="matrix(-0.00334581 -0.999994 0.999898 -0.014278 197.899 1233.87)" fill="#E9CDB3"/>
<ellipse rx="9.99827" ry="6.85648" transform="matrix(-0.00334581 -0.999994 0.999898 -0.014278 203.745 1136.8)" fill="#E9CDB3"/>
<ellipse rx="9.99827" ry="6.85648" transform="matrix(-0.00334581 -0.999994 0.999898 -0.014278 183.1 1114.1)" fill="#E9CDB3"/>
<ellipse rx="7.54743" ry="9.48752" transform="matrix(-0.820482 -0.562609 0.310092 -0.954122 174.484 1243.52)" fill="#E9CDB3"/>
<ellipse rx="7.54743" ry="9.48752" transform="matrix(-0.820482 -0.562609 0.310092 -0.954122 165.93 1399.32)" fill="#E9CDB3"/>
<ellipse rx="7.54743" ry="9.48752" transform="matrix(-0.820482 -0.562609 0.310092 -0.954122 157.376 1555.12)" fill="#E9CDB3"/>
<ellipse rx="7.54743" ry="9.48752" transform="matrix(-0.820482 -0.562609 0.310092 -0.954122 148.821 1710.92)" fill="#E9CDB3"/>
<ellipse rx="9.99827" ry="6.85648" transform="matrix(-0.00334581 -0.999994 0.999898 -0.014278 228.194 1477.41)" fill="#E9CDB3"/>
<ellipse rx="9.99827" ry="6.85648" transform="matrix(-0.00334581 -0.999994 0.999898 -0.014278 234.04 1380.34)" fill="#E9CDB3"/>
<ellipse rx="9.99827" ry="6.85648" transform="matrix(-0.00334581 -0.999994 0.999898 -0.014278 239.886 1283.27)" fill="#E9CDB3"/>
<ellipse rx="9.99827" ry="6.85648" transform="matrix(-0.00334581 -0.999994 0.999898 -0.014278 245.732 1186.2)" fill="#E9CDB3"/>
<ellipse rx="9.99827" ry="6.85648" transform="matrix(-0.00334581 -0.999994 0.999898 -0.014278 235.933 1536.29)" fill="#FFC850"/>
<ellipse rx="9.99827" ry="6.85648" transform="matrix(-0.00334581 -0.999994 0.999898 -0.014278 241.779 1439.22)" fill="#FFC850"/>
<ellipse rx="9.99827" ry="6.85648" transform="matrix(-0.00334581 -0.999994 0.999898 -0.014278 247.625 1342.15)" fill="#FFC850"/>
<ellipse rx="9.99827" ry="6.85648" transform="matrix(-0.00334581 -0.999994 0.999898 -0.014278 253.471 1245.08)" fill="#FFC850"/>
<ellipse rx="9.99827" ry="6.85648" transform="matrix(-0.00334581 -0.999994 0.999898 -0.014278 259.316 1148.01)" fill="#FFC850"/>
<ellipse rx="9.99827" ry="6.85648" transform="matrix(-0.00334581 -0.999994 0.999898 -0.014278 212.54 1511.63)" fill="#FFC850"/>
<ellipse rx="9.99827" ry="6.85648" transform="matrix(-0.00334581 -0.999994 0.999898 -0.014278 218.386 1414.56)" fill="#FFC850"/>
<ellipse rx="9.99827" ry="6.85648" transform="matrix(-0.00334581 -0.999994 0.999898 -0.014278 224.232 1317.49)" fill="#E9CDB3"/>
<ellipse rx="9.99827" ry="6.85648" transform="matrix(-0.00334581 -0.999994 0.999898 -0.014278 230.077 1220.42)" fill="#E9CDB3"/>
<ellipse rx="9.99827" ry="6.85648" transform="matrix(-0.00334581 -0.999994 0.999898 -0.014278 235.923 1123.34)" fill="#E9CDB3"/>
<ellipse rx="9.99827" ry="6.85648" transform="matrix(-0.00334581 -0.999994 0.999898 -0.014278 215.278 1100.64)" fill="#E9CDB3"/>
<ellipse rx="7.54743" ry="9.48752" transform="matrix(-0.820482 -0.562609 0.310092 -0.954122 180.261 1195.45)" fill="#E9CDB3"/>
<ellipse rx="7.54743" ry="9.48752" transform="matrix(-0.820482 -0.562609 0.310092 -0.954122 171.707 1351.25)" fill="#E9CDB3"/>
<ellipse rx="7.54743" ry="9.48752" transform="matrix(-0.820482 -0.562609 0.310092 -0.954122 163.153 1507.05)" fill="#E9CDB3"/>
<ellipse rx="7.54743" ry="9.48752" transform="matrix(-0.820482 -0.562609 0.310092 -0.954122 154.599 1662.85)" fill="#E9CDB3"/>
<ellipse rx="9.99827" ry="6.85648" transform="matrix(-0.00334581 -0.999994 0.999898 -0.014278 254.527 1561.02)" fill="#E9CDB3"/>
<ellipse rx="9.99827" ry="6.85648" transform="matrix(-0.00334581 -0.999994 0.999898 -0.014278 260.373 1463.95)" fill="#E9CDB3"/>
<ellipse rx="9.99827" ry="6.85648" transform="matrix(-0.00334581 -0.999994 0.999898 -0.014278 266.218 1366.88)" fill="#E9CDB3"/>
<ellipse rx="9.99827" ry="6.85648" transform="matrix(-0.00334581 -0.999994 0.999898 -0.014278 272.065 1269.81)" fill="#E9CDB3"/>
<ellipse rx="9.99827" ry="6.85648" transform="matrix(-0.00334581 -0.999994 0.999898 -0.014278 277.911 1172.74)" fill="#E9CDB3"/>
<ellipse rx="9.99827" ry="6.85648" transform="matrix(-0.00334581 -0.999994 0.999898 -0.014278 268.112 1522.83)" fill="#D49A52"/>
<ellipse rx="9.99827" ry="6.85648" transform="matrix(-0.00334581 -0.999994 0.999898 -0.014278 273.958 1425.76)" fill="#D49A52"/>
<ellipse rx="9.99827" ry="6.85648" transform="matrix(-0.00334581 -0.999994 0.999898 -0.014278 279.804 1328.69)" fill="#D49A52"/>
<ellipse rx="9.99827" ry="6.85648" transform="matrix(-0.00334581 -0.999994 0.999898 -0.014278 285.649 1231.62)" fill="#D49A52"/>
<ellipse rx="9.99827" ry="6.85648" transform="matrix(-0.00334581 -0.999994 0.999898 -0.014278 291.495 1134.55)" fill="#D49A52"/>
<ellipse rx="9.99827" ry="6.85648" transform="matrix(-0.00334581 -0.999994 0.999898 -0.014278 244.718 1498.17)" fill="#D49A52"/>
<ellipse rx="9.99827" ry="6.85648" transform="matrix(-0.00334581 -0.999994 0.999898 -0.014278 250.564 1401.1)" fill="#D79000"/>
<ellipse rx="9.99827" ry="6.85648" transform="matrix(-0.00334581 -0.999994 0.999898 -0.014278 256.41 1304.03)" fill="#D79000"/>
<ellipse rx="9.99827" ry="6.85648" transform="matrix(-0.00334581 -0.999994 0.999898 -0.014278 262.256 1206.96)" fill="#D79000"/>
<ellipse rx="9.99827" ry="6.85648" transform="matrix(-0.00334581 -0.999994 0.999898 -0.014278 268.101 1109.89)" fill="#D79000"/>
<ellipse rx="7.54743" ry="9.48752" transform="matrix(-0.820482 -0.562609 0.310092 -0.954122 186.039 1147.39)" fill="#D79000"/>
<ellipse rx="7.54743" ry="9.48752" transform="matrix(-0.820482 -0.562609 0.310092 -0.954122 177.484 1303.19)" fill="#D79000"/>
<ellipse rx="7.54743" ry="9.48752" transform="matrix(-0.820482 -0.562609 0.310092 -0.954122 168.93 1458.99)" fill="#D79000"/>
<ellipse rx="7.54743" ry="9.48752" transform="matrix(-0.820482 -0.562609 0.310092 -0.954122 160.376 1614.78)" fill="#D79000"/>
<ellipse rx="7.54743" ry="9.48752" transform="matrix(-0.820482 -0.562609 0.310092 -0.954122 163.166 1759.29)" fill="#D79000"/>
<ellipse rx="9.99827" ry="6.85648" transform="matrix(-0.00334581 -0.999994 0.999898 -0.014278 286.706 1547.56)" fill="#D79000"/>
<ellipse rx="9.99827" ry="6.85648" transform="matrix(-0.00334581 -0.999994 0.999898 -0.014278 292.552 1450.49)" fill="#D79000"/>
<ellipse rx="9.99827" ry="6.85648" transform="matrix(-0.00334581 -0.999994 0.999898 -0.014278 298.398 1353.42)" fill="#D79000"/>
<ellipse rx="9.99827" ry="6.85648" transform="matrix(-0.00334581 -0.999994 0.999898 -0.014278 304.244 1256.35)" fill="#D79000"/>
<ellipse rx="9.99827" ry="6.85648" transform="matrix(-0.00334581 -0.999994 0.999898 -0.014278 310.089 1159.28)" fill="#D79000"/>
<ellipse rx="9.99827" ry="6.85648" transform="matrix(-0.00334581 -0.999994 0.999898 -0.014278 300.291 1509.38)" fill="#E9CDB3"/>
<ellipse rx="9.99827" ry="6.85648" transform="matrix(-0.00334581 -0.999994 0.999898 -0.014278 306.136 1412.3)" fill="#E9CDB3"/>
<ellipse rx="9.99827" ry="6.85648" transform="matrix(-0.00334581 -0.999994 0.999898 -0.014278 311.982 1315.23)" fill="#E9CDB3"/>
<ellipse rx="9.99827" ry="6.85648" transform="matrix(-0.00334581 -0.999994 0.999898 -0.014278 317.828 1218.16)" fill="#E9CDB3"/>
<ellipse rx="9.99827" ry="6.85648" transform="matrix(-0.00334581 -0.999994 0.999898 -0.014278 323.673 1121.09)" fill="#E9CDB3"/>
<ellipse rx="9.99827" ry="6.85648" transform="matrix(-0.00334581 -0.999994 0.999898 -0.014278 276.897 1484.71)" fill="#E9CDB3"/>
<ellipse rx="9.99827" ry="6.85648" transform="matrix(-0.00334581 -0.999994 0.999898 -0.014278 282.743 1387.64)" fill="#E9CDB3"/>
<ellipse rx="9.99827" ry="6.85648" transform="matrix(-0.00334581 -0.999994 0.999898 -0.014278 288.589 1290.57)" fill="#E9CDB3"/>
<ellipse rx="9.99827" ry="6.85648" transform="matrix(-0.00334581 -0.999994 0.999898 -0.014278 294.435 1193.5)" fill="#E9CDB3"/>
<ellipse rx="9.99827" ry="6.85648" transform="matrix(-0.00334581 -0.999994 0.999898 -0.014278 300.28 1096.43)" fill="#E9CDB3"/>
</svg>
