<svg width="50" height="51" viewBox="0 0 50 51" fill="none" xmlns="http://www.w3.org/2000/svg">
<path d="M17.0596 50.042C20.1431 50.042 22.6427 47.6378 22.6427 44.6722C22.6427 41.7065 20.1431 39.3024 17.0596 39.3024C13.9762 39.3024 11.4766 41.7065 11.4766 44.6722C11.4766 47.6378 13.9762 50.042 17.0596 50.042Z" fill="#10145F"/>
<path d="M40.6319 50.042C43.7153 50.042 46.215 47.6378 46.215 44.6722C46.215 41.7065 43.7153 39.3024 40.6319 39.3024C37.5485 39.3024 35.0488 41.7065 35.0488 44.6722C35.0488 47.6378 37.5485 50.042 40.6319 50.042Z" fill="#10145F"/>
<path d="M12.6551 9.40927L10.732 3.80068C9.96654 1.5834 7.82581 0.0750958 5.39701 0.041748H1.2407C0.555458 0.041748 0 0.575997 0 1.23507C0 1.89415 0.555458 2.4284 1.2407 2.4284H5.39701C6.746 2.45706 7.93386 3.29018 8.37473 4.51674L16.1912 27.3689L15.6329 28.7411C14.9526 30.4519 15.1359 32.3693 16.1292 33.9321C17.1616 35.448 18.8985 36.3836 20.7818 36.4381H44.9753C45.6606 36.4381 46.216 35.9038 46.216 35.2447C46.216 34.5857 45.6606 34.0514 44.9753 34.0514H20.7817C19.7372 34.0167 18.7811 33.4785 18.2383 32.6194C17.6527 31.7716 17.5368 30.7012 17.9282 29.7554L18.6726 27.9653C18.7844 27.6794 18.806 27.3681 18.7345 27.0703L18.3623 26.1753L43.6105 23.6693C45.4488 23.5102 46.974 22.2356 47.3945 20.507L50 9.94614L12.6551 9.40927Z" fill="#10145F"/>
</svg>
