<svg width="202" height="238" viewBox="0 0 202 238" fill="none" xmlns="http://www.w3.org/2000/svg">
<path d="M201.238 139.083C201.238 193.382 133.02 208.025 101.347 237.401C46.1787 237.401 1.45605 193.382 1.45605 139.083C1.45605 84.784 46.1787 0 101.347 0C156.515 0 201.238 84.784 201.238 139.083Z" fill="#489997"/>
<line x1="77.5928" y1="4.99487" x2="126.375" y2="4.99487" stroke="#E9CDB3" stroke-width="2"/>
<line x1="67.8467" y1="10.3904" x2="135.511" y2="10.3904" stroke="#E9CDB3" stroke-width="2"/>
<line x1="58.7109" y1="15.7859" x2="142.82" y2="15.7859" stroke="#E9CDB3" stroke-width="2"/>
<line x1="53.8379" y1="21.1814" x2="150.129" y2="21.1814" stroke="#E9CDB3" stroke-width="2"/>
<line y1="-1" x2="102.382" y2="-1" transform="matrix(1 0 0 -1 35.5654 211.622)" stroke="#E9CDB3" stroke-width="2"/>
<line y1="-1" x2="115.782" y2="-1" transform="matrix(1 0 0 -1 30.6924 207.026)" stroke="#E9CDB3" stroke-width="2"/>
<line y1="-1" x2="129.182" y2="-1" transform="matrix(1 0 0 -1 25.2109 202.43)" stroke="#E9CDB3" stroke-width="2"/>
<line y1="-1" x2="138.318" y2="-1" transform="matrix(1 0 0 -1 22.165 197.834)" stroke="#E9CDB3" stroke-width="2"/>
<line x1="16.6836" y1="75.136" x2="185.457" y2="75.136" stroke="#E9CDB3" stroke-width="2"/>
<line x1="14.2471" y1="80.5317" x2="188.502" y2="80.5317" stroke="#E9CDB3" stroke-width="2"/>
<line x1="22.165" y1="63.146" x2="180.529" y2="63.146" stroke="#E9CDB3" stroke-width="2"/>
<line x1="19.1201" y1="69.1409" x2="183.575" y2="69.1409" stroke="#E9CDB3" stroke-width="2"/>
<line x1="1.45605" y1="143.479" x2="200.684" y2="143.479" stroke="#E9CDB3" stroke-width="2"/>
<line x1="1.45605" y1="148.874" x2="199.465" y2="148.874" stroke="#E9CDB3" stroke-width="2"/>
<line x1="1.45605" y1="132.088" x2="201.847" y2="132.088" stroke="#E9CDB3" stroke-width="2"/>
<line x1="0.84668" y1="137.483" x2="201.238" y2="137.483" stroke="#E9CDB3" stroke-width="2"/>
<path d="M49.5739 26.3779L57.4862 39.8666H41.6615L49.5739 26.3779Z" fill="#E85D5D"/>
<path d="M64.1918 40.1663L56.2794 26.6776H72.1041L64.1918 40.1663Z" fill="#E85D5D"/>
<path d="M79.4196 26.3779L87.3319 39.8666H71.5072L79.4196 26.3779Z" fill="#E85D5D"/>
<path d="M92.8197 40.1663L84.9074 26.6776H100.732L92.8197 40.1663Z" fill="#E85D5D"/>
<path d="M107.437 26.3779L115.349 39.8666H99.5248L107.437 26.3779Z" fill="#E85D5D"/>
<path d="M122.055 40.1663L114.143 26.6776H129.967L122.055 40.1663Z" fill="#E85D5D"/>
<path d="M137.283 26.3779L145.195 39.8666H129.371L137.283 26.3779Z" fill="#E85D5D"/>
<path d="M149.768 40.1663L142.647 28.0265H156.89L149.768 40.1663Z" fill="#E85D5D"/>
<path d="M33.1286 44.3623L41.0409 57.851H25.2162L33.1286 44.3623Z" fill="#E85D5D"/>
<path d="M47.7464 58.1509L39.8341 44.6622H55.6588L47.7464 58.1509Z" fill="#E85D5D"/>
<path d="M62.9743 44.3623L70.8866 57.851H55.0619L62.9743 44.3623Z" fill="#E85D5D"/>
<path d="M76.3744 58.1509L68.4621 44.6622H84.2867L76.3744 58.1509Z" fill="#E85D5D"/>
<path d="M90.9918 44.3623L98.9042 57.851H83.0795L90.9918 44.3623Z" fill="#E85D5D"/>
<path d="M105.61 58.1509L97.6974 44.6622H113.522L105.61 58.1509Z" fill="#E85D5D"/>
<path d="M120.838 44.3623L128.75 57.851H112.925L120.838 44.3623Z" fill="#E85D5D"/>
<path d="M134.238 58.1509L126.325 44.6622H142.15L134.238 58.1509Z" fill="#E85D5D"/>
<path d="M148.856 44.3628L156.768 57.8515H140.944L148.856 44.3628Z" fill="#E85D5D"/>
<path d="M160.733 58.1511L153.612 46.0113H167.854L160.733 58.1511Z" fill="#E85D5D"/>
<path d="M69.674 217.617L76.5314 229.307H62.8167L69.674 217.617Z" fill="#E85D5D"/>
<path d="M80.6381 231.406L72.7257 217.917H88.5504L80.6381 231.406Z" fill="#E85D5D"/>
<path d="M95.2555 217.617L103.168 231.106H87.3432L95.2555 217.617Z" fill="#E85D5D"/>
<path d="M109.873 231.406L101.961 217.917H117.786L109.873 231.406Z" fill="#E85D5D"/>
<path d="M38.0016 156.469L45.9139 169.957H30.0893L38.0016 156.469Z" fill="#E85D5D"/>
<path d="M52.6195 170.257L44.7072 156.768H60.5318L52.6195 170.257Z" fill="#E85D5D"/>
<path d="M20.3373 170.257L12.4249 156.768H28.2496L20.3373 170.257Z" fill="#E85D5D"/>
<path d="M67.8463 156.469L75.7586 169.957H59.934L67.8463 156.469Z" fill="#E85D5D"/>
<path d="M81.2464 170.257L73.3341 156.768H89.1588L81.2464 170.257Z" fill="#E85D5D"/>
<path d="M95.8649 156.468L103.777 169.957H87.9526L95.8649 156.468Z" fill="#E85D5D"/>
<path d="M110.483 170.257L102.57 156.768H118.395L110.483 170.257Z" fill="#E85D5D"/>
<path d="M125.711 156.468L133.623 169.957H117.798L125.711 156.468Z" fill="#E85D5D"/>
<path d="M139.111 170.257L131.198 156.768H147.023L139.111 170.257Z" fill="#E85D5D"/>
<path d="M152.51 156.468L160.423 169.957H144.598L152.51 156.468Z" fill="#E85D5D"/>
<path d="M167.128 170.257L159.216 156.768H175.041L167.128 170.257Z" fill="#E85D5D"/>
<path d="M182.356 156.468L190.268 169.957H174.444L182.356 156.468Z" fill="#E85D5D"/>
<path d="M21.5553 174.453L29.4676 187.942H13.643L21.5553 174.453Z" fill="#E85D5D"/>
<path d="M36.1732 188.242L28.2609 174.753H44.0855L36.1732 188.242Z" fill="#E85D5D"/>
<path d="M51.401 174.453L59.3133 187.942H43.4887L51.401 174.453Z" fill="#E85D5D"/>
<path d="M64.8011 188.242L56.8888 174.753H72.7135L64.8011 188.242Z" fill="#E85D5D"/>
<path d="M79.4186 174.453L87.3309 187.942H71.5063L79.4186 174.453Z" fill="#E85D5D"/>
<path d="M94.0365 188.242L86.1242 174.753H101.949L94.0365 188.242Z" fill="#E85D5D"/>
<path d="M109.264 174.453L117.177 187.942H101.352L109.264 174.453Z" fill="#E85D5D"/>
<path d="M122.664 188.242L114.752 174.753H130.577L122.664 188.242Z" fill="#E85D5D"/>
<path d="M137.283 174.453L145.195 187.942H129.371L137.283 174.453Z" fill="#E85D5D"/>
<path d="M151.901 188.242L143.988 174.753H159.813L151.901 188.242Z" fill="#E85D5D"/>
<path d="M165.3 174.453L173.213 187.942H157.388L165.3 174.453Z" fill="#E85D5D"/>
<path d="M176.873 187.043L170.015 175.353H183.73L176.873 187.043Z" fill="#E85D5D"/>
<path d="M27.6461 91.1233L35.5585 104.612H19.7338L27.6461 91.1233Z" fill="#E85D5D"/>
<path d="M42.264 104.912L34.3517 91.423H50.1764L42.264 104.912Z" fill="#E85D5D"/>
<path d="M57.4918 91.1233L65.4042 104.612H49.5795L57.4918 91.1233Z" fill="#E85D5D"/>
<path d="M70.892 104.912L62.9796 91.423H78.8043L70.892 104.912Z" fill="#E85D5D"/>
<path d="M85.5104 91.1233L93.4227 104.612H77.5981L85.5104 91.1233Z" fill="#E85D5D"/>
<path d="M100.128 104.912L92.216 91.423H108.041L100.128 104.912Z" fill="#E85D5D"/>
<path d="M115.356 91.1233L123.268 104.612H107.444L115.356 91.1233Z" fill="#E85D5D"/>
<path d="M128.756 104.912L120.844 91.423H136.669L128.756 104.912Z" fill="#E85D5D"/>
<path d="M141.547 92.9221L149.459 106.411H133.634L141.547 92.9221Z" fill="#E85D5D"/>
<path d="M156.164 106.71L148.252 93.2218H164.077L156.164 106.71Z" fill="#E85D5D"/>
<path d="M171.391 92.9221L179.304 106.411H163.479L171.391 92.9221Z" fill="#E85D5D"/>
<path d="M184.791 106.71L176.879 93.2218H192.704L184.791 106.71Z" fill="#E85D5D"/>
<path d="M11.2008 109.108L19.1131 122.597H3.28849L11.2008 109.108Z" fill="#E85D5D"/>
<path d="M25.8187 122.897L17.9064 109.408H33.731L25.8187 122.897Z" fill="#E85D5D"/>
<path d="M41.0465 109.108L48.9588 122.597H33.1342L41.0465 109.108Z" fill="#E85D5D"/>
<path d="M54.4466 122.897L46.5343 109.408H62.359L54.4466 122.897Z" fill="#E85D5D"/>
<path d="M69.0641 109.108L76.9764 122.597H61.1518L69.0641 109.108Z" fill="#E85D5D"/>
<path d="M83.682 122.897L75.7697 109.408H91.5943L83.682 122.897Z" fill="#E85D5D"/>
<path d="M98.9098 109.108L106.822 122.597H90.9975L98.9098 109.108Z" fill="#E85D5D"/>
<path d="M112.31 122.897L104.398 109.408H120.222L112.31 122.897Z" fill="#E85D5D"/>
<path d="M126.928 109.108L134.841 122.597H119.016L126.928 109.108Z" fill="#E85D5D"/>
<path d="M141.546 122.897L133.634 109.408H149.459L141.546 122.897Z" fill="#E85D5D"/>
<path d="M184.182 112.705L192.095 126.194H176.27L184.182 112.705Z" fill="#E85D5D"/>
<path d="M201.846 139.683C201.846 193.982 133.628 208.625 101.955 238C46.7871 238 2.06445 193.982 2.06445 139.683C2.06445 85.3833 46.7871 0.599365 101.955 0.599365C157.124 0.599365 201.846 85.3833 201.846 139.683Z" fill="#A9B2C1" fill-opacity="0.27"/>
<g clip-path="url(#clip0)">
<path fill-rule="evenodd" clip-rule="evenodd" d="M150.808 171.346C150.54 176.758 152.146 184.877 154.22 185.933C154.22 185.933 155.29 170.554 155.089 168.772C154.889 166.99 155.115 163.558 155.115 163.558C155.115 163.558 151.143 155.505 150.339 150.952L148.266 156.759C148.266 156.759 151.075 165.934 150.808 171.346ZM133.748 157.947C132.277 155.043 132.512 153.327 132.512 153.327C135.154 131.217 145.255 115.903 145.255 115.903C145.255 115.903 147.931 111.151 154.019 111.151C160.107 111.151 159.705 116.366 159.705 116.366C161.378 118.345 166.897 123.032 169.272 130.886C171.358 137.787 167.299 155.505 167.197 157.636C167.098 159.768 166.746 173.177 163.234 179.86C159.722 186.543 158.701 192.929 158.501 194.645C158.301 196.362 159.571 199.034 158.803 199.563C158.033 200.09 153.919 203.126 153.316 203.291C152.714 203.457 148.868 204.017 147.898 204.116C146.928 204.216 146.961 202.995 147.831 202.5C148.7 202.005 150.173 201.377 151.008 199.53C151.844 197.681 152.648 194.48 153.149 193.392C153.651 192.302 154.153 189.86 154.153 189.86C153.349 190.388 150.406 195.965 150.44 196.328C150.473 196.691 143.984 197.384 143.984 197.384C143.75 196.031 147.195 194.744 147.195 194.744C146.961 193.094 148.4 187.451 148.4 187.451C148.4 187.451 146.192 181.049 144.452 178.474C142.713 175.9 135.22 160.852 133.748 157.947Z" fill="#A15122"/>
<path fill-rule="evenodd" clip-rule="evenodd" d="M158.651 193.583C158.651 193.583 158.993 196.163 159.26 197.22C159.528 198.276 159.996 198.605 159.26 199.43C158.525 200.255 158.357 201.675 158.357 201.675H157.856L158.157 200.289C158.157 200.289 156.153 201.476 155.114 202.565C154.076 203.654 148.791 204.454 147.486 204.266C146.182 204.076 145.68 203.324 149.995 200.718C149.995 200.718 152.805 201.311 154.109 202.467C154.109 202.467 157.087 199.926 157.956 199.463C157.956 199.463 158.926 197.771 158.491 195.366C158.491 195.366 158.142 194.599 158.651 193.583Z" fill="#FF1E5F"/>
<path fill-rule="evenodd" clip-rule="evenodd" d="M154.209 189.596C154.209 189.596 151.098 193.49 150.262 195.965C150.262 195.965 147.462 194.555 146.563 195.01C146.563 195.01 143.706 196.295 143.706 197.021C143.706 197.748 144.509 197.583 150.63 196.691C150.63 196.691 152.379 192.379 153.862 191.12L154.209 189.596Z" fill="#FF1E5F"/>
<path fill-rule="evenodd" clip-rule="evenodd" d="M160.365 114.962C160.365 114.962 160.871 115.854 160.609 116.943C160.609 116.943 170.708 124.965 171.268 134.922C171.828 144.878 168.392 155.667 168.793 159.315C169.195 162.964 167.321 171.676 162.036 188.308C162.036 188.308 159.494 189.893 154.21 188.837C154.21 188.837 153.54 168.309 154.21 162.897C154.21 162.897 151.118 156.751 150.456 152.601L148.958 156.1C148.958 156.1 151.846 163.624 151.69 168.442C151.533 173.26 153.674 178.87 153.674 178.87C153.674 178.87 149.326 182.17 145.044 182.302C145.044 182.302 134.4 162.964 132.497 156.297C130.594 149.631 137.218 123.89 143.907 117.289C143.907 117.289 144.274 114.91 144.263 114.778C144.252 114.647 144.559 114.443 144.747 114.441C144.936 114.438 145.582 111.671 152.363 110.755C152.363 110.755 159.079 109.148 160.365 114.962Z" fill="#28445C"/>
<path fill-rule="evenodd" clip-rule="evenodd" d="M159.929 117.421C159.294 117.634 158.662 117.839 158.014 117.991C157.374 118.166 156.726 118.309 156.075 118.427C154.772 118.659 153.459 118.807 152.143 118.823C150.826 118.87 149.515 118.704 148.226 118.455L147.263 118.232L146.326 117.915L145.852 117.763L145.399 117.56C145.097 117.423 144.792 117.291 144.481 117.161C145.594 117.887 146.809 118.517 148.128 118.846C149.433 119.197 150.795 119.382 152.151 119.347C153.505 119.317 154.855 119.15 156.162 118.82C157.467 118.49 158.748 118.052 159.929 117.421Z" fill="#121F2D"/>
<path fill-rule="evenodd" clip-rule="evenodd" d="M154.879 115.733C154.654 116.293 154.602 116.865 154.61 117.436C154.622 117.723 154.646 118.01 154.716 118.295C154.784 118.571 154.87 118.89 155.113 119.095C155.063 118.809 155.13 118.536 155.128 118.257C155.144 117.98 155.143 117.701 155.14 117.422C155.115 116.863 155.071 116.303 154.879 115.733Z" fill="#121F2D"/>
<path fill-rule="evenodd" clip-rule="evenodd" d="M153.574 115.733C153.361 116.298 153.323 116.871 153.344 117.443C153.364 117.729 153.393 118.015 153.47 118.299C153.543 118.575 153.645 118.884 153.875 119.095C153.836 118.804 153.887 118.531 153.882 118.251C153.89 117.973 153.884 117.695 153.873 117.416C153.836 116.858 153.779 116.3 153.574 115.733Z" fill="#121F2D"/>
<path fill-rule="evenodd" clip-rule="evenodd" d="M146.918 114.979C146.683 115.496 146.623 116.03 146.621 116.564C146.63 116.831 146.651 117.1 146.712 117.366C146.77 117.63 146.868 117.906 147.052 118.128C147.067 117.848 147.114 117.595 147.125 117.334C147.149 117.075 147.151 116.817 147.151 116.557C147.137 116.036 147.1 115.515 146.918 114.979Z" fill="#121F2D"/>
<path fill-rule="evenodd" clip-rule="evenodd" d="M146.248 114.088C145.943 114.694 145.808 115.331 145.732 115.976C145.703 116.3 145.685 116.626 145.713 116.955C145.737 117.279 145.785 117.632 145.973 117.925C145.989 117.593 146.084 117.291 146.126 116.974C146.182 116.662 146.223 116.346 146.26 116.029C146.318 115.394 146.355 114.755 146.248 114.088Z" fill="#121F2D"/>
<path fill-rule="evenodd" clip-rule="evenodd" d="M153.34 119.096C153.611 120.261 154.035 121.388 154.505 122.494C155.002 123.589 155.57 124.658 156.259 125.658C156.948 126.656 157.771 127.569 158.705 128.368C159.666 129.137 160.756 129.757 161.945 130.144L162.287 130.257L162.285 129.896L162.274 128.246L162.272 128.114L162.163 128.04C161.348 127.486 160.564 126.853 159.821 126.193C159.086 125.522 158.361 124.836 157.72 124.076C156.44 122.574 155.356 120.824 155.113 118.82C155.136 119.823 155.418 120.81 155.823 121.735C156.232 122.664 156.821 123.5 157.436 124.304C158.059 125.106 158.76 125.844 159.508 126.529C160.259 127.215 161.036 127.861 161.88 128.452L161.77 128.246L161.758 129.896L162.097 129.647C160.984 129.282 159.943 128.724 159.015 127.998C158.102 127.251 157.319 126.36 156.597 125.422C155.885 124.474 155.282 123.445 154.745 122.384C154.197 121.325 153.729 120.226 153.34 119.096Z" fill="#121F2D"/>
<path fill-rule="evenodd" clip-rule="evenodd" d="M162.371 134.582C162.459 136.588 162.512 138.59 162.534 140.592C162.551 142.596 162.578 144.597 162.517 146.598C162.5 148.6 162.43 150.601 162.338 152.601C162.263 154.603 162.122 156.601 162.021 158.607C162.341 156.625 162.585 154.629 162.746 152.626C162.923 150.624 162.989 148.615 163.048 146.607C163.064 144.598 163.045 142.587 162.941 140.58C162.833 138.574 162.678 136.569 162.371 134.582Z" fill="#121F2D"/>
<path fill-rule="evenodd" clip-rule="evenodd" d="M162.021 162.369C161.776 164.055 161.563 165.74 161.346 167.424L160.699 172.476C160.501 174.162 160.263 175.842 160.035 177.524C159.802 179.205 159.548 180.882 159.293 182.567C159.764 180.928 160.12 179.26 160.438 177.587C160.75 175.913 160.985 174.227 161.225 172.542C161.419 170.851 161.617 169.162 161.75 167.466C161.884 165.77 161.994 164.072 162.021 162.369Z" fill="#121F2D"/>
<path fill-rule="evenodd" clip-rule="evenodd" d="M163.348 184.116C162.596 184.248 161.846 184.291 161.1 184.336C160.351 184.369 159.604 184.378 158.857 184.362C158.108 184.353 157.361 184.306 156.61 184.265L154.343 184.116C155.066 184.357 155.807 184.55 156.562 184.67C157.315 184.797 158.079 184.867 158.846 184.886C159.613 184.892 160.382 184.86 161.142 184.742C161.898 184.626 162.655 184.443 163.348 184.116Z" fill="#121F2D"/>
<path fill-rule="evenodd" clip-rule="evenodd" d="M152.508 174.999C151.037 175.542 149.612 176.132 148.16 176.649C147.436 176.908 146.709 177.161 145.969 177.37C145.229 177.574 144.485 177.77 143.706 177.88C145.283 178.057 146.871 177.657 148.342 177.14C149.815 176.598 151.232 175.907 152.508 174.999Z" fill="#121F2D"/>
<path fill-rule="evenodd" clip-rule="evenodd" d="M148.266 156.759C147.402 157.401 146.673 158.17 145.996 158.983C145.345 159.807 144.696 160.678 144.375 161.71C144.709 161.293 145.064 160.91 145.4 160.51C145.744 160.116 146.074 159.712 146.409 159.311C147.065 158.496 147.714 157.676 148.266 156.759Z" fill="#121F2D"/>
<path fill-rule="evenodd" clip-rule="evenodd" d="M148.107 155.175C147.219 155.725 146.456 156.419 145.751 157.168C145.066 157.925 144.405 158.75 144.041 159.73L146.143 157.521C146.825 156.771 147.508 156.023 148.107 155.175Z" fill="#121F2D"/>
<path fill-rule="evenodd" clip-rule="evenodd" d="M148.606 117.161C148.606 117.632 148.957 118.015 149.39 118.015C149.823 118.015 150.174 117.632 150.174 117.161C150.174 116.689 149.823 116.307 149.39 116.307C148.957 116.307 148.606 116.689 148.606 117.161Z" fill="#38628B"/>
<path fill-rule="evenodd" clip-rule="evenodd" d="M150.456 151.083L149.505 146.297C149.197 144.702 148.859 143.114 148.594 141.513C148.289 139.92 148.022 138.319 147.791 136.715C147.56 135.11 147.365 133.501 147.245 131.876C147.144 133.504 147.237 135.139 147.386 136.762C147.534 138.388 147.807 139.997 148.071 141.606C148.382 143.206 148.713 144.802 149.108 146.383C149.506 147.963 149.934 149.537 150.456 151.083Z" fill="#121F2D"/>
<path fill-rule="evenodd" clip-rule="evenodd" d="M139.991 99.35C139.991 99.35 137.94 104.369 137.264 109.777C137.264 109.777 132.049 108.915 129.314 107.426C129.314 107.426 128.208 105.427 127.096 105.074C125.983 104.722 122.29 103.784 122.29 104.39C122.29 104.996 123.203 105.506 123.203 105.506C123.203 105.506 122.448 105.74 121.257 105.545C120.065 105.349 118.635 105.993 118.635 105.993C118.635 105.993 117.722 106.169 117.245 106.465C116.769 106.759 116.927 107.465 118.834 107.387C118.834 107.387 118.278 107.622 118.476 107.975C118.675 108.328 120.542 108.288 121.774 108.915C123.005 109.542 126.54 109.032 126.54 109.032C126.54 109.032 133.412 114.793 137.304 116.165C141.197 117.536 142.428 114.48 143.342 109.621C144.255 104.761 145.1 97.3871 139.991 99.35Z" fill="#A15122"/>
<path fill-rule="evenodd" clip-rule="evenodd" d="M127.034 105.315C126.805 105.069 126.448 104.981 126.117 104.958C125.78 104.933 125.441 105.009 125.121 105.061C124.48 105.19 123.838 105.314 123.202 105.505C123.859 105.457 124.509 105.342 125.158 105.232C125.482 105.163 125.791 105.097 126.113 105.092C126.427 105.093 126.765 105.123 127.034 105.315Z" fill="#7A3710"/>
<path fill-rule="evenodd" clip-rule="evenodd" d="M121.981 106.464C121.392 106.217 120.76 106.086 120.126 105.999C119.807 105.968 119.486 105.949 119.166 105.957C118.844 105.968 118.525 106.013 118.216 106.092C119.489 106.03 120.727 106.242 121.981 106.464Z" fill="#7A3710"/>
<path fill-rule="evenodd" clip-rule="evenodd" d="M126.803 106.984C126.202 106.659 125.516 106.483 124.817 106.456C124.467 106.437 124.112 106.479 123.767 106.557C123.435 106.637 123.104 106.733 122.778 106.828C122.451 106.933 122.146 107.028 121.825 107.056C121.503 107.092 121.162 107.086 120.829 107.086C120.495 107.086 120.16 107.046 119.808 107.05C119.453 107.06 119.105 107.185 118.833 107.387C119.469 107.058 120.123 107.287 120.812 107.355C121.158 107.394 121.499 107.403 121.854 107.385C122.213 107.365 122.562 107.259 122.883 107.162C123.535 106.966 124.163 106.744 124.818 106.724C125.477 106.696 126.15 106.795 126.803 106.984Z" fill="#7A3710"/>
<path fill-rule="evenodd" clip-rule="evenodd" d="M143.799 120.202C145.355 120.021 146.598 119.97 146.79 120.048C146.982 120.128 147.575 120.146 148.133 120.088C148.692 120.028 150.587 121.289 152.003 121.815C153.419 122.341 153.457 122.071 153.457 122.071C157.095 120.214 162.837 117.116 162.837 117.116L163.354 105.567L160.623 110.869L160.339 114.544C156.886 117.844 145.123 115.676 145.123 115.676L144.186 110.811C144.186 110.811 138.679 102.018 140.171 98.7776C141.664 95.5371 147.187 90.6774 151.043 87.8581C151.043 87.8581 150.139 82.2161 152.363 80.7135C154.587 79.2096 155.417 81.5685 155.417 81.5685C155.417 81.5685 155.663 86.408 157.668 87.8078C159.673 89.2084 168.789 93.4618 169.948 100.177C171.107 106.891 168.948 119.882 168.147 120.42C167.347 120.957 155.301 126.51 151.724 125.661C148.148 124.813 146.79 123.741 146.79 123.741L146.283 123.445C145.665 123.084 144.915 123.016 144.242 123.265C143.82 123.419 143.478 123.444 143.381 123.48C143.202 123.546 141.827 123.975 141.046 123.47C140.849 123.343 141.085 122.926 141.454 122.91C141.642 122.902 141.143 122.853 141.06 122.63C141 122.466 141.395 122.298 141.672 122.14C141.842 122.043 141.49 121.964 141.337 121.815C141.337 121.815 141.73 120.863 143.799 120.202Z" fill="#A15122"/>
<path fill-rule="evenodd" clip-rule="evenodd" d="M146.626 120.957C145.654 121.255 144.7 121.587 143.75 121.925L142.314 122.429C142.075 122.517 141.837 122.609 141.6 122.716C141.481 122.77 141.363 122.825 141.245 122.894C141.185 122.929 141.126 122.966 141.066 123.016C141.011 123.074 140.926 123.113 140.898 123.29C140.918 123.493 141.005 123.52 141.063 123.583C141.127 123.636 141.195 123.673 141.262 123.703C141.397 123.763 141.535 123.801 141.67 123.82C141.943 123.863 142.211 123.854 142.473 123.826C142.996 123.766 143.5 123.62 143.973 123.442C144.878 123.105 145.986 123.096 146.79 123.741C146.451 123.36 145.948 123.145 145.438 123.053C144.919 122.977 144.387 123.041 143.888 123.187C143.402 123.326 142.929 123.47 142.44 123.509C142.199 123.532 141.956 123.533 141.729 123.491C141.613 123.474 141.506 123.439 141.411 123.395C141.364 123.372 141.32 123.346 141.288 123.319C141.253 123.303 141.238 123.233 141.251 123.307C141.222 123.36 141.333 123.226 141.424 123.185C141.522 123.125 141.633 123.07 141.743 123.017C141.965 122.911 142.197 122.816 142.43 122.724C142.895 122.536 143.377 122.387 143.842 122.176C144.779 121.785 145.712 121.387 146.626 120.957Z" fill="#7A3710"/>
<path fill-rule="evenodd" clip-rule="evenodd" d="M147.185 120.277C146.592 120.046 145.924 120.134 145.315 120.269C144.694 120.408 144.118 120.661 143.55 120.917C142.988 121.187 142.439 121.489 141.922 121.831C141.656 122.003 141.421 122.17 141.135 122.32C141.065 122.369 140.984 122.443 140.973 122.557C140.964 122.675 141.05 122.75 141.116 122.794C141.261 122.884 141.423 122.903 141.578 122.91C141.43 122.868 141.279 122.812 141.174 122.72C141.054 122.617 141.097 122.52 141.225 122.467C141.503 122.36 141.792 122.199 142.061 122.062C142.607 121.776 143.148 121.489 143.703 121.232C144.257 120.973 144.816 120.718 145.389 120.526C145.963 120.347 146.569 120.19 147.185 120.277Z" fill="#7A3710"/>
<path fill-rule="evenodd" clip-rule="evenodd" d="M167.136 93.3222C167.136 93.3222 154.438 94.9526 144.893 92.9932C144.893 92.9932 140.739 95.9787 139.914 97.3066C139.089 98.6345 136.547 103.505 136.547 103.505C136.547 103.505 138.606 105.035 141.275 105.229L143.459 110.294C143.459 110.294 143.94 112.065 143.459 113.245C142.978 114.426 142.975 117.607 152.363 117.308C161.751 117.009 162.125 113.91 162.125 113.91C162.125 113.91 160.682 111.502 162.413 107.393C162.413 107.393 174.237 106.079 174.237 105.16C174.237 105.16 171.773 97.0118 167.136 93.3222Z" fill="#E09AFF"/>
<path fill-rule="evenodd" clip-rule="evenodd" d="M156.33 80.9587C156.33 80.9587 155.527 82.543 153.772 83.5824C152.016 84.6218 149.808 86.2061 148.704 85.8596C147.6 85.5131 144.675 83.3016 143.973 80.8267C143.271 78.3518 142.834 74.2262 143.285 72.197C143.737 70.167 146.296 65.9102 150.862 65.9102C155.427 65.9102 159.491 70.6616 158.388 75.909C158.388 75.909 159.656 77.4444 158.57 79.0279C157.484 80.6122 156.33 80.9587 156.33 80.9587Z" fill="#A15122"/>
<path fill-rule="evenodd" clip-rule="evenodd" d="M153.606 77.6419C153.606 77.6419 151.59 77.6908 151.055 78.075C151.055 78.075 150.859 78.1435 150.935 77.8892C150.935 77.8892 150.646 78.0932 150.627 77.9821C150.609 77.871 150.753 76.7939 151.888 76.6458C153.023 76.497 153.876 77.5246 153.606 77.6419Z" fill="#20180F"/>
<path fill-rule="evenodd" clip-rule="evenodd" d="M144.776 77.3573C144.776 77.3573 146.054 77.3385 146.572 77.7213C146.572 77.7213 146.762 77.7897 146.69 77.5362C146.69 77.5362 146.969 77.7401 146.987 77.6291C147.005 77.5173 146.485 76.503 145.386 76.3542C144.287 76.2062 143.998 77.1548 144.776 77.3573Z" fill="#20180F"/>
<path fill-rule="evenodd" clip-rule="evenodd" d="M148.124 81.0943C148.124 81.0943 148.275 81.2187 148.124 81.3416C147.974 81.4659 146.984 81.1195 146.757 80.7974C146.531 80.4754 146.665 80.4391 146.988 80.6242C147.309 80.81 148.124 81.0943 148.124 81.0943Z" fill="#20180F"/>
<path fill-rule="evenodd" clip-rule="evenodd" d="M150.157 82.0972C150.157 82.0972 150.22 81.9861 149.681 81.9861C149.141 81.9861 149.192 82.0846 148.313 82.0972C147.436 82.1097 147.076 82.0972 147.419 82.3193C147.761 82.5428 147.736 82.5302 147.799 82.7035C147.862 82.8767 148.656 83.1869 149.281 82.9759C149.907 82.7657 150.545 82.2068 150.157 82.0972Z" fill="#EE4E2F"/>
<path fill-rule="evenodd" clip-rule="evenodd" d="M153.924 74.7208C153.828 74.6922 153.958 74.8857 153.523 74.8123C153.088 74.7376 151.901 74.6056 150.83 75.2657C150.83 75.2657 150.639 75.1169 150.627 74.8368C150.614 74.5741 152.416 73.6751 153.95 74.6719C154.055 74.7397 154.022 74.7509 153.924 74.7208Z" fill="#20180F"/>
<path fill-rule="evenodd" clip-rule="evenodd" d="M144.776 74.8206C144.776 74.8206 145.411 74.1437 146.482 74.4566C147.552 74.771 147.453 75.2495 147.419 75.3815C147.385 75.5135 146.616 74.8695 145.813 74.8779C145.01 74.8862 144.776 75.0511 144.776 74.8206Z" fill="#20180F"/>
<path fill-rule="evenodd" clip-rule="evenodd" d="M153.47 77.6419C153.47 77.6419 151.455 77.6908 150.919 78.075C150.919 78.075 150.723 78.1435 150.799 77.8892C150.799 77.8892 150.509 78.0932 150.491 77.9821C150.473 77.871 150.617 76.7939 151.751 76.6458C152.887 76.497 153.74 77.5246 153.47 77.6419Z" fill="#20180F"/>
<path fill-rule="evenodd" clip-rule="evenodd" d="M144.64 77.3573C144.64 77.3573 145.919 77.3385 146.436 77.7213C146.436 77.7213 146.627 77.7897 146.554 77.5362C146.554 77.5362 146.833 77.7401 146.851 77.6291C146.869 77.5173 146.349 76.503 145.25 76.3542C144.151 76.2062 143.862 77.1548 144.64 77.3573Z" fill="#20180F"/>
<path fill-rule="evenodd" clip-rule="evenodd" d="M147.99 81.0943C147.99 81.0943 148.14 81.2187 147.99 81.3416C147.839 81.4659 146.848 81.1195 146.622 80.7974C146.397 80.4754 146.53 80.4391 146.853 80.6242C147.175 80.81 147.99 81.0943 147.99 81.0943Z" fill="#20180F"/>
<path fill-rule="evenodd" clip-rule="evenodd" d="M150.021 82.0972C150.021 82.0972 150.084 81.9861 149.544 81.9861C149.005 81.9861 149.056 82.0846 148.178 82.0972C147.299 82.1097 146.94 82.0972 147.283 82.3193C147.626 82.5428 147.6 82.5302 147.663 82.7035C147.726 82.8767 148.52 83.1869 149.146 82.9759C149.771 82.7657 150.409 82.2068 150.021 82.0972Z" fill="#EE4E2F"/>
<path fill-rule="evenodd" clip-rule="evenodd" d="M153.788 74.7208C153.693 74.6922 153.822 74.8857 153.388 74.8123C152.952 74.7376 151.765 74.6056 150.694 75.2657C150.694 75.2657 150.503 75.1169 150.491 74.8368C150.478 74.5741 152.28 73.6751 153.814 74.6719C153.919 74.7397 153.887 74.7509 153.788 74.7208Z" fill="#20180F"/>
<path fill-rule="evenodd" clip-rule="evenodd" d="M144.64 74.8206C144.64 74.8206 145.275 74.1437 146.345 74.4566C147.416 74.771 147.316 75.2495 147.282 75.3815C147.249 75.5135 146.48 74.8695 145.677 74.8779C144.874 74.8862 144.64 75.0511 144.64 74.8206Z" fill="#20180F"/>
<path fill-rule="evenodd" clip-rule="evenodd" d="M155.824 78.8664C155.824 78.8664 156.253 77.331 157.031 76.7743C157.81 76.2182 158.266 76.3237 158.804 76.5891C158.804 76.5891 161.526 72.2275 159.01 67.6989C156.495 63.1703 151.287 64.3466 150.14 65.3476C150.14 65.3476 140.21 65.7835 143.035 74.8393C143.035 74.8393 143.653 71.5744 145.242 70.0935C145.242 70.0935 146.012 73.401 147.497 73.686C147.497 73.686 145.414 71.4675 145.744 69.4327L146.094 69.0666C146.094 69.0666 146.92 73.2173 150.776 73.9096L150.764 73.7866L150.991 73.6832C150.991 73.6832 149.651 73.174 149.14 70.076C149.14 70.076 151.237 73.378 155.571 74.5487C155.571 74.5487 155.834 75.584 155.792 76.7547C155.75 77.9254 155.635 78.8685 155.824 78.8664Z" fill="#6E411D"/>
<path fill-rule="evenodd" clip-rule="evenodd" d="M152.291 65.0908C153.093 65.5435 153.854 66.0548 154.574 66.6101C155.286 67.1718 155.977 67.7655 156.552 68.4599C157.143 69.1388 157.618 69.903 157.967 70.7259C158.298 71.5606 158.414 72.4555 158.42 73.3699C158.562 72.4694 158.515 71.5243 158.222 70.6351C157.914 69.7549 157.411 68.9537 156.821 68.2342C156.204 67.535 155.497 66.9217 154.735 66.395C153.968 65.8753 153.158 65.4149 152.291 65.0908Z" fill="#442812"/>
<path fill-rule="evenodd" clip-rule="evenodd" d="M157.593 75.8054C158.14 75.0545 158.27 74.0584 158.135 73.1419C157.995 72.2129 157.583 71.3481 157.075 70.5741C156.551 69.8183 155.999 69.0778 155.376 68.3968C154.751 67.722 154.081 67.0696 153.288 66.5911C153.989 67.1834 154.594 67.8687 155.169 68.5707C155.74 69.2776 156.285 70.0041 156.78 70.7662C157.297 71.5018 157.68 72.3204 157.869 73.188C158.047 74.0486 158.008 74.9867 157.593 75.8054Z" fill="#442812"/>
<path fill-rule="evenodd" clip-rule="evenodd" d="M156.791 73.7176C155.522 72.7836 154.35 71.7505 153.323 70.5895C152.796 70.0188 152.345 69.3901 151.914 68.7489C151.483 68.1034 151.155 67.4021 150.832 66.6875C151.014 67.4461 151.288 68.1963 151.68 68.8844C152.065 69.5752 152.525 70.2298 153.056 70.82C153.587 71.4089 154.161 71.9593 154.79 72.4441C155.417 72.9282 156.077 73.3739 156.791 73.7176Z" fill="#442812"/>
<path fill-rule="evenodd" clip-rule="evenodd" d="M150.126 67.5029C150.358 68.1512 150.67 68.7666 151.008 69.3666C151.348 69.9667 151.732 70.5443 152.163 71.0878C152.601 71.6243 153.066 72.1475 153.61 72.5883C154.151 73.0283 154.746 73.4146 155.404 73.6458C154.219 72.925 153.285 71.9358 152.442 70.8727C151.597 69.8095 150.854 68.6688 150.126 67.5029Z" fill="#442812"/>
<path fill-rule="evenodd" clip-rule="evenodd" d="M147.11 67.5745C147.041 68.1361 147.067 68.704 147.133 69.267C147.197 69.83 147.327 70.3896 147.528 70.9274C147.739 71.4597 147.998 71.9864 148.389 72.4223C148.776 72.8575 149.263 73.2067 149.81 73.3814C149.327 73.0747 148.925 72.6982 148.604 72.2567C148.287 71.8125 148.054 71.3158 147.86 70.8066C147.472 69.7804 147.272 68.6872 147.11 67.5745Z" fill="#442812"/>
<path fill-rule="evenodd" clip-rule="evenodd" d="M157.554 77.8806C157.554 77.8806 157.676 77.7409 157.672 77.9644C157.667 78.1879 157.724 78.3095 157.79 78.2906C157.856 78.2725 158.168 77.736 157.701 77.4845C157.233 77.233 156.978 77.7318 156.642 78.3514C156.307 78.971 156.435 79.8511 156.76 79.884C157.086 79.9168 156.992 79.6933 156.959 79.2462C156.926 78.7985 157.384 77.9735 157.554 77.8806Z" fill="#7A3710"/>
</g>
<path d="M59.5766 155.022H84.0734L96.3219 134.438L84.0734 113.854H59.5766L47.3281 134.438L59.5766 155.022Z" fill="white"/>
<path d="M59.2805 129.394C59.9047 129.394 60.4106 128.903 60.4106 128.297C60.4106 127.692 59.9047 127.201 59.2805 127.201C58.6564 127.201 58.1504 127.692 58.1504 128.297C58.1504 128.903 58.6564 129.394 59.2805 129.394Z" fill="#6C63FF"/>
<path d="M59.2805 135.534C59.9047 135.534 60.4106 135.043 60.4106 134.438C60.4106 133.832 59.9047 133.341 59.2805 133.341C58.6564 133.341 58.1504 133.832 58.1504 134.438C58.1504 135.043 58.6564 135.534 59.2805 135.534Z" fill="#6C63FF"/>
<path d="M59.2805 141.675C59.9047 141.675 60.4106 141.184 60.4106 140.578C60.4106 139.973 59.9047 139.482 59.2805 139.482C58.6564 139.482 58.1504 139.973 58.1504 140.578C58.1504 141.184 58.6564 141.675 59.2805 141.675Z" fill="#6C63FF"/>
<path d="M85.4996 127.42H64.0273V129.175H85.4996V127.42Z" fill="#6C63FF"/>
<path d="M85.4996 133.561H64.0273V135.315H85.4996V133.561Z" fill="#6C63FF"/>
<path d="M85.4996 139.701H64.0273V141.456H85.4996V139.701Z" fill="#6C63FF"/>
<path d="M102.917 107.421H127.414L139.663 86.8377L127.414 66.2539H102.917L90.6689 86.8377L102.917 107.421Z" fill="white"/>
<path d="M102.621 81.7938C103.245 81.7938 103.751 81.3029 103.751 80.6973C103.751 80.0917 103.245 79.6008 102.621 79.6008C101.997 79.6008 101.491 80.0917 101.491 80.6973C101.491 81.3029 101.997 81.7938 102.621 81.7938Z" fill="#6C63FF"/>
<path d="M102.621 87.9344C103.245 87.9344 103.751 87.4435 103.751 86.838C103.751 86.2324 103.245 85.7415 102.621 85.7415C101.997 85.7415 101.491 86.2324 101.491 86.838C101.491 87.4435 101.997 87.9344 102.621 87.9344Z" fill="#6C63FF"/>
<path d="M102.621 94.0748C103.245 94.0748 103.751 93.5839 103.751 92.9783C103.751 92.3728 103.245 91.8818 102.621 91.8818C101.997 91.8818 101.491 92.3728 101.491 92.9783C101.491 93.5839 101.997 94.0748 102.621 94.0748Z" fill="#6C63FF"/>
<path d="M128.84 79.8203H107.368V81.5747H128.84V79.8203Z" fill="#6C63FF"/>
<path d="M128.84 85.9604H107.368V87.7148H128.84V85.9604Z" fill="#6C63FF"/>
<path d="M128.84 92.1011H107.368V93.8555H128.84V92.1011Z" fill="#6C63FF"/>
<path d="M84.0735 37.9514H59.5765L47.3281 58.5351L59.5765 79.119H84.0735L96.3219 58.5351L84.0735 37.9514Z" fill="#E6E6E6"/>
<path d="M60.9517 76.8086H82.699L93.5726 58.5353L82.699 40.262H60.9517L50.0781 58.5353L60.9517 76.8086Z" fill="white"/>
<path d="M60.6888 54.0574C61.2429 54.0574 61.6921 53.6216 61.6921 53.084C61.6921 52.5464 61.2429 52.1106 60.6888 52.1106C60.1347 52.1106 59.6855 52.5464 59.6855 53.084C59.6855 53.6216 60.1347 54.0574 60.6888 54.0574Z" fill="#E2E2E2"/>
<path d="M60.6888 59.5086C61.2429 59.5086 61.6921 59.0728 61.6921 58.5352C61.6921 57.9976 61.2429 57.5618 60.6888 57.5618C60.1347 57.5618 59.6855 57.9976 59.6855 58.5352C59.6855 59.0728 60.1347 59.5086 60.6888 59.5086Z" fill="#E2E2E2"/>
<path d="M60.6888 64.9598C61.2429 64.9598 61.6921 64.524 61.6921 63.9864C61.6921 63.4488 61.2429 63.0129 60.6888 63.0129C60.1347 63.0129 59.6855 63.4488 59.6855 63.9864C59.6855 64.524 60.1347 64.9598 60.6888 64.9598Z" fill="#E2E2E2"/>
<path d="M83.9644 52.3054H64.9023V53.8629H83.9644V52.3054Z" fill="#E2E2E2"/>
<path d="M83.9644 57.7563H64.9023V59.3138H83.9644V57.7563Z" fill="#E2E2E2"/>
<path d="M83.9644 63.2078H64.9023V64.7652H83.9644V63.2078Z" fill="#E2E2E2"/>
<path d="M84.0735 172.389H59.5765L47.3281 192.973L59.5765 213.557H84.0735L96.3219 192.973L84.0735 172.389Z" fill="#E6E6E6"/>
<path d="M60.9517 211.246H82.699L93.5726 192.973L82.699 174.7H60.9517L50.0781 192.973L60.9517 211.246Z" fill="white"/>
<path d="M60.6888 188.495C61.2429 188.495 61.6921 188.06 61.6921 187.522C61.6921 186.984 61.2429 186.549 60.6888 186.549C60.1347 186.549 59.6855 186.984 59.6855 187.522C59.6855 188.06 60.1347 188.495 60.6888 188.495Z" fill="#E2E2E2"/>
<path d="M60.6888 193.947C61.2429 193.947 61.6921 193.511 61.6921 192.973C61.6921 192.436 61.2429 192 60.6888 192C60.1347 192 59.6855 192.436 59.6855 192.973C59.6855 193.511 60.1347 193.947 60.6888 193.947Z" fill="#E2E2E2"/>
<path d="M60.6888 199.398C61.2429 199.398 61.6921 198.962 61.6921 198.424C61.6921 197.886 61.2429 197.451 60.6888 197.451C60.1347 197.451 59.6855 197.886 59.6855 198.424C59.6855 198.962 60.1347 199.398 60.6888 199.398Z" fill="#E2E2E2"/>
<path d="M83.9644 186.743H64.9023V188.301H83.9644V186.743Z" fill="#E2E2E2"/>
<path d="M83.9644 192.194H64.9023V193.752H83.9644V192.194Z" fill="#E2E2E2"/>
<path d="M83.9644 197.646H64.9023V199.203H83.9644V197.646Z" fill="#E2E2E2"/>
<defs>
<clipPath id="clip0">
<rect width="58.4156" height="140.227" fill="white" transform="matrix(-1 0 0 1 174.838 64.3242)"/>
</clipPath>
</defs>
</svg>
