<svg width="414" height="1319" viewBox="0 0 414 1319" fill="none" xmlns="http://www.w3.org/2000/svg">
<rect x="1.00977" width="412.955" height="1319" fill="#3F3D56" fill-opacity="0.94"/>
<rect x="53.4541" y="16" width="93.5444" height="12" rx="6" fill="#FAFAEF"/>
<rect x="299.463" y="198" width="93.5444" height="12" rx="6" fill="#85453D"/>
<rect x="305.538" y="232" width="93.5444" height="12" rx="6" fill="#E85D5D"/>
<rect x="311.612" y="266" width="93.5444" height="12" rx="6" fill="#FFC850"/>
<rect x="317.687" y="300" width="93.5444" height="12" rx="6" fill="#FAFAEF"/>
<rect x="299.463" y="338" width="93.5444" height="12" rx="6" fill="#85453D"/>
<rect x="305.538" y="372" width="93.5444" height="12" rx="6" fill="#E85D5D"/>
<rect x="311.612" y="406" width="93.5444" height="12" rx="6" fill="#FFC850"/>
<rect x="317.687" y="440" width="93.5444" height="12" rx="6" fill="#FAFAEF"/>
<rect x="317.687" y="580" width="93.5444" height="12" rx="6" fill="#FAFAEF"/>
<rect x="299.463" y="478" width="93.5444" height="12" rx="6" fill="#85453D"/>
<rect x="305.538" y="512" width="93.5444" height="12" rx="6" fill="#E85D5D"/>
<rect x="311.612" y="546" width="93.5444" height="12" rx="6" fill="#FFC850"/>
<rect x="317.687" y="720" width="93.5444" height="12" rx="6" fill="#FAFAEF"/>
<rect x="299.463" y="618" width="93.5444" height="12" rx="6" fill="#85453D"/>
<rect x="305.538" y="652" width="93.5444" height="12" rx="6" fill="#E85D5D"/>
<rect x="311.612" y="686" width="93.5444" height="12" rx="6" fill="#FFC850"/>
<rect x="317.687" y="860" width="93.5444" height="12" rx="6" fill="#FAFAEF"/>
<rect x="299.463" y="758" width="93.5444" height="12" rx="6" fill="#85453D"/>
<rect x="305.538" y="792" width="93.5444" height="12" rx="6" fill="#E85D5D"/>
<rect x="311.612" y="826" width="93.5444" height="12" rx="6" fill="#FFC850"/>
<rect x="317.687" y="1000" width="93.5444" height="12" rx="6" fill="#FAFAEF"/>
<rect x="299.463" y="898" width="93.5444" height="12" rx="6" fill="#85453D"/>
<rect x="305.538" y="932" width="93.5444" height="12" rx="6" fill="#E85D5D"/>
<rect x="311.612" y="966" width="93.5444" height="12" rx="6" fill="#FFC850"/>
<rect x="175.851" y="16" width="93.5444" height="12" rx="6" fill="#FAFAEF"/>
<rect x="304.93" y="11" width="93.5444" height="12" rx="6" fill="#FAFAEF"/>
<rect x="53.4536" y="160" width="93.5444" height="12" rx="6" fill="#FAFAEF"/>
<rect x="35.231" y="58" width="93.5444" height="12" rx="6" fill="#85453D"/>
<rect x="41.3052" y="92" width="93.5444" height="12" rx="6" fill="#E85D5D"/>
<rect x="47.3794" y="126" width="93.5444" height="12" rx="6" fill="#FFC850"/>
<rect x="175.851" y="154" width="93.5444" height="12" rx="6" fill="#FAFAEF"/>
<rect x="157.628" y="52" width="93.5444" height="12" rx="6" fill="#85453D"/>
<rect x="163.703" y="86" width="93.5444" height="12" rx="6" fill="#E85D5D"/>
<rect x="169.777" y="120" width="93.5444" height="12" rx="6" fill="#FFC850"/>
<rect x="304.93" y="154" width="93.5444" height="12" rx="6" fill="#FAFAEF"/>
<rect x="286.708" y="52" width="93.5444" height="12" rx="6" fill="#85453D"/>
<rect x="292.782" y="86" width="93.5444" height="12" rx="6" fill="#E85D5D"/>
<rect x="298.856" y="120" width="93.5444" height="12" rx="6" fill="#FFC850"/>
<rect x="71.7354" y="1145" width="93.5444" height="12" rx="6" fill="#FAFAEF"/>
<rect x="53.5127" y="1043" width="93.5444" height="12" rx="6" fill="#85453D"/>
<rect x="59.5869" y="1077" width="93.5444" height="12" rx="6" fill="#E85D5D"/>
<rect x="65.6611" y="1111" width="93.5444" height="12" rx="6" fill="#FFC850"/>
<rect x="190.876" y="1145" width="93.5444" height="12" rx="6" fill="#FAFAEF"/>
<rect x="172.653" y="1043" width="93.5444" height="12" rx="6" fill="#85453D"/>
<rect x="178.727" y="1077" width="93.5444" height="12" rx="6" fill="#E85D5D"/>
<rect x="184.802" y="1111" width="93.5444" height="12" rx="6" fill="#FFC850"/>
<rect x="324.152" y="1145" width="93.5444" height="12" rx="6" fill="#FAFAEF"/>
<rect x="305.93" y="1043" width="93.5444" height="12" rx="6" fill="#85453D"/>
<rect x="312.004" y="1077" width="93.5444" height="12" rx="6" fill="#E85D5D"/>
<rect x="318.078" y="1111" width="93.5444" height="12" rx="6" fill="#FFC850"/>
<rect x="2.01953" y="1043" width="15.506" height="12" rx="6" fill="#85453D"/>
<rect x="2.01953" y="1077" width="16.4006" height="12" rx="6" fill="#E85D5D"/>
<rect x="2.01953" y="1111" width="17.6155" height="12" rx="6" fill="#FFC850"/>
<rect x="2.93018" y="1145" width="17.6155" height="12" rx="6" fill="#FAFAEF"/>
<rect x="70.7256" y="1288" width="93.5444" height="12" rx="6" fill="#FAFAEF"/>
<rect x="52.5029" y="1186" width="93.5444" height="12" rx="6" fill="#85453D"/>
<rect x="58.5771" y="1220" width="93.5444" height="12" rx="6" fill="#E85D5D"/>
<rect x="64.6514" y="1254" width="93.5444" height="12" rx="6" fill="#FFC850"/>
<rect x="189.866" y="1288" width="93.5444" height="12" rx="6" fill="#FAFAEF"/>
<rect x="171.644" y="1186" width="93.5444" height="12" rx="6" fill="#85453D"/>
<rect x="177.717" y="1220" width="93.5444" height="12" rx="6" fill="#E85D5D"/>
<rect x="183.792" y="1254" width="93.5444" height="12" rx="6" fill="#FFC850"/>
<rect x="323.143" y="1288" width="93.5444" height="12" rx="6" fill="#FAFAEF"/>
<rect x="304.92" y="1186" width="93.5444" height="12" rx="6" fill="#85453D"/>
<rect x="310.994" y="1220" width="93.5444" height="12" rx="6" fill="#E85D5D"/>
<rect x="317.068" y="1254" width="93.5444" height="12" rx="6" fill="#FFC850"/>
<rect x="1.00977" y="1186" width="15.506" height="12" rx="6" fill="#85453D"/>
<rect x="1.00977" y="1220" width="16.4006" height="12" rx="6" fill="#E85D5D"/>
<rect x="1.00977" y="1254" width="17.6155" height="12" rx="6" fill="#FFC850"/>
<rect x="1.9209" y="1288" width="17.6155" height="12" rx="6" fill="#FAFAEF"/>
<rect x="160.666" y="198" width="93.5444" height="12" rx="6" fill="#85453D"/>
<rect x="166.74" y="232" width="93.5444" height="12" rx="6" fill="#E85D5D"/>
<rect x="172.814" y="266" width="93.5444" height="12" rx="6" fill="#FFC850"/>
<rect x="178.888" y="300" width="93.5444" height="12" rx="6" fill="#FAFAEF"/>
<rect x="160.666" y="338" width="93.5444" height="12" rx="6" fill="#85453D"/>
<rect x="166.74" y="372" width="93.5444" height="12" rx="6" fill="#E85D5D"/>
<rect x="172.814" y="406" width="93.5444" height="12" rx="6" fill="#FFC850"/>
<rect x="178.888" y="440" width="93.5444" height="12" rx="6" fill="#FAFAEF"/>
<rect x="178.888" y="580" width="93.5444" height="12" rx="6" fill="#FAFAEF"/>
<rect x="160.666" y="478" width="93.5444" height="12" rx="6" fill="#85453D"/>
<rect x="166.74" y="512" width="93.5444" height="12" rx="6" fill="#E85D5D"/>
<rect x="172.814" y="546" width="93.5444" height="12" rx="6" fill="#FFC850"/>
<rect x="178.888" y="720" width="93.5444" height="12" rx="6" fill="#FAFAEF"/>
<rect x="160.666" y="618" width="93.5444" height="12" rx="6" fill="#85453D"/>
<rect x="166.74" y="652" width="93.5444" height="12" rx="6" fill="#E85D5D"/>
<rect x="172.814" y="686" width="93.5444" height="12" rx="6" fill="#FFC850"/>
<rect x="178.888" y="860" width="93.5444" height="12" rx="6" fill="#FAFAEF"/>
<rect x="160.666" y="758" width="93.5444" height="12" rx="6" fill="#85453D"/>
<rect x="166.74" y="792" width="93.5444" height="12" rx="6" fill="#E85D5D"/>
<rect x="172.814" y="826" width="93.5444" height="12" rx="6" fill="#FFC850"/>
<rect x="178.888" y="1000" width="93.5444" height="12" rx="6" fill="#FAFAEF"/>
<rect x="160.666" y="898" width="93.5444" height="12" rx="6" fill="#85453D"/>
<rect x="166.74" y="932" width="93.5444" height="12" rx="6" fill="#E85D5D"/>
<rect x="172.814" y="966" width="93.5444" height="12" rx="6" fill="#FFC850"/>
<rect x="35.231" y="198" width="93.5444" height="12" rx="6" fill="#85453D"/>
<rect x="41.3052" y="232" width="93.5444" height="12" rx="6" fill="#E85D5D"/>
<rect x="47.3794" y="266" width="93.5444" height="12" rx="6" fill="#FFC850"/>
<rect x="53.4536" y="300" width="93.5444" height="12" rx="6" fill="#FAFAEF"/>
<rect x="35.231" y="338" width="93.5444" height="12" rx="6" fill="#85453D"/>
<rect x="41.3052" y="372" width="93.5444" height="12" rx="6" fill="#E85D5D"/>
<rect x="47.3794" y="406" width="93.5444" height="12" rx="6" fill="#FFC850"/>
<rect x="53.4536" y="440" width="93.5444" height="12" rx="6" fill="#FAFAEF"/>
<rect x="53.4536" y="580" width="93.5444" height="12" rx="6" fill="#FAFAEF"/>
<rect x="35.231" y="478" width="93.5444" height="12" rx="6" fill="#85453D"/>
<rect x="41.3052" y="512" width="93.5444" height="12" rx="6" fill="#E85D5D"/>
<rect x="47.3794" y="546" width="93.5444" height="12" rx="6" fill="#FFC850"/>
<rect x="53.4536" y="720" width="93.5444" height="12" rx="6" fill="#FAFAEF"/>
<rect x="35.231" y="618" width="93.5444" height="12" rx="6" fill="#85453D"/>
<rect x="41.3052" y="652" width="93.5444" height="12" rx="6" fill="#E85D5D"/>
<rect x="47.3794" y="686" width="93.5444" height="12" rx="6" fill="#FFC850"/>
<rect x="53.4536" y="860" width="93.5444" height="12" rx="6" fill="#FAFAEF"/>
<rect x="35.231" y="758" width="93.5444" height="12" rx="6" fill="#85453D"/>
<rect x="41.3052" y="792" width="93.5444" height="12" rx="6" fill="#E85D5D"/>
<rect x="47.3794" y="826" width="93.5444" height="12" rx="6" fill="#FFC850"/>
<rect x="53.4536" y="1000" width="93.5444" height="12" rx="6" fill="#FAFAEF"/>
<rect x="35.231" y="898" width="93.5444" height="12" rx="6" fill="#85453D"/>
<rect x="41.3052" y="932" width="93.5444" height="12" rx="6" fill="#E85D5D"/>
<rect x="47.3794" y="966" width="93.5444" height="12" rx="6" fill="#FFC850"/>
<rect x="0.607422" y="198" width="15.506" height="12" rx="6" fill="#85453D"/>
<rect x="0.607422" y="232" width="16.4006" height="12" rx="6" fill="#E85D5D"/>
<rect x="0.607422" y="266" width="17.6155" height="12" rx="6" fill="#FFC850"/>
<rect x="1.51855" y="300" width="17.6155" height="12" rx="6" fill="#FAFAEF"/>
<rect x="0.607422" y="52" width="15.506" height="12" rx="6" fill="#85453D"/>
<rect x="0.607422" y="86" width="16.4006" height="12" rx="6" fill="#E85D5D"/>
<rect x="0.607422" y="120" width="17.6155" height="12" rx="6" fill="#FFC850"/>
<rect x="1.51855" y="154" width="17.6155" height="12" rx="6" fill="#FAFAEF"/>
<rect x="1.51855" y="16" width="17.6155" height="12" rx="6" fill="#FAFAEF"/>
<rect y="338" width="15.506" height="12" rx="6" fill="#85453D"/>
<rect y="372" width="16.4006" height="12" rx="6" fill="#E85D5D"/>
<rect y="406" width="17.6155" height="12" rx="6" fill="#FFC850"/>
<rect x="0.911133" y="440" width="17.6155" height="12" rx="6" fill="#FAFAEF"/>
<rect y="478" width="15.506" height="12" rx="6" fill="#85453D"/>
<rect y="512" width="16.4006" height="12" rx="6" fill="#E85D5D"/>
<rect y="546" width="17.6155" height="12" rx="6" fill="#FFC850"/>
<rect x="0.911133" y="580" width="17.6155" height="12" rx="6" fill="#FAFAEF"/>
<rect x="0.911133" y="758" width="15.506" height="12" rx="6" fill="#85453D"/>
<rect x="0.911133" y="792" width="16.4006" height="12" rx="6" fill="#E85D5D"/>
<rect x="0.911133" y="826" width="17.6155" height="12" rx="6" fill="#FFC850"/>
<rect x="1.82227" y="860" width="17.6155" height="12" rx="6" fill="#FAFAEF"/>
<rect x="0.911133" y="618" width="15.506" height="12" rx="6" fill="#85453D"/>
<rect x="0.911133" y="652" width="16.4006" height="12" rx="6" fill="#E85D5D"/>
<rect x="0.911133" y="686" width="17.6155" height="12" rx="6" fill="#FFC850"/>
<rect x="1.82227" y="720" width="17.6155" height="12" rx="6" fill="#FAFAEF"/>
<rect x="0.607422" y="900" width="15.506" height="12" rx="6" fill="#85453D"/>
<rect x="0.607422" y="934" width="16.4006" height="12" rx="6" fill="#E85D5D"/>
<rect x="0.607422" y="968" width="17.6155" height="12" rx="6" fill="#FFC850"/>
<rect x="1.51855" y="1002" width="17.6155" height="12" rx="6" fill="#FAFAEF"/>
<rect width="413.964" height="1319" fill="#3F3D56" fill-opacity="0.5"/>
</svg>
