<svg width="14" height="7" viewBox="0 0 14 7" fill="none" xmlns="http://www.w3.org/2000/svg">
<path d="M13.8601 0.704001L13.1588 0.117381C13.0653 0.0390449 12.9577 0 12.8359 0C12.7145 0 12.6069 0.0390449 12.5135 0.117381L7.00007 4.72892L1.48692 0.117505C1.39342 0.0391683 1.28582 0.000123232 1.16426 0.000123232C1.04265 0.000123232 0.93504 0.0391683 0.841585 0.117505L0.14033 0.704166C0.0466783 0.782338 0 0.872347 0 0.974069C0 1.07571 0.0468257 1.16572 0.14033 1.24389L6.6774 6.71208C6.77086 6.79029 6.87851 6.82938 7.00007 6.82938C7.12163 6.82938 7.22909 6.79029 7.3225 6.71208L13.8601 1.24389C13.9536 1.16568 14 1.07567 14 0.974069C14 0.872347 13.9536 0.782338 13.8601 0.704001Z" fill="#AA614D"/>
</svg>
