<svg width="164" height="25" viewBox="0 0 164 25" fill="none" xmlns="http://www.w3.org/2000/svg">
<g clip-path="url(#clip0)">
<path d="M11.7143 23.9657C8.58537 23.9657 5.64353 22.7193 3.43102 20.4559C1.21851 18.1928 0 15.1836 0 11.9828C0 8.78214 1.21851 5.77291 3.43102 3.50968C5.64353 1.24645 8.58537 0 11.7143 0C14.8432 0 17.785 1.24645 19.9975 3.50968C22.2101 5.77291 23.4286 8.78214 23.4286 11.9828C23.4286 15.1836 22.2101 18.1928 19.9975 20.4559C17.785 22.7193 14.8432 23.9657 11.7143 23.9657ZM11.7143 1.87232C6.26433 1.87232 1.83035 6.40795 1.83035 11.9828C1.83035 17.5577 6.26433 22.0934 11.7143 22.0934C17.1642 22.0934 21.5983 17.5577 21.5983 11.9828C21.5983 6.40795 17.1642 1.87232 11.7143 1.87232ZM16.5354 16.9145L15.2412 15.5905C13.2964 17.5799 10.1322 17.5799 8.18742 15.5905C6.2427 13.6011 6.2427 10.3645 8.18742 8.37514C10.1322 6.38582 13.2964 6.38582 15.2412 8.37514L16.5354 7.05119C13.8769 4.33194 9.55143 4.33194 6.89315 7.05119C4.23485 9.77064 4.23485 14.1952 6.89315 16.9145C8.22229 18.2741 9.96832 18.9539 11.7143 18.9539C13.4601 18.9539 15.2063 18.2741 16.5354 16.9145Z" fill="#FAFAEF"/>
</g>
<path d="M36.7712 10.6758L33.3728 13.8691L36.9617 18H35.4382L32.5378 14.6602L31.4978 15.627V18H30.2966V7.45312H31.4978V14.25L35.1453 10.6758H36.7712ZM44.2712 10.6758V15.0117C44.2712 15.6562 44.1345 16.2129 43.8611 16.6816C43.5876 17.1504 43.2166 17.5117 42.7478 17.7656C42.2791 18.0195 41.7517 18.1465 41.1658 18.1465C40.5798 18.1465 40.0525 18.0195 39.5837 17.7656C39.115 17.5117 38.7439 17.1504 38.4705 16.6816C38.197 16.2129 38.0603 15.6562 38.0603 15.0117V10.6758H39.3054V15.0117C39.3054 15.6465 39.491 16.1348 39.8621 16.4766C40.2429 16.8086 40.6775 16.9746 41.1658 16.9746C41.6541 16.9746 42.0837 16.8086 42.4548 16.4766C42.8357 16.1348 43.0261 15.6465 43.0261 15.0117V10.6758H44.2712ZM47.7429 7.45312V18H46.5417V7.45312H47.7429ZM52.2546 8.56641V10.6758H54.3933V11.8037H52.2546V16.0957C52.2546 16.3984 52.3328 16.6377 52.489 16.8135C52.6453 16.9893 52.8845 17.0771 53.2068 17.0771C53.4998 17.0771 53.7439 17.043 53.9392 16.9746C54.1345 16.8965 54.3054 16.8135 54.4519 16.7256V17.707C54.2566 17.8633 54.0466 17.9854 53.822 18.0732C53.6072 18.1709 53.3142 18.2197 52.9431 18.2197C52.3181 18.2197 51.8445 18.0342 51.5222 17.6631C51.2097 17.2822 51.0535 16.7793 51.0535 16.1543V11.8037H49.6472V11.4521C50.1257 11.2373 50.5261 10.8857 50.8484 10.3975C51.1707 9.89941 51.4539 9.28906 51.698 8.56641H52.2546ZM62.5671 10.6758V15.0117C62.5671 15.6562 62.4304 16.2129 62.157 16.6816C61.8835 17.1504 61.5125 17.5117 61.0437 17.7656C60.575 18.0195 60.0476 18.1465 59.4617 18.1465C58.8757 18.1465 58.3484 18.0195 57.8796 17.7656C57.4109 17.5117 57.0398 17.1504 56.7664 16.6816C56.4929 16.2129 56.3562 15.6562 56.3562 15.0117V10.6758H57.6013V15.0117C57.6013 15.6465 57.7869 16.1348 58.158 16.4766C58.5388 16.8086 58.9734 16.9746 59.4617 16.9746C59.95 16.9746 60.3796 16.8086 60.7507 16.4766C61.1316 16.1348 61.322 15.6465 61.322 15.0117V10.6758H62.5671ZM66.0388 10.6758V12.1406C66.322 11.6523 66.6638 11.2617 67.0642 10.9688C67.4646 10.6758 67.8748 10.5293 68.2947 10.5293C68.5779 10.5293 68.8318 10.5781 69.0564 10.6758V12.0674C68.7439 11.8818 68.4314 11.7891 68.1189 11.7891C67.6208 11.7891 67.2156 11.9648 66.9031 12.3164C66.6003 12.668 66.3123 13.0879 66.0388 13.5762V18H64.8376V10.6758H66.0388ZM73.6121 10.5293C74.364 10.5293 74.989 10.6855 75.4871 10.998C75.9851 11.3105 76.3562 11.7354 76.6003 12.2725C76.8542 12.8096 76.9812 13.415 76.9812 14.0889V14.8066H71.3562C71.4148 15.2168 71.5564 15.5928 71.781 15.9346C72.0056 16.2764 72.2986 16.5498 72.6599 16.7549C73.0212 16.9502 73.4363 17.0479 73.905 17.0479C74.4324 17.0479 74.9255 16.916 75.3845 16.6523C75.8435 16.3789 76.2292 16.0811 76.5417 15.7588L76.5271 17.0625C76.3904 17.2285 76.1853 17.4043 75.9119 17.5898C75.6482 17.7656 75.3406 17.9121 74.989 18.0293C74.6472 18.1562 74.2859 18.2197 73.905 18.2197C73.1628 18.2197 72.5037 18.0439 71.9275 17.6924C71.3513 17.3408 70.8972 16.877 70.5652 16.3008C70.2429 15.7148 70.0818 15.0752 70.0818 14.3818C70.0818 13.6885 70.2332 13.0488 70.5359 12.4629C70.8386 11.877 71.2537 11.4082 71.781 11.0566C72.3181 10.7051 72.9285 10.5293 73.6121 10.5293ZM73.6121 11.7012C73.0066 11.7012 72.5085 11.9062 72.1179 12.3164C71.7273 12.7168 71.4832 13.2051 71.3855 13.7812H75.7947C75.7458 13.3027 75.6091 12.9121 75.3845 12.6094C75.1697 12.3066 74.906 12.082 74.5935 11.9355C74.281 11.7793 73.9539 11.7012 73.6121 11.7012ZM82.7527 10.6758V11.8037H80.614V18H79.4128V11.8037H78.2556V10.6758H79.4128V9.73828C79.4128 9.16211 79.5251 8.69336 79.7498 8.33203C79.9744 7.96094 80.2625 7.6875 80.614 7.51172C80.9656 7.32617 81.322 7.2334 81.6833 7.2334C82.1814 7.2334 82.5867 7.36523 82.8992 7.62891V8.68359C82.7527 8.58594 82.5769 8.50781 82.3718 8.44922C82.1667 8.39062 81.9617 8.36621 81.7566 8.37598C81.3953 8.38574 81.1121 8.50293 80.907 8.72754C80.7117 8.94238 80.614 9.32324 80.614 9.87012V10.6758H82.7527ZM85.5505 10.6758V12.1406C85.8337 11.6523 86.1755 11.2617 86.5759 10.9688C86.9763 10.6758 87.3865 10.5293 87.8064 10.5293C88.0896 10.5293 88.3435 10.5781 88.5681 10.6758V12.0674C88.2556 11.8818 87.9431 11.7891 87.6306 11.7891C87.1326 11.7891 86.7273 11.9648 86.4148 12.3164C86.1121 12.668 85.824 13.0879 85.5505 13.5762V18H84.3494V10.6758H85.5505ZM93.1238 10.5293C93.8757 10.5293 94.5007 10.6855 94.9988 10.998C95.4968 11.3105 95.8679 11.7354 96.1121 12.2725C96.366 12.8096 96.4929 13.415 96.4929 14.0889V14.8066H90.8679C90.9265 15.2168 91.0681 15.5928 91.2927 15.9346C91.5173 16.2764 91.8103 16.5498 92.1716 16.7549C92.533 16.9502 92.948 17.0479 93.4167 17.0479C93.9441 17.0479 94.4373 16.916 94.8962 16.6523C95.3552 16.3789 95.741 16.0811 96.0535 15.7588L96.0388 17.0625C95.9021 17.2285 95.697 17.4043 95.4236 17.5898C95.1599 17.7656 94.8523 17.9121 94.5007 18.0293C94.1589 18.1562 93.7976 18.2197 93.4167 18.2197C92.6746 18.2197 92.0154 18.0439 91.4392 17.6924C90.863 17.3408 90.4089 16.877 90.0769 16.3008C89.7546 15.7148 89.5935 15.0752 89.5935 14.3818C89.5935 13.6885 89.7449 13.0488 90.0476 12.4629C90.3503 11.877 90.7654 11.4082 91.2927 11.0566C91.8298 10.7051 92.4402 10.5293 93.1238 10.5293ZM93.1238 11.7012C92.5183 11.7012 92.0203 11.9062 91.6296 12.3164C91.239 12.7168 90.9949 13.2051 90.8972 13.7812H95.3064C95.2576 13.3027 95.1208 12.9121 94.8962 12.6094C94.6814 12.3066 94.4177 12.082 94.1052 11.9355C93.7927 11.7793 93.4656 11.7012 93.1238 11.7012ZM100.653 10.5293C101.083 10.5293 101.483 10.5928 101.854 10.7197C102.225 10.8369 102.494 10.959 102.66 11.0859V12.375C102.455 12.2188 102.177 12.0674 101.825 11.9209C101.473 11.7744 101.112 11.7012 100.741 11.7012C100.282 11.7012 99.9353 11.8086 99.7009 12.0234C99.4763 12.2383 99.364 12.4629 99.364 12.6973C99.364 12.8828 99.4275 13.0732 99.5544 13.2686C99.6912 13.4541 99.9255 13.6055 100.258 13.7227L101.488 14.1621C101.967 14.3281 102.323 14.5674 102.557 14.8799C102.792 15.1924 102.909 15.5586 102.909 15.9785C102.909 16.3887 102.792 16.7646 102.557 17.1064C102.333 17.4482 102.015 17.7217 101.605 17.9268C101.205 18.1221 100.741 18.2197 100.214 18.2197C99.9304 18.2197 99.6326 18.1807 99.3201 18.1025C99.0173 18.0342 98.7439 17.9512 98.4998 17.8535C98.2556 17.7461 98.075 17.6533 97.9578 17.5752V16.2861C98.0945 16.3838 98.2849 16.4961 98.5291 16.623C98.783 16.7402 99.0515 16.8428 99.3347 16.9307C99.6179 17.0088 99.8816 17.0479 100.126 17.0479C100.585 17.0479 100.946 16.9453 101.21 16.7402C101.483 16.5352 101.62 16.2812 101.62 15.9785C101.62 15.7441 101.527 15.5586 101.342 15.4219C101.166 15.2852 100.907 15.1533 100.565 15.0264L99.4812 14.6309C98.9148 14.416 98.5388 14.1475 98.3533 13.8252C98.1677 13.4932 98.075 13.1172 98.075 12.6973C98.075 12.0723 98.3093 11.5547 98.7781 11.1445C99.2468 10.7344 99.8718 10.5293 100.653 10.5293ZM108.329 10.5293C108.827 10.5293 109.281 10.6416 109.691 10.8662C110.101 11.0811 110.428 11.4131 110.673 11.8623C110.917 12.3018 111.039 12.8584 111.039 13.5322V18H109.838L109.823 13.6494C109.823 13.0146 109.681 12.5312 109.398 12.1992C109.125 11.8672 108.7 11.7012 108.124 11.7012C107.733 11.7012 107.343 11.8477 106.952 12.1406C106.571 12.4238 106.234 12.7559 105.941 13.1367V18H104.74V7.45312H105.941V11.833C106.097 11.6377 106.298 11.4424 106.542 11.2471C106.786 11.042 107.059 10.8711 107.362 10.7344C107.675 10.5977 107.997 10.5293 108.329 10.5293ZM120.209 7.96582C120.853 7.96582 121.42 8.08301 121.908 8.31738C122.396 8.55176 122.777 8.88867 123.051 9.32812C123.324 9.75781 123.461 10.2705 123.461 10.8662C123.461 11.501 123.3 12.1064 122.977 12.6826C122.655 13.249 122.196 13.8545 121.6 14.499C121.014 15.1436 120.316 15.9053 119.506 16.7842H123.534V18H117.382V17.4727C118.378 16.3594 119.237 15.417 119.96 14.6455C120.682 13.8643 121.239 13.1953 121.63 12.6387C122.02 12.082 122.216 11.5889 122.216 11.1592C122.216 10.5244 122.006 10.0508 121.586 9.73828C121.176 9.41602 120.677 9.25488 120.092 9.25488C119.613 9.25488 119.159 9.37695 118.729 9.62109C118.309 9.85547 117.958 10.0996 117.675 10.3535V8.97656C117.928 8.74219 118.275 8.51758 118.715 8.30273C119.154 8.07812 119.652 7.96582 120.209 7.96582ZM128.588 7.96582C129.222 7.96582 129.769 8.1123 130.228 8.40527C130.697 8.69824 131.083 9.09375 131.385 9.5918C131.688 10.0801 131.913 10.627 132.059 11.2324C132.216 11.8379 132.294 12.458 132.294 13.0928C132.294 13.7178 132.216 14.3379 132.059 14.9531C131.913 15.5586 131.688 16.1104 131.385 16.6084C131.083 17.0967 130.697 17.4873 130.228 17.7803C129.769 18.0732 129.222 18.2197 128.588 18.2197C127.963 18.2197 127.416 18.0732 126.947 17.7803C126.478 17.4873 126.093 17.0967 125.79 16.6084C125.487 16.1104 125.258 15.5586 125.101 14.9531C124.955 14.3379 124.882 13.7178 124.882 13.0928C124.882 12.458 124.955 11.8379 125.101 11.2324C125.258 10.627 125.487 10.0801 125.79 9.5918C126.093 9.09375 126.478 8.69824 126.947 8.40527C127.416 8.1123 127.963 7.96582 128.588 7.96582ZM128.588 9.25488C128.187 9.25488 127.831 9.36719 127.518 9.5918C127.216 9.80664 126.962 10.0996 126.757 10.4707C126.552 10.832 126.395 11.2422 126.288 11.7012C126.18 12.1504 126.127 12.6143 126.127 13.0928C126.127 13.5713 126.18 14.04 126.288 14.499C126.395 14.9482 126.552 15.3584 126.757 15.7295C126.962 16.0908 127.216 16.3838 127.518 16.6084C127.831 16.8232 128.187 16.9307 128.588 16.9307C128.988 16.9307 129.34 16.8232 129.642 16.6084C129.955 16.3838 130.214 16.0908 130.419 15.7295C130.624 15.3584 130.78 14.9482 130.887 14.499C130.995 14.04 131.049 13.5713 131.049 13.0928C131.049 12.6143 130.995 12.1504 130.887 11.7012C130.78 11.2422 130.624 10.832 130.419 10.4707C130.214 10.0996 129.955 9.80664 129.642 9.5918C129.34 9.36719 128.988 9.25488 128.588 9.25488ZM136.322 7.96582C136.967 7.96582 137.533 8.08301 138.021 8.31738C138.51 8.55176 138.89 8.88867 139.164 9.32812C139.437 9.75781 139.574 10.2705 139.574 10.8662C139.574 11.501 139.413 12.1064 139.091 12.6826C138.768 13.249 138.309 13.8545 137.714 14.499C137.128 15.1436 136.429 15.9053 135.619 16.7842H139.647V18H133.495V17.4727C134.491 16.3594 135.35 15.417 136.073 14.6455C136.796 13.8643 137.352 13.1953 137.743 12.6387C138.134 12.082 138.329 11.5889 138.329 11.1592C138.329 10.5244 138.119 10.0508 137.699 9.73828C137.289 9.41602 136.791 9.25488 136.205 9.25488C135.726 9.25488 135.272 9.37695 134.843 9.62109C134.423 9.85547 134.071 10.0996 133.788 10.3535V8.97656C134.042 8.74219 134.388 8.51758 134.828 8.30273C135.267 8.07812 135.765 7.96582 136.322 7.96582ZM147.528 16.8281V18H142.211V16.8281H144.159V10.4414C143.866 10.6953 143.563 10.8711 143.251 10.9688C142.938 11.0664 142.626 11.1445 142.313 11.2031V9.94336C142.88 9.79688 143.373 9.55762 143.793 9.22559C144.213 8.89355 144.559 8.54688 144.833 8.18555H145.477V16.8281H147.528Z" fill="#FAFAEF"/>
<defs>
<clipPath id="clip0">
<rect width="23.4286" height="25" fill="white"/>
</clipPath>
</defs>
</svg>
