<svg width="40" height="38" viewBox="0 0 40 38" fill="none" xmlns="http://www.w3.org/2000/svg">
<path d="M38.4375 17.5156H1.5625C0.699531 17.5156 0 18.1802 0 19C0 19.8198 0.699531 20.4844 1.5625 20.4844H38.4375C39.3005 20.4844 40 19.8198 40 19C40 18.1802 39.3005 17.5156 38.4375 17.5156Z" fill="#EE4E2F"/>
<path d="M38.4375 5.64062H1.5625C0.699531 5.64062 0 6.30518 0 7.125C0 7.94482 0.699531 8.60938 1.5625 8.60938H38.4375C39.3005 8.60938 40 7.94482 40 7.125C40 6.30518 39.3005 5.64062 38.4375 5.64062Z" fill="#EE4E2F"/>
<path d="M38.4375 29.3906H1.5625C0.699531 29.3906 0 30.0552 0 30.875C0 31.6948 0.699531 32.3594 1.5625 32.3594H38.4375C39.3005 32.3594 40 31.6948 40 30.875C40 30.0552 39.3005 29.3906 38.4375 29.3906Z" fill="#EE4E2F"/>
</svg>
