<svg width="382" height="1904" viewBox="0 0 382 1904" fill="none" xmlns="http://www.w3.org/2000/svg">
<rect x="7.97363" y="186" width="368.781" height="187" fill="#D3BBA3"/>
<rect x="26.959" width="350.242" height="187.486" fill="#291200"/>
<path d="M106.552 130.999L193.649 230.899H19.4544L106.552 130.999Z" fill="#863B37"/>
<path d="M106.546 330.215L21.154 229.642L195.337 231.001L106.546 330.215Z" fill="#863B37"/>
<path d="M105.675 145.326L179.269 229.737H32.0813L105.675 145.326Z" fill="#225D04"/>
<path d="M105.67 313.655L33.5172 228.675L180.695 229.823L105.67 313.655Z" fill="#225D04"/>
<path d="M105.324 161.697L165.415 230.621H45.234L105.324 161.697Z" fill="#D79000"/>
<path d="M105.32 299.141L46.4057 229.753L166.578 230.691L105.32 299.141Z" fill="#D79000"/>
<path d="M105.441 171.93L156.529 230.528H54.353L105.441 171.93Z" fill="#291200"/>
<path d="M105.438 288.782L55.3498 229.79L157.519 230.587L105.438 288.782Z" fill="#291200"/>
<path d="M104.795 184.209L144.855 230.158H64.7349L104.795 184.209Z" fill="#D3BBA3"/>
<path d="M104.793 275.837L65.5166 229.579L145.631 230.204L104.793 275.837Z" fill="#D3BBA3"/>
<path d="M105.442 196.488L136.05 231.595H74.8346L105.442 196.488Z" fill="#291200"/>
<path d="M105.441 266.496L75.4324 231.152L136.644 231.63L105.441 266.496Z" fill="#291200"/>
<path d="M278.024 135L365.121 234.9H190.927L278.024 135Z" fill="#863B37"/>
<path d="M278.019 334.215L192.626 233.642L366.809 235.001L278.019 334.215Z" fill="#863B37"/>
<path d="M277.147 149.326L350.741 233.737H203.553L277.147 149.326Z" fill="#225D04"/>
<path d="M277.143 317.655L204.99 232.675L352.167 233.823L277.143 317.655Z" fill="#225D04"/>
<path d="M276.796 165.697L336.887 234.621H216.706L276.796 165.697Z" fill="#D79000"/>
<path d="M276.793 303.141L217.878 233.753L338.051 234.691L276.793 303.141Z" fill="#D79000"/>
<path d="M276.913 175.93L328.001 234.528H225.825L276.913 175.93Z" fill="#291200"/>
<path d="M276.91 292.782L226.822 233.79L328.991 234.587L276.91 292.782Z" fill="#291200"/>
<path d="M276.267 188.209L316.327 234.158H236.207L276.267 188.209Z" fill="#D3BBA3"/>
<path d="M276.265 279.837L236.989 233.579L317.104 234.204L276.265 279.837Z" fill="#D3BBA3"/>
<path d="M276.915 200.488L307.523 235.595H246.307L276.915 200.488Z" fill="#291200"/>
<path d="M276.913 270.496L246.905 235.152L308.116 235.63L276.913 270.496Z" fill="#291200"/>
<rect x="5.98047" y="1" width="373.044" height="187" fill="#291200"/>
<ellipse rx="9.12091" ry="9.5656" transform="matrix(-0.999965 0.00832476 -0.00756869 -0.999971 307.647 122.224)" fill="#E9CDB3"/>
<ellipse rx="9.12091" ry="9.5656" transform="matrix(-0.999965 0.00832476 -0.00756869 -0.999971 219.112 114.352)" fill="#E9CDB3"/>
<ellipse rx="9.12091" ry="9.5656" transform="matrix(-0.999965 0.00832476 -0.00756869 -0.999971 361.379 111.254)" fill="#D49A52"/>
<ellipse rx="9.12091" ry="9.5656" transform="matrix(-0.999965 0.00832476 -0.00756869 -0.999971 272.844 103.382)" fill="#D49A52"/>
<ellipse rx="9.12091" ry="9.5656" transform="matrix(-0.999965 0.00832476 -0.00756869 -0.999971 184.309 95.5096)" fill="#D49A52"/>
<ellipse rx="9.12091" ry="9.5656" transform="matrix(-0.999965 0.00832476 -0.00756869 -0.999971 95.7743 87.6376)" fill="#D49A52"/>
<ellipse rx="9.12091" ry="9.5656" transform="matrix(-0.999965 0.00832476 -0.00756869 -0.999971 338.823 143.966)" fill="#D49A52"/>
<ellipse rx="9.12091" ry="9.5656" transform="matrix(-0.999965 0.00832476 -0.00756869 -0.999971 241.052 109.291)" fill="#D49A52"/>
<ellipse rx="9.12091" ry="9.5656" transform="matrix(-0.999965 0.00832476 -0.00756869 -0.999971 152.517 101.419)" fill="#E9CDB3"/>
<ellipse rx="9.12091" ry="9.5656" transform="matrix(-0.999965 0.00832476 -0.00756869 -0.999971 73.2191 120.349)" fill="#E9CDB3"/>
<ellipse rx="9.12091" ry="9.5656" transform="matrix(-0.999965 0.00832476 -0.00756869 -0.999971 52.4589 149.22)" fill="#E9CDB3"/>
<ellipse rx="9.48361" ry="9.20612" transform="matrix(-0.41005 0.912377 -0.896179 -0.443007 183.669 160.857)" fill="#E9CDB3"/>
<ellipse rx="9.48361" ry="9.20612" transform="matrix(-0.41005 0.912377 -0.896179 -0.443007 312.596 172.342)" fill="#E9CDB3"/>
<ellipse rx="9.12091" ry="9.5656" transform="matrix(-0.999965 0.00832476 -0.00756869 -0.999971 295.45 77.3661)" fill="#E9CDB3"/>
<ellipse rx="9.12091" ry="9.5656" transform="matrix(-0.999965 0.00832476 -0.00756869 -0.999971 206.915 69.4935)" fill="#E9CDB3"/>
<ellipse rx="9.12091" ry="9.5656" transform="matrix(-0.999965 0.00832476 -0.00756869 -0.999971 118.38 61.6214)" fill="#E9CDB3"/>
<ellipse rx="9.12091" ry="9.5656" transform="matrix(-0.999965 0.00832476 -0.00756869 -0.999971 349.182 66.3963)" fill="#FFC850"/>
<ellipse rx="9.12091" ry="9.5656" transform="matrix(-0.999965 0.00832476 -0.00756869 -0.999971 260.647 58.5238)" fill="#FFC850"/>
<ellipse rx="9.12091" ry="9.5656" transform="matrix(-0.999965 0.00832476 -0.00756869 -0.999971 172.112 50.6517)" fill="#FFC850"/>
<ellipse rx="9.12091" ry="9.5656" transform="matrix(-0.999965 0.00832476 -0.00756869 -0.999971 83.5775 42.7792)" fill="#FFC850"/>
<ellipse rx="9.12091" ry="9.5656" transform="matrix(-0.999965 0.00832476 -0.00756869 -0.999971 326.626 99.1083)" fill="#FFC850"/>
<ellipse rx="9.12091" ry="9.5656" transform="matrix(-0.999965 0.00832476 -0.00756869 -0.999971 241.833 77.4159)" fill="#E9CDB3"/>
<ellipse rx="9.12091" ry="9.5656" transform="matrix(-0.999965 0.00832476 -0.00756869 -0.999971 40.2621 104.362)" fill="#E9CDB3"/>
<ellipse rx="9.48361" ry="9.20612" transform="matrix(-0.41005 0.912377 -0.896179 -0.443007 126.662 152.942)" fill="#E9CDB3"/>
<ellipse rx="9.48361" ry="9.20612" transform="matrix(-0.41005 0.912377 -0.896179 -0.443007 259.527 137.619)" fill="#E9CDB3"/>
<ellipse rx="9.12091" ry="9.5656" transform="matrix(-0.999965 0.00832476 -0.00756869 -0.999971 371.788 40.3791)" fill="#E9CDB3"/>
<ellipse rx="9.12091" ry="9.5656" transform="matrix(-0.999965 0.00832476 -0.00756869 -0.999971 283.252 32.5072)" fill="#E9CDB3"/>
<ellipse rx="9.12091" ry="9.5656" transform="matrix(-0.999965 0.00832476 -0.00756869 -0.999971 336.985 21.538)" fill="#D49A52"/>
<ellipse rx="9.12091" ry="9.5656" transform="matrix(-0.999965 0.00832476 -0.00756869 -0.999971 248.45 13.6654)" fill="#D49A52"/>
<ellipse rx="9.12091" ry="9.5656" transform="matrix(-0.999965 0.00832476 -0.00756869 -0.999971 314.43 54.2494)" fill="#D79000"/>
<ellipse rx="9.12091" ry="9.5656" transform="matrix(-0.999965 0.00832476 -0.00756869 -0.999971 225.895 46.3778)" fill="#D79000"/>
<ellipse rx="9.12091" ry="9.5656" transform="matrix(-0.999965 0.00832476 -0.00756869 -0.999971 137.36 38.5052)" fill="#D79000"/>
<ellipse rx="9.12091" ry="9.5656" transform="matrix(-0.999965 0.00832476 -0.00756869 -0.999971 48.8246 30.6332)" fill="#D79000"/>
<ellipse rx="9.48361" ry="9.20612" transform="matrix(-0.41005 0.912377 -0.896179 -0.443007 82.8301 145.022)" fill="#D79000"/>
<ellipse rx="9.48361" ry="9.20612" transform="matrix(-0.41005 0.912377 -0.896179 -0.443007 244.779 165.64)" fill="#D79000"/>
<ellipse rx="9.48361" ry="9.20612" transform="matrix(-0.41005 0.912377 -0.896179 -0.443007 367.032 167.981)" fill="#D79000"/>
<ellipse rx="9.12091" ry="9.5656" transform="matrix(-0.999965 0.00832476 -0.00756869 -0.999971 66.7343 79.2596)" fill="#D79000"/>
<ellipse rx="9.12091" ry="9.5656" transform="matrix(-0.999965 0.00832476 -0.00756869 -0.999971 195.408 42.6903)" fill="#D79000"/>
<ellipse rx="9.12091" ry="9.5656" transform="matrix(-0.999965 0.00832476 -0.00756869 -0.999971 213.558 150.115)" fill="#D79000"/>
<ellipse rx="9.12091" ry="9.5656" transform="matrix(-0.999965 0.00832476 -0.00756869 -0.999971 106.872 34.8182)" fill="#D79000"/>
<ellipse rx="9.12091" ry="9.5656" transform="matrix(-0.999965 0.00832476 -0.00756869 -0.999971 125.114 124.735)" fill="#D79000"/>
<ellipse rx="9.12091" ry="9.5656" transform="matrix(-0.999965 0.00832476 -0.00756869 -0.999971 31.931 60.4173)" fill="#E9CDB3"/>
<ellipse rx="9.12091" ry="9.5656" transform="matrix(-0.999965 0.00832476 -0.00756869 -0.999971 160.604 23.8485)" fill="#E9CDB3"/>
<ellipse rx="9.12091" ry="9.5656" transform="matrix(-0.999965 0.00832476 -0.00756869 -0.999971 175.251 121.418)" fill="#E9CDB3"/>
<ellipse rx="9.12091" ry="9.5656" transform="matrix(-0.999965 0.00832476 -0.00756869 -0.999971 81.3055 42.7787)" fill="#E9CDB3"/>
<ellipse rx="9.12091" ry="9.5656" transform="matrix(-0.999965 0.00832476 -0.00756869 -0.999971 99.5477 132.696)" fill="#E9CDB3"/>
<ellipse rx="9.12091" ry="9.5656" transform="matrix(-0.999965 0.00832476 -0.00756869 -0.999971 128.734 85.0682)" fill="#E9CDB3"/>
<ellipse rx="9.12091" ry="9.5656" transform="matrix(-0.999965 0.00832476 -0.00756869 -0.999971 156.29 146.477)" fill="#E9CDB3"/>
<rect x="6.9292" y="288.999" width="370.077" height="187" fill="#291200"/>
<rect x="5.98047" y="339" width="369.128" height="7" fill="#8B3F3D"/>
<path d="M146.157 411.189L106.837 370.107L184.539 369.774L146.157 411.189Z" fill="#D3BBA3"/>
<path d="M145.844 410.999L184.373 452.249H107.315L145.844 410.999Z" fill="#D3BBA3"/>
<path d="M107.143 452.44L67.822 411.357L145.524 411.025L107.143 452.44Z" fill="#D49A52"/>
<path d="M107.514 370.473L146.043 411.723H68.9845L107.514 370.473Z" fill="#D49A52"/>
<path d="M69.4972 411.189L30.1765 370.107L107.878 369.774L69.4972 411.189Z" fill="#D3BBA3"/>
<path d="M69.1843 410.999L107.714 452.249H30.6549L69.1843 410.999Z" fill="#D3BBA3"/>
<path d="M313.167 411.189L273.846 370.107L351.548 369.774L313.167 411.189Z" fill="#D3BBA3"/>
<path d="M312.853 410.999L351.383 452.249H274.324L312.853 410.999Z" fill="#D3BBA3"/>
<path d="M274.152 452.44L234.831 411.357L312.533 411.025L274.152 452.44Z" fill="#D49A52"/>
<path d="M274.523 370.473L313.053 411.723H235.994L274.523 370.473Z" fill="#D49A52"/>
<path d="M236.506 411.189L197.186 370.107L274.888 369.774L236.506 411.189Z" fill="#D3BBA3"/>
<path d="M236.194 410.999L274.723 452.249H197.664L236.194 410.999Z" fill="#D3BBA3"/>
<rect x="5.98047" y="662" width="368.781" height="187" fill="#D3BBA3"/>
<rect x="24.9653" y="476" width="350.242" height="187.486" fill="#291200"/>
<path d="M104.558 606.999L191.655 706.899H17.4608L104.558 606.999Z" fill="#863B37"/>
<path d="M104.553 806.215L19.1604 705.642L193.343 707.001L104.553 806.215Z" fill="#863B37"/>
<path d="M103.681 621.326L177.275 705.737H30.0876L103.681 621.326Z" fill="#225D04"/>
<path d="M103.677 789.655L31.524 704.675L178.702 705.823L103.677 789.655Z" fill="#225D04"/>
<path d="M103.331 637.697L163.421 706.621H43.2403L103.331 637.697Z" fill="#D79000"/>
<path d="M103.327 775.141L44.4126 705.753L164.585 706.691L103.327 775.141Z" fill="#D79000"/>
<path d="M103.447 647.93L154.535 706.528H52.3594L103.447 647.93Z" fill="#291200"/>
<path d="M103.444 764.782L53.3561 705.79L155.525 706.587L103.444 764.782Z" fill="#291200"/>
<path d="M102.801 660.209L142.861 706.158H62.7413L102.801 660.209Z" fill="#D3BBA3"/>
<path d="M102.799 751.837L63.5235 705.579L143.638 706.204L102.799 751.837Z" fill="#D3BBA3"/>
<path d="M103.449 672.488L134.057 707.595H72.8415L103.449 672.488Z" fill="#291200"/>
<path d="M103.447 742.496L73.4387 707.152L134.65 707.63L103.447 742.496Z" fill="#291200"/>
<path d="M276.03 611L363.127 710.9H188.933L276.03 611Z" fill="#863B37"/>
<path d="M276.025 810.215L190.633 709.642L364.816 711.001L276.025 810.215Z" fill="#863B37"/>
<path d="M275.154 625.326L348.748 709.737H201.56L275.154 625.326Z" fill="#225D04"/>
<path d="M275.15 793.655L202.996 708.675L350.174 709.823L275.15 793.655Z" fill="#225D04"/>
<path d="M274.803 641.697L334.893 710.621H214.713L274.803 641.697Z" fill="#D79000"/>
<path d="M274.799 779.141L215.885 709.753L336.057 710.691L274.799 779.141Z" fill="#D79000"/>
<path d="M274.919 651.93L326.007 710.528H223.831L274.919 651.93Z" fill="#291200"/>
<path d="M274.917 768.782L224.829 709.79L326.998 710.587L274.917 768.782Z" fill="#291200"/>
<path d="M274.273 664.209L314.333 710.158H234.213L274.273 664.209Z" fill="#D3BBA3"/>
<path d="M274.271 755.837L234.995 709.579L315.11 710.204L274.271 755.837Z" fill="#D3BBA3"/>
<path d="M274.921 676.488L305.529 711.595H244.314L274.921 676.488Z" fill="#291200"/>
<path d="M274.92 746.496L244.911 711.152L306.123 711.63L274.92 746.496Z" fill="#291200"/>
<rect x="3.98682" y="477" width="373.044" height="187" fill="#291200"/>
<ellipse rx="9.12091" ry="9.5656" transform="matrix(-0.999965 0.00832476 -0.00756869 -0.999971 305.654 598.224)" fill="#E9CDB3"/>
<ellipse rx="9.12091" ry="9.5656" transform="matrix(-0.999965 0.00832476 -0.00756869 -0.999971 217.119 590.352)" fill="#E9CDB3"/>
<ellipse rx="9.12091" ry="9.5656" transform="matrix(-0.999965 0.00832476 -0.00756869 -0.999971 359.386 587.254)" fill="#D49A52"/>
<ellipse rx="9.12091" ry="9.5656" transform="matrix(-0.999965 0.00832476 -0.00756869 -0.999971 270.85 579.382)" fill="#D49A52"/>
<ellipse rx="9.12091" ry="9.5656" transform="matrix(-0.999965 0.00832476 -0.00756869 -0.999971 182.316 571.51)" fill="#D49A52"/>
<ellipse rx="9.12091" ry="9.5656" transform="matrix(-0.999965 0.00832476 -0.00756869 -0.999971 93.7811 563.638)" fill="#D49A52"/>
<ellipse rx="9.12091" ry="9.5656" transform="matrix(-0.999965 0.00832476 -0.00756869 -0.999971 336.83 619.966)" fill="#D49A52"/>
<ellipse rx="9.12091" ry="9.5656" transform="matrix(-0.999965 0.00832476 -0.00756869 -0.999971 239.058 585.291)" fill="#D49A52"/>
<ellipse rx="9.12091" ry="9.5656" transform="matrix(-0.999965 0.00832476 -0.00756869 -0.999971 150.524 577.419)" fill="#E9CDB3"/>
<ellipse rx="9.12091" ry="9.5656" transform="matrix(-0.999965 0.00832476 -0.00756869 -0.999971 71.226 596.349)" fill="#E9CDB3"/>
<ellipse rx="9.12091" ry="9.5656" transform="matrix(-0.999965 0.00832476 -0.00756869 -0.999971 50.4652 625.22)" fill="#E9CDB3"/>
<ellipse rx="9.48361" ry="9.20612" transform="matrix(-0.41005 0.912377 -0.896179 -0.443007 181.676 636.857)" fill="#E9CDB3"/>
<ellipse rx="9.48361" ry="9.20612" transform="matrix(-0.41005 0.912377 -0.896179 -0.443007 310.602 648.342)" fill="#E9CDB3"/>
<ellipse rx="9.12091" ry="9.5656" transform="matrix(-0.999965 0.00832476 -0.00756869 -0.999971 293.456 553.366)" fill="#E9CDB3"/>
<ellipse rx="9.12091" ry="9.5656" transform="matrix(-0.999965 0.00832476 -0.00756869 -0.999971 204.922 545.494)" fill="#E9CDB3"/>
<ellipse rx="9.12091" ry="9.5656" transform="matrix(-0.999965 0.00832476 -0.00756869 -0.999971 116.387 537.621)" fill="#E9CDB3"/>
<ellipse rx="9.12091" ry="9.5656" transform="matrix(-0.999965 0.00832476 -0.00756869 -0.999971 347.188 542.396)" fill="#FFC850"/>
<ellipse rx="9.12091" ry="9.5656" transform="matrix(-0.999965 0.00832476 -0.00756869 -0.999971 258.654 534.524)" fill="#FFC850"/>
<ellipse rx="9.12091" ry="9.5656" transform="matrix(-0.999965 0.00832476 -0.00756869 -0.999971 170.119 526.652)" fill="#FFC850"/>
<ellipse rx="9.12091" ry="9.5656" transform="matrix(-0.999965 0.00832476 -0.00756869 -0.999971 81.5844 518.779)" fill="#FFC850"/>
<ellipse rx="9.12091" ry="9.5656" transform="matrix(-0.999965 0.00832476 -0.00756869 -0.999971 324.633 575.108)" fill="#FFC850"/>
<ellipse rx="9.12091" ry="9.5656" transform="matrix(-0.999965 0.00832476 -0.00756869 -0.999971 239.84 553.416)" fill="#E9CDB3"/>
<ellipse rx="9.12091" ry="9.5656" transform="matrix(-0.999965 0.00832476 -0.00756869 -0.999971 38.2689 580.362)" fill="#E9CDB3"/>
<ellipse rx="9.48361" ry="9.20612" transform="matrix(-0.41005 0.912377 -0.896179 -0.443007 124.669 628.942)" fill="#E9CDB3"/>
<ellipse rx="9.48361" ry="9.20612" transform="matrix(-0.41005 0.912377 -0.896179 -0.443007 257.534 613.619)" fill="#E9CDB3"/>
<ellipse rx="9.12091" ry="9.5656" transform="matrix(-0.999965 0.00832476 -0.00756869 -0.999971 369.795 516.379)" fill="#E9CDB3"/>
<ellipse rx="9.12091" ry="9.5656" transform="matrix(-0.999965 0.00832476 -0.00756869 -0.999971 281.259 508.507)" fill="#E9CDB3"/>
<ellipse rx="9.12091" ry="9.5656" transform="matrix(-0.999965 0.00832476 -0.00756869 -0.999971 334.992 497.538)" fill="#D49A52"/>
<ellipse rx="9.12091" ry="9.5656" transform="matrix(-0.999965 0.00832476 -0.00756869 -0.999971 246.456 489.665)" fill="#D49A52"/>
<ellipse rx="9.12091" ry="9.5656" transform="matrix(-0.999965 0.00832476 -0.00756869 -0.999971 312.436 530.249)" fill="#D79000"/>
<ellipse rx="9.12091" ry="9.5656" transform="matrix(-0.999965 0.00832476 -0.00756869 -0.999971 223.901 522.378)" fill="#D79000"/>
<ellipse rx="9.12091" ry="9.5656" transform="matrix(-0.999965 0.00832476 -0.00756869 -0.999971 135.366 514.505)" fill="#D79000"/>
<ellipse rx="9.12091" ry="9.5656" transform="matrix(-0.999965 0.00832476 -0.00756869 -0.999971 46.8314 506.633)" fill="#D79000"/>
<ellipse rx="9.48361" ry="9.20612" transform="matrix(-0.41005 0.912377 -0.896179 -0.443007 80.837 621.022)" fill="#D79000"/>
<ellipse rx="9.48361" ry="9.20612" transform="matrix(-0.41005 0.912377 -0.896179 -0.443007 242.786 641.64)" fill="#D79000"/>
<ellipse rx="9.48361" ry="9.20612" transform="matrix(-0.41005 0.912377 -0.896179 -0.443007 365.039 643.981)" fill="#D79000"/>
<ellipse rx="9.12091" ry="9.5656" transform="matrix(-0.999965 0.00832476 -0.00756869 -0.999971 64.7406 555.26)" fill="#D79000"/>
<ellipse rx="9.12091" ry="9.5656" transform="matrix(-0.999965 0.00832476 -0.00756869 -0.999971 193.414 518.69)" fill="#D79000"/>
<ellipse rx="9.12091" ry="9.5656" transform="matrix(-0.999965 0.00832476 -0.00756869 -0.999971 211.565 626.115)" fill="#D79000"/>
<ellipse rx="9.12091" ry="9.5656" transform="matrix(-0.999965 0.00832476 -0.00756869 -0.999971 104.879 510.818)" fill="#D79000"/>
<ellipse rx="9.12091" ry="9.5656" transform="matrix(-0.999965 0.00832476 -0.00756869 -0.999971 123.12 600.735)" fill="#D79000"/>
<ellipse rx="9.12091" ry="9.5656" transform="matrix(-0.999965 0.00832476 -0.00756869 -0.999971 29.9374 536.417)" fill="#E9CDB3"/>
<ellipse rx="9.12091" ry="9.5656" transform="matrix(-0.999965 0.00832476 -0.00756869 -0.999971 158.611 499.848)" fill="#E9CDB3"/>
<ellipse rx="9.12091" ry="9.5656" transform="matrix(-0.999965 0.00832476 -0.00756869 -0.999971 173.258 597.418)" fill="#E9CDB3"/>
<ellipse rx="9.12091" ry="9.5656" transform="matrix(-0.999965 0.00832476 -0.00756869 -0.999971 79.3124 518.779)" fill="#E9CDB3"/>
<ellipse rx="9.12091" ry="9.5656" transform="matrix(-0.999965 0.00832476 -0.00756869 -0.999971 97.5541 608.696)" fill="#E9CDB3"/>
<ellipse rx="9.12091" ry="9.5656" transform="matrix(-0.999965 0.00832476 -0.00756869 -0.999971 126.741 561.068)" fill="#E9CDB3"/>
<ellipse rx="9.12091" ry="9.5656" transform="matrix(-0.999965 0.00832476 -0.00756869 -0.999971 154.297 622.477)" fill="#E9CDB3"/>
<rect x="4.93604" y="764.999" width="370.077" height="187" fill="#291200"/>
<rect x="3.98682" y="815" width="369.128" height="7" fill="#8B3F3D"/>
<path d="M144.164 887.19L104.843 846.107L182.545 845.774L144.164 887.19Z" fill="#D3BBA3"/>
<path d="M143.85 886.999L182.38 928.249H105.321L143.85 886.999Z" fill="#D3BBA3"/>
<path d="M105.149 928.44L65.8283 887.357L143.53 887.025L105.149 928.44Z" fill="#D49A52"/>
<path d="M105.52 846.473L144.05 887.723H66.9908L105.52 846.473Z" fill="#D49A52"/>
<path d="M67.5036 887.19L28.1828 846.107L105.885 845.774L67.5036 887.19Z" fill="#D3BBA3"/>
<path d="M67.1907 886.999L105.72 928.249H28.6612L67.1907 886.999Z" fill="#D3BBA3"/>
<path d="M311.173 887.19L271.853 846.107L349.555 845.774L311.173 887.19Z" fill="#D3BBA3"/>
<path d="M310.86 886.999L349.39 928.249H272.331L310.86 886.999Z" fill="#D3BBA3"/>
<path d="M272.159 928.44L232.838 887.357L310.54 887.025L272.159 928.44Z" fill="#D49A52"/>
<path d="M272.53 846.473L311.06 887.723H234.001L272.53 846.473Z" fill="#D49A52"/>
<path d="M234.513 887.19L195.193 846.107L272.894 845.774L234.513 887.19Z" fill="#D3BBA3"/>
<path d="M234.2 886.999L272.73 928.249H195.671L234.2 886.999Z" fill="#D3BBA3"/>
<rect x="3.98682" y="1138" width="368.781" height="187" fill="#D3BBA3"/>
<rect x="22.9717" y="952" width="350.242" height="187.486" fill="#291200"/>
<path d="M102.565 1083L189.662 1182.9H15.4676L102.565 1083Z" fill="#863B37"/>
<path d="M102.56 1282.22L17.1672 1181.64L191.35 1183L102.56 1282.22Z" fill="#863B37"/>
<path d="M101.688 1097.33L175.282 1181.74H28.0945L101.688 1097.33Z" fill="#225D04"/>
<path d="M101.684 1265.65L29.5304 1180.67L176.708 1181.82L101.684 1265.65Z" fill="#225D04"/>
<path d="M101.337 1113.7L161.428 1182.62H41.2472L101.337 1113.7Z" fill="#D79000"/>
<path d="M101.333 1251.14L42.4189 1181.75L162.592 1182.69L101.333 1251.14Z" fill="#D79000"/>
<path d="M101.454 1123.93L152.542 1182.53H50.3662L101.454 1123.93Z" fill="#291200"/>
<path d="M101.451 1240.78L51.363 1181.79L153.532 1182.59L101.451 1240.78Z" fill="#291200"/>
<path d="M100.808 1136.21L140.868 1182.16H60.7481L100.808 1136.21Z" fill="#D3BBA3"/>
<path d="M100.806 1227.84L61.5298 1181.58L141.645 1182.2L100.806 1227.84Z" fill="#D3BBA3"/>
<path d="M101.455 1148.49L132.063 1183.59H70.8478L101.455 1148.49Z" fill="#291200"/>
<path d="M101.454 1218.5L71.4455 1183.15L132.657 1183.63L101.454 1218.5Z" fill="#291200"/>
<path d="M274.037 1087L361.134 1186.9H186.94L274.037 1087Z" fill="#863B37"/>
<path d="M274.032 1286.22L188.639 1185.64L362.822 1187L274.032 1286.22Z" fill="#863B37"/>
<path d="M273.16 1101.33L346.754 1185.74H199.567L273.16 1101.33Z" fill="#225D04"/>
<path d="M273.156 1269.65L201.003 1184.67L348.181 1185.82L273.156 1269.65Z" fill="#225D04"/>
<path d="M272.81 1117.7L332.9 1186.62H212.719L272.81 1117.7Z" fill="#D79000"/>
<path d="M272.806 1255.14L213.892 1185.75L334.064 1186.69L272.806 1255.14Z" fill="#D79000"/>
<path d="M272.926 1127.93L324.014 1186.53H221.838L272.926 1127.93Z" fill="#291200"/>
<path d="M272.923 1244.78L222.835 1185.79L325.004 1186.59L272.923 1244.78Z" fill="#291200"/>
<path d="M272.28 1140.21L312.34 1186.16H232.22L272.28 1140.21Z" fill="#D3BBA3"/>
<path d="M272.278 1231.84L233.002 1185.58L313.117 1186.2L272.278 1231.84Z" fill="#D3BBA3"/>
<path d="M272.928 1152.49L303.536 1187.59H242.32L272.928 1152.49Z" fill="#291200"/>
<path d="M272.926 1222.5L242.918 1187.15L304.129 1187.63L272.926 1222.5Z" fill="#291200"/>
<rect x="1.99365" y="953" width="373.044" height="187" fill="#291200"/>
<ellipse rx="9.12091" ry="9.5656" transform="matrix(-0.999965 0.00832476 -0.00756869 -0.999971 303.66 1074.22)" fill="#E9CDB3"/>
<ellipse rx="9.12091" ry="9.5656" transform="matrix(-0.999965 0.00832476 -0.00756869 -0.999971 215.125 1066.35)" fill="#E9CDB3"/>
<ellipse rx="9.12091" ry="9.5656" transform="matrix(-0.999965 0.00832476 -0.00756869 -0.999971 357.392 1063.25)" fill="#D49A52"/>
<ellipse rx="9.12091" ry="9.5656" transform="matrix(-0.999965 0.00832476 -0.00756869 -0.999971 268.857 1055.38)" fill="#D49A52"/>
<ellipse rx="9.12091" ry="9.5656" transform="matrix(-0.999965 0.00832476 -0.00756869 -0.999971 180.322 1047.51)" fill="#D49A52"/>
<ellipse rx="9.12091" ry="9.5656" transform="matrix(-0.999965 0.00832476 -0.00756869 -0.999971 91.7875 1039.64)" fill="#D49A52"/>
<ellipse rx="9.12091" ry="9.5656" transform="matrix(-0.999965 0.00832476 -0.00756869 -0.999971 334.836 1095.97)" fill="#D49A52"/>
<ellipse rx="9.12091" ry="9.5656" transform="matrix(-0.999965 0.00832476 -0.00756869 -0.999971 237.065 1061.29)" fill="#D49A52"/>
<ellipse rx="9.12091" ry="9.5656" transform="matrix(-0.999965 0.00832476 -0.00756869 -0.999971 148.53 1053.42)" fill="#E9CDB3"/>
<ellipse rx="9.12091" ry="9.5656" transform="matrix(-0.999965 0.00832476 -0.00756869 -0.999971 69.2323 1072.35)" fill="#E9CDB3"/>
<ellipse rx="9.12091" ry="9.5656" transform="matrix(-0.999965 0.00832476 -0.00756869 -0.999971 48.472 1101.22)" fill="#E9CDB3"/>
<ellipse rx="9.48361" ry="9.20612" transform="matrix(-0.41005 0.912377 -0.896179 -0.443007 179.682 1112.86)" fill="#E9CDB3"/>
<ellipse rx="9.48361" ry="9.20612" transform="matrix(-0.41005 0.912377 -0.896179 -0.443007 308.609 1124.34)" fill="#E9CDB3"/>
<ellipse rx="9.12091" ry="9.5656" transform="matrix(-0.999965 0.00832476 -0.00756869 -0.999971 291.463 1029.37)" fill="#E9CDB3"/>
<ellipse rx="9.12091" ry="9.5656" transform="matrix(-0.999965 0.00832476 -0.00756869 -0.999971 202.928 1021.49)" fill="#E9CDB3"/>
<ellipse rx="9.12091" ry="9.5656" transform="matrix(-0.999965 0.00832476 -0.00756869 -0.999971 114.393 1013.62)" fill="#E9CDB3"/>
<ellipse rx="9.12091" ry="9.5656" transform="matrix(-0.999965 0.00832476 -0.00756869 -0.999971 345.195 1018.4)" fill="#FFC850"/>
<ellipse rx="9.12091" ry="9.5656" transform="matrix(-0.999965 0.00832476 -0.00756869 -0.999971 256.66 1010.52)" fill="#FFC850"/>
<ellipse rx="9.12091" ry="9.5656" transform="matrix(-0.999965 0.00832476 -0.00756869 -0.999971 168.125 1002.65)" fill="#FFC850"/>
<ellipse rx="9.12091" ry="9.5656" transform="matrix(-0.999965 0.00832476 -0.00756869 -0.999971 79.5907 994.779)" fill="#FFC850"/>
<ellipse rx="9.12091" ry="9.5656" transform="matrix(-0.999965 0.00832476 -0.00756869 -0.999971 322.64 1051.11)" fill="#FFC850"/>
<ellipse rx="9.12091" ry="9.5656" transform="matrix(-0.999965 0.00832476 -0.00756869 -0.999971 237.847 1029.42)" fill="#E9CDB3"/>
<ellipse rx="9.12091" ry="9.5656" transform="matrix(-0.999965 0.00832476 -0.00756869 -0.999971 36.2753 1056.36)" fill="#E9CDB3"/>
<ellipse rx="9.48361" ry="9.20612" transform="matrix(-0.41005 0.912377 -0.896179 -0.443007 122.675 1104.94)" fill="#E9CDB3"/>
<ellipse rx="9.48361" ry="9.20612" transform="matrix(-0.41005 0.912377 -0.896179 -0.443007 255.541 1089.62)" fill="#E9CDB3"/>
<ellipse rx="9.12091" ry="9.5656" transform="matrix(-0.999965 0.00832476 -0.00756869 -0.999971 367.801 992.379)" fill="#E9CDB3"/>
<ellipse rx="9.12091" ry="9.5656" transform="matrix(-0.999965 0.00832476 -0.00756869 -0.999971 279.266 984.507)" fill="#E9CDB3"/>
<ellipse rx="9.12091" ry="9.5656" transform="matrix(-0.999965 0.00832476 -0.00756869 -0.999971 332.998 973.538)" fill="#D49A52"/>
<ellipse rx="9.12091" ry="9.5656" transform="matrix(-0.999965 0.00832476 -0.00756869 -0.999971 244.463 965.665)" fill="#D49A52"/>
<ellipse rx="9.12091" ry="9.5656" transform="matrix(-0.999965 0.00832476 -0.00756869 -0.999971 310.443 1006.25)" fill="#D79000"/>
<ellipse rx="9.12091" ry="9.5656" transform="matrix(-0.999965 0.00832476 -0.00756869 -0.999971 221.908 998.378)" fill="#D79000"/>
<ellipse rx="9.12091" ry="9.5656" transform="matrix(-0.999965 0.00832476 -0.00756869 -0.999971 133.373 990.505)" fill="#D79000"/>
<ellipse rx="9.12091" ry="9.5656" transform="matrix(-0.999965 0.00832476 -0.00756869 -0.999971 44.8378 982.633)" fill="#D79000"/>
<ellipse rx="9.48361" ry="9.20612" transform="matrix(-0.41005 0.912377 -0.896179 -0.443007 78.8433 1097.02)" fill="#D79000"/>
<ellipse rx="9.48361" ry="9.20612" transform="matrix(-0.41005 0.912377 -0.896179 -0.443007 240.793 1117.64)" fill="#D79000"/>
<ellipse rx="9.48361" ry="9.20612" transform="matrix(-0.41005 0.912377 -0.896179 -0.443007 363.045 1119.98)" fill="#D79000"/>
<ellipse rx="9.12091" ry="9.5656" transform="matrix(-0.999965 0.00832476 -0.00756869 -0.999971 62.7474 1031.26)" fill="#D79000"/>
<ellipse rx="9.12091" ry="9.5656" transform="matrix(-0.999965 0.00832476 -0.00756869 -0.999971 191.421 994.69)" fill="#D79000"/>
<ellipse rx="9.12091" ry="9.5656" transform="matrix(-0.999965 0.00832476 -0.00756869 -0.999971 209.572 1102.11)" fill="#D79000"/>
<ellipse rx="9.12091" ry="9.5656" transform="matrix(-0.999965 0.00832476 -0.00756869 -0.999971 102.885 986.818)" fill="#D79000"/>
<ellipse rx="9.12091" ry="9.5656" transform="matrix(-0.999965 0.00832476 -0.00756869 -0.999971 121.127 1076.73)" fill="#D79000"/>
<ellipse rx="9.12091" ry="9.5656" transform="matrix(-0.999965 0.00832476 -0.00756869 -0.999971 27.9442 1012.42)" fill="#E9CDB3"/>
<ellipse rx="9.12091" ry="9.5656" transform="matrix(-0.999965 0.00832476 -0.00756869 -0.999971 156.618 975.848)" fill="#E9CDB3"/>
<ellipse rx="9.12091" ry="9.5656" transform="matrix(-0.999965 0.00832476 -0.00756869 -0.999971 171.264 1073.42)" fill="#E9CDB3"/>
<ellipse rx="9.12091" ry="9.5656" transform="matrix(-0.999965 0.00832476 -0.00756869 -0.999971 77.3187 994.779)" fill="#E9CDB3"/>
<ellipse rx="9.12091" ry="9.5656" transform="matrix(-0.999965 0.00832476 -0.00756869 -0.999971 95.5609 1084.7)" fill="#E9CDB3"/>
<ellipse rx="9.12091" ry="9.5656" transform="matrix(-0.999965 0.00832476 -0.00756869 -0.999971 124.747 1037.07)" fill="#E9CDB3"/>
<ellipse rx="9.12091" ry="9.5656" transform="matrix(-0.999965 0.00832476 -0.00756869 -0.999971 152.304 1098.48)" fill="#E9CDB3"/>
<rect x="2.94238" y="1241" width="370.077" height="187" fill="#291200"/>
<rect x="1.99365" y="1291" width="369.128" height="7" fill="#8B3F3D"/>
<path d="M142.171 1363.19L102.85 1322.11L180.552 1321.77L142.171 1363.19Z" fill="#D3BBA3"/>
<path d="M141.858 1363L180.387 1404.25H103.328L141.858 1363Z" fill="#D3BBA3"/>
<path d="M103.156 1404.44L63.8352 1363.36L141.537 1363.02L103.156 1404.44Z" fill="#D49A52"/>
<path d="M103.527 1322.47L142.057 1363.72H64.9976L103.527 1322.47Z" fill="#D49A52"/>
<path d="M65.5104 1363.19L26.1897 1322.11L103.892 1321.77L65.5104 1363.19Z" fill="#D3BBA3"/>
<path d="M65.1975 1363L103.727 1404.25H26.6681L65.1975 1363Z" fill="#D3BBA3"/>
<path d="M309.18 1363.19L269.859 1322.11L347.561 1321.77L309.18 1363.19Z" fill="#D3BBA3"/>
<path d="M308.866 1363L347.396 1404.25H270.337L308.866 1363Z" fill="#D3BBA3"/>
<path d="M270.165 1404.44L230.844 1363.36L308.546 1363.02L270.165 1404.44Z" fill="#D49A52"/>
<path d="M270.536 1322.47L309.066 1363.72H232.007L270.536 1322.47Z" fill="#D49A52"/>
<path d="M232.52 1363.19L193.199 1322.11L270.901 1321.77L232.52 1363.19Z" fill="#D3BBA3"/>
<path d="M232.207 1363L270.736 1404.25H193.677L232.207 1363Z" fill="#D3BBA3"/>
<rect x="1.99365" y="1614" width="368.781" height="187" fill="#D3BBA3"/>
<rect x="20.9785" y="1428" width="350.242" height="187.486" fill="#291200"/>
<path d="M100.571 1559L187.668 1658.9H13.474L100.571 1559Z" fill="#863B37"/>
<path d="M100.566 1758.22L15.1736 1657.64L189.356 1659L100.566 1758.22Z" fill="#863B37"/>
<path d="M99.6945 1573.33L173.288 1657.74H26.1008L99.6945 1573.33Z" fill="#225D04"/>
<path d="M99.6905 1741.65L27.5372 1656.67L174.715 1657.82L99.6905 1741.65Z" fill="#225D04"/>
<path d="M99.3438 1589.7L159.434 1658.62H39.2535L99.3438 1589.7Z" fill="#D79000"/>
<path d="M99.34 1727.14L40.4258 1657.75L160.598 1658.69L99.34 1727.14Z" fill="#D79000"/>
<path d="M99.4606 1599.93L150.549 1658.53H48.3726L99.4606 1599.93Z" fill="#291200"/>
<path d="M99.4574 1716.78L49.3693 1657.79L151.539 1658.59L99.4574 1716.78Z" fill="#291200"/>
<path d="M98.8145 1612.21L138.875 1658.16H58.7544L98.8145 1612.21Z" fill="#D3BBA3"/>
<path d="M98.8126 1703.84L59.5366 1657.58L139.651 1658.2L98.8126 1703.84Z" fill="#D3BBA3"/>
<path d="M99.4623 1624.49L130.07 1659.59H68.8546L99.4623 1624.49Z" fill="#291200"/>
<path d="M99.4605 1694.5L69.4519 1659.15L130.663 1659.63L99.4605 1694.5Z" fill="#291200"/>
<path d="M272.043 1563L359.14 1662.9H184.946L272.043 1563Z" fill="#863B37"/>
<path d="M272.039 1762.22L186.646 1661.64L360.829 1663L272.039 1762.22Z" fill="#863B37"/>
<path d="M271.167 1577.33L344.761 1661.74H197.573L271.167 1577.33Z" fill="#225D04"/>
<path d="M271.163 1745.65L199.009 1660.67L346.187 1661.82L271.163 1745.65Z" fill="#225D04"/>
<path d="M270.816 1593.7L330.906 1662.62H210.726L270.816 1593.7Z" fill="#D79000"/>
<path d="M270.812 1731.14L211.898 1661.75L332.071 1662.69L270.812 1731.14Z" fill="#D79000"/>
<path d="M270.932 1603.93L322.02 1662.53H219.844L270.932 1603.93Z" fill="#291200"/>
<path d="M270.93 1720.78L220.842 1661.79L323.011 1662.59L270.93 1720.78Z" fill="#291200"/>
<path d="M270.286 1616.21L310.346 1662.16H230.226L270.286 1616.21Z" fill="#D3BBA3"/>
<path d="M270.284 1707.84L231.008 1661.58L311.123 1662.2L270.284 1707.84Z" fill="#D3BBA3"/>
<path d="M270.934 1628.49L301.542 1663.59H240.327L270.934 1628.49Z" fill="#291200"/>
<path d="M270.933 1698.5L240.925 1663.15L302.136 1663.63L270.933 1698.5Z" fill="#291200"/>
<rect y="1429" width="373.044" height="187" fill="#291200"/>
<ellipse rx="9.12091" ry="9.5656" transform="matrix(-0.999965 0.00832476 -0.00756869 -0.999971 301.667 1550.22)" fill="#E9CDB3"/>
<ellipse rx="9.12091" ry="9.5656" transform="matrix(-0.999965 0.00832476 -0.00756869 -0.999971 213.132 1542.35)" fill="#E9CDB3"/>
<ellipse rx="9.12091" ry="9.5656" transform="matrix(-0.999965 0.00832476 -0.00756869 -0.999971 355.399 1539.25)" fill="#D49A52"/>
<ellipse rx="9.12091" ry="9.5656" transform="matrix(-0.999965 0.00832476 -0.00756869 -0.999971 266.864 1531.38)" fill="#D49A52"/>
<ellipse rx="9.12091" ry="9.5656" transform="matrix(-0.999965 0.00832476 -0.00756869 -0.999971 178.329 1523.51)" fill="#D49A52"/>
<ellipse rx="9.12091" ry="9.5656" transform="matrix(-0.999965 0.00832476 -0.00756869 -0.999971 89.7943 1515.64)" fill="#D49A52"/>
<ellipse rx="9.12091" ry="9.5656" transform="matrix(-0.999965 0.00832476 -0.00756869 -0.999971 332.843 1571.97)" fill="#D49A52"/>
<ellipse rx="9.12091" ry="9.5656" transform="matrix(-0.999965 0.00832476 -0.00756869 -0.999971 235.072 1537.29)" fill="#D49A52"/>
<ellipse rx="9.12091" ry="9.5656" transform="matrix(-0.999965 0.00832476 -0.00756869 -0.999971 146.537 1529.42)" fill="#E9CDB3"/>
<ellipse rx="9.12091" ry="9.5656" transform="matrix(-0.999965 0.00832476 -0.00756869 -0.999971 67.2391 1548.35)" fill="#E9CDB3"/>
<ellipse rx="9.12091" ry="9.5656" transform="matrix(-0.999965 0.00832476 -0.00756869 -0.999971 46.4784 1577.22)" fill="#E9CDB3"/>
<ellipse rx="9.48361" ry="9.20612" transform="matrix(-0.41005 0.912377 -0.896179 -0.443007 177.689 1588.86)" fill="#E9CDB3"/>
<ellipse rx="9.48361" ry="9.20612" transform="matrix(-0.41005 0.912377 -0.896179 -0.443007 306.615 1600.34)" fill="#E9CDB3"/>
<ellipse rx="9.12091" ry="9.5656" transform="matrix(-0.999965 0.00832476 -0.00756869 -0.999971 289.47 1505.37)" fill="#E9CDB3"/>
<ellipse rx="9.12091" ry="9.5656" transform="matrix(-0.999965 0.00832476 -0.00756869 -0.999971 200.935 1497.49)" fill="#E9CDB3"/>
<ellipse rx="9.12091" ry="9.5656" transform="matrix(-0.999965 0.00832476 -0.00756869 -0.999971 112.4 1489.62)" fill="#E9CDB3"/>
<ellipse rx="9.12091" ry="9.5656" transform="matrix(-0.999965 0.00832476 -0.00756869 -0.999971 343.202 1494.4)" fill="#FFC850"/>
<ellipse rx="9.12091" ry="9.5656" transform="matrix(-0.999965 0.00832476 -0.00756869 -0.999971 254.667 1486.52)" fill="#FFC850"/>
<ellipse rx="9.12091" ry="9.5656" transform="matrix(-0.999965 0.00832476 -0.00756869 -0.999971 166.132 1478.65)" fill="#FFC850"/>
<ellipse rx="9.12091" ry="9.5656" transform="matrix(-0.999965 0.00832476 -0.00756869 -0.999971 77.597 1470.78)" fill="#FFC850"/>
<ellipse rx="9.12091" ry="9.5656" transform="matrix(-0.999965 0.00832476 -0.00756869 -0.999971 320.646 1527.11)" fill="#FFC850"/>
<ellipse rx="9.12091" ry="9.5656" transform="matrix(-0.999965 0.00832476 -0.00756869 -0.999971 235.853 1505.42)" fill="#E9CDB3"/>
<ellipse rx="9.12091" ry="9.5656" transform="matrix(-0.999965 0.00832476 -0.00756869 -0.999971 34.2821 1532.36)" fill="#E9CDB3"/>
<ellipse rx="9.48361" ry="9.20612" transform="matrix(-0.41005 0.912377 -0.896179 -0.443007 120.682 1580.94)" fill="#E9CDB3"/>
<ellipse rx="9.48361" ry="9.20612" transform="matrix(-0.41005 0.912377 -0.896179 -0.443007 253.547 1565.62)" fill="#E9CDB3"/>
<ellipse rx="9.12091" ry="9.5656" transform="matrix(-0.999965 0.00832476 -0.00756869 -0.999971 365.807 1468.38)" fill="#E9CDB3"/>
<ellipse rx="9.12091" ry="9.5656" transform="matrix(-0.999965 0.00832476 -0.00756869 -0.999971 277.272 1460.51)" fill="#E9CDB3"/>
<ellipse rx="9.12091" ry="9.5656" transform="matrix(-0.999965 0.00832476 -0.00756869 -0.999971 331.005 1449.54)" fill="#D49A52"/>
<ellipse rx="9.12091" ry="9.5656" transform="matrix(-0.999965 0.00832476 -0.00756869 -0.999971 242.47 1441.67)" fill="#D49A52"/>
<ellipse rx="9.12091" ry="9.5656" transform="matrix(-0.999965 0.00832476 -0.00756869 -0.999971 308.45 1482.25)" fill="#D79000"/>
<ellipse rx="9.12091" ry="9.5656" transform="matrix(-0.999965 0.00832476 -0.00756869 -0.999971 219.914 1474.38)" fill="#D79000"/>
<ellipse rx="9.12091" ry="9.5656" transform="matrix(-0.999965 0.00832476 -0.00756869 -0.999971 131.379 1466.51)" fill="#D79000"/>
<ellipse rx="9.12091" ry="9.5656" transform="matrix(-0.999965 0.00832476 -0.00756869 -0.999971 42.8446 1458.63)" fill="#D79000"/>
<ellipse rx="9.48361" ry="9.20612" transform="matrix(-0.41005 0.912377 -0.896179 -0.443007 76.8502 1573.02)" fill="#D79000"/>
<ellipse rx="9.48361" ry="9.20612" transform="matrix(-0.41005 0.912377 -0.896179 -0.443007 238.799 1593.64)" fill="#D79000"/>
<ellipse rx="9.48361" ry="9.20612" transform="matrix(-0.41005 0.912377 -0.896179 -0.443007 361.052 1595.98)" fill="#D79000"/>
<ellipse rx="9.12091" ry="9.5656" transform="matrix(-0.999965 0.00832476 -0.00756869 -0.999971 60.7538 1507.26)" fill="#D79000"/>
<ellipse rx="9.12091" ry="9.5656" transform="matrix(-0.999965 0.00832476 -0.00756869 -0.999971 189.427 1470.69)" fill="#D79000"/>
<ellipse rx="9.12091" ry="9.5656" transform="matrix(-0.999965 0.00832476 -0.00756869 -0.999971 207.578 1578.11)" fill="#D79000"/>
<ellipse rx="9.12091" ry="9.5656" transform="matrix(-0.999965 0.00832476 -0.00756869 -0.999971 100.892 1462.82)" fill="#D79000"/>
<ellipse rx="9.12091" ry="9.5656" transform="matrix(-0.999965 0.00832476 -0.00756869 -0.999971 119.134 1552.73)" fill="#D79000"/>
<ellipse rx="9.12091" ry="9.5656" transform="matrix(-0.999965 0.00832476 -0.00756869 -0.999971 25.9506 1488.42)" fill="#E9CDB3"/>
<ellipse rx="9.12091" ry="9.5656" transform="matrix(-0.999965 0.00832476 -0.00756869 -0.999971 154.624 1451.85)" fill="#E9CDB3"/>
<ellipse rx="9.12091" ry="9.5656" transform="matrix(-0.999965 0.00832476 -0.00756869 -0.999971 169.271 1549.42)" fill="#E9CDB3"/>
<ellipse rx="9.12091" ry="9.5656" transform="matrix(-0.999965 0.00832476 -0.00756869 -0.999971 75.3256 1470.78)" fill="#E9CDB3"/>
<ellipse rx="9.12091" ry="9.5656" transform="matrix(-0.999965 0.00832476 -0.00756869 -0.999971 93.5673 1560.7)" fill="#E9CDB3"/>
<ellipse rx="9.12091" ry="9.5656" transform="matrix(-0.999965 0.00832476 -0.00756869 -0.999971 122.754 1513.07)" fill="#E9CDB3"/>
<ellipse rx="9.12091" ry="9.5656" transform="matrix(-0.999965 0.00832476 -0.00756869 -0.999971 150.31 1574.48)" fill="#E9CDB3"/>
<rect x="0.949219" y="1717" width="370.077" height="187" fill="#291200"/>
<rect y="1767" width="369.128" height="7" fill="#8B3F3D"/>
<path d="M140.177 1839.19L100.856 1798.11L178.558 1797.77L140.177 1839.19Z" fill="#D3BBA3"/>
<path d="M139.864 1839L178.393 1880.25H101.334L139.864 1839Z" fill="#D3BBA3"/>
<path d="M101.162 1880.44L61.8415 1839.36L139.543 1839.02L101.162 1880.44Z" fill="#D49A52"/>
<path d="M101.533 1798.47L140.063 1839.72H63.004L101.533 1798.47Z" fill="#D49A52"/>
<path d="M63.5167 1839.19L24.196 1798.11L101.898 1797.77L63.5167 1839.19Z" fill="#D3BBA3"/>
<path d="M63.2039 1839L101.733 1880.25H24.6744L63.2039 1839Z" fill="#D3BBA3"/>
<path d="M307.187 1839.19L267.866 1798.11L345.568 1797.77L307.187 1839.19Z" fill="#D3BBA3"/>
<path d="M306.873 1839L345.403 1880.25H268.344L306.873 1839Z" fill="#D3BBA3"/>
<path d="M268.172 1880.44L228.851 1839.36L306.553 1839.02L268.172 1880.44Z" fill="#D49A52"/>
<path d="M268.543 1798.47L307.073 1839.72H230.014L268.543 1798.47Z" fill="#D49A52"/>
<path d="M230.527 1839.19L191.206 1798.11L268.908 1797.77L230.527 1839.19Z" fill="#D3BBA3"/>
<path d="M230.214 1839L268.743 1880.25H191.684L230.214 1839Z" fill="#D3BBA3"/>
<rect width="380.741" height="1904" rx="15" fill="#3F3D56" fill-opacity="0.78"/>
</svg>
