<svg width="1184" height="2048" viewBox="0 0 1184 2048" fill="none" xmlns="http://www.w3.org/2000/svg">
<rect x="37" y="6.6958" width="1124" height="2040.35" rx="15" fill="#3F3D56" fill-opacity="0.73"/>
<rect x="31" y="188.442" width="1124" height="187.486" fill="#D3BBA3"/>
<rect x="31" y="5.73901" width="1124" height="187.486" fill="#291200"/>
<path d="M215.596 64.0892L401.441 249.477H29.7504L215.596 64.0892Z" fill="#863B37"/>
<path d="M215.585 433.779L33.3768 247.143L405.043 249.665L215.585 433.779Z" fill="#863B37"/>
<path d="M213.726 90.6736L370.758 247.319H56.6934L213.726 90.6736Z" fill="#225D04"/>
<path d="M213.717 403.047L59.7578 245.347L373.801 247.478L213.717 403.047Z" fill="#225D04"/>
<path d="M212.977 121.055L341.196 248.959H84.7584L212.977 121.055Z" fill="#D79000"/>
<path d="M212.97 376.113L87.2603 247.348L343.681 249.088L212.97 376.113Z" fill="#D79000"/>
<path d="M213.226 140.044L322.236 248.786H104.215L213.226 140.044Z" fill="#291200"/>
<path d="M213.219 356.891L106.343 247.417L324.348 248.896L213.219 356.891Z" fill="#291200"/>
<path d="M211.847 162.831L297.326 248.1H126.368L211.847 162.831Z" fill="#D3BBA3"/>
<path d="M211.843 332.868L128.037 247.025L298.984 248.185L211.843 332.868Z" fill="#D3BBA3"/>
<path d="M213.23 185.617L278.539 250.767H147.92L213.23 185.617Z" fill="#291200"/>
<path d="M213.227 315.534L149.195 249.946L279.806 250.832L213.227 315.534Z" fill="#291200"/>
<path d="M590.596 64.0892L776.441 249.477H404.75L590.596 64.0892Z" fill="#863B37"/>
<path d="M590.585 433.779L408.377 247.143L780.043 249.665L590.585 433.779Z" fill="#863B37"/>
<path d="M588.726 90.6736L745.758 247.319H431.693L588.726 90.6736Z" fill="#225D04"/>
<path d="M588.717 403.047L434.758 245.347L748.801 247.478L588.717 403.047Z" fill="#225D04"/>
<path d="M587.977 121.055L716.196 248.959H459.758L587.977 121.055Z" fill="#D79000"/>
<path d="M587.97 376.113L462.26 247.348L718.681 249.088L587.97 376.113Z" fill="#D79000"/>
<path d="M588.226 140.044L697.236 248.786H479.215L588.226 140.044Z" fill="#291200"/>
<path d="M588.219 356.891L481.343 247.417L699.348 248.896L588.219 356.891Z" fill="#291200"/>
<path d="M586.847 162.831L672.326 248.1H501.368L586.847 162.831Z" fill="#D3BBA3"/>
<path d="M586.843 332.868L503.037 247.025L673.984 248.185L586.843 332.868Z" fill="#D3BBA3"/>
<path d="M588.23 185.617L653.539 250.767H522.92L588.23 185.617Z" fill="#291200"/>
<path d="M588.227 315.534L524.195 249.946L654.806 250.832L588.227 315.534Z" fill="#291200"/>
<path d="M963.596 64.0892L1149.44 249.477H777.75L963.596 64.0892Z" fill="#863B37"/>
<path d="M963.585 433.779L781.377 247.143L1153.04 249.665L963.585 433.779Z" fill="#863B37"/>
<path d="M961.726 90.6733L1118.76 247.319H804.693L961.726 90.6733Z" fill="#225D04"/>
<path d="M961.717 403.047L807.758 245.346L1121.8 247.477L961.717 403.047Z" fill="#225D04"/>
<path d="M960.977 121.055L1089.2 248.959H832.758L960.977 121.055Z" fill="#D79000"/>
<path d="M960.97 376.114L835.26 247.349L1091.68 249.089L960.97 376.114Z" fill="#D79000"/>
<path d="M961.226 140.044L1070.24 248.786H852.215L961.226 140.044Z" fill="#291200"/>
<path d="M961.219 356.892L854.343 247.417L1072.35 248.897L961.219 356.892Z" fill="#291200"/>
<path d="M959.847 162.831L1045.33 248.099H874.368L959.847 162.831Z" fill="#D3BBA3"/>
<path d="M959.843 332.868L876.037 247.025L1046.98 248.185L959.843 332.868Z" fill="#D3BBA3"/>
<path d="M961.23 185.617L1026.54 250.766H895.92L961.23 185.617Z" fill="#291200"/>
<path d="M961.227 315.534L897.195 249.946L1027.81 250.832L961.227 315.534Z" fill="#291200"/>
<rect x="31" y="5.73901" width="1124" height="187.486" fill="#291200"/>
<ellipse rx="9.99997" ry="9.56565" transform="matrix(-0.999971 0.00759295 -0.00829816 -0.999966 1113.17 161.821)" fill="#E9CDB3"/>
<ellipse rx="9.99997" ry="9.56565" transform="matrix(-0.999971 0.00759295 -0.00829816 -0.999966 1016.1 153.949)" fill="#E9CDB3"/>
<ellipse rx="9.99997" ry="9.56565" transform="matrix(-0.999971 0.00759295 -0.00829816 -0.999966 919.036 146.076)" fill="#E9CDB3"/>
<ellipse rx="9.99997" ry="9.56565" transform="matrix(-0.999971 0.00759295 -0.00829816 -0.999966 821.967 138.204)" fill="#E9CDB3"/>
<ellipse rx="9.99997" ry="9.56565" transform="matrix(-0.999971 0.00759295 -0.00829816 -0.999966 724.898 130.332)" fill="#E9CDB3"/>
<ellipse rx="9.99997" ry="9.56565" transform="matrix(-0.999971 0.00759295 -0.00829816 -0.999966 627.831 122.46)" fill="#E9CDB3"/>
<ellipse rx="9.99997" ry="9.56565" transform="matrix(-0.999971 0.00759295 -0.00829816 -0.999966 530.762 114.587)" fill="#E9CDB3"/>
<ellipse rx="9.99997" ry="9.56565" transform="matrix(-0.999971 0.00759295 -0.00829816 -0.999966 443.82 133.518)" fill="#E9CDB3"/>
<ellipse rx="9.99997" ry="9.56565" transform="matrix(-0.999971 0.00759295 -0.00829816 -0.999966 346.752 125.645)" fill="#E9CDB3"/>
<ellipse rx="9.99997" ry="9.56565" transform="matrix(-0.999971 0.00759295 -0.00829816 -0.999966 249.684 117.773)" fill="#E9CDB3"/>
<ellipse rx="9.99997" ry="9.56565" transform="matrix(-0.999971 0.00759295 -0.00829816 -0.999966 1075.01 142.979)" fill="#E9CDB3"/>
<ellipse rx="9.99997" ry="9.56565" transform="matrix(-0.999971 0.00759295 -0.00829816 -0.999966 977.946 135.106)" fill="#E9CDB3"/>
<ellipse rx="9.99997" ry="9.56565" transform="matrix(-0.999971 0.00759295 -0.00829816 -0.999966 880.878 127.234)" fill="#E9CDB3"/>
<ellipse rx="9.99997" ry="9.56565" transform="matrix(-0.999971 0.00759295 -0.00829816 -0.999966 783.81 119.362)" fill="#D49A52"/>
<ellipse rx="9.99997" ry="9.56565" transform="matrix(-0.999971 0.00759295 -0.00829816 -0.999966 686.741 111.49)" fill="#D49A52"/>
<ellipse rx="9.99997" ry="9.56565" transform="matrix(-0.999971 0.00759295 -0.00829816 -0.999966 589.673 103.617)" fill="#D49A52"/>
<ellipse rx="9.99997" ry="9.56565" transform="matrix(-0.999971 0.00759295 -0.00829816 -0.999966 492.605 95.7452)" fill="#D49A52"/>
<ellipse rx="9.99997" ry="9.56565" transform="matrix(-0.999971 0.00759295 -0.00829816 -0.999966 405.663 114.676)" fill="#D49A52"/>
<ellipse rx="9.99997" ry="9.56565" transform="matrix(-0.999971 0.00759295 -0.00829816 -0.999966 308.594 106.804)" fill="#D49A52"/>
<ellipse rx="9.99997" ry="9.56565" transform="matrix(-0.999971 0.00759295 -0.00829816 -0.999966 211.526 98.9313)" fill="#D49A52"/>
<ellipse rx="9.99997" ry="9.56565" transform="matrix(-0.999971 0.00759295 -0.00829816 -0.999966 114.458 91.0593)" fill="#D49A52"/>
<ellipse rx="9.99997" ry="9.56565" transform="matrix(-0.999971 0.00759295 -0.00829816 -0.999966 1050.29 175.691)" fill="#D49A52"/>
<ellipse rx="9.99997" ry="9.56565" transform="matrix(-0.999971 0.00759295 -0.00829816 -0.999966 953.217 167.819)" fill="#D49A52"/>
<ellipse rx="9.99997" ry="9.56565" transform="matrix(-0.999971 0.00759295 -0.00829816 -0.999966 856.148 159.946)" fill="#D49A52"/>
<ellipse rx="9.99997" ry="9.56565" transform="matrix(-0.999971 0.00759295 -0.00829816 -0.999966 1079.59 175.888)" fill="#D49A52"/>
<ellipse rx="9.99997" ry="9.56565" transform="matrix(-0.999971 0.00759295 -0.00829816 -0.999966 759.08 152.074)" fill="#D49A52"/>
<ellipse rx="9.99997" ry="9.56565" transform="matrix(-0.999971 0.00759295 -0.00829816 -0.999966 662.012 144.202)" fill="#D49A52"/>
<ellipse rx="9.99997" ry="9.56565" transform="matrix(-0.999971 0.00759295 -0.00829816 -0.999966 564.943 136.329)" fill="#D49A52"/>
<ellipse rx="9.99997" ry="9.56565" transform="matrix(-0.999971 0.00759295 -0.00829816 -0.999966 467.875 128.457)" fill="#D49A52"/>
<ellipse rx="9.99997" ry="9.56565" transform="matrix(-0.999971 0.00759295 -0.00829816 -0.999966 380.933 147.388)" fill="#D49A52"/>
<ellipse rx="9.99997" ry="9.56565" transform="matrix(-0.999971 0.00759295 -0.00829816 -0.999966 273.738 112.713)" fill="#D49A52"/>
<ellipse rx="9.99997" ry="9.56565" transform="matrix(-0.999971 0.00759295 -0.00829816 -0.999966 176.67 104.84)" fill="#E9CDB3"/>
<ellipse rx="9.99997" ry="9.56565" transform="matrix(-0.999971 0.00759295 -0.00829816 -0.999966 89.7286 123.771)" fill="#E9CDB3"/>
<ellipse rx="9.99997" ry="9.56565" transform="matrix(-0.999971 0.00759295 -0.00829816 -0.999966 66.9673 152.642)" fill="#E9CDB3"/>
<ellipse rx="9.99997" ry="9.56565" transform="matrix(-0.999971 0.00759295 -0.00829816 -0.999966 1109.89 111.384)" fill="#E9CDB3"/>
<ellipse rx="9.99997" ry="9.56565" transform="matrix(-0.999971 0.00759295 -0.00829816 -0.999966 1124.51 81.0383)" fill="#E9CDB3"/>
<ellipse rx="9.64877" ry="9.9198" transform="matrix(-0.441878 0.89676 -0.911868 -0.411135 210.825 164.278)" fill="#E9CDB3"/>
<ellipse rx="9.64877" ry="9.9198" transform="matrix(-0.441878 0.89676 -0.911868 -0.411135 352.177 175.763)" fill="#E9CDB3"/>
<ellipse rx="9.64877" ry="9.9198" transform="matrix(-0.441878 0.89676 -0.911868 -0.411135 497.848 160.44)" fill="#E9CDB3"/>
<ellipse rx="9.64877" ry="9.9198" transform="matrix(-0.441878 0.89676 -0.911868 -0.411135 653.646 171.92)" fill="#E9CDB3"/>
<ellipse rx="9.64877" ry="9.9198" transform="matrix(-0.441878 0.89676 -0.911868 -0.411135 807.502 180.494)" fill="#E9CDB3"/>
<ellipse rx="9.64877" ry="9.9198" transform="matrix(-0.441878 0.89676 -0.911868 -0.411135 989.622 176.196)" fill="#E9CDB3"/>
<ellipse rx="9.99997" ry="9.56565" transform="matrix(-0.999971 0.00759295 -0.00829816 -0.999966 1002.73 109.09)" fill="#E9CDB3"/>
<ellipse rx="9.99997" ry="9.56565" transform="matrix(-0.999971 0.00759295 -0.00829816 -0.999966 905.663 101.218)" fill="#E9CDB3"/>
<ellipse rx="9.99997" ry="9.56565" transform="matrix(-0.999971 0.00759295 -0.00829816 -0.999966 808.594 93.3458)" fill="#E9CDB3"/>
<ellipse rx="9.99997" ry="9.56565" transform="matrix(-0.999971 0.00759295 -0.00829816 -0.999966 711.526 85.4736)" fill="#E9CDB3"/>
<ellipse rx="9.99997" ry="9.56565" transform="matrix(-0.999971 0.00759295 -0.00829816 -0.999966 614.458 77.6013)" fill="#E9CDB3"/>
<ellipse rx="9.99997" ry="9.56565" transform="matrix(-0.999971 0.00759295 -0.00829816 -0.999966 517.389 69.7291)" fill="#E9CDB3"/>
<ellipse rx="9.99997" ry="9.56565" transform="matrix(-0.999971 0.00759295 -0.00829816 -0.999966 430.448 88.66)" fill="#E9CDB3"/>
<ellipse rx="9.99997" ry="9.56565" transform="matrix(-0.999971 0.00759295 -0.00829816 -0.999966 333.379 80.7875)" fill="#E9CDB3"/>
<ellipse rx="9.99997" ry="9.56565" transform="matrix(-0.999971 0.00759295 -0.00829816 -0.999966 236.311 72.915)" fill="#E9CDB3"/>
<ellipse rx="9.99997" ry="9.56565" transform="matrix(-0.999971 0.00759295 -0.00829816 -0.999966 139.242 65.043)" fill="#E9CDB3"/>
<ellipse rx="9.99997" ry="9.56565" transform="matrix(-0.999971 0.00759295 -0.00829816 -0.999966 1061.64 98.1205)" fill="#E9CDB3"/>
<ellipse rx="9.99997" ry="9.56565" transform="matrix(-0.999971 0.00759295 -0.00829816 -0.999966 964.574 90.2482)" fill="#FFC850"/>
<ellipse rx="9.99997" ry="9.56565" transform="matrix(-0.999971 0.00759295 -0.00829816 -0.999966 867.505 82.376)" fill="#FFC850"/>
<ellipse rx="9.99997" ry="9.56565" transform="matrix(-0.999971 0.00759295 -0.00829816 -0.999966 770.437 74.5037)" fill="#FFC850"/>
<ellipse rx="9.99997" ry="9.56565" transform="matrix(-0.999971 0.00759295 -0.00829816 -0.999966 673.368 66.6315)" fill="#FFC850"/>
<ellipse rx="9.99997" ry="9.56565" transform="matrix(-0.999971 0.00759295 -0.00829816 -0.999966 576.3 58.7592)" fill="#FFC850"/>
<ellipse rx="9.99997" ry="9.56565" transform="matrix(-0.999971 0.00759295 -0.00829816 -0.999966 479.231 50.8869)" fill="#FFC850"/>
<ellipse rx="9.99997" ry="9.56565" transform="matrix(-0.999971 0.00759295 -0.00829816 -0.999966 392.29 69.8178)" fill="#FFC850"/>
<ellipse rx="9.99997" ry="9.56565" transform="matrix(-0.999971 0.00759295 -0.00829816 -0.999966 295.221 61.9453)" fill="#FFC850"/>
<ellipse rx="9.99997" ry="9.56565" transform="matrix(-0.999971 0.00759295 -0.00829816 -0.999966 198.153 54.0733)" fill="#FFC850"/>
<ellipse rx="9.99997" ry="9.56565" transform="matrix(-0.999971 0.00759295 -0.00829816 -0.999966 101.085 46.2008)" fill="#FFC850"/>
<ellipse rx="9.99997" ry="9.56565" transform="matrix(-0.999971 0.00759295 -0.00829816 -0.999966 1036.91 130.833)" fill="#FFC850"/>
<ellipse rx="9.99997" ry="9.56565" transform="matrix(-0.999971 0.00759295 -0.00829816 -0.999966 939.844 122.96)" fill="#FFC850"/>
<ellipse rx="9.99997" ry="9.56565" transform="matrix(-0.999971 0.00759295 -0.00829816 -0.999966 842.776 115.088)" fill="#FFC850"/>
<ellipse rx="9.99997" ry="9.56565" transform="matrix(-0.999971 0.00759295 -0.00829816 -0.999966 745.708 107.216)" fill="#FFC850"/>
<ellipse rx="9.99997" ry="9.56565" transform="matrix(-0.999971 0.00759295 -0.00829816 -0.999966 648.639 99.3432)" fill="#FFC850"/>
<ellipse rx="9.99997" ry="9.56565" transform="matrix(-0.999971 0.00759295 -0.00829816 -0.999966 551.571 91.471)" fill="#FFC850"/>
<ellipse rx="9.99997" ry="9.56565" transform="matrix(-0.999971 0.00759295 -0.00829816 -0.999966 464.629 110.402)" fill="#FFC850"/>
<ellipse rx="9.99997" ry="9.56565" transform="matrix(-0.999971 0.00759295 -0.00829816 -0.999966 367.561 102.53)" fill="#FFC850"/>
<ellipse rx="9.99997" ry="9.56565" transform="matrix(-0.999971 0.00759295 -0.00829816 -0.999966 274.594 80.8375)" fill="#E9CDB3"/>
<ellipse rx="9.99997" ry="9.56565" transform="matrix(-0.999971 0.00759295 -0.00829816 -0.999966 53.5948 107.783)" fill="#E9CDB3"/>
<ellipse rx="9.99997" ry="9.56565" transform="matrix(-0.999971 0.00759295 -0.00829816 -0.999966 1096.52 66.5259)" fill="#E9CDB3"/>
<ellipse rx="9.99997" ry="9.56565" transform="matrix(-0.999971 0.00759295 -0.00829816 -0.999966 1111.14 36.1803)" fill="#E9CDB3"/>
<ellipse rx="9.64877" ry="9.9198" transform="matrix(-0.441878 0.89676 -0.911868 -0.411135 148.322 156.364)" fill="#E9CDB3"/>
<ellipse rx="9.64877" ry="9.9198" transform="matrix(-0.441878 0.89676 -0.911868 -0.411135 293.994 141.041)" fill="#E9CDB3"/>
<ellipse rx="9.64877" ry="9.9198" transform="matrix(-0.441878 0.89676 -0.911868 -0.411135 449.791 152.52)" fill="#E9CDB3"/>
<ellipse rx="9.64877" ry="9.9198" transform="matrix(-0.441878 0.89676 -0.911868 -0.411135 605.589 164)" fill="#E9CDB3"/>
<ellipse rx="9.64877" ry="9.9198" transform="matrix(-0.441878 0.89676 -0.911868 -0.411135 740.476 181.173)" fill="#E9CDB3"/>
<ellipse rx="9.64877" ry="9.9198" transform="matrix(-0.441878 0.89676 -0.911868 -0.411135 925.576 177.887)" fill="#E9CDB3"/>
<ellipse rx="9.99997" ry="9.56565" transform="matrix(-0.999971 0.00759295 -0.00829816 -0.999966 989.358 64.2321)" fill="#E9CDB3"/>
<ellipse rx="9.99997" ry="9.56565" transform="matrix(-0.999971 0.00759295 -0.00829816 -0.999966 892.29 56.3599)" fill="#E9CDB3"/>
<ellipse rx="9.99997" ry="9.56565" transform="matrix(-0.999971 0.00759295 -0.00829816 -0.999966 795.222 48.4876)" fill="#E9CDB3"/>
<ellipse rx="9.99997" ry="9.56565" transform="matrix(-0.999971 0.00759295 -0.00829816 -0.999966 698.153 40.6153)" fill="#E9CDB3"/>
<ellipse rx="9.99997" ry="9.56565" transform="matrix(-0.999971 0.00759295 -0.00829816 -0.999966 601.085 32.7431)" fill="#E9CDB3"/>
<ellipse rx="9.99997" ry="9.56565" transform="matrix(-0.999971 0.00759295 -0.00829816 -0.999966 504.017 24.8708)" fill="#E9CDB3"/>
<ellipse rx="9.99997" ry="9.56565" transform="matrix(-0.999971 0.00759295 -0.00829816 -0.999966 417.075 43.8014)" fill="#E9CDB3"/>
<ellipse rx="9.99997" ry="9.56565" transform="matrix(-0.999971 0.00759295 -0.00829816 -0.999966 320.006 35.929)" fill="#E9CDB3"/>
<ellipse rx="9.99997" ry="9.56565" transform="matrix(-0.999971 0.00759295 -0.00829816 -0.999966 1048.27 53.2623)" fill="#D49A52"/>
<ellipse rx="9.99997" ry="9.56565" transform="matrix(-0.999971 0.00759295 -0.00829816 -0.999966 951.201 45.39)" fill="#D49A52"/>
<ellipse rx="9.99997" ry="9.56565" transform="matrix(-0.999971 0.00759295 -0.00829816 -0.999966 854.132 37.5177)" fill="#D49A52"/>
<ellipse rx="9.99997" ry="9.56565" transform="matrix(-0.999971 0.00759295 -0.00829816 -0.999966 757.064 29.6455)" fill="#D49A52"/>
<ellipse rx="9.99997" ry="9.56565" transform="matrix(-0.999971 0.00759295 -0.00829816 -0.999966 659.996 21.7732)" fill="#D49A52"/>
<ellipse rx="9.99997" ry="9.56565" transform="matrix(-0.999971 0.00759295 -0.00829816 -0.999966 562.927 13.9009)" fill="#D49A52"/>
<ellipse rx="9.99997" ry="9.56565" transform="matrix(-0.999971 0.00759295 -0.00829816 -0.999966 475.985 32.8318)" fill="#D49A52"/>
<ellipse rx="9.99997" ry="9.56565" transform="matrix(-0.999971 0.00759295 -0.00829816 -0.999966 378.918 24.9593)" fill="#D49A52"/>
<ellipse rx="9.99997" ry="9.56565" transform="matrix(-0.999971 0.00759295 -0.00829816 -0.999966 281.849 17.0868)" fill="#D49A52"/>
<ellipse rx="9.99997" ry="9.56565" transform="matrix(-0.999971 0.00759295 -0.00829816 -0.999966 1023.54 85.974)" fill="#D49A52"/>
<ellipse rx="9.99997" ry="9.56565" transform="matrix(-0.999971 0.00759295 -0.00829816 -0.999966 926.472 78.102)" fill="#D49A52"/>
<ellipse rx="9.99997" ry="9.56565" transform="matrix(-0.999971 0.00759295 -0.00829816 -0.999966 829.403 70.2295)" fill="#D49A52"/>
<ellipse rx="9.99997" ry="9.56565" transform="matrix(-0.999971 0.00759295 -0.00829816 -0.999966 732.335 62.3575)" fill="#D49A52"/>
<ellipse rx="9.99997" ry="9.56565" transform="matrix(-0.999971 0.00759295 -0.00829816 -0.999966 635.267 54.485)" fill="#D49A52"/>
<ellipse rx="9.99997" ry="9.56565" transform="matrix(-0.999971 0.00759295 -0.00829816 -0.999966 538.198 46.6128)" fill="#D49A52"/>
<ellipse rx="9.99997" ry="9.56565" transform="matrix(-0.999971 0.00759295 -0.00829816 -0.999966 451.256 65.5436)" fill="#D49A52"/>
<ellipse rx="9.99997" ry="9.56565" transform="matrix(-0.999971 0.00759295 -0.00829816 -0.999966 354.188 57.6711)" fill="#D79000"/>
<ellipse rx="9.99997" ry="9.56565" transform="matrix(-0.999971 0.00759295 -0.00829816 -0.999966 257.119 49.7991)" fill="#D79000"/>
<ellipse rx="9.99997" ry="9.56565" transform="matrix(-0.999971 0.00759295 -0.00829816 -0.999966 160.051 41.9266)" fill="#D79000"/>
<ellipse rx="9.99997" ry="9.56565" transform="matrix(-0.999971 0.00759295 -0.00829816 -0.999966 62.9829 34.0546)" fill="#D79000"/>
<ellipse rx="9.99997" ry="9.56565" transform="matrix(-0.999971 0.00759295 -0.00829816 -0.999966 1083.15 21.6674)" fill="#D79000"/>
<ellipse rx="9.64877" ry="9.9198" transform="matrix(-0.441878 0.89676 -0.911868 -0.411135 100.266 148.444)" fill="#D79000"/>
<ellipse rx="9.64877" ry="9.9198" transform="matrix(-0.441878 0.89676 -0.911868 -0.411135 277.824 169.061)" fill="#D79000"/>
<ellipse rx="9.64877" ry="9.9198" transform="matrix(-0.441878 0.89676 -0.911868 -0.411135 411.861 171.403)" fill="#D79000"/>
<ellipse rx="9.64877" ry="9.9198" transform="matrix(-0.441878 0.89676 -0.911868 -0.411135 557.532 156.08)" fill="#D79000"/>
<ellipse rx="9.64877" ry="9.9198" transform="matrix(-0.441878 0.89676 -0.911868 -0.411135 702.061 151.763)" fill="#D79000"/>
<ellipse rx="9.64877" ry="9.9198" transform="matrix(-0.441878 0.89676 -0.911868 -0.411135 886.42 171.425)" fill="#D79000"/>
<ellipse rx="9.99997" ry="9.56565" transform="matrix(-0.999971 0.00759295 -0.00829816 -0.999966 975.986 19.3739)" fill="#D79000"/>
<ellipse rx="9.99997" ry="9.56565" transform="matrix(-0.999971 0.00759295 -0.00829816 -0.999966 82.6182 82.6814)" fill="#D79000"/>
<ellipse rx="9.99997" ry="9.56565" transform="matrix(-0.999971 0.00759295 -0.00829816 -0.999966 223.693 46.112)" fill="#D79000"/>
<ellipse rx="9.99997" ry="9.56565" transform="matrix(-0.999971 0.00759295 -0.00829816 -0.999966 243.595 153.536)" fill="#D79000"/>
<ellipse rx="9.99997" ry="9.56565" transform="matrix(-0.999971 0.00759295 -0.00829816 -0.999966 126.626 38.2396)" fill="#D79000"/>
<ellipse rx="9.99997" ry="9.56565" transform="matrix(-0.999971 0.00759295 -0.00829816 -0.999966 146.626 128.156)" fill="#D79000"/>
<ellipse rx="9.99997" ry="9.56565" transform="matrix(-0.999971 0.00759295 -0.00829816 -0.999966 44.4605 63.8389)" fill="#E9CDB3"/>
<ellipse rx="9.99997" ry="9.56565" transform="matrix(-0.999971 0.00759295 -0.00829816 -0.999966 185.536 27.2699)" fill="#E9CDB3"/>
<ellipse rx="9.99997" ry="9.56565" transform="matrix(-0.999971 0.00759295 -0.00829816 -0.999966 201.595 124.839)" fill="#E9CDB3"/>
<ellipse rx="9.99997" ry="9.56565" transform="matrix(-0.999971 0.00759295 -0.00829816 -0.999966 98.5948 46.2004)" fill="#E9CDB3"/>
<ellipse rx="9.99997" ry="9.56565" transform="matrix(-0.999971 0.00759295 -0.00829816 -0.999966 118.595 136.117)" fill="#E9CDB3"/>
<ellipse rx="9.99997" ry="9.56565" transform="matrix(-0.999971 0.00759295 -0.00829816 -0.999966 1010.17 41.1158)" fill="#E9CDB3"/>
<ellipse rx="9.99997" ry="9.56565" transform="matrix(-0.999971 0.00759295 -0.00829816 -0.999966 913.099 33.2436)" fill="#E9CDB3"/>
<ellipse rx="9.99997" ry="9.56565" transform="matrix(-0.999971 0.00759295 -0.00829816 -0.999966 816.031 25.3713)" fill="#E9CDB3"/>
<ellipse rx="9.99997" ry="9.56565" transform="matrix(-0.999971 0.00759295 -0.00829816 -0.999966 718.962 17.4991)" fill="#E9CDB3"/>
<ellipse rx="9.99997" ry="9.56565" transform="matrix(-0.999971 0.00759295 -0.00829816 -0.999966 150.594 88.4899)" fill="#E9CDB3"/>
<ellipse rx="9.99997" ry="9.56565" transform="matrix(-0.999971 0.00759295 -0.00829816 -0.999966 180.807 149.899)" fill="#E9CDB3"/>
<rect x="31" y="313.752" width="1124" height="187.486" fill="#291200"/>
<rect x="28" y="363.494" width="1122" height="11.4787" fill="#8B3F3D"/>
<path d="M1081.46 469.924L1024.01 415.621L1137.53 415.181L1081.46 469.924Z" fill="#D3BBA3"/>
<path d="M1081 469.672L1137.29 524.196H1024.71L1081 469.672Z" fill="#D3BBA3"/>
<path d="M1024.46 524.448L967.01 470.145L1080.53 469.705L1024.46 524.448Z" fill="#D49A52"/>
<path d="M1025 416.104L1081.29 470.629H968.708L1025 416.104Z" fill="#D49A52"/>
<path d="M969.458 469.924L912.01 415.621L1025.53 415.181L969.458 469.924Z" fill="#D3BBA3"/>
<path d="M969 469.672L1025.29 524.196H912.708L969 469.672Z" fill="#D3BBA3"/>
<path d="M795.458 469.924L738.01 415.621L851.533 415.181L795.458 469.924Z" fill="#D3BBA3"/>
<path d="M795 469.672L851.292 524.196H738.708L795 469.672Z" fill="#D3BBA3"/>
<path d="M738.458 524.448L681.01 470.145L794.533 469.705L738.458 524.448Z" fill="#D49A52"/>
<path d="M739 416.104L795.292 470.629H682.708L739 416.104Z" fill="#D49A52"/>
<path d="M683.458 469.924L626.01 415.621L739.533 415.181L683.458 469.924Z" fill="#D3BBA3"/>
<path d="M683 469.672L739.292 524.196H626.708L683 469.672Z" fill="#D3BBA3"/>
<path d="M509.458 469.924L452.01 415.621L565.533 415.181L509.458 469.924Z" fill="#D3BBA3"/>
<path d="M509 469.672L565.292 524.196H452.708L509 469.672Z" fill="#D3BBA3"/>
<path d="M452.458 524.448L395.01 470.145L508.533 469.705L452.458 524.448Z" fill="#D49A52"/>
<path d="M453 416.104L509.292 470.629H396.708L453 416.104Z" fill="#D49A52"/>
<path d="M397.458 469.924L340.01 415.621L453.533 415.181L397.458 469.924Z" fill="#D3BBA3"/>
<path d="M397 469.672L453.292 524.196H340.708L397 469.672Z" fill="#D3BBA3"/>
<path d="M223.458 469.924L166.01 415.621L279.533 415.181L223.458 469.924Z" fill="#D3BBA3"/>
<path d="M223 469.672L279.292 524.196H166.708L223 469.672Z" fill="#D3BBA3"/>
<path d="M166.458 524.448L109.01 470.145L222.533 469.705L166.458 524.448Z" fill="#D49A52"/>
<path d="M167 416.104L223.292 470.629H110.708L167 416.104Z" fill="#D49A52"/>
<path d="M111.458 469.924L54.01 415.621L167.533 415.181L111.458 469.924Z" fill="#D3BBA3"/>
<path d="M111 469.672L167.292 524.196H54.7084L111 469.672Z" fill="#D3BBA3"/>
<rect x="32" y="976.65" width="1124" height="187.486" fill="#D3BBA3"/>
<rect x="32" y="793.947" width="1124" height="187.486" fill="#291200"/>
<path d="M216.596 852.297L402.441 1037.68H30.7504L216.596 852.297Z" fill="#863B37"/>
<path d="M216.585 1221.99L34.3768 1035.35L406.043 1037.87L216.585 1221.99Z" fill="#863B37"/>
<path d="M214.726 878.881L371.758 1035.53H57.6934L214.726 878.881Z" fill="#225D04"/>
<path d="M214.717 1191.26L60.7578 1033.55L374.801 1035.69L214.717 1191.26Z" fill="#225D04"/>
<path d="M213.977 909.263L342.196 1037.17H85.7584L213.977 909.263Z" fill="#D79000"/>
<path d="M213.97 1164.32L88.2603 1035.56L344.681 1037.3L213.97 1164.32Z" fill="#D79000"/>
<path d="M214.226 928.252L323.236 1036.99H105.215L214.226 928.252Z" fill="#291200"/>
<path d="M214.219 1145.1L107.343 1035.62L325.348 1037.1L214.219 1145.1Z" fill="#291200"/>
<path d="M212.847 951.039L298.326 1036.31H127.368L212.847 951.039Z" fill="#D3BBA3"/>
<path d="M212.843 1121.08L129.037 1035.23L299.984 1036.39L212.843 1121.08Z" fill="#D3BBA3"/>
<path d="M214.23 973.825L279.539 1038.97H148.92L214.23 973.825Z" fill="#291200"/>
<path d="M214.227 1103.74L150.195 1038.15L280.806 1039.04L214.227 1103.74Z" fill="#291200"/>
<path d="M591.596 852.297L777.441 1037.68H405.75L591.596 852.297Z" fill="#863B37"/>
<path d="M591.585 1221.99L409.377 1035.35L781.043 1037.87L591.585 1221.99Z" fill="#863B37"/>
<path d="M589.726 878.881L746.758 1035.53H432.693L589.726 878.881Z" fill="#225D04"/>
<path d="M589.717 1191.26L435.758 1033.55L749.801 1035.69L589.717 1191.26Z" fill="#225D04"/>
<path d="M588.977 909.263L717.196 1037.17H460.758L588.977 909.263Z" fill="#D79000"/>
<path d="M588.97 1164.32L463.26 1035.56L719.681 1037.3L588.97 1164.32Z" fill="#D79000"/>
<path d="M589.226 928.252L698.236 1036.99H480.215L589.226 928.252Z" fill="#291200"/>
<path d="M589.219 1145.1L482.343 1035.62L700.348 1037.1L589.219 1145.1Z" fill="#291200"/>
<path d="M587.847 951.039L673.326 1036.31H502.368L587.847 951.039Z" fill="#D3BBA3"/>
<path d="M587.843 1121.08L504.037 1035.23L674.984 1036.39L587.843 1121.08Z" fill="#D3BBA3"/>
<path d="M589.23 973.825L654.539 1038.97H523.92L589.23 973.825Z" fill="#291200"/>
<path d="M589.227 1103.74L525.195 1038.15L655.806 1039.04L589.227 1103.74Z" fill="#291200"/>
<path d="M964.596 852.297L1150.44 1037.68H778.75L964.596 852.297Z" fill="#863B37"/>
<path d="M964.585 1221.99L782.377 1035.35L1154.04 1037.87L964.585 1221.99Z" fill="#863B37"/>
<path d="M962.726 878.881L1119.76 1035.53H805.693L962.726 878.881Z" fill="#225D04"/>
<path d="M962.717 1191.26L808.758 1033.55L1122.8 1035.69L962.717 1191.26Z" fill="#225D04"/>
<path d="M961.977 909.263L1090.2 1037.17H833.758L961.977 909.263Z" fill="#D79000"/>
<path d="M961.97 1164.32L836.26 1035.56L1092.68 1037.3L961.97 1164.32Z" fill="#D79000"/>
<path d="M962.226 928.252L1071.24 1036.99H853.215L962.226 928.252Z" fill="#291200"/>
<path d="M962.219 1145.1L855.343 1035.62L1073.35 1037.1L962.219 1145.1Z" fill="#291200"/>
<path d="M960.847 951.038L1046.33 1036.31H875.368L960.847 951.038Z" fill="#D3BBA3"/>
<path d="M960.843 1121.08L877.037 1035.23L1047.98 1036.39L960.843 1121.08Z" fill="#D3BBA3"/>
<path d="M962.23 973.825L1027.54 1038.97H896.92L962.23 973.825Z" fill="#291200"/>
<path d="M962.227 1103.74L898.195 1038.15L1028.81 1039.04L962.227 1103.74Z" fill="#291200"/>
<rect x="32" y="1101.96" width="1124" height="187.486" fill="#291200"/>
<rect x="29" y="1151.7" width="1122" height="11.4787" fill="#8B3F3D"/>
<path d="M1082.46 1258.13L1025.01 1203.83L1138.53 1203.39L1082.46 1258.13Z" fill="#D3BBA3"/>
<path d="M1082 1257.88L1138.29 1312.4H1025.71L1082 1257.88Z" fill="#D3BBA3"/>
<path d="M1025.46 1312.66L968.01 1258.35L1081.53 1257.91L1025.46 1312.66Z" fill="#D49A52"/>
<path d="M1026 1204.31L1082.29 1258.84H969.708L1026 1204.31Z" fill="#D49A52"/>
<path d="M970.458 1258.13L913.01 1203.83L1026.53 1203.39L970.458 1258.13Z" fill="#D3BBA3"/>
<path d="M970 1257.88L1026.29 1312.4H913.708L970 1257.88Z" fill="#D3BBA3"/>
<path d="M796.458 1258.13L739.01 1203.83L852.533 1203.39L796.458 1258.13Z" fill="#D3BBA3"/>
<path d="M796 1257.88L852.292 1312.4H739.708L796 1257.88Z" fill="#D3BBA3"/>
<path d="M739.458 1312.66L682.01 1258.35L795.533 1257.91L739.458 1312.66Z" fill="#D49A52"/>
<path d="M740 1204.31L796.292 1258.84H683.708L740 1204.31Z" fill="#D49A52"/>
<path d="M684.458 1258.13L627.01 1203.83L740.533 1203.39L684.458 1258.13Z" fill="#D3BBA3"/>
<path d="M684 1257.88L740.292 1312.4H627.708L684 1257.88Z" fill="#D3BBA3"/>
<path d="M510.458 1258.13L453.01 1203.83L566.533 1203.39L510.458 1258.13Z" fill="#D3BBA3"/>
<path d="M510 1257.88L566.292 1312.4H453.708L510 1257.88Z" fill="#D3BBA3"/>
<path d="M453.458 1312.66L396.01 1258.35L509.533 1257.91L453.458 1312.66Z" fill="#D49A52"/>
<path d="M454 1204.31L510.292 1258.84H397.708L454 1204.31Z" fill="#D49A52"/>
<path d="M398.458 1258.13L341.01 1203.83L454.533 1203.39L398.458 1258.13Z" fill="#D3BBA3"/>
<path d="M398 1257.88L454.292 1312.4H341.708L398 1257.88Z" fill="#D3BBA3"/>
<path d="M224.458 1258.13L167.01 1203.83L280.533 1203.39L224.458 1258.13Z" fill="#D3BBA3"/>
<path d="M224 1257.88L280.292 1312.4H167.708L224 1257.88Z" fill="#D3BBA3"/>
<path d="M167.458 1312.66L110.01 1258.35L223.533 1257.91L167.458 1312.66Z" fill="#D49A52"/>
<path d="M168 1204.31L224.292 1258.84H111.708L168 1204.31Z" fill="#D49A52"/>
<path d="M112.458 1258.13L55.01 1203.83L168.533 1203.39L112.458 1258.13Z" fill="#D3BBA3"/>
<path d="M112 1257.88L168.292 1312.4H55.7084L112 1257.88Z" fill="#D3BBA3"/>
<rect x="31" y="793.947" width="1124" height="187.486" fill="#291200"/>
<rect x="30" y="639.94" width="1124" height="11.4787" fill="#8B3F3D"/>
<ellipse rx="9.99722" ry="9.56853" transform="matrix(0.996997 -0.0774394 0.0845829 0.996416 55.4123 796.9)" fill="#E9CDB3"/>
<ellipse rx="9.99722" ry="9.56853" transform="matrix(0.996997 -0.0774394 0.0845829 0.996416 152.822 797.971)" fill="#E9CDB3"/>
<ellipse rx="9.99722" ry="9.56853" transform="matrix(0.996997 -0.0774394 0.0845829 0.996416 250.233 799.043)" fill="#E9CDB3"/>
<ellipse rx="9.99722" ry="9.56853" transform="matrix(0.996997 -0.0774394 0.0845829 0.996416 347.643 800.114)" fill="#E9CDB3"/>
<ellipse rx="9.99722" ry="9.56853" transform="matrix(0.996997 -0.0774394 0.0845829 0.996416 445.053 801.185)" fill="#E9CDB3"/>
<ellipse rx="9.99722" ry="9.56853" transform="matrix(0.996997 -0.0774394 0.0845829 0.996416 542.463 802.257)" fill="#E9CDB3"/>
<ellipse rx="9.99722" ry="9.56853" transform="matrix(0.996997 -0.0774394 0.0845829 0.996416 639.873 803.328)" fill="#E9CDB3"/>
<ellipse rx="9.99722" ry="9.56853" transform="matrix(0.996997 -0.0774394 0.0845829 0.996416 737.283 804.399)" fill="#E9CDB3"/>
<ellipse rx="9.99722" ry="9.56853" transform="matrix(0.996997 -0.0774394 0.0845829 0.996416 834.694 805.47)" fill="#E9CDB3"/>
<ellipse rx="9.99722" ry="9.56853" transform="matrix(0.996997 -0.0774394 0.0845829 0.996416 932.104 806.542)" fill="#E9CDB3"/>
<ellipse rx="9.99722" ry="9.56853" transform="matrix(0.996997 -0.0774394 0.0845829 0.996416 1029.51 807.613)" fill="#E9CDB3"/>
<ellipse rx="9.99722" ry="9.56853" transform="matrix(0.996997 -0.0774394 0.0845829 0.996416 94.9064 813.027)" fill="#E9CDB3"/>
<ellipse rx="9.99722" ry="9.56853" transform="matrix(0.996997 -0.0774394 0.0845829 0.996416 192.317 814.098)" fill="#E9CDB3"/>
<ellipse rx="9.99722" ry="9.56853" transform="matrix(0.996997 -0.0774394 0.0845829 0.996416 289.727 815.169)" fill="#E9CDB3"/>
<ellipse rx="9.99722" ry="9.56853" transform="matrix(0.996997 -0.0774394 0.0845829 0.996416 387.137 816.241)" fill="#D49A52"/>
<ellipse rx="9.99722" ry="9.56853" transform="matrix(0.996997 -0.0774394 0.0845829 0.996416 484.547 817.312)" fill="#D49A52"/>
<ellipse rx="9.99722" ry="9.56853" transform="matrix(0.996997 -0.0774394 0.0845829 0.996416 581.957 818.383)" fill="#D49A52"/>
<ellipse rx="9.99722" ry="9.56853" transform="matrix(0.996997 -0.0774394 0.0845829 0.996416 679.367 819.455)" fill="#D49A52"/>
<ellipse rx="9.99722" ry="9.56853" transform="matrix(0.996997 -0.0774394 0.0845829 0.996416 776.778 820.526)" fill="#D49A52"/>
<ellipse rx="9.99722" ry="9.56853" transform="matrix(0.996997 -0.0774394 0.0845829 0.996416 874.188 821.597)" fill="#D49A52"/>
<ellipse rx="9.99722" ry="9.56853" transform="matrix(0.996997 -0.0774394 0.0845829 0.996416 971.598 822.668)" fill="#D49A52"/>
<ellipse rx="9.99722" ry="9.56853" transform="matrix(0.996997 -0.0774394 0.0845829 0.996416 1069.01 823.739)" fill="#D49A52"/>
<ellipse rx="9.99722" ry="9.56853" transform="matrix(0.996997 -0.0774394 0.0845829 0.996416 117.072 778.675)" fill="#D49A52"/>
<ellipse rx="9.99722" ry="9.56853" transform="matrix(0.996997 -0.0774394 0.0845829 0.996416 214.483 779.746)" fill="#D49A52"/>
<ellipse rx="9.99722" ry="9.56853" transform="matrix(0.996997 -0.0774394 0.0845829 0.996416 311.893 780.817)" fill="#D49A52"/>
<ellipse rx="9.99722" ry="9.56853" transform="matrix(0.996997 -0.0774394 0.0845829 0.996416 87.8302 780.525)" fill="#D49A52"/>
<ellipse rx="9.99722" ry="9.56853" transform="matrix(0.996997 -0.0774394 0.0845829 0.996416 409.303 781.889)" fill="#D49A52"/>
<ellipse rx="9.99722" ry="9.56853" transform="matrix(0.996997 -0.0774394 0.0845829 0.996416 506.713 782.96)" fill="#D49A52"/>
<ellipse rx="9.99722" ry="9.56853" transform="matrix(0.996997 -0.0774394 0.0845829 0.996416 604.123 784.031)" fill="#D49A52"/>
<ellipse rx="9.99722" ry="9.56853" transform="matrix(0.996997 -0.0774394 0.0845829 0.996416 701.534 785.103)" fill="#D49A52"/>
<ellipse rx="9.99722" ry="9.56853" transform="matrix(0.996997 -0.0774394 0.0845829 0.996416 798.944 786.174)" fill="#D49A52"/>
<ellipse rx="9.99722" ry="9.56853" transform="matrix(0.996997 -0.0774394 0.0845829 0.996416 896.354 787.245)" fill="#D49A52"/>
<ellipse rx="9.99722" ry="9.56853" transform="matrix(0.996997 -0.0774394 0.0845829 0.996416 993.764 788.316)" fill="#E9CDB3"/>
<ellipse rx="9.99722" ry="9.56853" transform="matrix(0.996997 -0.0774394 0.0845829 0.996416 1091.17 789.388)" fill="#E9CDB3"/>
<ellipse rx="9.99722" ry="9.56853" transform="matrix(0.996997 -0.0774394 0.0845829 0.996416 1111.67 759.004)" fill="#E9CDB3"/>
<ellipse rx="9.99722" ry="9.56853" transform="matrix(0.996997 -0.0774394 0.0845829 0.996416 62.5309 846.973)" fill="#E9CDB3"/>
<ellipse rx="9.99722" ry="9.56853" transform="matrix(0.996997 -0.0774394 0.0845829 0.996416 50.2726 878.259)" fill="#E9CDB3"/>
<ellipse rx="9.65055" ry="9.91806" transform="matrix(0.372175 -0.925059 0.940982 0.346407 981.715 756.432)" fill="#E9CDB3"/>
<ellipse rx="9.65055" ry="9.91806" transform="matrix(0.372175 -0.925059 0.940982 0.346407 825.457 755.865)" fill="#E9CDB3"/>
<ellipse rx="9.65055" ry="9.91806" transform="matrix(0.372175 -0.925059 0.940982 0.346407 669.199 755.299)" fill="#E9CDB3"/>
<ellipse rx="9.65055" ry="9.91806" transform="matrix(0.372175 -0.925059 0.940982 0.346407 512.941 754.731)" fill="#E9CDB3"/>
<ellipse rx="9.65055" ry="9.91806" transform="matrix(0.372175 -0.925059 0.940982 0.346407 358.841 756.927)" fill="#E9CDB3"/>
<ellipse rx="9.65055" ry="9.91806" transform="matrix(0.372175 -0.925059 0.940982 0.346407 177.536 773.934)" fill="#E9CDB3"/>
<ellipse rx="9.99722" ry="9.56853" transform="matrix(0.996997 -0.0774394 0.0845829 0.996416 169.584 841.776)" fill="#E9CDB3"/>
<ellipse rx="9.99722" ry="9.56853" transform="matrix(0.996997 -0.0774394 0.0845829 0.996416 266.994 842.847)" fill="#E9CDB3"/>
<ellipse rx="9.99722" ry="9.56853" transform="matrix(0.996997 -0.0774394 0.0845829 0.996416 364.404 843.919)" fill="#E9CDB3"/>
<ellipse rx="9.99722" ry="9.56853" transform="matrix(0.996997 -0.0774394 0.0845829 0.996416 461.814 844.99)" fill="#E9CDB3"/>
<ellipse rx="9.99722" ry="9.56853" transform="matrix(0.996997 -0.0774394 0.0845829 0.996416 559.224 846.061)" fill="#E9CDB3"/>
<ellipse rx="9.99722" ry="9.56853" transform="matrix(0.996997 -0.0774394 0.0845829 0.996416 656.635 847.132)" fill="#E9CDB3"/>
<ellipse rx="9.99722" ry="9.56853" transform="matrix(0.996997 -0.0774394 0.0845829 0.996416 754.045 848.204)" fill="#E9CDB3"/>
<ellipse rx="9.99722" ry="9.56853" transform="matrix(0.996997 -0.0774394 0.0845829 0.996416 851.455 849.275)" fill="#E9CDB3"/>
<ellipse rx="9.99722" ry="9.56853" transform="matrix(0.996997 -0.0774394 0.0845829 0.996416 948.865 850.346)" fill="#E9CDB3"/>
<ellipse rx="9.99722" ry="9.56853" transform="matrix(0.996997 -0.0774394 0.0845829 0.996416 1046.28 851.418)" fill="#E9CDB3"/>
<ellipse rx="9.99722" ry="9.56853" transform="matrix(0.996997 -0.0774394 0.0845829 0.996416 111.668 856.831)" fill="#E9CDB3"/>
<ellipse rx="9.99722" ry="9.56853" transform="matrix(0.996997 -0.0774394 0.0845829 0.996416 209.078 857.902)" fill="#FFC850"/>
<ellipse rx="9.99722" ry="9.56853" transform="matrix(0.996997 -0.0774394 0.0845829 0.996416 306.488 858.974)" fill="#FFC850"/>
<ellipse rx="9.99722" ry="9.56853" transform="matrix(0.996997 -0.0774394 0.0845829 0.996416 403.898 860.045)" fill="#FFC850"/>
<ellipse rx="9.99722" ry="9.56853" transform="matrix(0.996997 -0.0774394 0.0845829 0.996416 501.308 861.116)" fill="#FFC850"/>
<ellipse rx="9.99722" ry="9.56853" transform="matrix(0.996997 -0.0774394 0.0845829 0.996416 598.718 862.188)" fill="#FFC850"/>
<ellipse rx="9.99722" ry="9.56853" transform="matrix(0.996997 -0.0774394 0.0845829 0.996416 696.129 863.259)" fill="#FFC850"/>
<ellipse rx="9.99722" ry="9.56853" transform="matrix(0.996997 -0.0774394 0.0845829 0.996416 793.539 864.33)" fill="#FFC850"/>
<ellipse rx="9.99722" ry="9.56853" transform="matrix(0.996997 -0.0774394 0.0845829 0.996416 890.949 865.401)" fill="#FFC850"/>
<ellipse rx="9.99722" ry="9.56853" transform="matrix(0.996997 -0.0774394 0.0845829 0.996416 988.359 866.473)" fill="#FFC850"/>
<ellipse rx="9.99722" ry="9.56853" transform="matrix(0.996997 -0.0774394 0.0845829 0.996416 1085.77 867.544)" fill="#FFC850"/>
<ellipse rx="9.99722" ry="9.56853" transform="matrix(0.996997 -0.0774394 0.0845829 0.996416 133.834 822.479)" fill="#FFC850"/>
<ellipse rx="9.99722" ry="9.56853" transform="matrix(0.996997 -0.0774394 0.0845829 0.996416 231.244 823.551)" fill="#FFC850"/>
<ellipse rx="9.99722" ry="9.56853" transform="matrix(0.996997 -0.0774394 0.0845829 0.996416 328.654 824.622)" fill="#FFC850"/>
<ellipse rx="9.99722" ry="9.56853" transform="matrix(0.996997 -0.0774394 0.0845829 0.996416 426.064 825.693)" fill="#FFC850"/>
<ellipse rx="9.99722" ry="9.56853" transform="matrix(0.996997 -0.0774394 0.0845829 0.996416 523.474 826.765)" fill="#FFC850"/>
<ellipse rx="9.99722" ry="9.56853" transform="matrix(0.996997 -0.0774394 0.0845829 0.996416 620.885 827.836)" fill="#FFC850"/>
<ellipse rx="9.99722" ry="9.56853" transform="matrix(0.996997 -0.0774394 0.0845829 0.996416 718.295 828.907)" fill="#FFC850"/>
<ellipse rx="9.99722" ry="9.56853" transform="matrix(0.996997 -0.0774394 0.0845829 0.996416 815.705 829.979)" fill="#FFC850"/>
<ellipse rx="9.99722" ry="9.56853" transform="matrix(0.996997 -0.0774394 0.0845829 0.996416 913.115 831.049)" fill="#E9CDB3"/>
<ellipse rx="9.99722" ry="9.56853" transform="matrix(0.996997 -0.0774394 0.0845829 0.996416 1010.53 832.121)" fill="#E9CDB3"/>
<ellipse rx="9.99722" ry="9.56853" transform="matrix(0.996997 -0.0774394 0.0845829 0.996416 1107.94 833.192)" fill="#E9CDB3"/>
<ellipse rx="9.99722" ry="9.56853" transform="matrix(0.996997 -0.0774394 0.0845829 0.996416 1128.43 802.809)" fill="#E9CDB3"/>
<ellipse rx="9.99722" ry="9.56853" transform="matrix(0.996997 -0.0774394 0.0845829 0.996416 79.2922 890.778)" fill="#E9CDB3"/>
<ellipse rx="9.99722" ry="9.56853" transform="matrix(0.996997 -0.0774394 0.0845829 0.996416 67.0339 922.063)" fill="#E9CDB3"/>
<ellipse rx="9.65055" ry="9.91806" transform="matrix(0.372175 -0.925059 0.940982 0.346407 1030.25 760.974)" fill="#E9CDB3"/>
<ellipse rx="9.65055" ry="9.91806" transform="matrix(0.372175 -0.925059 0.940982 0.346407 873.99 760.408)" fill="#E9CDB3"/>
<ellipse rx="9.65055" ry="9.91806" transform="matrix(0.372175 -0.925059 0.940982 0.346407 717.732 759.841)" fill="#E9CDB3"/>
<ellipse rx="9.65055" ry="9.91806" transform="matrix(0.372175 -0.925059 0.940982 0.346407 561.474 759.273)" fill="#E9CDB3"/>
<ellipse rx="9.65055" ry="9.91806" transform="matrix(0.372175 -0.925059 0.940982 0.346407 425.636 751.568)" fill="#E9CDB3"/>
<ellipse rx="9.65055" ry="9.91806" transform="matrix(0.372175 -0.925059 0.940982 0.346407 241.282 767.774)" fill="#E9CDB3"/>
<ellipse rx="9.99722" ry="9.56853" transform="matrix(0.996997 -0.0774394 0.0845829 0.996416 186.345 885.58)" fill="#E9CDB3"/>
<ellipse rx="9.99722" ry="9.56853" transform="matrix(0.996997 -0.0774394 0.0845829 0.996416 283.755 886.652)" fill="#E9CDB3"/>
<ellipse rx="9.99722" ry="9.56853" transform="matrix(0.996997 -0.0774394 0.0845829 0.996416 381.165 887.723)" fill="#E9CDB3"/>
<ellipse rx="9.99722" ry="9.56853" transform="matrix(0.996997 -0.0774394 0.0845829 0.996416 478.575 888.794)" fill="#E9CDB3"/>
<ellipse rx="9.99722" ry="9.56853" transform="matrix(0.996997 -0.0774394 0.0845829 0.996416 575.986 889.866)" fill="#E9CDB3"/>
<ellipse rx="9.99722" ry="9.56853" transform="matrix(0.996997 -0.0774394 0.0845829 0.996416 673.396 890.937)" fill="#E9CDB3"/>
<ellipse rx="9.99722" ry="9.56853" transform="matrix(0.996997 -0.0774394 0.0845829 0.996416 770.806 892.008)" fill="#E9CDB3"/>
<ellipse rx="9.99722" ry="9.56853" transform="matrix(0.996997 -0.0774394 0.0845829 0.996416 868.216 893.079)" fill="#E9CDB3"/>
<ellipse rx="9.99722" ry="9.56853" transform="matrix(0.996997 -0.0774394 0.0845829 0.996416 965.627 894.15)" fill="#E9CDB3"/>
<ellipse rx="9.99722" ry="9.56853" transform="matrix(0.996997 -0.0774394 0.0845829 0.996416 1063.04 895.222)" fill="#E9CDB3"/>
<ellipse rx="9.99722" ry="9.56853" transform="matrix(0.996997 -0.0774394 0.0845829 0.996416 128.429 900.636)" fill="#D49A52"/>
<ellipse rx="9.99722" ry="9.56853" transform="matrix(0.996997 -0.0774394 0.0845829 0.996416 225.839 901.707)" fill="#D49A52"/>
<ellipse rx="9.99722" ry="9.56853" transform="matrix(0.996997 -0.0774394 0.0845829 0.996416 323.249 902.778)" fill="#D49A52"/>
<ellipse rx="9.99722" ry="9.56853" transform="matrix(0.996997 -0.0774394 0.0845829 0.996416 420.659 903.85)" fill="#D49A52"/>
<ellipse rx="9.99722" ry="9.56853" transform="matrix(0.996997 -0.0774394 0.0845829 0.996416 518.069 904.921)" fill="#D49A52"/>
<ellipse rx="9.99722" ry="9.56853" transform="matrix(0.996997 -0.0774394 0.0845829 0.996416 615.48 905.992)" fill="#D49A52"/>
<ellipse rx="9.99722" ry="9.56853" transform="matrix(0.996997 -0.0774394 0.0845829 0.996416 712.89 907.064)" fill="#D49A52"/>
<ellipse rx="9.99722" ry="9.56853" transform="matrix(0.996997 -0.0774394 0.0845829 0.996416 810.3 908.135)" fill="#D49A52"/>
<ellipse rx="9.99722" ry="9.56853" transform="matrix(0.996997 -0.0774394 0.0845829 0.996416 907.71 909.206)" fill="#D49A52"/>
<ellipse rx="9.99722" ry="9.56853" transform="matrix(0.996997 -0.0774394 0.0845829 0.996416 1005.12 910.277)" fill="#D49A52"/>
<ellipse rx="9.99722" ry="9.56853" transform="matrix(0.996997 -0.0774394 0.0845829 0.996416 1102.53 911.348)" fill="#D49A52"/>
<ellipse rx="9.99722" ry="9.56853" transform="matrix(0.996997 -0.0774394 0.0845829 0.996416 150.595 866.284)" fill="#D49A52"/>
<ellipse rx="9.99722" ry="9.56853" transform="matrix(0.996997 -0.0774394 0.0845829 0.996416 248.005 867.355)" fill="#D49A52"/>
<ellipse rx="9.99722" ry="9.56853" transform="matrix(0.996997 -0.0774394 0.0845829 0.996416 345.415 868.426)" fill="#D49A52"/>
<ellipse rx="9.99722" ry="9.56853" transform="matrix(0.996997 -0.0774394 0.0845829 0.996416 442.825 869.497)" fill="#D49A52"/>
<ellipse rx="9.99722" ry="9.56853" transform="matrix(0.996997 -0.0774394 0.0845829 0.996416 540.236 870.569)" fill="#D49A52"/>
<ellipse rx="9.99722" ry="9.56853" transform="matrix(0.996997 -0.0774394 0.0845829 0.996416 637.646 871.64)" fill="#D49A52"/>
<ellipse rx="9.99722" ry="9.56853" transform="matrix(0.996997 -0.0774394 0.0845829 0.996416 735.056 872.711)" fill="#D49A52"/>
<ellipse rx="9.99722" ry="9.56853" transform="matrix(0.996997 -0.0774394 0.0845829 0.996416 832.466 873.783)" fill="#D79000"/>
<ellipse rx="9.99722" ry="9.56853" transform="matrix(0.996997 -0.0774394 0.0845829 0.996416 929.877 874.854)" fill="#D79000"/>
<ellipse rx="9.99722" ry="9.56853" transform="matrix(0.996997 -0.0774394 0.0845829 0.996416 1027.29 875.925)" fill="#D79000"/>
<ellipse rx="9.99722" ry="9.56853" transform="matrix(0.996997 -0.0774394 0.0845829 0.996416 1124.7 876.997)" fill="#D79000"/>
<ellipse rx="9.99722" ry="9.56853" transform="matrix(0.996997 -0.0774394 0.0845829 0.996416 96.0534 934.582)" fill="#D79000"/>
<ellipse rx="9.99722" ry="9.56853" transform="matrix(0.996997 -0.0774394 0.0845829 0.996416 83.7951 965.868)" fill="#D79000"/>
<ellipse rx="9.65055" ry="9.91806" transform="matrix(0.372175 -0.925059 0.940982 0.346407 1078.78 765.517)" fill="#D79000"/>
<ellipse rx="9.65055" ry="9.91806" transform="matrix(0.372175 -0.925059 0.940982 0.346407 922.524 764.95)" fill="#D79000"/>
<ellipse rx="9.65055" ry="9.91806" transform="matrix(0.372175 -0.925059 0.940982 0.346407 766.265 764.383)" fill="#D79000"/>
<ellipse rx="9.65055" ry="9.91806" transform="matrix(0.372175 -0.925059 0.940982 0.346407 610.007 763.816)" fill="#D79000"/>
<ellipse rx="9.65055" ry="9.91806" transform="matrix(0.372175 -0.925059 0.940982 0.346407 466.194 778.216)" fill="#D79000"/>
<ellipse rx="9.65055" ry="9.91806" transform="matrix(0.372175 -0.925059 0.940982 0.346407 280.826 771.484)" fill="#D79000"/>
<ellipse rx="9.99722" ry="9.56853" transform="matrix(0.996997 -0.0774394 0.0845829 0.996416 203.106 929.385)" fill="#D79000"/>
<ellipse rx="9.99722" ry="9.56853" transform="matrix(0.996997 -0.0774394 0.0845829 0.996416 300.516 930.456)" fill="#D79000"/>
<ellipse rx="9.99722" ry="9.56853" transform="matrix(0.996997 -0.0774394 0.0845829 0.996416 397.926 931.527)" fill="#D79000"/>
<ellipse rx="9.99722" ry="9.56853" transform="matrix(0.996997 -0.0774394 0.0845829 0.996416 495.337 932.599)" fill="#D79000"/>
<ellipse rx="9.99722" ry="9.56853" transform="matrix(0.996997 -0.0774394 0.0845829 0.996416 592.747 933.67)" fill="#D79000"/>
<ellipse rx="9.99722" ry="9.56853" transform="matrix(0.996997 -0.0774394 0.0845829 0.996416 690.157 934.741)" fill="#D79000"/>
<ellipse rx="9.99722" ry="9.56853" transform="matrix(0.996997 -0.0774394 0.0845829 0.996416 787.568 935.813)" fill="#D79000"/>
<ellipse rx="9.99722" ry="9.56853" transform="matrix(0.996997 -0.0774394 0.0845829 0.996416 884.977 936.884)" fill="#D79000"/>
<ellipse rx="9.99722" ry="9.56853" transform="matrix(0.996997 -0.0774394 0.0845829 0.996416 982.388 937.955)" fill="#D79000"/>
<ellipse rx="9.99722" ry="9.56853" transform="matrix(0.996997 -0.0774394 0.0845829 0.996416 1079.8 939.027)" fill="#D79000"/>
<ellipse rx="9.99722" ry="9.56853" transform="matrix(0.996997 -0.0774394 0.0845829 0.996416 145.19 944.44)" fill="#D79000"/>
<ellipse rx="9.99722" ry="9.56853" transform="matrix(0.996997 -0.0774394 0.0845829 0.996416 242.6 945.511)" fill="#D79000"/>
<ellipse rx="9.99722" ry="9.56853" transform="matrix(0.996997 -0.0774394 0.0845829 0.996416 340.01 946.583)" fill="#D79000"/>
<ellipse rx="9.99722" ry="9.56853" transform="matrix(0.996997 -0.0774394 0.0845829 0.996416 437.421 947.654)" fill="#E9CDB3"/>
<ellipse rx="9.99722" ry="9.56853" transform="matrix(0.996997 -0.0774394 0.0845829 0.996416 534.831 948.725)" fill="#E9CDB3"/>
<ellipse rx="9.99722" ry="9.56853" transform="matrix(0.996997 -0.0774394 0.0845829 0.996416 632.241 949.797)" fill="#E9CDB3"/>
<ellipse rx="9.99722" ry="9.56853" transform="matrix(0.996997 -0.0774394 0.0845829 0.996416 729.651 950.868)" fill="#E9CDB3"/>
<ellipse rx="9.99722" ry="9.56853" transform="matrix(0.996997 -0.0774394 0.0845829 0.996416 827.061 951.939)" fill="#E9CDB3"/>
<ellipse rx="9.99722" ry="9.56853" transform="matrix(0.996997 -0.0774394 0.0845829 0.996416 924.471 953.011)" fill="#E9CDB3"/>
<ellipse rx="9.99722" ry="9.56853" transform="matrix(0.996997 -0.0774394 0.0845829 0.996416 1021.88 954.082)" fill="#E9CDB3"/>
<ellipse rx="9.99722" ry="9.56853" transform="matrix(0.996997 -0.0774394 0.0845829 0.996416 1119.29 955.153)" fill="#E9CDB3"/>
<ellipse rx="9.99722" ry="9.56853" transform="matrix(0.996997 -0.0774394 0.0845829 0.996416 167.356 910.088)" fill="#E9CDB3"/>
<ellipse rx="9.99722" ry="9.56853" transform="matrix(0.996997 -0.0774394 0.0845829 0.996416 264.766 911.16)" fill="#E9CDB3"/>
<ellipse rx="9.99722" ry="9.56853" transform="matrix(0.996997 -0.0774394 0.0845829 0.996416 362.176 912.231)" fill="#E9CDB3"/>
<ellipse rx="9.99722" ry="9.56853" transform="matrix(0.996997 -0.0774394 0.0845829 0.996416 459.587 913.302)" fill="#E9CDB3"/>
<ellipse rx="9.99722" ry="9.56853" transform="matrix(0.996997 -0.0774394 0.0845829 0.996416 556.997 914.374)" fill="#E9CDB3"/>
<ellipse rx="9.99722" ry="9.56853" transform="matrix(0.996997 -0.0774394 0.0845829 0.996416 654.407 915.445)" fill="#E9CDB3"/>
<ellipse rx="9.99722" ry="9.56853" transform="matrix(0.996997 -0.0774394 0.0845829 0.996416 751.818 916.516)" fill="#E9CDB3"/>
<ellipse rx="9.99722" ry="9.56853" transform="matrix(0.996997 -0.0774394 0.0845829 0.996416 849.228 917.587)" fill="#E9CDB3"/>
<ellipse rx="9.99722" ry="9.56853" transform="matrix(0.996997 -0.0774394 0.0845829 0.996416 946.638 918.659)" fill="#E9CDB3"/>
<ellipse rx="9.99722" ry="9.56853" transform="matrix(0.996997 -0.0774394 0.0845829 0.996416 1044.05 919.73)" fill="#E9CDB3"/>
<ellipse rx="9.99722" ry="9.56853" transform="matrix(0.996997 -0.0774394 0.0845829 0.996416 1141.46 920.802)" fill="#E9CDB3"/>
<rect x="30" y="1734.25" width="1124" height="187.486" fill="#D3BBA3"/>
<rect x="30" y="1551.54" width="1124" height="187.486" fill="#291200"/>
<path d="M214.596 1609.89L400.441 1795.28H28.7504L214.596 1609.89Z" fill="#863B37"/>
<path d="M214.585 1979.58L32.3768 1792.95L404.043 1795.47L214.585 1979.58Z" fill="#863B37"/>
<path d="M212.726 1636.48L369.758 1793.12H55.6934L212.726 1636.48Z" fill="#225D04"/>
<path d="M212.717 1948.85L58.7578 1791.15L372.801 1793.28L212.717 1948.85Z" fill="#225D04"/>
<path d="M211.977 1666.86L340.196 1794.76H83.7584L211.977 1666.86Z" fill="#D79000"/>
<path d="M211.97 1921.92L86.2603 1793.15L342.681 1794.89L211.97 1921.92Z" fill="#D79000"/>
<path d="M212.226 1685.85L321.236 1794.59H103.215L212.226 1685.85Z" fill="#291200"/>
<path d="M212.219 1902.7L105.343 1793.22L323.348 1794.7L212.219 1902.7Z" fill="#291200"/>
<path d="M210.847 1708.64L296.326 1793.9H125.368L210.847 1708.64Z" fill="#D3BBA3"/>
<path d="M210.843 1878.67L127.037 1792.83L297.984 1793.99L210.843 1878.67Z" fill="#D3BBA3"/>
<path d="M212.23 1731.42L277.539 1796.57H146.92L212.23 1731.42Z" fill="#291200"/>
<path d="M212.227 1861.34L148.195 1795.75L278.806 1796.64L212.227 1861.34Z" fill="#291200"/>
<path d="M589.596 1609.89L775.441 1795.28H403.75L589.596 1609.89Z" fill="#863B37"/>
<path d="M589.585 1979.58L407.377 1792.95L779.043 1795.47L589.585 1979.58Z" fill="#863B37"/>
<path d="M587.726 1636.48L744.758 1793.12H430.693L587.726 1636.48Z" fill="#225D04"/>
<path d="M587.717 1948.85L433.758 1791.15L747.801 1793.28L587.717 1948.85Z" fill="#225D04"/>
<path d="M586.977 1666.86L715.196 1794.76H458.758L586.977 1666.86Z" fill="#D79000"/>
<path d="M586.97 1921.92L461.26 1793.15L717.681 1794.89L586.97 1921.92Z" fill="#D79000"/>
<path d="M587.226 1685.85L696.236 1794.59H478.215L587.226 1685.85Z" fill="#291200"/>
<path d="M587.219 1902.7L480.343 1793.22L698.348 1794.7L587.219 1902.7Z" fill="#291200"/>
<path d="M585.847 1708.64L671.326 1793.9H500.368L585.847 1708.64Z" fill="#D3BBA3"/>
<path d="M585.843 1878.67L502.037 1792.83L672.984 1793.99L585.843 1878.67Z" fill="#D3BBA3"/>
<path d="M587.23 1731.42L652.539 1796.57H521.92L587.23 1731.42Z" fill="#291200"/>
<path d="M587.227 1861.34L523.195 1795.75L653.806 1796.64L587.227 1861.34Z" fill="#291200"/>
<path d="M962.596 1609.89L1148.44 1795.28H776.75L962.596 1609.89Z" fill="#863B37"/>
<path d="M962.585 1979.58L780.377 1792.95L1152.04 1795.47L962.585 1979.58Z" fill="#863B37"/>
<path d="M960.726 1636.48L1117.76 1793.12H803.693L960.726 1636.48Z" fill="#225D04"/>
<path d="M960.717 1948.85L806.758 1791.15L1120.8 1793.28L960.717 1948.85Z" fill="#225D04"/>
<path d="M959.977 1666.86L1088.2 1794.76H831.758L959.977 1666.86Z" fill="#D79000"/>
<path d="M959.97 1921.92L834.26 1793.15L1090.68 1794.89L959.97 1921.92Z" fill="#D79000"/>
<path d="M960.226 1685.85L1069.24 1794.59H851.215L960.226 1685.85Z" fill="#291200"/>
<path d="M960.219 1902.7L853.343 1793.22L1071.35 1794.7L960.219 1902.7Z" fill="#291200"/>
<path d="M958.847 1708.64L1044.33 1793.9H873.368L958.847 1708.64Z" fill="#D3BBA3"/>
<path d="M958.843 1878.67L875.037 1792.83L1045.98 1793.99L958.843 1878.67Z" fill="#D3BBA3"/>
<path d="M960.23 1731.42L1025.54 1796.57H894.92L960.23 1731.42Z" fill="#291200"/>
<path d="M960.227 1861.34L896.195 1795.75L1026.81 1796.64L960.227 1861.34Z" fill="#291200"/>
<rect x="30" y="1859.56" width="1124" height="187.486" fill="#291200"/>
<rect x="32" y="1950.43" width="1122" height="11.4787" fill="#8B3F3D"/>
<rect x="32" y="1551.54" width="1124" height="187.486" fill="#291200"/>
<rect x="30" y="1398.49" width="1125" height="11.4787" fill="#8B3F3D"/>
<ellipse rx="9.99833" ry="9.56737" transform="matrix(0.998197 -0.0600294 0.0655821 0.997847 51.8841 1547.19)" fill="#E9CDB3"/>
<ellipse rx="9.99833" ry="9.56737" transform="matrix(0.998197 -0.0600294 0.0655821 0.997847 149.258 1549.96)" fill="#E9CDB3"/>
<ellipse rx="9.99833" ry="9.56737" transform="matrix(0.998197 -0.0600294 0.0655821 0.997847 246.631 1552.73)" fill="#E9CDB3"/>
<ellipse rx="9.99833" ry="9.56737" transform="matrix(0.998197 -0.0600294 0.0655821 0.997847 344.005 1555.5)" fill="#E9CDB3"/>
<ellipse rx="9.99833" ry="9.56737" transform="matrix(0.998197 -0.0600294 0.0655821 0.997847 441.379 1558.27)" fill="#E9CDB3"/>
<ellipse rx="9.99833" ry="9.56737" transform="matrix(0.998197 -0.0600294 0.0655821 0.997847 538.752 1561.04)" fill="#E9CDB3"/>
<ellipse rx="9.99833" ry="9.56737" transform="matrix(0.998197 -0.0600294 0.0655821 0.997847 636.126 1563.81)" fill="#E9CDB3"/>
<ellipse rx="9.99833" ry="9.56737" transform="matrix(0.998197 -0.0600294 0.0655821 0.997847 733.499 1566.58)" fill="#E9CDB3"/>
<ellipse rx="9.99833" ry="9.56737" transform="matrix(0.998197 -0.0600294 0.0655821 0.997847 830.873 1569.35)" fill="#E9CDB3"/>
<ellipse rx="9.99833" ry="9.56737" transform="matrix(0.998197 -0.0600294 0.0655821 0.997847 928.246 1572.12)" fill="#E9CDB3"/>
<ellipse rx="9.99833" ry="9.56737" transform="matrix(0.998197 -0.0600294 0.0655821 0.997847 1025.62 1574.89)" fill="#E9CDB3"/>
<ellipse rx="9.99833" ry="9.56737" transform="matrix(0.998197 -0.0600294 0.0655821 0.997847 91.0643 1564)" fill="#E9CDB3"/>
<ellipse rx="9.99833" ry="9.56737" transform="matrix(0.998197 -0.0600294 0.0655821 0.997847 188.438 1566.77)" fill="#E9CDB3"/>
<ellipse rx="9.99833" ry="9.56737" transform="matrix(0.998197 -0.0600294 0.0655821 0.997847 285.811 1569.54)" fill="#E9CDB3"/>
<ellipse rx="9.99833" ry="9.56737" transform="matrix(0.998197 -0.0600294 0.0655821 0.997847 383.185 1572.31)" fill="#D49A52"/>
<ellipse rx="9.99833" ry="9.56737" transform="matrix(0.998197 -0.0600294 0.0655821 0.997847 480.558 1575.08)" fill="#D49A52"/>
<ellipse rx="9.99833" ry="9.56737" transform="matrix(0.998197 -0.0600294 0.0655821 0.997847 577.932 1577.85)" fill="#D49A52"/>
<ellipse rx="9.99833" ry="9.56737" transform="matrix(0.998197 -0.0600294 0.0655821 0.997847 675.305 1580.62)" fill="#D49A52"/>
<ellipse rx="9.99833" ry="9.56737" transform="matrix(0.998197 -0.0600294 0.0655821 0.997847 772.68 1583.39)" fill="#D49A52"/>
<ellipse rx="9.99833" ry="9.56737" transform="matrix(0.998197 -0.0600294 0.0655821 0.997847 870.053 1586.16)" fill="#D49A52"/>
<ellipse rx="9.99833" ry="9.56737" transform="matrix(0.998197 -0.0600294 0.0655821 0.997847 967.427 1588.93)" fill="#D49A52"/>
<ellipse rx="9.99833" ry="9.56737" transform="matrix(0.998197 -0.0600294 0.0655821 0.997847 1064.8 1591.7)" fill="#D49A52"/>
<ellipse rx="9.99833" ry="9.56737" transform="matrix(0.998197 -0.0600294 0.0655821 0.997847 113.882 1530.04)" fill="#D49A52"/>
<ellipse rx="9.99833" ry="9.56737" transform="matrix(0.998197 -0.0600294 0.0655821 0.997847 211.255 1532.81)" fill="#D49A52"/>
<ellipse rx="9.99833" ry="9.56737" transform="matrix(0.998197 -0.0600294 0.0655821 0.997847 308.629 1535.58)" fill="#D49A52"/>
<ellipse rx="9.99833" ry="9.56737" transform="matrix(0.998197 -0.0600294 0.0655821 0.997847 84.6087 1531.38)" fill="#D49A52"/>
<ellipse rx="9.99833" ry="9.56737" transform="matrix(0.998197 -0.0600294 0.0655821 0.997847 406.002 1538.35)" fill="#D49A52"/>
<ellipse rx="9.99833" ry="9.56737" transform="matrix(0.998197 -0.0600294 0.0655821 0.997847 503.376 1541.12)" fill="#D49A52"/>
<ellipse rx="9.99833" ry="9.56737" transform="matrix(0.998197 -0.0600294 0.0655821 0.997847 600.75 1543.89)" fill="#D49A52"/>
<ellipse rx="9.99833" ry="9.56737" transform="matrix(0.998197 -0.0600294 0.0655821 0.997847 698.123 1546.66)" fill="#D49A52"/>
<ellipse rx="9.99833" ry="9.56737" transform="matrix(0.998197 -0.0600294 0.0655821 0.997847 795.497 1549.43)" fill="#D49A52"/>
<ellipse rx="9.99833" ry="9.56737" transform="matrix(0.998197 -0.0600294 0.0655821 0.997847 892.87 1552.2)" fill="#D49A52"/>
<ellipse rx="9.99833" ry="9.56737" transform="matrix(0.998197 -0.0600294 0.0655821 0.997847 990.244 1554.97)" fill="#E9CDB3"/>
<ellipse rx="9.99833" ry="9.56737" transform="matrix(0.998197 -0.0600294 0.0655821 0.997847 1087.62 1557.74)" fill="#E9CDB3"/>
<ellipse rx="9.99833" ry="9.56737" transform="matrix(0.998197 -0.0600294 0.0655821 0.997847 1108.69 1527.72)" fill="#E9CDB3"/>
<ellipse rx="9.99833" ry="9.56737" transform="matrix(0.998197 -0.0600294 0.0655821 0.997847 58.0472 1597.38)" fill="#E9CDB3"/>
<ellipse rx="9.99833" ry="9.56737" transform="matrix(0.998197 -0.0600294 0.0655821 0.997847 45.1947 1628.44)" fill="#E9CDB3"/>
<ellipse rx="9.64984" ry="9.91876" transform="matrix(0.389777 -0.918482 0.934157 0.362737 978.805 1522.89)" fill="#E9CDB3"/>
<ellipse rx="9.64984" ry="9.91876" transform="matrix(0.389777 -0.918482 0.934157 0.362737 822.584 1519.59)" fill="#E9CDB3"/>
<ellipse rx="9.64984" ry="9.91876" transform="matrix(0.389777 -0.918482 0.934157 0.362737 666.362 1516.3)" fill="#E9CDB3"/>
<ellipse rx="9.64984" ry="9.91876" transform="matrix(0.389777 -0.918482 0.934157 0.362737 510.141 1513.01)" fill="#E9CDB3"/>
<ellipse rx="9.64984" ry="9.91876" transform="matrix(0.389777 -0.918482 0.934157 0.362737 356.025 1512.51)" fill="#E9CDB3"/>
<ellipse rx="9.64984" ry="9.91876" transform="matrix(0.389777 -0.918482 0.934157 0.362737 174.425 1526.36)" fill="#E9CDB3"/>
<ellipse rx="9.99833" ry="9.56737" transform="matrix(0.998197 -0.0600294 0.0655821 0.997847 165.181 1594.05)" fill="#E9CDB3"/>
<ellipse rx="9.99833" ry="9.56737" transform="matrix(0.998197 -0.0600294 0.0655821 0.997847 262.555 1596.82)" fill="#E9CDB3"/>
<ellipse rx="9.99833" ry="9.56737" transform="matrix(0.998197 -0.0600294 0.0655821 0.997847 359.929 1599.59)" fill="#E9CDB3"/>
<ellipse rx="9.99833" ry="9.56737" transform="matrix(0.998197 -0.0600294 0.0655821 0.997847 457.302 1602.36)" fill="#E9CDB3"/>
<ellipse rx="9.99833" ry="9.56737" transform="matrix(0.998197 -0.0600294 0.0655821 0.997847 554.676 1605.13)" fill="#E9CDB3"/>
<ellipse rx="9.99833" ry="9.56737" transform="matrix(0.998197 -0.0600294 0.0655821 0.997847 652.049 1607.9)" fill="#E9CDB3"/>
<ellipse rx="9.99833" ry="9.56737" transform="matrix(0.998197 -0.0600294 0.0655821 0.997847 749.423 1610.67)" fill="#E9CDB3"/>
<ellipse rx="9.99833" ry="9.56737" transform="matrix(0.998197 -0.0600294 0.0655821 0.997847 846.796 1613.44)" fill="#E9CDB3"/>
<ellipse rx="9.99833" ry="9.56737" transform="matrix(0.998197 -0.0600294 0.0655821 0.997847 944.17 1616.21)" fill="#E9CDB3"/>
<ellipse rx="9.99833" ry="9.56737" transform="matrix(0.998197 -0.0600294 0.0655821 0.997847 1041.54 1618.98)" fill="#E9CDB3"/>
<ellipse rx="9.99833" ry="9.56737" transform="matrix(0.998197 -0.0600294 0.0655821 0.997847 106.988 1608.09)" fill="#E9CDB3"/>
<ellipse rx="9.99833" ry="9.56737" transform="matrix(0.998197 -0.0600294 0.0655821 0.997847 204.361 1610.86)" fill="#FFC850"/>
<ellipse rx="9.99833" ry="9.56737" transform="matrix(0.998197 -0.0600294 0.0655821 0.997847 301.735 1613.63)" fill="#FFC850"/>
<ellipse rx="9.99833" ry="9.56737" transform="matrix(0.998197 -0.0600294 0.0655821 0.997847 399.108 1616.4)" fill="#FFC850"/>
<ellipse rx="9.99833" ry="9.56737" transform="matrix(0.998197 -0.0600294 0.0655821 0.997847 496.482 1619.17)" fill="#FFC850"/>
<ellipse rx="9.99833" ry="9.56737" transform="matrix(0.998197 -0.0600294 0.0655821 0.997847 593.855 1621.94)" fill="#FFC850"/>
<ellipse rx="9.99833" ry="9.56737" transform="matrix(0.998197 -0.0600294 0.0655821 0.997847 691.229 1624.71)" fill="#FFC850"/>
<ellipse rx="9.99833" ry="9.56737" transform="matrix(0.998197 -0.0600294 0.0655821 0.997847 788.602 1627.48)" fill="#FFC850"/>
<ellipse rx="9.99833" ry="9.56737" transform="matrix(0.998197 -0.0600294 0.0655821 0.997847 885.976 1630.25)" fill="#FFC850"/>
<ellipse rx="9.99833" ry="9.56737" transform="matrix(0.998197 -0.0600294 0.0655821 0.997847 983.35 1633.02)" fill="#FFC850"/>
<ellipse rx="9.99833" ry="9.56737" transform="matrix(0.998197 -0.0600294 0.0655821 0.997847 1080.72 1635.79)" fill="#FFC850"/>
<ellipse rx="9.99833" ry="9.56737" transform="matrix(0.998197 -0.0600294 0.0655821 0.997847 129.805 1574.13)" fill="#FFC850"/>
<ellipse rx="9.99833" ry="9.56737" transform="matrix(0.998197 -0.0600294 0.0655821 0.997847 227.179 1576.9)" fill="#FFC850"/>
<ellipse rx="9.99833" ry="9.56737" transform="matrix(0.998197 -0.0600294 0.0655821 0.997847 324.552 1579.67)" fill="#FFC850"/>
<ellipse rx="9.99833" ry="9.56737" transform="matrix(0.998197 -0.0600294 0.0655821 0.997847 421.926 1582.44)" fill="#FFC850"/>
<ellipse rx="9.99833" ry="9.56737" transform="matrix(0.998197 -0.0600294 0.0655821 0.997847 519.299 1585.21)" fill="#FFC850"/>
<ellipse rx="9.99833" ry="9.56737" transform="matrix(0.998197 -0.0600294 0.0655821 0.997847 616.673 1587.98)" fill="#FFC850"/>
<ellipse rx="9.99833" ry="9.56737" transform="matrix(0.998197 -0.0600294 0.0655821 0.997847 714.047 1590.75)" fill="#FFC850"/>
<ellipse rx="9.99833" ry="9.56737" transform="matrix(0.998197 -0.0600294 0.0655821 0.997847 811.42 1593.52)" fill="#FFC850"/>
<ellipse rx="9.99833" ry="9.56737" transform="matrix(0.998197 -0.0600294 0.0655821 0.997847 908.794 1596.29)" fill="#E9CDB3"/>
<ellipse rx="9.99833" ry="9.56737" transform="matrix(0.998197 -0.0600294 0.0655821 0.997847 1006.17 1599.06)" fill="#E9CDB3"/>
<ellipse rx="9.99833" ry="9.56737" transform="matrix(0.998197 -0.0600294 0.0655821 0.997847 1103.54 1601.83)" fill="#E9CDB3"/>
<ellipse rx="9.99833" ry="9.56737" transform="matrix(0.998197 -0.0600294 0.0655821 0.997847 1124.61 1571.81)" fill="#E9CDB3"/>
<ellipse rx="9.99833" ry="9.56737" transform="matrix(0.998197 -0.0600294 0.0655821 0.997847 73.9705 1641.47)" fill="#E9CDB3"/>
<ellipse rx="9.99833" ry="9.56737" transform="matrix(0.998197 -0.0600294 0.0655821 0.997847 61.118 1672.53)" fill="#E9CDB3"/>
<ellipse rx="9.64984" ry="9.91876" transform="matrix(0.389777 -0.918482 0.934157 0.362737 1027.24 1528.27)" fill="#E9CDB3"/>
<ellipse rx="9.64984" ry="9.91876" transform="matrix(0.389777 -0.918482 0.934157 0.362737 871.022 1524.98)" fill="#E9CDB3"/>
<ellipse rx="9.64984" ry="9.91876" transform="matrix(0.389777 -0.918482 0.934157 0.362737 714.8 1521.69)" fill="#E9CDB3"/>
<ellipse rx="9.64984" ry="9.91876" transform="matrix(0.389777 -0.918482 0.934157 0.362737 558.579 1518.4)" fill="#E9CDB3"/>
<ellipse rx="9.64984" ry="9.91876" transform="matrix(0.389777 -0.918482 0.934157 0.362737 422.911 1508.32)" fill="#E9CDB3"/>
<ellipse rx="9.64984" ry="9.91876" transform="matrix(0.389777 -0.918482 0.934157 0.362737 238.278 1521.31)" fill="#E9CDB3"/>
<ellipse rx="9.99833" ry="9.56737" transform="matrix(0.998197 -0.0600294 0.0655821 0.997847 181.104 1638.14)" fill="#E9CDB3"/>
<ellipse rx="9.99833" ry="9.56737" transform="matrix(0.998197 -0.0600294 0.0655821 0.997847 278.478 1640.91)" fill="#E9CDB3"/>
<ellipse rx="9.99833" ry="9.56737" transform="matrix(0.998197 -0.0600294 0.0655821 0.997847 375.852 1643.68)" fill="#E9CDB3"/>
<ellipse rx="9.99833" ry="9.56737" transform="matrix(0.998197 -0.0600294 0.0655821 0.997847 473.225 1646.45)" fill="#E9CDB3"/>
<ellipse rx="9.99833" ry="9.56737" transform="matrix(0.998197 -0.0600294 0.0655821 0.997847 570.599 1649.22)" fill="#E9CDB3"/>
<ellipse rx="9.99833" ry="9.56737" transform="matrix(0.998197 -0.0600294 0.0655821 0.997847 667.972 1651.99)" fill="#E9CDB3"/>
<ellipse rx="9.99833" ry="9.56737" transform="matrix(0.998197 -0.0600294 0.0655821 0.997847 765.346 1654.76)" fill="#E9CDB3"/>
<ellipse rx="9.99833" ry="9.56737" transform="matrix(0.998197 -0.0600294 0.0655821 0.997847 862.72 1657.53)" fill="#E9CDB3"/>
<ellipse rx="9.99833" ry="9.56737" transform="matrix(0.998197 -0.0600294 0.0655821 0.997847 960.093 1660.3)" fill="#E9CDB3"/>
<ellipse rx="9.99833" ry="9.56737" transform="matrix(0.998197 -0.0600294 0.0655821 0.997847 1057.47 1663.07)" fill="#E9CDB3"/>
<ellipse rx="9.99833" ry="9.56737" transform="matrix(0.998197 -0.0600294 0.0655821 0.997847 122.911 1652.18)" fill="#D49A52"/>
<ellipse rx="9.99833" ry="9.56737" transform="matrix(0.998197 -0.0600294 0.0655821 0.997847 220.285 1654.95)" fill="#D49A52"/>
<ellipse rx="9.99833" ry="9.56737" transform="matrix(0.998197 -0.0600294 0.0655821 0.997847 317.658 1657.72)" fill="#D49A52"/>
<ellipse rx="9.99833" ry="9.56737" transform="matrix(0.998197 -0.0600294 0.0655821 0.997847 415.032 1660.49)" fill="#D49A52"/>
<ellipse rx="9.99833" ry="9.56737" transform="matrix(0.998197 -0.0600294 0.0655821 0.997847 512.405 1663.26)" fill="#D49A52"/>
<ellipse rx="9.99833" ry="9.56737" transform="matrix(0.998197 -0.0600294 0.0655821 0.997847 609.779 1666.03)" fill="#D49A52"/>
<ellipse rx="9.99833" ry="9.56737" transform="matrix(0.998197 -0.0600294 0.0655821 0.997847 707.152 1668.8)" fill="#D49A52"/>
<ellipse rx="9.99833" ry="9.56737" transform="matrix(0.998197 -0.0600294 0.0655821 0.997847 804.526 1671.57)" fill="#D49A52"/>
<ellipse rx="9.99833" ry="9.56737" transform="matrix(0.998197 -0.0600294 0.0655821 0.997847 901.9 1674.34)" fill="#D49A52"/>
<ellipse rx="9.99833" ry="9.56737" transform="matrix(0.998197 -0.0600294 0.0655821 0.997847 999.273 1677.11)" fill="#D49A52"/>
<ellipse rx="9.99833" ry="9.56737" transform="matrix(0.998197 -0.0600294 0.0655821 0.997847 1096.65 1679.88)" fill="#D49A52"/>
<ellipse rx="9.99833" ry="9.56737" transform="matrix(0.998197 -0.0600294 0.0655821 0.997847 145.728 1618.22)" fill="#D49A52"/>
<ellipse rx="9.99833" ry="9.56737" transform="matrix(0.998197 -0.0600294 0.0655821 0.997847 243.102 1620.99)" fill="#D49A52"/>
<ellipse rx="9.99833" ry="9.56737" transform="matrix(0.998197 -0.0600294 0.0655821 0.997847 340.475 1623.76)" fill="#D49A52"/>
<ellipse rx="9.99833" ry="9.56737" transform="matrix(0.998197 -0.0600294 0.0655821 0.997847 437.849 1626.53)" fill="#D49A52"/>
<ellipse rx="9.99833" ry="9.56737" transform="matrix(0.998197 -0.0600294 0.0655821 0.997847 535.222 1629.3)" fill="#D49A52"/>
<ellipse rx="9.99833" ry="9.56737" transform="matrix(0.998197 -0.0600294 0.0655821 0.997847 632.597 1632.07)" fill="#D49A52"/>
<ellipse rx="9.99833" ry="9.56737" transform="matrix(0.998197 -0.0600294 0.0655821 0.997847 729.97 1634.84)" fill="#D49A52"/>
<ellipse rx="9.99833" ry="9.56737" transform="matrix(0.998197 -0.0600294 0.0655821 0.997847 827.344 1637.61)" fill="#D79000"/>
<ellipse rx="9.99833" ry="9.56737" transform="matrix(0.998197 -0.0600294 0.0655821 0.997847 924.717 1640.38)" fill="#D79000"/>
<ellipse rx="9.99833" ry="9.56737" transform="matrix(0.998197 -0.0600294 0.0655821 0.997847 1022.09 1643.15)" fill="#D79000"/>
<ellipse rx="9.99833" ry="9.56737" transform="matrix(0.998197 -0.0600294 0.0655821 0.997847 1119.46 1645.92)" fill="#D79000"/>
<ellipse rx="9.99833" ry="9.56737" transform="matrix(0.998197 -0.0600294 0.0655821 0.997847 89.8939 1685.56)" fill="#D79000"/>
<ellipse rx="9.99833" ry="9.56737" transform="matrix(0.998197 -0.0600294 0.0655821 0.997847 77.0413 1716.62)" fill="#D79000"/>
<ellipse rx="9.64984" ry="9.91876" transform="matrix(0.389777 -0.918482 0.934157 0.362737 1075.68 1533.66)" fill="#D79000"/>
<ellipse rx="9.64984" ry="9.91876" transform="matrix(0.389777 -0.918482 0.934157 0.362737 919.46 1530.37)" fill="#D79000"/>
<ellipse rx="9.64984" ry="9.91876" transform="matrix(0.389777 -0.918482 0.934157 0.362737 763.239 1527.08)" fill="#D79000"/>
<ellipse rx="9.64984" ry="9.91876" transform="matrix(0.389777 -0.918482 0.934157 0.362737 607.017 1523.78)" fill="#D79000"/>
<ellipse rx="9.64984" ry="9.91876" transform="matrix(0.389777 -0.918482 0.934157 0.362737 462.954 1535.67)" fill="#D79000"/>
<ellipse rx="9.64984" ry="9.91876" transform="matrix(0.389777 -0.918482 0.934157 0.362737 277.744 1525.71)" fill="#D79000"/>
<ellipse rx="9.99833" ry="9.56737" transform="matrix(0.998197 -0.0600294 0.0655821 0.997847 197.028 1682.23)" fill="#D79000"/>
<ellipse rx="9.99833" ry="9.56737" transform="matrix(0.998197 -0.0600294 0.0655821 0.997847 294.402 1685)" fill="#D79000"/>
<ellipse rx="9.99833" ry="9.56737" transform="matrix(0.998197 -0.0600294 0.0655821 0.997847 391.775 1687.77)" fill="#D79000"/>
<ellipse rx="9.99833" ry="9.56737" transform="matrix(0.998197 -0.0600294 0.0655821 0.997847 489.149 1690.54)" fill="#D79000"/>
<ellipse rx="9.99833" ry="9.56737" transform="matrix(0.998197 -0.0600294 0.0655821 0.997847 586.522 1693.31)" fill="#D79000"/>
<ellipse rx="9.99833" ry="9.56737" transform="matrix(0.998197 -0.0600294 0.0655821 0.997847 683.896 1696.08)" fill="#D79000"/>
<ellipse rx="9.99833" ry="9.56737" transform="matrix(0.998197 -0.0600294 0.0655821 0.997847 781.269 1698.85)" fill="#D79000"/>
<ellipse rx="9.99833" ry="9.56737" transform="matrix(0.998197 -0.0600294 0.0655821 0.997847 878.643 1701.62)" fill="#D79000"/>
<ellipse rx="9.99833" ry="9.56737" transform="matrix(0.998197 -0.0600294 0.0655821 0.997847 976.016 1704.39)" fill="#D79000"/>
<ellipse rx="9.99833" ry="9.56737" transform="matrix(0.998197 -0.0600294 0.0655821 0.997847 1073.39 1707.16)" fill="#D79000"/>
<ellipse rx="9.99833" ry="9.56737" transform="matrix(0.998197 -0.0600294 0.0655821 0.997847 138.834 1696.27)" fill="#D79000"/>
<ellipse rx="9.99833" ry="9.56737" transform="matrix(0.998197 -0.0600294 0.0655821 0.997847 236.208 1699.04)" fill="#D79000"/>
<ellipse rx="9.99833" ry="9.56737" transform="matrix(0.998197 -0.0600294 0.0655821 0.997847 333.581 1701.81)" fill="#D79000"/>
<ellipse rx="9.99833" ry="9.56737" transform="matrix(0.998197 -0.0600294 0.0655821 0.997847 430.955 1704.58)" fill="#E9CDB3"/>
<ellipse rx="9.99833" ry="9.56737" transform="matrix(0.998197 -0.0600294 0.0655821 0.997847 528.328 1707.35)" fill="#E9CDB3"/>
<ellipse rx="9.99833" ry="9.56737" transform="matrix(0.998197 -0.0600294 0.0655821 0.997847 625.702 1710.12)" fill="#E9CDB3"/>
<ellipse rx="9.99833" ry="9.56737" transform="matrix(0.998197 -0.0600294 0.0655821 0.997847 723.076 1712.89)" fill="#E9CDB3"/>
<ellipse rx="9.99833" ry="9.56737" transform="matrix(0.998197 -0.0600294 0.0655821 0.997847 820.45 1715.66)" fill="#E9CDB3"/>
<ellipse rx="9.99833" ry="9.56737" transform="matrix(0.998197 -0.0600294 0.0655821 0.997847 917.823 1718.43)" fill="#E9CDB3"/>
<ellipse rx="9.99833" ry="9.56737" transform="matrix(0.998197 -0.0600294 0.0655821 0.997847 1015.2 1721.2)" fill="#E9CDB3"/>
<ellipse rx="9.99833" ry="9.56737" transform="matrix(0.998197 -0.0600294 0.0655821 0.997847 1112.57 1723.97)" fill="#E9CDB3"/>
<ellipse rx="9.99833" ry="9.56737" transform="matrix(0.998197 -0.0600294 0.0655821 0.997847 161.652 1662.31)" fill="#E9CDB3"/>
<ellipse rx="9.99833" ry="9.56737" transform="matrix(0.998197 -0.0600294 0.0655821 0.997847 259.025 1665.08)" fill="#E9CDB3"/>
<ellipse rx="9.99833" ry="9.56737" transform="matrix(0.998197 -0.0600294 0.0655821 0.997847 356.399 1667.85)" fill="#E9CDB3"/>
<ellipse rx="9.99833" ry="9.56737" transform="matrix(0.998197 -0.0600294 0.0655821 0.997847 453.772 1670.62)" fill="#E9CDB3"/>
<ellipse rx="9.99833" ry="9.56737" transform="matrix(0.998197 -0.0600294 0.0655821 0.997847 551.146 1673.39)" fill="#E9CDB3"/>
<ellipse rx="9.99833" ry="9.56737" transform="matrix(0.998197 -0.0600294 0.0655821 0.997847 648.52 1676.16)" fill="#E9CDB3"/>
<ellipse rx="9.99833" ry="9.56737" transform="matrix(0.998197 -0.0600294 0.0655821 0.997847 745.893 1678.93)" fill="#E9CDB3"/>
<ellipse rx="9.99833" ry="9.56737" transform="matrix(0.998197 -0.0600294 0.0655821 0.997847 843.267 1681.7)" fill="#E9CDB3"/>
<ellipse rx="9.99833" ry="9.56737" transform="matrix(0.998197 -0.0600294 0.0655821 0.997847 940.64 1684.47)" fill="#E9CDB3"/>
<ellipse rx="9.99833" ry="9.56737" transform="matrix(0.998197 -0.0600294 0.0655821 0.997847 1038.01 1687.24)" fill="#E9CDB3"/>
<ellipse rx="9.99833" ry="9.56737" transform="matrix(0.998197 -0.0600294 0.0655821 0.997847 1135.39 1690.01)" fill="#E9CDB3"/>
<rect x="31" y="6.6958" width="1124" height="2041.3" rx="15" fill="#3F3D56" fill-opacity="0.78"/>
</svg>
