<svg width="315" height="375" viewBox="0 0 315 375" fill="none" xmlns="http://www.w3.org/2000/svg">
<path d="M8 9.99999C8 4.47714 12.4772 0 18 0H316V375H18C12.4772 375 8 370.523 8 365V9.99999Z" fill="#FAFAEF"/>
<ellipse rx="9.99833" ry="9.56737" transform="matrix(-0.00466886 -0.999989 0.999948 -0.0102324 283.602 278.798)" fill="#E9CDB3"/>
<ellipse rx="9.99833" ry="9.56737" transform="matrix(-0.00466886 -0.999989 0.999948 -0.0102324 291.76 181.727)" fill="#E9CDB3"/>
<ellipse rx="9.99833" ry="9.56737" transform="matrix(-0.00466886 -0.999989 0.999948 -0.0102324 299.917 84.6562)" fill="#E9CDB3"/>
<ellipse rx="9.99833" ry="9.56737" transform="matrix(-0.00466886 -0.999989 0.999948 -0.0102324 294.402 337.68)" fill="#D49A52"/>
<ellipse rx="9.99833" ry="9.56737" transform="matrix(-0.00466886 -0.999989 0.999948 -0.0102324 302.559 240.609)" fill="#D49A52"/>
<ellipse rx="9.99833" ry="9.56737" transform="matrix(-0.00466886 -0.999989 0.999948 -0.0102324 310.716 143.538)" fill="#D49A52"/>
<ellipse rx="9.99833" ry="9.56737" transform="matrix(-0.00466886 -0.999989 0.999948 -0.0102324 318.874 46.4673)" fill="#D49A52"/>
<ellipse rx="9.99833" ry="9.56737" transform="matrix(-0.00466886 -0.999989 0.999948 -0.0102324 261.757 313.017)" fill="#D49A52"/>
<ellipse rx="9.99833" ry="9.56737" transform="matrix(-0.00466886 -0.999989 0.999948 -0.0102324 269.915 215.946)" fill="#D49A52"/>
<ellipse rx="9.99833" ry="9.56737" transform="matrix(-0.00466886 -0.999989 0.999948 -0.0102324 278.072 118.875)" fill="#E9CDB3"/>
<ellipse rx="9.99833" ry="9.56737" transform="matrix(-0.00466886 -0.999989 0.999948 -0.0102324 286.229 21.8045)" fill="#E9CDB3"/>
<ellipse rx="9.99833" ry="9.56737" transform="matrix(-0.00466886 -0.999989 0.999948 -0.0102324 257.422 -0.897537)" fill="#E9CDB3"/>
<ellipse rx="9.64984" ry="9.91876" transform="matrix(-0.895491 -0.440034 0.413903 -0.912639 245.399 128.52)" fill="#E9CDB3"/>
<ellipse rx="9.64984" ry="9.91876" transform="matrix(-0.895491 -0.440034 0.413903 -0.912639 233.462 284.319)" fill="#E9CDB3"/>
<ellipse rx="9.99833" ry="9.56737" transform="matrix(-0.00466886 -0.999989 0.999948 -0.0102324 306.661 299.559)" fill="#FFC850"/>
<ellipse rx="9.99833" ry="9.56737" transform="matrix(-0.00466886 -0.999989 0.999948 -0.0102324 314.819 202.488)" fill="#E9CDB3"/>
<ellipse rx="9.64984" ry="9.91876" transform="matrix(-0.895491 -0.440034 0.413903 -0.912639 253.461 80.4541)" fill="#E9CDB3"/>
<ellipse rx="9.99833" ry="9.56737" transform="matrix(-0.00466886 -0.999989 0.999948 -0.0102324 91.6022 278.798)" fill="#E9CDB3"/>
<ellipse rx="9.99833" ry="9.56737" transform="matrix(-0.00466886 -0.999989 0.999948 -0.0102324 99.7594 181.727)" fill="#E9CDB3"/>
<ellipse rx="9.99833" ry="9.56737" transform="matrix(-0.00466886 -0.999989 0.999948 -0.0102324 107.917 84.656)" fill="#E9CDB3"/>
<ellipse rx="9.99833" ry="9.56737" transform="matrix(-0.00466886 -0.999989 0.999948 -0.0102324 102.401 337.679)" fill="#D49A52"/>
<ellipse rx="9.99833" ry="9.56737" transform="matrix(-0.00466886 -0.999989 0.999948 -0.0102324 110.558 240.609)" fill="#D49A52"/>
<ellipse rx="9.99833" ry="9.56737" transform="matrix(-0.00466886 -0.999989 0.999948 -0.0102324 118.716 143.538)" fill="#D49A52"/>
<ellipse rx="9.99833" ry="9.56737" transform="matrix(-0.00466886 -0.999989 0.999948 -0.0102324 126.874 46.4671)" fill="#D49A52"/>
<ellipse rx="9.99833" ry="9.56737" transform="matrix(-0.00466886 -0.999989 0.999948 -0.0102324 69.7575 313.017)" fill="#D49A52"/>
<ellipse rx="9.99833" ry="9.56737" transform="matrix(-0.00466886 -0.999989 0.999948 -0.0102324 77.9147 215.946)" fill="#D49A52"/>
<ellipse rx="9.99833" ry="9.56737" transform="matrix(-0.00466886 -0.999989 0.999948 -0.0102324 86.0719 118.875)" fill="#E9CDB3"/>
<ellipse rx="9.99833" ry="9.56737" transform="matrix(-0.00466886 -0.999989 0.999948 -0.0102324 94.2292 21.8044)" fill="#E9CDB3"/>
<ellipse rx="9.99833" ry="9.56737" transform="matrix(-0.00466886 -0.999989 0.999948 -0.0102324 10.6149 140.097)" fill="#E9CDB3"/>
<ellipse rx="9.99833" ry="9.56737" transform="matrix(-0.00466886 -0.999989 0.999948 -0.0102324 65.4216 -0.897606)" fill="#E9CDB3"/>
<ellipse rx="9.99833" ry="9.56737" transform="matrix(-0.00466886 -0.999989 0.999948 -0.0102324 25.6149 263.097)" fill="#E9CDB3"/>
<ellipse rx="9.64984" ry="9.91876" transform="matrix(-0.895491 -0.440034 0.413903 -0.912639 53.3986 128.52)" fill="#E9CDB3"/>
<ellipse rx="9.64984" ry="9.91876" transform="matrix(-0.895491 -0.440034 0.413903 -0.912639 41.4621 284.319)" fill="#E9CDB3"/>
<ellipse rx="9.99833" ry="9.56737" transform="matrix(-0.00466886 -0.999989 0.999948 -0.0102324 128.348 362.411)" fill="#E9CDB3"/>
<ellipse rx="9.99833" ry="9.56737" transform="matrix(-0.00466886 -0.999989 0.999948 -0.0102324 136.507 265.34)" fill="#E9CDB3"/>
<ellipse rx="9.99833" ry="9.56737" transform="matrix(-0.00466886 -0.999989 0.999948 -0.0102324 144.664 168.269)" fill="#E9CDB3"/>
<ellipse rx="9.99833" ry="9.56737" transform="matrix(-0.00466886 -0.999989 0.999948 -0.0102324 152.821 71.1983)" fill="#E9CDB3"/>
<ellipse rx="9.99833" ry="9.56737" transform="matrix(-0.00466886 -0.999989 0.999948 -0.0102324 19.0143 71.6513)" fill="#E9CDB3"/>
<ellipse rx="9.99833" ry="9.56737" transform="matrix(-0.00466886 -0.999989 0.999948 -0.0102324 147.305 324.222)" fill="#FFC850"/>
<ellipse rx="9.99833" ry="9.56737" transform="matrix(-0.00466886 -0.999989 0.999948 -0.0102324 155.463 227.151)" fill="#FFC850"/>
<ellipse rx="9.99833" ry="9.56737" transform="matrix(-0.00466886 -0.999989 0.999948 -0.0102324 163.62 130.08)" fill="#FFC850"/>
<ellipse rx="9.99833" ry="9.56737" transform="matrix(-0.00466886 -0.999989 0.999948 -0.0102324 171.777 33.0094)" fill="#FFC850"/>
<ellipse rx="9.99833" ry="9.56737" transform="matrix(-0.00466886 -0.999989 0.999948 -0.0102324 37.9704 33.4623)" fill="#FFC850"/>
<ellipse rx="9.99833" ry="9.56737" transform="matrix(-0.00466886 -0.999989 0.999948 -0.0102324 114.661 299.559)" fill="#FFC850"/>
<ellipse rx="9.99833" ry="9.56737" transform="matrix(-0.00466886 -0.999989 0.999948 -0.0102324 122.818 202.488)" fill="#E9CDB3"/>
<ellipse rx="9.99833" ry="9.56737" transform="matrix(-0.00466886 -0.999989 0.999948 -0.0102324 130.976 105.417)" fill="#E9CDB3"/>
<ellipse rx="9.99833" ry="9.56737" transform="matrix(-0.00466886 -0.999989 0.999948 -0.0102324 139.133 8.34676)" fill="#E9CDB3"/>
<ellipse rx="9.99833" ry="9.56737" transform="matrix(-0.00466886 -0.999989 0.999948 -0.0102324 16.6149 104.097)" fill="#E9CDB3"/>
<ellipse rx="9.64984" ry="9.91876" transform="matrix(-0.895491 -0.440034 0.413903 -0.912639 61.4611 80.4539)" fill="#E9CDB3"/>
<ellipse rx="9.64984" ry="9.91876" transform="matrix(-0.895491 -0.440034 0.413903 -0.912639 49.5236 236.254)" fill="#E9CDB3"/>
<ellipse rx="9.99833" ry="9.56737" transform="matrix(-0.00466886 -0.999989 0.999948 -0.0102324 173.252 348.953)" fill="#E9CDB3"/>
<ellipse rx="9.99833" ry="9.56737" transform="matrix(-0.00466886 -0.999989 0.999948 -0.0102324 181.409 251.882)" fill="#E9CDB3"/>
<ellipse rx="9.99833" ry="9.56737" transform="matrix(-0.00466886 -0.999989 0.999948 -0.0102324 189.567 154.811)" fill="#E9CDB3"/>
<ellipse rx="9.99833" ry="9.56737" transform="matrix(-0.00466886 -0.999989 0.999948 -0.0102324 197.724 57.7405)" fill="#E9CDB3"/>
<ellipse rx="9.99833" ry="9.56737" transform="matrix(-0.00466886 -0.999989 0.999948 -0.0102324 192.209 310.764)" fill="#D49A52"/>
<ellipse rx="9.99833" ry="9.56737" transform="matrix(-0.00466886 -0.999989 0.999948 -0.0102324 200.366 213.693)" fill="#D49A52"/>
<ellipse rx="9.99833" ry="9.56737" transform="matrix(-0.00466886 -0.999989 0.999948 -0.0102324 208.523 116.622)" fill="#D49A52"/>
<ellipse rx="9.99833" ry="9.56737" transform="matrix(-0.00466886 -0.999989 0.999948 -0.0102324 216.68 19.5516)" fill="#D49A52"/>
<ellipse rx="9.99833" ry="9.56737" transform="matrix(-0.00466886 -0.999989 0.999948 -0.0102324 159.564 286.101)" fill="#D79000"/>
<ellipse rx="9.99833" ry="9.56737" transform="matrix(-0.00466886 -0.999989 0.999948 -0.0102324 167.721 189.03)" fill="#D79000"/>
<ellipse rx="9.99833" ry="9.56737" transform="matrix(-0.00466886 -0.999989 0.999948 -0.0102324 175.879 91.9594)" fill="#D79000"/>
<ellipse rx="9.99833" ry="9.56737" transform="matrix(-0.00466886 -0.999989 0.999948 -0.0102324 42.0729 92.4124)" fill="#D79000"/>
<ellipse rx="9.99833" ry="9.56737" transform="matrix(-0.00466886 -0.999989 0.999948 -0.0102324 184.037 -5.11101)" fill="#D79000"/>
<ellipse rx="9.64984" ry="9.91876" transform="matrix(-0.895491 -0.440034 0.413903 -0.912639 69.5217 32.388)" fill="#D79000"/>
<ellipse rx="9.64984" ry="9.91876" transform="matrix(-0.895491 -0.440034 0.413903 -0.912639 15.7473 219.3)" fill="#D79000"/>
<ellipse rx="9.64984" ry="9.91876" transform="matrix(-0.895491 -0.440034 0.413903 -0.912639 35.7482 163.3)" fill="#D79000"/>
<ellipse rx="9.64984" ry="9.91876" transform="matrix(-0.895491 -0.440034 0.413903 -0.912639 57.5852 188.188)" fill="#D79000"/>
<ellipse rx="9.64984" ry="9.91876" transform="matrix(-0.895491 -0.440034 0.413903 -0.912639 45.6477 343.987)" fill="#D79000"/>
<ellipse rx="9.99833" ry="9.56737" transform="matrix(-0.00466886 -0.999989 0.999948 -0.0102324 218.156 335.495)" fill="#D79000"/>
<ellipse rx="9.99833" ry="9.56737" transform="matrix(-0.00466886 -0.999989 0.999948 -0.0102324 226.313 238.424)" fill="#D79000"/>
<ellipse rx="9.99833" ry="9.56737" transform="matrix(-0.00466886 -0.999989 0.999948 -0.0102324 234.47 141.353)" fill="#D79000"/>
<ellipse rx="9.99833" ry="9.56737" transform="matrix(-0.00466886 -0.999989 0.999948 -0.0102324 242.629 44.2828)" fill="#D79000"/>
<ellipse rx="9.99833" ry="9.56737" transform="matrix(-0.00466886 -0.999989 0.999948 -0.0102324 237.112 297.306)" fill="#E9CDB3"/>
<ellipse rx="9.99833" ry="9.56737" transform="matrix(-0.00466886 -0.999989 0.999948 -0.0102324 245.27 200.235)" fill="#E9CDB3"/>
<ellipse rx="9.99833" ry="9.56737" transform="matrix(-0.00466886 -0.999989 0.999948 -0.0102324 253.427 103.164)" fill="#E9CDB3"/>
<ellipse rx="9.99833" ry="9.56737" transform="matrix(-0.00466886 -0.999989 0.999948 -0.0102324 261.585 6.0937)" fill="#E9CDB3"/>
<ellipse rx="9.99833" ry="9.56737" transform="matrix(-0.00466886 -0.999989 0.999948 -0.0102324 204.468 272.643)" fill="#E9CDB3"/>
<ellipse rx="9.99833" ry="9.56737" transform="matrix(-0.00466886 -0.999989 0.999948 -0.0102324 212.626 175.572)" fill="#E9CDB3"/>
<ellipse rx="9.99833" ry="9.56737" transform="matrix(-0.00466886 -0.999989 0.999948 -0.0102324 220.783 78.5017)" fill="#E9CDB3"/>
</svg>
