<svg width="55" height="54" viewBox="0 0 55 54" fill="none" xmlns="http://www.w3.org/2000/svg">
<path d="M54.8389 29.2771C54.8389 45.5422 42.5628 54 27.4195 54C12.2761 54 10.3749 40.9879 0 29.2771C0 15.623 27.0974 0 42.2408 0C57.3841 0 54.8389 13.012 54.8389 29.2771Z" fill="#FAFAEF"/>
<g clip-path="url(#clip0)">
<path d="M42.9998 20.7111C41.8195 21.2188 40.639 21.5358 39.4593 21.6631C40.7918 20.8637 41.693 19.7342 42.1626 18.2749C40.9438 18.9981 39.6433 19.4929 38.2601 19.7595C37.0417 18.4651 35.5445 17.8176 33.7675 17.8176C32.0672 17.8176 30.6175 18.4172 29.4177 19.6165C28.2187 20.8157 27.6191 22.2655 27.6191 23.9659C27.6191 24.4227 27.6698 24.8924 27.7714 25.3746C25.2586 25.2477 22.9014 24.6164 20.6995 23.4806C18.4977 22.3447 16.629 20.8313 15.0936 18.9405C14.5352 19.8921 14.2559 20.9265 14.2559 22.0432C14.2559 23.0965 14.5033 24.0738 14.9985 24.9749C15.4933 25.8757 16.1597 26.6054 16.9973 27.1638C16.0073 27.1257 15.081 26.8654 14.2181 26.3832V26.4593C14.2181 27.9442 14.6845 29.2479 15.6171 30.3713C16.5499 31.4946 17.727 32.2017 19.1482 32.4937C18.6152 32.6331 18.0757 32.703 17.5301 32.703C17.1748 32.703 16.7877 32.6713 16.3689 32.6083C16.7623 33.839 17.4857 34.8507 18.5389 35.6442C19.5923 36.4374 20.7852 36.8462 22.1177 36.8722C19.8843 38.6232 17.3399 39.4987 14.4846 39.4987C13.9388 39.4987 13.444 39.4738 12.9998 39.4227C15.8552 41.2627 19.0023 42.1826 22.4415 42.1826C24.6242 42.1826 26.6737 41.8372 28.5894 41.1454C30.506 40.454 32.1429 39.5274 33.5009 38.366C34.8585 37.2049 36.0294 35.8693 37.0128 34.3592C37.9962 32.849 38.7288 31.2723 39.2115 29.629C39.6935 27.9853 39.9347 26.3391 39.9347 24.689C39.9347 24.3337 39.9283 24.0673 39.9156 23.8896C41.1215 23.0143 42.1494 21.9545 42.9998 20.7111Z" fill="#3F3D56"/>
</g>
<defs>
<clipPath id="clip0">
<rect width="30" height="30" fill="white" transform="translate(13 15)"/>
</clipPath>
</defs>
</svg>
