<svg width="30" height="30" viewBox="0 0 30 30" fill="none" xmlns="http://www.w3.org/2000/svg">
<path d="M17.5002 8.12508C17.5002 11.5768 14.7018 14.3749 11.2501 14.3749C7.79831 14.3749 5 11.5768 5 8.12508C5 4.67331 7.79831 1.875 11.2501 1.875C14.7018 1.875 17.5002 4.67331 17.5002 8.12508Z" fill="#10145F"/>
<path d="M16.5626 16.875H5.93742C2.66373 16.875 0 19.5387 0 22.8124V27.1875C0 27.705 0.419998 28.125 0.9375 28.125H21.5625C22.08 28.125 22.5 27.705 22.5 27.1875V22.8124C22.5 19.5387 19.8363 16.875 16.5626 16.875Z" fill="#10145F"/>
<path d="M29.7012 12.4374L25.3262 8.37502C25.1499 8.21114 24.9199 8.12622 24.6887 8.12622C24.0687 8.12622 23.7498 8.65379 23.7498 9.06258V11.8751H18.7499C18.0587 11.8751 17.5 12.4349 17.5 13.125C17.5 13.8151 18.0587 14.3749 18.7499 14.3749H23.7498V17.1874C23.7498 17.7074 24.1724 18.1249 24.6873 18.1249C24.9199 18.1249 25.1488 18.0389 25.3262 17.875L29.7012 13.8126C29.8912 13.6349 29.9999 13.385 29.9999 13.125C29.9999 12.865 29.8912 12.6151 29.7012 12.4374Z" fill="#10145F"/>
</svg>
