<svg width="150" height="115" viewBox="0 0 150 115" fill="none" xmlns="http://www.w3.org/2000/svg">
<g clip-path="url(#clip0)">
<path d="M63.9893 79.3898V106.904C63.9893 107.835 64.9686 108.589 66.1782 108.589C67.3867 108.589 68.3671 107.835 68.3671 106.904V79.3898H63.9893Z" fill="#C27749"/>
<path d="M81.5005 79.3898V106.904C81.5005 107.835 82.4798 108.589 83.6894 108.589C84.8979 108.589 85.8784 107.835 85.8784 106.904V79.3898H81.5005Z" fill="#C27749"/>
<path d="M2.40723 98.4885H30.8633V101.858H2.40723V98.4885Z" fill="#FF8646"/>
<path d="M119.004 98.4885H147.461V101.858H119.004V98.4885Z" fill="#FF8646"/>
<path d="M0.218262 87.2327V106.911C0.218262 107.842 1.19872 108.596 2.40719 108.596C3.61566 108.596 4.59612 107.842 4.59612 106.911V84.9866L0.218262 87.2327Z" fill="#FF8646"/>
<path d="M145.271 84.9866V106.886C145.271 107.816 146.251 108.571 147.46 108.571C148.67 108.571 149.649 107.816 149.649 106.886V87.2327L145.271 84.9866Z" fill="#FF6337"/>
<path d="M116.815 87.2581V106.886C116.815 107.816 117.795 108.571 119.004 108.571C120.214 108.571 121.193 107.816 121.193 106.886V85.012L116.815 87.2581Z" fill="#FF8646"/>
<path d="M28.6743 85.012V106.911C28.6743 107.841 29.6548 108.596 30.8632 108.596C32.0717 108.596 33.0522 107.841 33.0522 106.911V87.2581L28.6743 85.012Z" fill="#FF6337"/>
<path d="M57.5012 105.306L50.2424 103.444V78.8282C50.2412 78.8221 50.2424 78.816 50.2424 78.8098C50.2424 77.8798 49.2619 77.1252 48.0534 77.1252H30.542L33.4606 80.4944H45.9135L45.8645 80.5128V104.658C45.8645 105.383 46.4676 106.027 47.3614 106.256L56.116 108.502C57.2629 108.797 58.5033 108.32 58.8852 107.437C59.2683 106.554 58.6481 105.6 57.5012 105.306Z" fill="#CCCCCC"/>
<path d="M119.326 77.1252H101.814C100.605 77.1252 99.6253 77.8789 99.6253 78.8098C99.6253 78.816 99.6265 78.8221 99.6265 78.8291C99.6253 78.8282 99.6253 103.444 99.6253 103.444L92.3665 105.306C91.2196 105.6 90.5994 106.553 90.9814 107.436C91.3644 108.32 92.6048 108.796 93.7506 108.502L102.506 106.256C103.4 106.027 104.002 105.383 104.002 104.657V80.5128L103.954 80.4944H116.407L119.326 77.1252Z" fill="#85453D"/>
<path d="M82.2301 52.4366H73.4744L67.6372 67.0363H88.0672V56.9288C88.0672 54.4476 85.453 52.4366 82.2301 52.4366Z" fill="#CF301B"/>
<path d="M73.4746 52.4366H67.6374C64.4133 52.4366 61.8003 54.4476 61.8003 56.9288V67.0363H79.3117V56.9288C79.3117 54.4476 76.6976 52.4366 73.4746 52.4366Z" fill="#FF4128"/>
<path d="M66.1782 67.0363L83.6897 83.882H92.4454V67.0363H66.1782Z" fill="#49C9FF"/>
<path d="M57.4224 67.0363H83.6895V83.882H57.4224V67.0363Z" fill="#7DD9FF"/>
<path d="M33.0523 63.6742V47.9515C33.0523 45.4703 30.4393 43.4594 27.2152 43.4594H18.4595V77.1507L24.2966 83.889L33.0523 80.5199V70.4125L37.4302 67.0433L33.0523 63.6742Z" fill="#FFB4A9"/>
<path d="M129.949 63.6742V80.5199C137.202 80.5199 143.082 75.9944 143.082 70.4125L129.949 63.6742Z" fill="#084F6D"/>
<path d="M134.327 70.4125V63.6742L116.815 70.4125V80.5199L123.382 83.889L129.949 80.5199C132.367 80.5199 134.327 75.9944 134.327 70.4125Z" fill="#116F97"/>
<path d="M137.245 43.4594H128.49L134.327 70.4125H143.083V47.9515C143.083 45.4703 140.47 43.4594 137.245 43.4594Z" fill="#FFE2A8"/>
<path d="M128.49 43.4594H122.653C119.428 43.4594 116.815 45.4703 116.815 47.9515V63.6742L112.438 67.0433L116.815 70.4125H134.327V47.9515C134.327 45.4703 131.714 43.4594 128.49 43.4594Z" fill="#FFF0D3"/>
<path d="M18.4594 43.4594H12.6223C9.39819 43.4594 6.78516 45.4703 6.78516 47.9515V70.4125C6.78516 75.9944 12.6656 80.5199 19.9187 80.5199L24.2966 83.889V47.9515C24.2966 45.4703 21.6836 43.4594 18.4594 43.4594Z" fill="#FFD9D4"/>
<path d="M138.705 80.5198L132.868 83.8889L138.705 87.2581H149.649V80.5198H138.705Z" fill="#FF6337"/>
<path d="M116.815 80.5198H138.705V87.2581H116.815V80.5198Z" fill="#FF8646"/>
<path d="M24.2966 80.5198L18.4595 83.8889L24.2966 87.2581H33.0523V80.5198H24.2966Z" fill="#FF6337"/>
<path d="M108.059 63.6742L98.9937 67.0433L108.059 70.4125H116.815V63.6742H108.059Z" fill="#FFA754"/>
<path d="M33.0522 63.6742H108.06V70.4125H33.0522V63.6742Z" fill="#FFCB63"/>
<path d="M0.218262 80.5198H24.2965V87.2581H0.218262V80.5198Z" fill="#FF8646"/>
<path d="M143.083 13.7889C143.083 13.3362 142.97 12.8756 142.73 12.4316C141.941 10.9655 140.024 10.1232 138.073 10.254C138.242 8.75278 137.147 7.27702 135.243 6.669C133.338 6.06185 131.209 6.51019 129.949 7.66395C128.689 6.51019 126.56 6.06185 124.655 6.669C122.751 7.27614 121.656 8.75278 121.825 10.254C119.874 10.1232 117.957 10.9655 117.168 12.4316C116.928 12.8756 116.815 13.3362 116.815 13.7889C116.817 14.8295 116.815 26.6136 116.815 26.6136H143.083C143.083 26.6136 143.081 14.8295 143.083 13.7889Z" fill="#60312C"/>
<path d="M129.949 16.5061V39.1917L143.082 28.8596V26.6135C143.082 21.0316 137.202 16.5061 129.949 16.5061Z" fill="#85453D"/>
<path d="M129.949 16.5061C122.696 16.5061 116.815 21.0316 116.815 26.6135V28.8596L134.327 39.1917V26.6135C134.327 21.0316 132.367 16.5061 129.949 16.5061Z" fill="#A45E43"/>
<path d="M135.41 28.8597C135.102 28.5061 134.737 28.185 134.327 27.9025L129.949 43.4593C137.202 43.4593 143.082 38.9338 143.082 33.3519V28.8597H135.41Z" fill="#40211D"/>
<path d="M134.327 33.3518V27.9024C133.165 27.1013 131.632 26.6135 129.949 26.6135C127.672 26.6135 125.667 27.5058 124.488 28.8596H116.815V33.3518C116.815 38.9337 122.696 43.4592 129.949 43.4592C132.367 43.4592 134.327 38.9337 134.327 33.3518Z" fill="#60312C"/>
<path d="M19.9175 18.7522V36.7209C27.1717 36.7209 33.0511 32.1954 33.0511 26.6135C33.0511 25.4317 32.7854 24.2981 32.3009 23.2444L19.9175 18.7522Z" fill="#A45E43"/>
<path d="M19.9175 16.5061L24.0457 23.2444H32.3009C30.4973 19.319 25.6361 16.5061 19.9175 16.5061Z" fill="#40211D"/>
<path d="M7.53386 23.2444C7.05047 24.2981 6.78369 25.4317 6.78369 26.6135C6.78369 32.1954 12.6642 36.7209 19.9173 36.7209C22.3354 36.7209 24.2951 32.1954 24.2951 26.6135C24.2951 25.4317 24.2062 24.2981 24.0455 23.2444L19.9173 18.7522L7.53386 23.2444Z" fill="#C27749"/>
<path d="M19.9176 16.5061C14.2002 16.5061 9.33777 19.319 7.53418 23.2444H24.0458C23.445 19.319 21.8238 16.5061 19.9176 16.5061Z" fill="#60312C"/>
<path d="M24.5277 8.53516C23.7069 7.20856 21.9546 6.28906 19.9185 6.28906C17.8823 6.28906 16.13 7.20856 15.3092 8.53516C12.4886 8.53516 10.2017 10.2952 10.2017 12.4658C10.2017 14.6365 12.4886 16.3965 15.3092 16.3965H24.5277C27.3483 16.3965 29.6353 14.6365 29.6353 12.4658C29.6353 10.2952 27.3483 8.53516 24.5277 8.53516Z" fill="#60312C"/>
<path d="M74.9326 27.7296V45.6984C82.1857 45.6984 88.0662 41.1737 88.0662 35.5909C88.0662 34.4091 87.8005 33.2764 87.316 32.2218L74.9326 27.7296Z" fill="#A45E43"/>
<path d="M74.9326 25.4835L79.0608 32.2218H87.316C85.5124 28.2964 80.6512 25.4835 74.9326 25.4835Z" fill="#40211D"/>
<path d="M62.549 32.2218C62.0645 33.2764 61.7988 34.4091 61.7988 35.5909C61.7988 41.1737 67.6793 45.6984 74.9324 45.6984C77.3505 45.6984 79.3103 41.1737 79.3103 35.5909C79.3103 34.4091 79.2213 33.2764 79.0606 32.2218L74.9324 27.7296L62.549 32.2218Z" fill="#C27749"/>
<path d="M74.9327 25.4835C69.2142 25.4835 64.3529 28.2964 62.5493 32.2218H79.0609C78.459 28.2964 76.8389 25.4835 74.9327 25.4835Z" fill="#60312C"/>
<path d="M90.8237 40.9483L88.0659 35.591H95.5539C96.5526 35.5866 97.5638 35.8051 98.452 36.2701C100.786 37.4905 101.391 39.9349 99.8064 41.7309C98.2205 43.526 95.0443 43.9928 92.7106 42.7724C91.8225 42.3074 91.1852 41.6651 90.8237 40.9483Z" fill="#40211D"/>
<path d="M59.0426 40.9483L61.8005 35.591H54.3125C53.3138 35.5866 52.3026 35.8051 51.4133 36.2701C49.0807 37.4905 48.4742 39.9349 50.06 41.7309C51.6447 43.526 54.8221 43.9928 57.1547 42.7724C58.0439 42.3074 58.6812 41.6651 59.0426 40.9483Z" fill="#60312C"/>
</g>
<defs>
<clipPath id="clip0">
<rect width="149.431" height="115" fill="white" transform="translate(0.218262)"/>
</clipPath>
</defs>
</svg>
