<svg width="18" height="18" viewBox="0 0 18 18" fill="none" xmlns="http://www.w3.org/2000/svg">
<path d="M16.8001 10.4875V15.0875C16.8001 16.2375 15.9001 17.1 14.7001 17.1H3.5001C2.2001 17.1 1.1001 16.0459 1.1001 14.8C1.1001 13.5542 2.2001 12.5 3.5001 12.5H12.1001" stroke="#000" stroke-width="1.3" stroke-miterlimit="10" stroke-linecap="round" stroke-linejoin="round"/>
<path d="M1 14.8V3.3C1 2.05417 2.1 1 3.4 1H14.6C15.8 1 16.7 1.8625 16.7 3.0125V10.4875C16.7 11.6375 15.8 12.5 14.6 12.5H11.9" stroke="#000" stroke-width="1.3" stroke-miterlimit="10" stroke-linecap="round" stroke-linejoin="round"/>
<path d="M8.69971 1V4.54583C8.69971 4.92917 9.09971 5.12083 9.39971 4.92917L10.8997 4.06667C10.9997 3.97083 11.1997 3.97083 11.3997 4.06667L12.8997 4.92917C13.1997 5.12083 13.5997 4.83333 13.5997 4.54583V1" stroke="#000" stroke-width="1.3" stroke-miterlimit="10" stroke-linecap="round" stroke-linejoin="round"/>
</svg>
