<svg width="20" height="20" viewBox="0 0 8 8" fill="none" xmlns="http://www.w3.org/2000/svg">
<path fill-rule="evenodd" clip-rule="evenodd" d="M3.99984 0.486816C2.15877 0.486816 0.666504 1.97908 0.666504 3.82015C0.666504 5.66122 2.15877 7.15348 3.99984 7.15348C5.84091 7.15348 7.33317 5.66122 7.33317 3.82015C7.33317 1.97908 5.84091 0.486816 3.99984 0.486816ZM3.99984 0.986817C5.56477 0.986817 6.83317 2.25522 6.83317 3.82015C6.83317 5.38508 5.56477 6.65348 3.99984 6.65348C2.43491 6.65348 1.1665 5.38508 1.1665 3.82015C1.1665 2.25522 2.43491 0.986817 3.99984 0.986817ZM4.13479 2.40167C4.11824 2.27965 4.01364 2.1856 3.88707 2.1856C3.749 2.1856 3.63707 2.29753 3.63707 2.4356V4.05126L3.63986 4.08851C3.6509 4.16186 3.69418 4.2273 3.75899 4.26596L5.01566 5.01563L5.04596 5.03105C5.15924 5.07935 5.2936 5.0377 5.35844 4.92901L5.37386 4.89871C5.42216 4.78543 5.38051 4.65107 5.27182 4.58623L4.13694 3.90896L4.13707 2.4356L4.13479 2.40167Z" fill="#010101"/>
</svg>
