<svg width="28" height="28" viewBox="0 0 28 28" fill="none" xmlns="http://www.w3.org/2000/svg">
<path d="M16.5106 14.0002L27.3773 3.09701C28.0846 2.3878 28.0846 1.24111 27.3773 0.531905C26.6705 -0.177302 25.5276 -0.177302 24.8208 0.531905L13.9537 11.4351L3.08699 0.531905C2.3798 -0.177302 1.23725 -0.177302 0.530391 0.531905C-0.176797 1.24111 -0.176797 2.3878 0.530391 3.09701L11.3971 14.0002L0.530391 24.9033C-0.176797 25.6126 -0.176797 26.7593 0.530391 27.4685C0.882658 27.8223 1.34584 28 1.80869 28C2.27154 28 2.73439 27.8223 3.08699 27.4685L13.9537 16.5653L24.8208 27.4685C25.1734 27.8223 25.6362 28 26.0991 28C26.5619 28 27.0248 27.8223 27.3773 27.4685C28.0846 26.7593 28.0846 25.6126 27.3773 24.9033L16.5106 14.0002Z" fill="#EE4E2F"/>
</svg>
