<svg width="202" height="238" viewBox="0 0 202 238" fill="none" xmlns="http://www.w3.org/2000/svg">
<path d="M201.847 139.434C201.847 193.871 133.422 208.55 101.653 238C46.3166 238 1.45801 193.871 1.45801 139.434C1.45801 84.998 46.3166 0 101.653 0C156.988 0 201.847 84.998 201.847 139.434Z" fill="#31769B"/>
<line x1="98.208" y1="237.288" x2="98.208" y2="0.165588" stroke="#E9CDB3" stroke-width="2"/>
<line x1="103.707" y1="237.288" x2="103.707" y2="0.994995" stroke="#E9CDB3" stroke-width="2"/>
<line x1="86.6006" y1="237.288" x2="86.6006" y2="1.80325" stroke="#E9CDB3" stroke-width="2"/>
<line x1="92.0986" y1="238" x2="92.0986" y2="0.709229" stroke="#E9CDB3" stroke-width="2"/>
<line x1="139.141" y1="212.174" x2="139.141" y2="13.823" stroke="#E9CDB3" stroke-width="2"/>
<line x1="144.64" y1="209.771" x2="144.64" y2="16.3058" stroke="#E9CDB3" stroke-width="2"/>
<line x1="127.533" y1="219.387" x2="127.533" y2="6.74939" stroke="#E9CDB3" stroke-width="2"/>
<line x1="133.031" y1="216.965" x2="133.031" y2="8.85912" stroke="#E9CDB3" stroke-width="2"/>
<line y1="-1" x2="201.356" y2="-1" transform="matrix(0 -1 -1 0 50.7471 225.859)" stroke="#E9CDB3" stroke-width="2"/>
<line y1="-1" x2="191.061" y2="-1" transform="matrix(0 -1 -1 0 45.4453 221.052)" stroke="#E9CDB3" stroke-width="2"/>
<line y1="-1" x2="215.642" y2="-1" transform="matrix(0 -1 -1 0 61.9404 230.667)" stroke="#E9CDB3" stroke-width="2"/>
<line y1="-1" x2="208.106" y2="-1" transform="matrix(0 -1 -1 0 56.6387 228.246)" stroke="#E9CDB3" stroke-width="2"/>
<line x1="192.293" y1="170.765" x2="192.293" y2="90.6024" stroke="#E9CDB3" stroke-width="2"/>
<line x1="197.792" y1="159.977" x2="197.792" y2="109.853" stroke="#E9CDB3" stroke-width="2"/>
<line x1="180.686" y1="184.51" x2="180.686" y2="63.7072" stroke="#E9CDB3" stroke-width="2"/>
<line x1="186.184" y1="179.119" x2="186.184" y2="74.3571" stroke="#E9CDB3" stroke-width="2"/>
<line y1="-1" x2="90.3799" y2="-1" transform="matrix(0 -1 -1 0 10.0107 180.381)" stroke="#E9CDB3" stroke-width="2"/>
<line y1="-1" x2="56.7353" y2="-1" transform="matrix(0 -1 -1 0 4.5127 165.987)" stroke="#E9CDB3" stroke-width="2"/>
<line y1="-1" x2="134.025" y2="-1" transform="matrix(0 -1 -1 0 21.0078 198.934)" stroke="#E9CDB3" stroke-width="2"/>
<line y1="-1" x2="114.378" y2="-1" transform="matrix(0 -1 -1 0 15.5098 190.538)" stroke="#E9CDB3" stroke-width="2"/>
<path d="M201.236 139.434C201.236 193.871 132.81 208.55 101.041 238C45.7053 238 0.84668 193.871 0.84668 139.434C0.84668 84.998 45.7053 0 101.041 0C156.377 0 201.236 84.998 201.236 139.434Z" fill="#A9B2C1" fill-opacity="0.5"/>
<g opacity="0.5">
<g opacity="0.5">
<g opacity="0.5">
<path opacity="0.5" fill-rule="evenodd" clip-rule="evenodd" d="M48.7433 55.894L40.5586 62.3439L46.8196 69.7173L56.4431 65.5738L48.7433 55.894Z" fill="#FFD44C"/>
<path opacity="0.5" fill-rule="evenodd" clip-rule="evenodd" d="M88.5148 47.48L82.1025 55.9692L86.1633 59.5002L94.9323 55.9692L88.5148 47.48Z" fill="#FFD44C"/>
<path opacity="0.5" fill-rule="evenodd" clip-rule="evenodd" d="M127.614 59.5L121.202 65.781L127.614 73.3232L134.032 66.4142L127.614 59.5Z" fill="#FFD44C"/>
<path opacity="0.5" fill-rule="evenodd" clip-rule="evenodd" d="M150.527 97.5092L154.643 103.975L162.135 100.382L154.965 90.7529L150.527 97.5092Z" fill="#FFD44C"/>
<path opacity="0.5" fill-rule="evenodd" clip-rule="evenodd" d="M156.638 60.2465L160.754 66.7125L168.246 63.1191L161.076 53.4902L156.638 60.2465Z" fill="#FFD44C"/>
<path opacity="0.5" fill-rule="evenodd" clip-rule="evenodd" d="M118.332 111.788L112.038 115.059L113.974 124.409L124.868 123.007L118.332 111.788Z" fill="#FFD44C"/>
<path opacity="0.5" fill-rule="evenodd" clip-rule="evenodd" d="M94.9323 98.7466L83.7445 101.571L82.1025 93.2658L88.5148 90.7529L94.9323 98.7466Z" fill="#FFD44C"/>
<path opacity="0.5" fill-rule="evenodd" clip-rule="evenodd" d="M55.221 106.379L50.0307 97.9648H41.7803V104.313L55.221 106.379Z" fill="#FFD44C"/>
<path opacity="0.5" fill-rule="evenodd" clip-rule="evenodd" d="M47.9566 137.031L57.6646 149.04L43.7863 150.253L39.9473 143.644L41.3987 137.031H47.9566Z" fill="#FFD44C"/>
<path opacity="0.5" fill-rule="evenodd" clip-rule="evenodd" d="M135.285 141.838L140.753 152.176L136.99 155.061L129.583 154.097L127.923 148.452L135.285 141.838Z" fill="#FFD44C"/>
<path opacity="0.5" fill-rule="evenodd" clip-rule="evenodd" d="M155.955 131.296L154.193 138.714L157.182 143.641L161.844 140.334L165.19 138.714L160.171 128.616L155.955 131.296Z" fill="#FFD44C"/>
<path opacity="0.5" fill-rule="evenodd" clip-rule="evenodd" d="M80.2695 134.433L87.4881 130.419L94.3212 139.258L88.7496 144.243H83.2431L80.2695 134.433Z" fill="#FFD44C"/>
</g>
</g>
</g>
<path fill-rule="evenodd" clip-rule="evenodd" d="M171.028 147.849H34.7192C33.895 147.849 33.2266 146.553 33.2266 144.956V136.918C33.2266 135.321 33.895 134.025 34.7192 134.025H171.028C171.852 134.025 172.521 135.321 172.521 136.918V144.956C172.521 146.553 171.852 147.849 171.028 147.849Z" fill="#EABD91"/>
<path fill-rule="evenodd" clip-rule="evenodd" d="M171.728 164.677H30.9651C30.5268 164.677 30.1719 163.982 30.1719 163.124V158.667H172.521V163.124C172.521 163.982 172.166 164.677 171.728 164.677Z" fill="#EABD90"/>
<path fill-rule="evenodd" clip-rule="evenodd" d="M33.8379 183.909H36.2817V161.672H33.8379V183.909Z" fill="#EABD90"/>
<path fill-rule="evenodd" clip-rule="evenodd" d="M166.412 183.909H168.856V161.672H166.412V183.909Z" fill="#EABD90"/>
<path fill-rule="evenodd" clip-rule="evenodd" d="M175.966 161.672H25.5754C24.2784 161.672 23.5849 158.889 24.4388 157.11L30.2806 144.94C31.2268 142.968 32.5934 141.839 34.0302 141.839H169.708C172.165 141.839 174.461 144.066 175.831 147.78L178.174 154.122C179.362 157.341 178.096 161.672 175.966 161.672Z" fill="#FFDFD7"/>
<path fill-rule="evenodd" clip-rule="evenodd" d="M168.487 144.243H36.2812C36.2812 144.243 38.4276 140.489 38.5834 138.828C38.8825 135.631 36.8599 129.747 36.942 126.513C37.0255 123.187 38.8964 117.066 38.5514 113.794C38.3609 112 36.2812 108.783 36.2812 108.783H168.487C168.487 108.783 166.165 112.484 166.324 115.812C166.517 119.85 169.639 126.898 169.459 131.068C169.299 134.767 166.245 136.863 166.695 140.312C166.857 141.537 168.487 144.243 168.487 144.243Z" fill="#FFD6CB"/>
<path fill-rule="evenodd" clip-rule="evenodd" d="M71.0031 142.761C70.1499 149.065 64.1705 154.033 57.6463 153.854C51.1235 153.677 46.5282 148.423 47.38 142.118C48.2346 135.814 54.214 130.848 60.7382 131.025C67.2609 131.202 71.8563 136.457 71.0031 142.761Z" fill="#FFC0B0"/>
<path fill-rule="evenodd" clip-rule="evenodd" d="M152.268 120.041C152.268 120.041 152.196 119.9 151.329 120.041C150.462 120.182 141.212 121.037 136.877 119.979C132.541 118.921 124.086 120.476 122.352 119.979C120.618 119.482 121.557 122.562 121.557 123.263C121.557 123.963 122.208 126.484 120.546 130.546C118.884 134.608 121.413 142.657 121.413 144.656C121.413 146.653 120.69 148.262 122.136 148.262C123.581 148.262 133.336 148.893 138.033 147.842C142.73 146.792 149.377 147.281 151.618 147.002C153.858 146.722 155.664 147.071 155.664 145.462C155.664 143.851 156.026 141.4 156.026 138.879C156.026 136.358 153.858 124.943 152.991 123.053C152.123 121.162 152.341 120.742 152.268 120.041Z" fill="#EE9A83"/>
<path fill-rule="evenodd" clip-rule="evenodd" d="M151.302 123.938C151.302 123.938 148.087 121.773 144.618 121.94C141.149 122.106 138.515 123.188 137.548 128.433C137.548 128.433 129.726 129.847 121.942 137.005C114.158 144.163 113.819 144.413 114.835 150.24C115.85 156.066 118.811 163.142 118.811 163.142L119.836 174.093C119.836 174.093 118.403 177.978 116.522 179.226C114.642 180.475 113.45 181.076 114.422 181.955C115.394 182.834 115.629 181.77 117.509 181.955C119.39 182.14 119.578 181.169 119.578 181.169C119.578 181.169 117.368 186.395 113.466 188.661C113.466 188.661 112.15 189.864 113.466 190.418C114.783 190.974 118.45 190.927 120.189 189.771C121.928 188.615 125.502 185.655 126.677 185.331C127.852 185.007 127.288 183.296 127.288 183.296L125.595 178.672C125.595 178.672 126.066 178.07 127.382 177.654C128.698 177.238 129.403 175.481 129.263 174.833C129.122 174.185 126.771 170.902 126.724 168.497C126.724 168.497 127.899 165.214 129.497 162.299C131.096 159.386 129.027 152.31 127.852 150.414C127.852 150.414 129.685 150.692 133.165 150.969C136.643 151.246 148.459 152.081 155.388 148.326C162.318 144.571 161.636 131.84 151.302 123.938Z" fill="#DB8C5C"/>
<path fill-rule="evenodd" clip-rule="evenodd" d="M141.939 133.331C139.666 133.844 137.42 134.493 135.225 135.281C133.031 136.073 130.87 136.969 128.804 138.059C126.744 139.154 124.752 140.401 122.977 141.928C121.198 143.437 119.674 145.296 118.736 147.447L118.72 147.484V147.524C118.703 150.127 118.713 152.729 118.727 155.332C118.727 157.935 118.781 160.539 118.811 163.142C118.879 160.539 118.972 157.937 119.01 155.334C119.063 152.732 119.111 150.13 119.132 147.527L119.116 147.604C120.033 145.532 121.538 143.75 123.275 142.26C125.002 140.751 126.961 139.502 128.994 138.403C131.035 137.316 133.147 136.349 135.317 135.521C137.486 134.694 139.686 133.925 141.939 133.331Z" fill="#7A3710"/>
<path fill-rule="evenodd" clip-rule="evenodd" d="M126.724 168.497C126.343 169.284 126.049 170.108 125.791 170.942C125.538 171.779 125.339 172.631 125.199 173.496C125.086 174.362 124.992 175.238 125.045 176.116C125.098 176.99 125.249 177.867 125.595 178.672C125.37 177.828 125.284 176.97 125.28 176.11C125.276 175.25 125.366 174.391 125.501 173.541C125.614 172.686 125.814 171.843 126.016 171.003C126.225 170.162 126.461 169.328 126.724 168.497Z" fill="#7A3710"/>
<path fill-rule="evenodd" clip-rule="evenodd" d="M119.836 174.093C119.913 175.286 119.979 176.468 119.968 177.651C119.956 178.833 119.869 180.007 119.578 181.169C119.841 180.628 120.001 180.041 120.114 179.449C120.222 178.856 120.26 178.254 120.272 177.654C120.274 177.053 120.244 176.453 120.169 175.858C120.096 175.263 119.999 174.671 119.836 174.093Z" fill="#7A3710"/>
<path fill-rule="evenodd" clip-rule="evenodd" d="M128.052 150.442C128.011 150.103 127.851 149.806 127.66 149.54C127.459 149.281 127.214 149.046 126.898 148.907C126.969 149.064 127.058 149.196 127.143 149.331C127.227 149.467 127.322 149.591 127.414 149.719C127.608 149.968 127.8 150.211 128.052 150.442Z" fill="#7A3710"/>
<path fill-rule="evenodd" clip-rule="evenodd" d="M126.131 179.325C126.131 179.325 125.875 179.288 125.851 179.37C125.829 179.448 126.003 179.783 126.003 179.783C125.646 181.07 124.662 184.72 124.556 186.178C124.536 186.448 124.391 186.689 124.164 186.839L120.235 189.425C119.884 189.656 119.412 189.562 119.178 189.216C118.544 188.277 117.238 186.644 115.869 186.739C115.869 186.739 110.741 189.505 110.741 189.857C110.741 190.208 113.971 192.095 119.85 190.471C119.85 190.471 124.57 187.18 126.131 186.215C127.692 185.249 128.763 184.81 128.005 183.055C127.246 181.3 126.131 179.325 126.131 179.325Z" fill="#131313"/>
<path fill-rule="evenodd" clip-rule="evenodd" d="M119.638 181.002L119.369 181.622C119.369 181.622 116.606 183.286 112.79 181.741C112.79 181.741 112.375 181.498 112.707 181.352C113.038 181.205 116.422 179.013 116.696 179.101C116.97 179.19 118.307 181.189 119.638 181.002Z" fill="#131313"/>
<path fill-rule="evenodd" clip-rule="evenodd" d="M128.001 172.021C128.001 172.021 131.157 175.024 130.015 176.815C129.642 177.399 125.668 178.87 125.668 178.87L125.595 178.671C125.825 178.102 126.474 176.824 126.637 175.954L128.001 172.021Z" fill="#131313"/>
<path fill-rule="evenodd" clip-rule="evenodd" d="M144.618 121.94C144.618 121.94 148.881 121.128 152.195 123.892C155.51 126.656 166.856 137.029 159.943 144.918C153.03 152.808 139.034 152.267 129.127 150.72C129.127 150.72 129.052 151.035 129.356 151.347C129.356 151.347 121.725 153.799 118.811 152.529C115.898 151.26 115.954 151.536 114.579 150.956C114.579 150.956 112.976 146.673 115.26 143.411C117.545 140.148 128.809 129.548 137.547 128.432L138.474 124.779C138.474 124.779 138.718 121.711 144.618 121.94Z" fill="#003B01"/>
<path fill-rule="evenodd" clip-rule="evenodd" d="M147.398 94.4901C147.398 94.4901 146.846 99.7233 151.75 102.411C151.75 102.411 151.836 105.778 146.353 105.778C140.869 105.778 140.753 102.921 140.753 102.921C140.753 102.921 143.277 101.081 143.568 100.629C143.568 100.629 143.393 98.8466 142.929 98.0827C142.465 97.3189 142.087 95.2825 144.35 94.1786C146.614 93.0754 147.398 94.4901 147.398 94.4901Z" fill="#DB8C5C"/>
<path fill-rule="evenodd" clip-rule="evenodd" d="M156.592 125.913C156.592 125.913 156.069 125.032 155.024 125.473C153.978 125.913 153.157 127.346 151.776 127.786C150.394 128.227 150.021 128.264 149.647 128.521C149.274 128.778 148.035 130.468 146.956 130.725C146.956 130.725 147.258 131.277 149.311 130.504C149.311 130.504 149.05 131.018 149.05 131.423C149.05 131.423 149.793 132.487 151.774 133.516C151.774 133.516 153.754 129.77 154.202 129.182C154.65 128.594 157.488 127.677 156.592 125.913Z" fill="#DB8C5C"/>
<path fill-rule="evenodd" clip-rule="evenodd" d="M148.655 99.2354C148.655 99.2354 147.389 101.524 145.287 101.278C143.186 101.032 143.331 100.186 143.331 100.186C143.331 100.186 142.751 100.788 141.589 101.992L141.505 102.199C141.505 102.199 138.699 103.845 138.119 104.416C137.538 104.987 135.796 105.701 136.328 109.319C136.328 109.319 134.969 112.365 134.969 113.174C134.969 113.983 135.022 115.363 136.715 117.982C136.715 117.982 136.28 120.885 136.812 121.599C137.344 122.313 138.554 124.741 143.634 124.693C148.715 124.645 151.811 124.497 152.247 123.62C152.682 122.742 153.117 121.742 153.021 120.362C152.924 118.981 154.037 113.936 154.908 112.698L160.472 119.647L152.295 127.025C152.295 127.025 152.682 128.916 154.424 129.731C154.424 129.731 163.409 123.884 164.585 123.122C165.761 122.361 166.424 120.98 164.972 118.315C163.52 115.649 158.294 103.512 151.617 101.751C151.617 101.751 150.63 100.912 148.655 99.2354Z" fill="#DAEDEB"/>
<path fill-rule="evenodd" clip-rule="evenodd" d="M145.646 102.204L146.069 103.105L146.891 104.776C147.276 104.639 147.644 104.408 147.998 104.168C148.384 103.899 148.757 103.606 149.116 103.296C149.847 102.689 150.544 102.04 151.243 101.388C150.651 102.137 149.99 102.831 149.289 103.487C148.933 103.809 148.56 104.115 148.168 104.401C147.777 104.688 147.356 104.95 146.856 105.09C146.791 105.108 146.72 105.077 146.69 105.015C146.405 104.411 146.125 103.807 145.881 103.186C145.759 102.875 145.63 102.567 145.528 102.249C145.429 101.932 145.315 101.612 145.288 101.278C145.37 101.6 145.509 101.902 145.646 102.204Z" fill="#9FB1B7"/>
<path fill-rule="evenodd" clip-rule="evenodd" d="M142.382 103.616C142.686 103.99 143.009 104.353 143.348 104.691C143.583 104.146 143.825 103.604 144.08 103.068C144.372 102.466 144.665 101.864 144.994 101.278C144.791 101.917 144.549 102.541 144.309 103.164C144.062 103.785 143.803 104.401 143.532 105.011L143.53 105.016C143.523 105.032 143.513 105.047 143.499 105.061C143.441 105.117 143.348 105.117 143.29 105.06C142.878 104.655 142.513 104.219 142.203 103.74C141.891 103.267 141.627 102.75 141.505 102.2C141.735 102.713 142.043 103.177 142.382 103.616Z" fill="#9FB1B7"/>
<path fill-rule="evenodd" clip-rule="evenodd" d="M145.187 101.438C144.62 103.373 144.087 105.315 143.541 107.252L142.713 110.151C142.569 110.632 142.42 111.111 142.261 111.584C142.173 111.81 142.098 112.063 141.996 112.26C141.954 112.357 141.889 112.482 141.826 112.604C141.771 112.726 141.718 112.85 141.675 112.975C141.077 114.993 141.398 117.146 142.11 119.01C142.373 119.956 142.407 120.965 142.492 121.97C142.545 122.472 142.607 122.981 142.761 123.469C142.909 123.955 143.191 124.427 143.634 124.693C143.221 124.385 142.994 123.913 142.878 123.437C142.762 122.955 142.734 122.455 142.716 121.955C142.676 120.957 142.685 119.936 142.451 118.925C142.318 118.41 142.151 117.96 142.041 117.477C141.928 116.996 141.856 116.507 141.819 116.015C141.751 115.038 141.806 114.03 142.109 113.119C142.146 113.006 142.192 112.896 142.238 112.789C142.289 112.686 142.34 112.586 142.398 112.452C142.523 112.198 142.585 111.963 142.676 111.718C142.832 111.234 142.974 110.749 143.113 110.264C143.384 109.291 143.649 108.318 143.881 107.338C144.357 105.38 144.803 103.416 145.187 101.438Z" fill="#9FB1B7"/>
<path fill-rule="evenodd" clip-rule="evenodd" d="M154.908 112.698C154.448 112.088 153.913 111.548 153.352 111.035C153.067 110.783 152.78 110.535 152.47 110.31C152.163 110.084 151.848 109.863 151.501 109.693C152.043 110.232 152.586 110.749 153.146 111.257C153.712 111.758 154.281 112.255 154.908 112.698Z" fill="#9FB1B7"/>
<path d="M153.81 125.591L153.786 125.595C153.746 125.609 153.725 125.652 153.739 125.691C154.283 127.209 154.916 128.303 155.641 128.973C155.672 129.001 155.72 129 155.749 128.97C155.778 128.939 155.776 128.892 155.745 128.864C155.041 128.212 154.419 127.138 153.884 125.641C153.872 125.61 153.842 125.59 153.81 125.591Z" fill="#9FB1B7"/>
<path fill-rule="evenodd" clip-rule="evenodd" d="M151.427 102.352C151.427 102.352 151.325 104.671 145.945 104.671C140.565 104.671 140.638 102.857 140.638 102.857C140.638 102.857 143.114 101.035 143.4 100.588C143.4 100.588 143.228 98.8237 142.773 98.0677C142.318 97.3116 141.947 95.2958 144.167 94.2032C146.388 93.1111 147.157 94.5115 147.157 94.5115C147.157 94.5115 146.616 99.6916 151.427 102.352Z" fill="#DB8C5C"/>
<path fill-rule="evenodd" clip-rule="evenodd" d="M148.511 94.9784C148.511 94.9784 147.818 96.3415 146.303 97.2358C144.788 98.1301 142.883 99.4932 141.931 99.1951C140.977 98.897 138.454 96.9942 137.848 94.8648C137.242 92.7355 136.865 89.1859 137.254 87.4394C137.644 85.6934 139.852 82.0303 143.791 82.0303C147.732 82.0303 151.238 86.1189 150.286 90.6337C150.286 90.6337 151.381 91.9548 150.444 93.3172C149.507 94.6803 148.511 94.9784 148.511 94.9784Z" fill="#DB8C5C"/>
<path fill-rule="evenodd" clip-rule="evenodd" d="M146.161 92.1251C146.161 92.1251 144.421 92.1671 143.96 92.4977C143.96 92.4977 143.79 92.5566 143.856 92.3378C143.856 92.3378 143.606 92.5133 143.59 92.4178C143.574 92.3216 143.699 91.3954 144.678 91.2674C145.657 91.14 146.394 92.0235 146.161 92.1251Z" fill="#20180F"/>
<path fill-rule="evenodd" clip-rule="evenodd" d="M138.54 91.8793C138.54 91.8793 139.644 91.8637 140.091 92.193C140.091 92.193 140.255 92.2519 140.192 92.0338C140.192 92.0338 140.433 92.2093 140.449 92.1137C140.464 92.0175 140.016 91.1449 139.067 91.0169C138.119 90.8894 137.869 91.7056 138.54 91.8793Z" fill="#20180F"/>
<path fill-rule="evenodd" clip-rule="evenodd" d="M141.43 95.0954C141.43 95.0954 141.561 95.2023 141.43 95.3081C141.301 95.4151 140.446 95.117 140.251 94.8399C140.056 94.5629 140.171 94.5316 140.449 94.6909C140.727 94.8507 141.43 95.0954 141.43 95.0954Z" fill="#20180F"/>
<path fill-rule="evenodd" clip-rule="evenodd" d="M143.184 95.9579C143.184 95.9579 143.238 95.8623 142.773 95.8623C142.307 95.8623 142.351 95.947 141.593 95.9579C140.836 95.9687 140.525 95.9579 140.821 96.149C141.117 96.3413 141.095 96.3305 141.149 96.4795C141.203 96.6286 141.888 96.8948 142.428 96.7139C142.968 96.5324 143.519 96.0522 143.184 95.9579Z" fill="#EE4E2F"/>
<path fill-rule="evenodd" clip-rule="evenodd" d="M146.435 89.6116C146.352 89.5864 146.464 89.7535 146.088 89.6898C145.713 89.626 144.689 89.5125 143.765 90.0804C143.765 90.0804 143.6 89.9524 143.588 89.7114C143.578 89.4854 145.134 88.7119 146.457 89.5695C146.547 89.6278 146.519 89.6375 146.435 89.6116Z" fill="#20180F"/>
<path fill-rule="evenodd" clip-rule="evenodd" d="M138.54 89.6967C138.54 89.6967 139.089 89.1149 140.012 89.3841C140.936 89.6546 140.85 90.0657 140.821 90.1799C140.791 90.2929 140.128 89.7387 139.435 89.7465C138.742 89.7538 138.54 89.8956 138.54 89.6967Z" fill="#20180F"/>
<path fill-rule="evenodd" clip-rule="evenodd" d="M137.454 93.2232C137.454 93.2232 135.669 87.1489 138.396 84.5267C141.125 81.9033 145.861 79.2499 148.935 81.9965C152.009 84.7425 152.793 86.4085 153.326 88.5379C153.859 90.6667 154.361 92.9493 152.134 95.8191C152.134 95.8191 151.789 96.9917 151.256 97.3C150.723 97.6083 149.657 98.5958 149.657 98.5958C149.657 98.5958 150.566 98.8428 150.378 99.9228C150.378 99.9228 151.005 99.9228 151.224 100.385C151.444 100.848 151.695 101.404 152.417 101.496C153.138 101.589 153.671 101.249 154.456 102.206C155.239 103.163 155.709 103.811 155.208 103.995C155.208 103.995 154.204 103.44 153.953 103.44C153.953 103.44 146.394 107.111 139.808 103.44C139.808 103.44 140.937 102.144 141.094 101.99C141.251 101.836 141.721 101.712 141.721 101.712L142.443 100.077L142.035 99.213C142.035 99.213 146.079 98.2262 147.005 96.4051C147.931 94.5846 148.747 89.556 146.708 87.5192C144.67 85.4829 136.074 84.6715 137.454 92.6625V93.2232Z" fill="#FFBCBD"/>
<path fill-rule="evenodd" clip-rule="evenodd" d="M143.666 83.2612C144.23 83.6116 144.8 83.9488 145.354 84.3106C145.912 84.661 146.469 85.0204 146.977 85.4213C147.101 85.5216 147.227 85.6256 147.33 85.7338C147.448 85.8498 147.502 85.9243 147.574 86.0794C147.703 86.3654 147.817 86.6672 147.909 86.9743C148.098 87.5873 148.223 88.2202 148.304 88.8572C148.475 90.1302 148.444 91.4308 148.209 92.7001C147.981 93.9718 147.554 95.2099 147.006 96.4053C147.722 95.2977 148.248 94.0632 148.554 92.7686C148.87 91.4752 148.9 90.1236 148.758 88.7995C148.66 88.1396 148.516 87.4863 148.306 86.8511C148.202 86.5319 148.078 86.2212 147.931 85.9117C147.868 85.7686 147.728 85.5697 147.599 85.4663C147.466 85.3437 147.329 85.2458 147.19 85.1466C146.074 84.3869 144.883 83.8009 143.666 83.2612Z" fill="#CE6A62"/>
<path fill-rule="evenodd" clip-rule="evenodd" d="M148.623 89.9569C148.457 89.3745 148.162 88.842 147.799 88.3564C147.611 88.119 147.413 87.8852 147.17 87.6929C146.933 87.4994 146.669 87.3257 146.372 87.2397C146.838 87.6286 147.2 88.0703 147.556 88.5373C147.916 88.9983 148.246 89.4821 148.623 89.9569Z" fill="#CE6A62"/>
<path fill-rule="evenodd" clip-rule="evenodd" d="M141.062 83.6313C140.334 83.9523 139.679 84.4223 139.089 84.9578C138.495 85.4933 137.994 86.1322 137.601 86.8329C137.206 87.5325 136.96 88.3192 136.887 89.1138C136.78 89.9101 136.926 90.7094 137.143 91.4553C137.112 90.6734 137.063 89.9059 137.236 89.1624C137.385 88.4238 137.622 87.7014 138.004 87.0469C138.364 86.3828 138.826 85.7721 139.338 85.1994C139.596 84.9145 139.871 84.641 140.162 84.385C140.442 84.114 140.75 83.873 141.062 83.6313Z" fill="#CE6A62"/>
<path fill-rule="evenodd" clip-rule="evenodd" d="M140.373 86.2852C139.97 86.445 139.593 86.6578 139.229 86.8904C138.863 87.1218 138.526 87.3934 138.206 87.6879C137.891 87.9854 137.602 88.3208 137.39 88.7048C137.178 89.0829 137.027 89.5282 137.111 89.9567C137.157 89.53 137.353 89.1598 137.589 88.8268C137.833 88.4969 138.11 88.1862 138.418 87.9043C139.024 87.3267 139.696 86.8146 140.373 86.2852Z" fill="#CE6A62"/>
<path fill-rule="evenodd" clip-rule="evenodd" d="M151.727 90.2959C151.267 91.421 150.784 92.5238 150.222 93.587C149.941 94.1177 149.632 94.6322 149.305 95.137C148.967 95.6341 148.594 96.1059 148.182 96.5596C148.68 96.1984 149.111 95.7507 149.497 95.2711C149.877 94.7872 150.2 94.2638 150.493 93.7259C150.774 93.1825 151.026 92.6248 151.231 92.0508C151.437 91.4775 151.617 90.8945 151.727 90.2959Z" fill="#CE6A62"/>
<path fill-rule="evenodd" clip-rule="evenodd" d="M153.539 93.1685C153.125 93.7827 152.681 94.3687 152.207 94.9162C151.734 95.4763 151.196 95.9103 150.578 96.3274C149.377 97.1814 148.155 98.0192 147.005 98.9658C148.354 98.3179 149.624 97.5462 150.847 96.6928C151.147 96.4704 151.451 96.2582 151.74 95.992C152.019 95.727 152.268 95.4397 152.487 95.1338C152.931 94.5261 153.282 93.8626 153.539 93.1685Z" fill="#CE6A62"/>
<path fill-rule="evenodd" clip-rule="evenodd" d="M150.704 97.6938C150.055 98.0989 149.376 98.4475 148.678 98.7432C147.979 99.0353 147.26 99.2811 146.519 99.429C145.785 99.6117 145.025 99.6459 144.273 99.6249L143.706 99.5876L143.147 99.4897C142.764 99.453 142.414 99.2943 142.035 99.2132C142.727 99.5347 143.474 99.7968 144.255 99.8557C145.03 99.926 145.822 99.8869 146.584 99.7223C147.343 99.545 148.084 99.2955 148.777 98.9524C149.468 98.6068 150.129 98.1999 150.704 97.6938Z" fill="#CE6A62"/>
<path fill-rule="evenodd" clip-rule="evenodd" d="M150.272 99.5835C148.966 100.063 147.678 100.462 146.36 100.627C145.702 100.706 145.043 100.701 144.386 100.628C143.726 100.548 143.098 100.332 142.443 100.077C142.954 100.541 143.59 100.911 144.291 101.088C144.989 101.266 145.721 101.299 146.433 101.224C147.143 101.126 147.834 100.941 148.481 100.664C149.128 100.386 149.745 100.041 150.272 99.5835Z" fill="#CE6A62"/>
<path fill-rule="evenodd" clip-rule="evenodd" d="M153.956 101.738C152.93 101.564 151.808 101.638 150.815 101.984C149.83 102.246 148.815 102.431 147.799 102.538C145.765 102.757 143.703 102.699 141.69 102.113C142.602 102.627 143.634 102.948 144.686 103.095C145.739 103.251 146.812 103.243 147.867 103.136C148.921 103.011 149.963 102.795 150.964 102.428C151.911 102.017 152.902 101.802 153.956 101.738Z" fill="#CE6A62"/>
<path fill-rule="evenodd" clip-rule="evenodd" d="M59.864 94.851C59.864 94.851 60.6533 100.672 56.5832 102.749C56.5832 102.749 56.3058 108.412 64.3299 108.412C72.3541 108.412 68.2632 103.189 68.2632 103.189C68.2632 103.189 65.55 101.138 66.2428 98.6121C66.9356 96.0873 64.3379 89.8007 59.864 94.851Z" fill="#A15122"/>
<path fill-rule="evenodd" clip-rule="evenodd" d="M57.4085 89.8068C57.0987 89.6313 56.8268 89.6313 56.5159 89.7497C55.4767 90.1475 56.0247 91.4253 56.5733 92.2204C57.1219 93.015 57.2948 94.6623 58.9981 94.2927C58.9981 94.2927 59.0843 95.4004 59.8351 96.1955C60.5854 96.9906 63.9626 99.3189 64.9151 99.5173C65.8676 99.7162 67.1371 100.029 68.0896 99.5461C68.0896 99.5461 68.6382 98.9782 68.9846 97.7852C69.331 96.5928 69.5906 96.3656 69.7061 95.2868C69.8216 94.208 70.4276 91.7943 70.1393 90.6866C69.8503 89.5796 71.6905 81.1438 63.3346 81.3692C54.7344 81.6012 57.4567 89.8338 57.4085 89.8068Z" fill="#A15122"/>
<path fill-rule="evenodd" clip-rule="evenodd" d="M57.1755 91.3853C57.1755 91.3853 57.0698 91.2651 57.0734 91.4575C57.0777 91.6498 57.0288 91.7544 56.972 91.7381C56.9146 91.7225 56.6458 91.2609 57.049 91.0446C57.4528 90.8282 57.6728 91.2573 57.9624 91.7904C58.2513 92.3235 58.1414 93.0808 57.8603 93.109C57.5793 93.1373 57.6606 92.945 57.6887 92.5603C57.7174 92.1751 57.3221 91.4653 57.1755 91.3853Z" fill="#7A3710"/>
<path fill-rule="evenodd" clip-rule="evenodd" d="M62.4443 88.7173C62.4443 88.7173 62.6282 88.611 63.0724 88.6001C63.5159 88.5893 65.3237 88.7384 65.3561 88.6747C65.3885 88.611 65.3237 88.2594 65.3237 88.2594C65.3237 88.2594 65.0207 88.2167 65.0311 88.174C65.0421 88.1314 65.3885 87.9505 65.3885 87.9078C65.3885 87.8657 63.0504 87.3014 62.4443 88.7173Z" fill="#140C08"/>
<path fill-rule="evenodd" clip-rule="evenodd" d="M70.1296 88.5682C70.1296 88.5682 69.2962 88.5255 68.9175 88.6427C68.5387 88.7599 68.3542 88.7918 68.3218 88.7383C68.2894 88.6854 68.4409 88.4937 68.6034 88.4083C68.7659 88.323 68.4409 88.1956 68.7873 88.0465C69.1337 87.8975 69.989 87.9612 70.1076 88.2058L70.1296 88.5682Z" fill="#140C08"/>
<path fill-rule="evenodd" clip-rule="evenodd" d="M62.8877 90.8143C62.8877 90.8143 63.8078 90.7717 64.3057 90.8889C64.8036 91.0061 65.442 90.8781 65.442 90.8781C65.442 90.8781 64.9655 90.25 64.3491 90.25C63.732 90.25 63.126 90.4952 62.8877 90.8143Z" fill="#140C08"/>
<path fill-rule="evenodd" clip-rule="evenodd" d="M68.3105 90.9852C68.3105 90.9852 69.3608 90.6973 69.8691 90.7724C69.8691 90.7724 69.9882 90.6126 69.9344 90.5062C69.8801 90.3992 69.4903 90.1546 69.0791 90.2718C68.6673 90.389 68.4083 90.7189 68.3105 90.9852Z" fill="#140C08"/>
<path fill-rule="evenodd" clip-rule="evenodd" d="M66.6228 94.1898C66.6228 94.1898 66.9472 94.2114 67.1421 94.1153C67.337 94.0197 68.1923 93.9771 68.1923 93.9771C68.1923 93.9771 67.651 94.4242 67.3914 94.435C67.1317 94.4452 66.5684 94.328 66.6228 94.1898Z" fill="#7A3710"/>
<path fill-rule="evenodd" clip-rule="evenodd" d="M65.1074 95.7129C65.1074 95.7129 66.5688 96.4371 68.1059 95.7874C68.1059 95.7874 68.3435 95.6702 68.3435 95.8619C68.3435 96.0537 67.6941 96.3836 66.6879 96.3944C65.6811 96.4046 64.9559 96.1174 64.8044 95.8619C64.6528 95.6065 65.1074 95.7129 65.1074 95.7129Z" fill="#140C08"/>
<path fill-rule="evenodd" clip-rule="evenodd" d="M68.8746 96.6965C68.7665 96.8666 68.615 97.2392 68.0193 97.3245C67.4242 97.4099 67.6405 96.9627 67.2941 96.9201C66.9477 96.8774 66.4608 97.1436 66.2769 97.4207C66.093 97.6978 64.2204 97.5271 64.3066 96.9201C64.3066 96.9201 64.675 95.7914 65.3354 95.7697C65.9952 95.7487 66.9697 95.7487 67.4676 95.6105C67.9655 95.4716 68.8636 95.557 68.9284 95.8767C68.9937 96.1958 68.9827 96.5258 68.8746 96.6965ZM67.7383 94.9818C66.4858 95.1837 64.4001 94.2822 63.6529 96.8269C63.6529 96.8269 63.4042 97.6401 63.4073 98.2206C63.4103 98.7207 63.9608 99.2574 64.0249 99.2934C64.8143 99.7364 65.5242 100.033 65.8657 100.104C66.7235 100.283 67.8464 100.359 68.2466 99.9546C68.6473 99.5501 69.3401 98.5175 69.5998 97.3888C69.6896 96.997 69.6755 94.6699 67.7383 94.9818Z" fill="#492308"/>
<path fill-rule="evenodd" clip-rule="evenodd" d="M88.9882 174.29C88.9882 174.29 89.0102 174.886 88.4035 176.121C87.7974 177.357 87.5812 179.784 88.1225 180.252C88.1225 180.252 87.949 180.487 87.8628 180.529C87.7761 180.571 87.8194 181.402 87.8194 181.402C87.8194 181.402 90.4819 182.275 92.495 181.743C92.495 181.743 92.6465 181.253 92.5384 180.869C92.5384 180.869 94.0541 180.742 94.3571 180.913C94.6602 181.083 94.7463 181.977 96.8247 182.02C98.9032 182.062 104.402 181.956 104.747 180.401L104.575 180.295C104.575 180.295 104.553 179.443 103.86 179.187C103.168 178.932 97.4742 177.462 96.0018 174.268C94.53 171.074 89.2264 170.648 88.9882 174.29Z" fill="#422D18"/>
<path fill-rule="evenodd" clip-rule="evenodd" d="M91.7373 180.146C91.9047 179.672 92.1222 179.219 92.3495 178.767C92.589 178.322 92.906 177.923 93.2176 177.524C93.5359 177.128 93.8903 176.754 94.299 176.435C94.7053 176.12 95.1751 175.841 95.7207 175.759C95.761 175.753 95.8019 175.765 95.8325 175.787C96.488 176.264 97.1368 176.747 97.7716 177.253C98.0862 177.508 98.4076 177.763 98.6923 178.069C98.9507 178.344 99.2824 178.584 99.6166 178.703L99.6246 178.705C99.704 178.733 99.7455 178.819 99.7174 178.898C99.7125 178.91 99.7058 178.923 99.6985 178.933C99.5757 179.107 99.4553 179.289 99.3399 179.47C99.2372 179.66 99.1028 179.83 98.9825 180.01C98.8621 180.189 98.7497 180.374 98.6489 180.564C98.5511 180.755 98.4558 180.951 98.4265 181.168C98.4076 180.722 98.6037 180.301 98.7705 179.897C98.8621 179.696 98.9507 179.491 99.0808 179.312C99.1987 179.125 99.3197 178.943 99.4492 178.76L99.5311 178.991C99.0979 178.838 98.7631 178.58 98.4687 178.273C98.2041 177.988 97.8907 177.739 97.5791 177.486C96.9511 176.985 96.3035 176.503 95.6522 176.029L95.7634 176.057C95.2997 176.126 94.8696 176.374 94.489 176.671C94.1059 176.97 93.7644 177.328 93.4559 177.711C93.1388 178.09 92.8743 178.507 92.5865 178.911C92.2853 179.307 92.008 179.723 91.7373 180.146Z" fill="#040302"/>
<path fill-rule="evenodd" clip-rule="evenodd" d="M88.1293 180.24C88.4488 180.374 88.7928 180.448 89.1343 180.507C89.4758 180.568 89.8216 180.603 90.1674 180.622C90.5138 180.643 90.8608 180.62 91.2066 180.645C91.553 180.675 91.9 180.683 92.2556 180.749C92.2642 180.751 92.2697 180.758 92.2684 180.767C92.2672 180.773 92.2629 180.777 92.2574 180.778C91.9129 180.885 91.5591 180.921 91.2042 180.946C90.8486 180.96 90.4943 180.915 90.143 180.861C89.4422 180.761 88.7384 180.603 88.1146 180.266C88.1067 180.262 88.1043 180.252 88.1085 180.246C88.1122 180.238 88.122 180.237 88.1293 180.24Z" fill="#040302"/>
<path fill-rule="evenodd" clip-rule="evenodd" d="M93.4467 180.387C93.9184 180.357 94.3925 180.349 94.866 180.418C95.3394 180.521 95.775 180.66 96.2424 180.74C97.1631 180.917 98.0978 181.022 99.0332 181.045C99.9698 181.065 100.902 180.985 101.825 180.864C102.751 180.75 103.659 180.536 104.569 180.281C104.577 180.279 104.585 180.283 104.588 180.291C104.59 180.298 104.587 180.306 104.58 180.309C103.731 180.725 102.808 180.991 101.871 181.161C100.931 181.325 99.971 181.339 99.0234 181.285C98.0746 181.231 97.1332 181.095 96.2094 180.886C95.75 180.788 95.2912 180.622 94.8495 180.506C94.3925 180.42 93.9178 180.407 93.4486 180.417C93.44 180.417 93.4333 180.411 93.4327 180.402C93.4321 180.395 93.4388 180.387 93.4467 180.387Z" fill="#040302"/>
<path fill-rule="evenodd" clip-rule="evenodd" d="M98.5559 178.358C98.5284 178.358 98.5003 178.351 98.4747 178.335C98.4032 178.291 98.3818 178.198 98.427 178.128C98.4435 178.102 98.8345 177.501 99.4705 177.339C99.5542 177.32 99.6355 177.366 99.6569 177.446C99.6776 177.527 99.6288 177.608 99.5475 177.629C99.03 177.761 98.6885 178.283 98.6855 178.289C98.6561 178.334 98.6066 178.358 98.5559 178.358Z" fill="#040302"/>
<path fill-rule="evenodd" clip-rule="evenodd" d="M97.6036 177.612C97.5773 177.612 97.551 177.606 97.5266 177.592C97.4539 177.55 97.4295 177.458 97.4722 177.387C97.4863 177.363 97.8284 176.801 98.5994 176.801C98.6843 176.801 98.7522 176.869 98.7522 176.951C98.7522 177.034 98.6843 177.101 98.5994 177.101C98.008 177.101 97.7459 177.521 97.7356 177.539C97.7068 177.586 97.6555 177.612 97.6036 177.612Z" fill="#040302"/>
<path fill-rule="evenodd" clip-rule="evenodd" d="M96.8887 177.038C96.8625 177.038 96.8356 177.03 96.8111 177.017C96.7384 176.975 96.7146 176.882 96.758 176.81C96.7977 176.744 97.1612 176.163 97.6035 176.163C97.6878 176.163 97.7563 176.23 97.7563 176.313C97.7563 176.396 97.6878 176.463 97.6035 176.463C97.3995 176.463 97.1374 176.771 97.0201 176.964C96.9914 177.011 96.9407 177.038 96.8887 177.038Z" fill="#040302"/>
<path fill-rule="evenodd" clip-rule="evenodd" d="M96.0237 176.505C95.9901 176.505 95.9565 176.494 95.9284 176.472C95.8624 176.42 95.852 176.326 95.9045 176.261C95.9265 176.234 96.4556 175.588 96.9016 175.426C96.9798 175.396 97.0684 175.437 97.0977 175.516C97.127 175.593 97.0861 175.679 97.0073 175.708C96.7031 175.818 96.2803 176.28 96.1428 176.449C96.1129 176.486 96.0683 176.505 96.0237 176.505Z" fill="#040302"/>
<path fill-rule="evenodd" clip-rule="evenodd" d="M95.9479 175.067C95.3461 175.447 94.6759 176.02 94.8414 176.378C94.897 176.499 94.9502 176.492 94.9758 176.488C95.2599 176.45 95.7395 175.777 95.9479 175.067ZM94.9587 176.79C94.8408 176.79 94.674 176.741 94.5635 176.502C94.1914 175.697 95.9039 174.734 96.1006 174.627C96.1513 174.599 96.2148 174.602 96.2619 174.635C96.3101 174.668 96.3346 174.725 96.3254 174.781C96.191 175.623 95.5611 176.713 95.0174 176.786C94.9997 176.788 94.9801 176.79 94.9587 176.79Z" fill="#040302"/>
<path fill-rule="evenodd" clip-rule="evenodd" d="M96.765 174.7C97.4664 175.059 98.0944 175.287 98.2227 175.213C98.2203 175.21 98.2215 175.192 98.2129 175.156C98.1146 174.759 97.3503 174.69 96.765 174.7ZM98.1616 175.515C97.6282 175.515 96.6245 174.981 96.1632 174.718C96.1064 174.686 96.0771 174.622 96.0899 174.559C96.1027 174.496 96.1547 174.448 96.2194 174.438C96.4302 174.41 98.2893 174.191 98.5092 175.085C98.563 175.3 98.4689 175.407 98.4078 175.451C98.3479 175.496 98.263 175.515 98.1616 175.515Z" fill="#040302"/>
<path fill-rule="evenodd" clip-rule="evenodd" d="M95.5899 178.805C95.5185 178.805 95.4549 178.756 95.4403 178.685C95.2411 177.703 95.9327 175.127 95.962 175.017C95.984 174.938 96.0665 174.89 96.1496 174.911C96.2308 174.932 96.2791 175.014 96.2577 175.095C96.2504 175.121 95.5545 177.713 95.7402 178.626C95.7561 178.707 95.703 178.786 95.6199 178.802C95.6101 178.804 95.6003 178.805 95.5899 178.805Z" fill="#040302"/>
<path fill-rule="evenodd" clip-rule="evenodd" d="M83.5615 176.937C83.5615 176.937 81.7434 178.073 81.4837 179.578C81.2235 181.083 81.2797 182.45 81.2235 183.468C81.0432 186.748 80.4158 189.58 85.8709 189.318C92.3395 189.006 88.0355 184.121 88.0067 183.695C87.978 183.269 87.2272 179.89 86.9962 178.868C86.7653 177.846 84.6295 175.717 83.5615 176.937Z" fill="#422D18"/>
<path fill-rule="evenodd" clip-rule="evenodd" d="M81.2168 187.259C81.262 186.796 81.3915 186.345 81.5559 185.909C81.7184 185.471 81.9408 185.055 82.1961 184.66C82.7093 183.875 83.4229 183.196 84.2691 182.787C83.9221 183.101 83.5714 183.395 83.2775 183.745C82.9788 184.088 82.6947 184.441 82.4521 184.823C81.9499 185.578 81.5516 186.396 81.2168 187.259Z" fill="#040302"/>
<path fill-rule="evenodd" clip-rule="evenodd" d="M88.0069 183.695C87.6434 183.47 87.2927 183.292 86.9261 183.121C86.562 182.946 86.1881 182.797 85.8057 182.595C86.0232 182.58 86.237 182.604 86.4472 182.647C86.6585 182.688 86.8614 182.761 87.0575 182.85C87.2505 182.946 87.4387 183.054 87.6012 183.197C87.7637 183.338 87.9177 183.497 88.0069 183.695Z" fill="#040302"/>
<path fill-rule="evenodd" clip-rule="evenodd" d="M83.4897 182.468C83.4286 182.468 83.3705 182.432 83.3473 182.372C83.3168 182.295 83.3559 182.208 83.4347 182.178C83.4982 182.154 85.0115 181.589 86.5144 181.959C86.5963 181.98 86.6458 182.061 86.6256 182.142C86.6048 182.221 86.5218 182.274 86.4405 182.251C85.0347 181.905 83.5599 182.453 83.5446 182.458C83.5269 182.465 83.508 182.468 83.4897 182.468Z" fill="#040302"/>
<path fill-rule="evenodd" clip-rule="evenodd" d="M83.4024 181.531C83.3303 181.531 83.2668 181.481 83.2528 181.409C83.2369 181.327 83.2912 181.249 83.3743 181.234C83.4495 181.219 85.2255 180.892 86.2971 180.997C86.3808 181.006 86.4425 181.079 86.4333 181.162C86.4254 181.245 86.3496 181.3 86.2659 181.296C85.2408 181.193 83.4495 181.526 83.4312 181.528C83.4214 181.531 83.4122 181.531 83.4024 181.531Z" fill="#040302"/>
<path fill-rule="evenodd" clip-rule="evenodd" d="M84.0584 182.424C83.9711 182.295 83.9491 182.165 83.921 182.036C83.9014 181.906 83.935 181.777 83.9515 181.647C83.979 181.388 84.0145 181.129 84.0584 180.87H84.089C84.1336 181.129 84.169 181.388 84.1959 181.647C84.2124 181.777 84.2466 181.906 84.2264 182.036C84.1983 182.165 84.1764 182.295 84.089 182.424H84.0584Z" fill="#040302"/>
<path fill-rule="evenodd" clip-rule="evenodd" d="M85.8129 182.279C85.6938 182.18 85.6382 182.062 85.5789 181.944C85.527 181.825 85.5288 181.692 85.5154 181.564C85.4854 181.307 85.4616 181.046 85.4879 180.785L85.5184 180.784C85.5795 181.032 85.6718 181.269 85.7536 181.51C85.7988 181.629 85.8624 181.742 85.8746 181.869C85.8795 181.998 85.8917 182.126 85.8422 182.271L85.8129 182.279Z" fill="#040302"/>
<path fill-rule="evenodd" clip-rule="evenodd" d="M56.5695 150.913C61.8853 153.559 70.0103 153.623 76.672 151.291C76.672 151.291 74.7506 160.301 76.928 165.91C79.1054 171.518 81.0915 180.15 81.0274 180.528C81.0274 180.528 84.9985 182.292 87.4325 179.331C87.4325 179.331 84.9344 168.998 85.7671 161.877C86.5998 154.757 86.9199 147.448 86.9199 147.448L89.5464 147.385C89.5464 147.385 87.1124 157.844 88.0092 164.65C88.9055 171.455 88.3294 174.857 88.3294 174.857C88.3294 174.857 93.7735 176.684 96.0798 174.606C96.0798 174.606 96.0798 156.584 99.154 147.448C102.228 138.311 99.6025 138.185 97.2326 137.366C94.8622 136.547 80.9712 133.765 74.7225 134.147C68.4731 134.53 55.4063 129.466 53.1648 133.561C51.8903 143.365 53.0253 149.149 56.5695 150.913Z" fill="#8BB0C4"/>
<path fill-rule="evenodd" clip-rule="evenodd" d="M60.8516 137.429C63.0094 137.301 65.1715 137.229 67.3337 137.212C69.4964 137.184 71.6604 137.205 73.8225 137.295C75.9846 137.382 78.1492 137.505 80.3015 137.779C81.3774 137.916 82.4514 138.078 83.5163 138.306C84.5769 138.54 85.6448 138.82 86.6223 139.362L86.6602 139.383L86.6767 139.411C87.0543 140.046 87.2235 140.708 87.3536 141.386C87.477 142.062 87.5192 142.747 87.5088 143.427C87.5045 144.11 87.4251 144.786 87.3353 145.458L87.1563 146.46L86.9205 147.448L87.0903 146.448L87.218 145.444C87.2748 144.773 87.3206 144.101 87.2913 143.429C87.273 142.76 87.2168 142.09 87.0763 141.438C86.9376 140.796 86.7305 140.132 86.3957 139.606L86.45 139.655C85.522 139.183 84.4743 138.917 83.4308 138.694C82.3818 138.481 81.3169 138.33 80.249 138.205C78.1101 137.971 75.9589 137.811 73.8041 137.706C69.494 137.517 65.1746 137.437 60.8516 137.429Z" fill="#788893"/>
<path fill-rule="evenodd" clip-rule="evenodd" d="M65.0146 151.669C66.0966 151.088 67.1945 150.546 68.2924 150.004L71.5969 148.404L74.9113 146.83C75.4654 146.571 76.0134 146.301 76.5553 146.021C77.1028 145.748 77.6459 145.471 78.1456 145.116C77.2396 145.949 76.1369 146.531 75.075 147.137C74.0028 147.736 72.9019 148.277 71.7967 148.809C70.6879 149.332 69.5723 149.843 68.4402 150.316C67.31 150.794 66.1742 151.258 65.0146 151.669Z" fill="#788893"/>
<path fill-rule="evenodd" clip-rule="evenodd" d="M82.7539 144.653C81.9444 145.428 81.086 146.146 80.213 146.848C79.3436 147.555 78.437 148.214 77.5175 148.858C76.5937 149.495 75.6462 150.102 74.6577 150.644C73.6722 151.183 72.6526 151.699 71.5547 151.979C72.5835 151.524 73.5354 150.944 74.4762 150.347C75.411 149.742 76.342 149.13 77.2548 148.489L80.0004 146.574C80.9143 145.931 81.8252 145.283 82.7539 144.653Z" fill="#788893"/>
<path fill-rule="evenodd" clip-rule="evenodd" d="M83.1574 144.937C82.6161 145.612 82.0253 146.242 81.418 146.856C80.8144 147.474 80.1741 148.056 79.5198 148.624C78.8551 149.18 78.1745 149.721 77.4457 150.2C76.715 150.663 75.9446 151.138 75.0752 151.297C75.4766 151.123 75.8505 150.923 76.1999 150.672C76.5586 150.44 76.8989 150.18 77.2379 149.92C77.9057 149.384 78.568 148.841 79.2198 148.283L81.1773 146.605C81.8322 146.046 82.4823 145.481 83.1574 144.937Z" fill="#788893"/>
<path fill-rule="evenodd" clip-rule="evenodd" d="M84.8318 148.117C84.1592 149.913 83.4071 151.672 82.7021 153.45C82.3288 154.331 81.9806 155.221 81.6268 156.109C81.2755 156.997 80.9279 157.887 80.6182 158.794C80.8057 157.853 81.1002 156.938 81.4063 156.029C81.7148 155.121 82.0673 154.23 82.4186 153.339C83.1591 151.57 83.9282 149.813 84.8318 148.117Z" fill="#788893"/>
<path fill-rule="evenodd" clip-rule="evenodd" d="M96.3771 148.515C95.3238 149.987 94.2119 151.409 93.1488 152.867C92.5996 153.583 92.0785 154.318 91.5561 155.051C91.0356 155.787 90.5255 156.528 90.085 157.318C90.4112 156.473 90.8786 155.689 91.36 154.924C91.8451 154.16 92.3705 153.422 92.9026 152.69C93.4537 151.972 94.0017 151.252 94.5821 150.556C95.1613 149.86 95.7508 149.172 96.3771 148.515Z" fill="#788893"/>
<path fill-rule="evenodd" clip-rule="evenodd" d="M89.1611 145.903C89.4776 145.39 89.8436 144.913 90.2254 144.448C90.6054 143.981 91.0178 143.54 91.4522 143.12C91.892 142.705 92.346 142.301 92.8518 141.96C93.3528 141.618 93.8862 141.305 94.4721 141.132C93.9381 141.419 93.4573 141.771 92.9942 142.144C92.5341 142.519 92.0937 142.921 91.666 143.335C90.8027 144.157 89.9932 145.032 89.1611 145.903Z" fill="#788893"/>
<path fill-rule="evenodd" clip-rule="evenodd" d="M97.1848 141.189C96.6007 141.803 95.9745 142.37 95.3336 142.922C94.6909 143.475 94.0299 143.999 93.3004 144.467C92.5844 144.88 91.9618 145.427 91.3124 145.962L89.3916 147.607C89.9054 146.935 90.4736 146.309 91.0717 145.709C91.6661 145.112 92.3107 144.529 93.0573 144.086C93.7556 143.651 94.427 143.135 95.1143 142.652C95.7973 142.159 96.4785 141.661 97.1848 141.189Z" fill="#788893"/>
<path fill-rule="evenodd" clip-rule="evenodd" d="M89.9121 147.72C90.6061 146.947 91.4046 146.295 92.2404 145.691C92.662 145.395 93.0951 145.111 93.5503 144.861C94.0005 144.607 94.482 144.383 94.9921 144.255C94.5577 144.542 94.1588 144.856 93.7452 145.155L92.5086 146.056C91.6716 146.643 90.8304 147.224 89.9121 147.72Z" fill="#788893"/>
<path fill-rule="evenodd" clip-rule="evenodd" d="M97.7571 130.577C95.1031 130.092 92.9856 130.071 89.6285 128.066C87.9111 127.041 85.2932 125.374 82.0607 124.238C79.4453 123.319 78.5283 120.694 77.263 120.303C76.9948 120.22 77.0089 126.439 77.9906 127.929C79.0011 129.463 79.0677 129.95 80.4155 130.485C85.0366 132.318 90.7984 132.144 93.6955 133.4C94.1769 133.609 94.0407 133.695 94.4293 134.185C95.2235 135.187 97.9446 134.587 99.2801 135.294C99.5661 135.875 99.5801 137.485 100.638 137.369L100.715 137.291L100.704 136.801C100.704 136.801 101.321 136.971 101.644 136.826C101.644 136.826 101.715 136.759 101.717 136.692C101.719 136.643 101.453 136.175 101.295 135.901C102.142 136.549 102.693 136.351 102.888 136.127C102.982 136.019 102.218 135.059 102.218 135.059C103.747 135.848 103.774 135.183 103.702 134.89C103.629 134.596 102.258 133.237 101.703 132.568C101.164 131.918 100.411 131.062 97.7571 130.577Z" fill="#A15122"/>
<path fill-rule="evenodd" clip-rule="evenodd" d="M43.118 111.943C43.118 111.943 38.3746 125.961 38.3789 126.262C38.3838 126.563 39.3424 134.346 41.1324 138.264C42.518 141.299 42.3372 144.409 42.3372 144.409C42.3372 144.409 43.8352 144.402 45.227 143.898C45.9143 143.649 47.0457 142.727 47.0127 142.715C47.0127 142.715 45.3247 140.849 45.6351 135.851C45.8471 132.432 45.3834 130.016 45.2019 126.019C45.2019 126.019 48.2792 120.545 48.9928 116.421C49.7064 112.297 46.48 107.556 43.118 111.943Z" fill="#A15122"/>
<path fill-rule="evenodd" clip-rule="evenodd" d="M100.705 136.801C100.406 136.693 100.185 136.441 100.025 136.177C99.9562 136.036 99.8902 135.893 99.8572 135.741C99.8194 135.591 99.8108 135.436 99.8157 135.283C100.003 135.864 100.248 136.386 100.705 136.801Z" fill="#7A3710"/>
<path fill-rule="evenodd" clip-rule="evenodd" d="M100.538 135.064C100.811 135.341 101.063 135.583 101.295 135.902C101.105 135.833 100.958 135.703 100.819 135.569C100.694 135.423 100.574 135.26 100.538 135.064Z" fill="#7A3710"/>
<path fill-rule="evenodd" clip-rule="evenodd" d="M99.2796 135.294C99.527 135.278 99.7732 135.249 100.007 135.199C100.235 135.157 100.489 135.012 100.407 134.935C100.367 134.777 100.203 134.575 100.043 134.415C99.8789 134.25 99.6944 134.097 99.502 133.964C99.4067 133.899 99.3053 133.836 99.21 133.796C99.1379 133.762 98.9906 133.739 98.8758 133.705C98.6345 133.643 98.3962 133.575 98.1585 133.501C97.9209 133.427 97.6844 133.349 97.4492 133.255C97.3319 133.209 97.2152 133.159 97.0961 133.094C97.0362 133.057 96.9776 133.028 96.9085 132.955C96.8804 132.927 96.8114 132.837 96.8548 132.72C96.903 132.621 96.9684 132.613 97.0338 132.58C97.3448 132.535 97.5726 132.581 97.8286 132.608C98.0767 132.644 98.3223 132.684 98.566 132.732C99.0542 132.828 99.5362 132.936 100.019 133.077C100.145 133.119 100.247 133.139 100.405 133.225C100.556 133.336 100.595 133.419 100.688 133.513C100.847 133.697 101.012 133.872 101.18 134.045C101.482 134.42 101.819 134.768 102.218 135.059C101.755 134.874 101.347 134.57 100.96 134.254C100.784 134.079 100.62 133.893 100.457 133.71C100.382 133.629 100.283 133.5 100.233 133.473C100.175 133.442 100.037 133.396 99.929 133.364C99.4659 133.228 98.9864 133.12 98.5074 133.027C98.0424 132.944 97.5103 132.836 97.1095 132.871C97.1266 132.871 97.1163 132.873 97.1395 132.829C97.1596 132.77 97.1248 132.743 97.1383 132.757C97.1517 132.774 97.2018 132.808 97.2476 132.832C97.3435 132.886 97.4535 132.933 97.5641 132.978C97.7865 133.066 98.018 133.142 98.2502 133.214C98.4829 133.286 98.7181 133.353 98.9534 133.415C99.0743 133.451 99.1757 133.457 99.3303 133.52C99.4611 133.576 99.5692 133.645 99.6761 133.718C99.8869 133.863 100.082 134.024 100.262 134.205C100.434 134.397 100.625 134.564 100.71 134.881C100.72 134.97 100.7 135.086 100.631 135.159C100.568 135.237 100.492 135.266 100.425 135.293C100.286 135.34 100.157 135.351 100.029 135.357C99.7726 135.365 99.524 135.34 99.2796 135.294Z" fill="#7A3710"/>
<path fill-rule="evenodd" clip-rule="evenodd" d="M42.3359 144.406C42.3359 144.406 42.3836 149.805 42.3836 150.291C42.3836 150.778 43.3715 153.641 43.4246 153.919C43.4778 154.197 44.0423 154.249 44.148 154.144C44.2537 154.04 44.3948 153.624 44.3948 153.624C44.3948 153.624 44.66 154.544 44.8713 154.648C45.0833 154.752 45.401 154.995 45.5422 154.978C45.6833 154.961 45.8244 154.613 45.7187 154.128C45.7187 154.128 46.2124 155.03 46.5832 155.203C46.9534 155.377 47.4477 155.377 47.43 155.117C47.4123 154.857 47.3768 154.7 47.3768 154.7C47.3768 154.7 48.1356 154.873 48.2065 154.509C48.2767 154.144 48.2767 152.374 47.9597 151.246C47.642 150.118 48.0122 148.191 47.6945 147.688C47.6945 147.688 48.5065 150.048 49.4241 149.996C50.3417 149.944 50.2709 149.597 50.2177 149.51C50.1646 149.423 49.2298 148.382 49.283 147.601C49.3355 146.82 49.1944 146.785 49.1589 146.455C49.1235 146.125 49.3709 146.125 48.7178 145.275C48.0647 144.424 46.9913 142.738 46.9913 142.738L46.3596 143.205C45.5134 143.832 44.5048 144.21 43.4497 144.297L42.3359 144.406Z" fill="#A15122"/>
<path fill-rule="evenodd" clip-rule="evenodd" d="M47.3773 154.7C47.1665 154.216 46.9906 153.722 46.8219 153.225C46.6521 152.728 46.503 152.228 46.3753 151.713C46.3472 151.594 46.3149 151.426 46.3167 151.301L46.2984 150.91L46.2672 150.13C46.2403 149.61 46.2287 149.09 46.1475 148.572C46.3527 149.063 46.4254 149.592 46.5012 150.11C46.5415 150.37 46.5611 150.631 46.5873 150.893L46.6148 151.285C46.6173 151.422 46.6429 151.51 46.6729 151.646C46.9166 152.653 47.1946 153.665 47.3773 154.7Z" fill="#7A3710"/>
<path fill-rule="evenodd" clip-rule="evenodd" d="M44.415 148.764C44.58 149.17 44.7089 149.588 44.8195 150.01C44.8775 150.221 44.9246 150.435 44.9637 150.652C45.0022 150.872 45.0339 151.085 45.0199 151.336L45.0144 151.278C45.1579 151.745 45.2924 152.215 45.4109 152.689C45.527 153.165 45.6412 153.64 45.7182 154.128C45.5117 153.679 45.3437 153.218 45.1763 152.758C45.0125 152.296 44.8635 151.831 44.7248 151.362L44.7168 151.334L44.7199 151.303C44.7358 151.121 44.7071 150.901 44.6863 150.692L44.5995 150.054C44.5348 149.627 44.4664 149.199 44.415 148.764Z" fill="#7A3710"/>
<path fill-rule="evenodd" clip-rule="evenodd" d="M43.0732 148.828C43.2278 149.195 43.3488 149.574 43.449 149.959C43.5553 150.343 43.6335 150.732 43.6567 151.145L43.6494 151.104C43.7935 151.528 43.9261 151.956 44.0453 152.39C44.1601 152.824 44.2737 153.258 44.3501 153.705C44.1454 153.299 43.9774 152.882 43.8113 152.464C43.6481 152.046 43.5003 151.622 43.3628 151.195L43.3561 151.176L43.3549 151.153C43.3164 150.397 43.1545 149.615 43.0732 148.828Z" fill="#7A3710"/>
<path fill-rule="evenodd" clip-rule="evenodd" d="M82.104 123.095C82.2335 122.69 81.6061 122.881 81.5193 122.307C81.4332 121.732 81.9739 121.647 81 120.88C80.0256 120.114 78.9864 110.701 75.9127 107.357C75.9127 107.357 75.0684 106.527 73.3797 105.483C71.6911 104.44 69.6133 103.567 69.0286 102.374C68.4439 101.182 66.3667 100.571 66.2805 100.379C66.2805 100.379 66.6789 101.629 66.2372 102.642C65.856 103.517 65.4137 104.397 62.6858 104.163C60.4687 103.973 58.795 101.826 59.0284 100.076C59.0345 100.069 59.4069 99.1655 59.4069 99.1655C59.4069 99.1655 58.5656 99.1091 57.6999 99.7053C56.8336 100.302 49.82 103.908 48.4924 104.788C47.1648 105.668 43.9317 108.707 42.5467 113.193C41.1611 117.679 38.4192 124.124 38.217 125.402C38.0147 126.68 38.1015 128.866 38.5634 129.15C38.5634 129.15 38.7363 129.377 39.1047 129.214C39.4725 129.051 40.252 128.22 42.4312 128.845C44.6105 129.469 44.9996 129.74 45.5196 129.299C46.0389 128.859 45.2452 127.063 45.2452 127.063C45.2452 127.063 45.635 126.183 45.7939 125.97C45.9521 125.757 45.346 125.345 45.9955 125.16C46.6449 124.976 45.9955 124.948 46.6162 123.869C47.2369 122.789 48.6946 119.425 48.7954 119.241C48.8962 119.056 48.983 120.873 49.3441 121.64C49.7045 122.406 53.9622 130.25 52.923 133.786C52.923 133.786 52.5118 134.296 52.6847 134.723C52.8582 135.149 57.6205 136.618 61.8635 136.277C66.1065 135.936 67.7731 136.17 70.5224 135.17C73.2716 134.169 74.722 134.147 74.722 134.147C74.722 134.147 73.7475 130.612 73.7048 128.078C73.6614 125.544 73.9858 122.562 73.9858 122.562C73.9858 122.562 75.0464 124.415 75.5229 124.884C75.9989 125.352 76.9947 126.95 77.3631 127.887C77.7309 128.824 79.1813 130.122 79.2894 129.845C79.3975 129.568 78.7053 126.992 80.3506 125.565C81.9953 124.138 83.0778 124.927 82.082 123.67C82.082 123.67 81.9739 123.5 82.104 123.095Z" fill="#B9D0FF"/>
<path fill-rule="evenodd" clip-rule="evenodd" d="M56.4219 100.97C56.731 100.734 57.0597 100.525 57.4092 100.345C57.5833 100.254 57.7562 100.15 57.9547 100.109C58.1527 100.078 58.3598 100.051 58.5644 100.116L58.5675 100.146C58.3873 100.252 58.2168 100.317 58.0458 100.397C57.8747 100.469 57.6884 100.507 57.5069 100.565C57.1477 100.69 56.7903 100.835 56.4384 100.996L56.4219 100.97Z" fill="#5D74E0"/>
<path fill-rule="evenodd" clip-rule="evenodd" d="M56.9697 101.822C57.2251 101.615 57.486 101.414 57.7517 101.221C57.8825 101.121 58.0053 101.008 58.155 100.939C58.3095 100.877 58.4604 100.81 58.6443 100.8L58.6596 100.826C58.5643 100.985 58.436 101.088 58.3114 101.197C58.1824 101.299 58.026 101.355 57.8782 101.427C57.5856 101.573 57.288 101.713 56.9856 101.847L56.9697 101.822Z" fill="#5D74E0"/>
<path fill-rule="evenodd" clip-rule="evenodd" d="M57.2852 103.13C57.4862 102.894 57.6896 102.662 57.8943 102.434C57.9945 102.317 58.0806 102.189 58.2022 102.096C58.3293 102.007 58.449 101.918 58.6109 101.854L58.6353 101.872C58.6066 102.048 58.5089 102.179 58.4197 102.307C58.3231 102.431 58.1869 102.515 58.0629 102.608C57.8185 102.799 57.5656 102.981 57.3053 103.152L57.2852 103.13Z" fill="#5D74E0"/>
<path fill-rule="evenodd" clip-rule="evenodd" d="M59.0963 102.584C58.9222 102.823 58.7597 103.069 58.6082 103.315C58.5337 103.44 58.4824 103.576 58.3895 103.686C58.2899 103.793 58.2038 103.904 58.0608 103.999L58.0327 103.986C58.018 103.817 58.0724 103.671 58.1292 103.528C58.194 103.389 58.3076 103.282 58.4115 103.172C58.6137 102.948 58.8349 102.744 59.075 102.562L59.0963 102.584Z" fill="#5D74E0"/>
<path fill-rule="evenodd" clip-rule="evenodd" d="M58.7246 104.84C58.8083 104.511 58.9348 104.196 59.0881 103.892C59.1627 103.739 59.228 103.577 59.3453 103.449C59.4663 103.326 59.5915 103.205 59.7663 103.131L59.7901 103.15C59.751 103.334 59.6667 103.474 59.5946 103.624C59.5152 103.767 59.3979 103.884 59.2971 104.016C59.104 104.282 58.9171 104.558 58.7533 104.85L58.7246 104.84Z" fill="#5D74E0"/>
<path fill-rule="evenodd" clip-rule="evenodd" d="M60.3404 103.742C60.2775 104.062 60.2036 104.38 60.1175 104.695C60.0771 104.854 60.0521 105.018 59.9727 105.164C59.8859 105.305 59.8047 105.456 59.6464 105.562L59.6201 105.547C59.6189 105.368 59.6537 105.215 59.6886 105.056C59.7283 104.9 59.8163 104.76 59.8877 104.614C60.024 104.32 60.1651 104.025 60.3117 103.732L60.3404 103.742Z" fill="#5D74E0"/>
<path fill-rule="evenodd" clip-rule="evenodd" d="M60.9475 104.193C60.9621 104.523 60.9633 104.853 60.9469 105.183C60.9414 105.349 60.9511 105.517 60.901 105.68C60.8399 105.834 60.7923 106.012 60.6267 106.132L60.6023 106.113C60.5962 105.944 60.5943 105.789 60.6004 105.626C60.6096 105.466 60.667 105.311 60.7049 105.152L60.9169 104.19L60.9475 104.193Z" fill="#5D74E0"/>
<path fill-rule="evenodd" clip-rule="evenodd" d="M61.8713 104.446C61.9208 104.764 61.9556 105.083 61.9727 105.404C61.9844 105.564 62.0106 105.727 61.9782 105.887C61.9379 106.046 61.9007 106.209 61.7846 106.352L61.7546 106.347C61.6972 106.177 61.6893 106.023 61.674 105.865C61.6654 105.709 61.707 105.554 61.7284 105.396L61.8408 104.447L61.8713 104.446Z" fill="#5D74E0"/>
<path fill-rule="evenodd" clip-rule="evenodd" d="M62.5644 104.617C62.6322 104.945 62.6921 105.273 62.7428 105.602C62.7715 105.766 62.818 105.929 62.8094 106.095C62.7935 106.263 62.7838 106.431 62.7086 106.604L62.6787 106.607C62.5791 106.449 62.5449 106.285 62.5052 106.121C62.4734 105.956 62.4954 105.788 62.4997 105.621C62.5021 105.287 62.5137 104.953 62.5339 104.619L62.5644 104.617Z" fill="#5D74E0"/>
<path fill-rule="evenodd" clip-rule="evenodd" d="M63.458 104.643C63.5723 104.929 63.681 105.215 63.7855 105.502C63.8405 105.644 63.9126 105.782 63.9358 105.932C63.9523 106.084 63.9712 106.231 63.948 106.401L63.9199 106.413C63.7776 106.301 63.7128 106.154 63.6419 106.014C63.579 105.872 63.5723 105.714 63.5485 105.563C63.4965 105.26 63.4568 104.956 63.4287 104.65L63.458 104.643Z" fill="#5D74E0"/>
<path fill-rule="evenodd" clip-rule="evenodd" d="M64.8136 104.555C64.9792 104.811 65.1374 105.072 65.2877 105.338C65.3659 105.469 65.4606 105.595 65.5046 105.741C65.5419 105.889 65.584 106.035 65.5645 106.203L65.5364 106.213C65.3916 106.106 65.3091 105.978 65.2211 105.851C65.1399 105.722 65.1093 105.573 65.0623 105.43C64.9627 105.147 64.8711 104.86 64.7861 104.567L64.8136 104.555Z" fill="#5D74E0"/>
<path fill-rule="evenodd" clip-rule="evenodd" d="M65.8229 104.069L66.4687 104.754C66.5774 104.866 66.7002 104.967 66.7833 105.095C66.8639 105.229 66.9403 105.355 67.0026 105.514L66.9849 105.538C66.7998 105.505 66.6739 105.389 66.5493 105.288C66.4302 105.179 66.3587 105.034 66.275 104.901C66.1027 104.637 65.9445 104.365 65.7979 104.087L65.8229 104.069Z" fill="#5D74E0"/>
<path fill-rule="evenodd" clip-rule="evenodd" d="M66.4829 103.412C66.745 103.535 67.0047 103.661 67.26 103.788C67.3902 103.85 67.5282 103.894 67.6401 103.981C67.7494 104.074 67.8563 104.159 67.9516 104.291L67.9406 104.319C67.7702 104.343 67.6266 104.288 67.4867 104.24C67.3499 104.184 67.2435 104.081 67.1299 103.992C66.9002 103.817 66.6784 103.632 66.4658 103.437L66.4829 103.412Z" fill="#5D74E0"/>
<path fill-rule="evenodd" clip-rule="evenodd" d="M66.8577 102.39C67.121 102.495 67.3794 102.607 67.6336 102.726C67.7619 102.782 67.8987 102.824 68.0087 102.912C68.115 103.006 68.2237 103.096 68.3007 103.242L68.2855 103.268C68.1217 103.272 67.9904 103.22 67.8554 103.172C67.7246 103.118 67.6214 103.018 67.5096 102.932C67.2823 102.768 67.0599 102.595 66.8418 102.416L66.8577 102.39Z" fill="#5D74E0"/>
<path fill-rule="evenodd" clip-rule="evenodd" d="M66.9147 101.311C67.1682 101.416 67.4187 101.528 67.6655 101.649C67.7902 101.706 67.9252 101.749 68.0303 101.838C68.1311 101.931 68.2349 102.021 68.3009 102.163L68.2838 102.188C68.1189 102.188 67.9918 102.136 67.8616 102.088C67.7358 102.033 67.6399 101.935 67.5336 101.851C67.3185 101.687 67.1071 101.516 66.8994 101.337L66.9147 101.311Z" fill="#5D74E0"/>
<path fill-rule="evenodd" clip-rule="evenodd" d="M48.7959 119.24C48.8118 118.683 48.9016 118.13 49.0452 117.588C49.1863 117.046 49.3946 116.509 49.7331 116.032C50.0929 115.578 50.4454 115.17 50.8199 114.751C51.192 114.337 51.5677 113.925 51.971 113.533C51.6679 114.002 51.3374 114.451 51.0026 114.897C50.6758 115.343 50.308 115.785 49.9811 116.208C49.6689 116.635 49.4575 117.143 49.2682 117.655C49.0824 118.17 48.9358 118.702 48.7959 119.24Z" fill="#5D74E0"/>
<path fill-rule="evenodd" clip-rule="evenodd" d="M54.1783 113.661C53.2246 114.416 52.2831 115.167 51.3893 115.97C50.4949 116.774 49.6518 117.621 48.9395 118.602C49.1887 118.05 49.5357 117.543 49.9157 117.066C50.2994 116.592 50.7344 116.161 51.1834 115.748C51.6404 115.344 52.1164 114.962 52.6179 114.614C53.1183 114.266 53.6315 113.936 54.1783 113.661Z" fill="#5D74E0"/>
<path fill-rule="evenodd" clip-rule="evenodd" d="M41.0166 121.37C41.4162 121.128 41.919 121.045 42.3998 121.12C42.6423 121.154 42.8739 121.241 43.0944 121.345C43.3113 121.463 43.5019 121.593 43.6919 121.729C44.0676 122.003 44.4269 122.297 44.7635 122.613C45.1014 122.929 45.4282 123.255 45.7215 123.613C44.9645 123.077 44.2515 122.503 43.5111 121.971C43.1421 121.691 42.7828 121.458 42.3521 121.346C41.9281 121.233 41.4626 121.244 41.0166 121.37Z" fill="#5D74E0"/>
<path fill-rule="evenodd" clip-rule="evenodd" d="M44.5957 123.216C44.8382 123.379 45.0368 123.583 45.2354 123.788C45.4162 124.006 45.6196 124.217 45.7211 124.494C45.627 124.385 45.5164 124.296 45.418 124.194L45.1223 123.888C44.9378 123.673 44.7466 123.463 44.5957 123.216Z" fill="#5D74E0"/>
<path fill-rule="evenodd" clip-rule="evenodd" d="M42.9512 124.294C43.3581 124.492 43.7387 124.724 44.1303 124.937C44.3209 125.052 44.517 125.156 44.7119 125.263C44.9086 125.367 45.1029 125.474 45.318 125.544C44.8573 125.505 44.4498 125.273 44.0539 125.067C43.6672 124.837 43.2878 124.595 42.9512 124.294Z" fill="#5D74E0"/>
<path fill-rule="evenodd" clip-rule="evenodd" d="M43.0945 125.8C42.2569 125.733 41.4211 125.634 40.586 125.53C40.1669 125.483 39.752 125.416 39.3354 125.358C39.2792 125.348 39.2394 125.348 39.1704 125.331C39.1362 125.321 39.0849 125.306 39.0329 125.249C38.9621 125.175 38.9963 125.045 39.0274 125.015C39.1545 124.864 39.2553 124.852 39.3659 124.802C39.5816 124.727 39.7991 124.689 40.0166 124.668C40.8884 124.611 41.7467 124.795 42.5336 125.113C43.3218 125.435 44.0421 125.887 44.6823 126.425C43.9681 125.989 43.2313 125.596 42.4499 125.329C41.6728 125.065 40.8499 124.891 40.0434 124.967C39.8437 124.982 39.6445 125.013 39.463 125.072C39.3818 125.096 39.2718 125.156 39.2663 125.167C39.2633 125.177 39.2902 125.108 39.2529 125.075C39.237 125.056 39.2346 125.062 39.2511 125.066C39.2828 125.075 39.3488 125.083 39.3958 125.092C39.8076 125.161 40.2212 125.222 40.6312 125.304C41.4529 125.455 42.2752 125.611 43.0945 125.8Z" fill="#5D74E0"/>
<path fill-rule="evenodd" clip-rule="evenodd" d="M40.6416 125.941C41.4377 125.962 42.2252 126.101 42.9998 126.279C43.7708 126.47 44.5327 126.714 45.2457 127.063C44.4863 126.83 43.7342 126.598 42.9638 126.424C42.582 126.325 42.1946 126.245 41.8085 126.164C41.4212 126.086 41.0332 126.008 40.6416 125.941Z" fill="#5D74E0"/>
<path fill-rule="evenodd" clip-rule="evenodd" d="M38.8079 126.31C38.9038 126.727 38.9912 127.144 39.0706 127.561C39.1128 127.77 39.1726 127.975 39.1787 128.188C39.1769 128.403 39.1818 128.617 39.1213 128.844L39.0914 128.849C38.979 128.653 38.9313 128.445 38.8775 128.238C38.8317 128.028 38.8384 127.811 38.8287 127.597C38.803 127.169 38.7859 126.741 38.7773 126.313L38.8079 126.31Z" fill="#5D74E0"/>
<path fill-rule="evenodd" clip-rule="evenodd" d="M39.4518 126.163C39.5459 126.541 39.6327 126.919 39.7139 127.297C39.7573 127.485 39.819 127.672 39.8288 127.864C39.8324 128.058 39.8361 128.25 39.7982 128.452L39.7695 128.461C39.6339 128.288 39.5856 128.097 39.527 127.91C39.4769 127.72 39.4824 127.524 39.472 127.33C39.4439 126.943 39.428 126.556 39.4219 126.167L39.4518 126.163Z" fill="#5D74E0"/>
<path fill-rule="evenodd" clip-rule="evenodd" d="M40.195 126.211C40.3153 126.543 40.4271 126.876 40.531 127.213C40.5854 127.38 40.6575 127.545 40.6764 127.719C40.688 127.896 40.7045 128.071 40.6575 128.259L40.6275 128.265C40.5029 128.111 40.443 127.945 40.377 127.78C40.3196 127.614 40.3141 127.436 40.2915 127.263C40.2414 126.917 40.1993 126.568 40.165 126.218L40.195 126.211Z" fill="#5D74E0"/>
<path fill-rule="evenodd" clip-rule="evenodd" d="M41.318 126.374C41.406 126.677 41.4848 126.98 41.5563 127.285C41.5942 127.437 41.6498 127.586 41.6522 127.742C41.6467 127.901 41.6467 128.058 41.5826 128.226L41.552 128.232C41.4439 128.091 41.3999 127.94 41.3504 127.789C41.3082 127.638 41.3199 127.478 41.3144 127.321C41.2972 127.007 41.2881 126.693 41.2881 126.379L41.318 126.374Z" fill="#5D74E0"/>
<path fill-rule="evenodd" clip-rule="evenodd" d="M42.3925 126.554C42.467 126.861 42.5324 127.171 42.5905 127.483C42.6216 127.639 42.6711 127.795 42.6662 127.953C42.6534 128.111 42.6467 128.268 42.5746 128.424H42.544C42.4414 128.269 42.4041 128.115 42.3607 127.961C42.3259 127.807 42.3449 127.652 42.3461 127.496C42.343 127.185 42.3485 126.873 42.362 126.557L42.3925 126.554Z" fill="#5D74E0"/>
<path fill-rule="evenodd" clip-rule="evenodd" d="M43.5159 127.008C43.6088 127.325 43.6943 127.642 43.7731 127.96C43.8159 128.12 43.8757 128.275 43.8837 128.438C43.8855 128.602 43.8867 128.77 43.844 128.936L43.8183 128.951C43.6827 128.804 43.6411 128.647 43.5825 128.489C43.5348 128.33 43.5416 128.163 43.5318 127.998C43.5061 127.671 43.4909 127.343 43.4854 127.013L43.5159 127.008Z" fill="#5D74E0"/>
<path fill-rule="evenodd" clip-rule="evenodd" d="M44.6559 127.219C44.7463 127.541 44.8288 127.867 44.9027 128.196C44.9431 128.359 45.0005 128.524 45.0042 128.691C44.9993 128.858 45.0011 129.023 44.9369 129.188H44.9064C44.7958 129.025 44.75 128.863 44.6987 128.702C44.6553 128.541 44.6663 128.378 44.659 128.214C44.64 127.887 44.629 127.558 44.626 127.224L44.6559 127.219Z" fill="#5D74E0"/>
<path fill-rule="evenodd" clip-rule="evenodd" d="M60.1963 132.998C60.9398 132.711 61.7071 132.492 62.4794 132.297C63.2522 132.1 64.0367 131.954 64.8223 131.816C66.3986 131.576 67.9974 131.431 69.5914 131.507C68.799 131.598 68.009 131.666 67.2227 131.773C66.4365 131.872 65.6514 131.975 64.8712 132.112C64.0874 132.224 63.3097 132.374 62.5307 132.522C61.7511 132.669 60.9752 132.83 60.1963 132.998Z" fill="#5D74E0"/>
<path fill-rule="evenodd" clip-rule="evenodd" d="M59.8066 135.255C60.7768 134.886 61.7702 134.579 62.7697 134.296C63.7698 134.013 64.784 133.781 65.803 133.568C66.8258 133.377 67.8552 133.204 68.8962 133.126C69.9342 133.05 70.9899 133.017 72.0157 133.211C70.9777 133.142 69.9446 133.233 68.9201 133.356C67.8955 133.481 66.8746 133.649 65.8629 133.862C64.8457 134.049 63.8376 134.284 62.829 134.519C61.8203 134.755 60.8147 135.003 59.8066 135.255Z" fill="#5D74E0"/>
<path fill-rule="evenodd" clip-rule="evenodd" d="M75.3066 111.531C75.3897 112.461 75.4019 113.396 75.3592 114.331C75.3317 115.264 75.1502 116.209 74.9022 117.106C74.6493 118.004 74.4024 118.898 74.2185 119.804C74.0298 120.709 73.9216 121.632 73.9858 122.562C73.7945 121.645 73.844 120.688 73.987 119.764C74.1257 118.835 74.3774 117.93 74.6071 117.029C74.7305 116.581 74.8594 116.133 74.9425 115.685C75.028 115.234 75.0739 114.774 75.1264 114.314C75.2168 113.392 75.2639 112.463 75.3066 111.531Z" fill="#5D74E0"/>
<path fill-rule="evenodd" clip-rule="evenodd" d="M76.9082 124.692C77.3432 124.287 77.8313 123.939 78.3506 123.637C78.6127 123.49 78.8828 123.353 79.1724 123.249C79.4601 123.147 79.7619 123.058 80.0875 123.053C80.1706 123.053 80.2391 123.118 80.2397 123.199C80.2409 123.261 80.2018 123.314 80.148 123.338C79.7216 123.521 79.3025 123.76 78.9066 124.019C78.5119 124.285 78.1466 124.591 77.8173 124.948C78.0556 124.527 78.3934 124.157 78.7746 123.848C79.1534 123.53 79.5719 123.273 80.0326 123.065L80.093 123.349C79.5463 123.381 78.9927 123.607 78.4679 123.855C77.9358 124.1 77.4251 124.396 76.9082 124.692Z" fill="#5D74E0"/>
<path fill-rule="evenodd" clip-rule="evenodd" d="M81.5626 123.819C80.9914 124.105 80.4544 124.402 79.9552 124.759C79.7017 124.931 79.4646 125.124 79.2312 125.324C78.993 125.52 78.7859 125.748 78.5537 125.97C78.803 125.386 79.2496 124.883 79.778 124.515C80.3077 124.149 80.9187 123.881 81.5626 123.819Z" fill="#5D74E0"/>
<path fill-rule="evenodd" clip-rule="evenodd" d="M77.6655 127.5C77.8623 127.832 78.0651 128.16 78.2752 128.481L78.6003 128.954C78.7029 129.114 78.7988 129.275 78.932 129.413C78.9357 129.416 78.9369 129.42 78.9345 129.424C78.9326 129.427 78.9277 129.427 78.9253 129.427C78.7304 129.352 78.6015 129.186 78.475 129.04C78.3589 128.882 78.2606 128.714 78.1702 128.543C77.9814 128.204 77.8097 127.859 77.6521 127.507C77.6503 127.503 77.6521 127.499 77.6558 127.497C77.6594 127.495 77.6637 127.497 77.6655 127.5Z" fill="#5D74E0"/>
<path fill-rule="evenodd" clip-rule="evenodd" d="M77.8817 127.144C78.0637 127.346 78.2482 127.545 78.4358 127.739C78.5341 127.832 78.6282 127.928 78.7211 128.023C78.8085 128.125 78.8915 128.224 78.9893 128.32C78.993 128.322 78.9942 128.327 78.9917 128.331C78.9899 128.333 78.9862 128.333 78.9838 128.333C78.8353 128.309 78.7211 128.214 78.6129 128.13C78.5121 128.033 78.4242 127.928 78.3429 127.818C78.1737 127.604 78.0167 127.381 77.8694 127.153C77.867 127.149 77.8682 127.145 77.8719 127.142C77.8749 127.14 77.8792 127.141 77.8817 127.144Z" fill="#5D74E0"/>
<path fill-rule="evenodd" clip-rule="evenodd" d="M78.4743 126.663C78.5641 126.803 78.6625 126.938 78.7664 127.064C78.8867 127.181 78.9784 127.296 79.0633 127.454C79.0657 127.458 79.0645 127.463 79.0602 127.466C79.059 127.467 79.0566 127.467 79.0547 127.467C78.8666 127.43 78.7389 127.286 78.6662 127.132C78.5794 126.984 78.511 126.829 78.4603 126.669C78.4591 126.664 78.4615 126.66 78.4652 126.659C78.4688 126.658 78.4725 126.66 78.4743 126.663Z" fill="#5D74E0"/>
<path fill-rule="evenodd" clip-rule="evenodd" d="M78.9354 126.278L79.1725 126.553C79.2665 126.635 79.3185 126.736 79.3496 126.857L79.3515 126.864C79.3521 126.867 79.3502 126.87 79.3466 126.871C79.346 126.871 79.3454 126.871 79.3447 126.871C79.2586 126.87 79.2116 126.817 79.1633 126.778C79.1242 126.73 79.093 126.677 79.0704 126.619C79.0142 126.511 78.9653 126.4 78.9226 126.286C78.9208 126.282 78.9226 126.278 78.9269 126.276C78.9299 126.275 78.9336 126.276 78.9354 126.278Z" fill="#5D74E0"/>
<path fill-rule="evenodd" clip-rule="evenodd" d="M79.0648 125.738L79.3568 125.995C79.4674 126.068 79.5401 126.165 79.5951 126.289L79.5969 126.293C79.5988 126.297 79.5969 126.301 79.5933 126.302C79.5927 126.303 79.5914 126.303 79.5908 126.303C79.5035 126.309 79.446 126.262 79.3892 126.227C79.3404 126.182 79.2994 126.131 79.2658 126.075C79.1888 125.97 79.118 125.86 79.0526 125.748C79.0508 125.744 79.052 125.739 79.0557 125.737C79.0587 125.735 79.0624 125.736 79.0648 125.738Z" fill="#5D74E0"/>
<path fill-rule="evenodd" clip-rule="evenodd" d="M79.4978 125.468C79.5809 125.532 79.6585 125.601 79.73 125.677C79.8137 125.742 79.8754 125.839 79.8454 125.967C79.8442 125.972 79.8393 125.975 79.8338 125.974C79.8332 125.974 79.832 125.973 79.8314 125.973C79.7177 125.917 79.6658 125.845 79.631 125.746L79.4862 125.478C79.4844 125.474 79.4856 125.47 79.4893 125.468C79.4923 125.466 79.4954 125.467 79.4978 125.468Z" fill="#5D74E0"/>
<path fill-rule="evenodd" clip-rule="evenodd" d="M80.2616 124.942C80.3282 124.974 80.3905 125.012 80.4486 125.056C80.5176 125.09 80.5659 125.154 80.5372 125.256C80.5353 125.262 80.5298 125.265 80.5243 125.264C80.4199 125.251 80.3802 125.206 80.3569 125.136L80.2512 124.953C80.2488 124.95 80.25 124.945 80.2543 124.942C80.2561 124.941 80.2592 124.941 80.2616 124.942Z" fill="#5D74E0"/>
<path fill-rule="evenodd" clip-rule="evenodd" d="M80.9407 124.488C81.0177 124.534 81.091 124.586 81.16 124.643C81.2376 124.69 81.303 124.768 81.2743 124.888C81.2725 124.893 81.2676 124.896 81.2627 124.895L81.2602 124.894C81.1533 124.859 81.1014 124.807 81.0678 124.722L80.9297 124.499C80.9279 124.495 80.9285 124.491 80.9322 124.488C80.9352 124.486 80.9383 124.486 80.9407 124.488Z" fill="#5D74E0"/>
<path fill-rule="evenodd" clip-rule="evenodd" d="M81.5326 124.063C81.6157 124.129 81.6945 124.2 81.7672 124.277C81.849 124.344 81.9236 124.441 81.8802 124.577C81.879 124.581 81.8753 124.584 81.871 124.583C81.8704 124.583 81.8698 124.582 81.8692 124.582L81.8655 124.58C81.7641 124.518 81.703 124.45 81.6682 124.348L81.5204 124.072C81.5185 124.069 81.5197 124.064 81.524 124.062C81.5271 124.06 81.5301 124.061 81.5326 124.063Z" fill="#5D74E0"/>
</svg>
