 <svg height="100" width='100' viewBox="0 0 180 133" fill="none" xmlns="http://www.w3.org/2000/svg">
                        <path d="M76.8164 94.7131V130.363C76.8164 131.569 77.9961 132.545 79.4531 132.545C80.9088 132.545 82.0899 131.569 82.0899 130.363V94.7131H76.8164Z" fill="#C27749" />
                        <path d="M97.9102 94.7131V130.363C97.9102 131.569 99.0898 132.545 100.547 132.545C102.003 132.545 103.184 131.569 103.184 130.363V94.7131H97.9102Z" fill="#C27749" />
                        <path d="M2.63672 119.458H36.9141V123.824H2.63672V119.458Z" fill="#FF8646" />
                        <path d="M143.086 119.458H177.363V123.824H143.086V119.458Z" fill="#FF8646" />
                        <path d="M0 104.875V130.372C0 131.578 1.18103 132.554 2.63672 132.554C4.09241 132.554 5.27344 131.578 5.27344 130.372V101.965L0 104.875Z" fill="#FF8646" />
                        <path d="M174.727 101.965V130.339C174.727 131.544 175.906 132.521 177.363 132.521C178.82 132.521 180 131.544 180 130.339V104.875L174.727 101.965Z" fill="#FF6337" />
                        <path d="M140.449 104.908V130.339C140.449 131.544 141.629 132.521 143.086 132.521C144.543 132.521 145.723 131.544 145.723 130.339V101.998L140.449 104.908Z" fill="#FF8646" />
                        <path d="M34.2773 101.998V130.372C34.2773 131.577 35.4584 132.554 36.9141 132.554C38.3697 132.554 39.5508 131.577 39.5508 130.372V104.908L34.2773 101.998Z" fill="#FF6337" />
                        <path d="M69.0015 128.291L60.2578 125.879V93.9855C60.2564 93.9776 60.2578 93.9696 60.2578 93.9617C60.2578 92.7567 59.0768 91.7791 57.6211 91.7791H36.5273L40.043 96.1443H55.0434L54.9844 96.1682V127.452C54.9844 128.391 55.7108 129.226 56.7875 129.522L67.333 132.433C68.7145 132.815 70.2087 132.196 70.6687 131.053C71.1301 129.909 70.3831 128.672 69.0015 128.291V128.291Z" fill="#CCCCCC" />
                        <path d="M143.474 91.7791H122.38C120.923 91.7791 119.743 92.7555 119.743 93.9617C119.743 93.9696 119.745 93.9776 119.745 93.9867C119.743 93.9855 119.743 125.879 119.743 125.879L111 128.291C109.618 128.672 108.871 129.908 109.331 131.051C109.792 132.196 111.287 132.813 112.667 132.433L123.214 129.522C124.29 129.226 125.015 128.391 125.015 127.451V96.1682L124.958 96.1443H139.958L143.474 91.7791Z" fill="#85453D" />
                        <path d="M98.7891 59.7913H88.2422L81.2109 78.7073H105.82V65.6116C105.82 62.3968 102.671 59.7913 98.7891 59.7913V59.7913Z" fill="#CF301B" />
                        <path d="M88.2422 59.7913H81.2109C77.3273 59.7913 74.1797 62.3968 74.1797 65.6116V78.7073H95.2735V65.6116C95.2735 62.3968 92.1245 59.7913 88.2422 59.7913V59.7913Z" fill="#FF4128" />
                        <path d="M79.4531 78.7073L100.547 100.533H111.094V78.7073H79.4531Z" fill="#49C9FF" />
                        <path d="M68.9062 78.7073H100.547V100.533H68.9062V78.7073Z" fill="#7DD9FF" />
                        <path d="M39.5508 74.3511V53.98C39.5508 50.7652 36.4032 48.1597 32.5195 48.1597H21.9727V91.812L29.0039 100.542L39.5508 96.1772V83.0815L44.8242 78.7163L39.5508 74.3511Z" fill="#FFB4A9" />
                        <path d="M156.27 74.3511V96.1772C165.006 96.1772 172.09 90.3137 172.09 83.0815L156.27 74.3511Z" fill="#084F6D" />
                        <path d="M161.543 83.0815V74.3511L140.449 83.0815V96.1772L148.359 100.542L156.269 96.1772C159.182 96.1772 161.543 90.3137 161.543 83.0815Z" fill="#116F97" />
                        <path d="M165.059 48.1597H154.512L161.543 83.0815H172.09V53.98C172.09 50.7652 168.942 48.1597 165.059 48.1597V48.1597Z" fill="#FFE2A8" />
                        <path d="M154.512 48.1597H147.48C143.597 48.1597 140.449 50.7652 140.449 53.98V74.3511L135.176 78.7163L140.449 83.0815H161.543V53.98C161.543 50.7652 158.395 48.1597 154.512 48.1597V48.1597Z" fill="#FFF0D3" />
                        <path d="M21.9727 48.1597H14.9414C11.0577 48.1597 7.91016 50.7652 7.91016 53.98V83.0815C7.91016 90.3137 14.9936 96.1772 23.7305 96.1772L29.0039 100.542V53.98C29.0039 50.7652 25.8563 48.1597 21.9727 48.1597V48.1597Z" fill="#FFD9D4" />
                        <path d="M166.816 96.1772L159.785 100.542L166.816 104.908H180V96.1772H166.816Z" fill="#FF6337" />
                        <path d="M140.449 96.1772H166.816V104.908H140.449V96.1772Z" fill="#FF8646" />
                        <path d="M29.0039 96.1772L21.9727 100.542L29.0039 104.908H39.5508V96.1772H29.0039Z" fill="#FF6337" />
                        <path d="M129.903 74.3511L118.982 78.7163L129.903 83.0815H140.45V74.3511H129.903Z" fill="#FFA754" />
                        <path d="M39.5508 74.3511H129.902V83.0815H39.5508V74.3511Z" fill="#FFCB63" />
                        <path d="M0 96.1772H29.0039V104.908H0V96.1772Z" fill="#FF8646" />
                        <path d="M172.09 9.71711C172.09 9.13053 171.954 8.53372 171.665 7.95851C170.715 6.05895 168.405 4.96764 166.056 5.13702C166.259 3.19199 164.94 1.27993 162.647 0.492138C160.352 -0.294513 157.787 0.286381 156.27 1.78125C154.752 0.286381 152.187 -0.294513 149.892 0.492138C147.599 1.27879 146.28 3.19199 146.483 5.13702C144.134 4.96764 141.824 6.05895 140.874 7.95851C140.585 8.53372 140.449 9.13053 140.449 9.71711C140.451 11.0653 140.449 26.3334 140.449 26.3334H172.09C172.09 26.3334 172.088 11.0653 172.09 9.71711V9.71711Z" fill="#60312C" />
                        <path d="M156.27 13.2378V42.6304L172.09 29.2437V26.3335C172.09 19.1013 165.006 13.2378 156.27 13.2378Z" fill="#85453D" />
                        <path d="M156.269 13.2378C147.533 13.2378 140.449 19.1013 140.449 26.3335V29.2437L161.543 42.6304V26.3335C161.543 19.1013 159.182 13.2378 156.269 13.2378Z" fill="#A45E43" />
                        <path d="M162.848 29.2436C162.477 28.7855 162.037 28.3695 161.543 28.0034L156.27 48.1597C165.006 48.1597 172.09 42.2962 172.09 35.064V29.2436H162.848Z" fill="#40211D" />
                        <path d="M161.543 35.064V28.0034C160.144 26.9655 158.296 26.3335 156.269 26.3335C153.527 26.3335 151.111 27.4896 149.691 29.2437H140.449V35.064C140.449 42.2962 147.533 48.1597 156.269 48.1597C159.182 48.1597 161.543 42.2962 161.543 35.064Z" fill="#60312C" />
                        <path d="M23.7285 16.1479V39.4292C32.4668 39.4292 39.5488 33.5657 39.5488 26.3335C39.5488 24.8023 39.2289 23.3335 38.6452 21.9683L23.7285 16.1479Z" fill="#A45E43" />
                        <path d="M23.7285 13.2378L28.7012 21.9683H38.6452C36.4727 16.8823 30.6169 13.2378 23.7285 13.2378Z" fill="#40211D" />
                        <path d="M8.81183 21.9683C8.22955 23.3335 7.9082 24.8023 7.9082 26.3335C7.9082 33.5657 14.9916 39.4292 23.7285 39.4292C26.6413 39.4292 29.0019 33.5657 29.0019 26.3335C29.0019 24.8023 28.8948 23.3335 28.7012 21.9683L23.7285 16.1479L8.81183 21.9683Z" fill="#C27749" />
                        <path d="M23.7292 13.2378C16.8421 13.2378 10.985 16.8823 8.8125 21.9683H28.7019C27.9781 16.8823 26.0253 13.2378 23.7292 13.2378Z" fill="#60312C" />
                        <path d="M29.2822 2.91016C28.2934 1.19135 26.1826 0 23.7299 0C21.2772 0 19.1665 1.19135 18.1777 2.91016C14.7802 2.91016 12.0254 5.19054 12.0254 8.00293C12.0254 10.8153 14.7802 13.0957 18.1777 13.0957H29.2822C32.6797 13.0957 35.4345 10.8153 35.4345 8.00293C35.4345 5.19054 32.6797 2.91016 29.2822 2.91016Z" fill="#60312C" />
                        <path d="M89.998 27.7795V51.0608C98.7349 51.0608 105.818 45.1984 105.818 37.9651C105.818 36.4338 105.498 34.9663 104.915 33.5999L89.998 27.7795Z" fill="#A45E43" />
                        <path d="M89.998 24.8694L94.9707 33.5998H104.915C102.742 28.5139 96.8865 24.8694 89.998 24.8694V24.8694Z" fill="#40211D" />
                        <path d="M75.0814 33.5999C74.4977 34.9663 74.1777 36.4338 74.1777 37.9651C74.1777 45.1984 81.2612 51.0608 89.998 51.0608C92.9108 51.0608 95.2715 45.1984 95.2715 37.9651C95.2715 36.4338 95.1644 34.9663 94.9707 33.5999L89.998 27.7795L75.0814 33.5999Z" fill="#C27749" />
                        <path d="M89.9987 24.8694C83.1103 24.8694 77.2546 28.5139 75.082 33.5998H94.9714C94.2463 28.5139 92.2949 24.8694 89.9987 24.8694Z" fill="#60312C" />
                        <path d="M109.14 44.9064L105.818 37.9652H114.838C116.041 37.9595 117.259 38.2425 118.329 38.845C121.14 40.4263 121.869 43.5934 119.961 45.9204C118.05 48.2462 114.224 48.851 111.413 47.2697C110.343 46.6672 109.576 45.8351 109.14 44.9064Z" fill="#40211D" />
                        <path d="M70.8574 44.9064L74.1794 37.9652H65.1596C63.9566 37.9595 62.7385 38.2425 61.6673 38.845C58.8576 40.4263 58.127 43.5934 60.0372 45.9204C61.9461 48.2462 65.7735 48.851 68.5832 47.2697C69.6544 46.6672 70.422 45.8351 70.8574 44.9064Z" fill="#60312C" />
                    </svg>