<svg width="28" height="34" viewBox="0 0 28 34" fill="none" xmlns="http://www.w3.org/2000/svg">
<g opacity="0.7">
<path d="M26.4022 16.1351L19.1705 6.375H19.2535C19.8728 6.375 20.3754 5.899 20.3754 5.3125V1.0625C20.3754 0.476 19.8728 0 19.2535 0H1.30305C0.683764 0 0.181152 0.476 0.181152 1.0625V5.3125C0.181152 5.899 0.683764 6.375 1.30305 6.375H1.32998C0.618694 7.26538 0.181152 8.36187 0.181152 9.5625V20.1875C0.181152 21.9449 1.69123 23.375 3.54686 23.375C4.15044 23.375 4.7069 23.2114 5.19605 22.9479C5.79515 23.8404 6.83851 24.4375 8.03446 24.4375C8.63804 24.4375 9.19451 24.2739 9.68366 24.0104C10.2828 24.9029 11.3261 25.5 12.5221 25.5C12.917 25.5 13.2917 25.4235 13.644 25.3045V30.8125C13.644 32.5699 15.154 34 17.0097 34C18.8653 34 20.3754 32.5699 20.3754 30.8125V19.1696L21.0979 20.0302C21.6521 20.7081 22.4509 21.1374 23.3484 21.233C24.2414 21.3307 25.13 21.0885 25.8121 20.5615C26.5301 20.0366 26.9811 19.278 27.0843 18.4301C27.1876 17.578 26.9295 16.7407 26.4022 16.1351ZM2.42495 2.125H18.1316V4.25H15.8429H5.79066H2.42495V2.125ZM24.8562 18.1857C24.8226 18.4599 24.6745 18.7064 24.4187 18.8955C24.1854 19.0719 23.8981 19.1526 23.6064 19.1208C23.3148 19.0889 23.0567 18.9507 22.866 18.717L20.133 15.4657C20.1173 15.4509 20.0971 15.4424 20.0837 15.4275C20.0321 15.3723 19.9715 15.3319 19.9087 15.2872C19.8503 15.249 19.7987 15.2065 19.7359 15.1789C19.6753 15.1512 19.6102 15.1385 19.5429 15.1215C19.4666 15.1024 19.3926 15.0811 19.3141 15.0769C19.2916 15.0769 19.2737 15.0662 19.2535 15.0662C19.2041 15.0662 19.1615 15.0875 19.1144 15.0918C19.0358 15.1024 18.9618 15.1109 18.8855 15.1364C18.8137 15.1597 18.7509 15.1959 18.688 15.232C18.6432 15.2575 18.5938 15.266 18.5534 15.2957C18.5377 15.3085 18.5287 15.3297 18.513 15.3425C18.4547 15.3914 18.412 15.4487 18.3672 15.5082C18.3245 15.5614 18.2797 15.6124 18.2505 15.6719C18.2213 15.7271 18.2079 15.7909 18.1899 15.8525C18.1697 15.9248 18.1473 15.9949 18.1428 16.0714C18.1428 16.0905 18.1316 16.1075 18.1316 16.1287V30.8125C18.1316 31.3969 17.6267 31.875 17.0097 31.875C16.3926 31.875 15.8878 31.3969 15.8878 30.8125V18.0625C15.8878 17.476 15.3852 17 14.7659 17C14.1466 17 13.644 17.476 13.644 18.0625V22.3125C13.644 22.8969 13.1391 23.375 12.5221 23.375C11.905 23.375 11.4002 22.8969 11.4002 22.3125V19.125C11.4002 18.5385 10.8976 18.0625 10.2783 18.0625C9.65897 18.0625 9.15636 18.5385 9.15636 19.125V21.25C9.15636 21.8344 8.65151 22.3125 8.03446 22.3125C7.41742 22.3125 6.91256 21.8344 6.91256 21.25V18.0625C6.91256 17.476 6.40995 17 5.79066 17C5.17137 17 4.66876 17.476 4.66876 18.0625V20.1875C4.66876 20.7719 4.1639 21.25 3.54686 21.25C2.92981 21.25 2.42495 20.7719 2.42495 20.1875V9.5625C2.42495 7.80512 3.93503 6.375 5.79066 6.375H15.8429C16.2109 6.375 16.5519 6.54287 16.7629 6.8255L24.6162 17.4165C24.8046 17.6354 24.8899 17.9074 24.8562 18.1857Z" fill="#FF4128"/>
</g>
</svg>
