<svg width="21" height="19" viewBox="0 0 21 19" fill="none" xmlns="http://www.w3.org/2000/svg">
<path d="M10.5076 14.6085H2.9076C1.8076 14.6085 1.0076 13.746 1.0076 12.7876V4.25846C0.907603 3.2043 1.8076 2.3418 2.9076 2.3418H14.7076C15.8076 2.3418 16.6076 3.2043 16.6076 4.16263V8.6668" stroke="#4E4E4F" stroke-width="1.3" stroke-miterlimit="10" stroke-linecap="round" stroke-linejoin="round"/>
<path d="M4.90771 3.68333V1" stroke="#4E4E4F" stroke-width="1.3" stroke-miterlimit="10" stroke-linecap="round" stroke-linejoin="round"/>
<path d="M12.7078 3.68333V1" stroke="#4E4E4F" stroke-width="1.3" stroke-miterlimit="10" stroke-linecap="round" stroke-linejoin="round"/>
<path d="M14.8074 17.3875C17.4032 17.3875 19.5074 15.3709 19.5074 12.8833C19.5074 10.3957 17.4032 8.37915 14.8074 8.37915C12.2117 8.37915 10.1074 10.3957 10.1074 12.8833C10.1074 15.3709 12.2117 17.3875 14.8074 17.3875Z" stroke="#4E4E4F" stroke-width="1.3" stroke-miterlimit="10" stroke-linecap="round" stroke-linejoin="round"/>
<path d="M14.8076 10.4875V12.8834L15.9076 13.8417" stroke="#4E4E4F" stroke-width="1.3" stroke-miterlimit="10" stroke-linecap="round" stroke-linejoin="round"/>
</svg>
