<svg width="55" height="51" viewBox="0 0 55 51" fill="none" xmlns="http://www.w3.org/2000/svg">
<path d="M55 28.2C55 43.2 33.5658 42.6 29.4172 51C15.2882 51 -9.54728 36.7156 3.83441 28.2C24.5773 15 15.2882 0 29.4172 0C43.5462 0 55 13.2 55 28.2Z" fill="#FAFAEF"/>
<g clip-path="url(#clip0)">
<path d="M45.9725 19.2321C45.9069 17.7443 45.6663 16.7215 45.3217 15.8352C44.9661 14.8945 44.4191 14.0522 43.7025 13.352C43.0023 12.6409 42.1545 12.0884 41.2246 11.7384C40.3332 11.3938 39.3158 11.1532 37.828 11.0876C36.3292 11.0165 35.8533 11 32.0518 11C28.2503 11 27.7744 11.0165 26.2811 11.082C24.7934 11.1476 23.7706 11.3884 22.8845 11.7329C21.9435 12.0884 21.1013 12.6354 20.4011 13.352C19.69 14.0522 19.1377 14.9 18.7875 15.8299C18.4429 16.7215 18.2023 17.7388 18.1367 19.2265C18.0655 20.7254 18.0491 21.2012 18.0491 25.0027C18.0491 28.8043 18.0655 29.2801 18.1311 30.7734C18.1967 32.2611 18.4375 33.284 18.7822 34.1702C19.1377 35.111 19.69 35.9533 20.4011 36.6534C21.1013 37.3645 21.9491 37.9171 22.879 38.267C23.7706 38.6117 24.7878 38.8523 26.2758 38.9179C27.7689 38.9837 28.2449 38.9999 32.0465 38.9999C35.848 38.9999 36.3238 38.9837 37.8171 38.9179C39.3049 38.8523 40.3277 38.6117 41.2137 38.267C43.0955 37.5395 44.5832 36.0518 45.3108 34.1702C45.6552 33.2786 45.896 32.2611 45.9616 30.7734C46.0272 29.2801 46.0436 28.8043 46.0436 25.0027C46.0436 21.2012 46.0381 20.7254 45.9725 19.2321ZM43.451 30.664C43.3908 32.0315 43.1611 32.7699 42.9696 33.2622C42.4992 34.482 41.531 35.4501 40.3112 35.9206C39.8189 36.112 39.0752 36.3417 37.7131 36.4018C36.2362 36.4676 35.7933 36.4838 32.0574 36.4838C28.3214 36.4838 27.8729 36.4676 26.4014 36.4018C25.034 36.3417 24.2956 36.112 23.8033 35.9206C23.1963 35.6962 22.6437 35.3407 22.1952 34.8758C21.7303 34.4217 21.3748 33.8747 21.1504 33.2677C20.959 32.7754 20.7293 32.0315 20.6692 30.6696C20.6034 29.1927 20.5872 28.7496 20.5872 25.0136C20.5872 21.2777 20.6034 20.8292 20.6692 19.3579C20.7293 17.9905 20.959 17.252 21.1504 16.7598C21.3748 16.1525 21.7303 15.6002 22.2008 15.1515C22.6546 14.6866 23.2016 14.331 23.8088 14.1069C24.3011 13.9155 25.0451 13.6858 26.407 13.6255C27.8838 13.5599 28.327 13.5435 32.0627 13.5435C35.8042 13.5435 36.2471 13.5599 37.7186 13.6255C39.0861 13.6858 39.8245 13.9155 40.3168 14.1069C40.9238 14.331 41.4763 14.6866 41.9248 15.1515C42.3898 15.6055 42.7453 16.1525 42.9696 16.7598C43.1611 17.252 43.3908 17.9958 43.451 19.3579C43.5166 20.8348 43.5331 21.2777 43.5331 25.0136C43.5331 28.7496 43.5166 29.1871 43.451 30.664Z" fill="#3F3D56"/>
<path d="M32.0519 17.8098C28.081 17.8098 24.8591 21.0315 24.8591 25.0026C24.8591 28.9738 28.081 32.1954 32.0519 32.1954C36.0231 32.1954 39.2448 28.9738 39.2448 25.0026C39.2448 21.0315 36.0231 17.8098 32.0519 17.8098ZM32.0519 29.6684C29.4758 29.6684 27.3861 27.579 27.3861 25.0026C27.3861 22.4263 29.4758 20.3368 32.0519 20.3368C34.6283 20.3368 36.7177 22.4263 36.7177 25.0026C36.7177 27.579 34.6283 29.6684 32.0519 29.6684Z" fill="#3F3D56"/>
<path d="M41.2085 17.5256C41.2085 18.4529 40.4566 19.2048 39.529 19.2048C38.6017 19.2048 37.8499 18.4529 37.8499 17.5256C37.8499 16.5981 38.6017 15.8464 39.529 15.8464C40.4566 15.8464 41.2085 16.5981 41.2085 17.5256Z" fill="#3F3D56"/>
</g>
<defs>
<clipPath id="clip0">
<rect width="28" height="28" fill="white" transform="translate(18 11)"/>
</clipPath>
</defs>
</svg>
