<svg width="519" height="1560" viewBox="0 0 519 1560" fill="none" xmlns="http://www.w3.org/2000/svg">
<path d="M516 802.414C516 932.184 542.148 1040 436.074 1158.79C376.979 1224.97 206 1324.75 188 1407.63C170 1490.52 13.2776 1517.41 -85.5 1517.41C-417.699 1517.41 -687 1197.3 -687 802.414C-687 407.53 -417.699 87.4138 -85.5 87.4138C31.8901 87.4138 90 177.069 234 196.509C268.586 201.178 308 230.862 356 255.803C387.898 284.805 411.382 323.856 410.32 372.069C408.99 432.477 422 555.862 473.99 607.414C525.981 658.966 516 741.729 516 802.414Z" fill="#FFC850"/>
<circle cx="44" cy="432" r="9" fill="#EE4E2F"/>
<circle cx="44" cy="432" r="9" fill="#EE4E2F"/>
<circle cx="44" cy="432" r="9" fill="#EE4E2F"/>
<circle cx="120" cy="450" r="9" fill="#EE4E2F"/>
<circle cx="120" cy="450" r="9" fill="#EE4E2F"/>
<circle cx="120" cy="450" r="9" fill="#EE4E2F"/>
<circle cx="196" cy="459" r="9" fill="#EE4E2F"/>
<circle cx="196" cy="459" r="9" fill="#EE4E2F"/>
<circle cx="196" cy="459" r="9" fill="#EE4E2F"/>
<circle cx="269" cy="488" r="9" fill="#EE4E2F"/>
<circle cx="269" cy="488" r="9" fill="#EE4E2F"/>
<circle cx="269" cy="488" r="9" fill="#EE4E2F"/>
<circle cx="356" cy="486" r="9" fill="#EE4E2F"/>
<circle cx="356" cy="486" r="9" fill="#EE4E2F"/>
<circle cx="356" cy="486" r="9" fill="#EE4E2F"/>
<circle cx="319" cy="528" r="9" fill="#EE4E2F"/>
<circle cx="319" cy="528" r="9" fill="#EE4E2F"/>
<circle cx="319" cy="528" r="9" fill="#EE4E2F"/>
<circle cx="219" cy="519" r="9" fill="#EE4E2F"/>
<circle cx="219" cy="519" r="9" fill="#EE4E2F"/>
<circle cx="219" cy="519" r="9" fill="#EE4E2F"/>
<circle cx="119" cy="510" r="9" fill="#EE4E2F"/>
<circle cx="119" cy="510" r="9" fill="#EE4E2F"/>
<circle cx="119" cy="510" r="9" fill="#EE4E2F"/>
<circle cx="19" cy="501" r="9" fill="#EE4E2F"/>
<circle cx="19" cy="501" r="9" fill="#EE4E2F"/>
<circle cx="19" cy="501" r="9" fill="#EE4E2F"/>
<circle cx="69" cy="546" r="9" fill="#EE4E2F"/>
<circle cx="69" cy="546" r="9" fill="#EE4E2F"/>
<circle cx="69" cy="546" r="9" fill="#EE4E2F"/>
<circle cx="119" cy="591" r="9" fill="#EE4E2F"/>
<circle cx="119" cy="591" r="9" fill="#EE4E2F"/>
<circle cx="119" cy="591" r="9" fill="#EE4E2F"/>
<circle cx="169" cy="636" r="9" fill="#EE4E2F"/>
<circle cx="169" cy="636" r="9" fill="#EE4E2F"/>
<circle cx="169" cy="636" r="9" fill="#EE4E2F"/>
<circle cx="28.7196" cy="712.001" r="9" transform="rotate(-7.72277 28.7196 712.001)" fill="#EE4E2F"/>
<circle cx="28.7196" cy="712.001" r="9" transform="rotate(-7.72277 28.7196 712.001)" fill="#EE4E2F"/>
<circle cx="28.7196" cy="712.001" r="9" transform="rotate(-7.72277 28.7196 712.001)" fill="#EE4E2F"/>
<circle cx="219" cy="681" r="9" fill="#EE4E2F"/>
<circle cx="219" cy="681" r="9" fill="#EE4E2F"/>
<circle cx="219" cy="681" r="9" fill="#EE4E2F"/>
<circle cx="84.3133" cy="749.873" r="9" transform="rotate(-7.72277 84.3133 749.873)" fill="#EE4E2F"/>
<circle cx="84.3133" cy="749.873" r="9" transform="rotate(-7.72277 84.3133 749.873)" fill="#EE4E2F"/>
<circle cx="84.3133" cy="749.873" r="9" transform="rotate(-7.72277 84.3133 749.873)" fill="#EE4E2F"/>
<circle cx="269" cy="726" r="9" fill="#EE4E2F"/>
<circle cx="269" cy="726" r="9" fill="#EE4E2F"/>
<circle cx="269" cy="726" r="9" fill="#EE4E2F"/>
<circle cx="139.907" cy="787.746" r="9" transform="rotate(-7.72277 139.907 787.746)" fill="#EE4E2F"/>
<circle cx="139.907" cy="787.746" r="9" transform="rotate(-7.72277 139.907 787.746)" fill="#EE4E2F"/>
<circle cx="139.907" cy="787.746" r="9" transform="rotate(-7.72277 139.907 787.746)" fill="#EE4E2F"/>
<circle cx="319" cy="771" r="9" fill="#EE4E2F"/>
<circle cx="319" cy="771" r="9" fill="#EE4E2F"/>
<circle cx="319" cy="771" r="9" fill="#EE4E2F"/>
<circle cx="195.501" cy="825.619" r="9" transform="rotate(-7.72277 195.501 825.619)" fill="#EE4E2F"/>
<circle cx="195.501" cy="825.619" r="9" transform="rotate(-7.72277 195.501 825.619)" fill="#EE4E2F"/>
<circle cx="195.501" cy="825.619" r="9" transform="rotate(-7.72277 195.501 825.619)" fill="#EE4E2F"/>
<circle cx="369" cy="816" r="9" fill="#EE4E2F"/>
<circle cx="369" cy="816" r="9" fill="#EE4E2F"/>
<circle cx="369" cy="816" r="9" fill="#EE4E2F"/>
<circle cx="251.095" cy="863.492" r="9" transform="rotate(-7.72277 251.095 863.492)" fill="#EE4E2F"/>
<circle cx="251.095" cy="863.492" r="9" transform="rotate(-7.72277 251.095 863.492)" fill="#EE4E2F"/>
<circle cx="251.095" cy="863.492" r="9" transform="rotate(-7.72277 251.095 863.492)" fill="#EE4E2F"/>
<circle cx="419" cy="861" r="9" fill="#EE4E2F"/>
<circle cx="419" cy="861" r="9" fill="#EE4E2F"/>
<circle cx="419" cy="861" r="9" fill="#EE4E2F"/>
<circle cx="306.688" cy="901.365" r="9" transform="rotate(-7.72277 306.688 901.365)" fill="#EE4E2F"/>
<circle cx="306.688" cy="901.365" r="9" transform="rotate(-7.72277 306.688 901.365)" fill="#EE4E2F"/>
<circle cx="306.688" cy="901.365" r="9" transform="rotate(-7.72277 306.688 901.365)" fill="#EE4E2F"/>
<circle cx="469" cy="906" r="9" fill="#EE4E2F"/>
<circle cx="469" cy="906" r="9" fill="#EE4E2F"/>
<circle cx="469" cy="906" r="9" fill="#EE4E2F"/>
<circle cx="362.282" cy="939.238" r="9" transform="rotate(-7.72277 362.282 939.238)" fill="#EE4E2F"/>
<circle cx="362.282" cy="939.238" r="9" transform="rotate(-7.72277 362.282 939.238)" fill="#EE4E2F"/>
<circle cx="362.282" cy="939.238" r="9" transform="rotate(-7.72277 362.282 939.238)" fill="#EE4E2F"/>
<circle cx="333" cy="954" r="9" fill="#EE4E2F"/>
<circle cx="333" cy="954" r="9" fill="#EE4E2F"/>
<circle cx="333" cy="954" r="9" fill="#EE4E2F"/>
<circle cx="265" cy="917" r="9" fill="#EE4E2F"/>
<circle cx="265" cy="917" r="9" fill="#EE4E2F"/>
<circle cx="265" cy="917" r="9" fill="#EE4E2F"/>
<circle cx="197" cy="880" r="9" fill="#EE4E2F"/>
<circle cx="197" cy="880" r="9" fill="#EE4E2F"/>
<circle cx="197" cy="880" r="9" fill="#EE4E2F"/>
<circle cx="129" cy="843" r="9" fill="#EE4E2F"/>
<circle cx="129" cy="843" r="9" fill="#EE4E2F"/>
<circle cx="129" cy="843" r="9" fill="#EE4E2F"/>
<circle cx="61" cy="806" r="9" fill="#EE4E2F"/>
<circle cx="61" cy="806" r="9" fill="#EE4E2F"/>
<circle cx="61" cy="806" r="9" fill="#EE4E2F"/>
<circle cx="-7" cy="769" r="9" fill="#EE4E2F"/>
<circle cx="-7" cy="769" r="9" fill="#EE4E2F"/>
<circle cx="-7" cy="769" r="9" fill="#EE4E2F"/>
<circle cx="7" cy="371" r="9" fill="#EE4E2F"/>
<circle cx="7" cy="371" r="9" fill="#EE4E2F"/>
<circle cx="7" cy="371" r="9" fill="#EE4E2F"/>
<circle cx="14" cy="172" r="9" fill="#EE4E2F"/>
<circle cx="14" cy="172" r="9" fill="#EE4E2F"/>
<circle cx="14" cy="172" r="9" fill="#EE4E2F"/>
<circle cx="-4" cy="259" r="9" fill="#EE4E2F"/>
<circle cx="-4" cy="259" r="9" fill="#EE4E2F"/>
<circle cx="-4" cy="259" r="9" fill="#EE4E2F"/>
<circle cx="12" cy="310" r="9" fill="#EE4E2F"/>
<circle cx="12" cy="310" r="9" fill="#EE4E2F"/>
<circle cx="12" cy="310" r="9" fill="#EE4E2F"/>
<circle cx="68" cy="396" r="9" fill="#EE4E2F"/>
<circle cx="68" cy="396" r="9" fill="#EE4E2F"/>
<circle cx="68" cy="396" r="9" fill="#EE4E2F"/>
<circle cx="124" cy="482" r="9" fill="#EE4E2F"/>
<circle cx="124" cy="482" r="9" fill="#EE4E2F"/>
<circle cx="124" cy="482" r="9" fill="#EE4E2F"/>
<circle cx="76" cy="441" r="9" fill="#D3BBA3"/>
<circle cx="152" cy="459" r="9" fill="#D3BBA3"/>
<circle cx="228" cy="468" r="9" fill="#D3BBA3"/>
<circle cx="301" cy="497" r="9" fill="#D3BBA3"/>
<circle cx="388" cy="495" r="9" fill="#D3BBA3"/>
<circle cx="351" cy="537" r="9" fill="#D3BBA3"/>
<circle cx="251" cy="528" r="9" fill="#D3BBA3"/>
<circle cx="151" cy="519" r="9" fill="#D3BBA3"/>
<circle cx="51" cy="510" r="9" fill="#D3BBA3"/>
<circle cx="101" cy="555" r="9" fill="#D3BBA3"/>
<circle cx="151" cy="600" r="9" fill="#D3BBA3"/>
<circle cx="6.04576" cy="678.746" r="9" transform="rotate(-7.72277 6.04576 678.746)" fill="#D3BBA3"/>
<circle cx="201" cy="645" r="9" fill="#D3BBA3"/>
<circle cx="61.6395" cy="716.619" r="9" transform="rotate(-7.72277 61.6395 716.619)" fill="#D3BBA3"/>
<circle cx="251" cy="690" r="9" fill="#D3BBA3"/>
<circle cx="117.233" cy="754.492" r="9" transform="rotate(-7.72277 117.233 754.492)" fill="#D3BBA3"/>
<circle cx="301" cy="735" r="9" fill="#D3BBA3"/>
<circle cx="172.827" cy="792.365" r="9" transform="rotate(-7.72277 172.827 792.365)" fill="#D3BBA3"/>
<circle cx="351" cy="780" r="9" fill="#D3BBA3"/>
<circle cx="228.421" cy="830.237" r="9" transform="rotate(-7.72277 228.421 830.237)" fill="#D3BBA3"/>
<circle cx="401" cy="825" r="9" fill="#D3BBA3"/>
<circle cx="284.014" cy="868.11" r="9" transform="rotate(-7.72277 284.014 868.11)" fill="#D3BBA3"/>
<circle cx="451" cy="870" r="9" fill="#D3BBA3"/>
<circle cx="339.608" cy="905.983" r="9" transform="rotate(-7.72277 339.608 905.983)" fill="#D3BBA3"/>
<circle cx="501" cy="915" r="9" fill="#D3BBA3"/>
<circle cx="49.4819" cy="669.642" r="9" transform="rotate(-10.44 49.4819 669.642)" fill="#EE4E2F"/>
<circle cx="49.4819" cy="669.642" r="9" transform="rotate(-10.44 49.4819 669.642)" fill="#EE4E2F"/>
<circle cx="49.4819" cy="669.642" r="9" transform="rotate(-10.44 49.4819 669.642)" fill="#EE4E2F"/>
<circle cx="106.808" cy="704.837" r="9" transform="rotate(-10.44 106.808 704.837)" fill="#EE4E2F"/>
<circle cx="106.808" cy="704.837" r="9" transform="rotate(-10.44 106.808 704.837)" fill="#EE4E2F"/>
<circle cx="106.808" cy="704.837" r="9" transform="rotate(-10.44 106.808 704.837)" fill="#EE4E2F"/>
<circle cx="164.134" cy="740.032" r="9" transform="rotate(-10.44 164.134 740.032)" fill="#EE4E2F"/>
<circle cx="164.134" cy="740.032" r="9" transform="rotate(-10.44 164.134 740.032)" fill="#EE4E2F"/>
<circle cx="164.134" cy="740.032" r="9" transform="rotate(-10.44 164.134 740.032)" fill="#EE4E2F"/>
<circle cx="221.462" cy="775.227" r="9" transform="rotate(-10.44 221.462 775.227)" fill="#EE4E2F"/>
<circle cx="221.462" cy="775.227" r="9" transform="rotate(-10.44 221.462 775.227)" fill="#EE4E2F"/>
<circle cx="221.462" cy="775.227" r="9" transform="rotate(-10.44 221.462 775.227)" fill="#EE4E2F"/>
<circle cx="278.789" cy="810.421" r="9" transform="rotate(-10.44 278.789 810.421)" fill="#EE4E2F"/>
<circle cx="278.789" cy="810.421" r="9" transform="rotate(-10.44 278.789 810.421)" fill="#EE4E2F"/>
<circle cx="278.789" cy="810.421" r="9" transform="rotate(-10.44 278.789 810.421)" fill="#EE4E2F"/>
<circle cx="336.115" cy="845.616" r="9" transform="rotate(-10.44 336.115 845.616)" fill="#EE4E2F"/>
<circle cx="336.115" cy="845.616" r="9" transform="rotate(-10.44 336.115 845.616)" fill="#EE4E2F"/>
<circle cx="336.115" cy="845.616" r="9" transform="rotate(-10.44 336.115 845.616)" fill="#EE4E2F"/>
<circle cx="393.441" cy="880.811" r="9" transform="rotate(-10.44 393.441 880.811)" fill="#EE4E2F"/>
<circle cx="393.441" cy="880.811" r="9" transform="rotate(-10.44 393.441 880.811)" fill="#EE4E2F"/>
<circle cx="393.441" cy="880.811" r="9" transform="rotate(-10.44 393.441 880.811)" fill="#EE4E2F"/>
<circle cx="82.5834" cy="672.695" r="9" transform="rotate(-10.44 82.5834 672.695)" fill="#D3BBA3"/>
<circle cx="139.91" cy="707.889" r="9" transform="rotate(-10.44 139.91 707.889)" fill="#D3BBA3"/>
<circle cx="197.236" cy="743.084" r="9" transform="rotate(-10.44 197.236 743.084)" fill="#D3BBA3"/>
<circle cx="254.562" cy="778.279" r="9" transform="rotate(-10.44 254.562 778.279)" fill="#D3BBA3"/>
<circle cx="311.89" cy="813.474" r="9" transform="rotate(-10.44 311.89 813.474)" fill="#D3BBA3"/>
<circle cx="369.216" cy="848.668" r="9" transform="rotate(-10.44 369.216 848.668)" fill="#D3BBA3"/>
<circle cx="426.542" cy="883.863" r="9" transform="rotate(-10.44 426.542 883.863)" fill="#D3BBA3"/>
<circle cx="25.808" cy="834.837" r="9" transform="rotate(-10.44 25.808 834.837)" fill="#EE4E2F"/>
<circle cx="25.808" cy="834.837" r="9" transform="rotate(-10.44 25.808 834.837)" fill="#EE4E2F"/>
<circle cx="25.808" cy="834.837" r="9" transform="rotate(-10.44 25.808 834.837)" fill="#EE4E2F"/>
<circle cx="83.1342" cy="870.032" r="9" transform="rotate(-10.44 83.1342 870.032)" fill="#EE4E2F"/>
<circle cx="83.1342" cy="870.032" r="9" transform="rotate(-10.44 83.1342 870.032)" fill="#EE4E2F"/>
<circle cx="83.1342" cy="870.032" r="9" transform="rotate(-10.44 83.1342 870.032)" fill="#EE4E2F"/>
<circle cx="140.462" cy="905.227" r="9" transform="rotate(-10.44 140.462 905.227)" fill="#EE4E2F"/>
<circle cx="140.462" cy="905.227" r="9" transform="rotate(-10.44 140.462 905.227)" fill="#EE4E2F"/>
<circle cx="140.462" cy="905.227" r="9" transform="rotate(-10.44 140.462 905.227)" fill="#EE4E2F"/>
<circle cx="197.788" cy="940.421" r="9" transform="rotate(-10.44 197.788 940.421)" fill="#EE4E2F"/>
<circle cx="197.788" cy="940.421" r="9" transform="rotate(-10.44 197.788 940.421)" fill="#EE4E2F"/>
<circle cx="197.788" cy="940.421" r="9" transform="rotate(-10.44 197.788 940.421)" fill="#EE4E2F"/>
<circle cx="255.115" cy="975.616" r="9" transform="rotate(-10.44 255.115 975.616)" fill="#EE4E2F"/>
<circle cx="255.115" cy="975.616" r="9" transform="rotate(-10.44 255.115 975.616)" fill="#EE4E2F"/>
<circle cx="255.115" cy="975.616" r="9" transform="rotate(-10.44 255.115 975.616)" fill="#EE4E2F"/>
<circle cx="312.441" cy="1010.81" r="9" transform="rotate(-10.44 312.441 1010.81)" fill="#EE4E2F"/>
<circle cx="312.441" cy="1010.81" r="9" transform="rotate(-10.44 312.441 1010.81)" fill="#EE4E2F"/>
<circle cx="312.441" cy="1010.81" r="9" transform="rotate(-10.44 312.441 1010.81)" fill="#EE4E2F"/>
<circle cx="1.58343" cy="802.695" r="9" transform="rotate(-10.44 1.58343 802.695)" fill="#D3BBA3"/>
<circle cx="58.9096" cy="837.889" r="9" transform="rotate(-10.44 58.9096 837.889)" fill="#D3BBA3"/>
<circle cx="116.236" cy="873.084" r="9" transform="rotate(-10.44 116.236 873.084)" fill="#D3BBA3"/>
<circle cx="173.562" cy="908.279" r="9" transform="rotate(-10.44 173.562 908.279)" fill="#D3BBA3"/>
<circle cx="230.89" cy="943.474" r="9" transform="rotate(-10.44 230.89 943.474)" fill="#D3BBA3"/>
<circle cx="288.216" cy="978.668" r="9" transform="rotate(-10.44 288.216 978.668)" fill="#D3BBA3"/>
<circle cx="345.542" cy="1013.86" r="9" transform="rotate(-10.44 345.542 1013.86)" fill="#D3BBA3"/>
<circle cx="58.4819" cy="923.642" r="9" transform="rotate(-10.44 58.4819 923.642)" fill="#EE4E2F"/>
<circle cx="58.4819" cy="923.642" r="9" transform="rotate(-10.44 58.4819 923.642)" fill="#EE4E2F"/>
<circle cx="58.4819" cy="923.642" r="9" transform="rotate(-10.44 58.4819 923.642)" fill="#EE4E2F"/>
<circle cx="115.808" cy="958.837" r="9" transform="rotate(-10.44 115.808 958.837)" fill="#EE4E2F"/>
<circle cx="115.808" cy="958.837" r="9" transform="rotate(-10.44 115.808 958.837)" fill="#EE4E2F"/>
<circle cx="115.808" cy="958.837" r="9" transform="rotate(-10.44 115.808 958.837)" fill="#EE4E2F"/>
<circle cx="173.134" cy="994.032" r="9" transform="rotate(-10.44 173.134 994.032)" fill="#EE4E2F"/>
<circle cx="173.134" cy="994.032" r="9" transform="rotate(-10.44 173.134 994.032)" fill="#EE4E2F"/>
<circle cx="173.134" cy="994.032" r="9" transform="rotate(-10.44 173.134 994.032)" fill="#EE4E2F"/>
<circle cx="230.462" cy="1029.23" r="9" transform="rotate(-10.44 230.462 1029.23)" fill="#EE4E2F"/>
<circle cx="230.462" cy="1029.23" r="9" transform="rotate(-10.44 230.462 1029.23)" fill="#EE4E2F"/>
<circle cx="230.462" cy="1029.23" r="9" transform="rotate(-10.44 230.462 1029.23)" fill="#EE4E2F"/>
<circle cx="287.789" cy="1064.42" r="9" transform="rotate(-10.44 287.789 1064.42)" fill="#EE4E2F"/>
<circle cx="287.789" cy="1064.42" r="9" transform="rotate(-10.44 287.789 1064.42)" fill="#EE4E2F"/>
<circle cx="287.789" cy="1064.42" r="9" transform="rotate(-10.44 287.789 1064.42)" fill="#EE4E2F"/>
<circle cx="345.115" cy="1099.62" r="9" transform="rotate(-10.44 345.115 1099.62)" fill="#EE4E2F"/>
<circle cx="345.115" cy="1099.62" r="9" transform="rotate(-10.44 345.115 1099.62)" fill="#EE4E2F"/>
<circle cx="345.115" cy="1099.62" r="9" transform="rotate(-10.44 345.115 1099.62)" fill="#EE4E2F"/>
<circle cx="402.441" cy="1134.81" r="9" transform="rotate(-10.44 402.441 1134.81)" fill="#EE4E2F"/>
<circle cx="402.441" cy="1134.81" r="9" transform="rotate(-10.44 402.441 1134.81)" fill="#EE4E2F"/>
<circle cx="402.441" cy="1134.81" r="9" transform="rotate(-10.44 402.441 1134.81)" fill="#EE4E2F"/>
<circle cx="91.5834" cy="926.695" r="9" transform="rotate(-10.44 91.5834 926.695)" fill="#D3BBA3"/>
<circle cx="148.91" cy="961.889" r="9" transform="rotate(-10.44 148.91 961.889)" fill="#D3BBA3"/>
<circle cx="206.236" cy="997.084" r="9" transform="rotate(-10.44 206.236 997.084)" fill="#D3BBA3"/>
<circle cx="263.562" cy="1032.28" r="9" transform="rotate(-10.44 263.562 1032.28)" fill="#D3BBA3"/>
<circle cx="320.89" cy="1067.47" r="9" transform="rotate(-10.44 320.89 1067.47)" fill="#D3BBA3"/>
<circle cx="378.216" cy="1102.67" r="9" transform="rotate(-10.44 378.216 1102.67)" fill="#D3BBA3"/>
<circle cx="435.542" cy="1137.86" r="9" transform="rotate(-10.44 435.542 1137.86)" fill="#D3BBA3"/>
<circle cx="49.6805" cy="274.971" r="9" transform="rotate(-40.0528 49.6805 274.971)" fill="#EE4E2F"/>
<circle cx="49.6805" cy="274.971" r="9" transform="rotate(-40.0528 49.6805 274.971)" fill="#EE4E2F"/>
<circle cx="49.6805" cy="274.971" r="9" transform="rotate(-40.0528 49.6805 274.971)" fill="#EE4E2F"/>
<circle cx="116.911" cy="277.242" r="9" transform="rotate(-40.0528 116.911 277.242)" fill="#EE4E2F"/>
<circle cx="116.911" cy="277.242" r="9" transform="rotate(-40.0528 116.911 277.242)" fill="#EE4E2F"/>
<circle cx="116.911" cy="277.242" r="9" transform="rotate(-40.0528 116.911 277.242)" fill="#EE4E2F"/>
<circle cx="184.139" cy="279.512" r="9" transform="rotate(-40.0528 184.139 279.512)" fill="#EE4E2F"/>
<circle cx="184.139" cy="279.512" r="9" transform="rotate(-40.0528 184.139 279.512)" fill="#EE4E2F"/>
<circle cx="184.139" cy="279.512" r="9" transform="rotate(-40.0528 184.139 279.512)" fill="#EE4E2F"/>
<circle cx="251.37" cy="281.783" r="9" transform="rotate(-40.0528 251.37 281.783)" fill="#EE4E2F"/>
<circle cx="251.37" cy="281.783" r="9" transform="rotate(-40.0528 251.37 281.783)" fill="#EE4E2F"/>
<circle cx="251.37" cy="281.783" r="9" transform="rotate(-40.0528 251.37 281.783)" fill="#EE4E2F"/>
<circle cx="318.6" cy="284.054" r="9" transform="rotate(-40.0528 318.6 284.054)" fill="#EE4E2F"/>
<circle cx="318.6" cy="284.054" r="9" transform="rotate(-40.0528 318.6 284.054)" fill="#EE4E2F"/>
<circle cx="318.6" cy="284.054" r="9" transform="rotate(-40.0528 318.6 284.054)" fill="#EE4E2F"/>
<circle cx="79.9657" cy="261.268" r="9" transform="rotate(-40.0528 79.9657 261.268)" fill="#D3BBA3"/>
<circle cx="147.196" cy="263.539" r="9" transform="rotate(-40.0528 147.196 263.539)" fill="#D3BBA3"/>
<circle cx="214.427" cy="265.81" r="9" transform="rotate(-40.0528 214.427 265.81)" fill="#D3BBA3"/>
<circle cx="281.655" cy="268.08" r="9" transform="rotate(-40.0528 281.655 268.08)" fill="#D3BBA3"/>
<circle cx="348.886" cy="270.351" r="9" transform="rotate(-40.0528 348.886 270.351)" fill="#D3BBA3"/>
<circle cx="8.6805" cy="218.32" r="9" transform="rotate(-40.0528 8.6805 218.32)" fill="#EE4E2F"/>
<circle cx="8.6805" cy="218.32" r="9" transform="rotate(-40.0528 8.6805 218.32)" fill="#EE4E2F"/>
<circle cx="8.6805" cy="218.32" r="9" transform="rotate(-40.0528 8.6805 218.32)" fill="#EE4E2F"/>
<circle cx="75.911" cy="220.591" r="9" transform="rotate(-40.0528 75.911 220.591)" fill="#EE4E2F"/>
<circle cx="75.911" cy="220.591" r="9" transform="rotate(-40.0528 75.911 220.591)" fill="#EE4E2F"/>
<circle cx="75.911" cy="220.591" r="9" transform="rotate(-40.0528 75.911 220.591)" fill="#EE4E2F"/>
<circle cx="143.139" cy="222.862" r="9" transform="rotate(-40.0528 143.139 222.862)" fill="#EE4E2F"/>
<circle cx="143.139" cy="222.862" r="9" transform="rotate(-40.0528 143.139 222.862)" fill="#EE4E2F"/>
<circle cx="143.139" cy="222.862" r="9" transform="rotate(-40.0528 143.139 222.862)" fill="#EE4E2F"/>
<circle cx="210.37" cy="225.132" r="9" transform="rotate(-40.0528 210.37 225.132)" fill="#EE4E2F"/>
<circle cx="210.37" cy="225.132" r="9" transform="rotate(-40.0528 210.37 225.132)" fill="#EE4E2F"/>
<circle cx="210.37" cy="225.132" r="9" transform="rotate(-40.0528 210.37 225.132)" fill="#EE4E2F"/>
<circle cx="277.6" cy="227.403" r="9" transform="rotate(-40.0528 277.6 227.403)" fill="#EE4E2F"/>
<circle cx="277.6" cy="227.403" r="9" transform="rotate(-40.0528 277.6 227.403)" fill="#EE4E2F"/>
<circle cx="277.6" cy="227.403" r="9" transform="rotate(-40.0528 277.6 227.403)" fill="#EE4E2F"/>
<circle cx="38.9657" cy="204.617" r="9" transform="rotate(-40.0528 38.9657 204.617)" fill="#D3BBA3"/>
<circle cx="106.196" cy="206.888" r="9" transform="rotate(-40.0528 106.196 206.888)" fill="#D3BBA3"/>
<circle cx="173.427" cy="209.159" r="9" transform="rotate(-40.0528 173.427 209.159)" fill="#D3BBA3"/>
<circle cx="240.655" cy="211.43" r="9" transform="rotate(-40.0528 240.655 211.43)" fill="#D3BBA3"/>
<circle cx="69.6805" cy="188.855" r="9" transform="rotate(-40.0528 69.6805 188.855)" fill="#EE4E2F"/>
<circle cx="69.6805" cy="188.855" r="9" transform="rotate(-40.0528 69.6805 188.855)" fill="#EE4E2F"/>
<circle cx="69.6805" cy="188.855" r="9" transform="rotate(-40.0528 69.6805 188.855)" fill="#EE4E2F"/>
<circle cx="136.911" cy="191.126" r="9" transform="rotate(-40.0528 136.911 191.126)" fill="#EE4E2F"/>
<circle cx="136.911" cy="191.126" r="9" transform="rotate(-40.0528 136.911 191.126)" fill="#EE4E2F"/>
<circle cx="136.911" cy="191.126" r="9" transform="rotate(-40.0528 136.911 191.126)" fill="#EE4E2F"/>
<circle cx="99.9657" cy="175.152" r="9" transform="rotate(-40.0528 99.9657 175.152)" fill="#D3BBA3"/>
<circle cx="-5.3195" cy="144.855" r="9" transform="rotate(-40.0528 -5.3195 144.855)" fill="#EE4E2F"/>
<circle cx="-5.3195" cy="144.855" r="9" transform="rotate(-40.0528 -5.3195 144.855)" fill="#EE4E2F"/>
<circle cx="-5.3195" cy="144.855" r="9" transform="rotate(-40.0528 -5.3195 144.855)" fill="#EE4E2F"/>
<circle cx="61.911" cy="147.126" r="9" transform="rotate(-40.0528 61.911 147.126)" fill="#EE4E2F"/>
<circle cx="61.911" cy="147.126" r="9" transform="rotate(-40.0528 61.911 147.126)" fill="#EE4E2F"/>
<circle cx="61.911" cy="147.126" r="9" transform="rotate(-40.0528 61.911 147.126)" fill="#EE4E2F"/>
<circle cx="24.9657" cy="131.152" r="9" transform="rotate(-40.0528 24.9657 131.152)" fill="#D3BBA3"/>
<circle cx="12.4819" cy="977.642" r="9" transform="rotate(-10.44 12.4819 977.642)" fill="#EE4E2F"/>
<circle cx="12.4819" cy="977.642" r="9" transform="rotate(-10.44 12.4819 977.642)" fill="#EE4E2F"/>
<circle cx="12.4819" cy="977.642" r="9" transform="rotate(-10.44 12.4819 977.642)" fill="#EE4E2F"/>
<circle cx="69.808" cy="1012.84" r="9" transform="rotate(-10.44 69.808 1012.84)" fill="#EE4E2F"/>
<circle cx="69.808" cy="1012.84" r="9" transform="rotate(-10.44 69.808 1012.84)" fill="#EE4E2F"/>
<circle cx="69.808" cy="1012.84" r="9" transform="rotate(-10.44 69.808 1012.84)" fill="#EE4E2F"/>
<circle cx="127.134" cy="1048.03" r="9" transform="rotate(-10.44 127.134 1048.03)" fill="#EE4E2F"/>
<circle cx="127.134" cy="1048.03" r="9" transform="rotate(-10.44 127.134 1048.03)" fill="#EE4E2F"/>
<circle cx="127.134" cy="1048.03" r="9" transform="rotate(-10.44 127.134 1048.03)" fill="#EE4E2F"/>
<circle cx="184.462" cy="1083.23" r="9" transform="rotate(-10.44 184.462 1083.23)" fill="#EE4E2F"/>
<circle cx="184.462" cy="1083.23" r="9" transform="rotate(-10.44 184.462 1083.23)" fill="#EE4E2F"/>
<circle cx="184.462" cy="1083.23" r="9" transform="rotate(-10.44 184.462 1083.23)" fill="#EE4E2F"/>
<circle cx="241.788" cy="1118.42" r="9" transform="rotate(-10.44 241.788 1118.42)" fill="#EE4E2F"/>
<circle cx="241.788" cy="1118.42" r="9" transform="rotate(-10.44 241.788 1118.42)" fill="#EE4E2F"/>
<circle cx="241.788" cy="1118.42" r="9" transform="rotate(-10.44 241.788 1118.42)" fill="#EE4E2F"/>
<circle cx="299.115" cy="1153.62" r="9" transform="rotate(-10.44 299.115 1153.62)" fill="#EE4E2F"/>
<circle cx="299.115" cy="1153.62" r="9" transform="rotate(-10.44 299.115 1153.62)" fill="#EE4E2F"/>
<circle cx="299.115" cy="1153.62" r="9" transform="rotate(-10.44 299.115 1153.62)" fill="#EE4E2F"/>
<circle cx="356.441" cy="1188.81" r="9" transform="rotate(-10.44 356.441 1188.81)" fill="#EE4E2F"/>
<circle cx="356.441" cy="1188.81" r="9" transform="rotate(-10.44 356.441 1188.81)" fill="#EE4E2F"/>
<circle cx="356.441" cy="1188.81" r="9" transform="rotate(-10.44 356.441 1188.81)" fill="#EE4E2F"/>
<circle cx="45.5834" cy="980.695" r="9" transform="rotate(-10.44 45.5834 980.695)" fill="#D3BBA3"/>
<circle cx="102.91" cy="1015.89" r="9" transform="rotate(-10.44 102.91 1015.89)" fill="#D3BBA3"/>
<circle cx="160.236" cy="1051.08" r="9" transform="rotate(-10.44 160.236 1051.08)" fill="#D3BBA3"/>
<circle cx="217.562" cy="1086.28" r="9" transform="rotate(-10.44 217.562 1086.28)" fill="#D3BBA3"/>
<circle cx="274.89" cy="1121.47" r="9" transform="rotate(-10.44 274.89 1121.47)" fill="#D3BBA3"/>
<circle cx="332.216" cy="1156.67" r="9" transform="rotate(-10.44 332.216 1156.67)" fill="#D3BBA3"/>
<circle cx="389.542" cy="1191.86" r="9" transform="rotate(-10.44 389.542 1191.86)" fill="#D3BBA3"/>
<circle cx="12.1147" cy="1365.62" r="9" transform="rotate(-10.44 12.1147 1365.62)" fill="#EE4E2F"/>
<circle cx="12.1147" cy="1365.62" r="9" transform="rotate(-10.44 12.1147 1365.62)" fill="#EE4E2F"/>
<circle cx="12.1147" cy="1365.62" r="9" transform="rotate(-10.44 12.1147 1365.62)" fill="#EE4E2F"/>
<circle cx="69.4408" cy="1400.81" r="9" transform="rotate(-10.44 69.4408 1400.81)" fill="#EE4E2F"/>
<circle cx="69.4408" cy="1400.81" r="9" transform="rotate(-10.44 69.4408 1400.81)" fill="#EE4E2F"/>
<circle cx="69.4408" cy="1400.81" r="9" transform="rotate(-10.44 69.4408 1400.81)" fill="#EE4E2F"/>
<circle cx="45.2162" cy="1368.67" r="9" transform="rotate(-10.44 45.2162 1368.67)" fill="#D3BBA3"/>
<circle cx="102.542" cy="1403.86" r="9" transform="rotate(-10.44 102.542 1403.86)" fill="#D3BBA3"/>
<circle cx="26.1342" cy="1434.03" r="9" transform="rotate(-10.44 26.1342 1434.03)" fill="#EE4E2F"/>
<circle cx="26.1342" cy="1434.03" r="9" transform="rotate(-10.44 26.1342 1434.03)" fill="#EE4E2F"/>
<circle cx="26.1342" cy="1434.03" r="9" transform="rotate(-10.44 26.1342 1434.03)" fill="#EE4E2F"/>
<circle cx="83.4623" cy="1469.23" r="9" transform="rotate(-10.44 83.4623 1469.23)" fill="#EE4E2F"/>
<circle cx="83.4623" cy="1469.23" r="9" transform="rotate(-10.44 83.4623 1469.23)" fill="#EE4E2F"/>
<circle cx="83.4623" cy="1469.23" r="9" transform="rotate(-10.44 83.4623 1469.23)" fill="#EE4E2F"/>
<circle cx="1.9096" cy="1401.89" r="9" transform="rotate(-10.44 1.9096 1401.89)" fill="#D3BBA3"/>
<circle cx="59.2358" cy="1437.08" r="9" transform="rotate(-10.44 59.2358 1437.08)" fill="#D3BBA3"/>
<circle cx="116.562" cy="1472.28" r="9" transform="rotate(-10.44 116.562 1472.28)" fill="#D3BBA3"/>
<circle cx="9.48186" cy="1476.34" r="9" transform="rotate(-10.44 9.48186 1476.34)" fill="#EE4E2F"/>
<circle cx="9.48186" cy="1476.34" r="9" transform="rotate(-10.44 9.48186 1476.34)" fill="#EE4E2F"/>
<circle cx="9.48186" cy="1476.34" r="9" transform="rotate(-10.44 9.48186 1476.34)" fill="#EE4E2F"/>
<circle cx="42.5834" cy="1479.39" r="9" transform="rotate(-10.44 42.5834 1479.39)" fill="#D3BBA3"/>
<circle cx="130.482" cy="1422.28" r="9" transform="rotate(-10.44 130.482 1422.28)" fill="#EE4E2F"/>
<circle cx="130.482" cy="1422.28" r="9" transform="rotate(-10.44 130.482 1422.28)" fill="#EE4E2F"/>
<circle cx="130.482" cy="1422.28" r="9" transform="rotate(-10.44 130.482 1422.28)" fill="#EE4E2F"/>
<circle cx="163.583" cy="1425.33" r="9" transform="rotate(-10.44 163.583 1425.33)" fill="#D3BBA3"/>
<circle cx="35.7866" cy="1200.42" r="9" transform="rotate(-10.44 35.7866 1200.42)" fill="#EE4E2F"/>
<circle cx="35.7866" cy="1200.42" r="9" transform="rotate(-10.44 35.7866 1200.42)" fill="#EE4E2F"/>
<circle cx="35.7866" cy="1200.42" r="9" transform="rotate(-10.44 35.7866 1200.42)" fill="#EE4E2F"/>
<circle cx="93.1127" cy="1235.62" r="9" transform="rotate(-10.44 93.1127 1235.62)" fill="#EE4E2F"/>
<circle cx="93.1127" cy="1235.62" r="9" transform="rotate(-10.44 93.1127 1235.62)" fill="#EE4E2F"/>
<circle cx="93.1127" cy="1235.62" r="9" transform="rotate(-10.44 93.1127 1235.62)" fill="#EE4E2F"/>
<circle cx="150.439" cy="1270.81" r="9" transform="rotate(-10.44 150.439 1270.81)" fill="#EE4E2F"/>
<circle cx="150.439" cy="1270.81" r="9" transform="rotate(-10.44 150.439 1270.81)" fill="#EE4E2F"/>
<circle cx="150.439" cy="1270.81" r="9" transform="rotate(-10.44 150.439 1270.81)" fill="#EE4E2F"/>
<circle cx="11.56" cy="1168.28" r="9" transform="rotate(-10.44 11.56 1168.28)" fill="#D3BBA3"/>
<circle cx="68.8881" cy="1203.47" r="9" transform="rotate(-10.44 68.8881 1203.47)" fill="#D3BBA3"/>
<circle cx="126.214" cy="1238.67" r="9" transform="rotate(-10.44 126.214 1238.67)" fill="#D3BBA3"/>
<circle cx="183.54" cy="1273.86" r="9" transform="rotate(-10.44 183.54 1273.86)" fill="#D3BBA3"/>
<circle cx="201.48" cy="1305.48" r="9" transform="rotate(-10.44 201.48 1305.48)" fill="#EE4E2F"/>
<circle cx="201.48" cy="1305.48" r="9" transform="rotate(-10.44 201.48 1305.48)" fill="#EE4E2F"/>
<circle cx="201.48" cy="1305.48" r="9" transform="rotate(-10.44 201.48 1305.48)" fill="#EE4E2F"/>
<circle cx="234.581" cy="1308.53" r="9" transform="rotate(-10.44 234.581 1308.53)" fill="#D3BBA3"/>
<circle cx="8.47991" cy="895.482" r="9" transform="rotate(-10.44 8.47991 895.482)" fill="#EE4E2F"/>
<circle cx="8.47991" cy="895.482" r="9" transform="rotate(-10.44 8.47991 895.482)" fill="#EE4E2F"/>
<circle cx="8.47991" cy="895.482" r="9" transform="rotate(-10.44 8.47991 895.482)" fill="#EE4E2F"/>
<circle cx="41.5834" cy="898.534" r="9" transform="rotate(-10.44 41.5834 898.534)" fill="#D3BBA3"/>
<circle cx="5.7885" cy="1247.38" r="9" transform="rotate(-10.44 5.7885 1247.38)" fill="#EE4E2F"/>
<circle cx="5.7885" cy="1247.38" r="9" transform="rotate(-10.44 5.7885 1247.38)" fill="#EE4E2F"/>
<circle cx="5.7885" cy="1247.38" r="9" transform="rotate(-10.44 5.7885 1247.38)" fill="#EE4E2F"/>
<circle cx="63.1147" cy="1282.57" r="9" transform="rotate(-10.44 63.1147 1282.57)" fill="#EE4E2F"/>
<circle cx="63.1147" cy="1282.57" r="9" transform="rotate(-10.44 63.1147 1282.57)" fill="#EE4E2F"/>
<circle cx="63.1147" cy="1282.57" r="9" transform="rotate(-10.44 63.1147 1282.57)" fill="#EE4E2F"/>
<circle cx="120.441" cy="1317.77" r="9" transform="rotate(-10.44 120.441 1317.77)" fill="#EE4E2F"/>
<circle cx="120.441" cy="1317.77" r="9" transform="rotate(-10.44 120.441 1317.77)" fill="#EE4E2F"/>
<circle cx="120.441" cy="1317.77" r="9" transform="rotate(-10.44 120.441 1317.77)" fill="#EE4E2F"/>
<circle cx="38.8901" cy="1250.43" r="9" transform="rotate(-10.44 38.8901 1250.43)" fill="#D3BBA3"/>
<circle cx="96.2162" cy="1285.63" r="9" transform="rotate(-10.44 96.2162 1285.63)" fill="#D3BBA3"/>
<circle cx="153.542" cy="1320.82" r="9" transform="rotate(-10.44 153.542 1320.82)" fill="#D3BBA3"/>
<circle cx="171.482" cy="1352.44" r="9" transform="rotate(-10.44 171.482 1352.44)" fill="#EE4E2F"/>
<circle cx="171.482" cy="1352.44" r="9" transform="rotate(-10.44 171.482 1352.44)" fill="#EE4E2F"/>
<circle cx="171.482" cy="1352.44" r="9" transform="rotate(-10.44 171.482 1352.44)" fill="#EE4E2F"/>
<circle cx="204.583" cy="1355.49" r="9" transform="rotate(-10.44 204.583 1355.49)" fill="#D3BBA3"/>
<circle cx="32.4623" cy="1126.18" r="9" transform="rotate(-10.44 32.4623 1126.18)" fill="#EE4E2F"/>
<circle cx="32.4623" cy="1126.18" r="9" transform="rotate(-10.44 32.4623 1126.18)" fill="#EE4E2F"/>
<circle cx="32.4623" cy="1126.18" r="9" transform="rotate(-10.44 32.4623 1126.18)" fill="#EE4E2F"/>
<circle cx="89.7885" cy="1161.38" r="9" transform="rotate(-10.44 89.7885 1161.38)" fill="#EE4E2F"/>
<circle cx="89.7885" cy="1161.38" r="9" transform="rotate(-10.44 89.7885 1161.38)" fill="#EE4E2F"/>
<circle cx="89.7885" cy="1161.38" r="9" transform="rotate(-10.44 89.7885 1161.38)" fill="#EE4E2F"/>
<circle cx="147.115" cy="1196.57" r="9" transform="rotate(-10.44 147.115 1196.57)" fill="#EE4E2F"/>
<circle cx="147.115" cy="1196.57" r="9" transform="rotate(-10.44 147.115 1196.57)" fill="#EE4E2F"/>
<circle cx="147.115" cy="1196.57" r="9" transform="rotate(-10.44 147.115 1196.57)" fill="#EE4E2F"/>
<circle cx="204.441" cy="1231.77" r="9" transform="rotate(-10.44 204.441 1231.77)" fill="#EE4E2F"/>
<circle cx="204.441" cy="1231.77" r="9" transform="rotate(-10.44 204.441 1231.77)" fill="#EE4E2F"/>
<circle cx="204.441" cy="1231.77" r="9" transform="rotate(-10.44 204.441 1231.77)" fill="#EE4E2F"/>
<circle cx="8.23577" cy="1094.04" r="9" transform="rotate(-10.44 8.23577 1094.04)" fill="#D3BBA3"/>
<circle cx="65.5619" cy="1129.24" r="9" transform="rotate(-10.44 65.5619 1129.24)" fill="#D3BBA3"/>
<circle cx="122.89" cy="1164.43" r="9" transform="rotate(-10.44 122.89 1164.43)" fill="#D3BBA3"/>
<circle cx="180.216" cy="1199.63" r="9" transform="rotate(-10.44 180.216 1199.63)" fill="#D3BBA3"/>
<circle cx="237.542" cy="1234.82" r="9" transform="rotate(-10.44 237.542 1234.82)" fill="#D3BBA3"/>
<circle cx="255.482" cy="1266.44" r="9" transform="rotate(-10.44 255.482 1266.44)" fill="#EE4E2F"/>
<circle cx="255.482" cy="1266.44" r="9" transform="rotate(-10.44 255.482 1266.44)" fill="#EE4E2F"/>
<circle cx="255.482" cy="1266.44" r="9" transform="rotate(-10.44 255.482 1266.44)" fill="#EE4E2F"/>
<circle cx="288.583" cy="1269.49" r="9" transform="rotate(-10.44 288.583 1269.49)" fill="#D3BBA3"/>
<circle cx="11.1342" cy="1055.99" r="9" transform="rotate(-10.44 11.1342 1055.99)" fill="#EE4E2F"/>
<circle cx="11.1342" cy="1055.99" r="9" transform="rotate(-10.44 11.1342 1055.99)" fill="#EE4E2F"/>
<circle cx="11.1342" cy="1055.99" r="9" transform="rotate(-10.44 11.1342 1055.99)" fill="#EE4E2F"/>
<circle cx="68.4623" cy="1091.18" r="9" transform="rotate(-10.44 68.4623 1091.18)" fill="#EE4E2F"/>
<circle cx="68.4623" cy="1091.18" r="9" transform="rotate(-10.44 68.4623 1091.18)" fill="#EE4E2F"/>
<circle cx="68.4623" cy="1091.18" r="9" transform="rotate(-10.44 68.4623 1091.18)" fill="#EE4E2F"/>
<circle cx="125.789" cy="1126.38" r="9" transform="rotate(-10.44 125.789 1126.38)" fill="#EE4E2F"/>
<circle cx="125.789" cy="1126.38" r="9" transform="rotate(-10.44 125.789 1126.38)" fill="#EE4E2F"/>
<circle cx="125.789" cy="1126.38" r="9" transform="rotate(-10.44 125.789 1126.38)" fill="#EE4E2F"/>
<circle cx="183.115" cy="1161.57" r="9" transform="rotate(-10.44 183.115 1161.57)" fill="#EE4E2F"/>
<circle cx="183.115" cy="1161.57" r="9" transform="rotate(-10.44 183.115 1161.57)" fill="#EE4E2F"/>
<circle cx="183.115" cy="1161.57" r="9" transform="rotate(-10.44 183.115 1161.57)" fill="#EE4E2F"/>
<circle cx="240.441" cy="1196.77" r="9" transform="rotate(-10.44 240.441 1196.77)" fill="#EE4E2F"/>
<circle cx="240.441" cy="1196.77" r="9" transform="rotate(-10.44 240.441 1196.77)" fill="#EE4E2F"/>
<circle cx="240.441" cy="1196.77" r="9" transform="rotate(-10.44 240.441 1196.77)" fill="#EE4E2F"/>
<circle cx="44.2358" cy="1059.04" r="9" transform="rotate(-10.44 44.2358 1059.04)" fill="#D3BBA3"/>
<circle cx="101.562" cy="1094.24" r="9" transform="rotate(-10.44 101.562 1094.24)" fill="#D3BBA3"/>
<circle cx="158.89" cy="1129.43" r="9" transform="rotate(-10.44 158.89 1129.43)" fill="#D3BBA3"/>
<circle cx="216.216" cy="1164.63" r="9" transform="rotate(-10.44 216.216 1164.63)" fill="#D3BBA3"/>
<circle cx="273.542" cy="1199.82" r="9" transform="rotate(-10.44 273.542 1199.82)" fill="#D3BBA3"/>
<circle cx="291.482" cy="1231.44" r="9" transform="rotate(-10.44 291.482 1231.44)" fill="#EE4E2F"/>
<circle cx="291.482" cy="1231.44" r="9" transform="rotate(-10.44 291.482 1231.44)" fill="#EE4E2F"/>
<circle cx="291.482" cy="1231.44" r="9" transform="rotate(-10.44 291.482 1231.44)" fill="#EE4E2F"/>
<circle cx="324.583" cy="1234.49" r="9" transform="rotate(-10.44 324.583 1234.49)" fill="#D3BBA3"/>
<circle cx="37.1147" cy="1326.57" r="9" transform="rotate(-10.44 37.1147 1326.57)" fill="#EE4E2F"/>
<circle cx="37.1147" cy="1326.57" r="9" transform="rotate(-10.44 37.1147 1326.57)" fill="#EE4E2F"/>
<circle cx="37.1147" cy="1326.57" r="9" transform="rotate(-10.44 37.1147 1326.57)" fill="#EE4E2F"/>
<circle cx="94.4408" cy="1361.77" r="9" transform="rotate(-10.44 94.4408 1361.77)" fill="#EE4E2F"/>
<circle cx="94.4408" cy="1361.77" r="9" transform="rotate(-10.44 94.4408 1361.77)" fill="#EE4E2F"/>
<circle cx="94.4408" cy="1361.77" r="9" transform="rotate(-10.44 94.4408 1361.77)" fill="#EE4E2F"/>
<circle cx="12.8901" cy="1294.43" r="9" transform="rotate(-10.44 12.8901 1294.43)" fill="#D3BBA3"/>
<circle cx="70.2162" cy="1329.63" r="9" transform="rotate(-10.44 70.2162 1329.63)" fill="#D3BBA3"/>
<circle cx="127.542" cy="1364.82" r="9" transform="rotate(-10.44 127.542 1364.82)" fill="#D3BBA3"/>
<circle cx="145.482" cy="1396.44" r="9" transform="rotate(-10.44 145.482 1396.44)" fill="#EE4E2F"/>
<circle cx="145.482" cy="1396.44" r="9" transform="rotate(-10.44 145.482 1396.44)" fill="#EE4E2F"/>
<circle cx="145.482" cy="1396.44" r="9" transform="rotate(-10.44 145.482 1396.44)" fill="#EE4E2F"/>
<circle cx="178.583" cy="1399.49" r="9" transform="rotate(-10.44 178.583 1399.49)" fill="#D3BBA3"/>
<circle cx="395.202" cy="943.856" r="9" transform="rotate(-7.72277 395.202 943.856)" fill="#D3BBA3"/>
<circle cx="469" cy="1028" r="9" fill="#EE4E2F"/>
<circle cx="469" cy="1028" r="9" fill="#EE4E2F"/>
<circle cx="469" cy="1028" r="9" fill="#EE4E2F"/>
<circle cx="401" cy="991" r="9" fill="#EE4E2F"/>
<circle cx="401" cy="991" r="9" fill="#EE4E2F"/>
<circle cx="401" cy="991" r="9" fill="#EE4E2F"/>
<circle cx="497" cy="1029" r="9" fill="#D3BBA3"/>
<circle cx="433" cy="1000" r="9" fill="#D3BBA3"/>
<circle cx="428" cy="1081" r="9" fill="#EE4E2F"/>
<circle cx="428" cy="1081" r="9" fill="#EE4E2F"/>
<circle cx="428" cy="1081" r="9" fill="#EE4E2F"/>
<circle cx="360" cy="1044" r="9" fill="#EE4E2F"/>
<circle cx="360" cy="1044" r="9" fill="#EE4E2F"/>
<circle cx="360" cy="1044" r="9" fill="#EE4E2F"/>
<circle cx="460" cy="1090" r="9" fill="#D3BBA3"/>
<circle cx="392" cy="1053" r="9" fill="#D3BBA3"/>
<circle cx="474" cy="963" r="9" fill="#EE4E2F"/>
<circle cx="474" cy="963" r="9" fill="#EE4E2F"/>
<circle cx="474" cy="963" r="9" fill="#EE4E2F"/>
<circle cx="406" cy="926" r="9" fill="#EE4E2F"/>
<circle cx="406" cy="926" r="9" fill="#EE4E2F"/>
<circle cx="406" cy="926" r="9" fill="#EE4E2F"/>
<circle cx="506" cy="972" r="9" fill="#D3BBA3"/>
<circle cx="438" cy="935" r="9" fill="#D3BBA3"/>
<circle cx="365" cy="963" r="9" fill="#D3BBA3"/>
<circle cx="297" cy="926" r="9" fill="#D3BBA3"/>
<circle cx="229" cy="889" r="9" fill="#D3BBA3"/>
<circle cx="161" cy="852" r="9" fill="#D3BBA3"/>
<circle cx="93" cy="815" r="9" fill="#D3BBA3"/>
<circle cx="25" cy="778" r="9" fill="#D3BBA3"/>
<circle cx="53" cy="595" r="9" fill="#EE4E2F"/>
<circle cx="53" cy="595" r="9" fill="#EE4E2F"/>
<circle cx="53" cy="595" r="9" fill="#EE4E2F"/>
<circle cy="570" r="9" fill="#EE4E2F"/>
<circle cy="570" r="9" fill="#EE4E2F"/>
<circle cy="570" r="9" fill="#EE4E2F"/>
<circle cx="85" cy="604" r="9" fill="#D3BBA3"/>
<circle cx="32" cy="579" r="9" fill="#D3BBA3"/>
<circle cx="149.731" cy="678.3" r="9" transform="rotate(25.3899 149.731 678.3)" fill="#EE4E2F"/>
<circle cx="149.731" cy="678.3" r="9" transform="rotate(25.3899 149.731 678.3)" fill="#EE4E2F"/>
<circle cx="149.731" cy="678.3" r="9" transform="rotate(25.3899 149.731 678.3)" fill="#EE4E2F"/>
<circle cx="112.569" cy="632.99" r="9" transform="rotate(25.3899 112.569 632.99)" fill="#EE4E2F"/>
<circle cx="112.569" cy="632.99" r="9" transform="rotate(25.3899 112.569 632.99)" fill="#EE4E2F"/>
<circle cx="112.569" cy="632.99" r="9" transform="rotate(25.3899 112.569 632.99)" fill="#EE4E2F"/>
<circle cx="174.78" cy="700.152" r="9" transform="rotate(25.3899 174.78 700.152)" fill="#D3BBA3"/>
<circle cx="137.619" cy="654.841" r="9" transform="rotate(25.3899 137.619 654.841)" fill="#D3BBA3"/>
<circle cx="292.076" cy="760.152" r="9" transform="rotate(25.3899 292.076 760.152)" fill="#D3BBA3"/>
<circle cx="203.848" cy="711.99" r="9" transform="rotate(25.3899 203.848 711.99)" fill="#EE4E2F"/>
<circle cx="203.848" cy="711.99" r="9" transform="rotate(25.3899 203.848 711.99)" fill="#EE4E2F"/>
<circle cx="203.848" cy="711.99" r="9" transform="rotate(25.3899 203.848 711.99)" fill="#EE4E2F"/>
<circle cx="228.899" cy="733.841" r="9" transform="rotate(25.3899 228.899 733.841)" fill="#D3BBA3"/>
<circle cx="39" cy="380" r="9" fill="#D3BBA3"/>
<circle cx="46" cy="181" r="9" fill="#D3BBA3"/>
<circle cx="28" cy="268" r="9" fill="#D3BBA3"/>
<circle cx="44" cy="319" r="9" fill="#D3BBA3"/>
<circle cx="100" cy="405" r="9" fill="#D3BBA3"/>
<circle cx="156" cy="491" r="9" fill="#D3BBA3"/>
<circle cx="180" cy="568" r="9" fill="#EE4E2F"/>
<circle cx="180" cy="568" r="9" fill="#EE4E2F"/>
<circle cx="180" cy="568" r="9" fill="#EE4E2F"/>
<circle cx="212" cy="577" r="9" fill="#D3BBA3"/>
<circle cx="251" cy="579" r="9" fill="#EE4E2F"/>
<circle cx="251" cy="579" r="9" fill="#EE4E2F"/>
<circle cx="251" cy="579" r="9" fill="#EE4E2F"/>
<circle cx="283" cy="588" r="9" fill="#D3BBA3"/>
<circle cx="322" cy="590" r="9" fill="#EE4E2F"/>
<circle cx="322" cy="590" r="9" fill="#EE4E2F"/>
<circle cx="322" cy="590" r="9" fill="#EE4E2F"/>
<circle cx="354" cy="599" r="9" fill="#D3BBA3"/>
<circle cx="393" cy="601" r="9" fill="#EE4E2F"/>
<circle cx="393" cy="601" r="9" fill="#EE4E2F"/>
<circle cx="393" cy="601" r="9" fill="#EE4E2F"/>
<circle cx="425" cy="610" r="9" fill="#D3BBA3"/>
<circle cx="350" cy="645" r="9" fill="#EE4E2F"/>
<circle cx="350" cy="645" r="9" fill="#EE4E2F"/>
<circle cx="350" cy="645" r="9" fill="#EE4E2F"/>
<circle cx="382" cy="654" r="9" fill="#D3BBA3"/>
<circle cx="393" cy="550" r="9" fill="#EE4E2F"/>
<circle cx="393" cy="550" r="9" fill="#EE4E2F"/>
<circle cx="393" cy="550" r="9" fill="#EE4E2F"/>
<circle cx="425" cy="559" r="9" fill="#D3BBA3"/>
<circle cx="267" cy="639" r="9" fill="#EE4E2F"/>
<circle cx="267" cy="639" r="9" fill="#EE4E2F"/>
<circle cx="267" cy="639" r="9" fill="#EE4E2F"/>
<circle cx="299" cy="648" r="9" fill="#D3BBA3"/>
<circle cx="464" cy="612" r="9" fill="#EE4E2F"/>
<circle cx="464" cy="612" r="9" fill="#EE4E2F"/>
<circle cx="464" cy="612" r="9" fill="#EE4E2F"/>
<circle cx="430" cy="652" r="9" fill="#EE4E2F"/>
<circle cx="430" cy="652" r="9" fill="#EE4E2F"/>
<circle cx="430" cy="652" r="9" fill="#EE4E2F"/>
<circle cx="462" cy="661" r="9" fill="#D3BBA3"/>
<circle cx="407" cy="699" r="9" fill="#EE4E2F"/>
<circle cx="407" cy="699" r="9" fill="#EE4E2F"/>
<circle cx="407" cy="699" r="9" fill="#EE4E2F"/>
<circle cx="439" cy="708" r="9" fill="#D3BBA3"/>
<circle cx="380" cy="744" r="9" fill="#EE4E2F"/>
<circle cx="380" cy="744" r="9" fill="#EE4E2F"/>
<circle cx="380" cy="744" r="9" fill="#EE4E2F"/>
<circle cx="412" cy="753" r="9" fill="#D3BBA3"/>
<circle cx="496" cy="684" r="9" fill="#EE4E2F"/>
<circle cx="496" cy="684" r="9" fill="#EE4E2F"/>
<circle cx="496" cy="684" r="9" fill="#EE4E2F"/>
<circle cx="462" cy="724" r="9" fill="#EE4E2F"/>
<circle cx="462" cy="724" r="9" fill="#EE4E2F"/>
<circle cx="462" cy="724" r="9" fill="#EE4E2F"/>
<circle cx="494" cy="733" r="9" fill="#D3BBA3"/>
<circle cx="439" cy="771" r="9" fill="#EE4E2F"/>
<circle cx="439" cy="771" r="9" fill="#EE4E2F"/>
<circle cx="439" cy="771" r="9" fill="#EE4E2F"/>
<circle cx="471" cy="780" r="9" fill="#D3BBA3"/>
<circle cx="412" cy="816" r="9" fill="#EE4E2F"/>
<circle cx="412" cy="816" r="9" fill="#EE4E2F"/>
<circle cx="412" cy="816" r="9" fill="#EE4E2F"/>
<circle cx="444" cy="825" r="9" fill="#D3BBA3"/>
<circle cx="499" cy="807" r="9" fill="#EE4E2F"/>
<circle cx="499" cy="807" r="9" fill="#EE4E2F"/>
<circle cx="499" cy="807" r="9" fill="#EE4E2F"/>
<circle cx="472" cy="852" r="9" fill="#EE4E2F"/>
<circle cx="472" cy="852" r="9" fill="#EE4E2F"/>
<circle cx="472" cy="852" r="9" fill="#EE4E2F"/>
<circle cx="504" cy="861" r="9" fill="#D3BBA3"/>
<circle cx="315" cy="702" r="9" fill="#EE4E2F"/>
<circle cx="315" cy="702" r="9" fill="#EE4E2F"/>
<circle cx="315" cy="702" r="9" fill="#EE4E2F"/>
<circle cx="347" cy="711" r="9" fill="#D3BBA3"/>
<circle cx="74" cy="337" r="9" fill="#EE4E2F"/>
<circle cx="74" cy="337" r="9" fill="#EE4E2F"/>
<circle cx="74" cy="337" r="9" fill="#EE4E2F"/>
<circle cx="106" cy="346" r="9" fill="#D3BBA3"/>
<circle cx="151" cy="328" r="9" fill="#EE4E2F"/>
<circle cx="151" cy="328" r="9" fill="#EE4E2F"/>
<circle cx="151" cy="328" r="9" fill="#EE4E2F"/>
<circle cx="183" cy="337" r="9" fill="#D3BBA3"/>
<circle cx="228" cy="319" r="9" fill="#EE4E2F"/>
<circle cx="228" cy="319" r="9" fill="#EE4E2F"/>
<circle cx="228" cy="319" r="9" fill="#EE4E2F"/>
<circle cx="260" cy="328" r="9" fill="#D3BBA3"/>
<circle cx="305" cy="310" r="9" fill="#EE4E2F"/>
<circle cx="305" cy="310" r="9" fill="#EE4E2F"/>
<circle cx="305" cy="310" r="9" fill="#EE4E2F"/>
<circle cx="337" cy="319" r="9" fill="#D3BBA3"/>
<circle cx="382" cy="301" r="9" fill="#EE4E2F"/>
<circle cx="382" cy="301" r="9" fill="#EE4E2F"/>
<circle cx="382" cy="301" r="9" fill="#EE4E2F"/>
<circle cx="128" cy="393" r="9" fill="#EE4E2F"/>
<circle cx="128" cy="393" r="9" fill="#EE4E2F"/>
<circle cx="128" cy="393" r="9" fill="#EE4E2F"/>
<circle cx="160" cy="402" r="9" fill="#D3BBA3"/>
<circle cx="194" cy="380" r="9" fill="#EE4E2F"/>
<circle cx="194" cy="380" r="9" fill="#EE4E2F"/>
<circle cx="194" cy="380" r="9" fill="#EE4E2F"/>
<circle cx="226" cy="389" r="9" fill="#D3BBA3"/>
<circle cx="260" cy="367" r="9" fill="#EE4E2F"/>
<circle cx="260" cy="367" r="9" fill="#EE4E2F"/>
<circle cx="260" cy="367" r="9" fill="#EE4E2F"/>
<circle cx="292" cy="376" r="9" fill="#D3BBA3"/>
<circle cx="326" cy="354" r="9" fill="#EE4E2F"/>
<circle cx="326" cy="354" r="9" fill="#EE4E2F"/>
<circle cx="326" cy="354" r="9" fill="#EE4E2F"/>
<circle cx="358" cy="363" r="9" fill="#D3BBA3"/>
<circle cx="364" cy="407" r="9" fill="#EE4E2F"/>
<circle cx="364" cy="407" r="9" fill="#EE4E2F"/>
<circle cx="364" cy="407" r="9" fill="#EE4E2F"/>
<circle cx="396" cy="416" r="9" fill="#D3BBA3"/>
<circle cx="310" cy="423" r="9" fill="#EE4E2F"/>
<circle cx="310" cy="423" r="9" fill="#EE4E2F"/>
<circle cx="310" cy="423" r="9" fill="#EE4E2F"/>
<circle cx="342" cy="432" r="9" fill="#D3BBA3"/>
<circle cx="219" cy="425" r="9" fill="#EE4E2F"/>
<circle cx="219" cy="425" r="9" fill="#EE4E2F"/>
<circle cx="219" cy="425" r="9" fill="#EE4E2F"/>
<circle cx="251" cy="434" r="9" fill="#D3BBA3"/>
<circle cx="142" cy="427" r="9" fill="#EE4E2F"/>
<circle cx="142" cy="427" r="9" fill="#EE4E2F"/>
<circle cx="142" cy="427" r="9" fill="#EE4E2F"/>
<circle cx="174" cy="436" r="9" fill="#D3BBA3"/>
<path d="M516 803C516 932.77 542.148 1040.59 436.074 1159.38C376.979 1225.56 206 1325.34 188 1408.22C170 1491.1 13.2777 1518 -85.5 1518C-417.699 1518 -687 1197.88 -687 803C-687 408.116 -417.699 88 -85.5 88C31.8902 88 90 177.655 234 197.095C268.586 201.764 308 231.448 356 256.389C387.898 285.391 411.382 324.443 410.32 372.655C408.99 433.063 422 556.448 473.99 608C525.981 659.552 516 742.316 516 803Z" fill="#FFC850" fill-opacity="0.25"/>
</svg>
