<svg width="142" height="20" viewBox="0 0 142 20" fill="none" xmlns="http://www.w3.org/2000/svg">
<path d="M4.256 10.936C4.608 10.552 4.968 10.152 5.336 9.736C5.72 9.32 6.088 8.912 6.44 8.512C6.792 8.096 7.12 7.704 7.424 7.336C7.744 6.968 8.016 6.648 8.24 6.376H12.488C11.64 7.352 10.808 8.288 9.992 9.184C9.192 10.064 8.312 10.976 7.352 11.92C7.832 12.352 8.328 12.872 8.84 13.48C9.352 14.072 9.848 14.688 10.328 15.328C10.808 15.968 11.248 16.608 11.648 17.248C12.048 17.888 12.384 18.472 12.656 19H8.552C8.296 18.584 8 18.128 7.664 17.632C7.344 17.12 7 16.616 6.632 16.12C6.264 15.608 5.872 15.12 5.456 14.656C5.056 14.192 4.656 13.8 4.256 13.48V19H0.68V0.951999L4.256 0.375999V10.936ZM25.1201 18.568C24.5121 18.744 23.7281 18.904 22.7681 19.048C21.8081 19.208 20.8001 19.288 19.7441 19.288C18.6721 19.288 17.7761 19.144 17.0561 18.856C16.3521 18.568 15.7921 18.168 15.3761 17.656C14.9601 17.128 14.6641 16.504 14.4881 15.784C14.3121 15.064 14.2241 14.272 14.2241 13.408V6.376H17.8001V12.976C17.8001 14.128 17.9521 14.96 18.2561 15.472C18.5601 15.984 19.1281 16.24 19.9601 16.24C20.2161 16.24 20.4881 16.232 20.7761 16.216C21.0641 16.184 21.3201 16.152 21.5441 16.12V6.376H25.1201V18.568ZM33.5169 19.24C32.4769 19.224 31.6289 19.112 30.9729 18.904C30.3329 18.696 29.8209 18.408 29.4369 18.04C29.0689 17.656 28.8129 17.2 28.6689 16.672C28.5409 16.128 28.4769 15.52 28.4769 14.848V0.951999L32.0529 0.375999V14.128C32.0529 14.448 32.0769 14.736 32.1249 14.992C32.1729 15.248 32.2609 15.464 32.3889 15.64C32.5329 15.816 32.7329 15.96 32.9889 16.072C33.2449 16.184 33.5889 16.256 34.0209 16.288L33.5169 19.24ZM35.9506 3.232L39.5266 2.656V6.376H43.8226V9.352H39.5266V13.792C39.5266 14.544 39.6546 15.144 39.9106 15.592C40.1826 16.04 40.7186 16.264 41.5186 16.264C41.9026 16.264 42.2946 16.232 42.6946 16.168C43.1106 16.088 43.4866 15.984 43.8226 15.856L44.3266 18.64C43.8946 18.816 43.4146 18.968 42.8866 19.096C42.3586 19.224 41.7106 19.288 40.9426 19.288C39.9666 19.288 39.1586 19.16 38.5186 18.904C37.8786 18.632 37.3666 18.264 36.9826 17.8C36.5986 17.32 36.3266 16.744 36.1666 16.072C36.0226 15.4 35.9506 14.656 35.9506 13.84V3.232ZM57.5107 18.568C56.9027 18.744 56.1187 18.904 55.1587 19.048C54.1987 19.208 53.1907 19.288 52.1347 19.288C51.0627 19.288 50.1667 19.144 49.4467 18.856C48.7427 18.568 48.1827 18.168 47.7667 17.656C47.3507 17.128 47.0547 16.504 46.8787 15.784C46.7027 15.064 46.6147 14.272 46.6147 13.408V6.376H50.1907V12.976C50.1907 14.128 50.3427 14.96 50.6467 15.472C50.9507 15.984 51.5187 16.24 52.3507 16.24C52.6067 16.24 52.8787 16.232 53.1667 16.216C53.4547 16.184 53.7107 16.152 53.9347 16.12V6.376H57.5107V18.568ZM68.4755 9.544C68.1555 9.464 67.7795 9.384 67.3475 9.304C66.9155 9.208 66.4515 9.16 65.9555 9.16C65.7315 9.16 65.4595 9.184 65.1395 9.232C64.8355 9.264 64.6035 9.304 64.4435 9.352V19H60.8675V7.048C61.5075 6.824 62.2595 6.616 63.1235 6.424C64.0035 6.216 64.9795 6.112 66.0515 6.112C66.2435 6.112 66.4755 6.128 66.7475 6.16C67.0195 6.176 67.2915 6.208 67.5635 6.256C67.8355 6.288 68.1075 6.336 68.3795 6.4C68.6515 6.448 68.8835 6.512 69.0755 6.592L68.4755 9.544ZM70.1581 12.784C70.1581 11.664 70.3261 10.688 70.6621 9.856C71.0141 9.008 71.4701 8.304 72.0301 7.744C72.5901 7.184 73.2301 6.76 73.9501 6.472C74.6861 6.184 75.4381 6.04 76.2061 6.04C77.9981 6.04 79.4141 6.592 80.4541 7.696C81.4941 8.784 82.0141 10.392 82.0141 12.52C82.0141 12.728 82.0061 12.96 81.9901 13.216C81.9741 13.456 81.9581 13.672 81.9421 13.864H73.8301C73.9101 14.6 74.2541 15.184 74.8621 15.616C75.4701 16.048 76.2861 16.264 77.3101 16.264C77.9661 16.264 78.6061 16.208 79.2301 16.096C79.8701 15.968 80.3901 15.816 80.7901 15.64L81.2701 18.544C81.0781 18.64 80.8221 18.736 80.5021 18.832C80.1821 18.928 79.8221 19.008 79.4221 19.072C79.0381 19.152 78.6221 19.216 78.1741 19.264C77.7261 19.312 77.2781 19.336 76.8301 19.336C75.6941 19.336 74.7021 19.168 73.8541 18.832C73.0221 18.496 72.3261 18.04 71.7661 17.464C71.2221 16.872 70.8141 16.176 70.5421 15.376C70.2861 14.576 70.1581 13.712 70.1581 12.784ZM78.5581 11.416C78.5421 11.112 78.4861 10.816 78.3901 10.528C78.3101 10.24 78.1741 9.984 77.9821 9.76C77.8061 9.536 77.5741 9.352 77.2861 9.208C77.0141 9.064 76.6701 8.992 76.2541 8.992C75.8541 8.992 75.5101 9.064 75.2221 9.208C74.9341 9.336 74.6941 9.512 74.5021 9.736C74.3101 9.96 74.1581 10.224 74.0461 10.528C73.9501 10.816 73.8781 11.112 73.8301 11.416H78.5581ZM90.2458 0.375999C90.9178 0.375999 91.5338 0.447999 92.0938 0.592C92.6538 0.719999 93.0858 0.847999 93.3898 0.975999L92.6938 3.832C92.3738 3.688 92.0218 3.584 91.6378 3.52C91.2698 3.44 90.9258 3.4 90.6058 3.4C90.1738 3.4 89.8058 3.464 89.5018 3.592C89.2138 3.704 88.9818 3.864 88.8058 4.072C88.6458 4.28 88.5258 4.528 88.4458 4.816C88.3818 5.104 88.3498 5.416 88.3498 5.752V6.376H92.7658V9.352H88.3498V19H84.7738V5.704C84.7738 4.072 85.2298 2.776 86.1418 1.816C87.0698 0.855999 88.4378 0.375999 90.2458 0.375999ZM102.507 9.544C102.187 9.464 101.811 9.384 101.379 9.304C100.947 9.208 100.483 9.16 99.9868 9.16C99.7628 9.16 99.4908 9.184 99.1708 9.232C98.8668 9.264 98.6348 9.304 98.4748 9.352V19H94.8988V7.048C95.5388 6.824 96.2908 6.616 97.1548 6.424C98.0348 6.216 99.0108 6.112 100.083 6.112C100.275 6.112 100.507 6.128 100.779 6.16C101.051 6.176 101.323 6.208 101.595 6.256C101.867 6.288 102.139 6.336 102.411 6.4C102.683 6.448 102.915 6.512 103.107 6.592L102.507 9.544ZM104.189 12.784C104.189 11.664 104.357 10.688 104.693 9.856C105.045 9.008 105.501 8.304 106.061 7.744C106.621 7.184 107.261 6.76 107.981 6.472C108.717 6.184 109.469 6.04 110.237 6.04C112.029 6.04 113.445 6.592 114.485 7.696C115.525 8.784 116.045 10.392 116.045 12.52C116.045 12.728 116.037 12.96 116.021 13.216C116.005 13.456 115.989 13.672 115.973 13.864H107.861C107.941 14.6 108.285 15.184 108.893 15.616C109.501 16.048 110.317 16.264 111.341 16.264C111.997 16.264 112.637 16.208 113.261 16.096C113.901 15.968 114.421 15.816 114.821 15.64L115.301 18.544C115.109 18.64 114.853 18.736 114.533 18.832C114.213 18.928 113.853 19.008 113.453 19.072C113.069 19.152 112.653 19.216 112.205 19.264C111.757 19.312 111.309 19.336 110.861 19.336C109.725 19.336 108.733 19.168 107.885 18.832C107.053 18.496 106.357 18.04 105.797 17.464C105.253 16.872 104.845 16.176 104.573 15.376C104.317 14.576 104.189 13.712 104.189 12.784ZM112.589 11.416C112.573 11.112 112.517 10.816 112.421 10.528C112.341 10.24 112.205 9.984 112.013 9.76C111.837 9.536 111.605 9.352 111.317 9.208C111.045 9.064 110.701 8.992 110.285 8.992C109.885 8.992 109.541 9.064 109.253 9.208C108.965 9.336 108.725 9.512 108.533 9.736C108.341 9.96 108.189 10.224 108.077 10.528C107.981 10.816 107.909 11.112 107.861 11.416H112.589ZM122.429 16.432C123.085 16.432 123.549 16.368 123.821 16.24C124.093 16.112 124.229 15.864 124.229 15.496C124.229 15.208 124.053 14.96 123.701 14.752C123.349 14.528 122.813 14.28 122.093 14.008C121.533 13.8 121.021 13.584 120.557 13.36C120.109 13.136 119.725 12.872 119.405 12.568C119.085 12.248 118.837 11.872 118.661 11.44C118.485 11.008 118.397 10.488 118.397 9.88C118.397 8.696 118.837 7.76 119.717 7.072C120.597 6.384 121.805 6.04 123.341 6.04C124.109 6.04 124.845 6.112 125.549 6.256C126.253 6.384 126.813 6.528 127.229 6.688L126.605 9.472C126.189 9.328 125.733 9.2 125.237 9.088C124.757 8.976 124.213 8.92 123.605 8.92C122.485 8.92 121.925 9.232 121.925 9.856C121.925 10 121.949 10.128 121.997 10.24C122.045 10.352 122.141 10.464 122.285 10.576C122.429 10.672 122.621 10.784 122.861 10.912C123.117 11.024 123.437 11.152 123.821 11.296C124.605 11.584 125.253 11.872 125.765 12.16C126.277 12.432 126.677 12.736 126.965 13.072C127.269 13.392 127.477 13.752 127.589 14.152C127.717 14.552 127.781 15.016 127.781 15.544C127.781 16.792 127.309 17.736 126.365 18.376C125.437 19.016 124.117 19.336 122.405 19.336C121.285 19.336 120.349 19.24 119.597 19.048C118.861 18.856 118.349 18.696 118.061 18.568L118.661 15.664C119.269 15.904 119.893 16.096 120.533 16.24C121.173 16.368 121.805 16.432 122.429 16.432ZM130.453 19V0.951999L134.029 0.375999V6.424C134.269 6.344 134.573 6.272 134.941 6.208C135.325 6.128 135.693 6.088 136.045 6.088C137.069 6.088 137.917 6.232 138.589 6.52C139.277 6.792 139.821 7.184 140.221 7.696C140.637 8.208 140.925 8.816 141.085 9.52C141.261 10.224 141.349 11.008 141.349 11.872V19H137.773V12.304C137.773 11.152 137.621 10.336 137.317 9.856C137.029 9.376 136.485 9.136 135.685 9.136C135.365 9.136 135.061 9.168 134.773 9.232C134.501 9.28 134.253 9.336 134.029 9.4V19H130.453Z" fill="#424242"/>
</svg>
