<svg width="1166" height="2044" viewBox="0 0 1166 2044" fill="none" xmlns="http://www.w3.org/2000/svg">
<rect y="1.6991" width="1165.19" height="2041.34" rx="15" fill="#3F3D56" fill-opacity="0.73"/>
<rect y="176" width="1164" height="180" fill="#D3BBA3"/>
<rect x="44.5879" y="0.763855" width="1110.74" height="179.641" fill="#291200"/>
<path d="M219.355 56.4813L409.322 242.372H29.388L219.355 56.4813Z" fill="#863B37"/>
<path d="M219.444 427.539L33.1124 240.257L413.191 242.788L219.444 427.539Z" fill="#863B37"/>
<path d="M217.539 83.2471L378.125 240.434H56.9522L217.539 83.2471Z" fill="#225D04"/>
<path d="M217.53 396.7L60.0869 238.455L381.238 240.593L217.53 396.7Z" fill="#225D04"/>
<path d="M216.777 113.734L347.898 242.079H85.6556L216.777 113.734Z" fill="#D79000"/>
<path d="M216.767 369.673L88.2117 240.463L350.437 242.21L216.767 369.673Z" fill="#D79000"/>
<path d="M217.028 132.788L328.505 241.906H105.55L217.028 132.788Z" fill="#291200"/>
<path d="M217.022 350.385L107.726 240.532L330.666 242.017L217.022 350.385Z" fill="#291200"/>
<path d="M215.618 155.654L303.032 241.217H128.205L215.618 155.654Z" fill="#D3BBA3"/>
<path d="M215.615 326.279L129.912 240.139L304.728 241.303L215.615 326.279Z" fill="#D3BBA3"/>
<path d="M217.032 178.519L283.82 243.894H150.244L217.032 178.519Z" fill="#291200"/>
<path d="M217.03 308.884L151.549 243.07L285.116 243.959L217.03 308.884Z" fill="#291200"/>
<path d="M597.582 56.567L781.236 234.659H413.929L597.582 56.567Z" fill="#863B37"/>
<path d="M597.572 411.708L417.513 232.417L784.796 234.84L597.572 411.708Z" fill="#863B37"/>
<path d="M595.734 82.1052L750.914 232.586H440.553L595.734 82.1052Z" fill="#225D04"/>
<path d="M595.726 382.186L443.583 230.691L753.922 232.738L595.726 382.186Z" fill="#225D04"/>
<path d="M594.996 111.291L721.703 234.161H468.289L594.996 111.291Z" fill="#D79000"/>
<path d="M594.986 356.312L470.759 232.614L724.156 234.286L594.986 356.312Z" fill="#D79000"/>
<path d="M595.241 129.533L702.966 233.995H487.517L595.241 129.533Z" fill="#291200"/>
<path d="M595.234 337.846L489.618 232.68L705.053 234.101L595.234 337.846Z" fill="#291200"/>
<path d="M593.878 151.423L678.349 233.336H509.408L593.878 151.423Z" fill="#D3BBA3"/>
<path d="M593.876 314.768L511.058 232.304L679.989 233.418L593.876 314.768Z" fill="#D3BBA3"/>
<path d="M595.245 173.313L659.784 235.898H530.705L595.245 173.313Z" fill="#291200"/>
<path d="M595.241 298.116L531.965 235.109L661.035 235.961L595.241 298.116Z" fill="#291200"/>
<path d="M955.306 56.567L1129.54 234.659H781.073L955.306 56.567Z" fill="#863B37"/>
<path d="M955.295 411.708L784.472 232.417L1132.92 234.84L955.295 411.708Z" fill="#863B37"/>
<path d="M953.552 82.1049L1100.77 232.586H806.332L953.552 82.1049Z" fill="#225D04"/>
<path d="M953.543 382.185L809.205 230.691L1103.63 232.738L953.543 382.185Z" fill="#225D04"/>
<path d="M952.85 111.291L1073.06 234.161H832.643L952.85 111.291Z" fill="#D79000"/>
<path d="M952.842 356.312L834.988 232.615L1075.39 234.287L952.842 356.312Z" fill="#D79000"/>
<path d="M953.083 129.533L1055.28 233.995H850.884L953.083 129.533Z" fill="#291200"/>
<path d="M953.075 337.846L852.877 232.68L1057.26 234.102L953.075 337.846Z" fill="#291200"/>
<path d="M951.791 151.423L1031.93 233.336H871.653L951.791 151.423Z" fill="#D3BBA3"/>
<path d="M951.787 314.768L873.218 232.304L1033.48 233.418L951.787 314.768Z" fill="#D3BBA3"/>
<path d="M953.086 173.312L1014.31 235.898H891.857L953.086 173.312Z" fill="#291200"/>
<path d="M953.085 298.116L893.054 235.109L1015.5 235.961L953.085 298.116Z" fill="#291200"/>
<rect y="1" width="1164" height="173" fill="#291200"/>
<ellipse rx="9.89978" ry="9.26893" transform="matrix(-0.999973 0.0073812 -0.00853621 -0.999964 1115.97 157.782)" fill="#E9CDB3"/>
<ellipse rx="9.89978" ry="9.26893" transform="matrix(-0.999973 0.0073812 -0.00853621 -0.999964 1019.88 150.149)" fill="#E9CDB3"/>
<ellipse rx="9.89978" ry="9.26893" transform="matrix(-0.999973 0.0073812 -0.00853621 -0.999964 923.781 142.516)" fill="#E9CDB3"/>
<ellipse rx="9.89978" ry="9.26893" transform="matrix(-0.999973 0.0073812 -0.00853621 -0.999964 827.685 134.883)" fill="#E9CDB3"/>
<ellipse rx="9.89978" ry="9.26893" transform="matrix(-0.999973 0.0073812 -0.00853621 -0.999964 731.59 127.25)" fill="#E9CDB3"/>
<ellipse rx="9.89978" ry="9.26893" transform="matrix(-0.999973 0.0073812 -0.00853621 -0.999964 635.49 119.617)" fill="#E9CDB3"/>
<ellipse rx="9.89978" ry="9.26893" transform="matrix(-0.999973 0.0073812 -0.00853621 -0.999964 539.396 111.985)" fill="#E9CDB3"/>
<ellipse rx="9.89978" ry="9.26893" transform="matrix(-0.999973 0.0073812 -0.00853621 -0.999964 453.326 130.323)" fill="#E9CDB3"/>
<ellipse rx="9.89978" ry="9.26893" transform="matrix(-0.999973 0.0073812 -0.00853621 -0.999964 357.228 122.69)" fill="#E9CDB3"/>
<ellipse rx="9.89978" ry="9.26893" transform="matrix(-0.999973 0.0073812 -0.00853621 -0.999964 261.137 115.058)" fill="#E9CDB3"/>
<ellipse rx="9.89978" ry="9.26893" transform="matrix(-0.999973 0.0073812 -0.00853621 -0.999964 1078.2 139.523)" fill="#E9CDB3"/>
<ellipse rx="9.89978" ry="9.26893" transform="matrix(-0.999973 0.0073812 -0.00853621 -0.999964 982.099 131.89)" fill="#E9CDB3"/>
<ellipse rx="9.89978" ry="9.26893" transform="matrix(-0.999973 0.0073812 -0.00853621 -0.999964 886.004 124.257)" fill="#E9CDB3"/>
<ellipse rx="9.89978" ry="9.26893" transform="matrix(-0.999973 0.0073812 -0.00853621 -0.999964 789.91 116.624)" fill="#D49A52"/>
<ellipse rx="9.89978" ry="9.26893" transform="matrix(-0.999973 0.0073812 -0.00853621 -0.999964 693.812 108.991)" fill="#D49A52"/>
<ellipse rx="9.89978" ry="9.26893" transform="matrix(-0.999973 0.0073812 -0.00853621 -0.999964 597.715 101.358)" fill="#D49A52"/>
<ellipse rx="9.89978" ry="9.26893" transform="matrix(-0.999973 0.0073812 -0.00853621 -0.999964 501.617 93.725)" fill="#D49A52"/>
<ellipse rx="9.89978" ry="9.26893" transform="matrix(-0.999973 0.0073812 -0.00853621 -0.999964 415.549 112.064)" fill="#D49A52"/>
<ellipse rx="9.89978" ry="9.26893" transform="matrix(-0.999973 0.0073812 -0.00853621 -0.999964 319.453 104.431)" fill="#D49A52"/>
<ellipse rx="9.89978" ry="9.26893" transform="matrix(-0.999973 0.0073812 -0.00853621 -0.999964 223.357 96.7981)" fill="#D49A52"/>
<ellipse rx="9.89978" ry="9.26893" transform="matrix(-0.999973 0.0073812 -0.00853621 -0.999964 127.26 89.1655)" fill="#D49A52"/>
<ellipse rx="9.89978" ry="9.26893" transform="matrix(-0.999973 0.0073812 -0.00853621 -0.999964 1053.72 171.218)" fill="#D49A52"/>
<ellipse rx="9.89978" ry="9.26893" transform="matrix(-0.999973 0.0073812 -0.00853621 -0.999964 957.621 163.585)" fill="#D49A52"/>
<ellipse rx="9.89978" ry="9.26893" transform="matrix(-0.999973 0.0073812 -0.00853621 -0.999964 861.525 155.953)" fill="#D49A52"/>
<ellipse rx="9.89978" ry="9.26893" transform="matrix(-0.999973 0.0073812 -0.00853621 -0.999964 1082.73 171.411)" fill="#D49A52"/>
<ellipse rx="9.89978" ry="9.26893" transform="matrix(-0.999973 0.0073812 -0.00853621 -0.999964 765.43 148.32)" fill="#D49A52"/>
<ellipse rx="9.89978" ry="9.26893" transform="matrix(-0.999973 0.0073812 -0.00853621 -0.999964 669.334 140.687)" fill="#D49A52"/>
<ellipse rx="9.89978" ry="9.26893" transform="matrix(-0.999973 0.0073812 -0.00853621 -0.999964 573.234 133.054)" fill="#D49A52"/>
<ellipse rx="9.89978" ry="9.26893" transform="matrix(-0.999973 0.0073812 -0.00853621 -0.999964 477.137 125.421)" fill="#D49A52"/>
<ellipse rx="9.89978" ry="9.26893" transform="matrix(-0.999973 0.0073812 -0.00853621 -0.999964 391.07 143.76)" fill="#D49A52"/>
<ellipse rx="9.89978" ry="9.26893" transform="matrix(-0.999973 0.0073812 -0.00853621 -0.999964 284.947 110.155)" fill="#D49A52"/>
<ellipse rx="9.89978" ry="9.26893" transform="matrix(-0.999973 0.0073812 -0.00853621 -0.999964 188.849 102.522)" fill="#E9CDB3"/>
<ellipse rx="9.89978" ry="9.26893" transform="matrix(-0.999973 0.0073812 -0.00853621 -0.999964 102.781 120.861)" fill="#E9CDB3"/>
<ellipse rx="9.89978" ry="9.26893" transform="matrix(-0.999973 0.0073812 -0.00853621 -0.999964 80.2499 148.835)" fill="#E9CDB3"/>
<ellipse rx="9.89978" ry="9.26893" transform="matrix(-0.999973 0.0073812 -0.00853621 -0.999964 1112.73 108.91)" fill="#E9CDB3"/>
<ellipse rx="9.89978" ry="9.26893" transform="matrix(-0.999973 0.0073812 -0.00853621 -0.999964 1127.19 79.5058)" fill="#E9CDB3"/>
<ellipse rx="9.39073" ry="9.78432" transform="matrix(-0.44942 0.892795 -0.915257 -0.403943 222.668 160.118)" fill="#E9CDB3"/>
<ellipse rx="9.39073" ry="9.78432" transform="matrix(-0.44942 0.892795 -0.915257 -0.403943 362.604 171.254)" fill="#E9CDB3"/>
<ellipse rx="9.39073" ry="9.78432" transform="matrix(-0.44942 0.892795 -0.915257 -0.403943 506.817 156.413)" fill="#E9CDB3"/>
<ellipse rx="9.39073" ry="9.78432" transform="matrix(-0.44942 0.892795 -0.915257 -0.403943 661.053 167.545)" fill="#E9CDB3"/>
<ellipse rx="9.39073" ry="9.78432" transform="matrix(-0.44942 0.892795 -0.915257 -0.403943 813.369 175.861)" fill="#E9CDB3"/>
<ellipse rx="9.39073" ry="9.78432" transform="matrix(-0.44942 0.892795 -0.915257 -0.403943 993.662 171.705)" fill="#E9CDB3"/>
<ellipse rx="9.89978" ry="9.26893" transform="matrix(-0.999973 0.0073812 -0.00853621 -0.999964 1006.64 106.682)" fill="#E9CDB3"/>
<ellipse rx="9.89978" ry="9.26893" transform="matrix(-0.999973 0.0073812 -0.00853621 -0.999964 910.539 99.0489)" fill="#E9CDB3"/>
<ellipse rx="9.89978" ry="9.26893" transform="matrix(-0.999973 0.0073812 -0.00853621 -0.999964 814.443 91.4159)" fill="#E9CDB3"/>
<ellipse rx="9.89978" ry="9.26893" transform="matrix(-0.999973 0.0073812 -0.00853621 -0.999964 718.348 83.783)" fill="#E9CDB3"/>
<ellipse rx="9.89978" ry="9.26893" transform="matrix(-0.999973 0.0073812 -0.00853621 -0.999964 622.25 76.1501)" fill="#E9CDB3"/>
<ellipse rx="9.89978" ry="9.26893" transform="matrix(-0.999973 0.0073812 -0.00853621 -0.999964 526.156 68.5172)" fill="#E9CDB3"/>
<ellipse rx="9.89978" ry="9.26893" transform="matrix(-0.999973 0.0073812 -0.00853621 -0.999964 440.086 86.8564)" fill="#E9CDB3"/>
<ellipse rx="9.89978" ry="9.26893" transform="matrix(-0.999973 0.0073812 -0.00853621 -0.999964 343.988 79.2233)" fill="#E9CDB3"/>
<ellipse rx="9.89978" ry="9.26893" transform="matrix(-0.999973 0.0073812 -0.00853621 -0.999964 247.892 71.5902)" fill="#E9CDB3"/>
<ellipse rx="9.89978" ry="9.26893" transform="matrix(-0.999973 0.0073812 -0.00853621 -0.999964 151.795 63.9575)" fill="#E9CDB3"/>
<ellipse rx="9.89978" ry="9.26893" transform="matrix(-0.999973 0.0073812 -0.00853621 -0.999964 1064.96 96.0551)" fill="#E9CDB3"/>
<ellipse rx="9.89978" ry="9.26893" transform="matrix(-0.999973 0.0073812 -0.00853621 -0.999964 968.861 88.4222)" fill="#FFC850"/>
<ellipse rx="9.89978" ry="9.26893" transform="matrix(-0.999973 0.0073812 -0.00853621 -0.999964 872.764 80.7893)" fill="#FFC850"/>
<ellipse rx="9.89978" ry="9.26893" transform="matrix(-0.999973 0.0073812 -0.00853621 -0.999964 776.67 73.1564)" fill="#FFC850"/>
<ellipse rx="9.89978" ry="9.26893" transform="matrix(-0.999973 0.0073812 -0.00853621 -0.999964 680.572 65.5235)" fill="#FFC850"/>
<ellipse rx="9.89978" ry="9.26893" transform="matrix(-0.999973 0.0073812 -0.00853621 -0.999964 584.474 57.8906)" fill="#FFC850"/>
<ellipse rx="9.89978" ry="9.26893" transform="matrix(-0.999973 0.0073812 -0.00853621 -0.999964 488.379 50.2577)" fill="#FFC850"/>
<ellipse rx="9.89978" ry="9.26893" transform="matrix(-0.999973 0.0073812 -0.00853621 -0.999964 402.308 68.5969)" fill="#FFC850"/>
<ellipse rx="9.89978" ry="9.26893" transform="matrix(-0.999973 0.0073812 -0.00853621 -0.999964 306.211 60.9638)" fill="#FFC850"/>
<ellipse rx="9.89978" ry="9.26893" transform="matrix(-0.999973 0.0073812 -0.00853621 -0.999964 210.117 53.3311)" fill="#FFC850"/>
<ellipse rx="9.89978" ry="9.26893" transform="matrix(-0.999973 0.0073812 -0.00853621 -0.999964 114.019 45.6979)" fill="#FFC850"/>
<ellipse rx="9.89978" ry="9.26893" transform="matrix(-0.999973 0.0073812 -0.00853621 -0.999964 1040.48 127.751)" fill="#FFC850"/>
<ellipse rx="9.89978" ry="9.26893" transform="matrix(-0.999973 0.0073812 -0.00853621 -0.999964 944.379 120.118)" fill="#FFC850"/>
<ellipse rx="9.89978" ry="9.26893" transform="matrix(-0.999973 0.0073812 -0.00853621 -0.999964 848.283 112.485)" fill="#FFC850"/>
<ellipse rx="9.89978" ry="9.26893" transform="matrix(-0.999973 0.0073812 -0.00853621 -0.999964 752.189 104.852)" fill="#FFC850"/>
<ellipse rx="9.89978" ry="9.26893" transform="matrix(-0.999973 0.0073812 -0.00853621 -0.999964 656.092 97.2193)" fill="#FFC850"/>
<ellipse rx="9.89978" ry="9.26893" transform="matrix(-0.999973 0.0073812 -0.00853621 -0.999964 559.994 89.5864)" fill="#FFC850"/>
<ellipse rx="9.89978" ry="9.26893" transform="matrix(-0.999973 0.0073812 -0.00853621 -0.999964 473.926 107.925)" fill="#FFC850"/>
<ellipse rx="9.89978" ry="9.26893" transform="matrix(-0.999973 0.0073812 -0.00853621 -0.999964 377.828 100.293)" fill="#FFC850"/>
<ellipse rx="9.89978" ry="9.26893" transform="matrix(-0.999973 0.0073812 -0.00853621 -0.999964 285.793 79.2688)" fill="#E9CDB3"/>
<ellipse rx="9.89978" ry="9.26893" transform="matrix(-0.999973 0.0073812 -0.00853621 -0.999964 67.0077 105.368)" fill="#E9CDB3"/>
<ellipse rx="9.89978" ry="9.26893" transform="matrix(-0.999973 0.0073812 -0.00853621 -0.999964 1099.49 65.4425)" fill="#E9CDB3"/>
<ellipse rx="9.89978" ry="9.26893" transform="matrix(-0.999973 0.0073812 -0.00853621 -0.999964 1113.95 36.0389)" fill="#E9CDB3"/>
<ellipse rx="9.39073" ry="9.78432" transform="matrix(-0.44942 0.892795 -0.915257 -0.403943 160.791 152.446)" fill="#E9CDB3"/>
<ellipse rx="9.39073" ry="9.78432" transform="matrix(-0.44942 0.892795 -0.915257 -0.403943 305.002 137.605)" fill="#E9CDB3"/>
<ellipse rx="9.39073" ry="9.78432" transform="matrix(-0.44942 0.892795 -0.915257 -0.403943 459.237 148.737)" fill="#E9CDB3"/>
<ellipse rx="9.39073" ry="9.78432" transform="matrix(-0.44942 0.892795 -0.915257 -0.403943 613.479 159.868)" fill="#E9CDB3"/>
<ellipse rx="9.39073" ry="9.78432" transform="matrix(-0.44942 0.892795 -0.915257 -0.403943 747.012 176.515)" fill="#E9CDB3"/>
<ellipse rx="9.39073" ry="9.78432" transform="matrix(-0.44942 0.892795 -0.915257 -0.403943 930.256 173.34)" fill="#E9CDB3"/>
<ellipse rx="9.89978" ry="9.26893" transform="matrix(-0.999973 0.0073812 -0.00853621 -0.999964 993.396 63.2145)" fill="#E9CDB3"/>
<ellipse rx="9.89978" ry="9.26893" transform="matrix(-0.999973 0.0073812 -0.00853621 -0.999964 897.299 55.5816)" fill="#E9CDB3"/>
<ellipse rx="9.89978" ry="9.26893" transform="matrix(-0.999973 0.0073812 -0.00853621 -0.999964 801.203 47.9486)" fill="#E9CDB3"/>
<ellipse rx="9.89978" ry="9.26893" transform="matrix(-0.999973 0.0073812 -0.00853621 -0.999964 705.107 40.3158)" fill="#E9CDB3"/>
<ellipse rx="9.89978" ry="9.26893" transform="matrix(-0.999973 0.0073812 -0.00853621 -0.999964 609.008 32.6828)" fill="#E9CDB3"/>
<ellipse rx="9.89978" ry="9.26893" transform="matrix(-0.999973 0.0073812 -0.00853621 -0.999964 512.914 25.0499)" fill="#E9CDB3"/>
<ellipse rx="9.89978" ry="9.26893" transform="matrix(-0.999973 0.0073812 -0.00853621 -0.999964 426.844 43.3889)" fill="#E9CDB3"/>
<ellipse rx="9.89978" ry="9.26893" transform="matrix(-0.999973 0.0073812 -0.00853621 -0.999964 330.746 35.7558)" fill="#E9CDB3"/>
<ellipse rx="9.89978" ry="9.26893" transform="matrix(-0.999973 0.0073812 -0.00853621 -0.999964 1051.72 52.5879)" fill="#D49A52"/>
<ellipse rx="9.89978" ry="9.26893" transform="matrix(-0.999973 0.0073812 -0.00853621 -0.999964 955.619 44.955)" fill="#D49A52"/>
<ellipse rx="9.89978" ry="9.26893" transform="matrix(-0.999973 0.0073812 -0.00853621 -0.999964 859.521 37.3221)" fill="#D49A52"/>
<ellipse rx="9.89978" ry="9.26893" transform="matrix(-0.999973 0.0073812 -0.00853621 -0.999964 763.43 29.6892)" fill="#D49A52"/>
<ellipse rx="9.89978" ry="9.26893" transform="matrix(-0.999973 0.0073812 -0.00853621 -0.999964 667.33 22.0562)" fill="#D49A52"/>
<ellipse rx="9.89978" ry="9.26893" transform="matrix(-0.999973 0.0073812 -0.00853621 -0.999964 571.234 14.4233)" fill="#D49A52"/>
<ellipse rx="9.89978" ry="9.26893" transform="matrix(-0.999973 0.0073812 -0.00853621 -0.999964 485.166 32.7626)" fill="#D49A52"/>
<ellipse rx="9.89978" ry="9.26893" transform="matrix(-0.999973 0.0073812 -0.00853621 -0.999964 389.068 25.1294)" fill="#D49A52"/>
<ellipse rx="9.89978" ry="9.26893" transform="matrix(-0.999973 0.0073812 -0.00853621 -0.999964 292.971 17.4963)" fill="#D49A52"/>
<ellipse rx="9.89978" ry="9.26893" transform="matrix(-0.999973 0.0073812 -0.00853621 -0.999964 1027.24 84.2837)" fill="#D49A52"/>
<ellipse rx="9.89978" ry="9.26893" transform="matrix(-0.999973 0.0073812 -0.00853621 -0.999964 931.139 76.651)" fill="#D49A52"/>
<ellipse rx="9.89978" ry="9.26893" transform="matrix(-0.999973 0.0073812 -0.00853621 -0.999964 835.043 69.0179)" fill="#D49A52"/>
<ellipse rx="9.89978" ry="9.26893" transform="matrix(-0.999973 0.0073812 -0.00853621 -0.999964 738.947 61.3852)" fill="#D49A52"/>
<ellipse rx="9.89978" ry="9.26893" transform="matrix(-0.999973 0.0073812 -0.00853621 -0.999964 642.849 53.752)" fill="#D49A52"/>
<ellipse rx="9.89978" ry="9.26893" transform="matrix(-0.999973 0.0073812 -0.00853621 -0.999964 546.752 46.1192)" fill="#D49A52"/>
<ellipse rx="9.89978" ry="9.26893" transform="matrix(-0.999973 0.0073812 -0.00853621 -0.999964 460.683 64.4583)" fill="#D49A52"/>
<ellipse rx="9.89978" ry="9.26893" transform="matrix(-0.999973 0.0073812 -0.00853621 -0.999964 364.588 56.8252)" fill="#D79000"/>
<ellipse rx="9.89978" ry="9.26893" transform="matrix(-0.999973 0.0073812 -0.00853621 -0.999964 268.492 49.1925)" fill="#D79000"/>
<ellipse rx="9.89978" ry="9.26893" transform="matrix(-0.999973 0.0073812 -0.00853621 -0.999964 172.394 41.5594)" fill="#D79000"/>
<ellipse rx="9.89978" ry="9.26893" transform="matrix(-0.999973 0.0073812 -0.00853621 -0.999964 76.2987 33.9266)" fill="#D79000"/>
<ellipse rx="9.89978" ry="9.26893" transform="matrix(-0.999973 0.0073812 -0.00853621 -0.999964 1086.25 21.9748)" fill="#D79000"/>
<ellipse rx="9.39073" ry="9.78432" transform="matrix(-0.44942 0.892795 -0.915257 -0.403943 113.213 144.769)" fill="#D79000"/>
<ellipse rx="9.39073" ry="9.78432" transform="matrix(-0.44942 0.892795 -0.915257 -0.403943 288.996 164.756)" fill="#D79000"/>
<ellipse rx="9.39073" ry="9.78432" transform="matrix(-0.44942 0.892795 -0.915257 -0.403943 421.69 167.032)" fill="#D79000"/>
<ellipse rx="9.39073" ry="9.78432" transform="matrix(-0.44942 0.892795 -0.915257 -0.403943 565.899 152.191)" fill="#D79000"/>
<ellipse rx="9.39073" ry="9.78432" transform="matrix(-0.44942 0.892795 -0.915257 -0.403943 708.981 148.016)" fill="#D79000"/>
<ellipse rx="9.39073" ry="9.78432" transform="matrix(-0.44942 0.892795 -0.915257 -0.403943 891.492 167.077)" fill="#D79000"/>
<ellipse rx="9.89978" ry="9.26893" transform="matrix(-0.999973 0.0073812 -0.00853621 -0.999964 980.154 19.7472)" fill="#D79000"/>
<ellipse rx="9.89978" ry="9.26893" transform="matrix(-0.999973 0.0073812 -0.00853621 -0.999964 95.7382 81.0459)" fill="#D79000"/>
<ellipse rx="9.89978" ry="9.26893" transform="matrix(-0.999973 0.0073812 -0.00853621 -0.999964 235.398 45.6181)" fill="#D79000"/>
<ellipse rx="9.89978" ry="9.26893" transform="matrix(-0.999973 0.0073812 -0.00853621 -0.999964 255.107 149.711)" fill="#D79000"/>
<ellipse rx="9.89978" ry="9.26893" transform="matrix(-0.999973 0.0073812 -0.00853621 -0.999964 139.303 37.985)" fill="#D79000"/>
<ellipse rx="9.89978" ry="9.26893" transform="matrix(-0.999973 0.0073812 -0.00853621 -0.999964 159.107 125.113)" fill="#D79000"/>
<ellipse rx="9.89978" ry="9.26893" transform="matrix(-0.999973 0.0073812 -0.00853621 -0.999964 57.9628 62.7861)" fill="#E9CDB3"/>
<ellipse rx="9.89978" ry="9.26893" transform="matrix(-0.999973 0.0073812 -0.00853621 -0.999964 197.621 27.3587)" fill="#E9CDB3"/>
<ellipse rx="9.89978" ry="9.26893" transform="matrix(-0.999973 0.0073812 -0.00853621 -0.999964 213.525 121.902)" fill="#E9CDB3"/>
<ellipse rx="9.89978" ry="9.26893" transform="matrix(-0.999973 0.0073812 -0.00853621 -0.999964 111.551 45.6974)" fill="#E9CDB3"/>
<ellipse rx="9.89978" ry="9.26893" transform="matrix(-0.999973 0.0073812 -0.00853621 -0.999964 131.359 132.826)" fill="#E9CDB3"/>
<ellipse rx="9.89978" ry="9.26893" transform="matrix(-0.999973 0.0073812 -0.00853621 -0.999964 1014 40.8163)" fill="#E9CDB3"/>
<ellipse rx="9.89978" ry="9.26893" transform="matrix(-0.999973 0.0073812 -0.00853621 -0.999964 917.898 33.1835)" fill="#E9CDB3"/>
<ellipse rx="9.89978" ry="9.26893" transform="matrix(-0.999973 0.0073812 -0.00853621 -0.999964 821.803 25.5505)" fill="#E9CDB3"/>
<ellipse rx="9.89978" ry="9.26893" transform="matrix(-0.999973 0.0073812 -0.00853621 -0.999964 725.707 17.9176)" fill="#E9CDB3"/>
<ellipse rx="9.89978" ry="9.26893" transform="matrix(-0.999973 0.0073812 -0.00853621 -0.999964 163.033 86.6777)" fill="#E9CDB3"/>
<ellipse rx="9.89978" ry="9.26893" transform="matrix(-0.999973 0.0073812 -0.00853621 -0.999964 192.949 146.183)" fill="#E9CDB3"/>
<rect y="309" width="1164" height="192" fill="#291200"/>
<rect x="41.7637" y="358.671" width="1112.52" height="11.4844" fill="#8B3F3D"/>
<path d="M1086.32 465.153L1029.36 410.824L1141.92 410.384L1086.32 465.153Z" fill="#D3BBA3"/>
<path d="M1085.87 464.901L1141.68 519.452H1030.05L1085.87 464.901Z" fill="#D3BBA3"/>
<path d="M1029.8 519.704L972.842 465.374L1085.41 464.935L1029.8 519.704Z" fill="#D49A52"/>
<path d="M1030.34 411.308L1086.16 465.858H974.525L1030.34 411.308Z" fill="#D49A52"/>
<path d="M975.269 465.153L918.307 410.824L1030.87 410.384L975.269 465.153Z" fill="#D3BBA3"/>
<path d="M974.816 464.901L1030.63 519.452H919L974.816 464.901Z" fill="#D3BBA3"/>
<path d="M802.738 465.153L745.775 410.824L858.339 410.384L802.738 465.153Z" fill="#D3BBA3"/>
<path d="M802.283 464.901L858.099 519.452H746.467L802.283 464.901Z" fill="#D3BBA3"/>
<path d="M746.22 519.704L689.258 465.374L801.822 464.935L746.22 519.704Z" fill="#D49A52"/>
<path d="M746.758 411.308L802.574 465.858H690.941L746.758 411.308Z" fill="#D49A52"/>
<path d="M691.685 465.153L634.723 410.824L747.286 410.384L691.685 465.153Z" fill="#D3BBA3"/>
<path d="M691.23 464.901L747.047 519.452H635.414L691.23 464.901Z" fill="#D3BBA3"/>
<path d="M519.154 465.153L462.191 410.824L574.755 410.384L519.154 465.153Z" fill="#D3BBA3"/>
<path d="M518.701 464.901L574.517 519.452H462.885L518.701 464.901Z" fill="#D3BBA3"/>
<path d="M462.634 519.704L405.672 465.374L518.236 464.935L462.634 519.704Z" fill="#D49A52"/>
<path d="M463.172 411.308L518.988 465.858H407.356L463.172 411.308Z" fill="#D49A52"/>
<path d="M408.099 465.153L351.137 410.824L463.7 410.384L408.099 465.153Z" fill="#D3BBA3"/>
<path d="M407.644 464.901L463.461 519.452H351.828L407.644 464.901Z" fill="#D3BBA3"/>
<path d="M235.572 465.153L178.609 410.824L291.173 410.384L235.572 465.153Z" fill="#D3BBA3"/>
<path d="M235.119 464.901L290.935 519.452H179.303L235.119 464.901Z" fill="#D3BBA3"/>
<path d="M179.052 519.704L122.09 465.374L234.654 464.935L179.052 519.704Z" fill="#D49A52"/>
<path d="M179.59 411.308L235.406 465.858H123.773L179.59 411.308Z" fill="#D49A52"/>
<path d="M124.517 465.153L67.5546 410.824L180.118 410.384L124.517 465.153Z" fill="#D3BBA3"/>
<path d="M124.064 464.901L179.881 519.452H68.2481L124.064 464.901Z" fill="#D3BBA3"/>
<rect x="0.980469" y="973" width="1139.5" height="187" fill="#D3BBA3"/>
<rect x="29.5449" y="790.692" width="1106.88" height="187.103" fill="#291200"/>
<path d="M211.328 848.923L394.343 1033.93H28.3126L211.328 848.923Z" fill="#863B37"/>
<path d="M211.319 1217.86L31.8858 1031.6L397.892 1034.12L211.319 1217.86Z" fill="#863B37"/>
<path d="M209.488 875.453L364.129 1031.78H54.8468L209.488 875.453Z" fill="#225D04"/>
<path d="M209.475 1187.19L57.8611 1029.81L367.122 1031.94L209.475 1187.19Z" fill="#225D04"/>
<path d="M208.749 905.773L335.016 1033.42H82.4827L208.749 905.773Z" fill="#D79000"/>
<path d="M208.743 1160.31L84.9478 1031.81L337.464 1033.54L208.743 1160.31Z" fill="#D79000"/>
<path d="M208.994 924.724L316.344 1033.24H101.644L208.994 924.724Z" fill="#291200"/>
<path d="M208.987 1141.13L103.738 1031.88L318.424 1033.35L208.987 1141.13Z" fill="#291200"/>
<path d="M207.635 947.464L291.812 1032.56H123.458L207.635 947.464Z" fill="#D3BBA3"/>
<path d="M207.633 1117.15L125.103 1031.49L293.447 1032.64L207.633 1117.15Z" fill="#D3BBA3"/>
<path d="M208.999 970.203L273.314 1035.22H144.684L208.999 970.203Z" fill="#291200"/>
<path d="M208.998 1099.85L145.942 1034.4L274.563 1035.29L208.998 1099.85Z" fill="#291200"/>
<path d="M580.617 848.923L763.632 1033.93H397.602L580.617 848.923Z" fill="#863B37"/>
<path d="M580.606 1217.86L401.173 1031.6L767.179 1034.12L580.606 1217.86Z" fill="#863B37"/>
<path d="M578.777 875.453L733.418 1031.78H424.136L578.777 875.453Z" fill="#225D04"/>
<path d="M578.768 1187.19L427.154 1029.81L736.415 1031.94L578.768 1187.19Z" fill="#225D04"/>
<path d="M578.038 905.773L704.305 1033.42H451.772L578.038 905.773Z" fill="#D79000"/>
<path d="M578.03 1160.31L454.235 1031.81L706.751 1033.54L578.03 1160.31Z" fill="#D79000"/>
<path d="M578.281 924.724L685.632 1033.24H470.931L578.281 924.724Z" fill="#291200"/>
<path d="M578.276 1141.13L473.027 1031.88L687.713 1033.35L578.276 1141.13Z" fill="#291200"/>
<path d="M576.926 947.464L661.103 1032.56H492.749L576.926 947.464Z" fill="#D3BBA3"/>
<path d="M576.922 1117.15L494.392 1031.49L662.736 1032.64L576.922 1117.15Z" fill="#D3BBA3"/>
<path d="M578.288 970.203L642.603 1035.22H513.973L578.288 970.203Z" fill="#291200"/>
<path d="M578.285 1099.85L515.229 1034.4L643.851 1035.29L578.285 1099.85Z" fill="#291200"/>
<path d="M947.937 848.923L1130.95 1033.93H764.922L947.937 848.923Z" fill="#863B37"/>
<path d="M947.926 1217.86L768.493 1031.6L1134.5 1034.12L947.926 1217.86Z" fill="#863B37"/>
<path d="M946.095 875.453L1100.74 1031.78H791.454L946.095 875.453Z" fill="#225D04"/>
<path d="M946.087 1187.19L794.472 1029.81L1103.73 1031.94L946.087 1187.19Z" fill="#225D04"/>
<path d="M945.359 905.773L1071.62 1033.42H819.092L945.359 905.773Z" fill="#D79000"/>
<path d="M945.35 1160.31L821.555 1031.81L1074.07 1033.55L945.35 1160.31Z" fill="#D79000"/>
<path d="M945.604 924.723L1052.95 1033.24H838.254L945.604 924.723Z" fill="#291200"/>
<path d="M945.596 1141.13L840.347 1031.88L1055.03 1033.35L945.596 1141.13Z" fill="#291200"/>
<path d="M944.246 947.463L1028.42 1032.56H860.069L944.246 947.463Z" fill="#D3BBA3"/>
<path d="M944.24 1117.15L861.711 1031.49L1030.05 1032.64L944.24 1117.15Z" fill="#D3BBA3"/>
<path d="M945.607 970.203L1009.92 1035.22H881.291L945.607 970.203Z" fill="#291200"/>
<path d="M945.605 1099.85L882.549 1034.4L1011.17 1035.29L945.605 1099.85Z" fill="#291200"/>
<rect y="1098" width="1140.48" height="187" fill="#291200"/>
<rect y="1147.72" width="1131.39" height="11.4553" fill="#8B3F3D"/>
<path d="M1062.27 1253.93L1004.34 1199.74L1118.81 1199.3L1062.27 1253.93Z" fill="#D3BBA3"/>
<path d="M1061.81 1253.68L1118.57 1308.09H1005.05L1061.81 1253.68Z" fill="#D3BBA3"/>
<path d="M1004.79 1308.34L946.862 1254.15L1061.33 1253.71L1004.79 1308.34Z" fill="#D49A52"/>
<path d="M1005.34 1200.22L1062.1 1254.63H948.576L1005.34 1200.22Z" fill="#D49A52"/>
<path d="M949.331 1253.93L891.403 1199.74L1005.88 1199.3L949.331 1253.93Z" fill="#D3BBA3"/>
<path d="M948.868 1253.68L1005.63 1308.09H892.105L948.868 1253.68Z" fill="#D3BBA3"/>
<path d="M773.876 1253.93L715.948 1199.74L830.42 1199.3L773.876 1253.93Z" fill="#D3BBA3"/>
<path d="M773.417 1253.68L830.179 1308.09H716.654L773.417 1253.68Z" fill="#D3BBA3"/>
<path d="M716.398 1308.34L658.469 1254.15L772.942 1253.71L716.398 1308.34Z" fill="#D49A52"/>
<path d="M716.946 1200.22L773.709 1254.63H660.184L716.946 1200.22Z" fill="#D49A52"/>
<path d="M660.937 1253.93L603.009 1199.74L717.481 1199.3L660.937 1253.93Z" fill="#D3BBA3"/>
<path d="M660.475 1253.68L717.238 1308.09H603.713L660.475 1253.68Z" fill="#D3BBA3"/>
<path d="M485.486 1253.93L427.557 1199.74L542.03 1199.3L485.486 1253.93Z" fill="#D3BBA3"/>
<path d="M485.024 1253.68L541.787 1308.09H428.262L485.024 1253.68Z" fill="#D3BBA3"/>
<path d="M428.009 1308.34L370.081 1254.15L484.553 1253.71L428.009 1308.34Z" fill="#D49A52"/>
<path d="M428.557 1200.22L485.32 1254.63H371.795L428.557 1200.22Z" fill="#D49A52"/>
<path d="M372.548 1253.93L314.62 1199.74L429.092 1199.3L372.548 1253.93Z" fill="#D3BBA3"/>
<path d="M372.089 1253.68L428.851 1308.09H315.326L372.089 1253.68Z" fill="#D3BBA3"/>
<path d="M197.087 1253.93L139.159 1199.74L253.631 1199.3L197.087 1253.93Z" fill="#D3BBA3"/>
<path d="M196.626 1253.68L253.388 1308.09H139.863L196.626 1253.68Z" fill="#D3BBA3"/>
<path d="M139.613 1308.34L81.6843 1254.15L196.157 1253.71L139.613 1308.34Z" fill="#D49A52"/>
<path d="M140.161 1200.22L196.923 1254.63H83.3984L140.161 1200.22Z" fill="#D49A52"/>
<path d="M84.1555 1253.93L26.2273 1199.74L140.7 1199.3L84.1555 1253.93Z" fill="#D3BBA3"/>
<path d="M83.6941 1253.68L140.457 1308.09H26.9316L83.6941 1253.68Z" fill="#D3BBA3"/>
<rect x="1" y="791" width="1165" height="187" fill="#291200"/>
<rect y="637" width="1164" height="11" fill="#8B3F3D"/>
<ellipse rx="9.84577" ry="9.5481" transform="matrix(0.996916 -0.07847 0.0834731 0.99651 52.6007 793.64)" fill="#E9CDB3"/>
<ellipse rx="9.84577" ry="9.5481" transform="matrix(0.996916 -0.07847 0.0834731 0.99651 148.528 794.709)" fill="#E9CDB3"/>
<ellipse rx="9.84577" ry="9.5481" transform="matrix(0.996916 -0.07847 0.0834731 0.99651 244.454 795.778)" fill="#E9CDB3"/>
<ellipse rx="9.84577" ry="9.5481" transform="matrix(0.996916 -0.07847 0.0834731 0.99651 340.378 796.847)" fill="#E9CDB3"/>
<ellipse rx="9.84577" ry="9.5481" transform="matrix(0.996916 -0.07847 0.0834731 0.99651 436.306 797.916)" fill="#E9CDB3"/>
<ellipse rx="9.84577" ry="9.5481" transform="matrix(0.996916 -0.07847 0.0834731 0.99651 532.235 798.985)" fill="#E9CDB3"/>
<ellipse rx="9.84577" ry="9.5481" transform="matrix(0.996916 -0.07847 0.0834731 0.99651 628.161 800.054)" fill="#E9CDB3"/>
<ellipse rx="9.84577" ry="9.5481" transform="matrix(0.996916 -0.07847 0.0834731 0.99651 724.087 801.123)" fill="#E9CDB3"/>
<ellipse rx="9.84577" ry="9.5481" transform="matrix(0.996916 -0.07847 0.0834731 0.99651 820.013 802.192)" fill="#E9CDB3"/>
<ellipse rx="9.84577" ry="9.5481" transform="matrix(0.996916 -0.07847 0.0834731 0.99651 915.942 803.262)" fill="#E9CDB3"/>
<ellipse rx="9.84577" ry="9.5481" transform="matrix(0.996916 -0.07847 0.0834731 0.99651 1011.87 804.331)" fill="#E9CDB3"/>
<ellipse rx="9.84577" ry="9.5481" transform="matrix(0.996916 -0.07847 0.0834731 0.99651 91.4913 809.734)" fill="#E9CDB3"/>
<ellipse rx="9.84577" ry="9.5481" transform="matrix(0.996916 -0.07847 0.0834731 0.99651 187.419 810.802)" fill="#E9CDB3"/>
<ellipse rx="9.84577" ry="9.5481" transform="matrix(0.996916 -0.07847 0.0834731 0.99651 283.345 811.872)" fill="#E9CDB3"/>
<ellipse rx="9.84577" ry="9.5481" transform="matrix(0.996916 -0.07847 0.0834731 0.99651 379.271 812.941)" fill="#D49A52"/>
<ellipse rx="9.84577" ry="9.5481" transform="matrix(0.996916 -0.07847 0.0834731 0.99651 475.198 814.01)" fill="#D49A52"/>
<ellipse rx="9.84577" ry="9.5481" transform="matrix(0.996916 -0.07847 0.0834731 0.99651 571.126 815.079)" fill="#D49A52"/>
<ellipse rx="9.84577" ry="9.5481" transform="matrix(0.996916 -0.07847 0.0834731 0.99651 667.054 816.148)" fill="#D49A52"/>
<ellipse rx="9.84577" ry="9.5481" transform="matrix(0.996916 -0.07847 0.0834731 0.99651 762.98 817.217)" fill="#D49A52"/>
<ellipse rx="9.84577" ry="9.5481" transform="matrix(0.996916 -0.07847 0.0834731 0.99651 858.907 818.286)" fill="#D49A52"/>
<ellipse rx="9.84577" ry="9.5481" transform="matrix(0.996916 -0.07847 0.0834731 0.99651 954.833 819.355)" fill="#D49A52"/>
<ellipse rx="9.84577" ry="9.5481" transform="matrix(0.996916 -0.07847 0.0834731 0.99651 1050.76 820.424)" fill="#D49A52"/>
<ellipse rx="9.84577" ry="9.5481" transform="matrix(0.996916 -0.07847 0.0834731 0.99651 113.321 775.452)" fill="#D49A52"/>
<ellipse rx="9.84577" ry="9.5481" transform="matrix(0.996916 -0.07847 0.0834731 0.99651 209.247 776.521)" fill="#D49A52"/>
<ellipse rx="9.84577" ry="9.5481" transform="matrix(0.996916 -0.07847 0.0834731 0.99651 305.175 777.59)" fill="#D49A52"/>
<ellipse rx="9.84577" ry="9.5481" transform="matrix(0.996916 -0.07847 0.0834731 0.99651 84.5226 777.298)" fill="#D49A52"/>
<ellipse rx="9.84577" ry="9.5481" transform="matrix(0.996916 -0.07847 0.0834731 0.99651 401.103 778.659)" fill="#D49A52"/>
<ellipse rx="9.84577" ry="9.5481" transform="matrix(0.996916 -0.07847 0.0834731 0.99651 497.026 779.728)" fill="#D49A52"/>
<ellipse rx="9.84577" ry="9.5481" transform="matrix(0.996916 -0.07847 0.0834731 0.99651 592.956 780.797)" fill="#D49A52"/>
<ellipse rx="9.84577" ry="9.5481" transform="matrix(0.996916 -0.07847 0.0834731 0.99651 688.882 781.866)" fill="#D49A52"/>
<ellipse rx="9.84577" ry="9.5481" transform="matrix(0.996916 -0.07847 0.0834731 0.99651 784.81 782.936)" fill="#D49A52"/>
<ellipse rx="9.84577" ry="9.5481" transform="matrix(0.996916 -0.07847 0.0834731 0.99651 880.734 784.005)" fill="#D49A52"/>
<ellipse rx="9.84577" ry="9.5481" transform="matrix(0.996916 -0.07847 0.0834731 0.99651 976.663 785.073)" fill="#E9CDB3"/>
<ellipse rx="9.84577" ry="9.5481" transform="matrix(0.996916 -0.07847 0.0834731 0.99651 1072.59 786.142)" fill="#E9CDB3"/>
<ellipse rx="9.84577" ry="9.5481" transform="matrix(0.996916 -0.07847 0.0834731 0.99651 1092.77 755.821)" fill="#E9CDB3"/>
<ellipse rx="9.84577" ry="9.5481" transform="matrix(0.996916 -0.07847 0.0834731 0.99651 59.6085 843.611)" fill="#E9CDB3"/>
<ellipse rx="9.84577" ry="9.5481" transform="matrix(0.996916 -0.07847 0.0834731 0.99651 47.5382 874.831)" fill="#E9CDB3"/>
<ellipse rx="9.60475" ry="9.79051" transform="matrix(0.368256 -0.927573 0.938725 0.350203 964.796 753.255)" fill="#E9CDB3"/>
<ellipse rx="9.60475" ry="9.79051" transform="matrix(0.368256 -0.927573 0.938725 0.350203 810.917 752.689)" fill="#E9CDB3"/>
<ellipse rx="9.60475" ry="9.79051" transform="matrix(0.368256 -0.927573 0.938725 0.350203 657.04 752.123)" fill="#E9CDB3"/>
<ellipse rx="9.60475" ry="9.79051" transform="matrix(0.368256 -0.927573 0.938725 0.350203 503.161 751.557)" fill="#E9CDB3"/>
<ellipse rx="9.60475" ry="9.79051" transform="matrix(0.368256 -0.927573 0.938725 0.350203 351.407 753.748)" fill="#E9CDB3"/>
<ellipse rx="9.60475" ry="9.79051" transform="matrix(0.368256 -0.927573 0.938725 0.350203 172.862 770.72)" fill="#E9CDB3"/>
<ellipse rx="9.84577" ry="9.5481" transform="matrix(0.996916 -0.07847 0.0834731 0.99651 165.03 838.424)" fill="#E9CDB3"/>
<ellipse rx="9.84577" ry="9.5481" transform="matrix(0.996916 -0.07847 0.0834731 0.99651 260.96 839.493)" fill="#E9CDB3"/>
<ellipse rx="9.84577" ry="9.5481" transform="matrix(0.996916 -0.07847 0.0834731 0.99651 356.886 840.562)" fill="#E9CDB3"/>
<ellipse rx="9.84577" ry="9.5481" transform="matrix(0.996916 -0.07847 0.0834731 0.99651 452.812 841.631)" fill="#E9CDB3"/>
<ellipse rx="9.84577" ry="9.5481" transform="matrix(0.996916 -0.07847 0.0834731 0.99651 548.737 842.7)" fill="#E9CDB3"/>
<ellipse rx="9.84577" ry="9.5481" transform="matrix(0.996916 -0.07847 0.0834731 0.99651 644.665 843.769)" fill="#E9CDB3"/>
<ellipse rx="9.84577" ry="9.5481" transform="matrix(0.996916 -0.07847 0.0834731 0.99651 740.593 844.838)" fill="#E9CDB3"/>
<ellipse rx="9.84577" ry="9.5481" transform="matrix(0.996916 -0.07847 0.0834731 0.99651 836.519 845.907)" fill="#E9CDB3"/>
<ellipse rx="9.84577" ry="9.5481" transform="matrix(0.996916 -0.07847 0.0834731 0.99651 932.444 846.977)" fill="#E9CDB3"/>
<ellipse rx="9.84577" ry="9.5481" transform="matrix(0.996916 -0.07847 0.0834731 0.99651 1028.37 848.046)" fill="#E9CDB3"/>
<ellipse rx="9.84577" ry="9.5481" transform="matrix(0.996916 -0.07847 0.0834731 0.99651 107.997 853.448)" fill="#E9CDB3"/>
<ellipse rx="9.84577" ry="9.5481" transform="matrix(0.996916 -0.07847 0.0834731 0.99651 203.925 854.517)" fill="#FFC850"/>
<ellipse rx="9.84577" ry="9.5481" transform="matrix(0.996916 -0.07847 0.0834731 0.99651 299.851 855.587)" fill="#FFC850"/>
<ellipse rx="9.84577" ry="9.5481" transform="matrix(0.996916 -0.07847 0.0834731 0.99651 395.776 856.656)" fill="#FFC850"/>
<ellipse rx="9.84577" ry="9.5481" transform="matrix(0.996916 -0.07847 0.0834731 0.99651 491.704 857.725)" fill="#FFC850"/>
<ellipse rx="9.84577" ry="9.5481" transform="matrix(0.996916 -0.07847 0.0834731 0.99651 587.632 858.794)" fill="#FFC850"/>
<ellipse rx="9.84577" ry="9.5481" transform="matrix(0.996916 -0.07847 0.0834731 0.99651 683.558 859.863)" fill="#FFC850"/>
<ellipse rx="9.84577" ry="9.5481" transform="matrix(0.996916 -0.07847 0.0834731 0.99651 779.484 860.932)" fill="#FFC850"/>
<ellipse rx="9.84577" ry="9.5481" transform="matrix(0.996916 -0.07847 0.0834731 0.99651 875.411 862.001)" fill="#FFC850"/>
<ellipse rx="9.84577" ry="9.5481" transform="matrix(0.996916 -0.07847 0.0834731 0.99651 971.339 863.07)" fill="#FFC850"/>
<ellipse rx="9.84577" ry="9.5481" transform="matrix(0.996916 -0.07847 0.0834731 0.99651 1067.26 864.139)" fill="#FFC850"/>
<ellipse rx="9.84577" ry="9.5481" transform="matrix(0.996916 -0.07847 0.0834731 0.99651 129.827 819.166)" fill="#FFC850"/>
<ellipse rx="9.84577" ry="9.5481" transform="matrix(0.996916 -0.07847 0.0834731 0.99651 225.753 820.236)" fill="#FFC850"/>
<ellipse rx="9.84577" ry="9.5481" transform="matrix(0.996916 -0.07847 0.0834731 0.99651 321.679 821.305)" fill="#FFC850"/>
<ellipse rx="9.84577" ry="9.5481" transform="matrix(0.996916 -0.07847 0.0834731 0.99651 417.607 822.374)" fill="#FFC850"/>
<ellipse rx="9.84577" ry="9.5481" transform="matrix(0.996916 -0.07847 0.0834731 0.99651 513.532 823.443)" fill="#FFC850"/>
<ellipse rx="9.84577" ry="9.5481" transform="matrix(0.996916 -0.07847 0.0834731 0.99651 609.46 824.512)" fill="#FFC850"/>
<ellipse rx="9.84577" ry="9.5481" transform="matrix(0.996916 -0.07847 0.0834731 0.99651 705.386 825.581)" fill="#FFC850"/>
<ellipse rx="9.84577" ry="9.5481" transform="matrix(0.996916 -0.07847 0.0834731 0.99651 801.314 826.651)" fill="#FFC850"/>
<ellipse rx="9.84577" ry="9.5481" transform="matrix(0.996916 -0.07847 0.0834731 0.99651 897.239 827.719)" fill="#E9CDB3"/>
<ellipse rx="9.84577" ry="9.5481" transform="matrix(0.996916 -0.07847 0.0834731 0.99651 993.167 828.789)" fill="#E9CDB3"/>
<ellipse rx="9.84577" ry="9.5481" transform="matrix(0.996916 -0.07847 0.0834731 0.99651 1089.09 829.857)" fill="#E9CDB3"/>
<ellipse rx="9.84577" ry="9.5481" transform="matrix(0.996916 -0.07847 0.0834731 0.99651 1109.28 799.536)" fill="#E9CDB3"/>
<ellipse rx="9.84577" ry="9.5481" transform="matrix(0.996916 -0.07847 0.0834731 0.99651 76.1163 887.325)" fill="#E9CDB3"/>
<ellipse rx="9.84577" ry="9.5481" transform="matrix(0.996916 -0.07847 0.0834731 0.99651 64.0441 918.547)" fill="#E9CDB3"/>
<ellipse rx="9.60475" ry="9.79051" transform="matrix(0.368256 -0.927573 0.938725 0.350203 1012.59 757.787)" fill="#E9CDB3"/>
<ellipse rx="9.60475" ry="9.79051" transform="matrix(0.368256 -0.927573 0.938725 0.350203 858.71 757.222)" fill="#E9CDB3"/>
<ellipse rx="9.60475" ry="9.79051" transform="matrix(0.368256 -0.927573 0.938725 0.350203 704.833 756.656)" fill="#E9CDB3"/>
<ellipse rx="9.60475" ry="9.79051" transform="matrix(0.368256 -0.927573 0.938725 0.350203 550.954 756.09)" fill="#E9CDB3"/>
<ellipse rx="9.60475" ry="9.79051" transform="matrix(0.368256 -0.927573 0.938725 0.350203 417.187 748.4)" fill="#E9CDB3"/>
<ellipse rx="9.60475" ry="9.79051" transform="matrix(0.368256 -0.927573 0.938725 0.350203 235.64 764.573)" fill="#E9CDB3"/>
<ellipse rx="9.84577" ry="9.5481" transform="matrix(0.996916 -0.07847 0.0834731 0.99651 181.538 882.139)" fill="#E9CDB3"/>
<ellipse rx="9.84577" ry="9.5481" transform="matrix(0.996916 -0.07847 0.0834731 0.99651 277.466 883.208)" fill="#E9CDB3"/>
<ellipse rx="9.84577" ry="9.5481" transform="matrix(0.996916 -0.07847 0.0834731 0.99651 373.392 884.277)" fill="#E9CDB3"/>
<ellipse rx="9.84577" ry="9.5481" transform="matrix(0.996916 -0.07847 0.0834731 0.99651 469.319 885.346)" fill="#E9CDB3"/>
<ellipse rx="9.84577" ry="9.5481" transform="matrix(0.996916 -0.07847 0.0834731 0.99651 565.245 886.415)" fill="#E9CDB3"/>
<ellipse rx="9.84577" ry="9.5481" transform="matrix(0.996916 -0.07847 0.0834731 0.99651 661.171 887.484)" fill="#E9CDB3"/>
<ellipse rx="9.84577" ry="9.5481" transform="matrix(0.996916 -0.07847 0.0834731 0.99651 757.099 888.553)" fill="#E9CDB3"/>
<ellipse rx="9.84577" ry="9.5481" transform="matrix(0.996916 -0.07847 0.0834731 0.99651 853.025 889.623)" fill="#E9CDB3"/>
<ellipse rx="9.84577" ry="9.5481" transform="matrix(0.996916 -0.07847 0.0834731 0.99651 948.952 890.691)" fill="#E9CDB3"/>
<ellipse rx="9.84577" ry="9.5481" transform="matrix(0.996916 -0.07847 0.0834731 0.99651 1044.88 891.761)" fill="#E9CDB3"/>
<ellipse rx="9.84577" ry="9.5481" transform="matrix(0.996916 -0.07847 0.0834731 0.99651 124.503 897.163)" fill="#D49A52"/>
<ellipse rx="9.84577" ry="9.5481" transform="matrix(0.996916 -0.07847 0.0834731 0.99651 220.431 898.233)" fill="#D49A52"/>
<ellipse rx="9.84577" ry="9.5481" transform="matrix(0.996916 -0.07847 0.0834731 0.99651 316.359 899.302)" fill="#D49A52"/>
<ellipse rx="9.84577" ry="9.5481" transform="matrix(0.996916 -0.07847 0.0834731 0.99651 412.286 900.371)" fill="#D49A52"/>
<ellipse rx="9.84577" ry="9.5481" transform="matrix(0.996916 -0.07847 0.0834731 0.99651 508.21 901.44)" fill="#D49A52"/>
<ellipse rx="9.84577" ry="9.5481" transform="matrix(0.996916 -0.07847 0.0834731 0.99651 604.136 902.509)" fill="#D49A52"/>
<ellipse rx="9.84577" ry="9.5481" transform="matrix(0.996916 -0.07847 0.0834731 0.99651 700.066 903.578)" fill="#D49A52"/>
<ellipse rx="9.84577" ry="9.5481" transform="matrix(0.996916 -0.07847 0.0834731 0.99651 795.991 904.647)" fill="#D49A52"/>
<ellipse rx="9.84577" ry="9.5481" transform="matrix(0.996916 -0.07847 0.0834731 0.99651 891.917 905.716)" fill="#D49A52"/>
<ellipse rx="9.84577" ry="9.5481" transform="matrix(0.996916 -0.07847 0.0834731 0.99651 987.843 906.785)" fill="#D49A52"/>
<ellipse rx="9.84577" ry="9.5481" transform="matrix(0.996916 -0.07847 0.0834731 0.99651 1083.77 907.854)" fill="#D49A52"/>
<ellipse rx="9.84577" ry="9.5481" transform="matrix(0.996916 -0.07847 0.0834731 0.99651 146.333 862.882)" fill="#D49A52"/>
<ellipse rx="9.84577" ry="9.5481" transform="matrix(0.996916 -0.07847 0.0834731 0.99651 242.259 863.951)" fill="#D49A52"/>
<ellipse rx="9.84577" ry="9.5481" transform="matrix(0.996916 -0.07847 0.0834731 0.99651 338.187 865.02)" fill="#D49A52"/>
<ellipse rx="9.84577" ry="9.5481" transform="matrix(0.996916 -0.07847 0.0834731 0.99651 434.112 866.089)" fill="#D49A52"/>
<ellipse rx="9.84577" ry="9.5481" transform="matrix(0.996916 -0.07847 0.0834731 0.99651 530.038 867.158)" fill="#D49A52"/>
<ellipse rx="9.84577" ry="9.5481" transform="matrix(0.996916 -0.07847 0.0834731 0.99651 625.966 868.227)" fill="#D49A52"/>
<ellipse rx="9.84577" ry="9.5481" transform="matrix(0.996916 -0.07847 0.0834731 0.99651 721.892 869.296)" fill="#D49A52"/>
<ellipse rx="9.84577" ry="9.5481" transform="matrix(0.996916 -0.07847 0.0834731 0.99651 817.819 870.365)" fill="#D79000"/>
<ellipse rx="9.84577" ry="9.5481" transform="matrix(0.996916 -0.07847 0.0834731 0.99651 913.747 871.435)" fill="#D79000"/>
<ellipse rx="9.84577" ry="9.5481" transform="matrix(0.996916 -0.07847 0.0834731 0.99651 1009.67 872.504)" fill="#D79000"/>
<ellipse rx="9.84577" ry="9.5481" transform="matrix(0.996916 -0.07847 0.0834731 0.99651 1105.6 873.573)" fill="#D79000"/>
<ellipse rx="9.84577" ry="9.5481" transform="matrix(0.996916 -0.07847 0.0834731 0.99651 92.6222 931.041)" fill="#D79000"/>
<ellipse rx="9.84577" ry="9.5481" transform="matrix(0.996916 -0.07847 0.0834731 0.99651 80.548 962.262)" fill="#D79000"/>
<ellipse rx="9.60475" ry="9.79051" transform="matrix(0.368256 -0.927573 0.938725 0.350203 1060.38 762.32)" fill="#D79000"/>
<ellipse rx="9.60475" ry="9.79051" transform="matrix(0.368256 -0.927573 0.938725 0.350203 906.509 761.754)" fill="#D79000"/>
<ellipse rx="9.60475" ry="9.79051" transform="matrix(0.368256 -0.927573 0.938725 0.350203 752.626 761.189)" fill="#D79000"/>
<ellipse rx="9.60475" ry="9.79051" transform="matrix(0.368256 -0.927573 0.938725 0.350203 598.749 760.623)" fill="#D79000"/>
<ellipse rx="9.60475" ry="9.79051" transform="matrix(0.368256 -0.927573 0.938725 0.350203 457.126 774.994)" fill="#D79000"/>
<ellipse rx="9.60475" ry="9.79051" transform="matrix(0.368256 -0.927573 0.938725 0.350203 274.579 768.275)" fill="#D79000"/>
<ellipse rx="9.84577" ry="9.5481" transform="matrix(0.996916 -0.07847 0.0834731 0.99651 198.044 925.854)" fill="#D79000"/>
<ellipse rx="9.84577" ry="9.5481" transform="matrix(0.996916 -0.07847 0.0834731 0.99651 293.972 926.923)" fill="#D79000"/>
<ellipse rx="9.84577" ry="9.5481" transform="matrix(0.996916 -0.07847 0.0834731 0.99651 389.898 927.992)" fill="#D79000"/>
<ellipse rx="9.84577" ry="9.5481" transform="matrix(0.996916 -0.07847 0.0834731 0.99651 485.827 929.061)" fill="#D79000"/>
<ellipse rx="9.84577" ry="9.5481" transform="matrix(0.996916 -0.07847 0.0834731 0.99651 581.751 930.13)" fill="#D79000"/>
<ellipse rx="9.84577" ry="9.5481" transform="matrix(0.996916 -0.07847 0.0834731 0.99651 677.679 931.199)" fill="#D79000"/>
<ellipse rx="9.84577" ry="9.5481" transform="matrix(0.996916 -0.07847 0.0834731 0.99651 773.605 932.269)" fill="#D79000"/>
<ellipse rx="9.84577" ry="9.5481" transform="matrix(0.996916 -0.07847 0.0834731 0.99651 869.532 933.338)" fill="#D79000"/>
<ellipse rx="9.84577" ry="9.5481" transform="matrix(0.996916 -0.07847 0.0834731 0.99651 965.458 934.407)" fill="#D79000"/>
<ellipse rx="9.84577" ry="9.5481" transform="matrix(0.996916 -0.07847 0.0834731 0.99651 1061.38 935.476)" fill="#D79000"/>
<ellipse rx="9.84577" ry="9.5481" transform="matrix(0.996916 -0.07847 0.0834731 0.99651 141.011 940.878)" fill="#D79000"/>
<ellipse rx="9.84577" ry="9.5481" transform="matrix(0.996916 -0.07847 0.0834731 0.99651 236.939 941.947)" fill="#D79000"/>
<ellipse rx="9.84577" ry="9.5481" transform="matrix(0.996916 -0.07847 0.0834731 0.99651 332.862 943.017)" fill="#D79000"/>
<ellipse rx="9.84577" ry="9.5481" transform="matrix(0.996916 -0.07847 0.0834731 0.99651 428.792 944.086)" fill="#E9CDB3"/>
<ellipse rx="9.84577" ry="9.5481" transform="matrix(0.996916 -0.07847 0.0834731 0.99651 524.718 945.155)" fill="#E9CDB3"/>
<ellipse rx="9.84577" ry="9.5481" transform="matrix(0.996916 -0.07847 0.0834731 0.99651 620.646 946.224)" fill="#E9CDB3"/>
<ellipse rx="9.84577" ry="9.5481" transform="matrix(0.996916 -0.07847 0.0834731 0.99651 716.569 947.293)" fill="#E9CDB3"/>
<ellipse rx="9.84577" ry="9.5481" transform="matrix(0.996916 -0.07847 0.0834731 0.99651 812.497 948.362)" fill="#E9CDB3"/>
<ellipse rx="9.84577" ry="9.5481" transform="matrix(0.996916 -0.07847 0.0834731 0.99651 908.425 949.432)" fill="#E9CDB3"/>
<ellipse rx="9.84577" ry="9.5481" transform="matrix(0.996916 -0.07847 0.0834731 0.99651 1004.35 950.5)" fill="#E9CDB3"/>
<ellipse rx="9.84577" ry="9.5481" transform="matrix(0.996916 -0.07847 0.0834731 0.99651 1100.28 951.57)" fill="#E9CDB3"/>
<ellipse rx="9.84577" ry="9.5481" transform="matrix(0.996916 -0.07847 0.0834731 0.99651 162.839 906.597)" fill="#E9CDB3"/>
<ellipse rx="9.84577" ry="9.5481" transform="matrix(0.996916 -0.07847 0.0834731 0.99651 258.767 907.666)" fill="#E9CDB3"/>
<ellipse rx="9.84577" ry="9.5481" transform="matrix(0.996916 -0.07847 0.0834731 0.99651 354.692 908.735)" fill="#E9CDB3"/>
<ellipse rx="9.84577" ry="9.5481" transform="matrix(0.996916 -0.07847 0.0834731 0.99651 450.618 909.804)" fill="#E9CDB3"/>
<ellipse rx="9.84577" ry="9.5481" transform="matrix(0.996916 -0.07847 0.0834731 0.99651 546.546 910.873)" fill="#E9CDB3"/>
<ellipse rx="9.84577" ry="9.5481" transform="matrix(0.996916 -0.07847 0.0834731 0.99651 642.474 911.942)" fill="#E9CDB3"/>
<ellipse rx="9.84577" ry="9.5481" transform="matrix(0.996916 -0.07847 0.0834731 0.99651 738.398 913.011)" fill="#E9CDB3"/>
<ellipse rx="9.84577" ry="9.5481" transform="matrix(0.996916 -0.07847 0.0834731 0.99651 834.325 914.08)" fill="#E9CDB3"/>
<ellipse rx="9.84577" ry="9.5481" transform="matrix(0.996916 -0.07847 0.0834731 0.99651 930.253 915.15)" fill="#E9CDB3"/>
<ellipse rx="9.84577" ry="9.5481" transform="matrix(0.996916 -0.07847 0.0834731 0.99651 1026.18 916.219)" fill="#E9CDB3"/>
<ellipse rx="9.84577" ry="9.5481" transform="matrix(0.996916 -0.07847 0.0834731 0.99651 1122.11 917.288)" fill="#E9CDB3"/>
<rect y="1730" width="1165" height="188" fill="#D3BBA3"/>
<rect x="29.5684" y="1547.3" width="1107.83" height="187.578" fill="#291200"/>
<path d="M211.509 1605.68L394.682 1791.16H28.3369L211.509 1605.68Z" fill="#863B37"/>
<path d="M211.499 1975.55L31.9113 1788.82L398.232 1791.35L211.499 1975.55Z" fill="#863B37"/>
<path d="M209.665 1632.28L364.438 1789H54.8908L209.665 1632.28Z" fill="#225D04"/>
<path d="M209.658 1944.8L57.9133 1787.03L367.44 1789.16L209.658 1944.8Z" fill="#225D04"/>
<path d="M208.929 1662.67L335.304 1790.64H82.5542L208.929 1662.67Z" fill="#D79000"/>
<path d="M208.92 1917.86L85.0189 1789.03L337.752 1790.77L208.92 1917.86Z" fill="#D79000"/>
<path d="M209.175 1681.67L316.617 1790.47H101.733L209.175 1681.67Z" fill="#291200"/>
<path d="M209.167 1898.63L103.828 1789.1L318.698 1790.58L209.167 1898.63Z" fill="#291200"/>
<path d="M207.814 1704.47L292.064 1789.78H123.565L207.814 1704.47Z" fill="#D3BBA3"/>
<path d="M207.809 1874.59L125.209 1788.71L293.697 1789.87L207.809 1874.59Z" fill="#D3BBA3"/>
<path d="M209.176 1727.27L273.547 1792.45H144.806L209.176 1727.27Z" fill="#291200"/>
<path d="M209.172 1857.25L146.062 1791.63L274.794 1792.51L209.172 1857.25Z" fill="#291200"/>
<path d="M581.115 1605.68L764.287 1791.16H397.942L581.115 1605.68Z" fill="#863B37"/>
<path d="M581.106 1975.55L401.519 1788.82L767.84 1791.35L581.106 1975.55Z" fill="#863B37"/>
<path d="M579.274 1632.28L734.048 1789H424.5L579.274 1632.28Z" fill="#225D04"/>
<path d="M579.265 1944.8L427.521 1787.03L737.048 1789.16L579.265 1944.8Z" fill="#225D04"/>
<path d="M578.535 1662.67L704.909 1790.64H452.16L578.535 1662.67Z" fill="#D79000"/>
<path d="M578.528 1917.86L454.626 1789.03L707.359 1790.77L578.528 1917.86Z" fill="#D79000"/>
<path d="M578.781 1681.67L686.223 1790.47H471.338L578.781 1681.67Z" fill="#291200"/>
<path d="M578.773 1898.63L473.433 1789.1L688.304 1790.58L578.773 1898.63Z" fill="#291200"/>
<path d="M577.42 1704.47L661.669 1789.78H493.17L577.42 1704.47Z" fill="#D3BBA3"/>
<path d="M577.417 1874.59L494.816 1788.71L663.304 1789.87L577.417 1874.59Z" fill="#D3BBA3"/>
<path d="M578.784 1727.27L643.154 1792.45H514.413L578.784 1727.27Z" fill="#291200"/>
<path d="M578.78 1857.25L515.669 1791.63L644.402 1792.51L578.78 1857.25Z" fill="#291200"/>
<path d="M948.75 1605.68L1131.92 1791.16H765.577L948.75 1605.68Z" fill="#863B37"/>
<path d="M948.741 1975.55L769.154 1788.82L1135.47 1791.35L948.741 1975.55Z" fill="#863B37"/>
<path d="M946.909 1632.28L1101.68 1789H792.135L946.909 1632.28Z" fill="#225D04"/>
<path d="M946.898 1944.8L795.154 1787.03L1104.68 1789.16L946.898 1944.8Z" fill="#225D04"/>
<path d="M946.169 1662.67L1072.54 1790.64H819.794L946.169 1662.67Z" fill="#D79000"/>
<path d="M946.163 1917.86L822.261 1789.03L1074.99 1790.77L946.163 1917.86Z" fill="#D79000"/>
<path d="M946.415 1681.67L1053.86 1790.47H838.973L946.415 1681.67Z" fill="#291200"/>
<path d="M946.407 1898.63L841.068 1789.1L1055.94 1790.58L946.407 1898.63Z" fill="#291200"/>
<path d="M945.055 1704.47L1029.3 1789.78H860.805L945.055 1704.47Z" fill="#D3BBA3"/>
<path d="M945.051 1874.59L862.451 1788.71L1030.94 1789.87L945.051 1874.59Z" fill="#D3BBA3"/>
<path d="M946.42 1727.27L1010.79 1792.45H882.05L946.42 1727.27Z" fill="#291200"/>
<path d="M946.417 1857.25L883.306 1791.63L1012.04 1792.51L946.417 1857.25Z" fill="#291200"/>
<rect y="1855.46" width="1165" height="187.578" fill="#291200"/>
<rect x="2.07227" y="1946.38" width="1162.93" height="11.4844" fill="#8B3F3D"/>
<rect y="1547" width="1165" height="188" fill="#291200"/>
<rect y="1394" width="1165" height="12" fill="#8B3F3D"/>
<ellipse rx="9.85507" ry="9.57144" transform="matrix(0.998142 -0.0609318 0.0646114 0.99791 51.1388 1542.94)" fill="#E9CDB3"/>
<ellipse rx="9.85507" ry="9.57144" transform="matrix(0.998142 -0.0609318 0.0646114 0.99791 147.111 1545.72)" fill="#E9CDB3"/>
<ellipse rx="9.85507" ry="9.57144" transform="matrix(0.998142 -0.0609318 0.0646114 0.99791 243.082 1548.49)" fill="#E9CDB3"/>
<ellipse rx="9.85507" ry="9.57144" transform="matrix(0.998142 -0.0609318 0.0646114 0.99791 339.057 1551.26)" fill="#E9CDB3"/>
<ellipse rx="9.85507" ry="9.57144" transform="matrix(0.998142 -0.0609318 0.0646114 0.99791 435.029 1554.03)" fill="#E9CDB3"/>
<ellipse rx="9.85507" ry="9.57144" transform="matrix(0.998142 -0.0609318 0.0646114 0.99791 531.004 1556.8)" fill="#E9CDB3"/>
<ellipse rx="9.85507" ry="9.57144" transform="matrix(0.998142 -0.0609318 0.0646114 0.99791 626.975 1559.57)" fill="#E9CDB3"/>
<ellipse rx="9.85507" ry="9.57144" transform="matrix(0.998142 -0.0609318 0.0646114 0.99791 722.949 1562.35)" fill="#E9CDB3"/>
<ellipse rx="9.85507" ry="9.57144" transform="matrix(0.998142 -0.0609318 0.0646114 0.99791 818.922 1565.12)" fill="#E9CDB3"/>
<ellipse rx="9.85507" ry="9.57144" transform="matrix(0.998142 -0.0609318 0.0646114 0.99791 914.897 1567.89)" fill="#E9CDB3"/>
<ellipse rx="9.85507" ry="9.57144" transform="matrix(0.998142 -0.0609318 0.0646114 0.99791 1010.87 1570.66)" fill="#E9CDB3"/>
<ellipse rx="9.85507" ry="9.57144" transform="matrix(0.998142 -0.0609318 0.0646114 0.99791 89.756 1559.77)" fill="#E9CDB3"/>
<ellipse rx="9.85507" ry="9.57144" transform="matrix(0.998142 -0.0609318 0.0646114 0.99791 185.727 1562.54)" fill="#E9CDB3"/>
<ellipse rx="9.85507" ry="9.57144" transform="matrix(0.998142 -0.0609318 0.0646114 0.99791 281.701 1565.31)" fill="#E9CDB3"/>
<ellipse rx="9.85507" ry="9.57144" transform="matrix(0.998142 -0.0609318 0.0646114 0.99791 377.674 1568.08)" fill="#D49A52"/>
<ellipse rx="9.85507" ry="9.57144" transform="matrix(0.998142 -0.0609318 0.0646114 0.99791 473.649 1570.85)" fill="#D49A52"/>
<ellipse rx="9.85507" ry="9.57144" transform="matrix(0.998142 -0.0609318 0.0646114 0.99791 569.619 1573.62)" fill="#D49A52"/>
<ellipse rx="9.85507" ry="9.57144" transform="matrix(0.998142 -0.0609318 0.0646114 0.99791 665.594 1576.39)" fill="#D49A52"/>
<ellipse rx="9.85507" ry="9.57144" transform="matrix(0.998142 -0.0609318 0.0646114 0.99791 761.567 1579.17)" fill="#D49A52"/>
<ellipse rx="9.85507" ry="9.57144" transform="matrix(0.998142 -0.0609318 0.0646114 0.99791 857.539 1581.94)" fill="#D49A52"/>
<ellipse rx="9.85507" ry="9.57144" transform="matrix(0.998142 -0.0609318 0.0646114 0.99791 953.51 1584.71)" fill="#D49A52"/>
<ellipse rx="9.85507" ry="9.57144" transform="matrix(0.998142 -0.0609318 0.0646114 0.99791 1049.48 1587.48)" fill="#D49A52"/>
<ellipse rx="9.85507" ry="9.57144" transform="matrix(0.998142 -0.0609318 0.0646114 0.99791 112.242 1525.79)" fill="#D49A52"/>
<ellipse rx="9.85507" ry="9.57144" transform="matrix(0.998142 -0.0609318 0.0646114 0.99791 208.217 1528.56)" fill="#D49A52"/>
<ellipse rx="9.85507" ry="9.57144" transform="matrix(0.998142 -0.0609318 0.0646114 0.99791 304.19 1531.33)" fill="#D49A52"/>
<ellipse rx="9.85507" ry="9.57144" transform="matrix(0.998142 -0.0609318 0.0646114 0.99791 83.3927 1527.13)" fill="#D49A52"/>
<ellipse rx="9.85507" ry="9.57144" transform="matrix(0.998142 -0.0609318 0.0646114 0.99791 400.162 1534.1)" fill="#D49A52"/>
<ellipse rx="9.85507" ry="9.57144" transform="matrix(0.998142 -0.0609318 0.0646114 0.99791 496.135 1536.88)" fill="#D49A52"/>
<ellipse rx="9.85507" ry="9.57144" transform="matrix(0.998142 -0.0609318 0.0646114 0.99791 592.109 1539.65)" fill="#D49A52"/>
<ellipse rx="9.85507" ry="9.57144" transform="matrix(0.998142 -0.0609318 0.0646114 0.99791 688.082 1542.42)" fill="#D49A52"/>
<ellipse rx="9.85507" ry="9.57144" transform="matrix(0.998142 -0.0609318 0.0646114 0.99791 784.055 1545.19)" fill="#D49A52"/>
<ellipse rx="9.85507" ry="9.57144" transform="matrix(0.998142 -0.0609318 0.0646114 0.99791 880.027 1547.96)" fill="#D49A52"/>
<ellipse rx="9.85507" ry="9.57144" transform="matrix(0.998142 -0.0609318 0.0646114 0.99791 976.004 1550.73)" fill="#E9CDB3"/>
<ellipse rx="9.85507" ry="9.57144" transform="matrix(0.998142 -0.0609318 0.0646114 0.99791 1071.97 1553.51)" fill="#E9CDB3"/>
<ellipse rx="9.85507" ry="9.57144" transform="matrix(0.998142 -0.0609318 0.0646114 0.99791 1092.74 1523.47)" fill="#E9CDB3"/>
<ellipse rx="9.85507" ry="9.57144" transform="matrix(0.998142 -0.0609318 0.0646114 0.99791 57.213 1593.16)" fill="#E9CDB3"/>
<ellipse rx="9.85507" ry="9.57144" transform="matrix(0.998142 -0.0609318 0.0646114 0.99791 44.545 1624.24)" fill="#E9CDB3"/>
<ellipse rx="9.62538" ry="9.80239" transform="matrix(0.385147 -0.921265 0.931652 0.367223 964.728 1518.63)" fill="#E9CDB3"/>
<ellipse rx="9.62538" ry="9.80239" transform="matrix(0.385147 -0.921265 0.931652 0.367223 810.752 1515.33)" fill="#E9CDB3"/>
<ellipse rx="9.62538" ry="9.80239" transform="matrix(0.385147 -0.921265 0.931652 0.367223 656.779 1512.04)" fill="#E9CDB3"/>
<ellipse rx="9.62538" ry="9.80239" transform="matrix(0.385147 -0.921265 0.931652 0.367223 502.802 1508.75)" fill="#E9CDB3"/>
<ellipse rx="9.62538" ry="9.80239" transform="matrix(0.385147 -0.921265 0.931652 0.367223 350.904 1508.25)" fill="#E9CDB3"/>
<ellipse rx="9.62538" ry="9.80239" transform="matrix(0.385147 -0.921265 0.931652 0.367223 171.918 1522.1)" fill="#E9CDB3"/>
<ellipse rx="9.85507" ry="9.57144" transform="matrix(0.998142 -0.0609318 0.0646114 0.99791 162.807 1589.83)" fill="#E9CDB3"/>
<ellipse rx="9.85507" ry="9.57144" transform="matrix(0.998142 -0.0609318 0.0646114 0.99791 258.777 1592.6)" fill="#E9CDB3"/>
<ellipse rx="9.85507" ry="9.57144" transform="matrix(0.998142 -0.0609318 0.0646114 0.99791 354.75 1595.37)" fill="#E9CDB3"/>
<ellipse rx="9.85507" ry="9.57144" transform="matrix(0.998142 -0.0609318 0.0646114 0.99791 450.723 1598.14)" fill="#E9CDB3"/>
<ellipse rx="9.85507" ry="9.57144" transform="matrix(0.998142 -0.0609318 0.0646114 0.99791 546.697 1600.91)" fill="#E9CDB3"/>
<ellipse rx="9.85507" ry="9.57144" transform="matrix(0.998142 -0.0609318 0.0646114 0.99791 642.67 1603.69)" fill="#E9CDB3"/>
<ellipse rx="9.85507" ry="9.57144" transform="matrix(0.998142 -0.0609318 0.0646114 0.99791 738.643 1606.46)" fill="#E9CDB3"/>
<ellipse rx="9.85507" ry="9.57144" transform="matrix(0.998142 -0.0609318 0.0646114 0.99791 834.615 1609.23)" fill="#E9CDB3"/>
<ellipse rx="9.85507" ry="9.57144" transform="matrix(0.998142 -0.0609318 0.0646114 0.99791 930.59 1612)" fill="#E9CDB3"/>
<ellipse rx="9.85507" ry="9.57144" transform="matrix(0.998142 -0.0609318 0.0646114 0.99791 1026.56 1614.77)" fill="#E9CDB3"/>
<ellipse rx="9.85507" ry="9.57144" transform="matrix(0.998142 -0.0609318 0.0646114 0.99791 105.449 1603.88)" fill="#E9CDB3"/>
<ellipse rx="9.85507" ry="9.57144" transform="matrix(0.998142 -0.0609318 0.0646114 0.99791 201.422 1606.65)" fill="#FFC850"/>
<ellipse rx="9.85507" ry="9.57144" transform="matrix(0.998142 -0.0609318 0.0646114 0.99791 297.395 1609.42)" fill="#FFC850"/>
<ellipse rx="9.85507" ry="9.57144" transform="matrix(0.998142 -0.0609318 0.0646114 0.99791 393.367 1612.19)" fill="#FFC850"/>
<ellipse rx="9.85507" ry="9.57144" transform="matrix(0.998142 -0.0609318 0.0646114 0.99791 489.342 1614.96)" fill="#FFC850"/>
<ellipse rx="9.85507" ry="9.57144" transform="matrix(0.998142 -0.0609318 0.0646114 0.99791 585.315 1617.73)" fill="#FFC850"/>
<ellipse rx="9.85507" ry="9.57144" transform="matrix(0.998142 -0.0609318 0.0646114 0.99791 681.287 1620.51)" fill="#FFC850"/>
<ellipse rx="9.85507" ry="9.57144" transform="matrix(0.998142 -0.0609318 0.0646114 0.99791 777.26 1623.28)" fill="#FFC850"/>
<ellipse rx="9.85507" ry="9.57144" transform="matrix(0.998142 -0.0609318 0.0646114 0.99791 873.234 1626.05)" fill="#FFC850"/>
<ellipse rx="9.85507" ry="9.57144" transform="matrix(0.998142 -0.0609318 0.0646114 0.99791 969.207 1628.82)" fill="#FFC850"/>
<ellipse rx="9.85507" ry="9.57144" transform="matrix(0.998142 -0.0609318 0.0646114 0.99791 1065.18 1631.59)" fill="#FFC850"/>
<ellipse rx="9.85507" ry="9.57144" transform="matrix(0.998142 -0.0609318 0.0646114 0.99791 127.94 1569.9)" fill="#FFC850"/>
<ellipse rx="9.85507" ry="9.57144" transform="matrix(0.998142 -0.0609318 0.0646114 0.99791 223.908 1572.67)" fill="#FFC850"/>
<ellipse rx="9.85507" ry="9.57144" transform="matrix(0.998142 -0.0609318 0.0646114 0.99791 319.883 1575.44)" fill="#FFC850"/>
<ellipse rx="9.85507" ry="9.57144" transform="matrix(0.998142 -0.0609318 0.0646114 0.99791 415.856 1578.22)" fill="#FFC850"/>
<ellipse rx="9.85507" ry="9.57144" transform="matrix(0.998142 -0.0609318 0.0646114 0.99791 511.83 1580.99)" fill="#FFC850"/>
<ellipse rx="9.85507" ry="9.57144" transform="matrix(0.998142 -0.0609318 0.0646114 0.99791 607.801 1583.76)" fill="#FFC850"/>
<ellipse rx="9.85507" ry="9.57144" transform="matrix(0.998142 -0.0609318 0.0646114 0.99791 703.777 1586.53)" fill="#FFC850"/>
<ellipse rx="9.85507" ry="9.57144" transform="matrix(0.998142 -0.0609318 0.0646114 0.99791 799.75 1589.3)" fill="#FFC850"/>
<ellipse rx="9.85507" ry="9.57144" transform="matrix(0.998142 -0.0609318 0.0646114 0.99791 895.723 1592.07)" fill="#E9CDB3"/>
<ellipse rx="9.85507" ry="9.57144" transform="matrix(0.998142 -0.0609318 0.0646114 0.99791 991.695 1594.84)" fill="#E9CDB3"/>
<ellipse rx="9.85507" ry="9.57144" transform="matrix(0.998142 -0.0609318 0.0646114 0.99791 1087.67 1597.62)" fill="#E9CDB3"/>
<ellipse rx="9.85507" ry="9.57144" transform="matrix(0.998142 -0.0609318 0.0646114 0.99791 1108.44 1567.58)" fill="#E9CDB3"/>
<ellipse rx="9.85507" ry="9.57144" transform="matrix(0.998142 -0.0609318 0.0646114 0.99791 72.9064 1637.27)" fill="#E9CDB3"/>
<ellipse rx="9.85507" ry="9.57144" transform="matrix(0.998142 -0.0609318 0.0646114 0.99791 60.2384 1668.35)" fill="#E9CDB3"/>
<ellipse rx="9.62538" ry="9.80239" transform="matrix(0.385147 -0.921265 0.931652 0.367223 1012.47 1524.02)" fill="#E9CDB3"/>
<ellipse rx="9.62538" ry="9.80239" transform="matrix(0.385147 -0.921265 0.931652 0.367223 858.494 1520.73)" fill="#E9CDB3"/>
<ellipse rx="9.62538" ry="9.80239" transform="matrix(0.385147 -0.921265 0.931652 0.367223 704.519 1517.43)" fill="#E9CDB3"/>
<ellipse rx="9.62538" ry="9.80239" transform="matrix(0.385147 -0.921265 0.931652 0.367223 550.545 1514.14)" fill="#E9CDB3"/>
<ellipse rx="9.62538" ry="9.80239" transform="matrix(0.385147 -0.921265 0.931652 0.367223 416.83 1504.06)" fill="#E9CDB3"/>
<ellipse rx="9.62538" ry="9.80239" transform="matrix(0.385147 -0.921265 0.931652 0.367223 234.851 1517.05)" fill="#E9CDB3"/>
<ellipse rx="9.85507" ry="9.57144" transform="matrix(0.998142 -0.0609318 0.0646114 0.99791 178.5 1633.94)" fill="#E9CDB3"/>
<ellipse rx="9.85507" ry="9.57144" transform="matrix(0.998142 -0.0609318 0.0646114 0.99791 274.473 1636.71)" fill="#E9CDB3"/>
<ellipse rx="9.85507" ry="9.57144" transform="matrix(0.998142 -0.0609318 0.0646114 0.99791 370.447 1639.48)" fill="#E9CDB3"/>
<ellipse rx="9.85507" ry="9.57144" transform="matrix(0.998142 -0.0609318 0.0646114 0.99791 466.416 1642.25)" fill="#E9CDB3"/>
<ellipse rx="9.85507" ry="9.57144" transform="matrix(0.998142 -0.0609318 0.0646114 0.99791 562.391 1645.02)" fill="#E9CDB3"/>
<ellipse rx="9.85507" ry="9.57144" transform="matrix(0.998142 -0.0609318 0.0646114 0.99791 658.363 1647.8)" fill="#E9CDB3"/>
<ellipse rx="9.85507" ry="9.57144" transform="matrix(0.998142 -0.0609318 0.0646114 0.99791 754.338 1650.57)" fill="#E9CDB3"/>
<ellipse rx="9.85507" ry="9.57144" transform="matrix(0.998142 -0.0609318 0.0646114 0.99791 850.311 1653.34)" fill="#E9CDB3"/>
<ellipse rx="9.85507" ry="9.57144" transform="matrix(0.998142 -0.0609318 0.0646114 0.99791 946.285 1656.11)" fill="#E9CDB3"/>
<ellipse rx="9.85507" ry="9.57144" transform="matrix(0.998142 -0.0609318 0.0646114 0.99791 1042.26 1658.88)" fill="#E9CDB3"/>
<ellipse rx="9.85507" ry="9.57144" transform="matrix(0.998142 -0.0609318 0.0646114 0.99791 121.143 1647.99)" fill="#D49A52"/>
<ellipse rx="9.85507" ry="9.57144" transform="matrix(0.998142 -0.0609318 0.0646114 0.99791 217.115 1650.76)" fill="#D49A52"/>
<ellipse rx="9.85507" ry="9.57144" transform="matrix(0.998142 -0.0609318 0.0646114 0.99791 313.09 1653.53)" fill="#D49A52"/>
<ellipse rx="9.85507" ry="9.57144" transform="matrix(0.998142 -0.0609318 0.0646114 0.99791 409.063 1656.3)" fill="#D49A52"/>
<ellipse rx="9.85507" ry="9.57144" transform="matrix(0.998142 -0.0609318 0.0646114 0.99791 505.035 1659.07)" fill="#D49A52"/>
<ellipse rx="9.85507" ry="9.57144" transform="matrix(0.998142 -0.0609318 0.0646114 0.99791 601.01 1661.85)" fill="#D49A52"/>
<ellipse rx="9.85507" ry="9.57144" transform="matrix(0.998142 -0.0609318 0.0646114 0.99791 696.983 1664.62)" fill="#D49A52"/>
<ellipse rx="9.85507" ry="9.57144" transform="matrix(0.998142 -0.0609318 0.0646114 0.99791 792.955 1667.39)" fill="#D49A52"/>
<ellipse rx="9.85507" ry="9.57144" transform="matrix(0.998142 -0.0609318 0.0646114 0.99791 888.928 1670.16)" fill="#D49A52"/>
<ellipse rx="9.85507" ry="9.57144" transform="matrix(0.998142 -0.0609318 0.0646114 0.99791 984.902 1672.93)" fill="#D49A52"/>
<ellipse rx="9.85507" ry="9.57144" transform="matrix(0.998142 -0.0609318 0.0646114 0.99791 1080.88 1675.7)" fill="#D49A52"/>
<ellipse rx="9.85507" ry="9.57144" transform="matrix(0.998142 -0.0609318 0.0646114 0.99791 143.633 1614.01)" fill="#D49A52"/>
<ellipse rx="9.85507" ry="9.57144" transform="matrix(0.998142 -0.0609318 0.0646114 0.99791 239.606 1616.78)" fill="#D49A52"/>
<ellipse rx="9.85507" ry="9.57144" transform="matrix(0.998142 -0.0609318 0.0646114 0.99791 335.578 1619.55)" fill="#D49A52"/>
<ellipse rx="9.85507" ry="9.57144" transform="matrix(0.998142 -0.0609318 0.0646114 0.99791 431.551 1622.33)" fill="#D49A52"/>
<ellipse rx="9.85507" ry="9.57144" transform="matrix(0.998142 -0.0609318 0.0646114 0.99791 527.524 1625.1)" fill="#D49A52"/>
<ellipse rx="9.85507" ry="9.57144" transform="matrix(0.998142 -0.0609318 0.0646114 0.99791 623.498 1627.87)" fill="#D49A52"/>
<ellipse rx="9.85507" ry="9.57144" transform="matrix(0.998142 -0.0609318 0.0646114 0.99791 719.469 1630.64)" fill="#D49A52"/>
<ellipse rx="9.85507" ry="9.57144" transform="matrix(0.998142 -0.0609318 0.0646114 0.99791 815.445 1633.41)" fill="#D79000"/>
<ellipse rx="9.85507" ry="9.57144" transform="matrix(0.998142 -0.0609318 0.0646114 0.99791 911.416 1636.18)" fill="#D79000"/>
<ellipse rx="9.85507" ry="9.57144" transform="matrix(0.998142 -0.0609318 0.0646114 0.99791 1007.39 1638.96)" fill="#D79000"/>
<ellipse rx="9.85507" ry="9.57144" transform="matrix(0.998142 -0.0609318 0.0646114 0.99791 1103.36 1641.73)" fill="#D79000"/>
<ellipse rx="9.85507" ry="9.57144" transform="matrix(0.998142 -0.0609318 0.0646114 0.99791 88.5997 1681.38)" fill="#D79000"/>
<ellipse rx="9.85507" ry="9.57144" transform="matrix(0.998142 -0.0609318 0.0646114 0.99791 75.9337 1712.46)" fill="#D79000"/>
<ellipse rx="9.62538" ry="9.80239" transform="matrix(0.385147 -0.921265 0.931652 0.367223 1060.21 1529.41)" fill="#D79000"/>
<ellipse rx="9.62538" ry="9.80239" transform="matrix(0.385147 -0.921265 0.931652 0.367223 906.236 1526.12)" fill="#D79000"/>
<ellipse rx="9.62538" ry="9.80239" transform="matrix(0.385147 -0.921265 0.931652 0.367223 752.263 1522.82)" fill="#D79000"/>
<ellipse rx="9.62538" ry="9.80239" transform="matrix(0.385147 -0.921265 0.931652 0.367223 598.285 1519.53)" fill="#D79000"/>
<ellipse rx="9.62538" ry="9.80239" transform="matrix(0.385147 -0.921265 0.931652 0.367223 456.295 1531.42)" fill="#D79000"/>
<ellipse rx="9.62538" ry="9.80239" transform="matrix(0.385147 -0.921265 0.931652 0.367223 273.748 1521.45)" fill="#D79000"/>
<ellipse rx="9.85507" ry="9.57144" transform="matrix(0.998142 -0.0609318 0.0646114 0.99791 194.195 1678.05)" fill="#D79000"/>
<ellipse rx="9.85507" ry="9.57144" transform="matrix(0.998142 -0.0609318 0.0646114 0.99791 290.166 1680.82)" fill="#D79000"/>
<ellipse rx="9.85507" ry="9.57144" transform="matrix(0.998142 -0.0609318 0.0646114 0.99791 386.143 1683.59)" fill="#D79000"/>
<ellipse rx="9.85507" ry="9.57144" transform="matrix(0.998142 -0.0609318 0.0646114 0.99791 482.113 1686.36)" fill="#D79000"/>
<ellipse rx="9.85507" ry="9.57144" transform="matrix(0.998142 -0.0609318 0.0646114 0.99791 578.088 1689.14)" fill="#D79000"/>
<ellipse rx="9.85507" ry="9.57144" transform="matrix(0.998142 -0.0609318 0.0646114 0.99791 674.059 1691.91)" fill="#D79000"/>
<ellipse rx="9.85507" ry="9.57144" transform="matrix(0.998142 -0.0609318 0.0646114 0.99791 770.033 1694.68)" fill="#D79000"/>
<ellipse rx="9.85507" ry="9.57144" transform="matrix(0.998142 -0.0609318 0.0646114 0.99791 866.006 1697.45)" fill="#D79000"/>
<ellipse rx="9.85507" ry="9.57144" transform="matrix(0.998142 -0.0609318 0.0646114 0.99791 961.979 1700.22)" fill="#D79000"/>
<ellipse rx="9.85507" ry="9.57144" transform="matrix(0.998142 -0.0609318 0.0646114 0.99791 1057.95 1702.99)" fill="#D79000"/>
<ellipse rx="9.85507" ry="9.57144" transform="matrix(0.998142 -0.0609318 0.0646114 0.99791 136.84 1692.1)" fill="#D79000"/>
<ellipse rx="9.85507" ry="9.57144" transform="matrix(0.998142 -0.0609318 0.0646114 0.99791 232.809 1694.87)" fill="#D79000"/>
<ellipse rx="9.85507" ry="9.57144" transform="matrix(0.998142 -0.0609318 0.0646114 0.99791 328.785 1697.64)" fill="#D79000"/>
<ellipse rx="9.85507" ry="9.57144" transform="matrix(0.998142 -0.0609318 0.0646114 0.99791 424.756 1700.41)" fill="#E9CDB3"/>
<ellipse rx="9.85507" ry="9.57144" transform="matrix(0.998142 -0.0609318 0.0646114 0.99791 520.731 1703.19)" fill="#E9CDB3"/>
<ellipse rx="9.85507" ry="9.57144" transform="matrix(0.998142 -0.0609318 0.0646114 0.99791 616.701 1705.96)" fill="#E9CDB3"/>
<ellipse rx="9.85507" ry="9.57144" transform="matrix(0.998142 -0.0609318 0.0646114 0.99791 712.678 1708.73)" fill="#E9CDB3"/>
<ellipse rx="9.85507" ry="9.57144" transform="matrix(0.998142 -0.0609318 0.0646114 0.99791 808.649 1711.5)" fill="#E9CDB3"/>
<ellipse rx="9.85507" ry="9.57144" transform="matrix(0.998142 -0.0609318 0.0646114 0.99791 904.623 1714.27)" fill="#E9CDB3"/>
<ellipse rx="9.85507" ry="9.57144" transform="matrix(0.998142 -0.0609318 0.0646114 0.99791 1000.59 1717.04)" fill="#E9CDB3"/>
<ellipse rx="9.85507" ry="9.57144" transform="matrix(0.998142 -0.0609318 0.0646114 0.99791 1096.57 1719.81)" fill="#E9CDB3"/>
<ellipse rx="9.85507" ry="9.57144" transform="matrix(0.998142 -0.0609318 0.0646114 0.99791 159.328 1658.12)" fill="#E9CDB3"/>
<ellipse rx="9.85507" ry="9.57144" transform="matrix(0.998142 -0.0609318 0.0646114 0.99791 255.299 1660.89)" fill="#E9CDB3"/>
<ellipse rx="9.85507" ry="9.57144" transform="matrix(0.998142 -0.0609318 0.0646114 0.99791 351.274 1663.67)" fill="#E9CDB3"/>
<ellipse rx="9.85507" ry="9.57144" transform="matrix(0.998142 -0.0609318 0.0646114 0.99791 447.244 1666.44)" fill="#E9CDB3"/>
<ellipse rx="9.85507" ry="9.57144" transform="matrix(0.998142 -0.0609318 0.0646114 0.99791 543.221 1669.21)" fill="#E9CDB3"/>
<ellipse rx="9.85507" ry="9.57144" transform="matrix(0.998142 -0.0609318 0.0646114 0.99791 639.192 1671.98)" fill="#E9CDB3"/>
<ellipse rx="9.85507" ry="9.57144" transform="matrix(0.998142 -0.0609318 0.0646114 0.99791 735.164 1674.75)" fill="#E9CDB3"/>
<ellipse rx="9.85507" ry="9.57144" transform="matrix(0.998142 -0.0609318 0.0646114 0.99791 831.137 1677.52)" fill="#E9CDB3"/>
<ellipse rx="9.85507" ry="9.57144" transform="matrix(0.998142 -0.0609318 0.0646114 0.99791 927.111 1680.3)" fill="#E9CDB3"/>
<ellipse rx="9.85507" ry="9.57144" transform="matrix(0.998142 -0.0609318 0.0646114 0.99791 1023.08 1683.07)" fill="#E9CDB3"/>
<ellipse rx="9.85507" ry="9.57144" transform="matrix(0.998142 -0.0609318 0.0646114 0.99791 1119.06 1685.84)" fill="#E9CDB3"/>
<path d="M0 1H1165V2043H0V1Z" fill="#3F3D56" fill-opacity="0.78"/>
</svg>
