<svg width="414" height="1580" viewBox="0 0 414 1580" fill="none" xmlns="http://www.w3.org/2000/svg">
<rect x="-6.95117" width="423.806" height="1554" fill="#3F3D56" fill-opacity="0.94"/>
<rect x="45.146" y="16" width="96.5057" height="12" rx="6" fill="#FAFAEF"/>
<rect x="288.388" y="198" width="93.2083" height="12" rx="6" fill="#85453D"/>
<rect x="294.44" y="232" width="93.2083" height="12" rx="6" fill="#E85D5D"/>
<rect x="300.493" y="266" width="93.2083" height="12" rx="6" fill="#FFC850"/>
<rect x="306.545" y="300" width="93.2083" height="12" rx="6" fill="#FAFAEF"/>
<rect x="288.388" y="338" width="93.2083" height="12" rx="6" fill="#85453D"/>
<rect x="294.44" y="372" width="93.2083" height="12" rx="6" fill="#E85D5D"/>
<rect x="300.493" y="406" width="93.2083" height="12" rx="6" fill="#FFC850"/>
<rect x="306.545" y="440" width="93.2083" height="12" rx="6" fill="#FAFAEF"/>
<rect x="306.545" y="580" width="93.2083" height="12" rx="6" fill="#FAFAEF"/>
<rect x="288.388" y="478" width="93.2083" height="12" rx="6" fill="#85453D"/>
<rect x="294.44" y="512" width="93.2083" height="12" rx="6" fill="#E85D5D"/>
<rect x="300.493" y="546" width="93.2083" height="12" rx="6" fill="#FFC850"/>
<rect x="306.545" y="720" width="93.2083" height="12" rx="6" fill="#FAFAEF"/>
<rect x="288.388" y="618" width="93.2083" height="12" rx="6" fill="#85453D"/>
<rect x="294.44" y="652" width="93.2083" height="12" rx="6" fill="#E85D5D"/>
<rect x="300.493" y="686" width="93.2083" height="12" rx="6" fill="#FFC850"/>
<rect x="306.545" y="860" width="93.2083" height="12" rx="6" fill="#FAFAEF"/>
<rect x="288.388" y="758" width="93.2083" height="12" rx="6" fill="#85453D"/>
<rect x="294.44" y="792" width="93.2083" height="12" rx="6" fill="#E85D5D"/>
<rect x="300.493" y="826" width="93.2083" height="12" rx="6" fill="#FFC850"/>
<rect x="306.545" y="1000" width="93.2083" height="12" rx="6" fill="#FAFAEF"/>
<rect x="288.388" y="898" width="93.2083" height="12" rx="6" fill="#85453D"/>
<rect x="294.44" y="932" width="93.2083" height="12" rx="6" fill="#E85D5D"/>
<rect x="300.493" y="966" width="93.2083" height="12" rx="6" fill="#FFC850"/>
<rect x="165.22" y="16" width="93.2083" height="12" rx="6" fill="#FAFAEF"/>
<rect x="293.835" y="11" width="93.2083" height="12" rx="6" fill="#FAFAEF"/>
<rect x="43.2622" y="160" width="93.2083" height="12" rx="6" fill="#FAFAEF"/>
<rect x="25.1045" y="58" width="93.2083" height="12" rx="6" fill="#85453D"/>
<rect x="31.1572" y="92" width="93.2083" height="12" rx="6" fill="#E85D5D"/>
<rect x="37.2095" y="126" width="93.2083" height="12" rx="6" fill="#FFC850"/>
<rect x="165.219" y="154" width="93.2083" height="12" rx="6" fill="#FAFAEF"/>
<rect x="147.062" y="52" width="93.2083" height="12" rx="6" fill="#85453D"/>
<rect x="153.114" y="86" width="93.2083" height="12" rx="6" fill="#E85D5D"/>
<rect x="159.167" y="120" width="93.2083" height="12" rx="6" fill="#FFC850"/>
<rect x="293.834" y="154" width="93.2083" height="12" rx="6" fill="#FAFAEF"/>
<rect x="275.677" y="52" width="93.2083" height="12" rx="6" fill="#85453D"/>
<rect x="281.729" y="86" width="93.2083" height="12" rx="6" fill="#E85D5D"/>
<rect x="287.782" y="120" width="93.2083" height="12" rx="6" fill="#FFC850"/>
<rect x="61.478" y="1145" width="93.2083" height="12" rx="6" fill="#FAFAEF"/>
<rect x="43.3203" y="1043" width="93.2083" height="12" rx="6" fill="#85453D"/>
<rect x="49.373" y="1077" width="93.2083" height="12" rx="6" fill="#E85D5D"/>
<rect x="55.4253" y="1111" width="93.2083" height="12" rx="6" fill="#FFC850"/>
<rect x="180.19" y="1145" width="93.2083" height="12" rx="6" fill="#FAFAEF"/>
<rect x="162.033" y="1043" width="93.2083" height="12" rx="6" fill="#85453D"/>
<rect x="168.085" y="1077" width="93.2083" height="12" rx="6" fill="#E85D5D"/>
<rect x="174.138" y="1111" width="93.2083" height="12" rx="6" fill="#FFC850"/>
<rect x="312.988" y="1145" width="93.2083" height="12" rx="6" fill="#FAFAEF"/>
<rect x="294.831" y="1043" width="93.2083" height="12" rx="6" fill="#85453D"/>
<rect x="300.883" y="1077" width="93.2083" height="12" rx="6" fill="#E85D5D"/>
<rect x="306.935" y="1111" width="93.2083" height="12" rx="6" fill="#FFC850"/>
<rect x="-7.98779" y="1043" width="15.4503" height="12" rx="6" fill="#85453D"/>
<rect x="-7.98779" y="1077" width="16.3417" height="12" rx="6" fill="#E85D5D"/>
<rect x="-7.98779" y="1111" width="17.5522" height="12" rx="6" fill="#FFC850"/>
<rect x="-7.08008" y="1145" width="17.5522" height="12" rx="6" fill="#FAFAEF"/>
<rect x="67.3188" y="1428" width="93.2083" height="12" rx="6" fill="#FAFAEF"/>
<rect x="49.1611" y="1326" width="93.2083" height="12" rx="6" fill="#85453D"/>
<rect x="55.2139" y="1360" width="93.2083" height="12" rx="6" fill="#E85D5D"/>
<rect x="61.2661" y="1394" width="93.2083" height="12" rx="6" fill="#FFC850"/>
<rect x="186.031" y="1428" width="93.2083" height="12" rx="6" fill="#FAFAEF"/>
<rect x="167.874" y="1326" width="93.2083" height="12" rx="6" fill="#85453D"/>
<rect x="173.926" y="1360" width="93.2083" height="12" rx="6" fill="#E85D5D"/>
<rect x="179.979" y="1394" width="93.2083" height="12" rx="6" fill="#FFC850"/>
<rect x="318.829" y="1428" width="93.2083" height="12" rx="6" fill="#FAFAEF"/>
<rect x="300.671" y="1326" width="93.2083" height="12" rx="6" fill="#85453D"/>
<rect x="306.724" y="1360" width="93.2083" height="12" rx="6" fill="#E85D5D"/>
<rect x="312.776" y="1394" width="93.2083" height="12" rx="6" fill="#FFC850"/>
<rect x="-2.14697" y="1326" width="15.4503" height="12" rx="6" fill="#85453D"/>
<rect x="-2.14697" y="1360" width="16.3417" height="12" rx="6" fill="#E85D5D"/>
<rect x="-2.14697" y="1394" width="17.5522" height="12" rx="6" fill="#FFC850"/>
<rect x="-1.23926" y="1428" width="17.5522" height="12" rx="6" fill="#FAFAEF"/>
<rect x="69.2817" y="1568" width="93.2083" height="12" rx="6" fill="#FAFAEF"/>
<rect x="51.124" y="1466" width="93.2083" height="12" rx="6" fill="#85453D"/>
<rect x="57.1763" y="1500" width="93.2083" height="12" rx="6" fill="#E85D5D"/>
<rect x="63.229" y="1534" width="93.2083" height="12" rx="6" fill="#FFC850"/>
<rect x="187.994" y="1568" width="93.2083" height="12" rx="6" fill="#FAFAEF"/>
<rect x="169.836" y="1466" width="93.2083" height="12" rx="6" fill="#85453D"/>
<rect x="175.889" y="1500" width="93.2083" height="12" rx="6" fill="#E85D5D"/>
<rect x="181.941" y="1534" width="93.2083" height="12" rx="6" fill="#FFC850"/>
<rect x="320.791" y="1568" width="93.2083" height="12" rx="6" fill="#FAFAEF"/>
<rect x="302.634" y="1466" width="93.2083" height="12" rx="6" fill="#85453D"/>
<rect x="308.686" y="1500" width="93.2083" height="12" rx="6" fill="#E85D5D"/>
<rect x="314.738" y="1534" width="93.2083" height="12" rx="6" fill="#FFC850"/>
<rect x="-0.184082" y="1466" width="15.4503" height="12" rx="6" fill="#85453D"/>
<rect x="-0.184082" y="1500" width="16.3417" height="12" rx="6" fill="#E85D5D"/>
<rect x="-0.184082" y="1534" width="17.5522" height="12" rx="6" fill="#FFC850"/>
<rect x="0.723633" y="1568" width="17.5522" height="12" rx="6" fill="#FAFAEF"/>
<rect x="60.4722" y="1288" width="93.2083" height="12" rx="6" fill="#FAFAEF"/>
<rect x="42.3145" y="1186" width="93.2083" height="12" rx="6" fill="#85453D"/>
<rect x="48.3667" y="1220" width="93.2083" height="12" rx="6" fill="#E85D5D"/>
<rect x="54.4194" y="1254" width="93.2083" height="12" rx="6" fill="#FFC850"/>
<rect x="179.185" y="1288" width="93.2083" height="12" rx="6" fill="#FAFAEF"/>
<rect x="161.027" y="1186" width="93.2083" height="12" rx="6" fill="#85453D"/>
<rect x="167.08" y="1220" width="93.2083" height="12" rx="6" fill="#E85D5D"/>
<rect x="173.132" y="1254" width="93.2083" height="12" rx="6" fill="#FFC850"/>
<rect x="311.982" y="1288" width="93.2083" height="12" rx="6" fill="#FAFAEF"/>
<rect x="293.825" y="1186" width="93.2083" height="12" rx="6" fill="#85453D"/>
<rect x="299.877" y="1220" width="93.2083" height="12" rx="6" fill="#E85D5D"/>
<rect x="305.93" y="1254" width="93.2083" height="12" rx="6" fill="#FFC850"/>
<rect x="-8.99365" y="1186" width="15.4503" height="12" rx="6" fill="#85453D"/>
<rect x="-8.99365" y="1220" width="16.3417" height="12" rx="6" fill="#E85D5D"/>
<rect x="-8.99365" y="1254" width="17.5522" height="12" rx="6" fill="#FFC850"/>
<rect x="-8.08594" y="1288" width="17.5522" height="12" rx="6" fill="#FAFAEF"/>
<rect x="150.088" y="198" width="93.2083" height="12" rx="6" fill="#85453D"/>
<rect x="156.141" y="232" width="93.2083" height="12" rx="6" fill="#E85D5D"/>
<rect x="162.193" y="266" width="93.2083" height="12" rx="6" fill="#FFC850"/>
<rect x="168.246" y="300" width="93.2083" height="12" rx="6" fill="#FAFAEF"/>
<rect x="150.088" y="338" width="93.2083" height="12" rx="6" fill="#85453D"/>
<rect x="156.141" y="372" width="93.2083" height="12" rx="6" fill="#E85D5D"/>
<rect x="162.193" y="406" width="93.2083" height="12" rx="6" fill="#FFC850"/>
<rect x="168.246" y="440" width="93.2083" height="12" rx="6" fill="#FAFAEF"/>
<rect x="168.246" y="580" width="93.2083" height="12" rx="6" fill="#FAFAEF"/>
<rect x="150.088" y="478" width="93.2083" height="12" rx="6" fill="#85453D"/>
<rect x="156.141" y="512" width="93.2083" height="12" rx="6" fill="#E85D5D"/>
<rect x="162.193" y="546" width="93.2083" height="12" rx="6" fill="#FFC850"/>
<rect x="168.246" y="720" width="93.2083" height="12" rx="6" fill="#FAFAEF"/>
<rect x="150.088" y="618" width="93.2083" height="12" rx="6" fill="#85453D"/>
<rect x="156.141" y="652" width="93.2083" height="12" rx="6" fill="#E85D5D"/>
<rect x="162.193" y="686" width="93.2083" height="12" rx="6" fill="#FFC850"/>
<rect x="168.246" y="860" width="93.2083" height="12" rx="6" fill="#FAFAEF"/>
<rect x="150.088" y="758" width="93.2083" height="12" rx="6" fill="#85453D"/>
<rect x="156.141" y="792" width="93.2083" height="12" rx="6" fill="#E85D5D"/>
<rect x="162.193" y="826" width="93.2083" height="12" rx="6" fill="#FFC850"/>
<rect x="168.246" y="1000" width="93.2083" height="12" rx="6" fill="#FAFAEF"/>
<rect x="150.088" y="898" width="93.2083" height="12" rx="6" fill="#85453D"/>
<rect x="156.141" y="932" width="93.2083" height="12" rx="6" fill="#E85D5D"/>
<rect x="162.193" y="966" width="93.2083" height="12" rx="6" fill="#FFC850"/>
<rect x="25.1045" y="198" width="93.2083" height="12" rx="6" fill="#85453D"/>
<rect x="31.1572" y="232" width="93.2083" height="12" rx="6" fill="#E85D5D"/>
<rect x="37.2095" y="266" width="93.2083" height="12" rx="6" fill="#FFC850"/>
<rect x="43.2622" y="300" width="93.2083" height="12" rx="6" fill="#FAFAEF"/>
<rect x="25.1045" y="338" width="93.2083" height="12" rx="6" fill="#85453D"/>
<rect x="31.1572" y="372" width="93.2083" height="12" rx="6" fill="#E85D5D"/>
<rect x="37.2095" y="406" width="93.2083" height="12" rx="6" fill="#FFC850"/>
<rect x="43.2622" y="440" width="93.2083" height="12" rx="6" fill="#FAFAEF"/>
<rect x="43.2622" y="580" width="93.2083" height="12" rx="6" fill="#FAFAEF"/>
<rect x="25.1045" y="478" width="93.2083" height="12" rx="6" fill="#85453D"/>
<rect x="31.1572" y="512" width="93.2083" height="12" rx="6" fill="#E85D5D"/>
<rect x="37.2095" y="546" width="93.2083" height="12" rx="6" fill="#FFC850"/>
<rect x="43.2622" y="720" width="93.2083" height="12" rx="6" fill="#FAFAEF"/>
<rect x="25.1045" y="618" width="93.2083" height="12" rx="6" fill="#85453D"/>
<rect x="31.1572" y="652" width="93.2083" height="12" rx="6" fill="#E85D5D"/>
<rect x="37.2095" y="686" width="93.2083" height="12" rx="6" fill="#FFC850"/>
<rect x="43.2622" y="860" width="93.2083" height="12" rx="6" fill="#FAFAEF"/>
<rect x="25.1045" y="758" width="93.2083" height="12" rx="6" fill="#85453D"/>
<rect x="31.1572" y="792" width="93.2083" height="12" rx="6" fill="#E85D5D"/>
<rect x="37.2095" y="826" width="93.2083" height="12" rx="6" fill="#FFC850"/>
<rect x="43.2622" y="1000" width="93.2083" height="12" rx="6" fill="#FAFAEF"/>
<rect x="25.1045" y="898" width="93.2083" height="12" rx="6" fill="#85453D"/>
<rect x="31.1572" y="932" width="93.2083" height="12" rx="6" fill="#E85D5D"/>
<rect x="37.2095" y="966" width="93.2083" height="12" rx="6" fill="#FFC850"/>
<rect x="-9.39453" y="198" width="15.4503" height="12" rx="6" fill="#85453D"/>
<rect x="-9.39453" y="232" width="16.3417" height="12" rx="6" fill="#E85D5D"/>
<rect x="-9.39453" y="266" width="17.5522" height="12" rx="6" fill="#FFC850"/>
<rect x="-8.48682" y="300" width="17.5522" height="12" rx="6" fill="#FAFAEF"/>
<rect x="-9.39453" y="52" width="15.4503" height="12" rx="6" fill="#85453D"/>
<rect x="-9.39453" y="86" width="16.3417" height="12" rx="6" fill="#E85D5D"/>
<rect x="-9.39453" y="120" width="17.5522" height="12" rx="6" fill="#FFC850"/>
<rect x="-8.48682" y="154" width="17.5522" height="12" rx="6" fill="#FAFAEF"/>
<rect x="-8.4873" y="16" width="17.5522" height="12" rx="6" fill="#FAFAEF"/>
<rect x="-10" y="338" width="15.4503" height="12" rx="6" fill="#85453D"/>
<rect x="-10" y="372" width="16.3417" height="12" rx="6" fill="#E85D5D"/>
<rect x="-10" y="406" width="17.5522" height="12" rx="6" fill="#FFC850"/>
<rect x="-9.09229" y="440" width="17.5522" height="12" rx="6" fill="#FAFAEF"/>
<rect x="-10" y="478" width="15.4503" height="12" rx="6" fill="#85453D"/>
<rect x="-10" y="512" width="16.3417" height="12" rx="6" fill="#E85D5D"/>
<rect x="-10" y="546" width="17.5522" height="12" rx="6" fill="#FFC850"/>
<rect x="-9.09229" y="580" width="17.5522" height="12" rx="6" fill="#FAFAEF"/>
<rect x="-9.09229" y="758" width="15.4503" height="12" rx="6" fill="#85453D"/>
<rect x="-9.09229" y="792" width="16.3417" height="12" rx="6" fill="#E85D5D"/>
<rect x="-9.09229" y="826" width="17.5522" height="12" rx="6" fill="#FFC850"/>
<rect x="-8.18408" y="860" width="17.5522" height="12" rx="6" fill="#FAFAEF"/>
<rect x="-9.09229" y="618" width="15.4503" height="12" rx="6" fill="#85453D"/>
<rect x="-9.09229" y="652" width="16.3417" height="12" rx="6" fill="#E85D5D"/>
<rect x="-9.09229" y="686" width="17.5522" height="12" rx="6" fill="#FFC850"/>
<rect x="-8.18408" y="720" width="17.5522" height="12" rx="6" fill="#FAFAEF"/>
<rect x="-9.39453" y="900" width="15.4503" height="12" rx="6" fill="#85453D"/>
<rect x="-9.39453" y="934" width="16.3417" height="12" rx="6" fill="#E85D5D"/>
<rect x="-9.39453" y="968" width="17.5522" height="12" rx="6" fill="#FFC850"/>
<rect x="-8.48682" y="1002" width="17.5522" height="12" rx="6" fill="#FAFAEF"/>
<rect x="-10" width="426.855" height="1554" fill="#3F3D56" fill-opacity="0.5"/>
</svg>
