<svg width="1184" height="2109" viewBox="0 0 1184 2109" fill="none" xmlns="http://www.w3.org/2000/svg">
<path d="M1139.66 20.0003L1155.24 4.42429C1156.25 3.41115 1156.25 1.77301 1155.24 0.759865C1154.23 -0.253288 1152.59 -0.253288 1151.58 0.759865L1136 16.3358L1120.42 0.759865C1119.41 -0.253288 1117.77 -0.253288 1116.76 0.759865C1115.75 1.77301 1115.75 3.41115 1116.76 4.42429L1132.34 20.0003L1116.76 35.5762C1115.75 36.5894 1115.75 38.2276 1116.76 39.2407C1117.27 39.7461 1117.93 40 1118.59 40C1119.26 40 1119.92 39.7461 1120.42 39.2407L1136 23.6647L1151.58 39.2407C1152.08 39.7461 1152.74 40 1153.41 40C1154.07 40 1154.73 39.7461 1155.24 39.2407C1156.25 38.2276 1156.25 36.5894 1155.24 35.5762L1139.66 20.0003Z" fill="#EE4E2F"/>
<rect x="37" y="67.6958" width="1124" height="2040.35" rx="15" fill="#3F3D56" fill-opacity="0.73"/>
<rect x="31" y="249.442" width="1124" height="187.486" fill="#D3BBA3"/>
<rect x="31" y="66.739" width="1124" height="187.486" fill="#291200"/>
<path d="M215.596 125.089L401.441 310.477H29.7504L215.596 125.089Z" fill="#863B37"/>
<path d="M215.585 494.779L33.3768 308.143L405.043 310.665L215.585 494.779Z" fill="#863B37"/>
<path d="M213.726 151.674L370.758 308.319H56.6934L213.726 151.674Z" fill="#225D04"/>
<path d="M213.717 464.047L59.7578 306.347L373.801 308.478L213.717 464.047Z" fill="#225D04"/>
<path d="M212.977 182.055L341.196 309.959H84.7584L212.977 182.055Z" fill="#D79000"/>
<path d="M212.97 437.113L87.2603 308.348L343.681 310.088L212.97 437.113Z" fill="#D79000"/>
<path d="M213.226 201.044L322.236 309.786H104.215L213.226 201.044Z" fill="#291200"/>
<path d="M213.219 417.891L106.343 308.417L324.348 309.896L213.219 417.891Z" fill="#291200"/>
<path d="M211.847 223.831L297.326 309.1H126.368L211.847 223.831Z" fill="#D3BBA3"/>
<path d="M211.843 393.868L128.037 308.025L298.984 309.185L211.843 393.868Z" fill="#D3BBA3"/>
<path d="M213.23 246.617L278.539 311.767H147.92L213.23 246.617Z" fill="#291200"/>
<path d="M213.227 376.534L149.195 310.946L279.806 311.832L213.227 376.534Z" fill="#291200"/>
<path d="M590.596 125.089L776.441 310.477H404.75L590.596 125.089Z" fill="#863B37"/>
<path d="M590.585 494.779L408.377 308.143L780.043 310.665L590.585 494.779Z" fill="#863B37"/>
<path d="M588.726 151.674L745.758 308.319H431.693L588.726 151.674Z" fill="#225D04"/>
<path d="M588.717 464.047L434.758 306.347L748.801 308.478L588.717 464.047Z" fill="#225D04"/>
<path d="M587.977 182.055L716.196 309.959H459.758L587.977 182.055Z" fill="#D79000"/>
<path d="M587.97 437.113L462.26 308.348L718.681 310.088L587.97 437.113Z" fill="#D79000"/>
<path d="M588.226 201.044L697.236 309.786H479.215L588.226 201.044Z" fill="#291200"/>
<path d="M588.219 417.891L481.343 308.417L699.348 309.896L588.219 417.891Z" fill="#291200"/>
<path d="M586.847 223.831L672.326 309.1H501.368L586.847 223.831Z" fill="#D3BBA3"/>
<path d="M586.843 393.868L503.037 308.025L673.984 309.185L586.843 393.868Z" fill="#D3BBA3"/>
<path d="M588.23 246.617L653.539 311.767H522.92L588.23 246.617Z" fill="#291200"/>
<path d="M588.227 376.534L524.195 310.946L654.806 311.832L588.227 376.534Z" fill="#291200"/>
<path d="M963.596 125.089L1149.44 310.477H777.75L963.596 125.089Z" fill="#863B37"/>
<path d="M963.585 494.779L781.377 308.143L1153.04 310.665L963.585 494.779Z" fill="#863B37"/>
<path d="M961.726 151.673L1118.76 308.319H804.693L961.726 151.673Z" fill="#225D04"/>
<path d="M961.717 464.047L807.758 306.346L1121.8 308.477L961.717 464.047Z" fill="#225D04"/>
<path d="M960.977 182.055L1089.2 309.959H832.758L960.977 182.055Z" fill="#D79000"/>
<path d="M960.97 437.114L835.26 308.349L1091.68 310.089L960.97 437.114Z" fill="#D79000"/>
<path d="M961.226 201.044L1070.24 309.786H852.215L961.226 201.044Z" fill="#291200"/>
<path d="M961.219 417.892L854.343 308.417L1072.35 309.897L961.219 417.892Z" fill="#291200"/>
<path d="M959.847 223.831L1045.33 309.099H874.368L959.847 223.831Z" fill="#D3BBA3"/>
<path d="M959.843 393.868L876.037 308.025L1046.98 309.185L959.843 393.868Z" fill="#D3BBA3"/>
<path d="M961.23 246.617L1026.54 311.766H895.92L961.23 246.617Z" fill="#291200"/>
<path d="M961.227 376.534L897.195 310.946L1027.81 311.832L961.227 376.534Z" fill="#291200"/>
<rect x="31" y="66.739" width="1124" height="187.486" fill="#291200"/>
<ellipse rx="9.99997" ry="9.56565" transform="matrix(-0.999971 0.00759295 -0.00829816 -0.999966 1113.17 222.821)" fill="#E9CDB3"/>
<ellipse rx="9.99997" ry="9.56565" transform="matrix(-0.999971 0.00759295 -0.00829816 -0.999966 1016.1 214.949)" fill="#E9CDB3"/>
<ellipse rx="9.99997" ry="9.56565" transform="matrix(-0.999971 0.00759295 -0.00829816 -0.999966 919.036 207.076)" fill="#E9CDB3"/>
<ellipse rx="9.99997" ry="9.56565" transform="matrix(-0.999971 0.00759295 -0.00829816 -0.999966 821.967 199.204)" fill="#E9CDB3"/>
<ellipse rx="9.99997" ry="9.56565" transform="matrix(-0.999971 0.00759295 -0.00829816 -0.999966 724.898 191.332)" fill="#E9CDB3"/>
<ellipse rx="9.99997" ry="9.56565" transform="matrix(-0.999971 0.00759295 -0.00829816 -0.999966 627.831 183.46)" fill="#E9CDB3"/>
<ellipse rx="9.99997" ry="9.56565" transform="matrix(-0.999971 0.00759295 -0.00829816 -0.999966 530.762 175.587)" fill="#E9CDB3"/>
<ellipse rx="9.99997" ry="9.56565" transform="matrix(-0.999971 0.00759295 -0.00829816 -0.999966 443.82 194.518)" fill="#E9CDB3"/>
<ellipse rx="9.99997" ry="9.56565" transform="matrix(-0.999971 0.00759295 -0.00829816 -0.999966 346.752 186.645)" fill="#E9CDB3"/>
<ellipse rx="9.99997" ry="9.56565" transform="matrix(-0.999971 0.00759295 -0.00829816 -0.999966 249.684 178.773)" fill="#E9CDB3"/>
<ellipse rx="9.99997" ry="9.56565" transform="matrix(-0.999971 0.00759295 -0.00829816 -0.999966 1075.01 203.979)" fill="#E9CDB3"/>
<ellipse rx="9.99997" ry="9.56565" transform="matrix(-0.999971 0.00759295 -0.00829816 -0.999966 977.946 196.106)" fill="#E9CDB3"/>
<ellipse rx="9.99997" ry="9.56565" transform="matrix(-0.999971 0.00759295 -0.00829816 -0.999966 880.878 188.234)" fill="#E9CDB3"/>
<ellipse rx="9.99997" ry="9.56565" transform="matrix(-0.999971 0.00759295 -0.00829816 -0.999966 783.81 180.362)" fill="#D49A52"/>
<ellipse rx="9.99997" ry="9.56565" transform="matrix(-0.999971 0.00759295 -0.00829816 -0.999966 686.741 172.49)" fill="#D49A52"/>
<ellipse rx="9.99997" ry="9.56565" transform="matrix(-0.999971 0.00759295 -0.00829816 -0.999966 589.673 164.617)" fill="#D49A52"/>
<ellipse rx="9.99997" ry="9.56565" transform="matrix(-0.999971 0.00759295 -0.00829816 -0.999966 492.605 156.745)" fill="#D49A52"/>
<ellipse rx="9.99997" ry="9.56565" transform="matrix(-0.999971 0.00759295 -0.00829816 -0.999966 405.663 175.676)" fill="#D49A52"/>
<ellipse rx="9.99997" ry="9.56565" transform="matrix(-0.999971 0.00759295 -0.00829816 -0.999966 308.594 167.804)" fill="#D49A52"/>
<ellipse rx="9.99997" ry="9.56565" transform="matrix(-0.999971 0.00759295 -0.00829816 -0.999966 211.526 159.931)" fill="#D49A52"/>
<ellipse rx="9.99997" ry="9.56565" transform="matrix(-0.999971 0.00759295 -0.00829816 -0.999966 114.458 152.059)" fill="#D49A52"/>
<ellipse rx="9.99997" ry="9.56565" transform="matrix(-0.999971 0.00759295 -0.00829816 -0.999966 1050.29 236.691)" fill="#D49A52"/>
<ellipse rx="9.99997" ry="9.56565" transform="matrix(-0.999971 0.00759295 -0.00829816 -0.999966 953.217 228.819)" fill="#D49A52"/>
<ellipse rx="9.99997" ry="9.56565" transform="matrix(-0.999971 0.00759295 -0.00829816 -0.999966 856.148 220.946)" fill="#D49A52"/>
<ellipse rx="9.99997" ry="9.56565" transform="matrix(-0.999971 0.00759295 -0.00829816 -0.999966 1079.59 236.888)" fill="#D49A52"/>
<ellipse rx="9.99997" ry="9.56565" transform="matrix(-0.999971 0.00759295 -0.00829816 -0.999966 759.08 213.074)" fill="#D49A52"/>
<ellipse rx="9.99997" ry="9.56565" transform="matrix(-0.999971 0.00759295 -0.00829816 -0.999966 662.012 205.202)" fill="#D49A52"/>
<ellipse rx="9.99997" ry="9.56565" transform="matrix(-0.999971 0.00759295 -0.00829816 -0.999966 564.943 197.329)" fill="#D49A52"/>
<ellipse rx="9.99997" ry="9.56565" transform="matrix(-0.999971 0.00759295 -0.00829816 -0.999966 467.875 189.457)" fill="#D49A52"/>
<ellipse rx="9.99997" ry="9.56565" transform="matrix(-0.999971 0.00759295 -0.00829816 -0.999966 380.933 208.388)" fill="#D49A52"/>
<ellipse rx="9.99997" ry="9.56565" transform="matrix(-0.999971 0.00759295 -0.00829816 -0.999966 273.738 173.713)" fill="#D49A52"/>
<ellipse rx="9.99997" ry="9.56565" transform="matrix(-0.999971 0.00759295 -0.00829816 -0.999966 176.67 165.84)" fill="#E9CDB3"/>
<ellipse rx="9.99997" ry="9.56565" transform="matrix(-0.999971 0.00759295 -0.00829816 -0.999966 89.7286 184.771)" fill="#E9CDB3"/>
<ellipse rx="9.99997" ry="9.56565" transform="matrix(-0.999971 0.00759295 -0.00829816 -0.999966 66.9673 213.642)" fill="#E9CDB3"/>
<ellipse rx="9.99997" ry="9.56565" transform="matrix(-0.999971 0.00759295 -0.00829816 -0.999966 1109.89 172.384)" fill="#E9CDB3"/>
<ellipse rx="9.99997" ry="9.56565" transform="matrix(-0.999971 0.00759295 -0.00829816 -0.999966 1124.51 142.038)" fill="#E9CDB3"/>
<ellipse rx="9.64877" ry="9.9198" transform="matrix(-0.441878 0.89676 -0.911868 -0.411135 210.825 225.278)" fill="#E9CDB3"/>
<ellipse rx="9.64877" ry="9.9198" transform="matrix(-0.441878 0.89676 -0.911868 -0.411135 352.177 236.763)" fill="#E9CDB3"/>
<ellipse rx="9.64877" ry="9.9198" transform="matrix(-0.441878 0.89676 -0.911868 -0.411135 497.848 221.44)" fill="#E9CDB3"/>
<ellipse rx="9.64877" ry="9.9198" transform="matrix(-0.441878 0.89676 -0.911868 -0.411135 653.646 232.92)" fill="#E9CDB3"/>
<ellipse rx="9.64877" ry="9.9198" transform="matrix(-0.441878 0.89676 -0.911868 -0.411135 807.502 241.494)" fill="#E9CDB3"/>
<ellipse rx="9.64877" ry="9.9198" transform="matrix(-0.441878 0.89676 -0.911868 -0.411135 989.622 237.196)" fill="#E9CDB3"/>
<ellipse rx="9.99997" ry="9.56565" transform="matrix(-0.999971 0.00759295 -0.00829816 -0.999966 1002.73 170.09)" fill="#E9CDB3"/>
<ellipse rx="9.99997" ry="9.56565" transform="matrix(-0.999971 0.00759295 -0.00829816 -0.999966 905.663 162.218)" fill="#E9CDB3"/>
<ellipse rx="9.99997" ry="9.56565" transform="matrix(-0.999971 0.00759295 -0.00829816 -0.999966 808.594 154.346)" fill="#E9CDB3"/>
<ellipse rx="9.99997" ry="9.56565" transform="matrix(-0.999971 0.00759295 -0.00829816 -0.999966 711.526 146.474)" fill="#E9CDB3"/>
<ellipse rx="9.99997" ry="9.56565" transform="matrix(-0.999971 0.00759295 -0.00829816 -0.999966 614.458 138.601)" fill="#E9CDB3"/>
<ellipse rx="9.99997" ry="9.56565" transform="matrix(-0.999971 0.00759295 -0.00829816 -0.999966 517.389 130.729)" fill="#E9CDB3"/>
<ellipse rx="9.99997" ry="9.56565" transform="matrix(-0.999971 0.00759295 -0.00829816 -0.999966 430.448 149.66)" fill="#E9CDB3"/>
<ellipse rx="9.99997" ry="9.56565" transform="matrix(-0.999971 0.00759295 -0.00829816 -0.999966 333.379 141.787)" fill="#E9CDB3"/>
<ellipse rx="9.99997" ry="9.56565" transform="matrix(-0.999971 0.00759295 -0.00829816 -0.999966 236.311 133.915)" fill="#E9CDB3"/>
<ellipse rx="9.99997" ry="9.56565" transform="matrix(-0.999971 0.00759295 -0.00829816 -0.999966 139.242 126.043)" fill="#E9CDB3"/>
<ellipse rx="9.99997" ry="9.56565" transform="matrix(-0.999971 0.00759295 -0.00829816 -0.999966 1061.64 159.12)" fill="#E9CDB3"/>
<ellipse rx="9.99997" ry="9.56565" transform="matrix(-0.999971 0.00759295 -0.00829816 -0.999966 964.574 151.248)" fill="#FFC850"/>
<ellipse rx="9.99997" ry="9.56565" transform="matrix(-0.999971 0.00759295 -0.00829816 -0.999966 867.505 143.376)" fill="#FFC850"/>
<ellipse rx="9.99997" ry="9.56565" transform="matrix(-0.999971 0.00759295 -0.00829816 -0.999966 770.437 135.504)" fill="#FFC850"/>
<ellipse rx="9.99997" ry="9.56565" transform="matrix(-0.999971 0.00759295 -0.00829816 -0.999966 673.368 127.631)" fill="#FFC850"/>
<ellipse rx="9.99997" ry="9.56565" transform="matrix(-0.999971 0.00759295 -0.00829816 -0.999966 576.3 119.759)" fill="#FFC850"/>
<ellipse rx="9.99997" ry="9.56565" transform="matrix(-0.999971 0.00759295 -0.00829816 -0.999966 479.231 111.887)" fill="#FFC850"/>
<ellipse rx="9.99997" ry="9.56565" transform="matrix(-0.999971 0.00759295 -0.00829816 -0.999966 392.29 130.818)" fill="#FFC850"/>
<ellipse rx="9.99997" ry="9.56565" transform="matrix(-0.999971 0.00759295 -0.00829816 -0.999966 295.221 122.945)" fill="#FFC850"/>
<ellipse rx="9.99997" ry="9.56565" transform="matrix(-0.999971 0.00759295 -0.00829816 -0.999966 198.153 115.073)" fill="#FFC850"/>
<ellipse rx="9.99997" ry="9.56565" transform="matrix(-0.999971 0.00759295 -0.00829816 -0.999966 101.085 107.201)" fill="#FFC850"/>
<ellipse rx="9.99997" ry="9.56565" transform="matrix(-0.999971 0.00759295 -0.00829816 -0.999966 1036.91 191.833)" fill="#FFC850"/>
<ellipse rx="9.99997" ry="9.56565" transform="matrix(-0.999971 0.00759295 -0.00829816 -0.999966 939.844 183.96)" fill="#FFC850"/>
<ellipse rx="9.99997" ry="9.56565" transform="matrix(-0.999971 0.00759295 -0.00829816 -0.999966 842.776 176.088)" fill="#FFC850"/>
<ellipse rx="9.99997" ry="9.56565" transform="matrix(-0.999971 0.00759295 -0.00829816 -0.999966 745.708 168.216)" fill="#FFC850"/>
<ellipse rx="9.99997" ry="9.56565" transform="matrix(-0.999971 0.00759295 -0.00829816 -0.999966 648.639 160.343)" fill="#FFC850"/>
<ellipse rx="9.99997" ry="9.56565" transform="matrix(-0.999971 0.00759295 -0.00829816 -0.999966 551.571 152.471)" fill="#FFC850"/>
<ellipse rx="9.99997" ry="9.56565" transform="matrix(-0.999971 0.00759295 -0.00829816 -0.999966 464.629 171.402)" fill="#FFC850"/>
<ellipse rx="9.99997" ry="9.56565" transform="matrix(-0.999971 0.00759295 -0.00829816 -0.999966 367.561 163.53)" fill="#FFC850"/>
<ellipse rx="9.99997" ry="9.56565" transform="matrix(-0.999971 0.00759295 -0.00829816 -0.999966 274.594 141.837)" fill="#E9CDB3"/>
<ellipse rx="9.99997" ry="9.56565" transform="matrix(-0.999971 0.00759295 -0.00829816 -0.999966 53.5948 168.783)" fill="#E9CDB3"/>
<ellipse rx="9.99997" ry="9.56565" transform="matrix(-0.999971 0.00759295 -0.00829816 -0.999966 1096.52 127.526)" fill="#E9CDB3"/>
<ellipse rx="9.99997" ry="9.56565" transform="matrix(-0.999971 0.00759295 -0.00829816 -0.999966 1111.14 97.1803)" fill="#E9CDB3"/>
<ellipse rx="9.64877" ry="9.9198" transform="matrix(-0.441878 0.89676 -0.911868 -0.411135 148.322 217.364)" fill="#E9CDB3"/>
<ellipse rx="9.64877" ry="9.9198" transform="matrix(-0.441878 0.89676 -0.911868 -0.411135 293.994 202.041)" fill="#E9CDB3"/>
<ellipse rx="9.64877" ry="9.9198" transform="matrix(-0.441878 0.89676 -0.911868 -0.411135 449.791 213.52)" fill="#E9CDB3"/>
<ellipse rx="9.64877" ry="9.9198" transform="matrix(-0.441878 0.89676 -0.911868 -0.411135 605.589 225)" fill="#E9CDB3"/>
<ellipse rx="9.64877" ry="9.9198" transform="matrix(-0.441878 0.89676 -0.911868 -0.411135 740.476 242.173)" fill="#E9CDB3"/>
<ellipse rx="9.64877" ry="9.9198" transform="matrix(-0.441878 0.89676 -0.911868 -0.411135 925.576 238.887)" fill="#E9CDB3"/>
<ellipse rx="9.99997" ry="9.56565" transform="matrix(-0.999971 0.00759295 -0.00829816 -0.999966 989.358 125.232)" fill="#E9CDB3"/>
<ellipse rx="9.99997" ry="9.56565" transform="matrix(-0.999971 0.00759295 -0.00829816 -0.999966 892.29 117.36)" fill="#E9CDB3"/>
<ellipse rx="9.99997" ry="9.56565" transform="matrix(-0.999971 0.00759295 -0.00829816 -0.999966 795.222 109.488)" fill="#E9CDB3"/>
<ellipse rx="9.99997" ry="9.56565" transform="matrix(-0.999971 0.00759295 -0.00829816 -0.999966 698.153 101.615)" fill="#E9CDB3"/>
<ellipse rx="9.99997" ry="9.56565" transform="matrix(-0.999971 0.00759295 -0.00829816 -0.999966 601.085 93.7431)" fill="#E9CDB3"/>
<ellipse rx="9.99997" ry="9.56565" transform="matrix(-0.999971 0.00759295 -0.00829816 -0.999966 504.017 85.8708)" fill="#E9CDB3"/>
<ellipse rx="9.99997" ry="9.56565" transform="matrix(-0.999971 0.00759295 -0.00829816 -0.999966 417.075 104.801)" fill="#E9CDB3"/>
<ellipse rx="9.99997" ry="9.56565" transform="matrix(-0.999971 0.00759295 -0.00829816 -0.999966 320.006 96.929)" fill="#E9CDB3"/>
<ellipse rx="9.99997" ry="9.56565" transform="matrix(-0.999971 0.00759295 -0.00829816 -0.999966 1048.27 114.262)" fill="#D49A52"/>
<ellipse rx="9.99997" ry="9.56565" transform="matrix(-0.999971 0.00759295 -0.00829816 -0.999966 951.201 106.39)" fill="#D49A52"/>
<ellipse rx="9.99997" ry="9.56565" transform="matrix(-0.999971 0.00759295 -0.00829816 -0.999966 854.132 98.5177)" fill="#D49A52"/>
<ellipse rx="9.99997" ry="9.56565" transform="matrix(-0.999971 0.00759295 -0.00829816 -0.999966 757.064 90.6455)" fill="#D49A52"/>
<ellipse rx="9.99997" ry="9.56565" transform="matrix(-0.999971 0.00759295 -0.00829816 -0.999966 659.996 82.7732)" fill="#D49A52"/>
<ellipse rx="9.99997" ry="9.56565" transform="matrix(-0.999971 0.00759295 -0.00829816 -0.999966 562.927 74.9009)" fill="#D49A52"/>
<ellipse rx="9.99997" ry="9.56565" transform="matrix(-0.999971 0.00759295 -0.00829816 -0.999966 475.985 93.8318)" fill="#D49A52"/>
<ellipse rx="9.99997" ry="9.56565" transform="matrix(-0.999971 0.00759295 -0.00829816 -0.999966 378.918 85.9593)" fill="#D49A52"/>
<ellipse rx="9.99997" ry="9.56565" transform="matrix(-0.999971 0.00759295 -0.00829816 -0.999966 281.849 78.0868)" fill="#D49A52"/>
<ellipse rx="9.99997" ry="9.56565" transform="matrix(-0.999971 0.00759295 -0.00829816 -0.999966 1023.54 146.974)" fill="#D49A52"/>
<ellipse rx="9.99997" ry="9.56565" transform="matrix(-0.999971 0.00759295 -0.00829816 -0.999966 926.472 139.102)" fill="#D49A52"/>
<ellipse rx="9.99997" ry="9.56565" transform="matrix(-0.999971 0.00759295 -0.00829816 -0.999966 829.403 131.23)" fill="#D49A52"/>
<ellipse rx="9.99997" ry="9.56565" transform="matrix(-0.999971 0.00759295 -0.00829816 -0.999966 732.335 123.358)" fill="#D49A52"/>
<ellipse rx="9.99997" ry="9.56565" transform="matrix(-0.999971 0.00759295 -0.00829816 -0.999966 635.267 115.485)" fill="#D49A52"/>
<ellipse rx="9.99997" ry="9.56565" transform="matrix(-0.999971 0.00759295 -0.00829816 -0.999966 538.198 107.613)" fill="#D49A52"/>
<ellipse rx="9.99997" ry="9.56565" transform="matrix(-0.999971 0.00759295 -0.00829816 -0.999966 451.256 126.544)" fill="#D49A52"/>
<ellipse rx="9.99997" ry="9.56565" transform="matrix(-0.999971 0.00759295 -0.00829816 -0.999966 354.188 118.671)" fill="#D79000"/>
<ellipse rx="9.99997" ry="9.56565" transform="matrix(-0.999971 0.00759295 -0.00829816 -0.999966 257.119 110.799)" fill="#D79000"/>
<ellipse rx="9.99997" ry="9.56565" transform="matrix(-0.999971 0.00759295 -0.00829816 -0.999966 160.051 102.927)" fill="#D79000"/>
<ellipse rx="9.99997" ry="9.56565" transform="matrix(-0.999971 0.00759295 -0.00829816 -0.999966 62.9829 95.0546)" fill="#D79000"/>
<ellipse rx="9.99997" ry="9.56565" transform="matrix(-0.999971 0.00759295 -0.00829816 -0.999966 1083.15 82.6674)" fill="#D79000"/>
<ellipse rx="9.64877" ry="9.9198" transform="matrix(-0.441878 0.89676 -0.911868 -0.411135 100.266 209.444)" fill="#D79000"/>
<ellipse rx="9.64877" ry="9.9198" transform="matrix(-0.441878 0.89676 -0.911868 -0.411135 277.824 230.061)" fill="#D79000"/>
<ellipse rx="9.64877" ry="9.9198" transform="matrix(-0.441878 0.89676 -0.911868 -0.411135 411.861 232.403)" fill="#D79000"/>
<ellipse rx="9.64877" ry="9.9198" transform="matrix(-0.441878 0.89676 -0.911868 -0.411135 557.532 217.08)" fill="#D79000"/>
<ellipse rx="9.64877" ry="9.9198" transform="matrix(-0.441878 0.89676 -0.911868 -0.411135 702.061 212.763)" fill="#D79000"/>
<ellipse rx="9.64877" ry="9.9198" transform="matrix(-0.441878 0.89676 -0.911868 -0.411135 886.42 232.425)" fill="#D79000"/>
<ellipse rx="9.99997" ry="9.56565" transform="matrix(-0.999971 0.00759295 -0.00829816 -0.999966 975.986 80.3739)" fill="#D79000"/>
<ellipse rx="9.99997" ry="9.56565" transform="matrix(-0.999971 0.00759295 -0.00829816 -0.999966 82.6182 143.681)" fill="#D79000"/>
<ellipse rx="9.99997" ry="9.56565" transform="matrix(-0.999971 0.00759295 -0.00829816 -0.999966 223.693 107.112)" fill="#D79000"/>
<ellipse rx="9.99997" ry="9.56565" transform="matrix(-0.999971 0.00759295 -0.00829816 -0.999966 243.595 214.536)" fill="#D79000"/>
<ellipse rx="9.99997" ry="9.56565" transform="matrix(-0.999971 0.00759295 -0.00829816 -0.999966 126.626 99.2396)" fill="#D79000"/>
<ellipse rx="9.99997" ry="9.56565" transform="matrix(-0.999971 0.00759295 -0.00829816 -0.999966 146.626 189.156)" fill="#D79000"/>
<ellipse rx="9.99997" ry="9.56565" transform="matrix(-0.999971 0.00759295 -0.00829816 -0.999966 44.4605 124.839)" fill="#E9CDB3"/>
<ellipse rx="9.99997" ry="9.56565" transform="matrix(-0.999971 0.00759295 -0.00829816 -0.999966 185.536 88.2699)" fill="#E9CDB3"/>
<ellipse rx="9.99997" ry="9.56565" transform="matrix(-0.999971 0.00759295 -0.00829816 -0.999966 201.595 185.839)" fill="#E9CDB3"/>
<ellipse rx="9.99997" ry="9.56565" transform="matrix(-0.999971 0.00759295 -0.00829816 -0.999966 98.5948 107.2)" fill="#E9CDB3"/>
<ellipse rx="9.99997" ry="9.56565" transform="matrix(-0.999971 0.00759295 -0.00829816 -0.999966 118.595 197.117)" fill="#E9CDB3"/>
<ellipse rx="9.99997" ry="9.56565" transform="matrix(-0.999971 0.00759295 -0.00829816 -0.999966 1010.17 102.116)" fill="#E9CDB3"/>
<ellipse rx="9.99997" ry="9.56565" transform="matrix(-0.999971 0.00759295 -0.00829816 -0.999966 913.099 94.2436)" fill="#E9CDB3"/>
<ellipse rx="9.99997" ry="9.56565" transform="matrix(-0.999971 0.00759295 -0.00829816 -0.999966 816.031 86.3713)" fill="#E9CDB3"/>
<ellipse rx="9.99997" ry="9.56565" transform="matrix(-0.999971 0.00759295 -0.00829816 -0.999966 718.962 78.4991)" fill="#E9CDB3"/>
<ellipse rx="9.99997" ry="9.56565" transform="matrix(-0.999971 0.00759295 -0.00829816 -0.999966 150.594 149.49)" fill="#E9CDB3"/>
<ellipse rx="9.99997" ry="9.56565" transform="matrix(-0.999971 0.00759295 -0.00829816 -0.999966 180.807 210.899)" fill="#E9CDB3"/>
<rect x="31" y="374.752" width="1124" height="187.486" fill="#291200"/>
<rect x="28" y="424.494" width="1122" height="11.4787" fill="#8B3F3D"/>
<path d="M1081.46 530.924L1024.01 476.621L1137.53 476.181L1081.46 530.924Z" fill="#D3BBA3"/>
<path d="M1081 530.672L1137.29 585.196H1024.71L1081 530.672Z" fill="#D3BBA3"/>
<path d="M1024.46 585.448L967.01 531.145L1080.53 530.705L1024.46 585.448Z" fill="#D49A52"/>
<path d="M1025 477.104L1081.29 531.629H968.708L1025 477.104Z" fill="#D49A52"/>
<path d="M969.458 530.924L912.01 476.621L1025.53 476.181L969.458 530.924Z" fill="#D3BBA3"/>
<path d="M969 530.672L1025.29 585.196H912.708L969 530.672Z" fill="#D3BBA3"/>
<path d="M795.458 530.924L738.01 476.621L851.533 476.181L795.458 530.924Z" fill="#D3BBA3"/>
<path d="M795 530.672L851.292 585.196H738.708L795 530.672Z" fill="#D3BBA3"/>
<path d="M738.458 585.448L681.01 531.145L794.533 530.705L738.458 585.448Z" fill="#D49A52"/>
<path d="M739 477.104L795.292 531.629H682.708L739 477.104Z" fill="#D49A52"/>
<path d="M683.458 530.924L626.01 476.621L739.533 476.181L683.458 530.924Z" fill="#D3BBA3"/>
<path d="M683 530.672L739.292 585.196H626.708L683 530.672Z" fill="#D3BBA3"/>
<path d="M509.458 530.924L452.01 476.621L565.533 476.181L509.458 530.924Z" fill="#D3BBA3"/>
<path d="M509 530.672L565.292 585.196H452.708L509 530.672Z" fill="#D3BBA3"/>
<path d="M452.458 585.448L395.01 531.145L508.533 530.705L452.458 585.448Z" fill="#D49A52"/>
<path d="M453 477.104L509.292 531.629H396.708L453 477.104Z" fill="#D49A52"/>
<path d="M397.458 530.924L340.01 476.621L453.533 476.181L397.458 530.924Z" fill="#D3BBA3"/>
<path d="M397 530.672L453.292 585.196H340.708L397 530.672Z" fill="#D3BBA3"/>
<path d="M223.458 530.924L166.01 476.621L279.533 476.181L223.458 530.924Z" fill="#D3BBA3"/>
<path d="M223 530.672L279.292 585.196H166.708L223 530.672Z" fill="#D3BBA3"/>
<path d="M166.458 585.448L109.01 531.145L222.533 530.705L166.458 585.448Z" fill="#D49A52"/>
<path d="M167 477.104L223.292 531.629H110.708L167 477.104Z" fill="#D49A52"/>
<path d="M111.458 530.924L54.01 476.621L167.533 476.181L111.458 530.924Z" fill="#D3BBA3"/>
<path d="M111 530.672L167.292 585.196H54.7084L111 530.672Z" fill="#D3BBA3"/>
<rect x="32" y="1037.65" width="1124" height="187.486" fill="#D3BBA3"/>
<rect x="32" y="854.947" width="1124" height="187.486" fill="#291200"/>
<path d="M216.596 913.297L402.441 1098.68H30.7504L216.596 913.297Z" fill="#863B37"/>
<path d="M216.585 1282.99L34.3768 1096.35L406.043 1098.87L216.585 1282.99Z" fill="#863B37"/>
<path d="M214.726 939.881L371.758 1096.53H57.6934L214.726 939.881Z" fill="#225D04"/>
<path d="M214.717 1252.26L60.7578 1094.55L374.801 1096.69L214.717 1252.26Z" fill="#225D04"/>
<path d="M213.977 970.263L342.196 1098.17H85.7584L213.977 970.263Z" fill="#D79000"/>
<path d="M213.97 1225.32L88.2603 1096.56L344.681 1098.3L213.97 1225.32Z" fill="#D79000"/>
<path d="M214.226 989.252L323.236 1097.99H105.215L214.226 989.252Z" fill="#291200"/>
<path d="M214.219 1206.1L107.343 1096.62L325.348 1098.1L214.219 1206.1Z" fill="#291200"/>
<path d="M212.847 1012.04L298.326 1097.31H127.368L212.847 1012.04Z" fill="#D3BBA3"/>
<path d="M212.843 1182.08L129.037 1096.23L299.984 1097.39L212.843 1182.08Z" fill="#D3BBA3"/>
<path d="M214.23 1034.83L279.539 1099.97H148.92L214.23 1034.83Z" fill="#291200"/>
<path d="M214.227 1164.74L150.195 1099.15L280.806 1100.04L214.227 1164.74Z" fill="#291200"/>
<path d="M591.596 913.297L777.441 1098.68H405.75L591.596 913.297Z" fill="#863B37"/>
<path d="M591.585 1282.99L409.377 1096.35L781.043 1098.87L591.585 1282.99Z" fill="#863B37"/>
<path d="M589.726 939.881L746.758 1096.53H432.693L589.726 939.881Z" fill="#225D04"/>
<path d="M589.717 1252.26L435.758 1094.55L749.801 1096.69L589.717 1252.26Z" fill="#225D04"/>
<path d="M588.977 970.263L717.196 1098.17H460.758L588.977 970.263Z" fill="#D79000"/>
<path d="M588.97 1225.32L463.26 1096.56L719.681 1098.3L588.97 1225.32Z" fill="#D79000"/>
<path d="M589.226 989.252L698.236 1097.99H480.215L589.226 989.252Z" fill="#291200"/>
<path d="M589.219 1206.1L482.343 1096.62L700.348 1098.1L589.219 1206.1Z" fill="#291200"/>
<path d="M587.847 1012.04L673.326 1097.31H502.368L587.847 1012.04Z" fill="#D3BBA3"/>
<path d="M587.843 1182.08L504.037 1096.23L674.984 1097.39L587.843 1182.08Z" fill="#D3BBA3"/>
<path d="M589.23 1034.83L654.539 1099.97H523.92L589.23 1034.83Z" fill="#291200"/>
<path d="M589.227 1164.74L525.195 1099.15L655.806 1100.04L589.227 1164.74Z" fill="#291200"/>
<path d="M964.596 913.297L1150.44 1098.68H778.75L964.596 913.297Z" fill="#863B37"/>
<path d="M964.585 1282.99L782.377 1096.35L1154.04 1098.87L964.585 1282.99Z" fill="#863B37"/>
<path d="M962.726 939.881L1119.76 1096.53H805.693L962.726 939.881Z" fill="#225D04"/>
<path d="M962.717 1252.26L808.758 1094.55L1122.8 1096.69L962.717 1252.26Z" fill="#225D04"/>
<path d="M961.977 970.263L1090.2 1098.17H833.758L961.977 970.263Z" fill="#D79000"/>
<path d="M961.97 1225.32L836.26 1096.56L1092.68 1098.3L961.97 1225.32Z" fill="#D79000"/>
<path d="M962.226 989.252L1071.24 1097.99H853.215L962.226 989.252Z" fill="#291200"/>
<path d="M962.219 1206.1L855.343 1096.62L1073.35 1098.1L962.219 1206.1Z" fill="#291200"/>
<path d="M960.847 1012.04L1046.33 1097.31H875.368L960.847 1012.04Z" fill="#D3BBA3"/>
<path d="M960.843 1182.08L877.037 1096.23L1047.98 1097.39L960.843 1182.08Z" fill="#D3BBA3"/>
<path d="M962.23 1034.83L1027.54 1099.97H896.92L962.23 1034.83Z" fill="#291200"/>
<path d="M962.227 1164.74L898.195 1099.15L1028.81 1100.04L962.227 1164.74Z" fill="#291200"/>
<rect x="32" y="1162.96" width="1124" height="187.486" fill="#291200"/>
<rect x="29" y="1212.7" width="1122" height="11.4787" fill="#8B3F3D"/>
<path d="M1082.46 1319.13L1025.01 1264.83L1138.53 1264.39L1082.46 1319.13Z" fill="#D3BBA3"/>
<path d="M1082 1318.88L1138.29 1373.4H1025.71L1082 1318.88Z" fill="#D3BBA3"/>
<path d="M1025.46 1373.66L968.01 1319.35L1081.53 1318.91L1025.46 1373.66Z" fill="#D49A52"/>
<path d="M1026 1265.31L1082.29 1319.84H969.708L1026 1265.31Z" fill="#D49A52"/>
<path d="M970.458 1319.13L913.01 1264.83L1026.53 1264.39L970.458 1319.13Z" fill="#D3BBA3"/>
<path d="M970 1318.88L1026.29 1373.4H913.708L970 1318.88Z" fill="#D3BBA3"/>
<path d="M796.458 1319.13L739.01 1264.83L852.533 1264.39L796.458 1319.13Z" fill="#D3BBA3"/>
<path d="M796 1318.88L852.292 1373.4H739.708L796 1318.88Z" fill="#D3BBA3"/>
<path d="M739.458 1373.66L682.01 1319.35L795.533 1318.91L739.458 1373.66Z" fill="#D49A52"/>
<path d="M740 1265.31L796.292 1319.84H683.708L740 1265.31Z" fill="#D49A52"/>
<path d="M684.458 1319.13L627.01 1264.83L740.533 1264.39L684.458 1319.13Z" fill="#D3BBA3"/>
<path d="M684 1318.88L740.292 1373.4H627.708L684 1318.88Z" fill="#D3BBA3"/>
<path d="M510.458 1319.13L453.01 1264.83L566.533 1264.39L510.458 1319.13Z" fill="#D3BBA3"/>
<path d="M510 1318.88L566.292 1373.4H453.708L510 1318.88Z" fill="#D3BBA3"/>
<path d="M453.458 1373.66L396.01 1319.35L509.533 1318.91L453.458 1373.66Z" fill="#D49A52"/>
<path d="M454 1265.31L510.292 1319.84H397.708L454 1265.31Z" fill="#D49A52"/>
<path d="M398.458 1319.13L341.01 1264.83L454.533 1264.39L398.458 1319.13Z" fill="#D3BBA3"/>
<path d="M398 1318.88L454.292 1373.4H341.708L398 1318.88Z" fill="#D3BBA3"/>
<path d="M224.458 1319.13L167.01 1264.83L280.533 1264.39L224.458 1319.13Z" fill="#D3BBA3"/>
<path d="M224 1318.88L280.292 1373.4H167.708L224 1318.88Z" fill="#D3BBA3"/>
<path d="M167.458 1373.66L110.01 1319.35L223.533 1318.91L167.458 1373.66Z" fill="#D49A52"/>
<path d="M168 1265.31L224.292 1319.84H111.708L168 1265.31Z" fill="#D49A52"/>
<path d="M112.458 1319.13L55.01 1264.83L168.533 1264.39L112.458 1319.13Z" fill="#D3BBA3"/>
<path d="M112 1318.88L168.292 1373.4H55.7084L112 1318.88Z" fill="#D3BBA3"/>
<rect x="31" y="854.947" width="1124" height="187.486" fill="#291200"/>
<rect x="30" y="700.94" width="1124" height="11.4787" fill="#8B3F3D"/>
<ellipse rx="9.99722" ry="9.56853" transform="matrix(0.996997 -0.0774394 0.0845829 0.996416 55.4123 857.9)" fill="#E9CDB3"/>
<ellipse rx="9.99722" ry="9.56853" transform="matrix(0.996997 -0.0774394 0.0845829 0.996416 152.822 858.971)" fill="#E9CDB3"/>
<ellipse rx="9.99722" ry="9.56853" transform="matrix(0.996997 -0.0774394 0.0845829 0.996416 250.233 860.043)" fill="#E9CDB3"/>
<ellipse rx="9.99722" ry="9.56853" transform="matrix(0.996997 -0.0774394 0.0845829 0.996416 347.643 861.114)" fill="#E9CDB3"/>
<ellipse rx="9.99722" ry="9.56853" transform="matrix(0.996997 -0.0774394 0.0845829 0.996416 445.053 862.185)" fill="#E9CDB3"/>
<ellipse rx="9.99722" ry="9.56853" transform="matrix(0.996997 -0.0774394 0.0845829 0.996416 542.463 863.257)" fill="#E9CDB3"/>
<ellipse rx="9.99722" ry="9.56853" transform="matrix(0.996997 -0.0774394 0.0845829 0.996416 639.873 864.328)" fill="#E9CDB3"/>
<ellipse rx="9.99722" ry="9.56853" transform="matrix(0.996997 -0.0774394 0.0845829 0.996416 737.283 865.399)" fill="#E9CDB3"/>
<ellipse rx="9.99722" ry="9.56853" transform="matrix(0.996997 -0.0774394 0.0845829 0.996416 834.694 866.47)" fill="#E9CDB3"/>
<ellipse rx="9.99722" ry="9.56853" transform="matrix(0.996997 -0.0774394 0.0845829 0.996416 932.104 867.542)" fill="#E9CDB3"/>
<ellipse rx="9.99722" ry="9.56853" transform="matrix(0.996997 -0.0774394 0.0845829 0.996416 1029.51 868.613)" fill="#E9CDB3"/>
<ellipse rx="9.99722" ry="9.56853" transform="matrix(0.996997 -0.0774394 0.0845829 0.996416 94.9064 874.027)" fill="#E9CDB3"/>
<ellipse rx="9.99722" ry="9.56853" transform="matrix(0.996997 -0.0774394 0.0845829 0.996416 192.317 875.098)" fill="#E9CDB3"/>
<ellipse rx="9.99722" ry="9.56853" transform="matrix(0.996997 -0.0774394 0.0845829 0.996416 289.727 876.169)" fill="#E9CDB3"/>
<ellipse rx="9.99722" ry="9.56853" transform="matrix(0.996997 -0.0774394 0.0845829 0.996416 387.137 877.241)" fill="#D49A52"/>
<ellipse rx="9.99722" ry="9.56853" transform="matrix(0.996997 -0.0774394 0.0845829 0.996416 484.547 878.312)" fill="#D49A52"/>
<ellipse rx="9.99722" ry="9.56853" transform="matrix(0.996997 -0.0774394 0.0845829 0.996416 581.957 879.383)" fill="#D49A52"/>
<ellipse rx="9.99722" ry="9.56853" transform="matrix(0.996997 -0.0774394 0.0845829 0.996416 679.367 880.455)" fill="#D49A52"/>
<ellipse rx="9.99722" ry="9.56853" transform="matrix(0.996997 -0.0774394 0.0845829 0.996416 776.778 881.526)" fill="#D49A52"/>
<ellipse rx="9.99722" ry="9.56853" transform="matrix(0.996997 -0.0774394 0.0845829 0.996416 874.188 882.597)" fill="#D49A52"/>
<ellipse rx="9.99722" ry="9.56853" transform="matrix(0.996997 -0.0774394 0.0845829 0.996416 971.598 883.668)" fill="#D49A52"/>
<ellipse rx="9.99722" ry="9.56853" transform="matrix(0.996997 -0.0774394 0.0845829 0.996416 1069.01 884.739)" fill="#D49A52"/>
<ellipse rx="9.99722" ry="9.56853" transform="matrix(0.996997 -0.0774394 0.0845829 0.996416 117.072 839.675)" fill="#D49A52"/>
<ellipse rx="9.99722" ry="9.56853" transform="matrix(0.996997 -0.0774394 0.0845829 0.996416 214.483 840.746)" fill="#D49A52"/>
<ellipse rx="9.99722" ry="9.56853" transform="matrix(0.996997 -0.0774394 0.0845829 0.996416 311.893 841.817)" fill="#D49A52"/>
<ellipse rx="9.99722" ry="9.56853" transform="matrix(0.996997 -0.0774394 0.0845829 0.996416 87.8302 841.525)" fill="#D49A52"/>
<ellipse rx="9.99722" ry="9.56853" transform="matrix(0.996997 -0.0774394 0.0845829 0.996416 409.303 842.889)" fill="#D49A52"/>
<ellipse rx="9.99722" ry="9.56853" transform="matrix(0.996997 -0.0774394 0.0845829 0.996416 506.713 843.96)" fill="#D49A52"/>
<ellipse rx="9.99722" ry="9.56853" transform="matrix(0.996997 -0.0774394 0.0845829 0.996416 604.123 845.031)" fill="#D49A52"/>
<ellipse rx="9.99722" ry="9.56853" transform="matrix(0.996997 -0.0774394 0.0845829 0.996416 701.534 846.103)" fill="#D49A52"/>
<ellipse rx="9.99722" ry="9.56853" transform="matrix(0.996997 -0.0774394 0.0845829 0.996416 798.944 847.174)" fill="#D49A52"/>
<ellipse rx="9.99722" ry="9.56853" transform="matrix(0.996997 -0.0774394 0.0845829 0.996416 896.354 848.245)" fill="#D49A52"/>
<ellipse rx="9.99722" ry="9.56853" transform="matrix(0.996997 -0.0774394 0.0845829 0.996416 993.764 849.316)" fill="#E9CDB3"/>
<ellipse rx="9.99722" ry="9.56853" transform="matrix(0.996997 -0.0774394 0.0845829 0.996416 1091.17 850.388)" fill="#E9CDB3"/>
<ellipse rx="9.99722" ry="9.56853" transform="matrix(0.996997 -0.0774394 0.0845829 0.996416 1111.67 820.004)" fill="#E9CDB3"/>
<ellipse rx="9.99722" ry="9.56853" transform="matrix(0.996997 -0.0774394 0.0845829 0.996416 62.5309 907.973)" fill="#E9CDB3"/>
<ellipse rx="9.99722" ry="9.56853" transform="matrix(0.996997 -0.0774394 0.0845829 0.996416 50.2726 939.259)" fill="#E9CDB3"/>
<ellipse rx="9.65055" ry="9.91806" transform="matrix(0.372175 -0.925059 0.940982 0.346407 981.715 817.432)" fill="#E9CDB3"/>
<ellipse rx="9.65055" ry="9.91806" transform="matrix(0.372175 -0.925059 0.940982 0.346407 825.457 816.865)" fill="#E9CDB3"/>
<ellipse rx="9.65055" ry="9.91806" transform="matrix(0.372175 -0.925059 0.940982 0.346407 669.199 816.299)" fill="#E9CDB3"/>
<ellipse rx="9.65055" ry="9.91806" transform="matrix(0.372175 -0.925059 0.940982 0.346407 512.941 815.731)" fill="#E9CDB3"/>
<ellipse rx="9.65055" ry="9.91806" transform="matrix(0.372175 -0.925059 0.940982 0.346407 358.841 817.927)" fill="#E9CDB3"/>
<ellipse rx="9.65055" ry="9.91806" transform="matrix(0.372175 -0.925059 0.940982 0.346407 177.536 834.934)" fill="#E9CDB3"/>
<ellipse rx="9.99722" ry="9.56853" transform="matrix(0.996997 -0.0774394 0.0845829 0.996416 169.584 902.776)" fill="#E9CDB3"/>
<ellipse rx="9.99722" ry="9.56853" transform="matrix(0.996997 -0.0774394 0.0845829 0.996416 266.994 903.847)" fill="#E9CDB3"/>
<ellipse rx="9.99722" ry="9.56853" transform="matrix(0.996997 -0.0774394 0.0845829 0.996416 364.404 904.919)" fill="#E9CDB3"/>
<ellipse rx="9.99722" ry="9.56853" transform="matrix(0.996997 -0.0774394 0.0845829 0.996416 461.814 905.99)" fill="#E9CDB3"/>
<ellipse rx="9.99722" ry="9.56853" transform="matrix(0.996997 -0.0774394 0.0845829 0.996416 559.224 907.061)" fill="#E9CDB3"/>
<ellipse rx="9.99722" ry="9.56853" transform="matrix(0.996997 -0.0774394 0.0845829 0.996416 656.635 908.132)" fill="#E9CDB3"/>
<ellipse rx="9.99722" ry="9.56853" transform="matrix(0.996997 -0.0774394 0.0845829 0.996416 754.045 909.204)" fill="#E9CDB3"/>
<ellipse rx="9.99722" ry="9.56853" transform="matrix(0.996997 -0.0774394 0.0845829 0.996416 851.455 910.275)" fill="#E9CDB3"/>
<ellipse rx="9.99722" ry="9.56853" transform="matrix(0.996997 -0.0774394 0.0845829 0.996416 948.865 911.346)" fill="#E9CDB3"/>
<ellipse rx="9.99722" ry="9.56853" transform="matrix(0.996997 -0.0774394 0.0845829 0.996416 1046.28 912.418)" fill="#E9CDB3"/>
<ellipse rx="9.99722" ry="9.56853" transform="matrix(0.996997 -0.0774394 0.0845829 0.996416 111.668 917.831)" fill="#E9CDB3"/>
<ellipse rx="9.99722" ry="9.56853" transform="matrix(0.996997 -0.0774394 0.0845829 0.996416 209.078 918.902)" fill="#FFC850"/>
<ellipse rx="9.99722" ry="9.56853" transform="matrix(0.996997 -0.0774394 0.0845829 0.996416 306.488 919.974)" fill="#FFC850"/>
<ellipse rx="9.99722" ry="9.56853" transform="matrix(0.996997 -0.0774394 0.0845829 0.996416 403.898 921.045)" fill="#FFC850"/>
<ellipse rx="9.99722" ry="9.56853" transform="matrix(0.996997 -0.0774394 0.0845829 0.996416 501.308 922.116)" fill="#FFC850"/>
<ellipse rx="9.99722" ry="9.56853" transform="matrix(0.996997 -0.0774394 0.0845829 0.996416 598.718 923.188)" fill="#FFC850"/>
<ellipse rx="9.99722" ry="9.56853" transform="matrix(0.996997 -0.0774394 0.0845829 0.996416 696.129 924.259)" fill="#FFC850"/>
<ellipse rx="9.99722" ry="9.56853" transform="matrix(0.996997 -0.0774394 0.0845829 0.996416 793.539 925.33)" fill="#FFC850"/>
<ellipse rx="9.99722" ry="9.56853" transform="matrix(0.996997 -0.0774394 0.0845829 0.996416 890.949 926.401)" fill="#FFC850"/>
<ellipse rx="9.99722" ry="9.56853" transform="matrix(0.996997 -0.0774394 0.0845829 0.996416 988.359 927.473)" fill="#FFC850"/>
<ellipse rx="9.99722" ry="9.56853" transform="matrix(0.996997 -0.0774394 0.0845829 0.996416 1085.77 928.544)" fill="#FFC850"/>
<ellipse rx="9.99722" ry="9.56853" transform="matrix(0.996997 -0.0774394 0.0845829 0.996416 133.834 883.479)" fill="#FFC850"/>
<ellipse rx="9.99722" ry="9.56853" transform="matrix(0.996997 -0.0774394 0.0845829 0.996416 231.244 884.551)" fill="#FFC850"/>
<ellipse rx="9.99722" ry="9.56853" transform="matrix(0.996997 -0.0774394 0.0845829 0.996416 328.654 885.622)" fill="#FFC850"/>
<ellipse rx="9.99722" ry="9.56853" transform="matrix(0.996997 -0.0774394 0.0845829 0.996416 426.064 886.693)" fill="#FFC850"/>
<ellipse rx="9.99722" ry="9.56853" transform="matrix(0.996997 -0.0774394 0.0845829 0.996416 523.474 887.765)" fill="#FFC850"/>
<ellipse rx="9.99722" ry="9.56853" transform="matrix(0.996997 -0.0774394 0.0845829 0.996416 620.885 888.836)" fill="#FFC850"/>
<ellipse rx="9.99722" ry="9.56853" transform="matrix(0.996997 -0.0774394 0.0845829 0.996416 718.295 889.907)" fill="#FFC850"/>
<ellipse rx="9.99722" ry="9.56853" transform="matrix(0.996997 -0.0774394 0.0845829 0.996416 815.705 890.979)" fill="#FFC850"/>
<ellipse rx="9.99722" ry="9.56853" transform="matrix(0.996997 -0.0774394 0.0845829 0.996416 913.115 892.049)" fill="#E9CDB3"/>
<ellipse rx="9.99722" ry="9.56853" transform="matrix(0.996997 -0.0774394 0.0845829 0.996416 1010.53 893.121)" fill="#E9CDB3"/>
<ellipse rx="9.99722" ry="9.56853" transform="matrix(0.996997 -0.0774394 0.0845829 0.996416 1107.94 894.192)" fill="#E9CDB3"/>
<ellipse rx="9.99722" ry="9.56853" transform="matrix(0.996997 -0.0774394 0.0845829 0.996416 1128.43 863.809)" fill="#E9CDB3"/>
<ellipse rx="9.99722" ry="9.56853" transform="matrix(0.996997 -0.0774394 0.0845829 0.996416 79.2922 951.778)" fill="#E9CDB3"/>
<ellipse rx="9.99722" ry="9.56853" transform="matrix(0.996997 -0.0774394 0.0845829 0.996416 67.0339 983.063)" fill="#E9CDB3"/>
<ellipse rx="9.65055" ry="9.91806" transform="matrix(0.372175 -0.925059 0.940982 0.346407 1030.25 821.974)" fill="#E9CDB3"/>
<ellipse rx="9.65055" ry="9.91806" transform="matrix(0.372175 -0.925059 0.940982 0.346407 873.99 821.408)" fill="#E9CDB3"/>
<ellipse rx="9.65055" ry="9.91806" transform="matrix(0.372175 -0.925059 0.940982 0.346407 717.732 820.841)" fill="#E9CDB3"/>
<ellipse rx="9.65055" ry="9.91806" transform="matrix(0.372175 -0.925059 0.940982 0.346407 561.474 820.273)" fill="#E9CDB3"/>
<ellipse rx="9.65055" ry="9.91806" transform="matrix(0.372175 -0.925059 0.940982 0.346407 425.636 812.568)" fill="#E9CDB3"/>
<ellipse rx="9.65055" ry="9.91806" transform="matrix(0.372175 -0.925059 0.940982 0.346407 241.282 828.774)" fill="#E9CDB3"/>
<ellipse rx="9.99722" ry="9.56853" transform="matrix(0.996997 -0.0774394 0.0845829 0.996416 186.345 946.58)" fill="#E9CDB3"/>
<ellipse rx="9.99722" ry="9.56853" transform="matrix(0.996997 -0.0774394 0.0845829 0.996416 283.755 947.652)" fill="#E9CDB3"/>
<ellipse rx="9.99722" ry="9.56853" transform="matrix(0.996997 -0.0774394 0.0845829 0.996416 381.165 948.723)" fill="#E9CDB3"/>
<ellipse rx="9.99722" ry="9.56853" transform="matrix(0.996997 -0.0774394 0.0845829 0.996416 478.575 949.794)" fill="#E9CDB3"/>
<ellipse rx="9.99722" ry="9.56853" transform="matrix(0.996997 -0.0774394 0.0845829 0.996416 575.986 950.866)" fill="#E9CDB3"/>
<ellipse rx="9.99722" ry="9.56853" transform="matrix(0.996997 -0.0774394 0.0845829 0.996416 673.396 951.937)" fill="#E9CDB3"/>
<ellipse rx="9.99722" ry="9.56853" transform="matrix(0.996997 -0.0774394 0.0845829 0.996416 770.806 953.008)" fill="#E9CDB3"/>
<ellipse rx="9.99722" ry="9.56853" transform="matrix(0.996997 -0.0774394 0.0845829 0.996416 868.216 954.079)" fill="#E9CDB3"/>
<ellipse rx="9.99722" ry="9.56853" transform="matrix(0.996997 -0.0774394 0.0845829 0.996416 965.627 955.15)" fill="#E9CDB3"/>
<ellipse rx="9.99722" ry="9.56853" transform="matrix(0.996997 -0.0774394 0.0845829 0.996416 1063.04 956.222)" fill="#E9CDB3"/>
<ellipse rx="9.99722" ry="9.56853" transform="matrix(0.996997 -0.0774394 0.0845829 0.996416 128.429 961.636)" fill="#D49A52"/>
<ellipse rx="9.99722" ry="9.56853" transform="matrix(0.996997 -0.0774394 0.0845829 0.996416 225.839 962.707)" fill="#D49A52"/>
<ellipse rx="9.99722" ry="9.56853" transform="matrix(0.996997 -0.0774394 0.0845829 0.996416 323.249 963.778)" fill="#D49A52"/>
<ellipse rx="9.99722" ry="9.56853" transform="matrix(0.996997 -0.0774394 0.0845829 0.996416 420.659 964.85)" fill="#D49A52"/>
<ellipse rx="9.99722" ry="9.56853" transform="matrix(0.996997 -0.0774394 0.0845829 0.996416 518.069 965.921)" fill="#D49A52"/>
<ellipse rx="9.99722" ry="9.56853" transform="matrix(0.996997 -0.0774394 0.0845829 0.996416 615.48 966.992)" fill="#D49A52"/>
<ellipse rx="9.99722" ry="9.56853" transform="matrix(0.996997 -0.0774394 0.0845829 0.996416 712.89 968.064)" fill="#D49A52"/>
<ellipse rx="9.99722" ry="9.56853" transform="matrix(0.996997 -0.0774394 0.0845829 0.996416 810.3 969.135)" fill="#D49A52"/>
<ellipse rx="9.99722" ry="9.56853" transform="matrix(0.996997 -0.0774394 0.0845829 0.996416 907.71 970.206)" fill="#D49A52"/>
<ellipse rx="9.99722" ry="9.56853" transform="matrix(0.996997 -0.0774394 0.0845829 0.996416 1005.12 971.277)" fill="#D49A52"/>
<ellipse rx="9.99722" ry="9.56853" transform="matrix(0.996997 -0.0774394 0.0845829 0.996416 1102.53 972.348)" fill="#D49A52"/>
<ellipse rx="9.99722" ry="9.56853" transform="matrix(0.996997 -0.0774394 0.0845829 0.996416 150.595 927.284)" fill="#D49A52"/>
<ellipse rx="9.99722" ry="9.56853" transform="matrix(0.996997 -0.0774394 0.0845829 0.996416 248.005 928.355)" fill="#D49A52"/>
<ellipse rx="9.99722" ry="9.56853" transform="matrix(0.996997 -0.0774394 0.0845829 0.996416 345.415 929.426)" fill="#D49A52"/>
<ellipse rx="9.99722" ry="9.56853" transform="matrix(0.996997 -0.0774394 0.0845829 0.996416 442.825 930.497)" fill="#D49A52"/>
<ellipse rx="9.99722" ry="9.56853" transform="matrix(0.996997 -0.0774394 0.0845829 0.996416 540.236 931.569)" fill="#D49A52"/>
<ellipse rx="9.99722" ry="9.56853" transform="matrix(0.996997 -0.0774394 0.0845829 0.996416 637.646 932.64)" fill="#D49A52"/>
<ellipse rx="9.99722" ry="9.56853" transform="matrix(0.996997 -0.0774394 0.0845829 0.996416 735.056 933.711)" fill="#D49A52"/>
<ellipse rx="9.99722" ry="9.56853" transform="matrix(0.996997 -0.0774394 0.0845829 0.996416 832.466 934.783)" fill="#D79000"/>
<ellipse rx="9.99722" ry="9.56853" transform="matrix(0.996997 -0.0774394 0.0845829 0.996416 929.877 935.854)" fill="#D79000"/>
<ellipse rx="9.99722" ry="9.56853" transform="matrix(0.996997 -0.0774394 0.0845829 0.996416 1027.29 936.925)" fill="#D79000"/>
<ellipse rx="9.99722" ry="9.56853" transform="matrix(0.996997 -0.0774394 0.0845829 0.996416 1124.7 937.997)" fill="#D79000"/>
<ellipse rx="9.99722" ry="9.56853" transform="matrix(0.996997 -0.0774394 0.0845829 0.996416 96.0534 995.582)" fill="#D79000"/>
<ellipse rx="9.99722" ry="9.56853" transform="matrix(0.996997 -0.0774394 0.0845829 0.996416 83.7951 1026.87)" fill="#D79000"/>
<ellipse rx="9.65055" ry="9.91806" transform="matrix(0.372175 -0.925059 0.940982 0.346407 1078.78 826.517)" fill="#D79000"/>
<ellipse rx="9.65055" ry="9.91806" transform="matrix(0.372175 -0.925059 0.940982 0.346407 922.524 825.95)" fill="#D79000"/>
<ellipse rx="9.65055" ry="9.91806" transform="matrix(0.372175 -0.925059 0.940982 0.346407 766.265 825.383)" fill="#D79000"/>
<ellipse rx="9.65055" ry="9.91806" transform="matrix(0.372175 -0.925059 0.940982 0.346407 610.007 824.816)" fill="#D79000"/>
<ellipse rx="9.65055" ry="9.91806" transform="matrix(0.372175 -0.925059 0.940982 0.346407 466.194 839.216)" fill="#D79000"/>
<ellipse rx="9.65055" ry="9.91806" transform="matrix(0.372175 -0.925059 0.940982 0.346407 280.826 832.484)" fill="#D79000"/>
<ellipse rx="9.99722" ry="9.56853" transform="matrix(0.996997 -0.0774394 0.0845829 0.996416 203.106 990.385)" fill="#D79000"/>
<ellipse rx="9.99722" ry="9.56853" transform="matrix(0.996997 -0.0774394 0.0845829 0.996416 300.516 991.456)" fill="#D79000"/>
<ellipse rx="9.99722" ry="9.56853" transform="matrix(0.996997 -0.0774394 0.0845829 0.996416 397.926 992.527)" fill="#D79000"/>
<ellipse rx="9.99722" ry="9.56853" transform="matrix(0.996997 -0.0774394 0.0845829 0.996416 495.337 993.599)" fill="#D79000"/>
<ellipse rx="9.99722" ry="9.56853" transform="matrix(0.996997 -0.0774394 0.0845829 0.996416 592.747 994.67)" fill="#D79000"/>
<ellipse rx="9.99722" ry="9.56853" transform="matrix(0.996997 -0.0774394 0.0845829 0.996416 690.157 995.741)" fill="#D79000"/>
<ellipse rx="9.99722" ry="9.56853" transform="matrix(0.996997 -0.0774394 0.0845829 0.996416 787.568 996.813)" fill="#D79000"/>
<ellipse rx="9.99722" ry="9.56853" transform="matrix(0.996997 -0.0774394 0.0845829 0.996416 884.977 997.884)" fill="#D79000"/>
<ellipse rx="9.99722" ry="9.56853" transform="matrix(0.996997 -0.0774394 0.0845829 0.996416 982.388 998.955)" fill="#D79000"/>
<ellipse rx="9.99722" ry="9.56853" transform="matrix(0.996997 -0.0774394 0.0845829 0.996416 1079.8 1000.03)" fill="#D79000"/>
<ellipse rx="9.99722" ry="9.56853" transform="matrix(0.996997 -0.0774394 0.0845829 0.996416 145.19 1005.44)" fill="#D79000"/>
<ellipse rx="9.99722" ry="9.56853" transform="matrix(0.996997 -0.0774394 0.0845829 0.996416 242.6 1006.51)" fill="#D79000"/>
<ellipse rx="9.99722" ry="9.56853" transform="matrix(0.996997 -0.0774394 0.0845829 0.996416 340.01 1007.58)" fill="#D79000"/>
<ellipse rx="9.99722" ry="9.56853" transform="matrix(0.996997 -0.0774394 0.0845829 0.996416 437.421 1008.65)" fill="#E9CDB3"/>
<ellipse rx="9.99722" ry="9.56853" transform="matrix(0.996997 -0.0774394 0.0845829 0.996416 534.831 1009.73)" fill="#E9CDB3"/>
<ellipse rx="9.99722" ry="9.56853" transform="matrix(0.996997 -0.0774394 0.0845829 0.996416 632.241 1010.8)" fill="#E9CDB3"/>
<ellipse rx="9.99722" ry="9.56853" transform="matrix(0.996997 -0.0774394 0.0845829 0.996416 729.651 1011.87)" fill="#E9CDB3"/>
<ellipse rx="9.99722" ry="9.56853" transform="matrix(0.996997 -0.0774394 0.0845829 0.996416 827.061 1012.94)" fill="#E9CDB3"/>
<ellipse rx="9.99722" ry="9.56853" transform="matrix(0.996997 -0.0774394 0.0845829 0.996416 924.471 1014.01)" fill="#E9CDB3"/>
<ellipse rx="9.99722" ry="9.56853" transform="matrix(0.996997 -0.0774394 0.0845829 0.996416 1021.88 1015.08)" fill="#E9CDB3"/>
<ellipse rx="9.99722" ry="9.56853" transform="matrix(0.996997 -0.0774394 0.0845829 0.996416 1119.29 1016.15)" fill="#E9CDB3"/>
<ellipse rx="9.99722" ry="9.56853" transform="matrix(0.996997 -0.0774394 0.0845829 0.996416 167.356 971.088)" fill="#E9CDB3"/>
<ellipse rx="9.99722" ry="9.56853" transform="matrix(0.996997 -0.0774394 0.0845829 0.996416 264.766 972.16)" fill="#E9CDB3"/>
<ellipse rx="9.99722" ry="9.56853" transform="matrix(0.996997 -0.0774394 0.0845829 0.996416 362.176 973.231)" fill="#E9CDB3"/>
<ellipse rx="9.99722" ry="9.56853" transform="matrix(0.996997 -0.0774394 0.0845829 0.996416 459.587 974.302)" fill="#E9CDB3"/>
<ellipse rx="9.99722" ry="9.56853" transform="matrix(0.996997 -0.0774394 0.0845829 0.996416 556.997 975.374)" fill="#E9CDB3"/>
<ellipse rx="9.99722" ry="9.56853" transform="matrix(0.996997 -0.0774394 0.0845829 0.996416 654.407 976.445)" fill="#E9CDB3"/>
<ellipse rx="9.99722" ry="9.56853" transform="matrix(0.996997 -0.0774394 0.0845829 0.996416 751.818 977.516)" fill="#E9CDB3"/>
<ellipse rx="9.99722" ry="9.56853" transform="matrix(0.996997 -0.0774394 0.0845829 0.996416 849.228 978.587)" fill="#E9CDB3"/>
<ellipse rx="9.99722" ry="9.56853" transform="matrix(0.996997 -0.0774394 0.0845829 0.996416 946.638 979.659)" fill="#E9CDB3"/>
<ellipse rx="9.99722" ry="9.56853" transform="matrix(0.996997 -0.0774394 0.0845829 0.996416 1044.05 980.73)" fill="#E9CDB3"/>
<ellipse rx="9.99722" ry="9.56853" transform="matrix(0.996997 -0.0774394 0.0845829 0.996416 1141.46 981.802)" fill="#E9CDB3"/>
<rect x="30" y="1795.25" width="1124" height="187.486" fill="#D3BBA3"/>
<rect x="30" y="1612.54" width="1124" height="187.486" fill="#291200"/>
<path d="M214.596 1670.89L400.441 1856.28H28.7504L214.596 1670.89Z" fill="#863B37"/>
<path d="M214.585 2040.58L32.3768 1853.95L404.043 1856.47L214.585 2040.58Z" fill="#863B37"/>
<path d="M212.726 1697.48L369.758 1854.12H55.6934L212.726 1697.48Z" fill="#225D04"/>
<path d="M212.717 2009.85L58.7578 1852.15L372.801 1854.28L212.717 2009.85Z" fill="#225D04"/>
<path d="M211.977 1727.86L340.196 1855.76H83.7584L211.977 1727.86Z" fill="#D79000"/>
<path d="M211.97 1982.92L86.2603 1854.15L342.681 1855.89L211.97 1982.92Z" fill="#D79000"/>
<path d="M212.226 1746.85L321.236 1855.59H103.215L212.226 1746.85Z" fill="#291200"/>
<path d="M212.219 1963.7L105.343 1854.22L323.348 1855.7L212.219 1963.7Z" fill="#291200"/>
<path d="M210.847 1769.64L296.326 1854.9H125.368L210.847 1769.64Z" fill="#D3BBA3"/>
<path d="M210.843 1939.67L127.037 1853.83L297.984 1854.99L210.843 1939.67Z" fill="#D3BBA3"/>
<path d="M212.23 1792.42L277.539 1857.57H146.92L212.23 1792.42Z" fill="#291200"/>
<path d="M212.227 1922.34L148.195 1856.75L278.806 1857.64L212.227 1922.34Z" fill="#291200"/>
<path d="M589.596 1670.89L775.441 1856.28H403.75L589.596 1670.89Z" fill="#863B37"/>
<path d="M589.585 2040.58L407.377 1853.95L779.043 1856.47L589.585 2040.58Z" fill="#863B37"/>
<path d="M587.726 1697.48L744.758 1854.12H430.693L587.726 1697.48Z" fill="#225D04"/>
<path d="M587.717 2009.85L433.758 1852.15L747.801 1854.28L587.717 2009.85Z" fill="#225D04"/>
<path d="M586.977 1727.86L715.196 1855.76H458.758L586.977 1727.86Z" fill="#D79000"/>
<path d="M586.97 1982.92L461.26 1854.15L717.681 1855.89L586.97 1982.92Z" fill="#D79000"/>
<path d="M587.226 1746.85L696.236 1855.59H478.215L587.226 1746.85Z" fill="#291200"/>
<path d="M587.219 1963.7L480.343 1854.22L698.348 1855.7L587.219 1963.7Z" fill="#291200"/>
<path d="M585.847 1769.64L671.326 1854.9H500.368L585.847 1769.64Z" fill="#D3BBA3"/>
<path d="M585.843 1939.67L502.037 1853.83L672.984 1854.99L585.843 1939.67Z" fill="#D3BBA3"/>
<path d="M587.23 1792.42L652.539 1857.57H521.92L587.23 1792.42Z" fill="#291200"/>
<path d="M587.227 1922.34L523.195 1856.75L653.806 1857.64L587.227 1922.34Z" fill="#291200"/>
<path d="M962.596 1670.89L1148.44 1856.28H776.75L962.596 1670.89Z" fill="#863B37"/>
<path d="M962.585 2040.58L780.377 1853.95L1152.04 1856.47L962.585 2040.58Z" fill="#863B37"/>
<path d="M960.726 1697.48L1117.76 1854.12H803.693L960.726 1697.48Z" fill="#225D04"/>
<path d="M960.717 2009.85L806.758 1852.15L1120.8 1854.28L960.717 2009.85Z" fill="#225D04"/>
<path d="M959.977 1727.86L1088.2 1855.76H831.758L959.977 1727.86Z" fill="#D79000"/>
<path d="M959.97 1982.92L834.26 1854.15L1090.68 1855.89L959.97 1982.92Z" fill="#D79000"/>
<path d="M960.226 1746.85L1069.24 1855.59H851.215L960.226 1746.85Z" fill="#291200"/>
<path d="M960.219 1963.7L853.343 1854.22L1071.35 1855.7L960.219 1963.7Z" fill="#291200"/>
<path d="M958.847 1769.64L1044.33 1854.9H873.368L958.847 1769.64Z" fill="#D3BBA3"/>
<path d="M958.843 1939.67L875.037 1853.83L1045.98 1854.99L958.843 1939.67Z" fill="#D3BBA3"/>
<path d="M960.23 1792.42L1025.54 1857.57H894.92L960.23 1792.42Z" fill="#291200"/>
<path d="M960.227 1922.34L896.195 1856.75L1026.81 1857.64L960.227 1922.34Z" fill="#291200"/>
<rect x="30" y="1920.56" width="1124" height="187.486" fill="#291200"/>
<rect x="32" y="2011.43" width="1122" height="11.4787" fill="#8B3F3D"/>
<rect x="32" y="1612.54" width="1124" height="187.486" fill="#291200"/>
<rect x="30" y="1459.49" width="1125" height="11.4787" fill="#8B3F3D"/>
<ellipse rx="9.99833" ry="9.56737" transform="matrix(0.998197 -0.0600294 0.0655821 0.997847 51.8841 1608.19)" fill="#E9CDB3"/>
<ellipse rx="9.99833" ry="9.56737" transform="matrix(0.998197 -0.0600294 0.0655821 0.997847 149.258 1610.96)" fill="#E9CDB3"/>
<ellipse rx="9.99833" ry="9.56737" transform="matrix(0.998197 -0.0600294 0.0655821 0.997847 246.631 1613.73)" fill="#E9CDB3"/>
<ellipse rx="9.99833" ry="9.56737" transform="matrix(0.998197 -0.0600294 0.0655821 0.997847 344.005 1616.5)" fill="#E9CDB3"/>
<ellipse rx="9.99833" ry="9.56737" transform="matrix(0.998197 -0.0600294 0.0655821 0.997847 441.379 1619.27)" fill="#E9CDB3"/>
<ellipse rx="9.99833" ry="9.56737" transform="matrix(0.998197 -0.0600294 0.0655821 0.997847 538.752 1622.04)" fill="#E9CDB3"/>
<ellipse rx="9.99833" ry="9.56737" transform="matrix(0.998197 -0.0600294 0.0655821 0.997847 636.126 1624.81)" fill="#E9CDB3"/>
<ellipse rx="9.99833" ry="9.56737" transform="matrix(0.998197 -0.0600294 0.0655821 0.997847 733.499 1627.58)" fill="#E9CDB3"/>
<ellipse rx="9.99833" ry="9.56737" transform="matrix(0.998197 -0.0600294 0.0655821 0.997847 830.873 1630.35)" fill="#E9CDB3"/>
<ellipse rx="9.99833" ry="9.56737" transform="matrix(0.998197 -0.0600294 0.0655821 0.997847 928.246 1633.12)" fill="#E9CDB3"/>
<ellipse rx="9.99833" ry="9.56737" transform="matrix(0.998197 -0.0600294 0.0655821 0.997847 1025.62 1635.89)" fill="#E9CDB3"/>
<ellipse rx="9.99833" ry="9.56737" transform="matrix(0.998197 -0.0600294 0.0655821 0.997847 91.0643 1625)" fill="#E9CDB3"/>
<ellipse rx="9.99833" ry="9.56737" transform="matrix(0.998197 -0.0600294 0.0655821 0.997847 188.438 1627.77)" fill="#E9CDB3"/>
<ellipse rx="9.99833" ry="9.56737" transform="matrix(0.998197 -0.0600294 0.0655821 0.997847 285.811 1630.54)" fill="#E9CDB3"/>
<ellipse rx="9.99833" ry="9.56737" transform="matrix(0.998197 -0.0600294 0.0655821 0.997847 383.185 1633.31)" fill="#D49A52"/>
<ellipse rx="9.99833" ry="9.56737" transform="matrix(0.998197 -0.0600294 0.0655821 0.997847 480.558 1636.08)" fill="#D49A52"/>
<ellipse rx="9.99833" ry="9.56737" transform="matrix(0.998197 -0.0600294 0.0655821 0.997847 577.932 1638.85)" fill="#D49A52"/>
<ellipse rx="9.99833" ry="9.56737" transform="matrix(0.998197 -0.0600294 0.0655821 0.997847 675.305 1641.62)" fill="#D49A52"/>
<ellipse rx="9.99833" ry="9.56737" transform="matrix(0.998197 -0.0600294 0.0655821 0.997847 772.68 1644.39)" fill="#D49A52"/>
<ellipse rx="9.99833" ry="9.56737" transform="matrix(0.998197 -0.0600294 0.0655821 0.997847 870.053 1647.16)" fill="#D49A52"/>
<ellipse rx="9.99833" ry="9.56737" transform="matrix(0.998197 -0.0600294 0.0655821 0.997847 967.427 1649.93)" fill="#D49A52"/>
<ellipse rx="9.99833" ry="9.56737" transform="matrix(0.998197 -0.0600294 0.0655821 0.997847 1064.8 1652.7)" fill="#D49A52"/>
<ellipse rx="9.99833" ry="9.56737" transform="matrix(0.998197 -0.0600294 0.0655821 0.997847 113.882 1591.04)" fill="#D49A52"/>
<ellipse rx="9.99833" ry="9.56737" transform="matrix(0.998197 -0.0600294 0.0655821 0.997847 211.255 1593.81)" fill="#D49A52"/>
<ellipse rx="9.99833" ry="9.56737" transform="matrix(0.998197 -0.0600294 0.0655821 0.997847 308.629 1596.58)" fill="#D49A52"/>
<ellipse rx="9.99833" ry="9.56737" transform="matrix(0.998197 -0.0600294 0.0655821 0.997847 84.6087 1592.38)" fill="#D49A52"/>
<ellipse rx="9.99833" ry="9.56737" transform="matrix(0.998197 -0.0600294 0.0655821 0.997847 406.002 1599.35)" fill="#D49A52"/>
<ellipse rx="9.99833" ry="9.56737" transform="matrix(0.998197 -0.0600294 0.0655821 0.997847 503.376 1602.12)" fill="#D49A52"/>
<ellipse rx="9.99833" ry="9.56737" transform="matrix(0.998197 -0.0600294 0.0655821 0.997847 600.75 1604.89)" fill="#D49A52"/>
<ellipse rx="9.99833" ry="9.56737" transform="matrix(0.998197 -0.0600294 0.0655821 0.997847 698.123 1607.66)" fill="#D49A52"/>
<ellipse rx="9.99833" ry="9.56737" transform="matrix(0.998197 -0.0600294 0.0655821 0.997847 795.497 1610.43)" fill="#D49A52"/>
<ellipse rx="9.99833" ry="9.56737" transform="matrix(0.998197 -0.0600294 0.0655821 0.997847 892.87 1613.2)" fill="#D49A52"/>
<ellipse rx="9.99833" ry="9.56737" transform="matrix(0.998197 -0.0600294 0.0655821 0.997847 990.244 1615.97)" fill="#E9CDB3"/>
<ellipse rx="9.99833" ry="9.56737" transform="matrix(0.998197 -0.0600294 0.0655821 0.997847 1087.62 1618.74)" fill="#E9CDB3"/>
<ellipse rx="9.99833" ry="9.56737" transform="matrix(0.998197 -0.0600294 0.0655821 0.997847 1108.69 1588.72)" fill="#E9CDB3"/>
<ellipse rx="9.99833" ry="9.56737" transform="matrix(0.998197 -0.0600294 0.0655821 0.997847 58.0472 1658.38)" fill="#E9CDB3"/>
<ellipse rx="9.99833" ry="9.56737" transform="matrix(0.998197 -0.0600294 0.0655821 0.997847 45.1947 1689.44)" fill="#E9CDB3"/>
<ellipse rx="9.64984" ry="9.91876" transform="matrix(0.389777 -0.918482 0.934157 0.362737 978.805 1583.89)" fill="#E9CDB3"/>
<ellipse rx="9.64984" ry="9.91876" transform="matrix(0.389777 -0.918482 0.934157 0.362737 822.584 1580.59)" fill="#E9CDB3"/>
<ellipse rx="9.64984" ry="9.91876" transform="matrix(0.389777 -0.918482 0.934157 0.362737 666.362 1577.3)" fill="#E9CDB3"/>
<ellipse rx="9.64984" ry="9.91876" transform="matrix(0.389777 -0.918482 0.934157 0.362737 510.141 1574.01)" fill="#E9CDB3"/>
<ellipse rx="9.64984" ry="9.91876" transform="matrix(0.389777 -0.918482 0.934157 0.362737 356.025 1573.51)" fill="#E9CDB3"/>
<ellipse rx="9.64984" ry="9.91876" transform="matrix(0.389777 -0.918482 0.934157 0.362737 174.425 1587.36)" fill="#E9CDB3"/>
<ellipse rx="9.99833" ry="9.56737" transform="matrix(0.998197 -0.0600294 0.0655821 0.997847 165.181 1655.05)" fill="#E9CDB3"/>
<ellipse rx="9.99833" ry="9.56737" transform="matrix(0.998197 -0.0600294 0.0655821 0.997847 262.555 1657.82)" fill="#E9CDB3"/>
<ellipse rx="9.99833" ry="9.56737" transform="matrix(0.998197 -0.0600294 0.0655821 0.997847 359.929 1660.59)" fill="#E9CDB3"/>
<ellipse rx="9.99833" ry="9.56737" transform="matrix(0.998197 -0.0600294 0.0655821 0.997847 457.302 1663.36)" fill="#E9CDB3"/>
<ellipse rx="9.99833" ry="9.56737" transform="matrix(0.998197 -0.0600294 0.0655821 0.997847 554.676 1666.13)" fill="#E9CDB3"/>
<ellipse rx="9.99833" ry="9.56737" transform="matrix(0.998197 -0.0600294 0.0655821 0.997847 652.049 1668.9)" fill="#E9CDB3"/>
<ellipse rx="9.99833" ry="9.56737" transform="matrix(0.998197 -0.0600294 0.0655821 0.997847 749.423 1671.67)" fill="#E9CDB3"/>
<ellipse rx="9.99833" ry="9.56737" transform="matrix(0.998197 -0.0600294 0.0655821 0.997847 846.796 1674.44)" fill="#E9CDB3"/>
<ellipse rx="9.99833" ry="9.56737" transform="matrix(0.998197 -0.0600294 0.0655821 0.997847 944.17 1677.21)" fill="#E9CDB3"/>
<ellipse rx="9.99833" ry="9.56737" transform="matrix(0.998197 -0.0600294 0.0655821 0.997847 1041.54 1679.98)" fill="#E9CDB3"/>
<ellipse rx="9.99833" ry="9.56737" transform="matrix(0.998197 -0.0600294 0.0655821 0.997847 106.988 1669.09)" fill="#E9CDB3"/>
<ellipse rx="9.99833" ry="9.56737" transform="matrix(0.998197 -0.0600294 0.0655821 0.997847 204.361 1671.86)" fill="#FFC850"/>
<ellipse rx="9.99833" ry="9.56737" transform="matrix(0.998197 -0.0600294 0.0655821 0.997847 301.735 1674.63)" fill="#FFC850"/>
<ellipse rx="9.99833" ry="9.56737" transform="matrix(0.998197 -0.0600294 0.0655821 0.997847 399.108 1677.4)" fill="#FFC850"/>
<ellipse rx="9.99833" ry="9.56737" transform="matrix(0.998197 -0.0600294 0.0655821 0.997847 496.482 1680.17)" fill="#FFC850"/>
<ellipse rx="9.99833" ry="9.56737" transform="matrix(0.998197 -0.0600294 0.0655821 0.997847 593.855 1682.94)" fill="#FFC850"/>
<ellipse rx="9.99833" ry="9.56737" transform="matrix(0.998197 -0.0600294 0.0655821 0.997847 691.229 1685.71)" fill="#FFC850"/>
<ellipse rx="9.99833" ry="9.56737" transform="matrix(0.998197 -0.0600294 0.0655821 0.997847 788.602 1688.48)" fill="#FFC850"/>
<ellipse rx="9.99833" ry="9.56737" transform="matrix(0.998197 -0.0600294 0.0655821 0.997847 885.976 1691.25)" fill="#FFC850"/>
<ellipse rx="9.99833" ry="9.56737" transform="matrix(0.998197 -0.0600294 0.0655821 0.997847 983.35 1694.02)" fill="#FFC850"/>
<ellipse rx="9.99833" ry="9.56737" transform="matrix(0.998197 -0.0600294 0.0655821 0.997847 1080.72 1696.79)" fill="#FFC850"/>
<ellipse rx="9.99833" ry="9.56737" transform="matrix(0.998197 -0.0600294 0.0655821 0.997847 129.805 1635.13)" fill="#FFC850"/>
<ellipse rx="9.99833" ry="9.56737" transform="matrix(0.998197 -0.0600294 0.0655821 0.997847 227.179 1637.9)" fill="#FFC850"/>
<ellipse rx="9.99833" ry="9.56737" transform="matrix(0.998197 -0.0600294 0.0655821 0.997847 324.552 1640.67)" fill="#FFC850"/>
<ellipse rx="9.99833" ry="9.56737" transform="matrix(0.998197 -0.0600294 0.0655821 0.997847 421.926 1643.44)" fill="#FFC850"/>
<ellipse rx="9.99833" ry="9.56737" transform="matrix(0.998197 -0.0600294 0.0655821 0.997847 519.299 1646.21)" fill="#FFC850"/>
<ellipse rx="9.99833" ry="9.56737" transform="matrix(0.998197 -0.0600294 0.0655821 0.997847 616.673 1648.98)" fill="#FFC850"/>
<ellipse rx="9.99833" ry="9.56737" transform="matrix(0.998197 -0.0600294 0.0655821 0.997847 714.047 1651.75)" fill="#FFC850"/>
<ellipse rx="9.99833" ry="9.56737" transform="matrix(0.998197 -0.0600294 0.0655821 0.997847 811.42 1654.52)" fill="#FFC850"/>
<ellipse rx="9.99833" ry="9.56737" transform="matrix(0.998197 -0.0600294 0.0655821 0.997847 908.794 1657.29)" fill="#E9CDB3"/>
<ellipse rx="9.99833" ry="9.56737" transform="matrix(0.998197 -0.0600294 0.0655821 0.997847 1006.17 1660.06)" fill="#E9CDB3"/>
<ellipse rx="9.99833" ry="9.56737" transform="matrix(0.998197 -0.0600294 0.0655821 0.997847 1103.54 1662.83)" fill="#E9CDB3"/>
<ellipse rx="9.99833" ry="9.56737" transform="matrix(0.998197 -0.0600294 0.0655821 0.997847 1124.61 1632.81)" fill="#E9CDB3"/>
<ellipse rx="9.99833" ry="9.56737" transform="matrix(0.998197 -0.0600294 0.0655821 0.997847 73.9705 1702.47)" fill="#E9CDB3"/>
<ellipse rx="9.99833" ry="9.56737" transform="matrix(0.998197 -0.0600294 0.0655821 0.997847 61.118 1733.53)" fill="#E9CDB3"/>
<ellipse rx="9.64984" ry="9.91876" transform="matrix(0.389777 -0.918482 0.934157 0.362737 1027.24 1589.27)" fill="#E9CDB3"/>
<ellipse rx="9.64984" ry="9.91876" transform="matrix(0.389777 -0.918482 0.934157 0.362737 871.022 1585.98)" fill="#E9CDB3"/>
<ellipse rx="9.64984" ry="9.91876" transform="matrix(0.389777 -0.918482 0.934157 0.362737 714.8 1582.69)" fill="#E9CDB3"/>
<ellipse rx="9.64984" ry="9.91876" transform="matrix(0.389777 -0.918482 0.934157 0.362737 558.579 1579.4)" fill="#E9CDB3"/>
<ellipse rx="9.64984" ry="9.91876" transform="matrix(0.389777 -0.918482 0.934157 0.362737 422.911 1569.32)" fill="#E9CDB3"/>
<ellipse rx="9.64984" ry="9.91876" transform="matrix(0.389777 -0.918482 0.934157 0.362737 238.278 1582.31)" fill="#E9CDB3"/>
<ellipse rx="9.99833" ry="9.56737" transform="matrix(0.998197 -0.0600294 0.0655821 0.997847 181.104 1699.14)" fill="#E9CDB3"/>
<ellipse rx="9.99833" ry="9.56737" transform="matrix(0.998197 -0.0600294 0.0655821 0.997847 278.478 1701.91)" fill="#E9CDB3"/>
<ellipse rx="9.99833" ry="9.56737" transform="matrix(0.998197 -0.0600294 0.0655821 0.997847 375.852 1704.68)" fill="#E9CDB3"/>
<ellipse rx="9.99833" ry="9.56737" transform="matrix(0.998197 -0.0600294 0.0655821 0.997847 473.225 1707.45)" fill="#E9CDB3"/>
<ellipse rx="9.99833" ry="9.56737" transform="matrix(0.998197 -0.0600294 0.0655821 0.997847 570.599 1710.22)" fill="#E9CDB3"/>
<ellipse rx="9.99833" ry="9.56737" transform="matrix(0.998197 -0.0600294 0.0655821 0.997847 667.972 1712.99)" fill="#E9CDB3"/>
<ellipse rx="9.99833" ry="9.56737" transform="matrix(0.998197 -0.0600294 0.0655821 0.997847 765.346 1715.76)" fill="#E9CDB3"/>
<ellipse rx="9.99833" ry="9.56737" transform="matrix(0.998197 -0.0600294 0.0655821 0.997847 862.72 1718.53)" fill="#E9CDB3"/>
<ellipse rx="9.99833" ry="9.56737" transform="matrix(0.998197 -0.0600294 0.0655821 0.997847 960.093 1721.3)" fill="#E9CDB3"/>
<ellipse rx="9.99833" ry="9.56737" transform="matrix(0.998197 -0.0600294 0.0655821 0.997847 1057.47 1724.07)" fill="#E9CDB3"/>
<ellipse rx="9.99833" ry="9.56737" transform="matrix(0.998197 -0.0600294 0.0655821 0.997847 122.911 1713.18)" fill="#D49A52"/>
<ellipse rx="9.99833" ry="9.56737" transform="matrix(0.998197 -0.0600294 0.0655821 0.997847 220.285 1715.95)" fill="#D49A52"/>
<ellipse rx="9.99833" ry="9.56737" transform="matrix(0.998197 -0.0600294 0.0655821 0.997847 317.658 1718.72)" fill="#D49A52"/>
<ellipse rx="9.99833" ry="9.56737" transform="matrix(0.998197 -0.0600294 0.0655821 0.997847 415.032 1721.49)" fill="#D49A52"/>
<ellipse rx="9.99833" ry="9.56737" transform="matrix(0.998197 -0.0600294 0.0655821 0.997847 512.405 1724.26)" fill="#D49A52"/>
<ellipse rx="9.99833" ry="9.56737" transform="matrix(0.998197 -0.0600294 0.0655821 0.997847 609.779 1727.03)" fill="#D49A52"/>
<ellipse rx="9.99833" ry="9.56737" transform="matrix(0.998197 -0.0600294 0.0655821 0.997847 707.152 1729.8)" fill="#D49A52"/>
<ellipse rx="9.99833" ry="9.56737" transform="matrix(0.998197 -0.0600294 0.0655821 0.997847 804.526 1732.57)" fill="#D49A52"/>
<ellipse rx="9.99833" ry="9.56737" transform="matrix(0.998197 -0.0600294 0.0655821 0.997847 901.9 1735.34)" fill="#D49A52"/>
<ellipse rx="9.99833" ry="9.56737" transform="matrix(0.998197 -0.0600294 0.0655821 0.997847 999.273 1738.11)" fill="#D49A52"/>
<ellipse rx="9.99833" ry="9.56737" transform="matrix(0.998197 -0.0600294 0.0655821 0.997847 1096.65 1740.88)" fill="#D49A52"/>
<ellipse rx="9.99833" ry="9.56737" transform="matrix(0.998197 -0.0600294 0.0655821 0.997847 145.728 1679.22)" fill="#D49A52"/>
<ellipse rx="9.99833" ry="9.56737" transform="matrix(0.998197 -0.0600294 0.0655821 0.997847 243.102 1681.99)" fill="#D49A52"/>
<ellipse rx="9.99833" ry="9.56737" transform="matrix(0.998197 -0.0600294 0.0655821 0.997847 340.475 1684.76)" fill="#D49A52"/>
<ellipse rx="9.99833" ry="9.56737" transform="matrix(0.998197 -0.0600294 0.0655821 0.997847 437.849 1687.53)" fill="#D49A52"/>
<ellipse rx="9.99833" ry="9.56737" transform="matrix(0.998197 -0.0600294 0.0655821 0.997847 535.222 1690.3)" fill="#D49A52"/>
<ellipse rx="9.99833" ry="9.56737" transform="matrix(0.998197 -0.0600294 0.0655821 0.997847 632.597 1693.07)" fill="#D49A52"/>
<ellipse rx="9.99833" ry="9.56737" transform="matrix(0.998197 -0.0600294 0.0655821 0.997847 729.97 1695.84)" fill="#D49A52"/>
<ellipse rx="9.99833" ry="9.56737" transform="matrix(0.998197 -0.0600294 0.0655821 0.997847 827.344 1698.61)" fill="#D79000"/>
<ellipse rx="9.99833" ry="9.56737" transform="matrix(0.998197 -0.0600294 0.0655821 0.997847 924.717 1701.38)" fill="#D79000"/>
<ellipse rx="9.99833" ry="9.56737" transform="matrix(0.998197 -0.0600294 0.0655821 0.997847 1022.09 1704.15)" fill="#D79000"/>
<ellipse rx="9.99833" ry="9.56737" transform="matrix(0.998197 -0.0600294 0.0655821 0.997847 1119.46 1706.92)" fill="#D79000"/>
<ellipse rx="9.99833" ry="9.56737" transform="matrix(0.998197 -0.0600294 0.0655821 0.997847 89.8939 1746.56)" fill="#D79000"/>
<ellipse rx="9.99833" ry="9.56737" transform="matrix(0.998197 -0.0600294 0.0655821 0.997847 77.0413 1777.62)" fill="#D79000"/>
<ellipse rx="9.64984" ry="9.91876" transform="matrix(0.389777 -0.918482 0.934157 0.362737 1075.68 1594.66)" fill="#D79000"/>
<ellipse rx="9.64984" ry="9.91876" transform="matrix(0.389777 -0.918482 0.934157 0.362737 919.46 1591.37)" fill="#D79000"/>
<ellipse rx="9.64984" ry="9.91876" transform="matrix(0.389777 -0.918482 0.934157 0.362737 763.239 1588.08)" fill="#D79000"/>
<ellipse rx="9.64984" ry="9.91876" transform="matrix(0.389777 -0.918482 0.934157 0.362737 607.017 1584.78)" fill="#D79000"/>
<ellipse rx="9.64984" ry="9.91876" transform="matrix(0.389777 -0.918482 0.934157 0.362737 462.954 1596.67)" fill="#D79000"/>
<ellipse rx="9.64984" ry="9.91876" transform="matrix(0.389777 -0.918482 0.934157 0.362737 277.744 1586.71)" fill="#D79000"/>
<ellipse rx="9.99833" ry="9.56737" transform="matrix(0.998197 -0.0600294 0.0655821 0.997847 197.028 1743.23)" fill="#D79000"/>
<ellipse rx="9.99833" ry="9.56737" transform="matrix(0.998197 -0.0600294 0.0655821 0.997847 294.402 1746)" fill="#D79000"/>
<ellipse rx="9.99833" ry="9.56737" transform="matrix(0.998197 -0.0600294 0.0655821 0.997847 391.775 1748.77)" fill="#D79000"/>
<ellipse rx="9.99833" ry="9.56737" transform="matrix(0.998197 -0.0600294 0.0655821 0.997847 489.149 1751.54)" fill="#D79000"/>
<ellipse rx="9.99833" ry="9.56737" transform="matrix(0.998197 -0.0600294 0.0655821 0.997847 586.522 1754.31)" fill="#D79000"/>
<ellipse rx="9.99833" ry="9.56737" transform="matrix(0.998197 -0.0600294 0.0655821 0.997847 683.896 1757.08)" fill="#D79000"/>
<ellipse rx="9.99833" ry="9.56737" transform="matrix(0.998197 -0.0600294 0.0655821 0.997847 781.269 1759.85)" fill="#D79000"/>
<ellipse rx="9.99833" ry="9.56737" transform="matrix(0.998197 -0.0600294 0.0655821 0.997847 878.643 1762.62)" fill="#D79000"/>
<ellipse rx="9.99833" ry="9.56737" transform="matrix(0.998197 -0.0600294 0.0655821 0.997847 976.016 1765.39)" fill="#D79000"/>
<ellipse rx="9.99833" ry="9.56737" transform="matrix(0.998197 -0.0600294 0.0655821 0.997847 1073.39 1768.16)" fill="#D79000"/>
<ellipse rx="9.99833" ry="9.56737" transform="matrix(0.998197 -0.0600294 0.0655821 0.997847 138.834 1757.27)" fill="#D79000"/>
<ellipse rx="9.99833" ry="9.56737" transform="matrix(0.998197 -0.0600294 0.0655821 0.997847 236.208 1760.04)" fill="#D79000"/>
<ellipse rx="9.99833" ry="9.56737" transform="matrix(0.998197 -0.0600294 0.0655821 0.997847 333.581 1762.81)" fill="#D79000"/>
<ellipse rx="9.99833" ry="9.56737" transform="matrix(0.998197 -0.0600294 0.0655821 0.997847 430.955 1765.58)" fill="#E9CDB3"/>
<ellipse rx="9.99833" ry="9.56737" transform="matrix(0.998197 -0.0600294 0.0655821 0.997847 528.328 1768.35)" fill="#E9CDB3"/>
<ellipse rx="9.99833" ry="9.56737" transform="matrix(0.998197 -0.0600294 0.0655821 0.997847 625.702 1771.12)" fill="#E9CDB3"/>
<ellipse rx="9.99833" ry="9.56737" transform="matrix(0.998197 -0.0600294 0.0655821 0.997847 723.076 1773.89)" fill="#E9CDB3"/>
<ellipse rx="9.99833" ry="9.56737" transform="matrix(0.998197 -0.0600294 0.0655821 0.997847 820.45 1776.66)" fill="#E9CDB3"/>
<ellipse rx="9.99833" ry="9.56737" transform="matrix(0.998197 -0.0600294 0.0655821 0.997847 917.823 1779.43)" fill="#E9CDB3"/>
<ellipse rx="9.99833" ry="9.56737" transform="matrix(0.998197 -0.0600294 0.0655821 0.997847 1015.2 1782.2)" fill="#E9CDB3"/>
<ellipse rx="9.99833" ry="9.56737" transform="matrix(0.998197 -0.0600294 0.0655821 0.997847 1112.57 1784.97)" fill="#E9CDB3"/>
<ellipse rx="9.99833" ry="9.56737" transform="matrix(0.998197 -0.0600294 0.0655821 0.997847 161.652 1723.31)" fill="#E9CDB3"/>
<ellipse rx="9.99833" ry="9.56737" transform="matrix(0.998197 -0.0600294 0.0655821 0.997847 259.025 1726.08)" fill="#E9CDB3"/>
<ellipse rx="9.99833" ry="9.56737" transform="matrix(0.998197 -0.0600294 0.0655821 0.997847 356.399 1728.85)" fill="#E9CDB3"/>
<ellipse rx="9.99833" ry="9.56737" transform="matrix(0.998197 -0.0600294 0.0655821 0.997847 453.772 1731.62)" fill="#E9CDB3"/>
<ellipse rx="9.99833" ry="9.56737" transform="matrix(0.998197 -0.0600294 0.0655821 0.997847 551.146 1734.39)" fill="#E9CDB3"/>
<ellipse rx="9.99833" ry="9.56737" transform="matrix(0.998197 -0.0600294 0.0655821 0.997847 648.52 1737.16)" fill="#E9CDB3"/>
<ellipse rx="9.99833" ry="9.56737" transform="matrix(0.998197 -0.0600294 0.0655821 0.997847 745.893 1739.93)" fill="#E9CDB3"/>
<ellipse rx="9.99833" ry="9.56737" transform="matrix(0.998197 -0.0600294 0.0655821 0.997847 843.267 1742.7)" fill="#E9CDB3"/>
<ellipse rx="9.99833" ry="9.56737" transform="matrix(0.998197 -0.0600294 0.0655821 0.997847 940.64 1745.47)" fill="#E9CDB3"/>
<ellipse rx="9.99833" ry="9.56737" transform="matrix(0.998197 -0.0600294 0.0655821 0.997847 1038.01 1748.24)" fill="#E9CDB3"/>
<ellipse rx="9.99833" ry="9.56737" transform="matrix(0.998197 -0.0600294 0.0655821 0.997847 1135.39 1751.01)" fill="#E9CDB3"/>
<rect x="31" y="67.6958" width="1124" height="2041.3" rx="15" fill="#3F3D56" fill-opacity="0.78"/>
</svg>
