<svg width="10" height="17" viewBox="0 0 10 17" fill="none" xmlns="http://www.w3.org/2000/svg">
<path d="M3.66064 11.7959C3.67432 10.9824 3.7666 10.3398 3.9375 9.86816C4.1084 9.39648 4.45703 8.87354 4.9834 8.29932L6.32666 6.91504C6.90088 6.26562 7.18799 5.56836 7.18799 4.82324C7.18799 4.10547 7 3.54492 6.62402 3.1416C6.24805 2.73145 5.70117 2.52637 4.9834 2.52637C4.28613 2.52637 3.72559 2.71094 3.30176 3.08008C2.87793 3.44922 2.66602 3.94482 2.66602 4.56689H0.769043C0.782715 3.45947 1.17578 2.56738 1.94824 1.89062C2.72754 1.20703 3.73926 0.865234 4.9834 0.865234C6.27539 0.865234 7.28027 1.21387 7.99805 1.91113C8.72266 2.60156 9.08496 3.55176 9.08496 4.76172C9.08496 5.95801 8.53125 7.13721 7.42383 8.29932L6.30615 9.40674C5.80713 9.96045 5.55762 10.7568 5.55762 11.7959H3.66064ZM3.57861 15.0464C3.57861 14.7388 3.6709 14.4824 3.85547 14.2773C4.04688 14.0654 4.32715 13.9595 4.69629 13.9595C5.06543 13.9595 5.3457 14.0654 5.53711 14.2773C5.72852 14.4824 5.82422 14.7388 5.82422 15.0464C5.82422 15.354 5.72852 15.6104 5.53711 15.8154C5.3457 16.0137 5.06543 16.1128 4.69629 16.1128C4.32715 16.1128 4.04688 16.0137 3.85547 15.8154C3.6709 15.6104 3.57861 15.354 3.57861 15.0464Z" fill="black"/>
</svg>
