<svg width="24" height="24" viewBox="0 0 24 24" fill="none" xmlns="http://www.w3.org/2000/svg">
<path fill-rule="evenodd" clip-rule="evenodd" d="M12 3C7.02944 3 3 7.02944 3 12C3 16.9706 7.02944 21 12 21C16.9706 21 21 16.9706 21 12C21 7.02944 16.9706 3 12 3ZM1 12C1 5.92487 5.92487 1 12 1C18.0751 1 23 5.92487 23 12C23 18.0751 18.0751 23 12 23C5.92487 23 1 18.0751 1 12Z" fill="black"/>
<path d="M11.0918 14.5977C11.0996 14.1328 11.1523 13.7656 11.25 13.4961C11.3477 13.2266 11.5469 12.9277 11.8477 12.5996L12.6152 11.8086C12.9434 11.4375 13.1074 11.0391 13.1074 10.6133C13.1074 10.2031 13 9.88281 12.7852 9.65234C12.5703 9.41797 12.2578 9.30078 11.8477 9.30078C11.4492 9.30078 11.1289 9.40625 10.8867 9.61719C10.6445 9.82812 10.5234 10.1113 10.5234 10.4668H9.43945C9.44727 9.83398 9.67188 9.32422 10.1133 8.9375C10.5586 8.54688 11.1367 8.35156 11.8477 8.35156C12.5859 8.35156 13.1602 8.55078 13.5703 8.94922C13.9844 9.34375 14.1914 9.88672 14.1914 10.5781C14.1914 11.2617 13.875 11.9355 13.2422 12.5996L12.6035 13.2324C12.3184 13.5488 12.1758 14.0039 12.1758 14.5977H11.0918ZM11.0449 16.4551C11.0449 16.2793 11.0977 16.1328 11.2031 16.0156C11.3125 15.8945 11.4727 15.834 11.6836 15.834C11.8945 15.834 12.0547 15.8945 12.1641 16.0156C12.2734 16.1328 12.3281 16.2793 12.3281 16.4551C12.3281 16.6309 12.2734 16.7773 12.1641 16.8945C12.0547 17.0078 11.8945 17.0645 11.6836 17.0645C11.4727 17.0645 11.3125 17.0078 11.2031 16.8945C11.0977 16.7773 11.0449 16.6309 11.0449 16.4551Z" fill="black"/>
</svg>
