<svg width="100" height="100"  viewBox="0 0 180 133"  fill="none" xmlns="http://www.w3.org/2000/svg">
<path d="M68.2345 119.042H61.0157V87.2525C61.0157 86.1316 59.8617 85.2234 58.4376 85.2234H41.25V89.2816H55.8594V121.071C55.8594 122.192 57.0134 123.1 58.4376 123.1H68.2345C69.6586 123.1 70.8126 122.192 70.8126 121.071C70.8126 119.95 69.6586 119.042 68.2345 119.042Z" fill="#E18F4E"/>
<path d="M98.6563 60.8739L83.1875 73.0487H108.969V60.8739H98.6563Z" fill="#808080"/>
<path d="M98.6564 60.8739H67.0312V73.0487H98.6564V60.8739Z" fill="#999999"/>
<path d="M20.625 60.8739L30.9375 93.34L43.8282 89.2817V73.0487L41.2501 68.9904L20.625 60.8739Z" fill="#B3B3B3"/>
<path d="M10.3125 77.1069C10.3125 83.8309 17.2381 89.2816 25.7813 89.2816L30.9376 93.3399V63.5793L10.3125 68.9904V77.1069Z" fill="#CCCCCC"/>
<path d="M34.375 44.6408H24.0625L30.9375 68.9904H41.2501V50.0518C41.2501 47.0633 38.1721 44.6408 34.375 44.6408Z" fill="#1990C2"/>
<path d="M30.9376 50.0518C30.9376 47.0633 27.8596 44.6408 24.0626 44.6408H17.1875C13.3904 44.6408 10.3125 47.0633 10.3125 50.0518V68.9904H30.9376V50.0518Z" fill="#2DADE3"/>
<path d="M30.9375 89.2817L24.0625 93.34L30.9375 97.3982H43.8282V89.2817H30.9375Z" fill="#CF301B"/>
<path d="M30.9376 89.2817H2.57812V97.3982H30.9376V89.2817Z" fill="#FF4128"/>
<path d="M25.7803 14.8804V36.5244C34.3235 36.5244 41.2491 31.0736 41.2491 24.3496C41.2491 22.9263 40.9356 21.5611 40.3653 20.2914L25.7803 14.8804Z" fill="#E18F4E"/>
<path d="M25.7803 12.1748L30.6419 20.2913H40.3653C38.2416 15.5632 32.515 12.1748 25.7803 12.1748Z" fill="#40211D"/>
<path d="M11.1953 20.2914C10.625 21.5611 10.3115 22.9263 10.3115 24.3496C10.3115 31.0736 17.2371 36.5244 25.7803 36.5244C28.628 36.5244 30.9366 31.0736 30.9366 24.3496C30.9366 22.9263 30.8321 21.5611 30.642 20.2914L25.7803 14.8804L11.1953 20.2914Z" fill="#FFA754"/>
<path d="M25.7803 12.1748C19.0456 12.1748 13.3194 15.5632 11.1953 20.2913H30.642C29.9342 15.5632 28.0254 12.1748 25.7803 12.1748Z" fill="#60312C"/>
<path d="M31.2103 2.7055C30.244 1.10736 28.1798 0 25.7814 0C23.3831 0 21.3188 1.10736 20.3526 2.7055C17.0302 2.7055 14.3369 4.82527 14.3369 7.44014C14.3369 10.055 17.0302 12.1748 20.3526 12.1748H31.2103C34.5326 12.1748 37.2259 10.055 37.2259 7.44014C37.2259 4.82527 34.5326 2.7055 31.2103 2.7055Z" fill="#60312C"/>
<path d="M124.438 68.9904L108.969 73.0486L124.438 77.1069H134.75V68.9904H124.438Z" fill="#FFA754"/>
<path d="M124.438 68.9904H41.25V77.1069H124.438V68.9904Z" fill="#FFCB63"/>
<path d="M129.594 74.4014V121.071C129.594 122.192 130.748 123.1 132.172 123.1C133.596 123.1 134.75 122.192 134.75 121.071V77.1069L129.594 74.4014Z" fill="#FFA754"/>
<path d="M41.25 77.1069V121.071C41.25 122.192 42.404 123.1 43.8281 123.1C45.2523 123.1 46.4063 122.192 46.4063 121.071V74.4014L41.25 77.1069Z" fill="#FFCB63"/>
<path d="M0 89.2817V121.071C0 122.192 1.15397 123.101 2.57813 123.101C4.00229 123.101 5.15627 122.192 5.15627 121.071V89.2817H0Z" fill="#FF4128"/>
<path d="M70.4688 38.5535C67.6211 38.5535 65.3125 40.3705 65.3125 42.6117C65.3125 44.853 67.6211 46.67 70.4688 46.67L80.7813 54.7865V38.5535H70.4688Z" fill="#FF8646"/>
<path d="M105.531 38.5535H95.2188V54.7865L105.531 46.67C108.379 46.67 110.688 44.853 110.688 42.6117C110.688 40.3705 108.379 38.5535 105.531 38.5535Z" fill="#FF4128"/>
<path d="M100.375 42.6117C100.375 40.3705 98.0665 38.5535 95.2188 38.5535H79.75C76.9024 38.5535 74.5938 40.3705 74.5938 42.6117C74.5938 44.853 76.9024 46.67 79.75 46.67L95.2188 54.7865V46.67C98.0665 46.67 100.375 44.853 100.375 42.6117Z" fill="#FF6337"/>
<path d="M90.5781 32.4662C89.154 32.4662 88 31.5579 88 30.437V6.08748C88 4.96659 89.154 4.05835 90.5781 4.05835C92.0023 4.05835 93.1563 4.96659 93.1563 6.08748V30.437C93.1563 31.5579 92.0023 32.4662 90.5781 32.4662Z" fill="#EBEBEB"/>
<path d="M80.2656 12.1749C78.8415 12.1749 77.6875 11.2666 77.6875 10.1457V6.08748C77.6875 4.96659 78.8415 4.05835 80.2656 4.05835C81.6898 4.05835 82.8438 4.96659 82.8438 6.08748V10.1457C82.8438 11.2666 81.6898 12.1749 80.2656 12.1749Z" fill="#EBEBEB"/>
<path d="M80.2656 32.4662C78.8415 32.4662 77.6875 31.5579 77.6875 30.437V18.2623C77.6875 17.1414 78.8415 16.2331 80.2656 16.2331C81.6898 16.2331 82.8438 17.1414 82.8438 18.2623V30.437C82.8438 31.5579 81.6898 32.4662 80.2656 32.4662Z" fill="#EBEBEB"/>
<path d="M105.531 48.6991L98.6553 60.8739H108.97C112.751 60.8733 115.844 58.4386 115.844 55.4629V48.6991H105.531Z" fill="#353535"/>
<path d="M60.1562 48.6991V55.4629C60.1562 58.4389 63.25 60.8739 67.0313 60.8739H98.6574C102.438 60.8733 105.531 58.4386 105.531 55.4629V48.6991H60.1562Z" fill="#4F4F4F"/>
<path d="M121 50.7282H55C53.5758 50.7282 52.4219 49.82 52.4219 48.6991C52.4219 47.5782 53.5758 46.67 55 46.67H121C122.424 46.67 123.578 47.5782 123.578 48.6991C123.578 49.82 122.424 50.7282 121 50.7282Z" fill="#353535"/>
<path d="M68.2345 119.042H61.0157V87.2525C61.0157 86.1316 59.8617 85.2234 58.4376 85.2234H41.25V89.2816H55.8594V121.071C55.8594 122.192 57.0134 123.1 58.4376 123.1H68.2345C69.6586 123.1 70.8126 122.192 70.8126 121.071C70.8126 119.95 69.6586 119.042 68.2345 119.042Z" fill="#E18F4E"/>
<path d="M98.6563 60.8739L83.1875 73.0487H108.969V60.8739H98.6563Z" fill="#808080"/>
<path d="M98.6564 60.8739H67.0312V73.0487H98.6564V60.8739Z" fill="#999999"/>
<path d="M20.625 60.8739L30.9375 93.34L43.8282 89.2817V73.0487L41.2501 68.9904L20.625 60.8739Z" fill="#B3B3B3"/>
<path d="M10.3125 77.1069C10.3125 83.8309 17.2381 89.2816 25.7813 89.2816L30.9376 93.3399V63.5793L10.3125 68.9904V77.1069Z" fill="#CCCCCC"/>
<path d="M34.375 44.6408H24.0625L30.9375 68.9904H41.2501V50.0518C41.2501 47.0633 38.1721 44.6408 34.375 44.6408Z" fill="#1990C2"/>
<path d="M30.9376 50.0518C30.9376 47.0633 27.8596 44.6408 24.0626 44.6408H17.1875C13.3904 44.6408 10.3125 47.0633 10.3125 50.0518V68.9904H30.9376V50.0518Z" fill="#2DADE3"/>
<path d="M30.9375 89.2817L24.0625 93.34L30.9375 97.3982H43.8282V89.2817H30.9375Z" fill="#CF301B"/>
<path d="M30.9376 89.2817H2.57812V97.3982H30.9376V89.2817Z" fill="#FF4128"/>
<path d="M25.7803 14.8804V36.5244C34.3235 36.5244 41.2491 31.0736 41.2491 24.3496C41.2491 22.9263 40.9356 21.5611 40.3653 20.2914L25.7803 14.8804Z" fill="#E18F4E"/>
<path d="M25.7803 12.1748L30.6419 20.2913H40.3653C38.2416 15.5632 32.515 12.1748 25.7803 12.1748Z" fill="#40211D"/>
<path d="M11.1953 20.2914C10.625 21.5611 10.3115 22.9263 10.3115 24.3496C10.3115 31.0736 17.2371 36.5244 25.7803 36.5244C28.628 36.5244 30.9366 31.0736 30.9366 24.3496C30.9366 22.9263 30.8321 21.5611 30.642 20.2914L25.7803 14.8804L11.1953 20.2914Z" fill="#FFA754"/>
<path d="M25.7803 12.1748C19.0456 12.1748 13.3194 15.5632 11.1953 20.2913H30.642C29.9342 15.5632 28.0254 12.1748 25.7803 12.1748Z" fill="#60312C"/>
<path d="M31.2103 2.7055C30.244 1.10736 28.1798 0 25.7814 0C23.3831 0 21.3188 1.10736 20.3526 2.7055C17.0302 2.7055 14.3369 4.82527 14.3369 7.44014C14.3369 10.055 17.0302 12.1748 20.3526 12.1748H31.2103C34.5326 12.1748 37.2259 10.055 37.2259 7.44014C37.2259 4.82527 34.5326 2.7055 31.2103 2.7055Z" fill="#60312C"/>
<path d="M124.438 68.9904L108.969 73.0486L124.438 77.1069H134.75V68.9904H124.438Z" fill="#FFA754"/>
<path d="M124.438 68.9904H41.25V77.1069H124.438V68.9904Z" fill="#FFCB63"/>
<path d="M129.594 74.4014V121.071C129.594 122.192 130.748 123.1 132.172 123.1C133.596 123.1 134.75 122.192 134.75 121.071V77.1069L129.594 74.4014Z" fill="#FFA754"/>
<path d="M41.25 77.1069V121.071C41.25 122.192 42.404 123.1 43.8281 123.1C45.2523 123.1 46.4063 122.192 46.4063 121.071V74.4014L41.25 77.1069Z" fill="#FFCB63"/>
<path d="M0 89.2817V121.071C0 122.192 1.15397 123.101 2.57813 123.101C4.00229 123.101 5.15627 122.192 5.15627 121.071V89.2817H0Z" fill="#FF4128"/>
<path d="M70.4688 38.5535C67.6211 38.5535 65.3125 40.3705 65.3125 42.6117C65.3125 44.853 67.6211 46.67 70.4688 46.67L80.7813 54.7865V38.5535H70.4688Z" fill="#FF8646"/>
<path d="M105.531 38.5535H95.2188V54.7865L105.531 46.67C108.379 46.67 110.688 44.853 110.688 42.6117C110.688 40.3705 108.379 38.5535 105.531 38.5535Z" fill="#FF4128"/>
<path d="M100.375 42.6117C100.375 40.3705 98.0665 38.5535 95.2188 38.5535H79.75C76.9024 38.5535 74.5938 40.3705 74.5938 42.6117C74.5938 44.853 76.9024 46.67 79.75 46.67L95.2188 54.7865V46.67C98.0665 46.67 100.375 44.853 100.375 42.6117Z" fill="#FF6337"/>
<path d="M90.5781 32.4662C89.154 32.4662 88 31.5579 88 30.437V6.08748C88 4.96659 89.154 4.05835 90.5781 4.05835C92.0023 4.05835 93.1563 4.96659 93.1563 6.08748V30.437C93.1563 31.5579 92.0023 32.4662 90.5781 32.4662Z" fill="#EBEBEB"/>
<path d="M80.2656 12.1749C78.8415 12.1749 77.6875 11.2666 77.6875 10.1457V6.08748C77.6875 4.96659 78.8415 4.05835 80.2656 4.05835C81.6898 4.05835 82.8438 4.96659 82.8438 6.08748V10.1457C82.8438 11.2666 81.6898 12.1749 80.2656 12.1749Z" fill="#EBEBEB"/>
<path d="M80.2656 32.4662C78.8415 32.4662 77.6875 31.5579 77.6875 30.437V18.2623C77.6875 17.1414 78.8415 16.2331 80.2656 16.2331C81.6898 16.2331 82.8438 17.1414 82.8438 18.2623V30.437C82.8438 31.5579 81.6898 32.4662 80.2656 32.4662Z" fill="#EBEBEB"/>
<path d="M105.531 48.6991L98.6553 60.8739H108.97C112.751 60.8733 115.844 58.4386 115.844 55.4629V48.6991H105.531Z" fill="#353535"/>
<path d="M60.1562 48.6991V55.4629C60.1562 58.4389 63.25 60.8739 67.0313 60.8739H98.6574C102.438 60.8733 105.531 58.4386 105.531 55.4629V48.6991H60.1562Z" fill="#4F4F4F"/>
<path d="M121 50.7282H55C53.5758 50.7282 52.4219 49.82 52.4219 48.6991C52.4219 47.5782 53.5758 46.67 55 46.67H121C122.424 46.67 123.578 47.5782 123.578 48.6991C123.578 49.82 122.424 50.7282 121 50.7282Z" fill="#353535"/>
</svg>
