<svg width="498" height="25" viewBox="0 0 498 25" fill="none" xmlns="http://www.w3.org/2000/svg">
<path d="M70 6.73169L76.9282 18.9908H63.0718L70 6.73169Z" fill="#FFC850"/>
<path d="M105 6.73169L111.928 18.9908H98.0718L105 6.73169Z" fill="#FFC850"/>
<path d="M140 6.73169L146.928 18.9908H133.072L140 6.73169Z" fill="#FFC850"/>
<path d="M38 6.73169L44.9282 18.9908H31.0718L38 6.73169Z" fill="#FFC850"/>
<path d="M38 6.73169L44.9282 18.9908H31.0718L38 6.73169Z" fill="#FFC850"/>
<path d="M8 5.94641L14.9282 18.2056H1.0718L8 5.94641Z" fill="#FFC850"/>
<path d="M175 6.73169L181.928 18.9908H168.072L175 6.73169Z" fill="#FFC850"/>
<path d="M210 6.73169L216.928 18.9908H203.072L210 6.73169Z" fill="#FFC850"/>
<path d="M245 6.73169L251.928 18.9908H238.072L245 6.73169Z" fill="#FFC850"/>
<path d="M280 6.73169L286.928 18.9908H273.072L280 6.73169Z" fill="#FFC850"/>
<path d="M315 7.69189L321.928 19.951H308.072L315 7.69189Z" fill="#FFC850"/>
<path d="M350 7.69189L356.928 19.951H343.072L350 7.69189Z" fill="#FFC850"/>
<path d="M385 7.69189L391.928 19.951H378.072L385 7.69189Z" fill="#FFC850"/>
<path d="M420 7.69189L426.928 19.951H413.072L420 7.69189Z" fill="#FFC850"/>
<path d="M455 8.65417L461.928 20.9133H448.072L455 8.65417Z" fill="#FFC850"/>
<path d="M490 8.65417L496.928 20.9133H483.072L490 8.65417Z" fill="#FFC850"/>
<path d="M79.6337 7.63535L93.4817 7.17039L86.9765 18.9339L79.6337 7.63535Z" fill="#FFC850"/>
<path d="M114.634 7.63535L128.482 7.17039L121.976 18.9339L114.634 7.63535Z" fill="#FFC850"/>
<path d="M46.706 7.50792L61.2161 7.64337L54.4825 19.2874L46.706 7.50792Z" fill="#FFC850"/>
<path d="M16.706 6.72264L31.2161 6.8581L24.4825 18.5021L16.706 6.72264Z" fill="#FFC850"/>
<path d="M149.634 7.63535L163.482 7.17039L156.976 18.9339L149.634 7.63535Z" fill="#FFC850"/>
<path d="M184.634 7.63535L198.482 7.17039L191.976 18.9339L184.634 7.63535Z" fill="#FFC850"/>
<path d="M219.634 7.63535L233.482 7.17039L226.976 18.9339L219.634 7.63535Z" fill="#FFC850"/>
<path d="M254.634 7.63535L268.482 7.17039L261.976 18.9339L254.634 7.63535Z" fill="#FFC850"/>
<path d="M289.634 8.59251L304.144 8.46609L297.639 20.2296L289.634 8.59251Z" fill="#FFC850"/>
<path d="M324.634 8.59251L339.144 8.46609L332.639 20.2296L324.634 8.59251Z" fill="#FFC850"/>
<path d="M359.634 8.59251L374.144 8.46609L367.639 20.2296L359.634 8.59251Z" fill="#FFC850"/>
<path d="M394.634 9.55479L408.482 9.08982L401.976 20.8533L394.634 9.55479Z" fill="#FFC850"/>
<path d="M429.634 9.55479L443.482 9.08982L436.976 20.8533L429.634 9.55479Z" fill="#FFC850"/>
<path d="M464.634 9.55894L478.482 9.09397L471.976 20.8575L464.634 9.55894Z" fill="#FFC850"/>
<line x1="1.0041" y1="6.16444" x2="497" y2="8.19721" stroke="#10145F" stroke-width="2"/>
<line x1="1.0041" y1="19.1644" x2="497" y2="21.1972" stroke="#10145F" stroke-width="2"/>
</svg>
