<svg width="30" height="30" viewBox="0 0 30 30" fill="none" xmlns="http://www.w3.org/2000/svg">
<g clip-path="url(#clip0)">
<path d="M27.1802 6.70555L26.5178 4.72C26.2656 3.96378 25.5604 3.45566 24.7634 3.45566H19.1963V1.64314C19.1963 0.737228 18.4598 0 17.5541 0H12.456C11.5505 0 10.8138 0.737228 10.8138 1.64314V3.45566H5.24692C4.44972 3.45566 3.74454 3.96378 3.49231 4.72L2.82993 6.70555C2.67909 7.15759 2.75554 7.65816 3.03409 8.04474C3.31264 8.43132 3.76331 8.66226 4.23984 8.66226H4.9322L6.4561 27.5063C6.5694 28.9046 7.75592 30 9.15782 30H21.1615C22.5632 30 23.7499 28.9046 23.863 27.5061L25.3869 8.66226H25.7703C26.2468 8.66226 26.6975 8.43132 26.976 8.04497C27.2546 7.65839 27.331 7.15759 27.1802 6.70555ZM12.5716 1.75781H17.4385V3.45566H12.5716V1.75781ZM22.1109 27.3644C22.0711 27.8568 21.6541 28.2422 21.1615 28.2422H9.15782C8.66526 28.2422 8.24824 27.8568 8.20842 27.3644L6.69574 8.66226H23.6234L22.1109 27.3644ZM4.61681 6.90445L5.15994 5.27618C5.1723 5.23865 5.20732 5.21347 5.24692 5.21347H24.7634C24.803 5.21347 24.8378 5.23865 24.8504 5.27618L25.3935 6.90445H4.61681Z" fill="#EE4E2F"/>
<path d="M19.3076 27.3021C19.3231 27.303 19.3385 27.3033 19.354 27.3033C19.8184 27.3033 20.2066 26.9393 20.2309 26.4701L21.0562 10.6265C21.0814 10.1417 20.7088 9.7281 20.2242 9.70293C19.7383 9.67706 19.3261 10.0501 19.3007 10.5349L18.4756 26.3786C18.4504 26.8633 18.8228 27.2769 19.3076 27.3021Z" fill="#EE4E2F"/>
<path d="M9.81845 26.472C9.84409 26.9405 10.2318 27.3031 10.6953 27.3031C10.7113 27.3031 10.7278 27.3026 10.7441 27.3017C11.2286 27.2754 11.6001 26.8611 11.5737 26.3764L10.7093 10.5327C10.6829 10.0479 10.2687 9.67645 9.78389 9.703C9.29935 9.72932 8.92788 10.1436 8.9542 10.6284L9.81845 26.472Z" fill="#EE4E2F"/>
<path d="M15.0149 27.3034C15.5004 27.3034 15.8938 26.9099 15.8938 26.4245V10.5808C15.8938 10.0954 15.5004 9.7019 15.0149 9.7019C14.5294 9.7019 14.136 10.0954 14.136 10.5808V26.4245C14.136 26.9099 14.5294 27.3034 15.0149 27.3034Z" fill="#EE4E2F"/>
</g>
<defs>
<clipPath id="clip0">
<rect width="30" height="30" fill="white"/>
</clipPath>
</defs>
</svg>
