<svg width="100" height="100" viewBox="0 0 180 133"  fill="none" xmlns="http://www.w3.org/2000/svg">
<g opacity="0.8" clip-path="url(#clip0)">
<path d="M117.563 92.9341C116.138 92.9341 114.984 93.8423 114.984 94.9632V126.753H107.766C106.341 126.753 105.188 127.661 105.188 128.782C105.188 129.903 106.341 130.811 107.766 130.811H117.563C118.987 130.811 120.141 129.903 120.141 128.782V96.9923H134.75V92.9341H117.563Z" fill="#49C9FF"/>
<path d="M68.2345 126.753H61.0157V94.9632C61.0157 93.8423 59.8617 92.9341 58.4376 92.9341H41.25V96.9923H55.8594V128.782C55.8594 129.903 57.0134 130.811 58.4376 130.811H68.2345C69.6586 130.811 70.8126 129.903 70.8126 128.782C70.8126 127.661 69.6586 126.753 68.2345 126.753Z" fill="#E18F4E"/>
<path d="M98.6563 68.5846L83.1875 80.7594H108.969V68.5846H98.6563Z" fill="#808080"/>
<path d="M98.6564 68.5846H67.0312V80.7594H98.6564V68.5846Z" fill="#999999"/>
<path d="M20.625 68.5846L30.9375 101.051L43.8282 96.9924V80.7594L41.2501 76.7011L20.625 68.5846Z" fill="#B3B3B3"/>
<path d="M10.3125 84.8176C10.3125 91.5416 17.2381 96.9923 25.7813 96.9923L30.9376 101.051V71.29L10.3125 76.7011V84.8176Z" fill="#CCCCCC"/>
<path d="M34.375 52.3515H24.0625L30.9375 76.701H41.2501V57.7625C41.2501 54.774 38.1721 52.3515 34.375 52.3515Z" fill="#1990C2"/>
<path d="M155.376 76.701L150.22 96.9923C158.763 96.9923 165.689 91.5416 165.689 84.8176L155.376 76.701Z" fill="#2DADE3"/>
<path d="M155.375 84.8176V76.701L131.312 84.8176L132.172 101.051H142.484L150.219 96.9923C153.066 96.9923 155.375 91.5416 155.375 84.8176Z" fill="#49C9FF"/>
<path d="M158.813 52.3515H148.501L155.376 84.8176H165.689V57.7625C165.689 54.774 162.611 52.3515 158.813 52.3515Z" fill="#808080"/>
<path d="M148.5 52.3515H141.625C137.828 52.3515 134.75 54.774 134.75 57.7625V76.701L132.172 84.8176H155.375V57.7625C155.375 54.774 152.297 52.3515 148.5 52.3515Z" fill="#999999"/>
<path d="M30.9376 57.7625C30.9376 54.774 27.8596 52.3515 24.0626 52.3515H17.1875C13.3904 52.3515 10.3125 54.774 10.3125 57.7625V76.701H30.9376V57.7625Z" fill="#2DADE3"/>
<path d="M165.688 96.9924L158.813 101.051L165.688 105.109H176.001L170.845 96.9924H165.688Z" fill="#CF301B"/>
<path d="M165.688 96.9924H132.172V105.109H165.688V96.9924Z" fill="#FF4128"/>
<path d="M30.9375 96.9924L24.0625 101.051L30.9375 105.109H43.8282V96.9924H30.9375Z" fill="#CF301B"/>
<path d="M30.9376 96.9924H2.57812V105.109H30.9376V96.9924Z" fill="#FF4128"/>
<path d="M25.7803 22.591V44.235C34.3235 44.235 41.2491 38.7843 41.2491 32.0603C41.2491 30.6369 40.9356 29.2717 40.3653 28.002L25.7803 22.591Z" fill="#E18F4E"/>
<path d="M25.7803 19.8854L30.6419 28.002H40.3653C38.2416 23.2738 32.515 19.8854 25.7803 19.8854Z" fill="#40211D"/>
<path d="M11.1953 28.002C10.625 29.2717 10.3115 30.6369 10.3115 32.0603C10.3115 38.7843 17.2371 44.235 25.7803 44.235C28.628 44.235 30.9366 38.7843 30.9366 32.0603C30.9366 30.6369 30.8321 29.2717 30.642 28.002L25.7803 22.591L11.1953 28.002Z" fill="#FFA754"/>
<path d="M25.7803 19.8855C19.0456 19.8855 13.3194 23.2739 11.1953 28.002H30.642C29.9342 23.2739 28.0254 19.8855 25.7803 19.8855Z" fill="#60312C"/>
<path d="M31.2103 10.4162C30.244 8.81806 28.1798 7.71069 25.7814 7.71069C23.3831 7.71069 21.3188 8.81806 20.3526 10.4162C17.0302 10.4162 14.3369 12.536 14.3369 15.1508C14.3369 17.7657 17.0302 19.8855 20.3526 19.8855H31.2103C34.5326 19.8855 37.2259 17.7657 37.2259 15.1508C37.2259 12.536 34.5326 10.4162 31.2103 10.4162Z" fill="#60312C"/>
<path d="M159.501 22.3204H150.22V44.235C158.762 44.235 165.689 38.7834 165.689 32.0603C165.689 28.0777 163.258 24.5389 159.501 22.3204Z" fill="#C27749"/>
<path d="M154.756 26.2813C155.152 28.002 155.375 29.9689 155.375 32.0603C155.375 38.7834 153.065 44.235 150.219 44.235C141.677 44.235 134.75 38.7834 134.75 32.0603L154.756 26.2813Z" fill="#E18F4E"/>
<path d="M159.501 22.3204C158.112 23.776 156.521 25.1044 154.757 26.2812L150.22 19.8854C153.698 19.8854 156.916 20.7918 159.501 22.3204Z" fill="#40211D"/>
<path d="M134.75 32.0602C134.75 25.337 141.677 19.8854 150.219 19.8854C152.178 19.8854 153.887 22.4719 154.756 26.2813C149.363 29.885 142.378 32.0602 134.75 32.0602Z" fill="#60312C"/>
<path d="M124.438 76.701L108.969 80.7593L124.438 84.8176H134.75V76.701H124.438Z" fill="#FFA754"/>
<path d="M124.438 76.701H41.25V84.8176H124.438V76.701Z" fill="#FFCB63"/>
<path d="M129.594 82.1121V128.782C129.594 129.903 130.748 130.811 132.172 130.811C133.596 130.811 134.75 129.903 134.75 128.782V84.8176L129.594 82.1121Z" fill="#FFA754"/>
<path d="M41.25 84.8176V128.782C41.25 129.903 42.404 130.811 43.8281 130.811C45.2523 130.811 46.4063 129.903 46.4063 128.782V82.1121L41.25 84.8176Z" fill="#FFCB63"/>
<path d="M170.845 96.9924V128.782C170.845 129.903 171.999 130.811 173.423 130.811C174.847 130.811 176.001 129.903 176.001 128.782V96.9924H170.845Z" fill="#CF301B"/>
<path d="M0 96.9924V128.782C0 129.903 1.15397 130.811 2.57813 130.811C4.00229 130.811 5.15627 129.903 5.15627 128.782V96.9924H0Z" fill="#FF4128"/>
<path d="M70.4688 46.2642C67.6211 46.2642 65.3125 48.0812 65.3125 50.3224C65.3125 52.5637 67.6211 54.3807 70.4688 54.3807L80.7813 62.4972V46.2642H70.4688Z" fill="#FF8646"/>
<path d="M105.531 46.2642H95.2188V62.4972L105.531 54.3807C108.379 54.3807 110.688 52.5637 110.688 50.3224C110.688 48.0812 108.379 46.2642 105.531 46.2642Z" fill="#FF4128"/>
<path d="M100.375 50.3224C100.375 48.0812 98.0665 46.2642 95.2188 46.2642H79.75C76.9024 46.2642 74.5938 48.0812 74.5938 50.3224C74.5938 52.5637 76.9024 54.3807 79.75 54.3807L95.2188 62.4972V54.3807C98.0665 54.3807 100.375 52.5637 100.375 50.3224Z" fill="#FF6337"/>
<path d="M90.5781 40.1768C89.154 40.1768 88 39.2685 88 38.1477V13.7981C88 12.6772 89.154 11.769 90.5781 11.769C92.0023 11.769 93.1563 12.6772 93.1563 13.7981V38.1477C93.1563 39.2685 92.0023 40.1768 90.5781 40.1768Z" fill="#EBEBEB"/>
<path d="M80.2656 19.8855C78.8415 19.8855 77.6875 18.9773 77.6875 17.8564V13.7981C77.6875 12.6772 78.8415 11.769 80.2656 11.769C81.6898 11.769 82.8438 12.6772 82.8438 13.7981V17.8564C82.8438 18.9773 81.6898 19.8855 80.2656 19.8855Z" fill="#EBEBEB"/>
<path d="M80.2656 40.1768C78.8415 40.1768 77.6875 39.2686 77.6875 38.1477V25.9729C77.6875 24.852 78.8415 23.9438 80.2656 23.9438C81.6898 23.9438 82.8438 24.852 82.8438 25.9729V38.1477C82.8438 39.2686 81.6898 40.1768 80.2656 40.1768Z" fill="#EBEBEB"/>
<path d="M105.531 56.4098L98.6553 68.5846H108.97C112.751 68.584 115.844 66.1493 115.844 63.1735V56.4098H105.531Z" fill="#353535"/>
<path d="M60.1562 56.4098V63.1735C60.1562 66.1496 63.25 68.5846 67.0313 68.5846H98.6574C102.438 68.584 105.531 66.1493 105.531 63.1735V56.4098H60.1562Z" fill="#4F4F4F"/>
<path d="M121 58.4389H55C53.5758 58.4389 52.4219 57.5306 52.4219 56.4097C52.4219 55.2889 53.5758 54.3806 55 54.3806H121C122.424 54.3806 123.578 55.2889 123.578 56.4097C123.578 57.5306 122.424 58.4389 121 58.4389Z" fill="#353535"/>
<g clip-path="url(#clip1)">
<path d="M117.563 92.9341C116.138 92.9341 114.984 93.8423 114.984 94.9632V126.753H107.766C106.341 126.753 105.188 127.661 105.188 128.782C105.188 129.903 106.341 130.811 107.766 130.811H117.563C118.987 130.811 120.141 129.903 120.141 128.782V96.9923H134.75V92.9341H117.563Z" fill="#49C9FF"/>
<path d="M68.2345 126.753H61.0157V94.9632C61.0157 93.8423 59.8617 92.9341 58.4376 92.9341H41.25V96.9923H55.8594V128.782C55.8594 129.903 57.0134 130.811 58.4376 130.811H68.2345C69.6586 130.811 70.8126 129.903 70.8126 128.782C70.8126 127.661 69.6586 126.753 68.2345 126.753Z" fill="#E18F4E"/>
<path d="M98.6563 68.5846L83.1875 80.7594H108.969V68.5846H98.6563Z" fill="#808080"/>
<path d="M98.6564 68.5846H67.0312V80.7594H98.6564V68.5846Z" fill="#999999"/>
<path d="M20.625 68.5846L30.9375 101.051L43.8282 96.9924V80.7594L41.2501 76.7011L20.625 68.5846Z" fill="#B3B3B3"/>
<path d="M10.3125 84.8176C10.3125 91.5416 17.2381 96.9923 25.7813 96.9923L30.9376 101.051V71.29L10.3125 76.7011V84.8176Z" fill="#CCCCCC"/>
<path d="M34.375 52.3515H24.0625L30.9375 76.701H41.2501V57.7625C41.2501 54.774 38.1721 52.3515 34.375 52.3515Z" fill="#1990C2"/>
<path d="M155.376 76.701L150.22 96.9923C158.763 96.9923 165.689 91.5416 165.689 84.8176L155.376 76.701Z" fill="#2DADE3"/>
<path d="M155.375 84.8176V76.701L131.312 84.8176L132.172 101.051H142.484L150.219 96.9923C153.066 96.9923 155.375 91.5416 155.375 84.8176Z" fill="#49C9FF"/>
<path d="M158.813 52.3515H148.501L155.376 84.8176H165.689V57.7625C165.689 54.774 162.611 52.3515 158.813 52.3515Z" fill="#808080"/>
<path d="M148.5 52.3515H141.625C137.828 52.3515 134.75 54.774 134.75 57.7625V76.701L132.172 84.8176H155.375V57.7625C155.375 54.774 152.297 52.3515 148.5 52.3515Z" fill="#999999"/>
<path d="M30.9376 57.7625C30.9376 54.774 27.8596 52.3515 24.0626 52.3515H17.1875C13.3904 52.3515 10.3125 54.774 10.3125 57.7625V76.701H30.9376V57.7625Z" fill="#2DADE3"/>
<path d="M165.688 96.9924L158.813 101.051L165.688 105.109H176.001L170.845 96.9924H165.688Z" fill="#CF301B"/>
<path d="M165.688 96.9924H132.172V105.109H165.688V96.9924Z" fill="#FF4128"/>
<path d="M30.9375 96.9924L24.0625 101.051L30.9375 105.109H43.8282V96.9924H30.9375Z" fill="#CF301B"/>
<path d="M30.9376 96.9924H2.57812V105.109H30.9376V96.9924Z" fill="#FF4128"/>
<path d="M25.7803 22.591V44.235C34.3235 44.235 41.2491 38.7843 41.2491 32.0603C41.2491 30.6369 40.9356 29.2717 40.3653 28.002L25.7803 22.591Z" fill="#E18F4E"/>
<path d="M25.7803 19.8854L30.6419 28.002H40.3653C38.2416 23.2738 32.515 19.8854 25.7803 19.8854Z" fill="#40211D"/>
<path d="M11.1953 28.002C10.625 29.2717 10.3115 30.6369 10.3115 32.0603C10.3115 38.7843 17.2371 44.235 25.7803 44.235C28.628 44.235 30.9366 38.7843 30.9366 32.0603C30.9366 30.6369 30.8321 29.2717 30.642 28.002L25.7803 22.591L11.1953 28.002Z" fill="#FFA754"/>
<path d="M25.7803 19.8855C19.0456 19.8855 13.3194 23.2739 11.1953 28.002H30.642C29.9342 23.2739 28.0254 19.8855 25.7803 19.8855Z" fill="#60312C"/>
<path d="M31.2103 10.4162C30.244 8.81806 28.1798 7.71069 25.7814 7.71069C23.3831 7.71069 21.3188 8.81806 20.3526 10.4162C17.0302 10.4162 14.3369 12.536 14.3369 15.1508C14.3369 17.7657 17.0302 19.8855 20.3526 19.8855H31.2103C34.5326 19.8855 37.2259 17.7657 37.2259 15.1508C37.2259 12.536 34.5326 10.4162 31.2103 10.4162Z" fill="#60312C"/>
<path d="M159.501 22.3204H150.22V44.235C158.762 44.235 165.689 38.7834 165.689 32.0603C165.689 28.0777 163.258 24.5389 159.501 22.3204Z" fill="#C27749"/>
<path d="M154.756 26.2813C155.152 28.002 155.375 29.9689 155.375 32.0603C155.375 38.7834 153.065 44.235 150.219 44.235C141.677 44.235 134.75 38.7834 134.75 32.0603L154.756 26.2813Z" fill="#E18F4E"/>
<path d="M159.501 22.3204C158.112 23.776 156.521 25.1044 154.757 26.2812L150.22 19.8854C153.698 19.8854 156.916 20.7918 159.501 22.3204Z" fill="#40211D"/>
<path d="M134.75 32.0602C134.75 25.337 141.677 19.8854 150.219 19.8854C152.178 19.8854 153.887 22.4719 154.756 26.2813C149.363 29.885 142.378 32.0602 134.75 32.0602Z" fill="#60312C"/>
<path d="M124.438 76.701L108.969 80.7593L124.438 84.8176H134.75V76.701H124.438Z" fill="#FFA754"/>
<path d="M124.438 76.701H41.25V84.8176H124.438V76.701Z" fill="#FFCB63"/>
<path d="M129.594 82.1121V128.782C129.594 129.903 130.748 130.811 132.172 130.811C133.596 130.811 134.75 129.903 134.75 128.782V84.8176L129.594 82.1121Z" fill="#FFA754"/>
<path d="M41.25 84.8176V128.782C41.25 129.903 42.404 130.811 43.8281 130.811C45.2523 130.811 46.4063 129.903 46.4063 128.782V82.1121L41.25 84.8176Z" fill="#FFCB63"/>
<path d="M170.845 96.9924V128.782C170.845 129.903 171.999 130.811 173.423 130.811C174.847 130.811 176.001 129.903 176.001 128.782V96.9924H170.845Z" fill="#CF301B"/>
<path d="M0 96.9924V128.782C0 129.903 1.15397 130.811 2.57813 130.811C4.00229 130.811 5.15627 129.903 5.15627 128.782V96.9924H0Z" fill="#FF4128"/>
<path d="M70.4688 46.2642C67.6211 46.2642 65.3125 48.0812 65.3125 50.3224C65.3125 52.5637 67.6211 54.3807 70.4688 54.3807L80.7813 62.4972V46.2642H70.4688Z" fill="#FF8646"/>
<path d="M105.531 46.2642H95.2188V62.4972L105.531 54.3807C108.379 54.3807 110.688 52.5637 110.688 50.3224C110.688 48.0812 108.379 46.2642 105.531 46.2642Z" fill="#FF4128"/>
<path d="M100.375 50.3224C100.375 48.0812 98.0665 46.2642 95.2188 46.2642H79.75C76.9024 46.2642 74.5938 48.0812 74.5938 50.3224C74.5938 52.5637 76.9024 54.3807 79.75 54.3807L95.2188 62.4972V54.3807C98.0665 54.3807 100.375 52.5637 100.375 50.3224Z" fill="#FF6337"/>
<path d="M90.5781 40.1768C89.154 40.1768 88 39.2685 88 38.1477V13.7981C88 12.6772 89.154 11.769 90.5781 11.769C92.0023 11.769 93.1563 12.6772 93.1563 13.7981V38.1477C93.1563 39.2685 92.0023 40.1768 90.5781 40.1768Z" fill="#EBEBEB"/>
<path d="M80.2656 19.8855C78.8415 19.8855 77.6875 18.9773 77.6875 17.8564V13.7981C77.6875 12.6772 78.8415 11.769 80.2656 11.769C81.6898 11.769 82.8438 12.6772 82.8438 13.7981V17.8564C82.8438 18.9773 81.6898 19.8855 80.2656 19.8855Z" fill="#EBEBEB"/>
<path d="M80.2656 40.1768C78.8415 40.1768 77.6875 39.2686 77.6875 38.1477V25.9729C77.6875 24.852 78.8415 23.9438 80.2656 23.9438C81.6898 23.9438 82.8438 24.852 82.8438 25.9729V38.1477C82.8438 39.2686 81.6898 40.1768 80.2656 40.1768Z" fill="#EBEBEB"/>
<path d="M105.531 56.4098L98.6553 68.5846H108.97C112.751 68.584 115.844 66.1493 115.844 63.1735V56.4098H105.531Z" fill="#353535"/>
<path d="M60.1562 56.4098V63.1735C60.1562 66.1496 63.25 68.5846 67.0313 68.5846H98.6574C102.438 68.584 105.531 66.1493 105.531 63.1735V56.4098H60.1562Z" fill="#4F4F4F"/>
<path d="M121 58.4389H55C53.5758 58.4389 52.4219 57.5306 52.4219 56.4097C52.4219 55.2889 53.5758 54.3806 55 54.3806H121C122.424 54.3806 123.578 55.2889 123.578 56.4097C123.578 57.5306 122.424 58.4389 121 58.4389Z" fill="#353535"/>
</g>
</g>
<defs>
<clipPath id="clip0">
<rect width="176.001" height="138.522" fill="white"/>
</clipPath>
<clipPath id="clip1">
<rect width="176.001" height="138.522" fill="white"/>
</clipPath>
</defs>
</svg>
