<svg width="30" height="35" viewBox="0 0 30 35" fill="none" xmlns="http://www.w3.org/2000/svg">
<path d="M29.7071 12.3595C29.3166 11.969 28.6834 11.969 28.2929 12.3595L24.5858 16.0667H5.41423L1.7071 12.3595C1.31663 11.969 0.683433 11.969 0.2929 12.3595C-0.0976333 12.7501 -0.0976333 13.3832 0.2929 13.7737L4.00003 17.4809V33.1333C4.00003 33.6856 4.44777 34.1333 5.00003 34.1333H25C25.5523 34.1333 26 33.6856 26 33.1333V17.4809L29.7071 13.7737C30.0976 13.3833 30.0976 12.7501 29.7071 12.3595ZM6.00003 32.1333V18.0667H24V32.1333H6.00003Z" fill="white"/>
<path d="M15 20.0667C13.3458 20.0667 12 21.4125 12 23.0667C12 23.6189 12.4477 24.0667 13 24.0667C13.5523 24.0667 14 23.6189 14 23.0667C14 22.5153 14.4486 22.0667 15 22.0667C15.5514 22.0667 16 22.5153 16 23.0667C16 23.4881 15.7337 23.8667 15.3373 24.0086C14.5374 24.2951 14 25.0584 14 25.9079V26.0667C14 26.6189 14.4477 27.0667 15 27.0667C15.5523 27.0667 16 26.6189 16 26.0667V25.9079C16 25.9009 16.005 25.8939 16.0118 25.8915C17.201 25.4655 18 24.3303 18 23.0667C18 21.4125 16.6542 20.0667 15 20.0667Z" fill="white"/>
<path d="M15 30.0667C15.5523 30.0667 16 29.619 16 29.0667C16 28.5144 15.5523 28.0667 15 28.0667C14.4477 28.0667 14 28.5144 14 29.0667C14 29.619 14.4477 30.0667 15 30.0667Z" fill="white"/>
<path d="M14.2929 13.7738C14.4881 13.9691 14.7441 14.0667 15 14.0667C15.2559 14.0667 15.5119 13.9691 15.7071 13.7738L21.7071 7.7738C21.9931 7.4878 22.0786 7.05767 21.9239 6.684C21.7691 6.31033 21.4045 6.06667 21 6.06667H19V1C19 0.447733 18.5523 0 18 0H12C11.4477 0 11 0.447733 11 1V6.06667H8.99999C8.59552 6.06667 8.23086 6.31033 8.07612 6.684C7.92139 7.05767 8.00692 7.4878 8.29292 7.7738L14.2929 13.7738ZM12 8.06667C12.5523 8.06667 13 7.61893 13 7.06667V2H17V7.06667C17 7.61893 17.4477 8.06667 18 8.06667H18.5858L15 11.6525L11.4142 8.06667H12Z" fill="white"/>
</svg>
